<?xml version="1.0" encoding="UTF-8"?><svg xmlns="http://www.w3.org/2000/svg" viewBox="0 0 103.68 103.02"><defs><style>.d{fill:#454545;}</style></defs><g id="a"/><g id="b"><g id="c"><g><path class="d" d="M103.35,25.91c.22-.24,.36-.57,.32-1.01-.51-6.54-1.69-13.2-5.89-18.45-3.54-4.43-9.49-7.13-15.08-5.63-19.85,.31-39.71,.13-59.55-.55-.22-.15-.49-.25-.82-.26-5.84-.15-11.74,2.26-15.68,6.61C2.72,10.98,.78,17.01,1.51,22.84c.04,.31,.14,.6,.3,.84C.37,42.32-.22,61.02,.07,79.71c0,.16,.03,.31,.07,.44,.02,3.03,1.07,6.21,2.11,9,1.08,2.87,2.57,5.64,4.86,7.73,4.37,4,10.22,5.03,15.95,5.5,.04,0,.07,.01,.11,.01h.08c.97,.08,1.94,.14,2.89,.2,.27,.02,.49-.03,.68-.12,17.57,.43,35.14,.61,52.71,.51,.48,0,.84-.19,1.09-.47,3.27-.26,6.59-.63,9.68-1.77,3.41-1.26,6.2-3.4,8.33-6.33,2.01-2.76,3.29-6.04,4.11-9.34,.82-3.28,1.4-6.74,.34-9.98-.05-16.4,.04-32.79,.27-49.19Zm-3.64,58.93c-.77,2.87-1.9,5.66-3.67,8.06-3.99,5.43-10.54,6.25-16.8,6.73-.37,.03-.67,.17-.9,.37-18.39,.09-36.78-.11-55.17-.59,0,0-.01,0-.02,0-4.97-.39-10.16-1.22-13.91-4.64-1.96-1.78-3.25-4.14-4.16-6.6-.97-2.64-2.03-5.68-1.94-8.51,0-.19-.02-.35-.07-.51-.28-19.24,.35-38.49,1.9-57.68,.05-.59-.2-1-.58-1.23,.07-4.2,1.53-8.35,4.39-11.5,3.34-3.69,8.17-5.73,13.13-5.72,.21,.13,.46,.22,.76,.23,19.4,.67,38.82,.85,58.23,.58,.32,.34,.79,.49,1.38,.27,.29-.11,.58-.21,.88-.29,.19,0,.39,0,.58,0,.36,0,.65-.11,.87-.29,4.33-.56,8.59,1.76,11.23,5.29,3.04,4.06,4.12,9.09,4.64,14.05-.06,.16-.1,.34-.11,.54-.26,17.06-.36,34.12-.3,51.18-.08,.27-.09,.56,0,.87,0,.31,0,.61,0,.92,0,.53,.23,.91,.56,1.15,.34,2.41-.34,5.08-.94,7.31Z"/><path class="d" d="M49.67,27.39s0-.04,0-.07c0-.67-.45-1.21-1.05-1.41-.36-.17-.77-.2-1.14-.11-3.65-.12-7.29-.23-10.94-.35-.81-.03-1.5,.71-1.5,1.5,0,.02,0,.04,0,.07-.07,.13-.14,.27-.18,.43-3.53,14.97-8.07,29.68-13.6,44.04-.43,1.12,.53,1.85,1.48,1.81,.48,.4,1.11,.46,1.72,.18-.37,.17,.07-.02,.15-.05,.14-.04,.28-.08,.42-.1,.03,0,.06,0,.08-.01h0c.13,0,.25-.02,.38-.02,.56-.02,1.12,.04,1.67,.1,.98,.11,1.91,.21,2.88,.16,.25,.19,.56,.3,.88,.3,.83,0,1.48-.69,1.5-1.5,.04-1.77,.86-3.42,1.72-4.97,.86-1.55,1.76-3.08,2.65-4.62,1.29,.27,2.69,.33,4,.4,2.77,.14,5.54-.04,8.28-.46,1.18,2.52,2.37,5.04,3.55,7.56-.02,.06-.05,.11-.06,.17-.17,.73,.22,1.7,1.05,1.85,2.98,.53,5.99,.49,8.95-.12,.05-.01,.1-.03,.15-.05,1.03,.55,2.64-.24,2.2-1.67-4.48-14.56-9.58-28.92-15.26-43.05Zm10.77,42.11c-.13,.02-.26,.03-.39,.05-.64,.07-1.29,.11-1.93,.12-.65,0-1.29,0-1.93-.06-.19-.01-.38-.04-.57-.06-1.5-3.19-2.99-6.37-4.49-9.56-.33-.71-1.41-.95-2.05-.54-.14,.09-.24,.21-.34,.32-.07,0-.13,0-.2,0-1.92,.3-3.86,.44-5.8,.44-.96,0-1.92-.04-2.87-.11-.57-.04-1.24-.05-1.86-.14-.28-.4-.72-.7-1.22-.65-.33,.03-.61,.14-.87,.29-.44,.01-.87,.22-1.16,.72-1.13,1.96-2.29,3.9-3.37,5.89-.76,1.39-1.41,2.84-1.73,4.38-.07,0-.13,0-.2,0-.3,0-.6-.02-.91-.05-.57-.05-1.13-.14-1.7-.19-.66-.07-1.31-.08-1.95,0,5.16-13.66,9.45-27.65,12.81-41.86,3.1,.1,6.2,.2,9.31,.3,5.34,13.32,10.15,26.85,14.42,40.55-.21,.04-.43,.08-.64,.12-.04,0-.32,.05-.36,.05Z"/><path class="d" d="M48.86,51.3c-2.04-4.9-3.59-10.01-4.64-15.21-.34-1.65-2.57-1.25-2.89,.12-.16,.11-.29,.27-.37,.45-2.1,4.76-3.88,9.65-5.29,14.65-.08,.3-.07,.56,0,.8-.13,.7,.3,1.63,1.06,1.74,3.63,.54,7.28,.7,10.93,.45,.21,.03,.42,.01,.62-.03,.07,0,.15,0,.22-.01,.81-.07,1.5-.64,1.5-1.5,0-.64-.49-1.31-1.14-1.47Zm-10.01-.17c.99-3.39,2.13-6.72,3.45-9.99,.91,3.5,2.04,6.93,3.38,10.3-2.28,.07-4.57-.04-6.83-.3Z"/><path class="d" d="M75.99,36.74c-.35-.53-.95-.74-1.63-.64h-.1l-.05,.02c-.16,.02-.32,.04-.48,.06-.27,.03-.55,.06-.82,.09-.57,.06-1.14,.1-1.71,.13-1.14,.06-2.29,.08-3.44,.05-.59-.01-1.15,.39-1.39,.92-.35,.23-.58,.63-.54,1.2,.9,11.06,1.21,22.15,.94,33.24-.03,1.41,1.56,1.79,2.43,1.13,2.16-.1,4.3-.32,6.43-.67,.01,0,.03-.01,.04-.01,.3,1.53,2.88,1.39,2.97-.39,.6-11.41-.05-22.84-1.88-34.12-.09-.56-.4-.88-.79-1.01Zm-1.14,32.64c-.27,.04-.55,.09-.82,.13-.13,.02-.25,.04-.38,.05h-.11c-.53,.08-1.06,.14-1.59,.19-.71,.07-1.43,.1-2.15,.14,.19-10.16-.1-20.32-.9-30.45,1.7,0,3.39-.12,5.08-.31,1.58,10.03,2.16,20.19,1.78,30.33-.28-.1-.58-.14-.91-.09Z"/><path class="d" d="M69.4,32.88c1.23,.61,2.66,1.16,4.06,1.07,1.28-.08,2.5-.61,3.35-1.59,1.56-1.78,2-4.37,1.11-6.57-.91-2.26-2.96-4.1-5.5-4.12-.84,0-1.69,.2-2.48,.47-.69,.25-1.4,.52-2,.96-.91,.66-1.53,1.6-1.66,2.62-.13,.15-.23,.33-.29,.54-.45,1.38-.26,2.98,.55,4.2,.7,1.06,1.73,1.85,2.86,2.41Zm4.56-2.05c.07-.03,.21-.07,0,0h0Zm-1.24-6.14c.2,.01,.08,0,0,0h0Zm-3.5,1.42v.06h0s0,.01,0,.02c0-.01,0-.03-.01-.04v.02s0-.04,0-.05Zm.02,.11v-.02h0v-.03c.01-.05,.03-.14,.03-.16,0-.01,0-.02,0-.03,.01-.02,.02-.04,.04-.07,.01-.02,.04-.06,.06-.09,.05-.06,.11-.11,.16-.16,.22-.21,.1-.08,.05-.04,.12-.08,.25-.16,.39-.23,.03-.02,.38-.18,.38-.18,.22-.09,.43-.16,.65-.24,.54-.18,.97-.28,1.43-.28,.09,0,.17,0,.26,.01,.18,.04,.36,.08,.54,.14,.02,0,.09,.04,.13,.06l.09,.05c.09,.05,.19,.1,.28,.16,.01,0,.08,.05,.14,.09,.05,.04,.18,.15,.18,.14,.06,.06,.13,.12,.19,.18,.11,.11,.21,.22,.3,.33-.02-.01,.2,.28,.24,.34,.12,.19,.21,.39,.32,.59h0c.03,.12,.08,.22,.11,.32,.05,.17,.09,.34,.13,.51l.02,.06c0,.06,.01,.13,.02,.19,.01,.22,0,.43,0,.64,0,.02,0,.03,0,.05-.02,.08-.03,.17-.05,.25-.04,.19-.09,.38-.15,.56-.02,.06-.05,.13-.07,.19l-.02,.05c-.1,.19-.2,.37-.32,.55l-.02,.03c-.05,.05-.09,.11-.14,.16-.07,.08-.15,.15-.22,.22-.01,.01-.06,.05-.09,.07-.06,.04-.15,.09-.15,.09-.07,.04-.14,.07-.21,.11-.13,.04-.26,.08-.4,.11,.06-.01,.26,0-.08,.01-.11,0-.22,0-.32,0-.09,0-.18,0-.26-.02-.03,0-.19-.03-.23-.04-.22-.05-.43-.1-.64-.17-.13-.04-.26-.09-.39-.14-.04-.01-.39-.16-.27-.11-.27-.12-.82-.4-1.19-.63-.1-.06-.2-.13-.3-.2-.04-.03-.05-.03-.06-.04,0,0,0,0-.03-.03-.18-.16-.35-.32-.51-.49-.03-.03-.09-.11-.11-.15-.05-.08-.1-.15-.15-.23-.02-.03-.06-.13-.09-.17-.04-.1-.07-.2-.1-.31,0-.02-.02-.09-.03-.15,.6-.46,.76-1.19,.46-1.88Z"/><path class="d" d="M69.23,26.19h0c.02,.05,.04,.07,0,0Z"/><polygon class="d" points="69.22 26.16 69.22 26.16 69.22 26.16 69.22 26.16 69.22 26.16"/></g></g></g></svg>