<?xml version="1.0" encoding="utf-8"?>
<!-- Generator: Adobe Illustrator 26.1.0, SVG Export Plug-In . SVG Version: 6.00 Build 0)  -->
<svg version="1.1" id="Capa_1" xmlns="http://www.w3.org/2000/svg" xmlns:xlink="http://www.w3.org/1999/xlink" x="0px" y="0px"
	 viewBox="0 0 103.7 103" style="enable-background:new 0 0 103.7 103;" xml:space="preserve">
<style type="text/css">
	.st0{fill:#FFAC1F;}
</style>
<g id="a">
</g>
<g id="b">
	<g id="c">
		<g>
			<path class="st0" d="M103.3,25.9c0.2-0.2,0.4-0.6,0.3-1c-0.5-6.5-1.7-13.2-5.9-18.5C94.2,2,88.3-0.7,82.7,0.8
				C62.8,1.1,43,0.9,23.1,0.3C22.9,0.1,22.7,0,22.3,0C16.5-0.1,10.6,2.3,6.6,6.6C2.7,11,0.8,17,1.5,22.8c0,0.3,0.1,0.6,0.3,0.8
				c-1.4,18.6-2,37.3-1.7,56c0,0.2,0,0.3,0.1,0.4c0,3,1.1,6.2,2.1,9c1.1,2.9,2.6,5.6,4.9,7.7c4.4,4,10.2,5,15.9,5.5c0,0,0.1,0,0.1,0
				h0.1c1,0.1,1.9,0.1,2.9,0.2c0.3,0,0.5,0,0.7-0.1c17.6,0.4,35.1,0.6,52.7,0.5c0.5,0,0.8-0.2,1.1-0.5c3.3-0.3,6.6-0.6,9.7-1.8
				c3.4-1.3,6.2-3.4,8.3-6.3c2-2.8,3.3-6,4.1-9.3c0.8-3.3,1.4-6.7,0.3-10C103,58.7,103.1,42.3,103.3,25.9L103.3,25.9z M99.7,84.8
				c-0.8,2.9-1.9,5.7-3.7,8.1c-4,5.4-10.5,6.2-16.8,6.7c-0.4,0-0.7,0.2-0.9,0.4c-18.4,0.1-36.8-0.1-55.2-0.6c0,0,0,0,0,0
				c-5-0.4-10.2-1.2-13.9-4.6c-2-1.8-3.2-4.1-4.2-6.6c-1-2.6-2-5.7-1.9-8.5c0-0.2,0-0.3-0.1-0.5C2.8,59.9,3.4,40.7,5,21.5
				c0.1-0.6-0.2-1-0.6-1.2C4.5,16,5.9,11.9,8.8,8.7C12.1,5.1,17,3,21.9,3c0.2,0.1,0.5,0.2,0.8,0.2c19.4,0.7,38.8,0.8,58.2,0.6
				c0.3,0.3,0.8,0.5,1.4,0.3c0.3-0.1,0.6-0.2,0.9-0.3c0.2,0,0.4,0,0.6,0c0.4,0,0.7-0.1,0.9-0.3c4.3-0.6,8.6,1.8,11.2,5.3
				c3,4.1,4.1,9.1,4.6,14c-0.1,0.2-0.1,0.3-0.1,0.5c-0.3,17.1-0.4,34.1-0.3,51.2c-0.1,0.3-0.1,0.6,0,0.9c0,0.3,0,0.6,0,0.9
				c0,0.5,0.2,0.9,0.6,1.2C101,79.9,100.3,82.6,99.7,84.8L99.7,84.8z"/>
			<path class="st0" d="M49.7,27.4C49.7,27.4,49.7,27.3,49.7,27.4c0-0.7-0.5-1.3-1-1.5c-0.4-0.2-0.8-0.2-1.1-0.1
				c-3.7-0.1-7.3-0.2-10.9-0.4c-0.8,0-1.5,0.7-1.5,1.5c0,0,0,0,0,0.1c-0.1,0.1-0.1,0.3-0.2,0.4c-3.5,15-8.1,29.7-13.6,44
				c-0.4,1.1,0.5,1.8,1.5,1.8c0.5,0.4,1.1,0.5,1.7,0.2c-0.4,0.2,0.1,0,0.1-0.1c0.1,0,0.3-0.1,0.4-0.1c0,0,0.1,0,0.1,0l0,0
				c0.1,0,0.2,0,0.4,0c0.6,0,1.1,0,1.7,0.1c1,0.1,1.9,0.2,2.9,0.2c0.2,0.2,0.6,0.3,0.9,0.3c0.8,0,1.5-0.7,1.5-1.5
				c0-1.8,0.9-3.4,1.7-5s1.8-3.1,2.7-4.6c1.3,0.3,2.7,0.3,4,0.4c2.8,0.1,5.5,0,8.3-0.5c1.2,2.5,2.4,5,3.5,7.6c0,0.1,0,0.1-0.1,0.2
				c-0.2,0.7,0.2,1.7,1,1.8c3,0.5,6,0.5,9-0.1c0,0,0.1,0,0.2-0.1c1,0.6,2.6-0.2,2.2-1.7C60.4,55.9,55.3,41.5,49.7,27.4L49.7,27.4z
				 M60.4,69.5c-0.1,0-0.3,0-0.4,0.1c-0.6,0.1-1.3,0.1-1.9,0.1c-0.7,0-1.3,0-1.9-0.1c-0.2,0-0.4,0-0.6-0.1c-1.5-3.2-3-6.4-4.5-9.6
				c-0.3-0.7-1.4-1-2-0.5c-0.1,0.1-0.2,0.2-0.3,0.3c-0.1,0-0.1,0-0.2,0c-1.9,0.3-3.9,0.4-5.8,0.4c-1,0-1.9,0-2.9-0.1
				c-0.6,0-1.2,0-1.9-0.1c-0.3-0.4-0.7-0.7-1.2-0.7c-0.3,0-0.6,0.1-0.9,0.3c-0.4,0-0.9,0.2-1.2,0.7c-1.1,2-2.3,3.9-3.4,5.9
				c-0.8,1.4-1.4,2.8-1.7,4.4c-0.1,0-0.1,0-0.2,0c-0.3,0-0.6,0-0.9-0.1c-0.6-0.1-1.1-0.1-1.7-0.2c-0.7-0.1-1.3-0.1-2,0
				c5.2-13.7,9.5-27.7,12.8-41.9c3.1,0.1,6.2,0.2,9.3,0.3c5.3,13.3,10.1,26.9,14.4,40.5c-0.2,0-0.4,0.1-0.6,0.1
				C60.8,69.5,60.5,69.5,60.4,69.5L60.4,69.5z"/>
			<path class="st0" d="M48.9,51.3c-2-4.9-3.6-10-4.6-15.2c-0.3-1.7-2.6-1.2-2.9,0.1c-0.2,0.1-0.3,0.3-0.4,0.5
				c-2.1,4.8-3.9,9.6-5.3,14.6c-0.1,0.3-0.1,0.6,0,0.8c-0.1,0.7,0.3,1.6,1.1,1.7c3.6,0.5,7.3,0.7,10.9,0.5c0.2,0,0.4,0,0.6,0
				c0.1,0,0.2,0,0.2,0c0.8-0.1,1.5-0.6,1.5-1.5C50,52.1,49.5,51.5,48.9,51.3L48.9,51.3z M38.8,51.1c1-3.4,2.1-6.7,3.5-10
				c0.9,3.5,2,6.9,3.4,10.3C43.4,51.5,41.1,51.4,38.8,51.1L38.8,51.1z"/>
			<path class="st0" d="M76,36.7c-0.3-0.5-0.9-0.7-1.6-0.6h-0.1l-0.1,0c-0.2,0-0.3,0-0.5,0.1c-0.3,0-0.6,0.1-0.8,0.1
				c-0.6,0.1-1.1,0.1-1.7,0.1c-1.1,0.1-2.3,0.1-3.4,0c-0.6,0-1.2,0.4-1.4,0.9c-0.3,0.2-0.6,0.6-0.5,1.2c0.9,11.1,1.2,22.1,0.9,33.2
				c0,1.4,1.6,1.8,2.4,1.1c2.2-0.1,4.3-0.3,6.4-0.7c0,0,0,0,0,0c0.3,1.5,2.9,1.4,3-0.4c0.6-11.4-0.1-22.8-1.9-34.1
				C76.7,37.2,76.4,36.9,76,36.7L76,36.7z M74.8,69.4c-0.3,0-0.6,0.1-0.8,0.1c-0.1,0-0.2,0-0.4,0.1h-0.1c-0.5,0.1-1.1,0.1-1.6,0.2
				c-0.7,0.1-1.4,0.1-2.2,0.1c0.2-10.2-0.1-20.3-0.9-30.5c1.7,0,3.4-0.1,5.1-0.3c1.6,10,2.2,20.2,1.8,30.3
				C75.5,69.4,75.2,69.3,74.8,69.4L74.8,69.4z"/>
			<path class="st0" d="M69.4,32.9c1.2,0.6,2.7,1.2,4.1,1.1c1.3-0.1,2.5-0.6,3.3-1.6c1.6-1.8,2-4.4,1.1-6.6c-0.9-2.3-3-4.1-5.5-4.1
				c-0.8,0-1.7,0.2-2.5,0.5c-0.7,0.2-1.4,0.5-2,1c-0.9,0.7-1.5,1.6-1.7,2.6c-0.1,0.1-0.2,0.3-0.3,0.5c-0.4,1.4-0.3,3,0.6,4.2
				C67.2,31.5,68.3,32.3,69.4,32.9L69.4,32.9z M74,30.8C74,30.8,74.2,30.8,74,30.8L74,30.8z M72.7,24.7
				C72.9,24.7,72.8,24.7,72.7,24.7L72.7,24.7z M69.2,26.1L69.2,26.1L69.2,26.1C69.2,26.2,69.2,26.2,69.2,26.1
				C69.2,26.2,69.2,26.2,69.2,26.1L69.2,26.1C69.2,26.2,69.2,26.1,69.2,26.1L69.2,26.1z M69.2,26.2L69.2,26.2L69.2,26.2L69.2,26.2
				c0-0.1,0-0.2,0-0.2c0,0,0,0,0,0c0,0,0,0,0-0.1c0,0,0-0.1,0.1-0.1c0.1-0.1,0.1-0.1,0.2-0.2c0.2-0.2,0.1-0.1,0.1,0
				c0.1-0.1,0.2-0.2,0.4-0.2c0,0,0.4-0.2,0.4-0.2c0.2-0.1,0.4-0.2,0.7-0.2c0.5-0.2,1-0.3,1.4-0.3c0.1,0,0.2,0,0.3,0
				c0.2,0,0.4,0.1,0.5,0.1c0,0,0.1,0,0.1,0.1l0.1,0c0.1,0,0.2,0.1,0.3,0.2c0,0,0.1,0,0.1,0.1c0.1,0,0.2,0.1,0.2,0.1
				c0.1,0.1,0.1,0.1,0.2,0.2c0.1,0.1,0.2,0.2,0.3,0.3c0,0,0.2,0.3,0.2,0.3c0.1,0.2,0.2,0.4,0.3,0.6l0,0c0,0.1,0.1,0.2,0.1,0.3
				c0.1,0.2,0.1,0.3,0.1,0.5l0,0.1c0,0.1,0,0.1,0,0.2c0,0.2,0,0.4,0,0.6c0,0,0,0,0,0c0,0.1,0,0.2-0.1,0.2c0,0.2-0.1,0.4-0.2,0.6
				c0,0.1-0.1,0.1-0.1,0.2l0,0c-0.1,0.2-0.2,0.4-0.3,0.5l0,0c-0.1,0-0.1,0.1-0.1,0.2c-0.1,0.1-0.2,0.1-0.2,0.2c0,0-0.1,0-0.1,0.1
				c-0.1,0-0.2,0.1-0.2,0.1c-0.1,0-0.1,0.1-0.2,0.1c-0.1,0-0.3,0.1-0.4,0.1c0.1,0,0.3,0-0.1,0c-0.1,0-0.2,0-0.3,0
				c-0.1,0-0.2,0-0.3,0c0,0-0.2,0-0.2,0c-0.2,0-0.4-0.1-0.6-0.2c-0.1,0-0.3-0.1-0.4-0.1c0,0-0.4-0.2-0.3-0.1
				c-0.3-0.1-0.8-0.4-1.2-0.6c-0.1-0.1-0.2-0.1-0.3-0.2c0,0-0.1,0-0.1,0c0,0,0,0,0,0c-0.2-0.2-0.3-0.3-0.5-0.5c0,0-0.1-0.1-0.1-0.1
				c-0.1-0.1-0.1-0.1-0.2-0.2c0,0-0.1-0.1-0.1-0.2c0-0.1-0.1-0.2-0.1-0.3c0,0,0-0.1,0-0.1C69.4,27.6,69.5,26.9,69.2,26.2L69.2,26.2z
				"/>
			<path class="st0" d="M69.2,26.2L69.2,26.2C69.2,26.2,69.3,26.3,69.2,26.2z"/>
			<polygon class="st0" points="69.2,26.2 69.2,26.2 69.2,26.2 69.2,26.2 			"/>
		</g>
	</g>
</g>
</svg>
