<?xml version="1.0" encoding="utf-8"?>
<!-- Generator: Adobe Illustrator 26.1.0, SVG Export Plug-In . SVG Version: 6.00 Build 0)  -->
<svg version="1.1" id="Capa_1" xmlns="http://www.w3.org/2000/svg" xmlns:xlink="http://www.w3.org/1999/xlink" x="0px" y="0px"
	 viewBox="0 0 79.8 49.1" style="enable-background:new 0 0 79.8 49.1;" xml:space="preserve">
<style type="text/css">
	.st0{fill:#0000C8;}
</style>
<g id="a">
</g>
<g id="b">
	<g id="c">
		<g id="d">
			<g id="e">
				<path class="st0" d="M32.2,22.4c2-0.9,3.7-2.3,5-4.1c1.2-1.8,1.8-4,1.7-6.2c0.1-2-0.3-3.9-1.1-5.8c-0.7-1.5-1.8-2.8-3.2-3.7
					c-1.5-1-3.2-1.7-5-2C27.4,0.2,25.3,0,23.1,0H0v49.1h23.8c2.2,0,4.3-0.3,6.4-0.8c2-0.5,3.9-1.4,5.6-2.5c1.6-1.2,3-2.7,3.9-4.5
					c1-2,1.5-4.2,1.4-6.4c0.1-2.8-0.7-5.5-2.2-7.9C37.3,24.7,34.9,23,32.2,22.4z M10.8,8.4h10.1c0.9,0,1.9,0.1,2.8,0.2
					c0.8,0.1,1.6,0.4,2.4,0.9c0.7,0.4,1.3,1,1.7,1.7c0.4,0.9,0.6,1.8,0.6,2.8c0,2.1-0.6,3.6-1.8,4.5c-1.4,1-3.1,1.4-4.8,1.4H10.8
					V8.4z M29.6,37.3c-0.4,0.8-1,1.5-1.8,2c-0.8,0.5-1.6,0.8-2.5,1c-1,0.2-2,0.3-3,0.3H10.8V27.2h11.7c2-0.1,4,0.5,5.6,1.6
					c1.4,1.1,2.1,2.9,2.1,5.4C30.3,35.3,30.1,36.4,29.6,37.3C29.6,37.4,29.6,37.4,29.6,37.3z"/>
				<path class="st0" d="M79,24.9c-0.6-2.4-1.6-4.7-3.1-6.8c-1.4-2-3.3-3.6-5.5-4.7c-2.4-1.2-5.2-1.8-7.9-1.8
					c-2.5,0-5.1,0.5-7.4,1.4c-4.4,1.9-7.8,5.5-9.5,9.9c-0.9,2.4-1.3,4.9-1.3,7.4c0,2.6,0.4,5.1,1.3,7.6c0.8,2.2,2,4.2,3.6,5.9
					c1.6,1.7,3.6,3,5.7,3.8c2.4,0.9,5,1.4,7.6,1.4c3.6,0.1,7.2-0.8,10.3-2.8c2.8-1.8,4.9-4.9,6.3-9.2h-8.6c-0.5,1.3-1.4,2.4-2.6,3.1
					c-1.5,1-3.3,1.5-5.1,1.5c-2.3,0.2-4.6-0.6-6.3-2.1c-1.7-1.9-2.5-4.4-2.4-6.9h25.6C79.9,30.1,79.7,27.4,79,24.9z M54,26.6
					c0.1-0.8,0.2-1.6,0.5-2.3c0.3-0.9,0.7-1.8,1.3-2.5c0.7-0.8,1.5-1.5,2.5-2c1.2-0.6,2.5-0.9,3.9-0.8c2-0.1,4,0.6,5.5,2l0,0
					c1.4,1.6,2.2,3.5,2.4,5.6C70,26.6,54,26.6,54,26.6z"/>
				<rect x="52.1" y="2.4" class="st0" width="19.9" height="4.8"/>
			</g>
		</g>
	</g>
</g>
</svg>
