<?xml version="1.0" encoding="UTF-8"?><svg xmlns="http://www.w3.org/2000/svg" viewBox="0 0 150.5 150.5"><defs><style>.d{fill:#004f08;}.e{fill:#3d7c2a;}.f{fill:#6d9270;}.g{fill:#3c6927;}</style></defs><g id="a"/><g id="b"><g id="c"><g><rect class="e" x="115.63" y="57.94" width="5.77" height="5.77"/><rect class="e" x="115.63" y="52.17" width="5.77" height="5.77"/><rect class="e" x="115.63" y="46.4" width="5.77" height="5.77"/><rect class="g" x="115.63" y="40.63" width="5.77" height="5.77"/><rect class="g" x="115.63" y="34.87" width="5.77" height="5.76"/><rect class="g" x="115.63" y="29.1" width="5.77" height="5.77"/><rect class="g" x="115.63" y="23.33" width="5.77" height="5.77"/><rect class="g" x="115.63" y="17.56" width="5.77" height="5.77"/><rect class="g" x="115.63" y="11.79" width="5.77" height="5.77"/><rect class="e" x="109.87" y="69.48" width="5.76" height="5.77"/><rect class="e" x="109.87" y="63.71" width="5.76" height="5.77"/><rect class="d" x="109.87" y="57.94" width="5.76" height="5.77"/><rect class="d" x="109.87" y="52.17" width="5.76" height="5.77"/><rect class="d" x="109.87" y="46.4" width="5.76" height="5.77"/><rect class="e" x="109.87" y="40.63" width="5.76" height="5.77"/><rect class="g" x="109.87" y="34.87" width="5.76" height="5.76"/><rect class="g" x="109.87" y="11.79" width="5.76" height="5.77"/><rect class="e" x="104.1" y="75.25" width="5.77" height="5.77"/><rect class="d" x="104.1" y="69.48" width="5.77" height="5.77"/><rect class="d" x="104.1" y="63.71" width="5.77" height="5.77"/><rect class="d" x="104.1" y="57.94" width="5.77" height="5.77"/><rect class="d" x="104.1" y="52.17" width="5.77" height="5.77"/><rect class="d" x="104.1" y="46.4" width="5.77" height="5.77"/><rect class="d" x="104.1" y="40.63" width="5.77" height="5.77"/><rect class="e" x="104.1" y="34.87" width="5.77" height="5.76"/><rect class="g" x="104.1" y="11.79" width="5.77" height="5.77"/><rect class="e" x="98.33" y="86.79" width="5.77" height="5.77"/><rect class="e" x="98.33" y="81.02" width="5.77" height="5.77"/><rect class="d" x="98.33" y="75.25" width="5.77" height="5.77"/><rect class="d" x="98.33" y="69.48" width="5.77" height="5.77"/><rect class="d" x="98.33" y="63.71" width="5.77" height="5.77"/><rect class="d" x="98.33" y="57.94" width="5.77" height="5.77"/><rect class="d" x="98.33" y="52.17" width="5.77" height="5.77"/><rect class="f" x="98.33" y="46.4" width="5.77" height="5.77"/><rect class="d" x="98.33" y="40.63" width="5.77" height="5.77"/><rect class="e" x="98.33" y="34.87" width="5.77" height="5.76"/><rect class="g" x="98.33" y="17.56" width="5.77" height="5.77"/><rect class="g" x="98.33" y="11.79" width="5.77" height="5.77"/><rect class="e" x="92.56" y="92.56" width="5.77" height="5.77"/><rect class="d" x="92.56" y="86.79" width="5.77" height="5.77"/><rect class="d" x="92.56" y="81.02" width="5.77" height="5.77"/><rect class="d" x="92.56" y="75.25" width="5.77" height="5.77"/><rect class="d" x="92.56" y="69.48" width="5.77" height="5.77"/><rect class="d" x="92.56" y="63.71" width="5.77" height="5.77"/><rect class="d" x="92.56" y="57.94" width="5.77" height="5.77"/><rect class="f" x="92.56" y="52.17" width="5.77" height="5.77"/><rect class="f" x="92.56" y="46.4" width="5.77" height="5.77"/><rect class="d" x="92.56" y="40.63" width="5.77" height="5.77"/><rect class="e" x="92.56" y="34.87" width="5.77" height="5.76"/><rect class="g" x="92.56" y="17.56" width="5.77" height="5.77"/><rect class="e" x="86.79" y="104.1" width="5.77" height="5.77"/><rect class="e" x="86.79" y="98.33" width="5.77" height="5.77"/><rect class="d" x="86.79" y="92.56" width="5.77" height="5.77"/><rect class="d" x="86.79" y="86.79" width="5.77" height="5.77"/><rect class="d" x="86.79" y="81.02" width="5.77" height="5.77"/><rect class="d" x="86.79" y="75.25" width="5.77" height="5.77"/><rect class="d" x="86.79" y="69.48" width="5.77" height="5.77"/><rect class="d" x="86.79" y="63.71" width="5.77" height="5.77"/><rect class="f" x="86.79" y="57.94" width="5.77" height="5.77"/><rect class="f" x="86.79" y="52.17" width="5.77" height="5.77"/><rect class="d" x="86.79" y="46.4" width="5.77" height="5.77"/><rect class="e" x="86.79" y="40.63" width="5.77" height="5.77"/><rect class="e" x="81.02" y="109.87" width="5.77" height="5.76"/><rect class="e" x="81.02" y="104.1" width="5.77" height="5.77"/><rect class="d" x="81.02" y="98.33" width="5.77" height="5.77"/><rect class="d" x="81.02" y="92.56" width="5.77" height="5.77"/><rect class="d" x="81.02" y="86.79" width="5.77" height="5.77"/><rect class="d" x="81.02" y="81.02" width="5.77" height="5.77"/><rect class="d" x="81.02" y="75.25" width="5.77" height="5.77"/><rect class="d" x="81.02" y="69.48" width="5.77" height="5.77"/><rect class="f" x="81.02" y="63.71" width="5.77" height="5.77"/><rect class="d" x="81.02" y="57.94" width="5.77" height="5.77"/><rect class="d" x="81.02" y="52.17" width="5.77" height="5.77"/><rect class="e" x="81.02" y="46.4" width="5.77" height="5.77"/><rect class="e" x="81.02" y="40.63" width="5.77" height="5.77"/><rect class="e" x="75.25" y="109.87" width="5.77" height="5.76"/><rect class="d" x="75.25" y="104.1" width="5.77" height="5.77"/><rect class="d" x="75.25" y="98.33" width="5.77" height="5.77"/><rect class="d" x="75.25" y="92.56" width="5.77" height="5.77"/><rect class="d" x="75.25" y="86.79" width="5.77" height="5.77"/><rect class="d" x="75.25" y="81.02" width="5.77" height="5.77"/><rect class="d" x="75.25" y="75.25" width="5.77" height="5.77"/><rect class="f" x="75.25" y="69.48" width="5.77" height="5.77"/><rect class="d" x="75.25" y="63.71" width="5.77" height="5.77"/><rect class="d" x="75.25" y="57.94" width="5.77" height="5.77"/><rect class="e" x="75.25" y="52.17" width="5.77" height="5.77"/><rect class="e" x="75.25" y="46.4" width="5.77" height="5.77"/><rect class="e" x="69.48" y="115.63" width="5.77" height="5.77"/><rect class="d" x="69.48" y="109.87" width="5.77" height="5.76"/><rect class="d" x="69.48" y="104.1" width="5.77" height="5.77"/><rect class="d" x="69.48" y="98.33" width="5.77" height="5.77"/><rect class="d" x="69.48" y="92.56" width="5.77" height="5.77"/><rect class="d" x="69.48" y="86.79" width="5.77" height="5.77"/><rect class="d" x="69.48" y="81.02" width="5.77" height="5.77"/><rect class="f" x="69.48" y="75.25" width="5.77" height="5.77"/><rect class="d" x="69.48" y="69.48" width="5.77" height="5.77"/><rect class="e" x="69.48" y="63.71" width="5.77" height="5.77"/><rect class="e" x="69.48" y="57.94" width="5.77" height="5.77"/><rect class="e" x="63.71" y="115.63" width="5.77" height="5.77"/><rect class="d" x="63.71" y="109.87" width="5.77" height="5.76"/><rect class="d" x="63.71" y="104.1" width="5.77" height="5.77"/><rect class="d" x="63.71" y="98.33" width="5.77" height="5.77"/><rect class="d" x="63.71" y="92.56" width="5.77" height="5.77"/><rect class="d" x="63.71" y="86.79" width="5.77" height="5.77"/><rect class="d" x="63.71" y="81.02" width="5.77" height="5.77"/><rect class="d" x="63.71" y="75.25" width="5.77" height="5.77"/><rect class="e" x="63.71" y="69.48" width="5.77" height="5.77"/><rect class="e" x="63.71" y="63.71" width="5.77" height="5.77"/><rect class="e" x="57.94" y="121.4" width="5.77" height="5.77"/><rect class="d" x="57.94" y="115.63" width="5.77" height="5.77"/><rect class="d" x="57.94" y="109.87" width="5.77" height="5.76"/><rect class="d" x="57.94" y="104.1" width="5.77" height="5.77"/><rect class="d" x="57.94" y="98.33" width="5.77" height="5.77"/><rect class="d" x="57.94" y="92.56" width="5.77" height="5.77"/><rect class="d" x="57.94" y="86.79" width="5.77" height="5.77"/><rect class="e" x="57.94" y="81.02" width="5.77" height="5.77"/><rect class="e" x="57.94" y="75.25" width="5.77" height="5.77"/><rect class="e" x="52.17" y="121.4" width="5.77" height="5.77"/><rect class="d" x="52.17" y="115.63" width="5.77" height="5.77"/><rect class="d" x="52.17" y="109.87" width="5.77" height="5.76"/><rect class="d" x="52.17" y="104.1" width="5.77" height="5.77"/><rect class="d" x="52.17" y="98.33" width="5.77" height="5.77"/><rect class="d" x="52.17" y="92.56" width="5.77" height="5.77"/><rect class="e" x="52.17" y="86.79" width="5.77" height="5.77"/><rect class="e" x="52.17" y="81.02" width="5.77" height="5.77"/><rect class="e" x="46.4" y="121.4" width="5.77" height="5.77"/><rect class="d" x="46.4" y="115.63" width="5.77" height="5.77"/><rect class="d" x="46.4" y="109.87" width="5.77" height="5.76"/><rect class="d" x="46.4" y="104.1" width="5.77" height="5.77"/><rect class="e" x="46.4" y="98.33" width="5.77" height="5.77"/><rect class="e" x="46.4" y="92.56" width="5.77" height="5.77"/><rect class="e" x="40.63" y="121.4" width="5.77" height="5.77"/><rect class="e" x="40.63" y="115.63" width="5.77" height="5.77"/><rect class="e" x="40.63" y="109.87" width="5.77" height="5.76"/><rect class="e" x="40.63" y="104.1" width="5.77" height="5.77"/></g></g></g></svg>