<?xml version="1.0" encoding="UTF-8"?><svg xmlns="http://www.w3.org/2000/svg" viewBox="0 0 415.4 340.31"><g id="a"/><g id="b"><g id="c"><path d="M405.56,146.21l-36.31-36.31h0l-26.93-26.94,25.52-25.53c6.35-6.35,9.85-14.8,9.85-23.79s-3.5-17.42-9.85-23.78c-6.35-6.36-14.8-9.86-23.79-9.86s-17.43,3.5-23.79,9.86l-25.52,25.53-25.53-25.53c-13.12-13.12-34.46-13.12-47.57,0-13.12,13.12-13.12,34.46,0,47.57l25.53,25.53-126.68,126.67-39.3-39.3L193.76,57.77c13.12-13.12,13.12-34.46,0-47.57-13.11-13.12-34.46-13.12-47.57,0L9.84,146.55c-13.12,13.12-13.12,34.46,0,47.57l41.91,41.91h0l21.17,21.17-25.36,25.36c-6.35,6.35-9.85,14.8-9.85,23.78s3.5,17.45,9.85,23.79c6.35,6.35,14.8,9.85,23.79,9.85s17.43-3.5,23.79-9.85l25.36-25.36,25.7,25.7c6.56,6.56,15.17,9.84,23.79,9.84,8.61,0,17.23-3.28,23.78-9.84,6.35-6.34,9.85-14.79,9.85-23.79s-3.5-17.43-9.85-23.78l-25.7-25.7,126.68-126.67,39.46,39.46-112.57,112.57c-13.12,13.12-13.12,34.46,0,47.57,6.56,6.56,15.17,9.84,23.79,9.84s17.23-3.28,23.79-9.84l136.35-136.35c13.12-13.12,13.12-34.46,0-47.57ZM322.38,11.98c5.79-5.79,13.48-8.98,21.66-8.98s15.88,3.19,21.66,8.98c5.79,5.79,8.97,13.49,8.97,21.66s-3.19,15.88-8.97,21.67l-25.52,25.53-43.33-43.33,25.52-25.53ZM11.96,148.67L148.31,12.32c5.97-5.97,13.82-8.96,21.66-8.96s15.69,2.99,21.67,8.96c11.95,11.95,11.95,31.38,0,43.33l-112.57,112.57h0l-24.01,24.01c-12.04,12.04-11.79,25.39-10.56,32.3v.02L11.96,192C.01,180.05,.01,160.61,11.96,148.67Zm36.75,80.08l-.03-.08s-.04-.1-.06-.16l-.12-.38c-.02-.06-.04-.12-.08-.25-.08-.25-.17-.54-.26-.88l-.23-.87c-.04-.14-.08-.28-.12-.46-.09-.39-.17-.8-.26-1.26l-.08-.43c-.98-5.52-1.27-15.58,6.08-25.43,.16-.21,.32-.42,.49-.63,.24-.31,.49-.61,.74-.92,.26-.31,.52-.62,.8-.93,.12-.13,.24-.27,.36-.4,.41-.45,.83-.89,1.27-1.33l21.89-21.89,39.3,39.3-43.33,43.33-26.34-26.34Zm142.93,56.28c5.79,5.79,8.97,13.48,8.97,21.66s-3.19,15.89-8.97,21.67c-11.95,11.95-31.38,11.95-43.33,0l-25.7-25.7,43.33-43.33,25.7,25.7Zm-98.63,42.99c-5.79,5.79-13.48,8.97-21.66,8.97s-15.88-3.19-21.67-8.97c-5.78-5.77-8.97-13.47-8.97-21.67s3.19-15.88,8.97-21.66L249.29,85.08l43.33,43.33L93.01,328.01ZM223.76,55.31c-5.79-5.79-8.97-13.48-8.97-21.67s3.19-15.88,8.97-21.66,13.82-8.96,21.67-8.96,15.69,2.99,21.67,8.96l99.61,99.61s.02,.05,.03,.08h0c.03,.09,.07,.18,.1,.29l.02,.06c.03,.1,.07,.2,.11,.32,.01,.04,.02,.07,.04,.11,.04,.11,.07,.22,.11,.35,.02,.05,.03,.1,.05,.16,.04,.12,.08,.25,.11,.38,.02,.06,.04,.13,.06,.2,.04,.13,.08,.27,.11,.42,.02,.08,.04,.16,.06,.24,.04,.15,.07,.3,.11,.45,.02,.09,.04,.18,.06,.27,.04,.16,.07,.33,.11,.49,.02,.1,.04,.2,.06,.3,.04,.17,.07,.36,.1,.54,.02,.11,.04,.21,.06,.32,.03,.19,.07,.39,.1,.6,.02,.11,.03,.21,.05,.32,.03,.22,.06,.45,.09,.68,.01,.1,.03,.2,.04,.3,.03,.26,.06,.53,.08,.8,0,.08,.02,.16,.02,.24,.06,.71,.1,1.46,.11,2.23,0,.09,0,.18,0,.27,0,.3,0,.6,0,.91,0,.14-.01,.28-.02,.42,0,.26-.02,.53-.03,.8,0,.16-.02,.32-.04,.49-.02,.26-.04,.51-.06,.77-.02,.18-.04,.35-.06,.53-.03,.25-.06,.51-.09,.76-.03,.19-.06,.38-.09,.57-.04,.25-.08,.5-.13,.76-.04,.2-.08,.4-.12,.6-.05,.25-.1,.5-.16,.76-.05,.2-.1,.41-.15,.62-.06,.26-.13,.51-.2,.77-.06,.21-.12,.42-.18,.63-.08,.26-.16,.52-.24,.77-.07,.22-.14,.43-.22,.65-.09,.26-.19,.52-.29,.78-.08,.22-.17,.44-.26,.66-.11,.26-.22,.53-.34,.79-.1,.22-.19,.44-.3,.66-.12,.27-.26,.53-.39,.8-.11,.22-.22,.44-.34,.66-.14,.27-.29,.54-.45,.81-.12,.22-.25,.44-.38,.66-.16,.27-.34,.55-.51,.82-.14,.22-.27,.44-.42,.65-.19,.28-.39,.56-.59,.85-.15,.21-.29,.42-.45,.63-.22,.29-.45,.59-.69,.88-.16,.2-.3,.4-.47,.59-.27,.33-.56,.65-.84,.98-.14,.16-.28,.33-.43,.49-.44,.49-.91,.98-1.39,1.46l-21.88,21.88L223.76,55.31Zm179.68,136.35l-136.35,136.35c-11.94,11.95-31.38,11.95-43.33,0-11.95-11.95-11.95-31.38,0-43.33l112.57-112.57h0l24.01-24.01c.49-.49,.94-.97,1.39-1.46,.12-.13,.23-.26,.35-.38,.4-.44,.78-.89,1.14-1.33,.04-.05,.08-.1,.12-.14,.4-.49,.77-.98,1.13-1.47,.09-.13,.19-.26,.28-.38,.3-.42,.59-.85,.87-1.27,.05-.08,.11-.16,.16-.24,.32-.49,.61-.98,.9-1.46,.07-.12,.14-.25,.21-.37,.23-.41,.45-.81,.66-1.22,.05-.1,.11-.2,.16-.3,.24-.48,.47-.96,.69-1.45,.05-.12,.1-.24,.15-.35,.17-.4,.33-.79,.49-1.18,.04-.12,.09-.23,.14-.35,.18-.47,.35-.94,.5-1.41,.04-.11,.07-.21,.1-.32,.12-.39,.24-.77,.35-1.15,.03-.12,.07-.24,.1-.37,.12-.46,.24-.92,.34-1.37,.02-.09,.04-.18,.06-.27,.08-.38,.16-.76,.23-1.14,.02-.12,.05-.25,.07-.37,.08-.44,.15-.88,.2-1.31,0-.07,.01-.13,.02-.19,.05-.38,.09-.76,.13-1.13,.01-.12,.02-.24,.03-.36,.04-.42,.07-.84,.09-1.24,0-.03,0-.06,0-.1,.02-.39,.03-.77,.04-1.14,0-.12,0-.23,0-.35,0-.35,0-.7,0-1.05,0-.05,0-.09,0-.14,0-.38-.03-.75-.05-1.12,0-.11-.01-.21-.02-.32-.02-.3-.04-.6-.07-.89,0-.07-.01-.14-.02-.2-.03-.34-.07-.67-.11-1-.01-.1-.02-.2-.04-.3-.03-.26-.07-.51-.1-.76-.01-.07-.02-.15-.03-.22-.04-.26-.08-.52-.13-.76l32.59,32.59c11.94,11.95,11.95,31.38,0,43.33Z"/></g></g></svg>