<?xml version="1.0" encoding="utf-8"?>
<!-- Generator: Adobe Illustrator 26.1.0, SVG Export Plug-In . SVG Version: 6.00 Build 0)  -->
<svg version="1.1" id="Capa_1" xmlns="http://www.w3.org/2000/svg" xmlns:xlink="http://www.w3.org/1999/xlink" x="0px" y="0px"
	 viewBox="0 0 802.4 99.9" style="enable-background:new 0 0 802.4 99.9;" xml:space="preserve">
<style type="text/css">
	.st0{fill:#444444;}
	.st1{fill:#0000C8;}
	.st2{fill:#6464E1;}
	.st3{fill:url(#SVGID_1_);}
	.st4{fill:url(#SVGID_00000007414455554843329860000012323067204721292986_);}
	.st5{fill:url(#SVGID_00000015343574395919711440000007533092101009786763_);}
	.st6{fill:url(#SVGID_00000016785978467659857070000004302854599896582784_);}
	.st7{display:none;}
	.st8{display:inline;}
	.st9{fill:#DDC222;}
	.st10{fill:#F7DF1E;}
	.st11{fill:url(#SVGID_00000072973261512874170120000004535972279377771918_);}
	.st12{fill:url(#SVGID_00000152231618275212645820000000413556948137876661_);}
	.st13{fill:url(#SVGID_00000085213213294575842020000014350611239520400546_);}
	.st14{fill:url(#SVGID_00000111156442129180375910000009946402505169574072_);}
	.st15{fill:#E44D26;}
	.st16{fill:#F16529;}
	.st17{fill:url(#SVGID_00000137828157851721525590000016267584033960955281_);}
	.st18{fill:url(#SVGID_00000041293641575234788170000003718704195742415234_);}
	.st19{fill:url(#SVGID_00000132798463986593941060000005054803655851560383_);}
	.st20{fill:url(#SVGID_00000144336295104972788830000002325388849803806104_);}
	.st21{fill:#264DE4;}
	.st22{fill:#2965F1;}
	.st23{fill:url(#SVGID_00000055682125614667329020000006666085394168542620_);}
	.st24{fill:url(#SVGID_00000036966808426402808590000007746536267669498774_);}
	.st25{fill:url(#SVGID_00000015325185176079919540000002651291435508012161_);}
	.st26{fill:url(#SVGID_00000098916477093600961310000005953515257285963410_);}
</style>
<g id="Capa_1_00000001661143259858288380000006918170295650228133_">
	<g>
		<path class="st0" d="M501.8,69.5c-0.5,0-0.9-0.1-1.3-0.4s-0.5-0.6-0.5-0.9V37.1c0-0.4,0.2-0.7,0.5-0.9c0.3-0.3,0.7-0.4,1.3-0.4
			h8.2c1.9,0,3.6,0.3,5.1,1s2.7,1.7,3.6,3.2c0.9,1.5,1.3,3.4,1.3,5.9v13.6c0,2.5-0.4,4.4-1.3,5.9c-0.9,1.5-2.1,2.5-3.6,3.2
			s-3.2,1-5.1,1L501.8,69.5L501.8,69.5z M503.9,66h6.1c1.9,0,3.4-0.5,4.5-1.6s1.6-2.7,1.6-5V45.8c0-2.2-0.5-3.9-1.6-5
			s-2.6-1.6-4.5-1.6h-6.1V66L503.9,66z"/>
		<path class="st0" d="M527.4,69.5c-0.5,0-0.9-0.1-1.3-0.3c-0.4-0.2-0.6-0.6-0.6-1v-31c0-0.5,0.2-0.8,0.6-1c0.4-0.2,0.9-0.3,1.3-0.3
			c0.5,0,0.9,0.1,1.3,0.3c0.4,0.2,0.6,0.6,0.6,1v31c0,0.5-0.2,0.8-0.6,1C528.3,69.4,527.9,69.5,527.4,69.5z"/>
		<path class="st0" d="M543.9,69.9c-2,0-3.7-0.3-5.2-0.9s-2.6-1.3-3.4-2.1c-0.8-0.8-1.2-1.5-1.2-2.2c0-0.3,0.1-0.6,0.3-0.9
			c0.2-0.3,0.4-0.6,0.6-0.8s0.5-0.3,0.8-0.3c0.4,0,0.7,0.2,1.1,0.6c0.4,0.4,0.8,0.8,1.3,1.3s1.2,0.9,2.1,1.3c0.9,0.4,2,0.6,3.4,0.6
			c1.3,0,2.4-0.2,3.4-0.6s1.7-1,2.2-1.9s0.8-1.9,0.8-3.2s-0.3-2.4-0.8-3.2c-0.6-0.8-1.3-1.5-2.2-2.1s-1.9-1-3-1.5
			c-1.1-0.4-2.1-0.9-3.2-1.3c-1.1-0.4-2.1-1-3-1.7s-1.6-1.5-2.2-2.6c-0.6-1-0.8-2.4-0.8-4c0-1.7,0.3-3.1,0.9-4.2
			c0.6-1.1,1.4-2,2.4-2.6s2.1-1.1,3.3-1.4c1.2-0.3,2.3-0.4,3.5-0.4c0.8,0,1.7,0.1,2.6,0.2c0.9,0.1,1.8,0.3,2.6,0.6
			c0.8,0.2,1.5,0.6,2,0.9c0.5,0.4,0.8,0.8,0.8,1.4c0,0.2-0.1,0.5-0.2,0.9c-0.1,0.3-0.3,0.6-0.6,0.9c-0.2,0.3-0.6,0.4-0.9,0.4
			c-0.3,0-0.8-0.1-1.2-0.4c-0.5-0.3-1.1-0.6-2-0.9c-0.8-0.3-1.9-0.4-3.2-0.4c-1.1,0-2.1,0.2-3.1,0.5s-1.7,0.8-2.3,1.5
			s-0.9,1.6-0.9,2.8c0,1.1,0.3,2,0.8,2.7c0.6,0.7,1.3,1.3,2.2,1.8s1.9,0.9,3,1.3c1.1,0.4,2.2,0.8,3.2,1.3c1.1,0.5,2.1,1.1,3,1.9
			c0.9,0.7,1.6,1.7,2.2,2.9c0.6,1.2,0.8,2.7,0.8,4.5c0,2.2-0.4,4-1.3,5.5c-0.9,1.4-2.1,2.5-3.6,3.2
			C547.7,69.5,545.9,69.9,543.9,69.9L543.9,69.9z"/>
		<path class="st0" d="M560.7,69.5c-0.4,0-0.8-0.1-1.2-0.3c-0.4-0.2-0.6-0.6-0.6-1v-31c0-0.5,0.2-0.8,0.6-1c0.4-0.2,0.8-0.3,1.2-0.3
			h16.4c0.5,0,0.8,0.2,1,0.6c0.2,0.4,0.3,0.8,0.3,1.1c0,0.5-0.1,0.9-0.3,1.3c-0.2,0.4-0.6,0.6-1,0.6h-14.3V51h7.2
			c0.4,0,0.8,0.2,1,0.5s0.3,0.7,0.3,1.1c0,0.4-0.1,0.7-0.3,1.1c-0.2,0.3-0.5,0.5-1,0.5h-7.2V66h14.3c0.4,0,0.8,0.2,1,0.5
			c0.2,0.4,0.3,0.8,0.3,1.3c0,0.4-0.1,0.8-0.3,1.1c-0.2,0.4-0.5,0.6-1,0.6H560.7L560.7,69.5z"/>
		<path class="st0" d="M584.9,69.5c-0.5,0-0.9-0.1-1.3-0.3c-0.4-0.2-0.6-0.6-0.6-1v-31c0-0.5,0.2-0.8,0.6-1c0.4-0.2,0.9-0.3,1.3-0.3
			c0.5,0,0.9,0.1,1.2,0.3s0.6,0.5,0.9,0.8c0.3,0.4,0.6,0.8,0.8,1.4l11.4,22.5V37.1c0-0.5,0.2-0.8,0.6-1c0.4-0.2,0.9-0.3,1.3-0.3
			c0.5,0,0.9,0.1,1.3,0.3c0.4,0.2,0.6,0.6,0.6,1v31c0,0.5-0.2,0.8-0.6,1c-0.4,0.2-0.9,0.3-1.3,0.3s-0.9-0.2-1.4-0.5
			c-0.4-0.3-0.8-0.7-1-1.2l-12.1-23.2v23.6c0,0.5-0.2,0.8-0.6,1C585.8,69.4,585.4,69.6,584.9,69.5L584.9,69.5z M596.6,34.2
			c-0.9,0-1.7-0.1-2.3-0.4c-0.6-0.3-1.3-0.5-1.9-0.8c-0.6-0.2-1.3-0.4-2.1-0.4c-0.6,0-1.2,0.1-1.6,0.3c-0.4,0.2-0.8,0.4-1.1,0.7
			s-0.6,0.3-0.8,0.3s-0.4-0.1-0.6-0.2c-0.2-0.2-0.3-0.3-0.3-0.6c-0.1-0.2-0.1-0.4-0.1-0.6c0-0.5,0.1-1,0.4-1.3
			c0.3-0.3,0.7-0.6,1.1-0.9c0.4-0.2,0.9-0.4,1.3-0.5c0.5-0.1,0.9-0.2,1.1-0.2c0.9,0,1.6,0.1,2.2,0.4c0.6,0.2,1.2,0.5,1.9,0.8
			c0.6,0.3,1.3,0.4,2.1,0.4c0.7,0,1.2-0.1,1.6-0.3c0.4-0.2,0.7-0.4,1-0.6s0.5-0.3,0.8-0.3s0.5,0.1,0.6,0.2c0.2,0.2,0.3,0.3,0.3,0.5
			c0.1,0.2,0.1,0.4,0.1,0.5c0,0.6-0.1,1-0.4,1.4c-0.3,0.4-0.6,0.6-1.1,0.9c-0.4,0.2-0.8,0.4-1.3,0.4
			C597.2,34.2,596.9,34.2,596.6,34.2L596.6,34.2z"/>
		<path class="st0" d="M610,69.5c-0.3,0-0.7-0.1-1-0.2c-0.4-0.1-0.7-0.3-0.9-0.6c-0.2-0.2-0.3-0.5-0.3-0.8c0-0.1,0-0.2,0-0.4
			l9.5-30.7c0.1-0.5,0.4-0.8,0.9-1s1-0.3,1.5-0.3c0.6,0,1.1,0.1,1.5,0.3c0.5,0.2,0.7,0.6,0.9,1l9.4,30.7c0.1,0.1,0.1,0.2,0.1,0.3
			c0,0.3-0.1,0.6-0.4,0.8c-0.3,0.2-0.6,0.4-0.9,0.6c-0.4,0.2-0.7,0.2-1.1,0.2c-0.3,0-0.6-0.1-0.9-0.2c-0.2-0.1-0.4-0.4-0.5-0.7
			l-2.1-6.9h-12.1l-2,6.9c-0.1,0.3-0.3,0.5-0.5,0.7C610.7,69.4,610.4,69.5,610,69.5L610,69.5z M614.4,58.6h10.3l-5.2-17.4
			L614.4,58.6L614.4,58.6z"/>
		<path class="st0" d="M637.6,69.5c-0.5,0-0.9-0.1-1.3-0.4c-0.3-0.3-0.5-0.6-0.5-0.9V37.1c0-0.4,0.2-0.7,0.5-0.9
			c0.3-0.3,0.7-0.4,1.3-0.4h8.2c1.9,0,3.6,0.3,5.1,1s2.7,1.7,3.6,3.2c0.9,1.5,1.3,3.4,1.3,5.9v13.6c0,2.5-0.4,4.4-1.3,5.9
			c-0.9,1.5-2.1,2.5-3.6,3.2s-3.2,1-5.1,1L637.6,69.5L637.6,69.5z M639.7,66h6.1c1.9,0,3.4-0.5,4.5-1.6s1.6-2.7,1.6-5V45.8
			c0-2.2-0.5-3.9-1.6-5s-2.6-1.6-4.5-1.6h-6.1V66L639.7,66z"/>
		<path class="st0" d="M671,69.8c-1.9,0-3.6-0.3-5.1-1s-2.7-1.7-3.6-3.2c-0.9-1.5-1.3-3.4-1.3-5.9V45.8c0-2.5,0.4-4.4,1.3-5.9
			c0.9-1.5,2.1-2.5,3.6-3.2s3.2-1,5.1-1s3.6,0.3,5.1,1s2.7,1.7,3.6,3.2c0.9,1.5,1.3,3.4,1.3,5.9v13.9c0,2.5-0.4,4.4-1.3,5.9
			c-0.9,1.5-2.1,2.5-3.6,3.2C674.6,69.5,672.9,69.8,671,69.8z M671,66.3c1.9,0,3.4-0.5,4.5-1.6s1.6-2.7,1.6-5V45.9
			c0-2.2-0.5-3.9-1.6-5s-2.6-1.6-4.5-1.6s-3.4,0.5-4.5,1.6s-1.6,2.7-1.6,5v13.9c0,2.2,0.5,3.9,1.6,5S669.1,66.3,671,66.3z"/>
		<path class="st0" d="M704.5,69.6c-0.4,0-0.7-0.2-1-0.5s-0.5-0.7-0.8-1.1l-6.9-13.5h-5.4v13.6c0,0.5-0.2,0.8-0.6,1
			c-0.4,0.2-0.9,0.3-1.3,0.3c-0.5,0-0.9-0.1-1.3-0.3c-0.4-0.2-0.6-0.6-0.6-1v-31c0-0.4,0.1-0.7,0.4-0.9s0.6-0.4,1-0.4h8.5
			c1.9,0,3.6,0.3,5.1,0.9c1.5,0.6,2.8,1.5,3.7,2.9c0.9,1.3,1.4,3.2,1.4,5.5c0,1.9-0.3,3.4-0.9,4.7c-0.6,1.2-1.4,2.2-2.5,2.9
			c-1,0.7-2.2,1.2-3.5,1.5l6.8,13c0.1,0.1,0.1,0.2,0.1,0.3c0,0.1,0,0.2,0,0.3c0,0.3-0.1,0.7-0.3,1s-0.5,0.6-0.9,0.7
			C705.2,69.5,704.8,69.6,704.5,69.6L704.5,69.6z M690.4,51.3h6c1.9,0,3.4-0.5,4.6-1.4c1.2-0.9,1.8-2.5,1.8-4.7s-0.6-3.7-1.8-4.6
			c-1.2-0.9-2.7-1.4-4.6-1.4h-6V51.3L690.4,51.3z"/>
		<path class="st0" d="M729.7,69.8c-0.5,0-1-0.1-1.5-0.3c-0.5-0.2-0.8-0.6-0.9-1l-9.1-30.7c0-0.1,0-0.3,0-0.4c0-0.3,0.1-0.6,0.4-0.8
			s0.5-0.4,0.9-0.6c0.3-0.1,0.7-0.2,1-0.2s0.7,0.1,0.9,0.2s0.5,0.4,0.5,0.7l7.8,27.4l4.4-16.9c0.1-0.4,0.4-0.7,0.8-0.9
			c0.4-0.2,0.8-0.3,1.2-0.3c0.5,0,0.9,0.1,1.3,0.3c0.4,0.2,0.6,0.5,0.7,0.9l4.4,16.9l7.8-27.4c0.1-0.3,0.3-0.5,0.5-0.7
			c0.3-0.1,0.6-0.2,0.9-0.2c0.4,0,0.7,0.1,1.1,0.2c0.4,0.1,0.7,0.3,0.9,0.6c0.2,0.2,0.4,0.5,0.4,0.8c0,0.2,0,0.3-0.1,0.4l-9,30.7
			c-0.2,0.4-0.5,0.8-0.9,1c-0.5,0.2-1,0.3-1.5,0.3s-1-0.1-1.5-0.3c-0.5-0.2-0.8-0.6-0.9-1l-4-15.2l-4,15.2c-0.1,0.4-0.4,0.8-0.9,1
			C730.8,69.7,730.3,69.8,729.7,69.8L729.7,69.8z"/>
		<path class="st0" d="M760.2,69.5c-0.4,0-0.8-0.1-1.2-0.3c-0.4-0.2-0.6-0.6-0.6-1v-31c0-0.5,0.2-0.8,0.6-1c0.4-0.2,0.8-0.3,1.2-0.3
			h16.4c0.5,0,0.8,0.2,1,0.6c0.2,0.4,0.3,0.8,0.3,1.1c0,0.5-0.1,0.9-0.3,1.3c-0.2,0.4-0.6,0.6-1,0.6h-14.3V51h7.2
			c0.4,0,0.8,0.2,1,0.5s0.3,0.7,0.3,1.1c0,0.4-0.1,0.7-0.3,1.1c-0.2,0.3-0.5,0.5-1,0.5h-7.2V66h14.3c0.4,0,0.8,0.2,1,0.5
			c0.2,0.4,0.3,0.8,0.3,1.3c0,0.4-0.1,0.8-0.3,1.1c-0.2,0.4-0.5,0.6-1,0.6H760.2L760.2,69.5z"/>
		<path class="st0" d="M784.3,69.5c-0.5,0-0.9-0.1-1.3-0.4s-0.5-0.6-0.5-0.9v-31c0-0.5,0.2-0.8,0.6-1c0.4-0.2,0.8-0.3,1.2-0.3h7.9
			c1.7,0,3.3,0.2,4.7,0.6c1.4,0.4,2.6,1.2,3.4,2.3c0.8,1.1,1.3,2.8,1.3,4.9c0,1.9-0.4,3.5-1.1,4.9c-0.7,1.3-1.7,2.2-2.9,2.7
			c1,0.4,1.8,0.9,2.5,1.5s1.3,1.4,1.7,2.4s0.6,2.3,0.6,3.9v0.8c0,2.4-0.4,4.3-1.2,5.7c-0.8,1.4-1.9,2.4-3.3,3
			c-1.4,0.6-2.9,0.9-4.7,0.9H784.3L784.3,69.5z M786.4,49.6h5.8c1.9,0,3.3-0.4,4.2-1.3c0.9-0.8,1.3-2.2,1.3-4.1c0-1.3-0.2-2.3-0.7-3
			s-1.1-1.2-2-1.5s-1.8-0.4-3-0.4h-5.6V49.6L786.4,49.6z M786.4,66h6.2c1.9,0,3.3-0.5,4.4-1.5s1.5-2.6,1.5-4.8v-0.8
			c0-2.2-0.5-3.8-1.5-4.7s-2.5-1.4-4.4-1.4h-6.2V66z"/>
	</g>
	<g id="logo">
		<g id="c">
			<g>
				<g>
					<g>
						<path class="st1" d="M372.5,67.5l29.6,29.6c3.7,3.7,9.8,3.7,13.5,0l0,0c3.7-3.7,3.7-9.8,0-13.5l-33.7-33.7l-6.8,6.8
							C370,61.8,372.5,67.5,372.5,67.5L372.5,67.5z"/>
						<path class="st2" d="M361.6,56.7L361.6,56.7l5.4,5.4l1,1l4.5,4.5c0,0-2.4-5.7,2.6-10.8l6.8-6.8l33.7-33.7
							c3.7-3.7,3.7-9.8,0-13.5l0,0c-3.7-3.7-9.8-3.7-13.5,0l-33.7,33.7l-6.7,6.7C357.9,46.9,357.9,53,361.6,56.7L361.6,56.7z"/>
					</g>
					
						<linearGradient id="SVGID_1_" gradientUnits="userSpaceOnUse" x1="-529.368" y1="-989.748" x2="-533.287" y2="-993.67" gradientTransform="matrix(-1 0 0 -1 -154.3268 -933.11)">
						<stop  offset="0" style="stop-color:#000000;stop-opacity:0.5"/>
						<stop  offset="1" style="stop-color:#000000;stop-opacity:0"/>
					</linearGradient>
					<path class="st3" d="M381.8,49.9l-7.1,7.1c0,0-4.4,4.5-2.3,10.5L385.9,54L381.8,49.9L381.8,49.9z"/>
					
						<linearGradient id="SVGID_00000083053043477655223570000014236695243988922753_" gradientUnits="userSpaceOnUse" x1="400.999" y1="480.7606" x2="405.0781" y2="484.8397" gradientTransform="matrix(1 0 0 1 0 -398.3616)">
						<stop  offset="0" style="stop-color:#000000;stop-opacity:0.5"/>
						<stop  offset="1" style="stop-color:#000000;stop-opacity:0"/>
					</linearGradient>
					<polygon style="fill:url(#SVGID_00000083053043477655223570000014236695243988922753_);" points="398.3,93.2 411.6,79.5 
						407.7,75.6 394.2,89.1 					"/>
				</g>
				<path class="st2" d="M372.8,83.5l80.8-80.8c3.7-3.7,9.8-3.7,13.5,0l0,0c3.7,3.7,3.7,9.8,0,13.5L386.3,97
					c-3.7,3.7-9.8,3.7-13.5,0l0,0C369.1,93.3,369.1,87.3,372.8,83.5z"/>
				<g>
					
						<linearGradient id="SVGID_00000006669254257463748410000007033631629057660040_" gradientUnits="userSpaceOnUse" x1="452.4909" y1="415.6193" x2="456.5819" y2="411.5312" gradientTransform="matrix(1 0 0 1 0 -398.3616)">
						<stop  offset="0" style="stop-color:#000000;stop-opacity:0.5"/>
						<stop  offset="1" style="stop-color:#000000;stop-opacity:0"/>
					</linearGradient>
					<polygon style="fill:url(#SVGID_00000006669254257463748410000007033631629057660040_);" points="463.3,19.9 449.7,6.6 
						445.8,10.5 459.2,24 					"/>
					<g>
						<path class="st1" d="M467.5,32.3L437.9,2.7c-3.7-3.7-9.8-3.7-13.5,0l0,0c-3.7,3.7-3.7,9.8,0,13.5l33.7,33.7l6.8-6.8
							C469.9,38,467.5,32.3,467.5,32.3L467.5,32.3z"/>
						<path class="st2" d="M478.3,43.1L478.3,43.1l-5.4-5.4l-1-1l-4.5-4.5c0,0,2.4,5.7-2.6,10.8l-6.8,6.8l-33.7,33.7
							c-3.7,3.7-3.7,9.8,0,13.5l0,0c3.7,3.7,9.8,3.7,13.5,0l33.7-33.7l6.7-6.7C482,52.9,482,46.8,478.3,43.1L478.3,43.1z"/>
					</g>
					
						<linearGradient id="SVGID_00000133505083025398083430000006126058783980740005_" gradientUnits="userSpaceOnUse" x1="464.9137" y1="441.5253" x2="460.9916" y2="437.6032" gradientTransform="matrix(1 0 0 1 0 -398.3616)">
						<stop  offset="0" style="stop-color:#000000;stop-opacity:0.5"/>
						<stop  offset="1" style="stop-color:#000000;stop-opacity:0"/>
					</linearGradient>
					<path style="fill:url(#SVGID_00000133505083025398083430000006126058783980740005_);" d="M458.1,49.8l7.1-7.1
						c0,0,4.4-4.5,2.3-10.5L454,45.8L458.1,49.8L458.1,49.8z"/>
				</g>
			</g>
		</g>
	</g>
	<g>
		<path class="st0" d="M3.7,69.6c-1.1,0-2-0.3-2.7-0.8S0,67.7,0,67V32.8c0-0.7,0.3-1.3,1-1.8s1.6-0.8,2.7-0.8h9.5
			c2.5,0,4.7,0.4,6.7,1.2c2,0.8,3.6,2.2,4.8,4c1.2,1.9,1.7,4.3,1.7,7.4v13.9c0,3.1-0.6,5.6-1.7,7.4c-1.2,1.9-2.8,3.2-4.8,4
			s-4.3,1.2-6.7,1.2H3.7V69.6z M8.4,62.3h4.8c1.5,0,2.7-0.4,3.6-1.3c0.9-0.9,1.3-2.2,1.3-4.1v-14c0-1.8-0.4-3.2-1.3-4.1
			c-0.9-0.9-2-1.3-3.6-1.3H8.4V62.3z"/>
		<path class="st0" d="M34.5,69.6c-0.8,0-1.6-0.2-2.4-0.5c-0.8-0.3-1.6-0.7-2.1-1.2c-0.6-0.5-0.9-1.1-0.9-1.7c0-0.1,0-0.3,0.1-0.6
			l10-32.8c0.3-0.9,1-1.6,2-2.1c1.1-0.5,2.2-0.7,3.4-0.7c1.3,0,2.4,0.2,3.5,0.7s1.7,1.2,2,2.1l10.1,32.8c0.1,0.3,0.1,0.5,0.1,0.6
			c0,0.6-0.3,1.2-0.9,1.7c-0.6,0.5-1.3,0.9-2.1,1.2c-0.8,0.3-1.6,0.5-2.4,0.5c-0.7,0-1.3-0.1-1.7-0.4c-0.5-0.2-0.8-0.6-1-1.2
			l-1.8-6.7H39L37.2,68c-0.1,0.6-0.5,1-1,1.2C35.7,69.5,35.1,69.6,34.5,69.6z M40.8,54.8h7.9l-3.9-14.4L40.8,54.8z"/>
		<path class="st0" d="M74.4,69.9c-1.2,0-2.4-0.2-3.4-0.7c-1.1-0.5-1.8-1.2-2-2.1L58.8,34.3c-0.1-0.3-0.1-0.5-0.1-0.6
			c0-0.7,0.3-1.3,0.9-1.8c0.6-0.5,1.3-0.9,2.1-1.2c0.8-0.3,1.6-0.5,2.4-0.5c0.7,0,1.3,0.1,1.8,0.3c0.5,0.2,0.8,0.6,1,1.2l7.5,27.6
			l7.5-27.6c0.2-0.6,0.5-1,1-1.2s1.1-0.3,1.7-0.3c0.8,0,1.6,0.2,2.4,0.5s1.5,0.7,2.1,1.2c0.6,0.5,0.9,1.1,0.9,1.8c0,0.1,0,0.2,0,0.3
			s0,0.2-0.1,0.3l-10,32.8c-0.3,0.9-1,1.6-2,2.1C76.8,69.7,75.7,69.9,74.4,69.9z"/>
		<path class="st0" d="M97.3,69.6c-1,0-2-0.2-2.9-0.6s-1.3-1.1-1.3-1.9V32.8c0-0.9,0.4-1.5,1.3-1.9s1.8-0.6,2.9-0.6
			c1,0,2,0.2,2.9,0.6s1.3,1,1.3,1.9V67c0,0.9-0.4,1.5-1.3,1.9C99.3,69.4,98.4,69.6,97.3,69.6z"/>
		<path class="st0" d="M111,69.6c-1.1,0-2-0.3-2.7-0.8s-1-1.1-1-1.8V32.8c0-0.7,0.3-1.3,1-1.8s1.6-0.8,2.7-0.8h9.5
			c2.5,0,4.7,0.4,6.7,1.2c2,0.8,3.6,2.2,4.8,4c1.2,1.9,1.7,4.3,1.7,7.4v13.9c0,3.1-0.6,5.6-1.7,7.4c-1.2,1.9-2.8,3.2-4.8,4
			s-4.3,1.2-6.7,1.2H111V69.6z M115.7,62.3h4.8c1.5,0,2.7-0.4,3.6-1.3c0.9-0.9,1.3-2.2,1.3-4.1v-14c0-1.8-0.4-3.2-1.3-4.1
			c-0.9-0.9-2-1.3-3.6-1.3h-4.8V62.3z"/>
		<path class="st0" d="M171.9,69.9c-0.5,0-1-0.1-1.5-0.4c-0.5-0.2-0.9-0.6-1.2-1.2L161.8,54h-3.6v13c0,0.9-0.4,1.5-1.3,1.9
			c-0.9,0.4-1.8,0.6-2.9,0.6c-1,0-2-0.2-2.9-0.6s-1.3-1.1-1.3-1.9V32.8c0-0.7,0.2-1.3,0.7-1.8s1.1-0.8,1.9-0.8h11.1
			c2.5,0,4.7,0.3,6.7,1s3.6,1.9,4.8,3.6c1.2,1.7,1.8,4,1.8,6.9c0,2-0.3,3.7-0.8,5.2c-0.6,1.5-1.3,2.6-2.3,3.6
			c-1,0.9-2.1,1.7-3.4,2.2l6.6,11.9c0.1,0.1,0.2,0.3,0.2,0.5s0.1,0.3,0.1,0.5c0,0.7-0.3,1.4-0.8,2c-0.5,0.7-1.2,1.2-2,1.7
			C173.5,69.7,172.7,69.9,171.9,69.9z M158.3,47.6h5.3c1.5,0,2.7-0.4,3.6-1.1c0.9-0.7,1.3-2,1.3-3.9s-0.4-3.2-1.3-3.9
			c-0.9-0.7-2-1.1-3.6-1.1h-5.3V47.6z"/>
		<path class="st0" d="M194.1,69.9c-2.5,0-4.7-0.4-6.7-1.2c-2-0.8-3.6-2.2-4.7-4c-1.2-1.9-1.7-4.3-1.7-7.4V42.9
			c0-3.1,0.6-5.6,1.7-7.4c1.2-1.9,2.7-3.2,4.7-4s4.2-1.2,6.7-1.2s4.7,0.4,6.7,1.2c2,0.8,3.6,2.2,4.8,4c1.2,1.9,1.7,4.3,1.7,7.4v14.3
			c0,3.1-0.6,5.6-1.7,7.4c-1.2,1.9-2.8,3.2-4.8,4C198.8,69.5,196.6,69.9,194.1,69.9z M194.1,62.6c1.5,0,2.7-0.4,3.6-1.3
			c0.9-0.9,1.3-2.2,1.3-4.1V42.9c0-1.9-0.4-3.2-1.3-4.1c-0.9-0.9-2-1.3-3.6-1.3c-1.5,0-2.7,0.4-3.5,1.3c-0.8,0.9-1.3,2.2-1.3,4.1
			v14.3c0,1.9,0.4,3.2,1.3,4.1C191.4,62.1,192.6,62.6,194.1,62.6z"/>
		<path class="st0" d="M216.9,69.6c-1,0-2-0.2-2.9-0.6s-1.3-1.1-1.3-1.9V34.4c0-1.5,0.4-2.6,1.3-3.3c0.9-0.6,1.8-0.9,2.9-0.9
			c1,0,1.9,0.1,2.6,0.2c0.7,0.2,1.4,0.5,2,1.1c0.6,0.6,1.3,1.5,2,2.8L229,44l5.5-9.7c0.8-1.3,1.4-2.2,2-2.8c0.6-0.6,1.2-1,1.9-1.1
			c0.7-0.2,1.6-0.2,2.6-0.2c1.1,0,2,0.3,2.9,0.9s1.3,1.7,1.3,3.3V67c0,0.9-0.4,1.5-1.3,1.9c-0.9,0.4-1.8,0.6-2.9,0.6
			c-1,0-2-0.2-2.9-0.6s-1.3-1.1-1.3-1.9V46.8l-5.2,8.8c-0.4,0.6-0.8,1-1.3,1.2s-1,0.4-1.5,0.4s-0.9-0.1-1.4-0.3s-0.9-0.6-1.2-1.2
			l-5.1-9.4V67c0,0.9-0.4,1.5-1.3,1.9C218.9,69.4,217.9,69.6,216.9,69.6z"/>
		<path class="st0" d="M254.7,69.6c-0.9,0-1.7-0.2-2.5-0.6s-1.2-1.1-1.2-1.9V32.8c0-0.9,0.4-1.5,1.2-1.9s1.6-0.6,2.5-0.6h19.2
			c0.9,0,1.5,0.4,1.9,1.2c0.4,0.8,0.6,1.6,0.6,2.5c0,1-0.2,1.9-0.6,2.6c-0.4,0.7-1.1,1.1-1.9,1.1h-14.4v9.1h8.1c0.8,0,1.5,0.3,1.9,1
			s0.6,1.4,0.6,2.3c0,0.7-0.2,1.4-0.6,2.1c-0.4,0.7-1,1-1.9,1h-8.1v9.2h14.4c0.8,0,1.5,0.4,1.9,1.1s0.6,1.6,0.6,2.6
			c0,0.9-0.2,1.7-0.6,2.4c-0.4,0.8-1,1.2-1.9,1.2L254.7,69.6L254.7,69.6z"/>
		<path class="st0" d="M302.1,69.9c-0.5,0-1.1-0.1-1.5-0.4c-0.5-0.2-0.9-0.6-1.2-1.2L292,54h-3.6v13c0,0.9-0.4,1.5-1.3,1.9
			s-1.8,0.6-2.9,0.6c-1,0-2-0.2-2.9-0.6S280,67.8,280,67V32.8c0-0.7,0.2-1.3,0.7-1.8s1.1-0.8,1.9-0.8h11.1c2.5,0,4.7,0.3,6.7,1
			s3.6,1.9,4.8,3.6c1.2,1.7,1.8,4,1.8,6.9c0,2-0.3,3.7-0.8,5.2c-0.6,1.5-1.3,2.6-2.3,3.6c-1,0.9-2.1,1.7-3.4,2.2l6.6,11.9
			c0.1,0.1,0.2,0.3,0.2,0.5s0.1,0.3,0.1,0.5c0,0.7-0.3,1.4-0.8,2c-0.5,0.7-1.2,1.2-2,1.7C303.7,69.7,302.9,69.9,302.1,69.9z
			 M288.4,47.6h5.3c1.5,0,2.7-0.4,3.6-1.1s1.3-2,1.3-3.9s-0.4-3.2-1.3-3.9s-2-1.1-3.6-1.1h-5.3V47.6z"/>
		<path class="st0" d="M324.2,69.9c-2.5,0-4.7-0.4-6.7-1.2c-2-0.8-3.6-2.2-4.7-4c-1.2-1.9-1.7-4.3-1.7-7.4V42.9
			c0-3.1,0.6-5.6,1.7-7.4c1.2-1.9,2.7-3.2,4.7-4s4.2-1.2,6.7-1.2s4.7,0.4,6.7,1.2c2,0.8,3.6,2.2,4.8,4c1.2,1.9,1.7,4.3,1.7,7.4v14.3
			c0,3.1-0.6,5.6-1.7,7.4c-1.2,1.9-2.8,3.2-4.8,4C329,69.5,326.7,69.9,324.2,69.9z M324.2,62.6c1.5,0,2.7-0.4,3.6-1.3
			c0.9-0.9,1.3-2.2,1.3-4.1V42.9c0-1.9-0.4-3.2-1.3-4.1c-0.9-0.9-2-1.3-3.6-1.3c-1.5,0-2.7,0.4-3.5,1.3c-0.8,0.9-1.3,2.2-1.3,4.1
			v14.3c0,1.9,0.4,3.2,1.3,4.1C321.6,62.1,322.7,62.6,324.2,62.6z"/>
	</g>
</g>
<g id="js" class="st7">
	<g id="b_00000101098433812290897300000012765544556517141403_" class="st8">
		<g id="c_00000117636161403151842450000015657375745979470501_">
			<g>
				<g>
					<g>
						<path class="st9" d="M372.5,67.7l29.6,29.6c3.7,3.7,9.8,3.7,13.5,0l0,0c3.7-3.7,3.7-9.8,0-13.5l-33.7-33.7l-6.8,6.8
							C370,61.9,372.5,67.7,372.5,67.7L372.5,67.7z"/>
						<path class="st10" d="M361.6,56.8L361.6,56.8l5.4,5.4l1,1l4.5,4.5c0,0-2.4-5.7,2.6-10.8l6.8-6.8l33.7-33.7
							c3.7-3.7,3.7-9.8,0-13.5l0,0c-3.7-3.7-9.8-3.7-13.5,0l-33.7,33.7l-6.7,6.7C357.9,47.1,357.9,53.1,361.6,56.8L361.6,56.8z"/>
					</g>
					
						<linearGradient id="SVGID_00000089548502642585058930000017650477970970713488_" gradientUnits="userSpaceOnUse" x1="-3274.5859" y1="-979.019" x2="-3278.5078" y2="-982.941" gradientTransform="matrix(-1 0 0 -1 -2899.5667 -922.2)">
						<stop  offset="0" style="stop-color:#000000;stop-opacity:0.5"/>
						<stop  offset="1" style="stop-color:#000000;stop-opacity:0"/>
					</linearGradient>
					<path style="fill:url(#SVGID_00000089548502642585058930000017650477970970713488_);" d="M381.8,50.1l-7.1,7.1
						c0,0-4.4,4.5-2.3,10.5l13.5-13.5L381.8,50.1L381.8,50.1z"/>
					
						<linearGradient id="SVGID_00000129897716507689456880000004666082582158173078_" gradientUnits="userSpaceOnUse" x1="401.0048" y1="480.9164" x2="405.0839" y2="484.9955" gradientTransform="matrix(1 0 0 1 0 -398.3616)">
						<stop  offset="0" style="stop-color:#000000;stop-opacity:0.5"/>
						<stop  offset="1" style="stop-color:#000000;stop-opacity:0"/>
					</linearGradient>
					<polygon style="fill:url(#SVGID_00000129897716507689456880000004666082582158173078_);" points="398.3,93.3 411.6,79.7 
						407.7,75.8 394.2,89.2 					"/>
				</g>
				<path class="st10" d="M372.8,83.7l80.8-80.8c3.7-3.7,9.8-3.7,13.5,0l0,0c3.7,3.7,3.7,9.8,0,13.5l-80.8,80.8
					c-3.7,3.7-9.8,3.7-13.5,0l0,0C369.1,93.4,369.1,87.4,372.8,83.7z"/>
				<g>
					
						<linearGradient id="SVGID_00000145020152312252573530000011781145198432997525_" gradientUnits="userSpaceOnUse" x1="452.5101" y1="415.8002" x2="456.6011" y2="411.7121" gradientTransform="matrix(1 0 0 1 0 -398.3616)">
						<stop  offset="0" style="stop-color:#000000;stop-opacity:0.5"/>
						<stop  offset="1" style="stop-color:#000000;stop-opacity:0"/>
					</linearGradient>
					<polygon style="fill:url(#SVGID_00000145020152312252573530000011781145198432997525_);" points="463.3,20.1 449.7,6.8 
						445.8,10.7 459.2,24.2 					"/>
					<g>
						<path class="st9" d="M467.5,32.4L437.9,2.9c-3.7-3.7-9.8-3.7-13.5,0l0,0c-3.7,3.7-3.7,9.8,0,13.5L458.1,50l6.8-6.8
							C469.9,38.2,467.5,32.4,467.5,32.4L467.5,32.4z"/>
						<path class="st10" d="M478.3,43.3L478.3,43.3l-5.4-5.4l-1-1l-4.5-4.5c0,0,2.4,5.7-2.6,10.8L458,50l-33.7,33.7
							c-3.7,3.7-3.7,9.8,0,13.5l0,0c3.7,3.7,9.8,3.7,13.5,0l33.7-33.7l6.7-6.7C482,53,482,47,478.3,43.3L478.3,43.3z"/>
					</g>
					
						<linearGradient id="SVGID_00000039816892232283605800000013150582903206664871_" gradientUnits="userSpaceOnUse" x1="464.9195" y1="441.6811" x2="460.9974" y2="437.7591" gradientTransform="matrix(1 0 0 1 0 -398.3616)">
						<stop  offset="0" style="stop-color:#000000;stop-opacity:0.5"/>
						<stop  offset="1" style="stop-color:#000000;stop-opacity:0"/>
					</linearGradient>
					<path style="fill:url(#SVGID_00000039816892232283605800000013150582903206664871_);" d="M458.1,50l7.1-7.1
						c0,0,4.4-4.5,2.3-10.5L454,45.9L458.1,50L458.1,50z"/>
				</g>
			</g>
		</g>
	</g>
</g>
<g id="hmtl" class="st7">
	<g id="a_00000053544017138436818930000000152926584950936745_" class="st8">
	</g>
	<g id="b_00000078037683635609792360000016640483143413085886_" class="st8">
		<g id="c_00000165214895632168459900000013034078752038600634_">
			<g>
				<g>
					<g>
						<path class="st15" d="M372.5,67.5l29.6,29.6c3.7,3.7,9.8,3.7,13.5,0l0,0c3.7-3.7,3.7-9.8,0-13.5l-33.7-33.7l-6.8,6.8
							C370,61.7,372.5,67.5,372.5,67.5L372.5,67.5z"/>
						<path class="st16" d="M361.6,56.6L361.6,56.6L367,62l1,1l4.5,4.5c0,0-2.4-5.7,2.6-10.8l6.8-6.8l33.7-33.7
							c3.7-3.7,3.7-9.8,0-13.5l0,0c-3.7-3.7-9.8-3.7-13.5,0l-33.7,33.7l-6.7,6.7C357.9,46.9,357.9,52.9,361.6,56.6L361.6,56.6z"/>
					</g>
					
						<linearGradient id="SVGID_00000047036098656397584550000012304722649726683318_" gradientUnits="userSpaceOnUse" x1="-1454.5798" y1="-978.8128" x2="-1458.5018" y2="-982.7349" gradientTransform="matrix(-1 0 0 -1 -1079.5669 -922.2)">
						<stop  offset="0" style="stop-color:#000000;stop-opacity:0.5"/>
						<stop  offset="1" style="stop-color:#000000;stop-opacity:0"/>
					</linearGradient>
					<path style="fill:url(#SVGID_00000047036098656397584550000012304722649726683318_);" d="M381.8,49.9l-7.1,7.1
						c0,0-4.4,4.5-2.3,10.5L385.9,54L381.8,49.9L381.8,49.9z"/>
					
						<linearGradient id="SVGID_00000051372286547340592880000010759402375178462370_" gradientUnits="userSpaceOnUse" x1="401.0237" y1="480.6854" x2="405.1028" y2="484.7645" gradientTransform="matrix(1 0 0 1 0 -398.3616)">
						<stop  offset="0" style="stop-color:#000000;stop-opacity:0.5"/>
						<stop  offset="1" style="stop-color:#000000;stop-opacity:0"/>
					</linearGradient>
					<polygon style="fill:url(#SVGID_00000051372286547340592880000010759402375178462370_);" points="398.3,93.1 411.6,79.5 
						407.7,75.5 394.2,89 					"/>
				</g>
				<path class="st16" d="M372.8,83.5l80.8-80.8c3.7-3.7,9.8-3.7,13.5,0l0,0c3.7,3.7,3.7,9.8,0,13.5L386.3,97
					c-3.7,3.7-9.8,3.7-13.5,0l0,0C369.1,93.2,369.1,87.2,372.8,83.5z"/>
				<g>
					
						<linearGradient id="SVGID_00000002368832370211617550000010123833995585235135_" gradientUnits="userSpaceOnUse" x1="452.4661" y1="415.5441" x2="456.5571" y2="411.456" gradientTransform="matrix(1 0 0 1 0 -398.3616)">
						<stop  offset="0" style="stop-color:#000000;stop-opacity:0.5"/>
						<stop  offset="1" style="stop-color:#000000;stop-opacity:0"/>
					</linearGradient>
					<polygon style="fill:url(#SVGID_00000002368832370211617550000010123833995585235135_);" points="463.3,19.8 449.7,6.5 
						445.8,10.5 459.2,23.9 					"/>
					<g>
						<path class="st15" d="M467.5,32.2L437.9,2.6c-3.7-3.7-9.8-3.7-13.5,0l0,0c-3.7,3.7-3.7,9.8,0,13.5l33.7,33.7l6.8-6.8
							C469.9,38,467.5,32.2,467.5,32.2L467.5,32.2z"/>
						<path class="st16" d="M478.3,43.1L478.3,43.1l-5.4-5.4l-1-1l-4.5-4.5c0,0,2.4,5.7-2.6,10.8l-6.8,6.8l-33.7,33.7
							c-3.7,3.7-3.7,9.8,0,13.5l0,0c3.7,3.7,9.8,3.7,13.5,0l33.7-33.7l6.7-6.7C482,52.8,482,46.8,478.3,43.1L478.3,43.1z"/>
					</g>
					
						<linearGradient id="SVGID_00000057855419956268967730000016038412587811622795_" gradientUnits="userSpaceOnUse" x1="464.9135" y1="441.4751" x2="460.9914" y2="437.553" gradientTransform="matrix(1 0 0 1 0 -398.3616)">
						<stop  offset="0" style="stop-color:#000000;stop-opacity:0.5"/>
						<stop  offset="1" style="stop-color:#000000;stop-opacity:0"/>
					</linearGradient>
					<path style="fill:url(#SVGID_00000057855419956268967730000016038412587811622795_);" d="M458.1,49.8l7.1-7.1
						c0,0,4.4-4.5,2.3-10.5L454,45.7L458.1,49.8L458.1,49.8z"/>
				</g>
			</g>
		</g>
	</g>
</g>
<g id="css" class="st7">
	<g id="b_00000046307056183451823820000008147763756872593537_" class="st8">
		<g id="c_00000022541554534597264990000012280933280891648444_">
			<g>
				<g>
					<g>
						<path class="st21" d="M372.5,67.4L402.1,97c3.7,3.7,9.8,3.7,13.5,0l0,0c3.7-3.7,3.7-9.8,0-13.5l-33.7-33.7l-6.8,6.8
							C370,61.7,372.5,67.4,372.5,67.4L372.5,67.4z"/>
						<path class="st22" d="M361.6,56.6L361.6,56.6L367,62l1,1l4.5,4.5c0,0-2.4-5.7,2.6-10.8l6.8-6.8l33.7-33.7
							c3.7-3.7,3.7-9.8,0-13.5l0,0c-3.7-3.7-9.8-3.7-13.5,0l-33.7,33.7l-6.7,6.7C357.9,46.8,357.9,52.9,361.6,56.6L361.6,56.6z"/>
					</g>
					
						<linearGradient id="SVGID_00000052066588976375713290000000166216568488902815_" gradientUnits="userSpaceOnUse" x1="-2354.6047" y1="-978.7377" x2="-2358.5266" y2="-982.6598" gradientTransform="matrix(-1 0 0 -1 -1979.5667 -922.2)">
						<stop  offset="0" style="stop-color:#000000;stop-opacity:0.5"/>
						<stop  offset="1" style="stop-color:#000000;stop-opacity:0"/>
					</linearGradient>
					<path style="fill:url(#SVGID_00000052066588976375713290000000166216568488902815_);" d="M381.8,49.8l-7.1,7.1
						c0,0-4.4,4.5-2.3,10.5l13.5-13.5L381.8,49.8L381.8,49.8z"/>
					
						<linearGradient id="SVGID_00000033366253527542527320000012884813190256185225_" gradientUnits="userSpaceOnUse" x1="400.9985" y1="480.6602" x2="405.0776" y2="484.7393" gradientTransform="matrix(1 0 0 1 0 -398.3616)">
						<stop  offset="0" style="stop-color:#000000;stop-opacity:0.5"/>
						<stop  offset="1" style="stop-color:#000000;stop-opacity:0"/>
					</linearGradient>
					<polygon style="fill:url(#SVGID_00000033366253527542527320000012884813190256185225_);" points="398.3,93.1 411.6,79.4 
						407.7,75.5 394.2,89 					"/>
				</g>
				<path class="st22" d="M372.8,83.4l80.8-80.8c3.7-3.7,9.8-3.7,13.5,0l0,0c3.7,3.7,3.7,9.8,0,13.5l-80.8,80.8
					c-3.7,3.7-9.8,3.7-13.5,0l0,0C369.1,93.2,369.1,87.2,372.8,83.4z"/>
				<g>
					
						<linearGradient id="SVGID_00000168821634603647781150000018180236987337720982_" gradientUnits="userSpaceOnUse" x1="452.4913" y1="415.5189" x2="456.5823" y2="411.4308" gradientTransform="matrix(1 0 0 1 0 -398.3616)">
						<stop  offset="0" style="stop-color:#000000;stop-opacity:0.5"/>
						<stop  offset="1" style="stop-color:#000000;stop-opacity:0"/>
					</linearGradient>
					<polygon style="fill:url(#SVGID_00000168821634603647781150000018180236987337720982_);" points="463.3,19.8 449.7,6.5 
						445.8,10.4 459.2,23.9 					"/>
					<g>
						<path class="st21" d="M467.5,32.2L437.9,2.6c-3.7-3.7-9.8-3.7-13.5,0l0,0c-3.7,3.7-3.7,9.8,0,13.5l33.7,33.7l6.8-6.8
							C469.9,37.9,467.5,32.2,467.5,32.2L467.5,32.2z"/>
						<path class="st22" d="M478.3,43L478.3,43l-5.4-5.4l-1-1l-4.5-4.5c0,0,2.4,5.7-2.6,10.8l-6.8,6.8l-33.7,33.7
							c-3.7,3.7-3.7,9.8,0,13.5l0,0c3.7,3.7,9.8,3.7,13.5,0l33.7-33.7l6.7-6.7C482,52.8,482,46.7,478.3,43L478.3,43z"/>
					</g>
					
						<linearGradient id="SVGID_00000103224995968634512950000018414464033550790301_" gradientUnits="userSpaceOnUse" x1="464.9133" y1="441.4249" x2="460.9912" y2="437.5028" gradientTransform="matrix(1 0 0 1 0 -398.3616)">
						<stop  offset="0" style="stop-color:#000000;stop-opacity:0.5"/>
						<stop  offset="1" style="stop-color:#000000;stop-opacity:0"/>
					</linearGradient>
					<path style="fill:url(#SVGID_00000103224995968634512950000018414464033550790301_);" d="M458.1,49.7l7.1-7.1
						c0,0,4.4-4.5,2.3-10.5L454,45.7L458.1,49.7L458.1,49.7z"/>
				</g>
			</g>
		</g>
	</g>
</g>
<g id="design" class="st7">
	<g id="b_00000069389292422651807980000002511513962122626740_" class="st8">
		<g id="c_00000121992238278611796380000005104581129748734877_">
			<path d="M478.1,42.7L467.4,32l0,0l-7.9-7.9l7.5-7.5c1.9-1.9,2.9-4.3,2.9-7s-1-5.1-2.9-7s-4.3-2.9-7-2.9s-5.1,1-7,2.9l-7.5,7.5
				L438,2.6c-3.9-3.9-10.1-3.9-14,0s-3.9,10.1,0,14l7.5,7.5l-37.2,37.2l-11.5-11.5l33.1-33.1c3.9-3.9,3.9-10.1,0-14s-10.1-3.9-14,0
				l-40.1,40.1c-3.9,3.9-3.9,10.1,0,14l12.3,12.3l0,0l6.2,6.2l-7.5,7.5c-1.9,1.9-2.9,4.3-2.9,7c0,2.6,1,5.1,2.9,7s4.3,2.9,7,2.9
				c2.6,0,5.1-1,7-2.9l7.5-7.5l7.6,7.6c1.9,1.9,4.5,2.9,7,2.9s5.1-1,7-2.9s2.9-4.3,2.9-7s-1-5.1-2.9-7l-7.6-7.6l37.2-37.2l11.6,11.6
				L424,82.8c-3.9,3.9-3.9,10.1,0,14c1.9,1.9,4.5,2.9,7,2.9s5.1-1,7-2.9l40.1-40.1C482,52.8,482,46.6,478.1,42.7L478.1,42.7z
				 M453.7,3.3c1.7-1.7,4-2.6,6.4-2.6s4.7,0.9,6.4,2.6c1.7,1.7,2.6,4,2.6,6.4s-0.9,4.7-2.6,6.4l-7.5,7.5l-12.7-12.7L453.7,3.3
				L453.7,3.3z M362.5,43.4l40.1-40.1c1.8-1.8,4.1-2.6,6.4-2.6s4.6,0.9,6.4,2.6c3.5,3.5,3.5,9.2,0,12.7l-33.1,33.1l0,0l-7.1,7.1
				c-3.5,3.5-3.5,7.5-3.1,9.5l0,0l-9.6-9.6C358.9,52.7,358.9,46.9,362.5,43.4z M373.3,67L373.3,67C373.2,66.9,373.2,66.9,373.3,67
				l-0.1-0.2c0,0,0,0,0-0.1s0-0.2-0.1-0.3l-0.1-0.3V66c0-0.1,0-0.2-0.1-0.4v-0.1c-0.3-1.6-0.4-4.6,1.8-7.5c0-0.1,0.1-0.1,0.1-0.2
				c0.1-0.1,0.1-0.2,0.2-0.3s0.2-0.2,0.2-0.3l0.1-0.1c0.1-0.1,0.2-0.3,0.4-0.4l6.4-6.4L393.7,62L381,74.7L373.3,67L373.3,67z
				 M415.3,83.5c1.7,1.7,2.6,4,2.6,6.4s-0.9,4.7-2.6,6.4c-3.5,3.5-9.2,3.5-12.7,0l-7.6-7.6L407.7,76L415.3,83.5L415.3,83.5z
				 M386.3,96.1c-1.7,1.7-4,2.6-6.4,2.6s-4.7-0.9-6.4-2.6c-1.7-1.7-2.6-4-2.6-6.4s0.9-4.7,2.6-6.4l58.7-58.7l12.7,12.7L386.3,96.1
				L386.3,96.1z M424.7,16c-1.7-1.7-2.6-4-2.6-6.4s0.9-4.7,2.6-6.4s4.1-2.6,6.4-2.6s4.6,0.9,6.4,2.6l29.3,29.3l0,0l0,0v0.1l0,0v0.1
				l0,0v0.1l0,0v0.1c0,0,0,0,0,0.1v0.1c0,0,0,0,0,0.1v0.1v0.1v0.1v0.1c0,0,0,0.1,0,0.2v0.1c0,0.1,0,0.1,0,0.2v0.1c0,0.1,0,0.1,0,0.2
				v0.1c0,0.1,0,0.2,0,0.2s0,0,0,0.1c0,0.2,0,0.4,0,0.7v0.1c0,0.1,0,0.2,0,0.3V36c0,0.1,0,0.2,0,0.2v0.1c0,0.1,0,0.1,0,0.2
				c0,0.1,0,0.1,0,0.2c0,0.1,0,0.1,0,0.2c0,0.1,0,0.1,0,0.2c0,0.1,0,0.1,0,0.2c0,0.1,0,0.1,0,0.2c0,0.1,0,0.1,0,0.2
				c0,0.1,0,0.1,0,0.2c0,0.1,0,0.1-0.1,0.2c0,0.1,0,0.1-0.1,0.2c0,0.1,0,0.2-0.1,0.2c0,0.1,0,0.1-0.1,0.2c0,0.1-0.1,0.2-0.1,0.2
				c0,0.1,0,0.1-0.1,0.2c0,0.1-0.1,0.2-0.1,0.2c0,0.1-0.1,0.1-0.1,0.2c0,0.1-0.1,0.2-0.1,0.2c0,0.1-0.1,0.1-0.1,0.2
				c0,0.1-0.1,0.2-0.1,0.2c0,0.1-0.1,0.1-0.1,0.2c0,0.1-0.1,0.2-0.1,0.2c0,0.1-0.1,0.1-0.1,0.2c-0.1,0.1-0.1,0.2-0.2,0.2
				c0,0.1-0.1,0.1-0.1,0.2c-0.1,0.1-0.1,0.2-0.2,0.3c0,0.1-0.1,0.1-0.1,0.2c-0.1,0.1-0.2,0.2-0.2,0.3l-0.1,0.1
				c-0.1,0.1-0.3,0.3-0.4,0.4l-6.4,6.4L424.7,16z M477.5,56.1l-40.1,40.1c-3.5,3.5-9.2,3.5-12.7,0s-3.5-9.2,0-12.7l33.1-33.1l0,0
				l7.1-7.1c0.1-0.1,0.3-0.3,0.4-0.4l0.1-0.1c0.1-0.1,0.2-0.3,0.3-0.4l0,0c0.1-0.1,0.2-0.3,0.3-0.4l0.1-0.1c0.1-0.1,0.2-0.2,0.3-0.4
				c0,0,0,0,0-0.1c0.1-0.1,0.2-0.3,0.3-0.4c0,0,0-0.1,0.1-0.1c0.1-0.1,0.1-0.2,0.2-0.4v-0.1c0.1-0.1,0.1-0.3,0.2-0.4v-0.1
				c0-0.1,0.1-0.2,0.1-0.3v-0.1c0.1-0.1,0.1-0.3,0.1-0.4V39c0-0.1,0.1-0.2,0.1-0.3v-0.1c0-0.1,0.1-0.3,0.1-0.4v-0.1
				c0-0.1,0-0.2,0.1-0.3v-0.1c0-0.1,0-0.3,0.1-0.4c0,0,0,0,0-0.1s0-0.2,0-0.3v-0.1c0-0.1,0-0.2,0-0.4l0,0c0-0.1,0-0.2,0-0.3V36
				c0-0.1,0-0.2,0-0.3l0,0c0-0.1,0-0.2,0-0.3v-0.1c0-0.1,0-0.2,0-0.3c0,0,0,0,0-0.1s0-0.2,0-0.3v-0.1c0-0.1,0-0.1,0-0.2
				c0,0,0,0,0-0.1s0-0.2,0-0.2l9.6,9.6C481,46.9,481,52.6,477.5,56.1L477.5,56.1z"/>
		</g>
	</g>
</g>
</svg>
