<?xml version="1.0" encoding="UTF-8"?><svg xmlns="http://www.w3.org/2000/svg" xmlns:xlink="http://www.w3.org/1999/xlink" viewBox="0 0 412.43 337.32"><defs><style>.h{fill:url(#e);}.i{fill:url(#d);}.j{fill:url(#g);}.k{fill:url(#f);}.l{fill:#2965f1;}.m{fill:#264de4;}</style><linearGradient id="d" x1="-2459.57" y1="-715.55" x2="-2472.8" y2="-728.78" gradientTransform="translate(-2404.9 -524.2) rotate(-180)" gradientUnits="userSpaceOnUse"><stop offset="0" stop-color="#000" stop-opacity=".5"/><stop offset="1" stop-color="#000" stop-opacity="0"/></linearGradient><linearGradient id="e" x1="142.21" y1="278.28" x2="155.97" y2="292.04" gradientTransform="matrix(1, 0, 0, 1, 0, 0)" xlink:href="#d"/><linearGradient id="f" x1="315.89" y1="58.53" x2="329.69" y2="44.74" gradientTransform="matrix(1, 0, 0, 1, 0, 0)" gradientUnits="userSpaceOnUse"><stop offset="0" stop-color="#000" stop-opacity=".5"/><stop offset="1" stop-color="#000" stop-opacity="0"/></linearGradient><linearGradient id="g" x1="357.77" y1="145.97" x2="344.54" y2="132.74" gradientTransform="matrix(1, 0, 0, 1, 0, 0)" xlink:href="#d"/></defs><g id="a"/><g id="b"><g id="c"><g><g><g><path class="m" d="M45.93,228.08l99.83,99.83c12.55,12.55,32.9,12.55,45.45,0h0c12.55-12.55,12.55-32.9,0-45.45l-113.63-113.63-22.95,22.95c-16.91,16.91-8.71,36.3-8.71,36.3Z"/><path class="l" d="M9.41,191.55h0l18.21,18.21,3.22,3.22,15.08,15.08s-8.21-19.39,8.71-36.3l22.95-22.95L191.22,55.2c12.55-12.55,12.55-32.9,0-45.45h0c-12.55-12.55-32.9-12.55-45.45,0L32.14,123.38l-22.73,22.73c-12.55,12.55-12.55,32.9,0,45.45Z"/></g><path class="i" d="M77.59,168.83l-23.96,23.96s-14.97,15.26-7.69,35.29l45.45-45.45-13.8-13.8Z"/><polygon class="h" points="133.06 314.59 177.96 268.58 164.72 255.34 119.27 300.79 133.06 314.59"/></g><rect class="l" x="-18.75" y="136.35" width="449.94" height="64.28" rx="32.14" ry="32.14" transform="translate(-58.74 195.17) rotate(-45)"/><g><polygon class="k" points="352.42 67.46 306.41 22.57 293.17 35.81 338.62 81.26 352.42 67.46"/><g><path class="m" d="M366.5,109.24L266.67,9.41c-12.55-12.55-32.9-12.55-45.45,0h0c-12.55,12.55-12.55,32.9,0,45.45l113.63,113.63,22.95-22.95c16.91-16.91,8.71-36.3,8.71-36.3Z"/><path class="l" d="M403.02,145.76h0l-18.21-18.21-3.22-3.22-15.08-15.08s8.21,19.39-8.71,36.3l-22.95,22.95-113.63,113.63c-12.55,12.55-12.55,32.9,0,45.45h0c12.55,12.55,32.9,12.55,45.45,0l113.63-113.63,22.73-22.73c12.55-12.55,12.55-32.9,0-45.45Z"/></g><path class="j" d="M334.84,168.49l23.96-23.96s14.97-15.26,7.69-35.29l-45.45,45.45,13.8,13.8Z"/></g></g></g></g></svg>