<?xml version="1.0" encoding="UTF-8"?><svg xmlns="http://www.w3.org/2000/svg" viewBox="0 0 400 60.84"><defs><style>.d{fill:#454545;}</style></defs><g id="a"/><g id="b"><g id="c"><g><path class="d" d="M43.92,33.86s.03-.06,.04-.1c1.15-4.32-2.08-8.18-5.19-10.75-3.37-2.78-7.26-5.15-11.54-6.21-2.07-.51-4.23-.71-6.35-.44-2.29,.29-4.43,1.11-6.44,2.24-3.85,2.15-7.48,4.96-10.17,8.48C1.33,30.94-.32,35.77,.29,40.62c-.23,.18-.36,.47-.23,.84,1.32,3.75,2.73,7.58,5.04,10.85,1.12,1.59,2.44,3.01,4.01,4.16,1.81,1.32,3.92,2.13,6.09,2.63,4.37,1.01,9.09,1.56,13.46,.31,3.64-1.05,6.97-3.16,9.54-5.93,2.92-3.15,4.84-7.1,5.34-11.37,.09-.73-.67-.96-1.2-.7-.1-.05-.22-.09-.35-.1-4.05-.36-8.13-.4-12.19-.12-.49,.03-.76,.4-.8,.79-.39,.03-.74,.3-.7,.81,.09,1.24-.46,2.47-1.55,3.14-1.1,.67-2.63,.64-3.87,.55-1.25-.09-2.53-.44-3.57-1.15-1.12-.77-1.72-1.96-2.08-3.24-.78-2.79-.7-6,.78-8.55,1.28-2.2,3.7-3.85,6.3-3.78,2.7,.07,5.22,2.38,5.18,5.14-.01,.73,.74,.97,1.24,.72,.12,.07,.26,.1,.44,.09,4.21-.25,8.43-.31,12.64-.18,1.04,.03,1.08-1.51,.13-1.67Zm-12.77,.16s-.03,0-.04,0c-.37-2.79-2.65-5.15-5.39-5.78-3.2-.74-6.51,.87-8.47,3.39-2.22,2.87-2.61,6.75-1.84,10.22,.38,1.7,1.08,3.38,2.46,4.51,1.25,1.02,2.79,1.55,4.38,1.75,1.77,.22,3.98,.21,5.51-.83,1.44-.97,2.31-2.67,2.22-4.41,3.91-.26,7.82-.22,11.72,.11-1.14,6.57-6.21,12.27-12.46,14.47-3.96,1.39-8.06,1.07-12.12,.33-2.1-.39-4.2-.94-6.06-2.03-1.54-.91-2.86-2.16-3.97-3.56-2.48-3.15-3.93-7-5.26-10.75,.13-.18,.21-.41,.16-.68-1.37-8.43,4.96-15.47,11.56-19.65,1.79-1.14,3.68-2.17,5.74-2.72,1.88-.5,3.87-.57,5.79-.28,3.94,.59,7.59,2.48,10.78,4.8,3.12,2.26,7.62,6.03,6.46,10.41-.05,.19-.04,.36,.02,.5-3.73-.08-7.47-.01-11.19,.21Z"/><path class="d" d="M74.82,18.66c-.07-.36-.33-.69-.79-.72-3.88-.27-7.79,1.11-10.66,3.71-.04-.78-.03-1.56,.03-2.34,.04-.44-.41-.87-.85-.85-.04,0-.06,.02-.1,.02-.11-.04-.23-.07-.38-.06-4.05,.32-8.12,.28-12.17-.11-.8-.08-1,.82-.63,1.34-1.41,10.47-2.11,21.02-2.07,31.58,0,1.49,.03,2.97,.06,4.46,.03,1.13,.1,2.38,1.04,3.15,.17,.15,.37,.2,.55,.2,.09,.19,.26,.34,.53,.41,4.07,.92,8.2,.23,12.24-.5,.37-.07,.56-.31,.6-.58,.23,.03,.47,0,.71-.15,.67-.41,.41-1.28-.14-1.52,0-.02,0-.03,0-.05,.06-.21,.04-.48,.06-.7,.04-.46,.07-.93,.11-1.39,.07-.88,.13-1.77,.19-2.65,.12-1.81,.23-3.63,.32-5.45,.17-3.59,.28-7.18,.32-10.78,2.56-2.47,6.22-3.77,9.77-3.29,.46,.06,.9-.11,1.04-.59,.02-.08,.03-.16,.02-.25,.49,.19,1.19-.06,1.23-.75,.21-3.98,.41-7.97,.62-11.95,.05-1.02-1.42-1.08-1.66-.2Zm-12.67,16.3c-.33,.36-.27,.79-.04,1.1-.06,4.12-.19,8.25-.42,12.36-.12,2.14-.26,4.28-.43,6.42-.06,.78-.29,1.72-.08,2.49-3.73,.67-7.58,1.34-11.34,.5-.07-.02-.13-.02-.19-.02-.04-.05-.09-.1-.14-.15-.74-.62-.54-1.93-.56-2.79-.03-1.25-.04-2.51-.05-3.76-.01-2.55,.02-5.11,.1-7.66,.15-5.1,.48-10.2,.97-15.28,.26-2.69,.58-5.38,.94-8.07,3.58,.29,7.17,.31,10.75,.05-.03,1,.01,2.01,.14,3.01,.03,.23,.07,.42,.25,.6,.15,.15,.39,.26,.6,.25,.12,0,.25-.04,.36-.1,.23,.05,.49-.01,.7-.24,2.65-2.82,6.46-4.3,10.31-4.03,.39,.03,.64-.17,.75-.45-.2,3.88-.4,7.75-.6,11.63h0s-.1-.04-.15-.04c-4.37-.59-8.86,.93-11.87,4.19Z"/><path class="d" d="M103.95,29.09c-2.35-.83-5.25-1.13-7.61-.22-2.16,.83-3.89,2.65-4.04,4.92-.84,.22-.77,1.65,.24,1.66h.18c.2,.1,.45,.1,.67,0l7.72,.08c1.47,.02,2.95,.03,4.42,.05,.51,0,1.07,.06,1.53-.19,.52-.28,.78-.84,.84-1.4,.28-2.42-1.91-4.2-3.95-4.92Zm1.31,4.81c-1.38-.01-2.76-.03-4.15-.04l-7.15-.08c.14-2.14,2.62-3.49,4.56-3.71,1.33-.15,2.69,.03,3.98,.35,1.1,.27,2.23,.68,3,1.55,.37,.42,.67,.95,.73,1.51,0,.05,.03,.44,.05,.42-.07,.09-.89,0-1.02,0Z"/><path class="d" d="M114.74,22.83c-2.03-1.59-4.22-3.23-6.63-4.17-4.49-1.75-9.93-1.26-14.37,.41-4.39,1.65-8.21,4.57-10.86,8.45-3.02,4.41-4.43,9.91-3.9,15.23,.03,.27,.15,.47,.32,.6,1.07,6.97,6.38,12.48,12.74,15.1,3.42,1.41,7.3,2.19,11.01,2.09,.95-.03,1.91-.15,2.8-.48,1-.37,1.91-.94,2.83-1.48,1.64-.97,3.31-1.91,4.91-2.95,2.94-1.92,5.74-4.4,6.19-8.07,0-.05,0-.09,0-.13,.94-.14,.9-1.67-.14-1.68l-12.64-.09c-.37,0-.61,.19-.73,.45-.23,.02-.45,.14-.61,.38-1.54,2.29-4.77,1.66-6.98,.96-.72-.23-6.54-2.39-5.04-3.55,.12-.1,.2-.2,.25-.32,8.28-.18,16.57-.29,24.85-.33,.73,0,.97-.75,.72-1.25,.44,.2,1,.08,1.11-.52,.78-4.46,.59-9.21-1.42-13.34-1.03-2.11-2.56-3.85-4.4-5.29Zm4.29,18.76c-.09-.03-.19-.05-.3-.05-8.43,.04-16.85,.15-25.28,.34-.46,.01-.73,.32-.8,.68-.07,.03-.15,.07-.22,.12-1.27,.99-.74,2.84,.33,3.73,1.33,1.12,3.14,1.83,4.76,2.41,3.18,1.13,7.39,1.73,9.58-1.49l11.01,.08s-.02,.08-.03,.13c-.35,2.84-2.77,4.88-5,6.38-1.36,.91-2.8,1.72-4.21,2.56-1.58,.93-3.16,2.1-5.03,2.31-1.73,.19-3.57-.01-5.28-.28-1.68-.27-3.34-.68-4.94-1.26-3.11-1.12-5.98-2.9-8.24-5.33-2.36-2.54-3.97-5.7-4.47-9.14-.03-.23-.14-.39-.28-.49-.69-8.69,4.02-17.1,11.91-20.9,3.9-1.87,8.53-2.64,12.79-1.78,2.5,.5,4.52,1.77,6.57,3.22,1.87,1.32,3.68,2.71,4.94,4.66,2.54,3.95,2.88,8.98,2.08,13.51-.04,.23,0,.42,.1,.59Z"/><path class="d" d="M168.93,57.21c-1.2-8.64,.76-17.54-1.65-26.05-.98-3.45-2.71-6.72-5.32-9.21-2.73-2.61-6.19-4.01-9.96-4.08-2.32-.05-4.66,.32-6.91,.83-1.41,.32-2.85,.82-3.88,1.83,0-.02,0-.05,.02-.08,.04-.17,0-.39,0-.56v-1.27c0-.8,.01-1.6,.02-2.4,0-1.6,.01-3.2,.02-4.79,.01-3.12,.03-6.25,.04-9.37,.12-.04,.23-.1,.31-.21,.36-.47,.44-1-.02-1.45-.46-.45-1.07-.4-1.67-.39l-4.73,.1-4.59,.09c-1.5,.03-3,.02-4.47,.31-1.03,.2-.65,1.72,.34,1.64-.69,14.52-.91,29.06-.65,43.59,.07,4.2,.19,8.4,.34,12.6,.01,.3,.15,.52,.35,.65,.11,.27,.36,.5,.74,.51,4.1,.19,8.46,.8,12.45-.45,.42-.13,.6-.48,.59-.83,.5,.45,1.48,.26,1.41-.57-.68-7.59-.77-15.21-.26-22.81,.93-1.51,2.45-2.56,4.21-2.9,1.94-.38,3.93,.36,5.3,1.74,1.75,1.76,1.82,3.98,1.83,6.33,0,2.76,.02,5.51,.02,8.27,0,3.13,.02,6.26,.03,9.39,0,.54,.42,.81,.84,.82,.12,.4,.48,.7,.98,.51,2.03-.75,4.19-.62,6.32-.57,2.33,.06,4.67,.11,7,.17,.5,.01,.76-.33,.81-.72,.13-.18,.21-.4,.17-.67Zm-8.25-.48c-2.07-.05-4.19-.12-6.18,.53-.02-6.11,.02-12.22-.05-18.33-.03-2.53-.62-4.87-2.54-6.65-1.68-1.56-3.94-2.36-6.23-2.05-2.28,.31-4.38,1.65-5.62,3.59-.15,.12-.26,.3-.29,.52-.04,.08-.1,.16-.14,.25-.16,.32-.1,.63,.06,.87-.46,7.37-.37,14.76,.29,22.12-.18-.16-.44-.24-.75-.14-1.93,.6-3.9,.72-5.91,.66-1.83-.06-3.66-.15-5.5-.24-.52-14.58-.57-29.18-.14-43.76,.12-4.06,.28-8.11,.47-12.16,1.77-.15,3.61-.06,5.36-.1,1.16-.02,2.32-.05,3.48-.07l1.67-.03,.84-.02h.12s-.01,.09-.01,.14l-.05,11.56c0,1.88-.02,3.76-.02,5.64,0,.77-.23,1.92,.17,2.62,.17,.3,.41,.48,.67,.55,.23,.58,1.13,.87,1.52,.17,.76-1.37,2.4-1.77,3.82-2.09,1.97-.43,3.98-.75,6.01-.73,3.5,.02,6.68,1.28,9.18,3.74,5.41,5.32,6.01,13.3,5.97,20.46-.03,4.39-.2,8.77,.32,13.13-2.18-.05-4.35-.1-6.53-.16Z"/><path class="d" d="M217.19,19.03c-.12-.25-.36-.44-.72-.46l-9.65-.43c-1.23-.05-2.67-.12-3.56,.89-.23,.25-.39,.57-.48,.9-5.2-4.01-12.7-3.76-18.46-.96-6.57,3.18-11.22,9.57-12.31,16.77-.67,4.41-.15,8.94,1.56,13.06,.03,.07,.07,.13,.11,.19,.05,.38,.31,.73,.81,.73h0c2.5,8.28,13.4,10.15,20.88,9.51,2.51-.21,4.94-.81,7.2-1.95h.01c.17,.66,.61,1.24,1.21,1.66,1.11,.77,2.51,.65,3.78,.51,2.98-.34,5.97-.4,8.96-.16,.71,.06,.95-.65,.73-1.17,.01-.07,.02-.14,.02-.22-.34-9.94-.39-19.91,0-29.85,.11-2.71,.33-5.42,1.04-8.04,.21-.76-.58-1.2-1.15-1Zm-7.87,38.57c-1.1,.09-2.22,.31-3.33,.28-.7-.02-2.02-.4-1.81-1.37,.22-1.01-1.23-1.46-1.58-.6-.24-.18-.56-.25-.9-.08-4.6,2.32-10.33,2.18-15.26,1.16-4.57-.94-9.35-3.5-10.51-8.39-.11-.47-.5-.64-.87-.6-2.61-6.58-2.17-14.29,1.75-20.27,3.48-5.31,9.58-9.07,16-9.19,3.69-.07,7.44,1.06,10.09,3.71,.43,.43,1,.25,1.28-.14,.55-.2,.91-.88,.34-1.34-.21-.17-.18-.41,0-.62,.26-.31,.76-.35,1.13-.36,1.14-.05,2.3,.08,3.44,.13,2.47,.11,4.93,.22,7.4,.33,.02,0,.05,0,.07,0-1.08,4.47-1.02,9.2-1.11,13.77-.11,5.06-.12,10.12-.05,15.18,.04,2.78,.11,5.57,.2,8.35-2.09-.12-4.18-.12-6.26,.04Z"/><path class="d" d="M202.14,30.07c-1.38-.83-2.95-1.61-4.52-1.96-1.46-.33-3.01-.28-4.36,.39-1.33,.66-2.29,1.97-3.08,3.19-1.68,2.6-2.87,6.02-2.53,9.14,.29,2.69,2.06,5.01,4.4,6.3,3.21,1.77,7.13,1.44,10.42,.07,.31-.13,.56-.38,.61-.69,.39-.04,.75-.31,.77-.81,.13-2.74,.26-5.48,.39-8.21,.06-1.34,.19-2.7,.19-4.04,0-.27-.08-.56-.22-.82-.18-1.15-1.08-1.97-2.07-2.57Zm-7.96,16.16c-2.02-.66-3.88-2.24-4.58-4.29-.8-2.36-.05-5.24,.96-7.44,.97-2.11,2.51-4.81,5.11-4.9,1.53-.06,2.96,.55,4.3,1.23,.69,.35,1.94,.83,2.4,1.62-.23,.41-.03,.87,.31,1.11,.01,.02,.03,.04,.04,.06v.23l-.05,.88-.07,1.52c-.05,1.05-.1,2.11-.15,3.16-.1,2.05-.2,4.1-.29,6.14-.05,0-.1,.02-.15,.04-2.47,1.03-5.24,1.49-7.83,.65Z"/><path class="d" d="M252.23,35.79c-.02-.51-.4-.77-.79-.81-.32-2.43-2.38-4.36-4.89-4.77-1.72-.28-3.44,.08-5.05,.69-1.22,.46-2.66,1-3.23,2.25-.36,.21-.58,.64-.4,1.12,.05,.13,.12,.24,.21,.34,0,.07-.01,.13-.02,.2-.02,.28-.05,.56-.07,.84-.04,.46-.07,.93-.11,1.39-.07,1.02-.14,2.04-.19,3.07-.11,2.09-.18,4.19-.22,6.28-.06,4.07,.03,8.14,.27,12.2-3.71,.01-7.42-.3-11.08-.96-.09-.29-.29-.55-.57-.68,0-.01,0-.03,0-.04-.03-.32-.06-.64-.09-.97-.05-.6-.1-1.2-.13-1.8-.07-1.25-.12-2.49-.14-3.74-.04-2.41,0-4.81,.07-7.22,.12-4.92,.24-9.84,.36-14.76,.07-2.79,.13-5.57,.2-8.36,1.74-.49,3.66-.16,5.43-.03,1.03,.08,2.05,.16,3.08,.24,.51,.04,1.03,.08,1.54,.12l.9,.07,.39,.03h.02c.1,.13,.24,.24,.41,.27,1.35,.3,1.69-1.56,.38-1.89-.7-.17-1.51-.13-2.22-.19-.77-.06-1.54-.12-2.31-.18-1.48-.11-2.96-.24-4.44-.34-1.38-.09-2.8-.1-4.11,.41-.41,.16-.58,.53-.57,.88-.11,.13-.18,.3-.19,.52-.15,6.1-.29,12.19-.44,18.29-.14,5.97-.44,11.98,.11,17.94,.07,.81,.17,2.83,1.35,2.74,.1,.14,.25,.25,.48,.29,4.18,.76,8.41,1.11,12.65,1.02,.81-.02,1.02-.96,.62-1.43,0-.01,0-.02,0-.03-.3-5.02-.37-10.05-.21-15.08,.08-2.51,.22-5.02,.41-7.53,.05-.6,.29-1.55,.14-2.27,.29-.86,1.74-1.24,2.48-1.5,1.22-.44,2.54-.76,3.85-.58,2.09,.29,4.1,2.08,3.65,4.35-.12,.61,.36,1.02,.84,1.05,.22,6.74,.07,13.48-.45,20.2-.08,1.09,1.61,1.08,1.69,0,.56-7.21,.7-14.44,.4-21.66Z"/><path class="d" d="M261.01,22.18c-2.86-2.71-6.72-3.73-10.56-4-3.99-.28-8.3,.15-11.43,2.89-.82,.72,.38,1.91,1.2,1.2,2.58-2.25,6.23-2.59,9.51-2.43,3.57,.17,7.32,.96,10.01,3.47,5.71,5.32,5.14,13.99,5.07,21.1l-.14,13.62c-4.03-.29-8.07-.58-12.1-.88-1.09-.08-1.08,1.61,0,1.69,4.21,.31,8.43,.61,12.64,.92,.21,.01,.37-.03,.5-.12,.34-.08,.64-.34,.64-.79,.05-4.62,.09-9.25,.14-13.87,.05-4.39,.25-8.86-.6-13.2-.69-3.54-2.23-7.07-4.88-9.59Z"/><path class="d" d="M299.19,29.57c-1.34-.69-2.77-1.26-4.29-1.34-3.28-.18-5.31,2.57-7.01,4.96-1.73,2.43-2.95,5.29-2.45,8.31,.22,1.35,.84,2.66,1.82,3.62,1.09,1.07,2.53,1.69,3.96,2.18,3,1.03,6.58,1.36,9.32-.52,.32-.22,.41-.54,.37-.84,.5,.01,1.06-.41,.92-1.06-.77-3.84-.76-7.79,.01-11.62,.03-.06,.05-.12,.06-.18v-.1c.14-.13,.21-.32,.21-.55-.04-1.54-1.75-2.26-2.93-2.87Zm-6.01,16.54c-2.22-.53-4.83-1.45-5.75-3.74-.88-2.19-.28-4.61,.82-6.59,.61-1.1,1.36-2.12,2.15-3.1,.73-.91,1.51-1.92,2.6-2.43,1.27-.6,2.71-.31,3.98,.16,.7,.26,1.36,.61,2.02,.97,.27,.15,1.09,.48,1.35,.84-.95,4.27-1,8.66-.16,12.95-.15-.01-.32,.03-.49,.15-1.93,1.33-4.31,1.32-6.51,.79Z"/><path class="d" d="M315.56,19.11c-.16,.03-.29,.08-.42,.15-.13-.11-.29-.18-.5-.2-2.88-.23-5.76-.41-8.64-.55-.68-.03-1.36-.06-2.04-.09-.59-.02-1.27-.14-1.78,.22-.51,.36-.51,.92-.47,1.48l.03,.35c-4.52-3.16-10.42-3.73-15.66-2.04-2.9,.93-5.55,2.46-7.92,4.37-2.48,2-4.5,4.38-5.64,7.38-4.02,10.54,1.42,23.27,11.72,27.73,5.48,2.38,11.75,2.56,17.31,.4,.11,.14,.25,.25,.43,.28,4.2,.67,8.45,.77,12.67,.25,.38-.05,.7-.26,.81-.61,.48,.09,1.02-.17,.97-.79-.8-9.72-1.07-19.48-.79-29.23,.04-1.35,.09-2.7,.14-4.06,.03-.65,.06-1.31,.09-1.96,.02-.37,.01-.75,.06-1.12,0-.07,0-.14,.03-.21,0-.05,.02-.1,.04-.14,.03-.08,.03-.08,0,0,1.07-.19,.62-1.82-.45-1.63Zm-12.66,37.93c-.16-.45-.68-.82-1.25-.57-4.69,2.08-10.12,2.19-14.97,.59-4.81-1.59-8.79-4.95-11.2-9.4-2.38-4.4-3.21-9.69-2.07-14.57,.66-2.83,1.95-5.29,4.01-7.35,2-1.99,4.36-3.64,6.92-4.82,5.55-2.55,12.53-2.45,17.35,1.63,.13,.11,.27,.17,.41,.19,.47,.54,1.56,.38,1.49-.5-.05-.59-.1-1.19-.15-1.78,0-.06,0-.21,0-.36h.17c1.2,.05,2.4,.11,3.6,.17,2.36,.12,4.72,.28,7.08,.46-.02,.12-.04,.24-.05,.36-.11,1.3-.13,2.61-.19,3.91-.1,2.61-.17,5.22-.2,7.84-.06,5.23,.04,10.45,.3,15.67,.14,2.89,.33,5.77,.56,8.65-.02,0-.04,0-.06,0-3.9,.48-7.86,.45-11.75-.12Z"/><path class="d" d="M399.66,6.56c-.09-.46-.43-.63-.79-.61-.02-.01-.05-.03-.07-.04-.26-.11-.49-.21-.78-.14-.12,.03-.24,.11-.35,.15-.06,.02-.09,.04-.12,.05-.01-.01-.05-.02-.14-.02-.75,0-1.5-.07-2.24-.1-1.59-.07-3.18-.14-4.76-.22-3.13-.14-6.26-.28-9.39-.43-.69-.03-.94,.64-.76,1.14-.38,.05-.76,.31-.82,.79-.67,5.42-1.02,10.88-1.05,16.34-2.36,.49-4.78,.42-7.19,.25-2.43-.17-4.85-.36-7.28-.31-.32-5.28-.48-10.57-.49-15.85,0-.17-.05-.31-.12-.43,0-.43-.27-.86-.82-.87-5.79-.07-11.59,.03-17.38,.29-.16,0-.29,.05-.4,.12-.51-.04-1.1,.39-.96,1.06,.55,2.66,.31,5.39,.08,8.08-.24,2.81-.48,5.63-.71,8.44-.03,.37,.15,.61,.39,.73,.13,.22,.36,.38,.7,.38,5.68-.12,11.36-.23,17.04-.35,0,.36,.02,.71,0,.99-.09,2-.18,3.99-.27,5.99l-.26,5.85c-.04,.97-.11,1.95-.13,2.92,0,.19,0,.36,.03,.53-5.47,.17-10.94,.02-16.39-.43-.84-.07-1.02,.92-.57,1.42-.2,3.07-.21,6.14,0,9.21,.1,1.51,.25,3.02,.45,4.53,.13,.98,.12,2.42,.93,3.14,.1,.29,.36,.53,.76,.53,5.42,.05,10.84,.27,16.25,.65,.02,0,.04,0,.07,0,.84,.52,1.61-.88,.78-1.51-.31-.24-.24-1.14-.27-1.47-.05-.69-.08-1.37-.11-2.06-.05-1.28-.05-2.57-.02-3.85,.07-2.68,.32-5.35,.74-7.99,.04-.22,0-.41-.1-.57l.08-.02c.06-.01,.12-.04,.17-.06,5.2-.44,10.37,.71,15.56,.71-.02,.06-.03,.11-.03,.18-.37,4.88-.56,9.78-.56,14.68,0,.59,.49,.86,.95,.81-.09,.6,.42,1.14,1.02,1.1,.19-.01,.39-.09,.55-.21,.03,0,.06,0,.08,0,.23,.03,.45,.06,.68,.09,.45,.06,.91,.11,1.36,.16,.91,.1,1.82,.19,2.73,.26,1.77,.14,3.55,.22,5.33,.25,1.78,.03,3.56,0,5.34-.08,.7-.03,1.72,.04,1.99-.79,.02-.06,.03-.11,.03-.17,.15-.14,.24-.34,.23-.61-.65-13.76-.38-27.55,.83-41.27,.33-3.78,.88-7.58,.17-11.35Zm-37.92,1.41c.01,5.06,.17,10.13,.47,15.18-.14,.02-.27,.07-.39,.16-5.65,.12-11.3,.23-16.95,.35,.23-2.7,.46-5.41,.69-8.11,.21-2.44,.36-4.88,0-7.3,5.39-.24,10.79-.33,16.19-.28Zm-.12,34.98s-.01,.04-.01,.06c-.49,3.07-.78,6.16-.82,9.27-.02,1.51,.02,3.03,.11,4.54,.04,.59,.05,1.2,.16,1.77-4.9-.33-9.8-.53-14.71-.58-.04-.02-.07-.05-.11-.07-.35-.17-.33-1.12-.38-1.46-.09-.65-.17-1.31-.25-1.96-.15-1.37-.26-2.75-.33-4.12-.13-2.58-.1-5.17,.05-7.75,5.42,.41,10.86,.51,16.29,.31Zm36.25-25.87c-.31,3.38-.56,6.77-.75,10.16-.39,6.78-.55,13.57-.48,20.37,.04,3.72,.14,7.44,.31,11.16-.13,.08-.22,.2-.28,.34-.3,0-.65-.02-.82-.02-.46,.02-.91,.03-1.37,.04-.91,.02-1.82,.03-2.74,.02-1.78-.02-3.56-.09-5.33-.21-1.77-.12-3.55-.3-5.31-.54-.33-.04-.72-.08-1.05,0,0,0,0-.02,0-.03,0-4.9,.19-9.79,.56-14.68,0-.09,0-.17-.02-.24,.88-.24,.81-1.71-.2-1.66-5.93,.28-11.81-1.29-17.74-.61-.07,0-.14,.02-.2,.05-.05,0-.11,0-.16,0-.02-.02-.03-.03-.05-.05,.13,.1,.04-.27,.04-.41,0-.37,.03-.74,.05-1.11,.03-.74,.07-1.49,.1-2.23l.2-4.46c.07-1.49,.13-2.97,.2-4.46,.03-.74,.07-1.49,.1-2.23,.02-.37,.03-.74,.05-1.11h0c2.84-.15,5.64,.09,8.47,.28,2.82,.19,5.67,.2,8.42-.59,.79-.23,.73-1.21,.2-1.55,.04-5.4,.39-10.8,1.05-16.17,.01-.09,0-.17,0-.24l9,.41,4.48,.2,2.24,.1c.35,.02,.75,.08,1.09,.03,.06-.01,.12-.03,.18-.05,.47,3.14,.03,6.34-.25,9.47Z"/></g></g></g></svg>