<?xml version="1.0" encoding="UTF-8"?><svg xmlns="http://www.w3.org/2000/svg" viewBox="0 0 74.95 102"><defs><style>.d{fill:#454545;}</style></defs><g id="a"/><g id="b"><g id="c"><g><path class="d" d="M72.64,17.02c-18.42,1.04-36.88,1.43-55.33,1.15-5.29-.08-10.58-.22-15.87-.41-1.59-.06-1.87,1.97-.84,2.72,2.77,18.63,4.61,37.4,5.49,56.22,.25,5.4,.43,10.81,.52,16.21,.02,1.05,.92,1.53,1.73,1.43,.12,.06,.26,.11,.42,.14,9.71,1.61,19.25,4.1,28.51,7.42,.6,.21,1.08,.04,1.4-.3,.29-.1,.56-.3,.76-.62,.45-.71,1.66-.94,2.41-1.22,1.03-.39,2.07-.77,3.11-1.14,2.08-.74,4.18-1.43,6.29-2.08,4.22-1.3,8.5-2.41,12.81-3.36,.88-.19,1.17-.93,1.04-1.62,.32-.24,.56-.6,.62-1.08,2.39-18.75,4.77-37.49,7.16-56.24,.68-5.37,1.37-10.73,2.05-16.1,.18-1.38-1.35-1.75-2.3-1.13Zm-7.86,57.36c-.68,5.34-1.36,10.69-2.04,16.03-4.6,1.03-9.15,2.24-13.64,3.66-2.26,.71-4.5,1.48-6.72,2.3-1.67,.61-3.71,1.09-4.98,2.41-9.04-3.2-18.34-5.61-27.81-7.18-.39-18.81-1.7-37.6-3.97-56.28-.59-4.84-1.25-9.67-1.96-14.49,17.93,.59,35.88,.57,53.81-.09,4.74-.18,9.48-.4,14.21-.67-2.31,18.1-4.61,36.21-6.92,54.31Z"/><path class="d" d="M60.15,33.15c-15.13-.35-30.27-.18-45.4,.49-.06-.05-.12-.1-.18-.13-.32-.19-.8-.27-1.16-.15-.86,.28-1.16,1.01-1.05,1.85,.33,2.42,.66,4.83,.99,7.25,.02,.17,.12,.34,.24,.49-.41,.88,.01,2.2,1.29,2.22,10.75,.15,21.51,.12,32.26-.1-.12,2.07-.1,4.15,.08,6.22-10.4,.55-20.81,.8-31.22,.74-1.3,0-1.72,1.34-1.27,2.23-.38,2.27-.28,4.6,.33,6.84,.09,.31,.29,.58,.54,.78,.22,.4,.63,.66,1.25,.6,9.73-.98,19.52-1.16,29.28-.56-.51,3.24-.78,6.51-.8,9.8-1.32,.09-2.59,.48-3.81,.99-.43,.18-.86,.36-1.29,.55-.09,.04-.18,.08-.27,.11l-.04,.02c-.18,.07-.36,.15-.54,.22-.36,.14-.72,.27-1.09,.39-.09,.03-.19,.05-.28,.08-.32-.11-.67-.12-.99-.04-2.87-.77-5.73-1.54-8.6-2.3-.08-.31-.16-.62-.22-.93-.03-.15-.05-.3-.08-.45v-.07c0-.06-.05-.27-.05-.32-.01-.13-.03-.27-.04-.4-.07-.81-.06-1.62,0-2.42,.33-.27,.55-.66,.53-1.12-.04-.79-.66-1.53-1.5-1.5-2.93,.11-5.87,.21-8.8,.32-.78,.03-1.54,.67-1.5,1.5,.02,.46,.25,.9,.6,1.19,.1,2.29,.21,4.58,.31,6.88,.06,1.25,.06,2.51,.18,3.76,.03,.29,.11,.57,.21,.84-.1,.67,.2,1.36,1.06,1.53,5.84,1.21,11.59,2.81,17.22,4.76,.25,.63,.86,1.08,1.7,.79,2.85-.99,5.71-1.98,8.56-2.96,1.37-.48,2.75-.95,4.12-1.43,1.32-.46,2.66-.94,4.07-1.02,.37-.02,.67-.16,.9-.36,.51-.2,.94-.63,1.01-1.32,1.35-14.42,2.9-28.82,4.65-43.2,.01-.09,0-.18,0-.26,.55-.87,.16-2.36-1.2-2.39Zm-6.34,44.62c-2.65,.37-5.19,1.48-7.69,2.34-2.61,.9-5.21,1.8-7.82,2.71-.08-.04-.16-.09-.26-.12-5.52-1.96-11.17-3.55-16.9-4.79-.09-.12-.2-.24-.33-.32v-.18c-.03-.52-.06-1.05-.08-1.57l-.14-3.01c-.08-1.69-.15-3.38-.23-5.07,1.55-.06,3.1-.11,4.65-.17-.07,1.84,.14,3.69,.64,5.45,.09,.32,.3,.59,.56,.79,.19,.3,.48,.54,.85,.63l10.39,2.78c.46,.12,.94,0,1.31-.27,.11-.03,.23-.07,.33-.1,.51-.16,1-.35,1.49-.55,.55-.22,1.09-.46,1.63-.69,.04-.02,.05-.02,.04-.02l.07-.03c.13-.06,.27-.11,.4-.16,.22-.09,.45-.17,.67-.25,.49-.17,.99-.32,1.49-.42,.02,0,.13-.02,.2-.04,.06,0,.21-.02,.23-.03,.28-.02,.57-.02,.85,0,.59,.03,1.16-.39,1.39-.93,.44-.22,.76-.64,.76-1.28-.02-3.54,.24-7.08,.83-10.58,.05-.27,.02-.54-.05-.79,.27-.85-.19-2.02-1.36-2.1-9.99-.71-20.01-.58-29.97,.38-.05-.26-.12-.51-.16-.77v-.06s-.01-.03-.01-.07c-.01-.15-.03-.31-.04-.46-.02-.29-.04-.57-.04-.86-.01-.57,.01-1.14,.07-1.71,0-.05,.03-.21,.03-.25,0-.06,.02-.13,.03-.19,10.22,.03,20.44-.23,30.65-.78,1-.05,1.48-.9,1.44-1.68,.33-.27,.56-.66,.52-1.11-.24-2.7-.22-5.42,.04-8.13,.08-.78-.75-1.53-1.5-1.5-.29,.01-.53,.11-.74,.23-10.6,.22-21.19,.26-31.79,.13,.02-.17,.02-.34,0-.52l-.69-5.04c14.24-.61,28.49-.78,42.74-.49-1.69,13.86-3.19,27.75-4.5,41.65Z"/><path class="d" d="M20,13.86c.19,.05,.37,.06,.54,.05,.1,.02,.19,.06,.29,.07,2.03,.18,4.05,.36,6.08,.54,.78,.07,1.53-.74,1.5-1.5-.04-.87-.66-1.43-1.5-1.5l-5.05-.44c.05-.42,.1-.83,.15-1.25l.3-2.44,.5-4.16c.53,0,1.06,0,1.58,.01,.57,.02,1.14,.06,1.71,.11,.27,.03,.55,.06,.82,.09,.06,0,.18,.02,.23,.03,.15,.02,.31,.05,.46,.07,.75,.12,1.46-.13,1.77-.87,.27-.65,.06-1.54-.61-1.87l-.19-.1c-.31-.15-.66-.21-.99-.16-2.21-.3-4.44-.4-6.67-.22-.78,.06-1.54,.65-1.5,1.5,.02,.38,.18,.77,.45,1.06l-.73,6.07-.19,1.56c-.06,.53-.19,1.07-.19,1.6,0,.76,.49,1.56,1.26,1.75Z"/><path class="d" d="M31.81,8.98c2.27,.03,4.54-.05,6.81-.24,.1,1.03,.1,2.07,0,3.1-2.05,.13-4.1,.27-6.14,.4-.78,.05-1.54,.65-1.5,1.5,.03,.77,.66,1.55,1.5,1.5l7.4-.48c.66-.04,1.3-.49,1.46-1.13,.05-.1,.09-.2,.1-.31,.33-2.03,.33-4.02,0-6.04-.06-.35-.4-.73-.69-.9-.21-.12-.48-.19-.74-.2-.27-.3-.64-.49-1.06-.46-1.7,.15-3.39,.21-5.1,.24,0-.13,.02-.25,.04-.38,.12-.79,.33-1.56,.62-2.31,1.9-.23,3.81-.31,5.73-.25,.79,.02,1.54-.71,1.5-1.5-.04-.83-.66-1.47-1.5-1.5-1.93-.06-3.86,.03-5.78,.26-.41,.05-.76,.13-1.06,.44-.09,.09-.16,.2-.23,.31-.26,0-.52,.05-.74,.19l-.3,.23c-.19,.19-.31,.41-.39,.66-.56,1.34-.85,2.79-.9,4.24-.33,.28-.54,.68-.52,1.12,.04,.82,.66,1.49,1.5,1.5Z"/><path class="d" d="M48.56,12.93l-3.94,.5c-.78,.1-1.54,.62-1.5,1.5,.03,.73,.67,1.61,1.5,1.5,2.42-.31,4.83-.61,7.25-.92,.83-.1,1.59-.17,2.08-.94,.42-.65,.19-1.57,.13-2.29l-.32-3.67c-.04-.43-.24-.86-.55-1.14-.16-.45-.49-.83-.98-.9-1.78-.28-3.58-.44-5.38-.45-.03-.67-.02-1.33,.05-1.99,.02-.12,.05-.24,.07-.36,1.89-.05,3.77,.03,5.64,.27,.35,.05,.82-.2,1.06-.44,.26-.26,.46-.69,.44-1.06-.02-.39-.14-.79-.44-1.06-.31-.29-.64-.39-1.06-.44-2.03-.26-4.07-.35-6.12-.26-.17,0-.33,.05-.49,.1-.75-.11-1.51,.3-1.72,1.06-.42,1.54-.57,3.17-.41,4.77-.22,.25-.37,.58-.35,.94,.03,.78,.66,1.54,1.5,1.5,1.11-.05,2.23-.06,3.34,0,.53,.03,1.07,.07,1.6,.12,.27,.03,.53,.06,.8,.09h.05c.05,.6,.1,1.2,.16,1.8,.04,.43,.07,.85,.11,1.28v.17l-.56,.07c-.66,.08-1.31,.17-1.97,.25Z"/></g></g></g></svg>