<?xml version="1.0" encoding="utf-8"?>
<!-- Generator: Adobe Illustrator 26.1.0, SVG Export Plug-In . SVG Version: 6.00 Build 0)  -->
<svg version="1.1" id="Capa_1" xmlns="http://www.w3.org/2000/svg" xmlns:xlink="http://www.w3.org/1999/xlink" x="0px" y="0px"
	 viewBox="0 0 70.9 100" style="enable-background:new 0 0 70.9 100;" xml:space="preserve">
<style type="text/css">
	.st0{fill:#454545;}
</style>
<g id="Capa_2_1_">
	<g id="Capa_1-2">
		<g id="CSS">
			<g id="Capa_1-2-2">
				<g id="Capa_2-2">
					<g id="Capa_1-2-2-2">
						<path class="st0" d="M0,19.6L6.4,92l29,8l29-8.1L71,19.6H0z M35.5,34.3h22.2l-1.6,18l-0.2,2.4l-2.1,23.4l-0.1,1.5l-18.2,5l0,0
							l-18.2-5L16,65.7h8.9l0.6,7.1l9.9,2.7l0,0l9.9-2.7l1-11.5H15.6l-0.8-8.9h32.3l0.9-9.1H35.5l0,0H14l-0.8-8.9L35.5,34.3"/>
						<path class="st0" d="M16.7,0h10.8v4.5h-6.3V9h6.3v4.5H16.7V0z"/>
						<path class="st0" d="M29.6,0h10.7v3.9h-6.2v0.8h6.2v9H29.6V9.6h6.3V8.8h-6.3C29.6,8.8,29.6,0,29.6,0z"/>
						<path class="st0" d="M42.5,0h10.8v3.9H47v0.8h6.3v9H42.5V9.6h6.3V8.8h-6.3V0z"/>
					</g>
				</g>
			</g>
		</g>
	</g>
</g>
</svg>
