<?xml version="1.0" encoding="utf-8"?>
<!-- Generator: Adobe Illustrator 26.1.0, SVG Export Plug-In . SVG Version: 6.00 Build 0)  -->
<svg version="1.1" id="Capa_1" xmlns="http://www.w3.org/2000/svg" xmlns:xlink="http://www.w3.org/1999/xlink" x="0px" y="0px"
	 viewBox="0 0 74.9 102" style="enable-background:new 0 0 74.9 102;" xml:space="preserve">
<style type="text/css">
	.st0{fill:#2965F1;}
</style>
<g id="a">
</g>
<g id="b">
	<g id="c">
		<g>
			<path class="st0" d="M72.6,17c-18.4,1-36.9,1.4-55.3,1.1C12,18.1,6.7,18,1.4,17.8c-1.6-0.1-1.9,2-0.8,2.7
				c2.8,18.6,4.6,37.4,5.5,56.2c0.2,5.4,0.4,10.8,0.5,16.2c0,1.1,0.9,1.5,1.7,1.4c0.1,0.1,0.3,0.1,0.4,0.1
				c9.7,1.6,19.2,4.1,28.5,7.4c0.6,0.2,1.1,0,1.4-0.3c0.3-0.1,0.6-0.3,0.8-0.6c0.5-0.7,1.7-0.9,2.4-1.2c1-0.4,2.1-0.8,3.1-1.1
				c2.1-0.7,4.2-1.4,6.3-2.1c4.2-1.3,8.5-2.4,12.8-3.4c0.9-0.2,1.2-0.9,1-1.6c0.3-0.2,0.6-0.6,0.6-1.1c2.4-18.8,4.8-37.5,7.2-56.2
				c0.7-5.4,1.4-10.7,2.1-16.1C75.1,16.8,73.6,16.4,72.6,17L72.6,17z M64.8,74.4c-0.7,5.3-1.4,10.7-2,16c-4.6,1-9.2,2.2-13.6,3.7
				c-2.3,0.7-4.5,1.5-6.7,2.3c-1.7,0.6-3.7,1.1-5,2.4c-9-3.2-18.3-5.6-27.8-7.2C9.2,72.8,7.9,54,5.6,35.3c-0.6-4.8-1.2-9.7-2-14.5
				c17.9,0.6,35.9,0.6,53.8-0.1c4.7-0.2,9.5-0.4,14.2-0.7C69.4,38.2,67.1,56.3,64.8,74.4L64.8,74.4z"/>
			<path class="st0" d="M60.2,33.2C45,32.8,29.9,33,14.8,33.6c-0.1,0-0.1-0.1-0.2-0.1c-0.3-0.2-0.8-0.3-1.2-0.2
				c-0.9,0.3-1.2,1-1.1,1.8c0.3,2.4,0.7,4.8,1,7.2c0,0.2,0.1,0.3,0.2,0.5c-0.4,0.9,0,2.2,1.3,2.2c10.8,0.2,21.5,0.1,32.3-0.1
				c-0.1,2.1-0.1,4.2,0.1,6.2C36.8,51.8,26.4,52.1,16,52c-1.3,0-1.7,1.3-1.3,2.2c-0.4,2.3-0.3,4.6,0.3,6.8c0.1,0.3,0.3,0.6,0.5,0.8
				c0.2,0.4,0.6,0.7,1.3,0.6c9.7-1,19.5-1.2,29.3-0.6c-0.5,3.2-0.8,6.5-0.8,9.8c-1.3,0.1-2.6,0.5-3.8,1c-0.4,0.2-0.9,0.4-1.3,0.6
				c-0.1,0-0.2,0.1-0.3,0.1l0,0c-0.2,0.1-0.4,0.2-0.5,0.2c-0.4,0.1-0.7,0.3-1.1,0.4c-0.1,0-0.2,0.1-0.3,0.1c-0.3-0.1-0.7-0.1-1,0
				c-2.9-0.8-5.7-1.5-8.6-2.3c-0.1-0.3-0.2-0.6-0.2-0.9c0-0.2,0-0.3-0.1-0.4v-0.1c0-0.1,0-0.3,0-0.3c0-0.1,0-0.3,0-0.4
				c-0.1-0.8-0.1-1.6,0-2.4c0.3-0.3,0.5-0.7,0.5-1.1c0-0.8-0.7-1.5-1.5-1.5c-2.9,0.1-5.9,0.2-8.8,0.3c-0.8,0-1.5,0.7-1.5,1.5
				c0,0.5,0.2,0.9,0.6,1.2c0.1,2.3,0.2,4.6,0.3,6.9c0.1,1.2,0.1,2.5,0.2,3.8c0,0.3,0.1,0.6,0.2,0.8c-0.1,0.7,0.2,1.4,1.1,1.5
				c5.8,1.2,11.6,2.8,17.2,4.8c0.2,0.6,0.9,1.1,1.7,0.8c2.8-1,5.7-2,8.6-3c1.4-0.5,2.8-0.9,4.1-1.4c1.3-0.5,2.7-0.9,4.1-1
				c0.4,0,0.7-0.2,0.9-0.4c0.5-0.2,0.9-0.6,1-1.3c1.3-14.4,2.9-28.8,4.7-43.2c0-0.1,0-0.2,0-0.3C61.9,34.7,61.5,33.2,60.2,33.2
				L60.2,33.2z M53.8,77.8c-2.7,0.4-5.2,1.5-7.7,2.3c-2.6,0.9-5.2,1.8-7.8,2.7c-0.1,0-0.2-0.1-0.3-0.1c-5.5-2-11.2-3.6-16.9-4.8
				c-0.1-0.1-0.2-0.2-0.3-0.3v-0.2c0-0.5-0.1-1.1-0.1-1.6l-0.1-3c-0.1-1.7-0.1-3.4-0.2-5.1c1.5-0.1,3.1-0.1,4.6-0.2
				c-0.1,1.8,0.1,3.7,0.6,5.4c0.1,0.3,0.3,0.6,0.6,0.8c0.2,0.3,0.5,0.5,0.9,0.6l10.4,2.8c0.5,0.1,0.9,0,1.3-0.3
				c0.1,0,0.2-0.1,0.3-0.1c0.5-0.2,1-0.3,1.5-0.6c0.5-0.2,1.1-0.5,1.6-0.7c0,0,0,0,0,0l0.1,0c0.1-0.1,0.3-0.1,0.4-0.2
				c0.2-0.1,0.5-0.2,0.7-0.2c0.5-0.2,1-0.3,1.5-0.4c0,0,0.1,0,0.2,0c0.1,0,0.2,0,0.2,0c0.3,0,0.6,0,0.8,0c0.6,0,1.2-0.4,1.4-0.9
				c0.4-0.2,0.8-0.6,0.8-1.3c0-3.5,0.2-7.1,0.8-10.6c0-0.3,0-0.5,0-0.8c0.3-0.8-0.2-2-1.4-2.1c-10-0.7-20-0.6-30,0.4
				c0-0.3-0.1-0.5-0.2-0.8v-0.1c0,0,0,0,0-0.1c0-0.2,0-0.3,0-0.5c0-0.3,0-0.6,0-0.9c0-0.6,0-1.1,0.1-1.7c0,0,0-0.2,0-0.2
				c0-0.1,0-0.1,0-0.2c10.2,0,20.4-0.2,30.6-0.8c1,0,1.5-0.9,1.4-1.7c0.3-0.3,0.6-0.7,0.5-1.1c-0.2-2.7-0.2-5.4,0-8.1
				c0.1-0.8-0.8-1.5-1.5-1.5c-0.3,0-0.5,0.1-0.7,0.2c-10.6,0.2-21.2,0.3-31.8,0.1c0-0.2,0-0.3,0-0.5l-0.7-5
				c14.2-0.6,28.5-0.8,42.7-0.5C56.6,50,55.1,63.9,53.8,77.8L53.8,77.8z"/>
			<path class="st0" d="M20,13.9c0.2,0.1,0.4,0.1,0.5,0.1c0.1,0,0.2,0.1,0.3,0.1c2,0.2,4,0.4,6.1,0.5c0.8,0.1,1.5-0.7,1.5-1.5
				c0-0.9-0.7-1.4-1.5-1.5l-5.1-0.4c0-0.4,0.1-0.8,0.1-1.2l0.3-2.4l0.5-4.2c0.5,0,1.1,0,1.6,0c0.6,0,1.1,0.1,1.7,0.1
				c0.3,0,0.5,0.1,0.8,0.1c0.1,0,0.2,0,0.2,0c0.1,0,0.3,0,0.5,0.1c0.8,0.1,1.5-0.1,1.8-0.9c0.3-0.7,0.1-1.5-0.6-1.9l-0.2-0.1
				c-0.3-0.1-0.7-0.2-1-0.2c-2.2-0.3-4.4-0.4-6.7-0.2c-0.8,0.1-1.5,0.6-1.5,1.5c0,0.4,0.2,0.8,0.5,1.1l-0.7,6.1l-0.2,1.6
				c-0.1,0.5-0.2,1.1-0.2,1.6C18.8,12.9,19.2,13.7,20,13.9L20,13.9z"/>
			<path class="st0" d="M31.8,9c2.3,0,4.5-0.1,6.8-0.2c0.1,1,0.1,2.1,0,3.1c-2,0.1-4.1,0.3-6.1,0.4c-0.8,0.1-1.5,0.6-1.5,1.5
				c0,0.8,0.7,1.6,1.5,1.5l7.4-0.5c0.7,0,1.3-0.5,1.5-1.1c0-0.1,0.1-0.2,0.1-0.3c0.3-2,0.3-4,0-6c-0.1-0.3-0.4-0.7-0.7-0.9
				c-0.2-0.1-0.5-0.2-0.7-0.2c-0.3-0.3-0.6-0.5-1.1-0.5c-1.7,0.2-3.4,0.2-5.1,0.2c0-0.1,0-0.2,0-0.4C34,4.8,34.2,4,34.5,3.3
				C36.4,3,38.3,3,40.2,3c0.8,0,1.5-0.7,1.5-1.5c0-0.8-0.7-1.5-1.5-1.5c-1.9-0.1-3.9,0-5.8,0.3c-0.4,0.1-0.8,0.1-1.1,0.4
				c-0.1,0.1-0.2,0.2-0.2,0.3c-0.3,0-0.5,0-0.7,0.2l-0.3,0.2c-0.2,0.2-0.3,0.4-0.4,0.7c-0.6,1.3-0.9,2.8-0.9,4.2
				c-0.3,0.3-0.5,0.7-0.5,1.1C30.4,8.3,31,9,31.8,9L31.8,9z"/>
			<path class="st0" d="M48.6,12.9l-3.9,0.5c-0.8,0.1-1.5,0.6-1.5,1.5c0,0.7,0.7,1.6,1.5,1.5c2.4-0.3,4.8-0.6,7.2-0.9
				c0.8-0.1,1.6-0.2,2.1-0.9c0.4-0.6,0.2-1.6,0.1-2.3l-0.3-3.7c0-0.4-0.2-0.9-0.5-1.1c-0.2-0.4-0.5-0.8-1-0.9
				c-1.8-0.3-3.6-0.4-5.4-0.4c0-0.7,0-1.3,0-2c0-0.1,0-0.2,0.1-0.4c1.9,0,3.8,0,5.6,0.3c0.3,0.1,0.8-0.2,1.1-0.4
				c0.3-0.3,0.5-0.7,0.4-1.1c0-0.4-0.1-0.8-0.4-1.1C53.4,1.2,53,1.1,52.6,1c-2-0.3-4.1-0.4-6.1-0.3c-0.2,0-0.3,0.1-0.5,0.1
				c-0.8-0.1-1.5,0.3-1.7,1.1c-0.4,1.5-0.6,3.2-0.4,4.8c-0.2,0.2-0.4,0.6-0.3,0.9c0,0.8,0.7,1.5,1.5,1.5c1.1-0.1,2.2-0.1,3.3,0
				c0.5,0,1.1,0.1,1.6,0.1c0.3,0,0.5,0.1,0.8,0.1h0c0,0.6,0.1,1.2,0.2,1.8c0,0.4,0.1,0.9,0.1,1.3v0.2l-0.6,0.1
				C49.9,12.8,49.2,12.9,48.6,12.9L48.6,12.9z"/>
		</g>
	</g>
</g>
</svg>
