<?xml version="1.0" encoding="UTF-8"?><svg xmlns="http://www.w3.org/2000/svg" viewBox="0 0 35 50"><defs><style>.i{fill:#454545;}</style></defs><g id="a"/><g id="b"><g id="c"><g id="d"><g id="e"><g id="f"><g id="g"><g id="h"><path class="i" d="M0,3V47c0,1.66,1.34,3,3,3h29c1.66,0,3-1.34,3-3V3c0-1.66-1.34-3-3-3H3C1.34,0,0,1.34,0,3Zm3.55,2.15H11.55v8H3.55V5.15Zm5.08,36.85c.5,.69,1.33,1.07,2.18,1,.72,.05,1.43-.16,2-.61,.48-.51,.75-1.19,.75-1.9h2.91c-.04,1.37-.65,2.67-1.68,3.58-1.13,.91-2.55,1.37-4,1.3-1.62,.09-3.18-.56-4.26-1.77-1.09-1.43-1.64-3.2-1.53-5v-.86c-.03-1.23,.22-2.45,.72-3.58,.41-.97,1.11-1.8,2-2.37,.95-.55,2.03-.83,3.13-.79,1.42-.07,2.82,.4,3.92,1.31,1.04,.95,1.66,2.28,1.72,3.69h-2.9c0-.74-.26-1.45-.75-2-.56-.45-1.28-.67-2-.61-.85-.07-1.67,.31-2.17,1-.55,.98-.81,2.1-.74,3.22v1.09c-.07,1.14,.17,2.28,.7,3.3Zm16.47,3.27h-3l-4.91-14.08h3.22l3.17,10.59,3.19-10.59h3.23l-4.9,14.08Zm4.9-21.12H5c-.55,0-1-.45-1-1s.45-1,1-1H30c.55,0,1,.45,1,1s-.45,1-1,1Zm0-5H5c-.55,0-1-.45-1-1s.45-1,1-1H30c.55,0,1,.45,1,1s-.45,1-1,1Zm0-9h-13.51c-.55,0-1-.45-1-1s.45-1,1-1h13.51c.55,0,1,.45,1,1s-.45,1-1,1Z"/></g></g></g></g></g></g></g></svg>