<?xml version="1.0" encoding="utf-8"?>
<!-- Generator: Adobe Illustrator 26.1.0, SVG Export Plug-In . SVG Version: 6.00 Build 0)  -->
<svg version="1.1" id="Capa_1" xmlns="http://www.w3.org/2000/svg" xmlns:xlink="http://www.w3.org/1999/xlink" x="0px" y="0px"
	 viewBox="0 0 66.7 100" style="enable-background:new 0 0 66.7 100;" xml:space="preserve">
<style type="text/css">
	.st0{fill:#454545;}
</style>
<g id="a">
</g>
<g id="b">
	<g id="c">
		<g>
			<path class="st0" d="M16.7,100c9.2,0,16.7-7.5,16.7-16.7V66.7H16.7C7.5,66.7,0,74.1,0,83.3S7.5,100,16.7,100z"/>
			<path class="st0" d="M0,50c0-9.2,7.5-16.7,16.7-16.7h16.7v33.3H16.7C7.5,66.7,0,59.2,0,50z"/>
			<path class="st0" d="M0,16.7C0,7.5,7.5,0,16.7,0h16.7v33.3H16.7C7.5,33.3,0,25.9,0,16.7z"/>
			<path class="st0" d="M33.3,0H50c9.2,0,16.7,7.5,16.7,16.7S59.2,33.3,50,33.3H33.3V0z"/>
			<path class="st0" d="M66.7,50c0,9.2-7.5,16.7-16.7,16.7S33.3,59.2,33.3,50S40.8,33.3,50,33.3S66.7,40.8,66.7,50z"/>
		</g>
	</g>
</g>
</svg>
