<?xml version="1.0" encoding="UTF-8"?><svg xmlns="http://www.w3.org/2000/svg" viewBox="0 0 68.76 100.4"><defs><style>.d{fill:#454545;}</style></defs><g id="a"/><g id="b"><g id="c"><g><path class="d" d="M66.82,43.33c-3.09-5.96-9.47-9.54-16.18-8.76-6.56,.76-12.31,5.1-14.05,11.6-.96,3.59-.69,7.5,.75,10.92,.71,1.68,1.69,3.23,2.95,4.56,1.14,1.21,2.49,2.21,3.58,3.46-.06,.49,.15,.99,.77,1.27,.12,.05,.25,.1,.37,.15,.24,.19,.5,.29,.78,.31,6.66,2.45,14.38,.78,19.03-4.79,4.44-5.32,5.21-12.57,2.02-18.72Zm-2.71,14.48c-3.39,6.06-10.83,8.75-17.29,6.25-1.68-2.25-4.16-3.77-5.69-6.15-1.48-2.29-2.17-5-2.11-7.71,.12-5.65,3.76-10.41,9.15-12.08,5.3-1.63,10.97-.12,14.47,4.25,3.5,4.37,4.22,10.52,1.47,15.44Z"/><path class="d" d="M14.25,67.96c6.16,1.36,12.33-1.14,18.49-.17,.78,.12,1.37-.3,1.67-.85,.21-.24,.35-.56,.34-.97l-.73-29.01c-.02-.92-.72-1.4-1.44-1.44-.31-.5-.88-.86-1.61-.72-5.45,1.04-11.18,.34-16.49,2.14-4.46,1.51-8.28,4.8-10.31,9.07-2.04,4.28-2.13,9.07-.18,13.39,1.91,4.22,5.72,7.56,10.28,8.56Zm-7.92-19.46c1.44-3.94,4.77-7.21,8.73-8.6,5.11-1.79,10.68-1.22,15.98-2.09,.23,8.96,.45,17.92,.68,26.88-4.3-.29-8.52,.66-12.84,.7-4.46,.05-8.54-1.52-11.09-5.32-2.31-3.45-2.89-7.66-1.45-11.57Z"/><path class="d" d="M34.83,88.44c.03-.18,.03-.37,0-.58-1.11-5.65-1.19-11.51-.21-17.19,.14-.8-.21-1.62-1.05-1.85-.41-.11-.9-.01-1.27,.24-.24-.26-.59-.44-1.06-.43-6.12,.08-12.25,.1-18.37,.04-.37,0-.67,.11-.9,.29-4.27,.59-7.59,4.4-9.39,8.11-1.86,3.83-2.57,8.32-1.43,12.48,2.46,9.02,12.9,12.71,21.26,9.95,5.11-1.69,9.27-5.22,12.46-9.48,.44-.59,.34-1.17-.03-1.58Zm-22.09,8.49c-3.47-.92-6.55-3.13-8.08-6.43-1.44-3.11-1.32-6.75-.28-9.95,1.14-3.52,4.19-8.46,8.32-8.66,.28-.01,.51-.09,.71-.21,5.94,.05,11.88,.04,17.82-.04,.08,0,.16-.01,.23-.03-.79,5.68-.64,11.41,.46,17.05,.01,.07,.04,.13,.06,.19-4.5,5.79-11.76,10.07-19.25,8.08Z"/><path class="d" d="M55.13,33.4c6.67,.65,11.68-5.21,12.95-11.42,1.35-6.64,.39-15.01-5.31-19.42-2.87-2.21-6.63-3.21-10.15-2.12-.09,.03-.17,.07-.25,.11-11.23,1.08-22.53,1.07-33.75-.03-3.35-1.39-7.26,.48-10.21,2.17C4.98,4.64,2.42,7.42,1.04,11.12c-2.66,7.09-.05,14.92,5.95,19.37,3.46,2.57,7.83,3.88,12.13,3.72,.28-.01,.52-.09,.71-.21,11.41-.18,22.81-.24,34.22-.15,.48,0,.83-.18,1.08-.45Zm7.02-27.36c2.43,2.6,3.32,6.37,3.43,9.83,.11,3.5-.39,7.19-2.26,10.22-1.77,2.85-5.16,4.96-8.59,4.24-.64-.13-1.16,.12-1.48,.52-5.49-.04-10.98-.04-16.46-.02-.11-.26-.31-.51-.63-.69-.23-.14-.22-2.14-.26-2.6-.1-1.13-.18-2.26-.25-3.39-.12-2.18-.18-4.36-.18-6.54,0-2.18,.08-4.36,.21-6.54,.07-1.13,.16-2.26,.26-3.38,.08-.82-.06-2.25,.52-2.88,.14-.15,.23-.31,.3-.46,5.29-.03,10.58-.3,15.86-.81,.18-.02,.33-.07,.48-.13,.1-.01,.2-.03,.31-.06,3.18-.99,6.52,.33,8.74,2.7ZM4.19,22.61c-2.44-5.23-1.11-12.12,3.41-15.79,1.57-1.27,3.5-2.32,5.37-3.07,1.3-.52,2.73-.91,4.05-.58,.2,.14,.43,.23,.71,.27,.15,.07,.3,.14,.44,.24,.6,.4,1.18,.29,1.59-.05,4.54,.42,9.09,.65,13.65,.71-.57,1.65-.5,3.67-.62,5.29-.21,2.82-.32,5.65-.31,8.48,0,2.75,.11,5.5,.33,8.24,.1,1.28,.02,3.09,.48,4.52-5.22,.03-10.44,.08-15.65,.17-.22,0-.41,.05-.58,.12-5.37-.48-10.51-3.55-12.85-8.54Z"/></g></g></g></svg>