<?xml version="1.0" encoding="utf-8"?>
<!-- Generator: Adobe Illustrator 26.1.0, SVG Export Plug-In . SVG Version: 6.00 Build 0)  -->
<svg version="1.1" id="Capa_1" xmlns="http://www.w3.org/2000/svg" xmlns:xlink="http://www.w3.org/1999/xlink" x="0px" y="0px"
	 viewBox="0 0 68.8 100.4" style="enable-background:new 0 0 68.8 100.4;" xml:space="preserve">
<style type="text/css">
	.st0{fill:#00C7FD;}
	.st1{fill:#B673FC;}
	.st2{fill:#00D598;}
	.st3{fill:url(#SVGID_1_);}
</style>
<g id="a">
</g>
<g id="b">
	<g id="c">
		<g>
			<path class="st0" d="M66.8,43.3c-3.1-6-9.5-9.5-16.2-8.8c-6.6,0.8-12.3,5.1-14,11.6c-1,3.6-0.7,7.5,0.8,10.9
				c0.7,1.7,1.7,3.2,3,4.6c1.1,1.2,2.5,2.2,3.6,3.5c-0.1,0.5,0.2,1,0.8,1.3c0.1,0.1,0.2,0.1,0.4,0.2c0.2,0.2,0.5,0.3,0.8,0.3
				c6.7,2.4,14.4,0.8,19-4.8C69.3,56.7,70,49.5,66.8,43.3L66.8,43.3z M64.1,57.8c-3.4,6.1-10.8,8.7-17.3,6.2
				c-1.7-2.2-4.2-3.8-5.7-6.2c-1.5-2.3-2.2-5-2.1-7.7c0.1-5.7,3.8-10.4,9.1-12.1c5.3-1.6,11-0.1,14.5,4.2S66.9,52.9,64.1,57.8z"/>
			<path class="st1" d="M14.2,68c6.2,1.4,12.3-1.1,18.5-0.2c0.8,0.1,1.4-0.3,1.7-0.8c0.2-0.2,0.3-0.6,0.3-1L34,37
				c0-0.9-0.7-1.4-1.4-1.4c-0.3-0.5-0.9-0.9-1.6-0.7c-5.5,1-11.2,0.3-16.5,2.1C10,38.4,6.2,41.7,4.2,46C2.1,50.3,2,55.1,4,59.4
				C5.9,63.6,9.7,67,14.2,68L14.2,68z M6.3,48.5c1.4-3.9,4.8-7.2,8.7-8.6c5.1-1.8,10.7-1.2,16-2.1c0.2,9,0.5,17.9,0.7,26.9
				c-4.3-0.3-8.5,0.7-12.8,0.7c-4.5,0.1-8.5-1.5-11.1-5.3C5.5,56.6,4.9,52.4,6.3,48.5L6.3,48.5z"/>
			<path class="st2" d="M34.8,88.4c0-0.2,0-0.4,0-0.6c-1.1-5.7-1.2-11.5-0.2-17.2c0.1-0.8-0.2-1.6-1-1.8c-0.4-0.1-0.9,0-1.3,0.2
				c-0.2-0.3-0.6-0.4-1.1-0.4c-6.1,0.1-12.2,0.1-18.4,0c-0.4,0-0.7,0.1-0.9,0.3c-4.3,0.6-7.6,4.4-9.4,8.1C0.7,80.9,0,85.4,1.2,89.6
				c2.5,9,12.9,12.7,21.3,9.9c5.1-1.7,9.3-5.2,12.5-9.5C35.3,89.4,35.2,88.9,34.8,88.4L34.8,88.4z M12.7,96.9
				c-3.5-0.9-6.6-3.1-8.1-6.4c-1.4-3.1-1.3-6.8-0.3-9.9c1.1-3.5,4.2-8.5,8.3-8.7c0.3,0,0.5-0.1,0.7-0.2c5.9,0.1,11.9,0,17.8,0
				c0.1,0,0.2,0,0.2,0c-0.8,5.7-0.6,11.4,0.5,17.1c0,0.1,0,0.1,0.1,0.2C27.5,94.6,20.2,98.9,12.7,96.9L12.7,96.9z"/>
			<linearGradient id="SVGID_1_" gradientUnits="userSpaceOnUse" x1="5.708923e-04" y1="17.1098" x2="68.6219" y2="17.1098">
				<stop  offset="5.332341e-03" style="stop-color:#FB672C"/>
				<stop  offset="1" style="stop-color:#FF8A76"/>
			</linearGradient>
			<path class="st3" d="M55.1,33.4c6.7,0.7,11.7-5.2,13-11.4c1.3-6.6,0.4-15-5.3-19.4c-2.9-2.2-6.6-3.2-10.1-2.1
				c-0.1,0-0.2,0.1-0.2,0.1c-11.2,1.1-22.5,1.1-33.8,0C15.3-0.9,11.4,1,8.4,2.7C5,4.6,2.4,7.4,1,11.1C-1.6,18.2,1,26,7,30.5
				c3.5,2.6,7.8,3.9,12.1,3.7c0.3,0,0.5-0.1,0.7-0.2c11.4-0.2,22.8-0.2,34.2-0.2C54.5,33.9,54.9,33.7,55.1,33.4z M62.2,6
				c2.4,2.6,3.3,6.4,3.4,9.8c0.1,3.5-0.4,7.2-2.3,10.2c-1.8,2.9-5.2,5-8.6,4.2c-0.6-0.1-1.2,0.1-1.5,0.5c-5.5,0-11,0-16.5,0
				c-0.1-0.3-0.3-0.5-0.6-0.7c-0.2-0.1-0.2-2.1-0.3-2.6c-0.1-1.1-0.2-2.3-0.2-3.4c-0.1-2.2-0.2-4.4-0.2-6.5s0.1-4.4,0.2-6.5
				c0.1-1.1,0.2-2.3,0.3-3.4c0.1-0.8-0.1-2.2,0.5-2.9c0.1-0.2,0.2-0.3,0.3-0.5c5.3,0,10.6-0.3,15.9-0.8c0.2,0,0.3-0.1,0.5-0.1
				c0.1,0,0.2,0,0.3-0.1C56.6,2.4,59.9,3.7,62.2,6L62.2,6z M4.2,22.6C1.8,17.4,3.1,10.5,7.6,6.8c1.6-1.3,3.5-2.3,5.4-3.1
				c1.3-0.5,2.7-0.9,4.1-0.6c0.2,0.1,0.4,0.2,0.7,0.3c0.1,0.1,0.3,0.1,0.4,0.2c0.6,0.4,1.2,0.3,1.6,0c4.5,0.4,9.1,0.6,13.6,0.7
				C32.8,6,32.9,8,32.8,9.6c-0.2,2.8-0.3,5.6-0.3,8.5c0,2.8,0.1,5.5,0.3,8.2c0.1,1.3,0,3.1,0.5,4.5c-5.2,0-10.4,0.1-15.6,0.2
				c-0.2,0-0.4,0-0.6,0.1C11.7,30.7,6.6,27.6,4.2,22.6L4.2,22.6z"/>
		</g>
	</g>
</g>
</svg>
