<?xml version="1.0" encoding="utf-8"?>
<!-- Generator: Adobe Illustrator 26.1.0, SVG Export Plug-In . SVG Version: 6.00 Build 0)  -->
<svg version="1.1" id="Capa_1" xmlns="http://www.w3.org/2000/svg" xmlns:xlink="http://www.w3.org/1999/xlink" x="0px" y="0px"
	 viewBox="0 0 101 100.4" style="enable-background:new 0 0 101 100.4;" xml:space="preserve">
<style type="text/css">
	.st0{fill:#F96944;}
</style>
<g id="a">
</g>
<g id="b">
	<g id="c">
		<path class="st0" d="M100.8,50.3c-0.3-1.5-1.1-2.9-2-4.1c-0.9-1.3-2-2.6-3.2-3.8c-0.3-0.3-0.7-0.5-1.1-0.4
			C82,29.2,69.5,16.4,57,3.6c-0.1-0.1-0.2-0.2-0.3-0.2c-1.6-1.8-3.7-3.1-6-3.3c-2-0.2-4,0.5-5.3,1.9c-0.2,0-0.5,0.1-0.7,0.2
			c-3.1,2.4-6,5-8.7,7.9c-0.1,0.1-0.2,0.1-0.3,0.2c-0.2,0.2-0.3,0.5-0.4,0.8c-0.2,0.5-0.1,1.1,0.3,1.5c0.2,0.1,0.4,0.3,0.6,0.3
			c3.9,3.2,7.4,7,10.3,11.1c0.3,0.5,0.9,0.8,1.5,0.7c0.3,0,0.6,0,0.9-0.2c-0.2,0.1,0.2-0.1,0.2-0.1c0.1,0,0.2-0.1,0.4-0.1
			c0,0,0.2,0,0.3,0c0.1,0,0.2,0,0.4,0c0.3,0,0.5,0,0.8,0c0.1,0,0.3,0,0.3,0c0.2,0,0.3,0.1,0.5,0.1c0.5,0.1,1.1,0.3,1.6,0.4
			c0.1,0,0.3,0.1,0.4,0.1c0,0,0.1,0,0.1,0c0,0,0,0,0.1,0c0,0,0.1,0.1,0.2,0.1c0,0,0.2,0.2,0.2,0.2c0,0,0,0,0,0c0,0,0,0,0,0.1
			c0.1,0.1,0.1,0.2,0.2,0.4c0,0,0.1,0.3,0.1,0.2c0,0.1,0.1,0.1,0.1,0.2c0.2,0.6,0.5,1.2,0.6,1.8c0.1,0.3,0.2,0.6,0.2,0.9
			c0,0.2,0.1,0.3,0.1,0.5c0,0,0,0.1,0,0.2c0,0.3,0,0.6,0,0.9c0,0,0,0.3,0,0.3c0,0.1-0.1,0.3-0.1,0.4c-0.1,0.3-0.1,0.6,0,0.9
			c-0.2,0.5-0.1,1,0.4,1.4c3.7,3.5,7.1,7.2,10.3,11.2c0.3,0.4,0.8,0.5,1.2,0.4c0.6,0.5,1.5,0.4,2-0.1c0.1-0.1,0.2-0.3,0.3-0.4
			c0.1,0,0.2,0.1,0.4,0.1c0.5,0.2,0.9,0.3,1.4,0.6c0.9,0.5,1.8,1,2.6,1.8c1.3,1.3,2.2,3.2,2,5.1c-0.3,1.9-1.6,3.4-3.3,4.2
			c-0.9,0.5-1.9,0.7-2.9,0.8c-0.9,0.1-2.1,0.1-2.8-0.4c-0.9-0.6-1.3-1.8-1.6-2.8c-0.4-1.3-0.5-2.6-0.4-4c0-0.4-0.2-0.8-0.5-1.1
			c0.1-0.4,0.1-0.8-0.2-1.1c-2.3-3.4-5-6.5-8-9.4c-0.5-0.5-1.5-0.6-2-0.1c-0.9-0.2-1.9,0.2-2,1.4c-0.2,8.2-0.4,16.3-0.7,24.4
			c-0.1,0.2-0.1,0.5,0,0.8c0.1,0.7,0.6,1.1,1.2,1.2c0.1,0,0.1,0,0.2,0c0,0,0,0,0.1,0c0,0,0.1,0,0.2,0c0.1,0,0.2,0,0.2,0
			c0,0,0.1,0.1,0.2,0.1c0.2,0.1,0.3,0.2,0.4,0.4c0.3,0.3,0.6,0.7,0.8,1.1c0.5,0.8,0.7,1.7,0.9,2.6c0.3,1.9,0.3,4.5-1.6,5.5
			c-1.1,0.6-2.4,0.8-3.6,1C49.6,77,48.2,77,47,76.8c-1.2-0.2-1.7-0.9-2.2-1.9c-0.6-1.1-1.1-2.2-1.1-3.4c0-2.2,1.7-3.9,3.5-5.1
			c0.8,0.1,1.8-0.3,1.8-1.4c0.2-9.1,0.1-18.2-0.2-27.3c0-0.5-0.3-0.9-0.6-1.2c0-0.7-0.3-1.5-1.1-1.6c-0.9-0.2-1.8-0.4-2.7-0.7
			c-0.1,0-0.1-0.1-0.2-0.1c0,0-0.2-0.1-0.2-0.1c-0.2-0.1-0.4-0.2-0.5-0.3c-0.1-0.1-0.2-0.1-0.3-0.2l0,0c0,0,0,0,0,0
			c-0.2-0.2-0.3-0.3-0.5-0.5l0,0v0c-0.1-0.1-0.1-0.2-0.2-0.3c0,0-0.1-0.2-0.1-0.2c0-0.1-0.1-0.2-0.1-0.3c0-0.1-0.1-0.2-0.1-0.3
			c0,0,0,0,0-0.1c0,0,0,0,0-0.1c0-0.3,0-0.5,0-0.8c0,0,0-0.1,0-0.2c0-0.1,0-0.2,0.1-0.4c0.1-0.3,0.1-0.5,0.2-0.8
			c0-0.1,0.1-0.2,0.1-0.3c0,0,0-0.1,0-0.1c0,0,0,0,0-0.1c0.1-0.3,0.2-0.5,0.4-0.8c0.1-0.2,0.2-0.5,0.2-0.8c0.1-0.5-0.1-0.9-0.4-1.3
			c-3.2-3.2-6.4-6.4-9.5-9.6c0,0-0.1-0.1-0.1-0.1c-0.5-0.7-1.5-1.1-2.3-0.3c-8.3,9.2-17.3,17.8-26.9,25.6c-0.1,0-0.2,0-0.2,0.1
			c-1.3,0.7-2.1,2.1-2.7,3.4c-0.6,1.4-1,2.9-1,4.5c0,2.5,1.2,5.1,3.4,6.4C16.8,69,29.5,82.3,41.5,96.1c0,0.1,0.1,0.1,0.1,0.1
			c1.9,2.4,4.2,4.6,7.5,4.1c2.7-0.4,5.4-1.9,7.5-3.7c0.4,0.1,0.8-0.1,1.2-0.4c13.1-12.7,26.1-25.4,39.2-38c0.1-0.1,0.2-0.2,0.2-0.3
			C99.6,56.1,101.5,53.6,100.8,50.3L100.8,50.3z M95.5,55.4c-0.2,0.1-0.3,0.3-0.4,0.4c-0.1,0.1-0.2,0.1-0.3,0.2
			c-12.7,12.3-25.4,24.7-38.1,37c-0.4,0-0.8,0.1-1.1,0.4c-1.8,1.8-4,3.2-6.5,3.8c-2.6,0.6-4.5-1.9-5.8-3.8c-0.2-0.2-0.4-0.4-0.6-0.5
			C31.1,79.7,18.9,67,6.1,55c-0.1-0.3-0.3-0.6-0.6-0.7c-0.8-0.4-1.4-0.9-1.8-1.6C3.2,51.8,3,50.9,3,50.1c0-1,0.2-2,0.6-3
			c0.3-0.8,0.8-1.8,1.5-2.2c0.2-0.1,0.4-0.2,0.6-0.3C15,37,23.8,28.7,31.9,19.8c2.7,2.7,5.4,5.4,8.1,8.1c-1,2.2-1.3,4.8,0.2,6.8
			c1.3,1.8,3.5,2.6,5.6,3C46,46.3,46.1,55,46,63.6c-2.7,1.7-5,4.1-5.3,7.4c-0.2,1.8,0.5,3.4,1.3,5c0.8,1.5,1.7,2.9,3.4,3.4
			c1.7,0.6,3.7,0.5,5.5,0.3c1.8-0.2,3.7-0.6,5.2-1.4c2.9-1.6,3.4-5.2,3-8.2c-0.2-1.7-0.7-3.3-1.8-4.7c-0.6-0.8-1.4-1.7-2.4-2.1
			c0.2-7.2,0.4-14.5,0.6-21.7c1,1,2,2.1,3,3.2c1.3,1.5,2.3,2.8,3.4,4.5c0.1,0.1,0.2,0.2,0.3,0.3c0,0.1,0,0.2-0.1,0.3
			c-0.2,3.1,0.5,7.3,3.2,9.3c1.3,0.9,3.1,1,4.6,0.9c1.7-0.1,3.3-0.5,4.8-1.4c2.6-1.5,4.5-4.3,4.5-7.3c0-3.2-1.9-6.1-4.5-7.9
			c-1.4-1-3.1-1.7-4.7-2.1c-0.8-0.2-1.5-0.1-2.1,0.3c-2.9-3.5-6-6.8-9.2-10c0.3-1.5,0.1-3-0.3-4.5c-0.2-0.7-0.5-1.4-0.8-2.1
			c-0.3-0.7-0.6-1.4-1.2-2c-1-1-2.7-1.4-4-1.6c-1.3-0.3-2.5-0.3-3.8,0c-2.8-3.8-5.9-7.3-9.5-10.4c0.9-1,1.9-2,2.9-2.9
			c1.2-1.1,2.6-2.3,3.8-3.2c0.6,0.1,1.1-0.2,1.5-0.7c0,0,0.1-0.1,0.1-0.2c0,0,0.1-0.1,0.1-0.1c0.1-0.1,0.3-0.3,0.4-0.4
			c0,0,0,0,0.1,0c0.1-0.1,0.2-0.1,0.3-0.2c0.1,0,0.2-0.1,0.2-0.1c0,0,0,0,0,0c0,0,0,0,0.1,0c0.2-0.1,0.4-0.1,0.6-0.2
			c0.1,0,0.2,0,0.3-0.1c0,0,0,0,0,0h0.1c0.2,0,0.4,0,0.7,0c0.1,0,0.2,0,0.3,0c0,0,0.1,0,0.2,0c0.4,0.1,0.8,0.2,1.2,0.3
			c0.1,0,0,0,0.2,0.1c0.1,0,0.2,0.1,0.3,0.2c0.2,0.1,0.4,0.2,0.6,0.4c0.4,0.3,0.6,0.4,1,0.8c0.4,0.3,0.7,0.7,1.1,1.1
			C55,6,55.1,6.1,55.3,6.2C68.2,19.3,81,32.4,93.9,45.5c0.3,0.3,0.7,0.5,1.1,0.4c1.2,1.3,2.3,2.8,2.8,4.5
			C98.4,52.5,97.1,54.2,95.5,55.4L95.5,55.4z"/>
	</g>
</g>
</svg>
