<?xml version="1.0" encoding="UTF-8"?><svg xmlns="http://www.w3.org/2000/svg" viewBox="0 0 100.96 100.43"><defs><style>.d{fill:#454545;}</style></defs><g id="a"/><g id="b"><g id="c"><path class="d" d="M100.83,50.31c-.29-1.51-1.1-2.9-1.97-4.14-.95-1.35-2-2.61-3.15-3.79-.35-.35-.74-.47-1.12-.44-12.54-12.77-25.08-25.55-37.62-38.32-.1-.1-.21-.18-.31-.25-1.59-1.75-3.65-3.08-6.04-3.34-1.95-.21-3.96,.49-5.32,1.87-.23,0-.45,.07-.65,.22-3.13,2.38-6.04,5.01-8.68,7.91-.09,.06-.18,.13-.27,.21-.2,.2-.34,.48-.4,.77-.15,.51-.07,1.08,.35,1.47,.17,.15,.37,.27,.59,.34,3.89,3.24,7.37,6.97,10.26,11.13,.35,.49,.91,.79,1.48,.73,.3,.03,.62-.03,.94-.16-.22,.1,.21-.06,.21-.06,.12-.03,.24-.06,.36-.08,.01,0,.24-.03,.28-.04,.13,0,.25-.01,.38,0,.26,0,.53,.02,.79,.05,.07,.01,.27,.04,.27,.04,.15,.03,.31,.06,.46,.09,.55,.12,1.09,.27,1.63,.42,.13,.04,.26,.08,.4,.13,.05,.01,.07,.02,.09,.02,.02,.01,.03,.02,.06,.04,.02,0,.12,.07,.18,.11,.04,.05,.18,.17,.21,.2,0,0,0,0,.01,0,0,.01,0,.03,.03,.07,.06,.12,.13,.23,.2,.36,0,.02,.12,.27,.11,.24,.03,.08,.06,.15,.09,.23,.23,.59,.46,1.18,.64,1.78,.09,.29,.17,.58,.24,.87,.04,.16,.07,.32,.1,.48,0,.04,.02,.14,.03,.19,.03,.31,.04,.61,.03,.92,0,.04-.03,.26-.03,.3-.03,.14-.06,.27-.09,.4-.07,.28-.06,.58,.03,.86-.15,.46-.07,.97,.39,1.41,3.67,3.51,7.12,7.25,10.33,11.19,.29,.36,.76,.47,1.22,.42,.55,.47,1.49,.37,1.98-.13,.14-.14,.23-.29,.3-.44,.12,.04,.24,.07,.36,.11,.47,.16,.94,.35,1.38,.57,.94,.46,1.81,1.03,2.55,1.76,1.33,1.31,2.24,3.2,1.97,5.1-.27,1.88-1.63,3.41-3.28,4.25-.89,.45-1.91,.7-2.9,.76-.88,.06-2.06,.13-2.84-.36-.9-.57-1.3-1.83-1.58-2.8-.38-1.32-.48-2.64-.38-4,.03-.43-.18-.82-.5-1.1,.1-.36,.07-.75-.16-1.08-2.33-3.38-4.98-6.53-7.96-9.36-.54-.51-1.45-.59-2.02-.08-.86-.22-1.94,.24-1.97,1.39-.22,8.15-.43,16.29-.65,24.44-.07,.25-.07,.52,0,.78,.09,.7,.63,1.09,1.23,1.17,.06,0,.11,.01,.17,.01,.03,0,.05,0,.08,0,.05,0,.11,0,.17-.01,.08,0,.15-.02,.22-.04,.03,.03,.1,.07,.2,.14,.15,.11,.29,.23,.43,.36,.34,.33,.61,.69,.84,1.1,.45,.8,.72,1.71,.86,2.62,.27,1.88,.28,4.51-1.63,5.5-1.07,.56-2.4,.8-3.59,.97-1.24,.17-2.62,.26-3.86,.06-1.18-.18-1.72-.86-2.25-1.88-.56-1.07-1.13-2.19-1.11-3.43,.05-2.24,1.74-3.92,3.53-5.12,.83,.14,1.79-.33,1.81-1.42,.15-9.1,.07-18.2-.24-27.3-.02-.54-.27-.92-.62-1.16,.04-.69-.35-1.45-1.08-1.59-.9-.18-1.79-.37-2.65-.68-.07-.03-.14-.06-.22-.08-.03-.02-.19-.09-.22-.1-.18-.09-.36-.18-.53-.29-.1-.06-.2-.13-.3-.2l-.03-.02s-.02-.02-.03-.03c-.16-.15-.3-.3-.45-.46,0,0,0,0,0,0v-.02c-.08-.1-.14-.2-.2-.31-.01-.02-.07-.15-.1-.21-.02-.07-.08-.24-.09-.27-.03-.11-.06-.22-.08-.33,0-.03-.01-.05-.02-.06,0-.02,0-.04,0-.08,0-.26-.01-.51,0-.77,0-.05,.01-.12,.02-.16,.02-.12,.04-.24,.07-.35,.06-.26,.13-.52,.22-.77,.04-.12,.08-.23,.12-.34,.02-.05,.03-.08,.04-.1,.01-.02,.02-.04,.04-.08,.12-.26,.25-.52,.38-.77,.12-.23,.16-.49,.17-.75,.07-.45-.06-.91-.41-1.26-3.18-3.19-6.37-6.39-9.55-9.58-.04-.04-.08-.07-.12-.1-.48-.74-1.5-1.12-2.26-.28C22.54,25.71,13.54,34.29,3.93,42.14c-.07,.03-.15,.03-.22,.07-1.31,.67-2.1,2.08-2.68,3.37C.41,47-.01,48.5,0,50.06c.02,2.51,1.23,5.08,3.38,6.43,13.37,12.54,26.09,25.78,38.09,39.64,.04,.05,.09,.09,.13,.13,1.86,2.38,4.22,4.55,7.49,4.11,2.71-.36,5.36-1.86,7.47-3.67,.39,.05,.8-.06,1.17-.42,13.05-12.68,26.11-25.37,39.16-38.05,.09-.09,.16-.18,.22-.27,2.47-1.89,4.35-4.37,3.73-7.65Zm-5.33,5.13c-.17,.12-.31,.27-.43,.43-.11,.06-.21,.14-.32,.24-12.7,12.34-25.39,24.68-38.09,37.01-.38-.04-.77,.08-1.12,.43-1.76,1.76-4,3.2-6.45,3.78-2.64,.63-4.49-1.95-5.82-3.81-.16-.22-.36-.4-.58-.53-11.54-13.27-23.74-25.96-36.55-38.02-.11-.31-.32-.58-.62-.72-.83-.39-1.38-.88-1.83-1.63-.47-.79-.69-1.68-.7-2.57,0-1.02,.23-2.03,.63-2.97,.34-.81,.8-1.78,1.48-2.22,.19-.06,.39-.15,.57-.3,9.34-7.6,18.1-15.9,26.2-24.81,2.69,2.7,5.38,5.4,8.08,8.1-.96,2.19-1.35,4.82,.15,6.85,1.35,1.83,3.49,2.56,5.63,3.01,.3,8.62,.38,17.25,.26,25.88-2.7,1.7-4.96,4.12-5.32,7.44-.19,1.81,.49,3.43,1.27,5.01,.75,1.52,1.73,2.86,3.39,3.45,1.7,.61,3.73,.49,5.49,.28,1.78-.22,3.65-.56,5.24-1.44,2.93-1.61,3.37-5.23,2.98-8.25-.22-1.67-.73-3.33-1.76-4.7-.58-.78-1.43-1.65-2.38-2.08,.19-7.23,.38-14.45,.57-21.68,1.02,1.03,2.02,2.08,2.96,3.18,1.29,1.51,2.3,2.83,3.44,4.49,.09,.12,.19,.23,.31,.33-.03,.11-.05,.22-.06,.33-.23,3.11,.51,7.35,3.25,9.26,1.27,.89,3.05,1,4.56,.9,1.66-.11,3.3-.53,4.76-1.36,2.61-1.49,4.47-4.31,4.46-7.35-.01-3.24-1.95-6.07-4.53-7.87-1.37-.95-3.05-1.73-4.69-2.07-.75-.15-1.53-.09-2.14,.32-2.89-3.5-5.98-6.84-9.25-9.99,.33-1.5,.14-3.04-.32-4.5-.22-.71-.49-1.41-.78-2.1-.3-.73-.61-1.42-1.17-1.99-1.01-1.03-2.66-1.36-4.03-1.64-1.3-.26-2.55-.32-3.78,0-2.76-3.81-5.93-7.29-9.5-10.35,.94-.99,1.9-1.96,2.9-2.89,1.19-1.1,2.58-2.27,3.78-3.21,.56,.05,1.13-.23,1.45-.73,.01-.02,.1-.14,.13-.2,.04-.04,.09-.11,.1-.12,.13-.14,.27-.28,.43-.4,.02-.01,.04-.03,.07-.04,.1-.06,.2-.12,.3-.18,.08-.05,.17-.09,.25-.13,.03-.02,.03-.02,.03-.02,.02,0,.02,0,.06-.02,.2-.07,.41-.13,.62-.18,.09-.02,.19-.04,.28-.06,.03,0,.04,0,.04-.01h.06c.22-.02,.43-.03,.65-.03,.1,0,.19,0,.29,.01,.03,0,.12,.02,.17,.02,.42,.08,.83,.19,1.22,.35,.12,.05-.04-.03,.16,.07,.09,.05,.19,.1,.29,.15,.21,.11,.42,.24,.62,.37,.42,.28,.57,.4,.97,.77,.38,.35,.73,.73,1.06,1.13,.11,.13,.25,.22,.39,.29,12.87,13.12,25.75,26.23,38.62,39.35,.33,.34,.7,.46,1.06,.44,1.19,1.34,2.31,2.85,2.81,4.49,.65,2.12-.64,3.76-2.28,4.99Z"/></g></g></svg>