<?xml version="1.0" encoding="utf-8"?>
<!-- Generator: Adobe Illustrator 26.1.0, SVG Export Plug-In . SVG Version: 6.00 Build 0)  -->
<svg version="1.1" id="Capa_1" xmlns="http://www.w3.org/2000/svg" xmlns:xlink="http://www.w3.org/1999/xlink" x="0px" y="0px"
	 viewBox="0 0 51.3 50" style="enable-background:new 0 0 51.3 50;" xml:space="preserve">
<style type="text/css">
	.st0{fill:#0000C8;}
</style>
<g id="a">
</g>
<g id="b">
	<g id="c">
		<g id="d">
			<g id="e">
				<path class="st0" d="M16.2,41.6c0,0.2,0.2,0.4,0.6,0.4s0.5-0.2,0.5-0.4s-0.2-0.4-0.5-0.4S16.2,41.3,16.2,41.6z"/>
				<path class="st0" d="M18.8,41.2c-0.3,0-0.5,0.3-0.5,0.5s0.3,0.3,0.6,0.3s0.5-0.3,0.5-0.5S19.1,41.1,18.8,41.2z"/>
				<path class="st0" d="M25.7,0C11.6-0.1,0.1,11.4,0,25.5c0,11.1,7.1,21,17.6,24.5c1.3,0.2,1.8-0.6,1.8-1.2V44
					c-7.1,1.5-8.6-3-8.6-3c-1.2-3-2.8-3.8-2.8-3.8c-2.3-1.6,0.2-1.6,0.2-1.6c1.6,0.2,3.1,1.2,3.9,2.6c2.3,3.9,6,2.8,7.5,2.1
					c0.1-1.3,0.7-2.5,1.6-3.5c-5.7-0.7-11.7-2.8-11.7-12.7c0-2.5,0.9-5,2.6-6.9c-0.8-2.2-0.7-4.6,0.2-6.8c0,0,2.2-0.7,7,2.6
					c4.2-1.1,8.6-1.1,12.8,0c4.9-3.3,7-2.6,7-2.6c0.9,2.1,1,4.6,0.2,6.8c1.7,1.9,2.7,4.3,2.7,6.8c0,9.9-6,12-11.7,12.6
					c1.2,1.3,1.8,3,1.7,4.8v7c0,0.7,0.5,1.5,1.8,1.2c13.4-4.5,20.6-19,16.1-32.5C46.5,7,36.7,0,25.7,0z"/>
				<path class="st0" d="M14.1,41c-0.1,0.2,0.1,0.4,0.4,0.5s0.6,0,0.6-0.2s-0.1-0.4-0.4-0.5S14.2,40.8,14.1,41z"/>
				<path class="st0" d="M10.4,37c-0.1,0.1-0.1,0.3,0.1,0.5s0.4,0.2,0.5,0.1s0.1-0.3-0.1-0.5C10.8,37,10.5,36.9,10.4,37z"/>
				<path class="st0" d="M9,36.2c-0.1,0.1,0.1,0.3,0.2,0.4c0.1,0.1,0.3,0.1,0.4-0.1c0.1-0.1,0-0.3-0.2-0.4C9.3,36,9.1,36.1,9,36.2z"
					/>
				<path class="st0" d="M11.3,38.2c-0.2,0.1-0.2,0.4,0,0.6s0.4,0.3,0.6,0.2s0.2-0.4,0-0.6S11.4,38.1,11.3,38.2z"/>
				<path class="st0" d="M12.5,40c-0.1,0.2-0.1,0.5,0.1,0.7s0.5,0.2,0.7,0.1s0.1-0.5-0.1-0.7C13,39.9,12.7,39.8,12.5,40z"/>
			</g>
		</g>
	</g>
</g>
</svg>
