<?xml version="1.0" encoding="UTF-8"?><svg xmlns="http://www.w3.org/2000/svg" viewBox="0 0 100.5 99.95"><defs><style>.d{fill:#fff;}</style></defs><g id="a"/><g id="b"><g id="c"><g><polygon class="d" points="70.59 4.32 75.15 6.36 62.7 28.18 50.25 50 58.13 26.14 66.02 2.29 70.59 4.32"/><polygon class="d" points="87.41 16.54 90.75 20.26 70.5 35.13 50.25 50 67.15 31.41 84.06 12.83 87.41 16.54"/><polygon class="d" points="97.8 34.55 99.35 39.3 74.8 44.65 50.25 50 73.25 39.9 96.26 29.79 97.8 34.55"/><polygon class="d" points="99.97 55.23 99.45 60.2 74.85 55.1 50.25 50 75.37 50.13 100.5 50.25 99.97 55.23"/><polygon class="d" points="93.55 75 91.05 79.33 70.65 64.67 50.25 50 73.15 60.33 96.05 70.67 93.55 75"/><polygon class="d" points="79.64 90.45 75.59 93.39 62.92 71.69 50.25 50 66.97 68.76 83.68 87.51 79.64 90.45"/><polygon class="d" points="60.64 98.91 55.75 99.95 53 74.97 50.25 50 57.89 73.93 65.54 97.87 60.64 98.91"/><polygon class="d" points="39.85 98.91 34.96 97.87 42.61 73.93 50.25 50 47.5 74.97 44.74 99.95 39.85 98.91"/><polygon class="d" points="20.86 90.45 16.81 87.51 33.53 68.76 50.25 50 37.58 71.69 24.9 93.39 20.86 90.45"/><polygon class="d" points="6.95 75 4.45 70.67 27.35 60.33 50.25 50 29.85 64.67 9.45 79.33 6.95 75"/><polygon class="d" points=".52 55.23 0 50.25 25.12 50.13 50.25 50 25.65 55.1 1.05 60.2 .52 55.23"/><polygon class="d" points="2.7 34.55 4.24 29.79 27.24 39.9 50.25 50 25.7 44.65 1.15 39.3 2.7 34.55"/><polygon class="d" points="13.09 16.54 16.44 12.83 33.34 31.41 50.25 50 30 35.13 9.75 20.26 13.09 16.54"/><polygon class="d" points="29.91 4.32 34.48 2.29 42.36 26.14 50.25 50 37.8 28.18 25.34 6.36 29.91 4.32"/><polygon class="d" points="50.25 0 55.25 0 52.75 25 50.25 50 47.75 25 45.25 0 50.25 0"/></g></g></g></svg>