<?xml version="1.0" encoding="UTF-8"?><svg xmlns="http://www.w3.org/2000/svg" viewBox="0 0 623.63 92.1"><defs><style>.d{fill:#454545;}</style></defs><g id="a"/><g id="b"><g id="c"><g><path class="d" d="M68.55,32.68c-.32-.68-1.03-.87-1.65-.71-10-.08-20-.02-29.99,.18-.57,.01-.97,.29-1.21,.67-.28,.27-.46,.64-.49,1.08-.18,2.46-.2,4.92-.07,7.38,0,.08,.02,.16,.03,.23-.88,.74-.57,2.62,.95,2.71,6.82,.38,13.64,.41,20.46,.1-.97,3.67-3.06,6.99-6.09,9.35-4.21,3.27-9.87,4.29-15.05,4.7-.32,.03-.59,.14-.8,.3-.18-.07-.38-.1-.61-.09-2.84,.15-5.93-1.49-8.38-2.8-2.47-1.32-4.77-2.92-6.76-4.89-4.1-4.05-6.62-9.59-6.2-15.41,.03-.38-.07-.69-.25-.92-.09-4.38,1.78-8.37,4.2-12.04,1.27-1.92,2.96-3.44,4.78-4.84,1.82-1.41,3.69-2.77,5.71-3.89,8.49-4.7,18.24-1.61,24.56,5.18,.52,.55,1.15,.56,1.66,.29,.41,.03,.83-.11,1.19-.41,1.2-1.02,2.4-2.04,3.61-3.06,1.1-.94,2.29-1.93,2.62-3.42,.01-.06,0-.13,.01-.19,.1-.43,.03-.91-.31-1.33-3.2-3.94-7.45-6.64-12.25-8.2C43,.95,37.07-.85,31.58,.43c-2.53,.59-5,1.57-7.42,2.52-2.32,.91-4.62,1.92-6.8,3.15-4.41,2.48-8.05,5.85-10.7,10.17-1.5,2.45-2.7,5.07-3.88,7.69C1.53,26.77,.3,29.55,.11,32.67c-.02,.27,.03,.5,.12,.69-.63,3.68,.11,7.47,1.22,11,1.1,3.49,2.69,6.85,4.76,9.88,3.73,5.47,8.84,9.95,14.66,13.07,3.34,1.79,6.92,3.15,10.6,4.03,.17,.04,.33,.05,.48,.04,.02,0,.04,.01,.06,.02,4.29,.6,8.53,.1,12.69-1,4.04-1.06,7.85-2.53,11.16-5.13,1.61-1.26,3.31-2.51,4.78-3.91,1.4-1.34,2.5-3,3.5-4.65,1.98-3.31,3.55-6.93,4.44-10.7,.98-4.14,1.1-8.43,.16-12.58-.01-.26-.07-.51-.2-.74Zm-3.34,14.36c-1.21,4.05-3.2,8.46-6.09,11.59-1.61,1.75-3.7,3.27-5.6,4.69-1.8,1.34-3.8,2.32-5.91,3.06-4.68,1.63-9.82,2.81-14.79,2.12-.14-.02-.28-.02-.41,0-.05-.02-.09-.04-.14-.05-7.56-1.82-14.56-5.69-19.92-11.35-2.76-2.91-5.01-6.26-6.64-9.92-1.82-4.08-3.45-9.25-2.46-13.72,.09-.38,.03-.72-.11-1,.2-2.4,1.19-4.63,2.16-6.8,.97-2.16,1.95-4.33,3.1-6.4,2.27-4.09,5.27-7.41,9.27-9.87,3.86-2.37,8.16-4.01,12.45-5.42,2.52-.83,4.97-1.21,7.61-.85,2.62,.36,5.23,1.12,7.77,1.84,4.73,1.33,8.83,3.52,12.09,7.15,0,.04-.01,.08-.01,.12-.09,.1-.17,.2-.27,.3-.45,.46-.96,.87-1.45,1.29-.91,.78-1.83,1.55-2.74,2.33-5.39-5.4-12.85-8.59-20.55-7.4-4.06,.62-7.63,2.67-10.91,5.05-3.4,2.48-6.4,5.04-8.51,8.73-2.41,4.22-4.2,8.58-3.59,13.54,.02,.15,.06,.28,.11,.4-.13,6.22,2.74,12.21,7.12,16.55,2.26,2.23,4.91,4.08,7.73,5.54,2.83,1.47,6.28,3.2,9.54,3.02,.33-.02,.6-.12,.81-.28,.17,.06,.37,.09,.6,.07,5.9-.46,12.12-1.65,16.9-5.36,4.04-3.14,6.81-7.84,7.56-12.9,.01-.09,0-.17,0-.26,.01-.11,.01-.21,0-.32v-.03c-.06-.56-.38-1.06-.98-1.21-.03,0-.04-.03-.07-.04-.23-.07-.49-.06-.75,0-6.66,.34-13.32,.35-19.98,.04,0,0,0-.02,0-.03-.11-2.04-.11-4.09,0-6.14,9.29-.18,18.58-.23,27.87-.16,.75,4.02,.37,8.14-.8,12.07Z"/><path class="d" d="M99.18,34.11c-1.98-.4-4.02-.55-6.03-.37-1.5,.13-3.18,.3-4.33,1.34-4.55,1.55-7.85,5.59-8.32,10.56-.54,5.79,1.02,13.08,6.7,15.91,2.9,1.45,6.3,1.41,9.36,.48,2.88-.88,6.24-2.4,8.3-4.66,4.2-4.61,4.45-12.09,1.87-17.51-1.54-3.23-4.07-5.03-7.55-5.74Zm4.3,20.13c-1.32,2.1-3.78,3.33-6,4.27-2.36,1-5.05,1.58-7.57,.88-4.83-1.34-6.36-6.76-6.47-11.2-.06-2.66,.28-5.2,2.01-7.33,1.01-1.24,2.35-2.24,3.85-2.84,.4,.1,.84,0,1.2-.39,.29-.07,.59-.12,.89-.16,.53-.06,.91-.35,1.14-.72,.46-.05,.93-.05,1.32-.07,1.43-.07,2.88,0,4.29,.27,2.5,.47,4.37,1.39,5.62,3.68,2.25,4.12,2.23,9.59-.29,13.6Z"/><path class="d" d="M117.28,44.49c.02-.16,.03-.33,0-.52-.47-2.63-1.91-4.91-3.43-7.05-1.51-2.13-3.16-4.2-5.11-5.96-3.86-3.48-8.7-5.53-13.87-5.96-.07,0-.13,0-.19,0-.11-.02-.22-.04-.35-.04-7.89,.01-15.86,3.21-19.74,10.42-1.04,1.94-1.81,4.01-2.57,6.07-.79,2.15-1.5,4.31-1.45,6.63,.08,4.16,1.86,8.34,3.61,12.06,1.86,3.96,4.45,7.65,8.29,9.88,.04,.02,.08,.04,.12,.06,1.21,1.17,2.76,1.55,4.5,1.77,2.58,.32,5.2,.52,7.8,.39,4.52-.21,9.03-1.41,12.63-4.24,1.78-1.4,3.37-3.08,4.88-4.77,1.54-1.71,2.8-3.55,3.64-5.69,1.61-4.11,1.59-8.67,1.26-13.01,0-.01,0-.02,0-.03Zm-3.74,11.1c-1.17,3.7-4.03,6.59-6.83,9.16-2.87,2.63-6.53,4-10.38,4.38-2.11,.21-4.23,.16-6.34,0-1.4-.11-4.45,.06-5.41-1.22-.2-.27-.45-.44-.72-.54-2.85-1.69-4.83-4.31-6.36-7.2-1.69-3.21-3.26-6.88-3.82-10.47-.6-3.84,1.15-7.82,2.72-11.26,1.49-3.27,3.63-5.95,6.77-7.75,3.37-1.93,7.28-2.71,11.13-2.71,.08,0,.16-.01,.23-.02,.1,.03,.2,.05,.31,.06,4.47,.38,8.73,2.27,12.02,5.33,1.69,1.57,3.15,3.37,4.48,5.25,1.26,1.79,2.45,3.63,2.93,5.78,0,.05,0,.1,0,.16,.28,3.69,.38,7.5-.74,11.07Z"/><path class="d" d="M148.04,34.24c-.33-.19-.65-.24-.95-.19-1.17-.42-2.36-.74-3.62-.68-1.5,.07-2.95,.51-4.36,1-2.63,.91-4.98,2.33-6.77,4.49-.04,.04-.06,.09-.09,.13-.15,.08-.3,.19-.44,.35-4.88,5.63-4.18,14.04,1.1,19.17,2.56,2.49,5.99,4.09,9.6,3.87,3.62-.23,6.93-1.9,9.64-4.24,.13-.11,.23-.24,.3-.36,3.2-2.98,3.5-8.56,2.89-12.57-.69-4.52-3.29-8.68-7.3-10.96Zm-13.02,22.14c-4.04-3.93-4.92-10.52-1.1-14.93,.05-.06,.09-.12,.13-.18,.15-.07,.29-.17,.41-.3,1.47-1.76,3.29-2.97,5.45-3.72,1.1-.38,2.27-.81,3.44-.88,1.29-.08,2.46,.37,3.65,.83,.05,.02,.09,.02,.14,.03,2.87,1.9,4.67,4.99,5.24,8.39,.55,3.26,.37,8.1-2.42,10.37-.12,.1-.21,.2-.29,.31-2.02,1.65-4.54,2.91-7.17,3.07-2.85,.17-5.46-1.02-7.48-2.99Z"/><path class="d" d="M158.74,31.16c-3.19-2.95-7.08-5.07-11.26-6.23-.56-.16-1.02,0-1.35,.3-5.79-.25-11.83,.75-16.74,3.97-4.71,3.08-8.07,7.9-9.6,13.28-.06,.12-.1,.24-.13,.39-.01,.06-.02,.11-.03,.17-.05,.19-.12,.38-.16,.58-.05,.22-.05,.43-.02,.62-1.05,8.1,1.95,16.38,8.35,21.61,3.25,2.65,7.09,4.38,11.2,5.2,2.13,.42,4.3,.64,6.47,.67,2.26,.04,4.61-.02,6.74-.84,.15-.06,.28-.14,.4-.23,3.19-1.36,5.8-3.59,7.97-6.29,2.4-2.98,4.72-6.14,5.06-10.05,.39-4.42,.27-8.7-1.17-12.94-1.28-3.77-2.75-7.45-5.73-10.2Zm3.91,22.92c-.19,2.32-1.28,4.04-2.57,5.93-2.23,3.26-4.99,6.49-8.76,7.95-.08,.03-.14,.07-.21,.11-3.45,1.21-7.82,.77-11.31,.08-3.58-.71-7.03-2.11-9.88-4.42-5.88-4.78-8.74-12.44-7.4-19.9,1.3-4.99,4.32-9.5,8.73-12.26,4.59-2.87,10.1-3.62,15.42-3.32,.32,.02,.58-.05,.8-.18,3.82,1.2,7.43,3.27,10.16,6.22,1.46,1.58,2.28,3.5,3.06,5.48,.88,2.23,1.71,4.54,2.01,6.93,.31,2.43,.15,4.95-.05,7.39Z"/><path class="d" d="M190.77,33.02c-5.59-.71-11.41,3.83-13.34,8.85-1.11,2.87-.94,6.14-.6,9.15,.36,3.19,1.46,5.87,3.5,8.35,1.17,1.43,2.42,2.51,4.15,3.17,1.6,.61,3.31,1.02,5.02,1.13,3.02,.2,6.14-.9,7.92-3.37,5.03-3.51,5.96-10.3,4.92-16-1.01-5.52-5.89-10.55-11.56-11.27Zm5.68,24.23c-.43,.02-.84,.24-1.11,.74-.04,.07-.09,.13-.13,.2-.26,.2-.42,.44-.5,.7-2.81,3.22-9.17,1.86-11.73-1.01-1.65-1.85-2.71-3.93-3.09-6.39-.37-2.42-.59-5.25,.04-7.64,1.05-3.99,4.9-7.22,8.96-7.83,4.31-.65,8.89,3.53,10.13,7.39,1.41,4.38,1.08,10.62-2.58,13.86Z"/><path class="d" d="M210.72,26.76c-.07-.04-.15-.08-.23-.11-2.5-.99-5.26-1.37-7.94-1.1-.15,.01-.29,.05-.43,.1-.22-.14-.47-.22-.75-.2-.78,.04-1.54,.66-1.5,1.5,.03,.69,0,1.38-.04,2.07-1.18-1.08-2.52-1.95-3.99-2.57-1.65-.7-3.37-1.02-5.14-1.23-1.79-.22-3.64-.44-5.44-.22-3.39,.41-6.47,2.9-9.07,4.98-2.68,2.14-4.99,4.75-6.41,7.89-2.77,6.15-2.72,13.59-.4,19.88,2.4,6.52,7.12,11.28,13.47,14.03,1.86,.81,3.77,1.32,5.82,1.2,1.92-.11,3.9-.45,5.76-.9,1.4-.34,2.98-.97,4.3-1.89,0,.04,0,.07,0,.11-.04,1.41-.06,2.72-.79,3.97-.6,1.03-1.39,1.98-2.16,2.89-.74,.87-1.56,1.75-2.62,2.22-1.02,.45-2.56,.7-3.67,.57-1.24-.14-2.5-1.03-3.55-1.67-2.24-1.38-4.2-3.12-5.91-5.12-.51-.59-1.15-.59-1.66-.29-1.61-.38-3.2,.69-4.6,1.35-1.46,.68-2.67,1.16-4.24,1.78-.73,.29-1.32,1.02-1.05,1.85,.12,.38,.42,.74,.79,.94,2.79,6.98,10.33,10.13,17.04,12.32,3.84,1.25,7.67,1.52,11.41-.17,3.42-1.54,6.37-4.27,8.53-7.31,2.31-3.24,3.66-7.05,4.1-10.99,.07-.13,.13-.28,.16-.47,1.17-7.15,.8-14.37,.77-21.58-.03-7.46,.2-14.93,.66-22.38,.06-.89-.55-1.36-1.24-1.43Zm-7.54,55.99c-2.48,3.14-6.31,6.24-10.48,6.41-2.22,.09-4.36-.54-6.44-1.27-2.04-.71-4.08-1.48-6.03-2.43-3.3-1.61-6.48-3.93-7.98-7.37,.83-.34,1.65-.68,2.47-1.05,.67-.3,1.32-.63,1.98-.95,.13-.07,.27-.13,.41-.19,.04,0,.29-.09,.33-.1,.05-.02,.11-.03,.16-.04h.12c.08,.02,.16,.04,.23,.08,.18,.07,.37,.08,.56,.06,1.9,2.09,4.1,3.91,6.54,5.33,1.36,.79,2.84,1.63,4.45,1.71,1.56,.08,3.4-.2,4.83-.82,2.58-1.11,4.69-3.84,6.12-6.19,1.81-2.97,1.37-6.95,1.32-10.29,0-.39-.14-.7-.34-.93-.45-1.64-3.17-1.59-2.95,.24,.36,2.87-3.46,3.96-5.62,4.4-3,.62-5.8,.98-8.69-.25-5.11-2.17-9.13-5.81-11.39-10.9-2.19-4.93-2.73-10.8-1.36-16.02,1.48-5.67,5.52-9.39,10.29-12.47,1.48-.95,2.82-1.74,4.62-1.8,1.67-.05,3.4,.13,5.05,.4,1.52,.25,2.99,.65,4.34,1.41,.69,.39,1.33,.83,1.92,1.36,.19,.17,.38,.36,.57,.54,.18,.19,.36,.38,.53,.58,.02,.03,.03,.04,.05,.06-.15,.86,.31,1.76,1.4,1.63l.16-.02c.57-.07,.95-.29,1.23-.69,.38-.17,.69-.49,.79-.93,.28-1.22,.44-2.46,.49-3.71,.53-.04,1.07-.07,1.6-.06,.32,0,.64,.02,.96,.05,.14,.01,.27,.02,.41,.04,.08,0,.15,.02,.23,.03,.97,.15,1.9,.4,2.83,.71-.41,6.92-.62,13.85-.6,20.79,.02,7.08,.49,14.26-.66,21.28-.1,.18-.17,.4-.2,.64-.34,3.89-1.83,7.69-4.26,10.76Z"/><path class="d" d="M227.09,3.91c-.03-1.21-1.23-1.66-2.1-1.35-2.53-.22-5.08-.05-7.57,.46-.03,0-.06,.02-.1,.03-.88-.6-2.41-.21-2.4,1.17,.09,16.79,.19,33.59,.28,50.38l.08,14.66c0,.89,.64,1.36,1.33,1.43,.26,.43,.72,.73,1.25,.7,.32-.01,.64-.13,.89-.32,.03,0,.07,.01,.1,.01,.27,.03,.53,.04,.8,.03,.61-.02,1.23-.11,1.83-.21,.52-.09,1.03-.2,1.55-.28,.05,0,.1-.02,.15-.02,.12-.02,.25-.03,.38-.04,.27-.02,.54-.03,.81-.01,.71,.03,1.39-.58,1.48-1.29,.18-.22,.3-.51,.33-.86,.56-8.29,1.26-16.59,1.62-24.9,.37-8.37-.12-16.79-.34-25.17l-.37-14.43Zm-4.91,63.84c-.33,.05-.65,.12-.98,.18-.15,.03-.31,.06-.46,.08-.08,.01-.15,.03-.23,.04-.04,0-.28,.04-.19,.03h-.05c-.08,.01-.15,.02-.23,.03-.15,.01-.3,.02-.46,.02-.15,0-.3,0-.46,0-.06,0-.12-.01-.18-.02h-.03c-.22-.05-.44-.06-.65-.06-.09-16.37-.18-32.74-.28-49.12-.02-4.33-.05-8.67-.07-13,.09,0,.19,0,.28-.01,.3-.06,.61-.12,.91-.17,.16-.03,.33-.05,.49-.08h.08l.09-.02c.59-.07,1.18-.12,1.78-.15,.86-.04,1.72-.02,2.57,.02,.2,7.93,.41,15.85,.61,23.78,.11,4.17,.25,8.35,.12,12.52-.13,4.14-.45,8.26-.73,12.39-.3,4.47-.6,8.93-.9,13.4-.35,.04-.7,.09-1.05,.15Z"/><path class="d" d="M260.41,40.66c1.49-.56,1.2-2.64,.03-2.95-3.59-3.38-9.12-4.69-13.78-2.9-4.8,1.84-8.08,6.29-8.61,11.36-.05,.47,.22,.9,.59,1.17,0,.25,.07,.5,.18,.7,.44,.77,1.31,.86,2.05,.54,6.44-2.82,12.95-5.46,19.54-7.93Zm-12.69-3.06c3.09-1.1,6.53-.58,9.23,1.19-5.29,2.03-10.53,4.16-15.73,6.41,.72-3.38,3.24-6.43,6.5-7.59Z"/><path class="d" d="M271.57,60.23c-.02-.34-.14-.67-.42-.91-1.18-1.01-2.33-2.09-3.64-2.95-.59-.39-1.22-.72-1.85-1.04-.67-.33-1.36-.72-2.11-.81-.65-.36-1.52-.31-2,.51-.91,1.54-2.63,2.34-4.17,3.12-1.78,.9-3.67,1.64-5.69,1.57-1.91-.06-4.09-.68-5.83-1.45-.81-.36-1.1-.99-1.46-1.76-.19-.4-.38-.78-.6-1.14,9.12-3.88,18.24-7.77,27.36-11.65,.74-.31,.9-.94,.71-1.52,.06-.24,.06-.51-.04-.81-1.13-3.34-2.48-6.32-5.33-8.51-2.95-2.27-6.06-4.5-9.39-6.18-1.53-.77-3.17-1.56-4.88-1.77-1.89-.23-3.92,.2-5.77,.63-3.51,.82-6.91,2.29-9.78,4.49-2.92,2.24-5.16,5.13-6.53,8.54-.1,.15-.17,.33-.21,.55v.02c-.02,.08-.04,.16-.04,.24-1.11,6.76-1.6,13.89,1.05,20.38,2.3,5.64,7.01,10.42,13.2,11.44,.02,0,.03,0,.05,0,2.26,.83,4.76,.74,7.15,.64,2.89-.12,5.81-.48,8.58-1.3,4.81-1.43,9.19-4.3,11.81-8.65,.39-.64,.23-1.26-.16-1.68Zm-12.45,7.45c-2.38,.71-4.84,1.05-7.32,1.18-1.98,.1-4.4,.37-6.34-.33-.11-.07-.24-.12-.39-.15-.06-.03-.13-.05-.19-.07-.3-.15-.6-.19-.88-.15-4.98-1.2-8.72-5.17-10.48-9.94-2.16-5.86-1.7-12.21-.69-18.26,0-.03,0-.06,0-.09,.01-.03,.03-.06,.04-.09,1.3-3.44,3.86-6.31,6.95-8.27,3.24-2.06,7.6-3.69,11.48-3.62,1.92,.03,3.83,1.15,5.46,2.05,1.83,1.02,3.56,2.19,5.26,3.4,1.57,1.12,3.36,2.18,4.54,3.75,1,1.33,1.6,2.89,2.13,4.46-9.26,3.94-18.53,7.89-27.79,11.83-1.01,.43-.94,1.46-.37,2.12,0,.35,.1,.71,.4,1.03,.62,.68,.84,1.63,1.31,2.4,.6,1,1.41,1.67,2.48,2.11,2.25,.94,4.88,1.71,7.34,1.69,2.42-.02,4.69-.92,6.82-1.99,1.66-.84,3.31-1.77,4.51-3.18l.11,.05c.31,.15,.62,.3,.92,.46,.57,.29,1.14,.6,1.67,.96,.14,.1,.28,.19,.42,.3,.05,.03,.09,.07,.13,.1,.01,.01,.02,.02,.07,.05,.23,.19,.46,.38,.69,.57,.41,.35,.83,.71,1.24,1.06-2.25,3.27-5.74,5.43-9.53,6.56Z"/><path class="d" d="M326.25,41.48c-3.22-8.72-7.26-17.1-11.29-25.47-.41-.86-1.25-.92-1.9-.56-.63-.69-1.81-.85-2.33,.21-7.94,16.3-14.5,33.25-19.57,50.66-.54,1.86,2.35,2.65,2.89,.8,1.65-5.67,3.47-11.28,5.44-16.84,8.98-.36,17.93,2.58,26.85,.75,1.81,5.48,3.76,10.91,6.95,15.76,1.06,1.61,3.66,.11,2.59-1.51-4.76-7.23-6.66-15.78-9.62-23.81Zm-25.69,5.78c3.58-9.83,7.65-19.48,12.2-28.9,3.93,8.14,7.84,16.31,10.92,24.82,.6,1.65,1.16,3.33,1.71,5-8.2,1.61-16.55-.99-24.83-.92Z"/><path class="d" d="M371.36,29.09c-2.41-2.43-5.05-4.09-8.59-3.88-3.33,.2-6.9,1.44-9.85,2.99-3.03,1.6-4.51,4.08-5.36,7.32-.98,3.74-2.05,7.5-2.77,11.3-.66,3.47-.94,7.16,.22,10.56,1.95,5.66,7.37,9.58,13.24,10.24,6.93,.78,13.64-3.26,17.26-9.02,1.03-1.64-1.56-3.15-2.59-1.51-2.68,4.27-7.37,7.42-12.49,7.62-4.93,.18-9.83-2.57-12.05-7.01-2.77-5.55-.2-12.42,1.22-18,.68-2.66,1-6.05,3.27-7.9,2.04-1.67,5.02-2.54,7.54-3.18,1.58-.4,3.29-.65,4.89-.2,1.54,.44,2.69,1.52,3.79,2.63,2.48,2.49,4.69,5.22,6.61,8.17,1.05,1.61,3.65,.11,2.59-1.51-2.02-3.09-4.33-5.99-6.92-8.61Z"/><path class="d" d="M413.26,28.99c-1.66-1.15-3.82-1.43-5.77-1.7-2.09-.3-4.19-.42-6.29-.12-4.94,.71-8,4.07-10.88,7.84-1.17,1.53,1.43,3.03,2.59,1.51,2.2-2.88,4.53-5.61,8.27-6.32,1.79-.35,3.69-.25,5.49-.02,1.68,.22,3.85,.4,5.21,1.5,2.67,2.16,3.2,6.7,3.38,9.88,.04,.77,.05,1.54,.06,2.3-8.42-3.47-18.5-.16-22.85,8.13-2.03,3.87-2.7,8.73-.63,12.73,2.16,4.16,6.95,5.63,11.35,4.95,4.63-.72,8.26-3.83,11.33-7.23-.09,1.88-.18,3.76-.27,5.64-.09,1.93,2.91,1.93,3,0,.23-4.88,.47-9.76,.7-14.64,.22-4.54,.67-9.16,.15-13.69-.43-3.81-1.48-8.44-4.85-10.77Zm.83,29.39c-2.55,3.04-5.4,6.3-9.2,7.76-3.17,1.21-7.36,1.08-9.67-1.71-2.27-2.74-1.95-6.9-.62-9.98,1.47-3.42,4.27-6.25,7.66-7.78,4.13-1.87,9.02-1.58,13.01,.48-.08,2.18-.22,4.37-.33,6.54-.07,1.41-.14,2.83-.2,4.24-.23,.07-.45,.21-.65,.44Z"/><path class="d" d="M462.46,10.19c.15,7.91,.17,15.83,.07,23.74-1.96-2.02-3.95-4.08-6.27-5.62-2.34-1.56-5.19-2.3-7.99-2.23-5.95,.15-11,3.73-13.19,9.24-2.27,5.7-1.66,12.58-.48,18.47,1.26,6.31,5.31,11.6,11.71,13.3,5.59,1.48,11.53-.53,15.33-4.7-.1,2.04-.21,4.09-.33,6.13-.11,1.93,2.89,1.92,3,0,1.13-19.42,1.52-38.87,1.15-58.32-.04-1.93-3.04-1.93-3,0Zm-1.49,48.09c-2.53,4.3-7.61,6.97-12.6,6.19-5.44-.85-9.28-4.97-10.59-10.18-2.19-8.73-2.55-23.49,9.17-25.11,2.55-.35,5.23,.12,7.42,1.49,2.9,1.8,5.25,4.66,7.66,7.04,.14,.14,.28,.23,.43,.3-.12,6.53-.32,13.07-.61,19.6-.34,.08-.66,.29-.88,.68Z"/><path class="d" d="M507.44,27.48c-4.96-3.84-12.97-4.17-17.47,.61-1.33,1.41-2.27,3.13-3.14,4.85-.96,1.91-1.91,3.83-2.76,5.79-1.64,3.76-2.93,7.68-3.1,11.81-.15,3.72,.65,7.65,2.78,10.75,2.04,2.97,5.07,5.1,8.47,6.23,4.04,1.35,8.53,1.1,12.5-.34,2.7-.98,9.86-3.99,7.4-7.99-1.01-1.64-3.61-.14-2.59,1.51,.37,.61-2.43,2.08-2.89,2.34-1.49,.82-3.07,1.44-4.73,1.85-3,.75-6.14,.68-9.07-.33-6.09-2.11-9.12-7.8-8.87-14.04,.04-.99,.16-1.96,.34-2.93,4.35,.18,8.69,.3,13.04,.35,2.31,.03,4.61,.04,6.92,.03,1.15,0,2.31-.01,3.46-.02,.66,0,1.59-.15,2.39-.13,.11,.12,.23,.22,.37,.29,.95,.44,2.07,.28,2.48-.8,.18-.48,.14-.91-.05-1.27,1.52-6.55,.05-14.27-5.49-18.56Zm-.69,17.5c-1.57,.01-3.13,.02-4.7,.02-5.67-.01-11.35-.15-17.02-.37,.4-1.33,.88-2.63,1.42-3.89,1.3-3.1,2.73-6.39,4.6-9.2,2.93-4.41,8.92-5.03,13.34-2.51,5.42,3.09,6.91,10.1,5.73,15.85-1.12-.02-2.28,.1-3.37,.11Z"/><path class="d" d="M579.92,39.88c-.5-4.02-1.53-8.24-4.89-10.86-3.74-2.93-8.32-1.76-12.35-.13-3.31,1.34-6.74,2.92-8.55,6.04-.28-1.09-.61-2.17-.99-3.23-.68-1.9-1.6-3.7-3.33-4.85-3.23-2.16-7.98-1.26-11.42-.11-2.9,.96-5.59,2.51-7.73,4.64,.12-1.24,.23-2.48,.37-3.72,.16-1.51-2.12-2-2.8-.76-.12,.22-.24,.44-.36,.66-.29,.54-.23,1.06,.02,1.46-1.36,13.12-1.81,26.31-1.35,39.49,.07,1.93,3.07,1.93,3,0-.38-10.63-.15-21.27,.66-31.87,.18-.12,.35-.28,.48-.51,1.74-2.96,4.59-5.07,7.78-6.26,2.73-1.01,7.2-2.32,9.82-.44,1.48,1.05,2,3.09,2.5,4.74,.61,2.03,1.07,4.12,1.39,6.21,.62,4.09,.69,8.26,.53,12.38-.19,4.77-.72,9.52-1.26,14.26-.22,1.91,2.78,1.9,3,0,1.08-9.47,2.11-19.1,.44-28.57-.02-.1-.04-.2-.06-.3,.62,.02,1.26-.28,1.52-1.02,1.02-2.8,4.19-4.17,6.74-5.22,3.17-1.31,7.23-2.97,10.24-.44,2.81,2.36,3.35,6.28,3.73,9.71,.46,4.12,.9,8.25,1.35,12.37,.45,4.15,1.07,8.7-.73,12.64-.8,1.74,1.79,3.27,2.59,1.51,1.9-4.13,1.73-8.57,1.26-13-.52-4.95-1.01-9.91-1.63-14.85Z"/><path class="d" d="M620.66,29.88c-2.49,8.29-4.98,16.58-7.48,24.87-.43,1.42-.84,2.85-1.27,4.28-4.31-10.69-9.39-21.05-15.26-30.97-.98-1.66-3.58-.15-2.59,1.51,6.4,10.81,11.89,22.14,16.39,33.87,.02,.05,.05,.1,.07,.14-.29,.91-.59,1.82-.91,2.72-1.23,3.48-2.81,6.98-5.36,9.7-2.59,2.77-6.04,4.74-9.91,4.65-1.93-.04-1.93,2.96,0,3,7.77,.18,13.62-6,16.6-12.61,1.69-3.76,2.8-7.74,3.99-11.68,1.34-4.46,2.68-8.93,4.03-13.39,1.53-5.1,3.07-10.2,4.6-15.31,.56-1.85-2.34-2.64-2.89-.8Z"/></g></g></g></svg>