<?xml version="1.0" encoding="utf-8"?>
<!-- Generator: Adobe Illustrator 26.1.0, SVG Export Plug-In . SVG Version: 6.00 Build 0)  -->
<svg version="1.1" id="Capa_1" xmlns="http://www.w3.org/2000/svg" xmlns:xlink="http://www.w3.org/1999/xlink" x="0px" y="0px"
	 viewBox="0 0 74.3 102.3" style="enable-background:new 0 0 74.3 102.3;" xml:space="preserve">
<style type="text/css">
	.st0{fill:#454545;}
</style>
<g id="a">
</g>
<g id="b">
	<g id="c">
		<g>
			<path class="st0" d="M71.4,20.8c-0.1,0-0.2,0-0.3,0c-17.9-0.4-35.7-0.9-53.6-1.3C12.3,19.3,7.2,19.2,2.1,19
				c-0.3,0-0.5,0.1-0.7,0.2c-0.8,0.2-1.5,0.9-1.3,1.8C2.9,39.5,5.1,58,6.9,76.6c0.5,5.2,0.9,10.5,1.3,15.8c0.1,1.6,2.1,1.9,2.8,0.9
				c8.2,3.8,16.7,6.8,25.5,9.1c0.4,0.1,0.8,0,1-0.1c4.6-0.6,9.2-1.5,13.6-2.7c2.3-0.6,4.5-1.3,6.7-2.1c2.2-0.8,4.4-1.9,6.7-2.3
				c0.3-0.1,0.6-0.2,0.8-0.5c0.4-0.1,0.8-0.2,1.1-0.7c2.3-3.6,2.6-8,3.1-12.2C70,76.8,70.5,72,71,67.1c1-9.8,1.8-19.6,2.4-29.4
				c0.3-5.5,0.6-11.1,0.9-16.6C74.4,19.2,71.8,19.1,71.4,20.8L71.4,20.8z M66.8,78c-0.5,4.4-0.5,9.7-2.8,13.7
				c-0.8-0.2-1.7,0.2-2,0.9c-1.6,0.5-3.1,1.2-4.7,1.7c-2.2,0.8-4.4,1.5-6.7,2.2c-4.5,1.3-9.2,2.2-13.8,2.8c0,0-0.1,0-0.1,0
				C28.3,97,20,94.1,12,90.4c-0.4-0.2-0.7-0.2-1-0.1C9.6,72.2,7.7,54.1,5.2,36.2c-0.6-4.7-1.3-9.4-2-14.1c17.5,0.4,35,0.8,52.5,1.3
				c5.1,0.1,10.3,0.2,15.4,0.4c0.1,0,0.1,0,0.2,0C70.4,41.8,68.9,59.9,66.8,78L66.8,78z"/>
			<path class="st0" d="M59.7,34.1c-0.5-0.1-0.9,0-1.3,0.3c-14.6-1.2-29.2-1.4-43.8-0.6c-1.9,0.1-1.9,3.1,0,3c0.1,0,0.3,0,0.4,0
				c0.1,8.2,0.3,16.4,0.8,24.6c0.1,0.8,0.6,1.3,1.2,1.4c0.2,0.3,0.6,0.5,1.1,0.4c9.4-0.6,18.7-0.6,28.1,0c-0.7,3.1-0.9,6.3-0.8,9.5
				c-2.5,0.3-4.9,1-7.2,2.2c-1.8-0.5-3.5-1-5.3-1.4c-0.9-0.2-1.8-0.4-2.7-0.6c-0.4-0.1-0.8-0.2-1.2-0.2c0,0,0-0.1,0-0.1
				c0-0.1,0-0.2,0-0.3v-0.1c0-0.2-0.1-0.5-0.1-0.7c0-0.4-0.1-0.9-0.1-1.4c0-0.8,0-1.7,0.1-2.5c0.2-0.3,0.4-0.6,0.4-0.9
				c0-0.8-0.7-1.5-1.5-1.5c-2.7,0-5.5,0.1-8.2,0.1c-0.5,0-1,0.3-1.2,0.7c-0.2,0.2-0.4,0.4-0.5,0.8c-0.6,3.3-0.8,6.7-0.4,10.1
				c0.1,0.9,0.2,1.7,0.4,2.6c0.1,0.8,0.2,1.8,0.9,2.4c0.4,0.3,0.8,0.4,1.2,0.4c0.1,0.1,0.2,0.1,0.3,0.1c5.8,2.3,11.8,3.9,17.9,4.9
				c0.5,0.1,1-0.1,1.4-0.4c5.1-1.7,10.2-3.2,15.4-4.5c0.4,0.1,0.9,0,1.2-0.3c0.9-0.3,1.1-1.2,0.8-1.9c1-3.9,1.3-8,1.6-12
				c0.2-4.6,0.4-9.2,0.7-13.8c0-0.6-0.2-1-0.6-1.2c0-0.5-0.2-1-0.7-1.3c-1-0.6-2.1-0.6-3.3-0.6C53,51,51.7,51,50.4,50.9
				c-2.5-0.1-5-0.1-7.6-0.1c-5,0-10.1,0.3-15.1,0.7c-0.1-0.2-0.3-0.4-0.5-0.5c0-0.2,0-0.4-0.1-0.6c0-0.6-0.1-1.3-0.1-1.9
				c0-0.9,0-1.9,0.1-2.8c10.2,0.3,20.4,0.1,30.6-0.5c0.5,0,0.9-0.3,1.1-0.6c0.4-0.3,0.7-0.7,0.7-1.2c0-0.7,0.1-1.3,0.1-2
				c0-0.3,0.1-0.6,0.1-0.9c0-0.2,0-0.3,0-0.5c0-0.1,0-0.2,0-0.3c0.2-1.3,0.4-2.5,0.7-3.8C60.9,35.2,60.5,34.3,59.7,34.1L59.7,34.1z
				 M25.3,42.6c-1.5,0-1.8,1.7-1,2.5c-0.1,1.5-0.2,3.1-0.1,4.6c0,0.4,0.1,0.8,0.1,1.2c0,0.4,0,0.9,0.2,1.4c0.2,0.6,0.7,1.2,1.3,1.4
				c0.1,0,0.2,0,0.3,0.1c0.2,0.5,0.6,0.8,1.3,0.8c4.8-0.4,9.6-0.6,14.4-0.7c2.4,0,4.7,0,7.1,0c1.1,0,2.3,0.1,3.4,0.1
				c1,0,2.5-0.2,3.5,0.2l0,0c-0.2,4.5-0.4,8.9-0.6,13.4c-0.2,4-0.5,8-1.5,11.9c-5.2,1.3-10.4,2.8-15.6,4.5c-0.1,0-0.2,0.1-0.3,0.1
				c-5.8-1-11.6-2.6-17.1-4.8c0,0-0.1,0-0.1,0c0,0,0,0-0.1-0.1c0-0.3-0.1-0.5-0.1-0.8c-0.1-0.5-0.1-0.9-0.2-1.4
				c-0.1-1.1-0.2-2.2-0.2-3.2c0-1.9,0.1-3.7,0.4-5.5c1.8,0,3.5-0.1,5.2-0.1c-0.1,1.6,0,3.2,0.2,4.8c-0.1,0.4-0.1,0.8,0.1,1.2
				c0.5,0.9,1.4,1.3,2.3,1.4c1,0.2,2,0.4,3.1,0.6c1.8,0.4,3.6,0.9,5.4,1.4c0.5,0.6,1.3,0.8,1.9,0.4c0.6-0.3,1.2-0.7,1.9-0.9l0.1,0
				c0.1,0,0.2-0.1,0.2-0.1c0.1-0.1,0.3-0.1,0.4-0.2c0.3-0.1,0.7-0.2,1.1-0.4c1.4-0.4,2.7-0.7,3.9-0.8c0.2,0,0.5-0.1,0.7-0.2
				c0.7-0.1,1.4-0.7,1.3-1.5c-0.2-3.6,0-7.2,0.8-10.6c0.1-0.4,0-0.8-0.2-1.2c0.1-0.8-0.4-1.8-1.4-1.8c-9.6-0.7-19.3-0.7-28.9-0.2
				c-0.5-7.8-0.7-15.7-0.8-23.5c13.1-0.6,26.3-0.4,39.5,0.7c-0.3,1.6-0.5,3.3-0.6,4.9C46.3,42.8,35.8,42.9,25.3,42.6L25.3,42.6z"/>
			<path class="st0" d="M11.1,14.4c0.8,0.2,1.6-0.2,1.9-1.1c0.2-0.6-0.1-1.4-0.7-1.7c0-0.1,0-0.1,0-0.1c-0.1-0.4-0.1-0.9-0.1-1.3
				c-0.1-0.8-0.1-1.7,0-2.5c1.9,0.1,3.7,0,5.6-0.3c0,1.6,0.1,3.1,0.3,4.7c0.1,0.8,0.6,1.5,1.5,1.5c0.7,0,1.6-0.7,1.5-1.5
				c-0.4-3.3-0.5-6.6,0-9.9c0.1-0.8-0.2-1.6-1-1.9c-0.7-0.2-1.7,0.2-1.9,1c-0.1,1-0.2,1.9-0.3,2.9c-0.5,0.1-1,0.2-1.5,0.3h-0.1
				l-0.1,0c-0.2,0-0.3,0-0.5,0.1c-0.3,0-0.6,0.1-0.9,0.1c-0.8,0.1-1.6,0-2.4,0c0.1-1,0.3-2,0.6-2.9C13,1.1,12.6,0.3,11.8,0
				c-0.8-0.2-1.6,0.3-1.9,1C9.4,3.4,9.1,5.8,9.1,8.2c0,1.1,0,2.3,0.2,3.5C9.4,12.9,9.8,14.2,11.1,14.4L11.1,14.4z M12.3,11.9
				L12.3,11.9C12.3,12,12.3,12,12.3,11.9z"/>
			<path class="st0" d="M26.1,3.8c0.6,0,1.1,0.1,1.7,0.1c-0.3,3.4-0.3,6.8,0,10.2c0.1,0.8,0.6,1.5,1.5,1.5c0.8,0,1.6-0.7,1.5-1.5
				c-0.3-3.3-0.3-6.7-0.1-10c1.3,0.1,2.6,0.1,3.9,0.1c0.8,0,1.5-0.7,1.5-1.5s-0.7-1.5-1.5-1.5c-2.9,0-5.7-0.1-8.6-0.4
				c-0.8-0.1-1.5,0.7-1.5,1.5C24.6,3.2,25.3,3.7,26.1,3.8z"/>
			<path class="st0" d="M39.7,14.7c0.7,0,1.6-0.7,1.5-1.5C41,11.1,41,9.1,41.2,7c0,0.1,0.1,0.2,0.1,0.2c0.4,0.6,0.9,1.2,1.4,1.8
				c0.6,0.7,1.3,1.4,2.4,1.2c0.8-0.1,1.5-0.8,2.1-1.3c0.4-0.4,0.8-0.8,1.2-1.2c0,1.8,0.1,3.7,0.3,5.5c0.1,0.8,0.6,1.5,1.5,1.5
				c0.8,0,1.6-0.7,1.5-1.5c-0.4-3.4-0.4-6.9,0-10.3c0.1-0.7-0.5-1.3-1.1-1.5c-0.7-0.2-1.3,0.1-1.7,0.7c-0.6,0.9-1.3,1.9-2,2.7
				c-0.3,0.4-0.7,0.9-1.1,1.3c-0.2,0.2-0.5,0.5-0.8,0.7c-0.1-0.1-0.2-0.2-0.3-0.3c-0.3-0.4-0.6-0.8-0.9-1.2c-0.6-0.9-1.2-2-1.6-2.9
				c-0.3-0.7-0.9-1.2-1.6-1.1c-0.7-0.1-1.4,0.4-1.6,1.1c-0.9,3.5-1.2,7.1-0.8,10.6C38.3,14,38.8,14.7,39.7,14.7z"/>
			<path class="st0" d="M56.1,14.3c0.5,0.2,1,0.3,1.5,0.3c0.8,0.1,1.5,0.2,2.3,0.2c1.6,0.1,3.2,0.2,4.8,0.1c0.8,0,1.5-0.7,1.5-1.5
				c0-0.8-0.7-1.5-1.5-1.5c-1.3,0-2.6,0-3.9-0.1c-0.6,0-1.2-0.1-1.9-0.1c-0.3,0-0.6-0.1-0.9-0.1v0c0-0.4,0-0.7,0-1.1
				c0-0.7,0-1.4,0.1-2.2c0.1-1.3,0.4-2.7,0.7-4.1c0.2-0.8-0.2-1.7-1-1.8c-0.8-0.2-1.6,0.2-1.8,1c-0.4,1.6-0.7,3.2-0.8,4.8
				C55.1,9.1,55,9.8,55,10.6c0,0.8-0.1,1.7,0.1,2.5C55.3,13.6,55.6,14,56.1,14.3L56.1,14.3z"/>
		</g>
	</g>
</g>
</svg>
