<?xml version="1.0" encoding="utf-8"?>
<!-- Generator: Adobe Illustrator 26.1.0, SVG Export Plug-In . SVG Version: 6.00 Build 0)  -->
<svg version="1.1" id="Capa_1" xmlns="http://www.w3.org/2000/svg" xmlns:xlink="http://www.w3.org/1999/xlink" x="0px" y="0px"
	 viewBox="0 0 70.8 100" style="enable-background:new 0 0 70.8 100;" xml:space="preserve">
<style type="text/css">
	.st0{fill:#454545;}
</style>
<g id="Capa_2_1_">
	<g id="Capa_1-2">
		<g id="HTML">
			<g id="Capa_1-2-2">
				<g id="Capa_2-2">
					<g id="Capa_1-2-2-2">
						<path class="st0" d="M0,19.6L6.4,92l28.9,8l29-8l6.4-72.3L0,19.6z M35.4,52.6v-0.2H56l-0.2,2.4l-2.1,23.3l-0.1,1.5l-18.2,5
							l0,0l-18.2-5L16,65.7h8.9l0.6,7.1l9.9,2.7l0,0l9.9-2.7l1-11.5H35.4l0,0l0,0l0,0H15.6l-2.2-24.5l-0.2-2.4h44.4l-0.2,2.4
							L57,41.3l-0.2,2H22.9l0.8,9.1h11.7"/>
						<path class="st0" d="M6.6,0h4.5v4.4h4.1V0h4.5v13.5h-4.5V9h-4.1v4.5H6.6V0z"/>
						<path class="st0" d="M25.6,4.5h-4V0h12.5v4.5h-4v9h-4.5C25.6,13.5,25.6,4.5,25.6,4.5z"/>
						<path class="st0" d="M36.1,0h4.7l2.9,4.7L46.6,0h4.7v13.5h-4.5V6.8l-3.1,4.8h-0.1l-3.1-4.8v6.7h-4.4C36.1,13.5,36.1,0,36.1,0z
							"/>
						<path class="st0" d="M53.5,0H58v9h6.3v4.5H53.5V0z"/>
					</g>
				</g>
			</g>
		</g>
	</g>
</g>
</svg>
