<?xml version="1.0" encoding="utf-8"?>
<!-- Generator: Adobe Illustrator 26.1.0, SVG Export Plug-In . SVG Version: 6.00 Build 0)  -->
<svg version="1.1" id="Capa_1" xmlns="http://www.w3.org/2000/svg" xmlns:xlink="http://www.w3.org/1999/xlink" x="0px" y="0px"
	 viewBox="0 0 100 100" style="enable-background:new 0 0 100 100;" xml:space="preserve">
<style type="text/css">
	.st0{fill:#454545;}
</style>
<g id="Capa_2_1_">
	<g id="Capa_1-2">
		<g id="Illustrator">
			<g id="vlpb">
				<g id="vlpc">
					<g id="vlpd">
						<path class="st0" d="M44.9,48.1c0.4,1.1,0.7,2.2,1,3.1H35.2c0.6-1.8,1.2-3.8,1.8-6s1.3-4.2,1.9-6.3c0.6-1.8,1-3.7,1.4-5.5h0.1
							c0.3,1,0.6,2.1,0.9,3.3s0.7,2.5,1.1,3.8s0.8,2.6,1.2,3.9S44.5,46.9,44.9,48.1z"/>
						<path class="st0" d="M82.3,0H17.7C7.8,0.1-0.1,8.2,0,18.1l0,0v63.7c-0.1,9.9,7.8,18,17.7,18.2l0,0h64.6
							c9.9-0.1,17.8-8.2,17.7-18.1l0,0V18.2C100.1,8.3,92.2,0.1,82.3,0L82.3,0z M61.1,70.5h-8.7c-0.3,0-0.6-0.2-0.7-0.5l-3.4-10.2
							H32.8l-3.2,10c-0.1,0.4-0.4,0.6-0.8,0.6H21c-0.5,0-0.6-0.3-0.5-0.8L34,30.1c0.1-0.4,0.2-0.9,0.4-1.4c0.2-0.9,0.2-1.8,0.2-2.8
							c0-0.2,0.1-0.4,0.3-0.5h10.8c0.3,0,0.5,0.1,0.5,0.3l15.2,44C61.7,70.3,61.5,70.5,61.1,70.5z M75.5,70c0,0.5-0.2,0.7-0.5,0.7
							h-8.2c-0.4,0-0.6-0.2-0.6-0.7V37.1c0-0.4,0.2-0.6,0.5-0.6H75c0.4,0,0.5,0.2,0.5,0.6V70z M74.6,31.4c-1,1-2.4,1.6-3.8,1.5
							c-1.4,0-2.7-0.5-3.7-1.5c-1-1.1-1.5-2.5-1.4-3.9c-0.1-1.4,0.5-2.8,1.5-3.8s2.3-1.5,3.7-1.5c1.4-0.1,2.8,0.5,3.8,1.5
							c0.9,1,1.4,2.4,1.4,3.8C76.1,28.9,75.6,30.3,74.6,31.4z"/>
					</g>
				</g>
			</g>
		</g>
	</g>
</g>
</svg>
