<?xml version="1.0" encoding="UTF-8"?><svg xmlns="http://www.w3.org/2000/svg" viewBox="0 0 103.7 103.89"><defs><style>.d{fill:#454545;}</style></defs><g id="a"/><g id="b"><g id="c"><g><path class="d" d="M103.7,2.59c0-.37-.11-.67-.28-.9-.1-.45-.43-.82-1.05-.91C95.97-.16,89.46,.01,83.01,0c-6.47,0-12.94,.04-19.4,.13-13.1,.19-26.2,.57-39.29,1.15-7.46,.33-14.91,.73-22.36,1.18-1.53,.09-1.85,2.03-.92,2.74C.28,30.35,.13,55.51,.04,80.66c-.01,3.45-.05,6.89-.03,10.34,.02,3.44,.21,6.89,1.16,10.21,.36,1.26,1.82,1.3,2.55,.6,.12,.04,.25,.07,.39,.07,25.1,1.52,50.26,2.18,75.41,1.96,7.11-.06,14.23-.2,21.34-.4,1.54-.04,1.85-1.96,.93-2.71,.85-25.48,1.43-50.96,1.73-76.45,.09-7.23,.15-14.46,.19-21.7ZM25.42,99.98c-7.11-.29-14.21-.66-21.32-1.09-.14,0-.27,0-.4,.03-1.19-5.43-.7-11.26-.68-16.76,.02-6.29,.05-12.59,.08-18.88,.07-12.42,.19-24.84,.42-37.26,.13-6.89,.29-13.77,.5-20.66,25.3-1.51,50.65-2.3,75.99-2.34,6.84-.01,13.86-.34,20.67,.56-.15,25.19-.57,50.39-1.25,75.57-.19,7.12-.41,14.24-.65,21.36-24.45,.65-48.93,.49-73.37-.52Z"/><path class="d" d="M57.66,47.92c-1.74-.58-3.6-.53-5.41-.51l-5.59,.05c-.81,0-1.5,.68-1.5,1.5,0,.52,.28,.99,.7,1.26-.2,8.04-.6,16.07-1.21,24.09-.16,2.06-.33,4.13-.51,6.19-.16,1.73-.39,3.09-2.23,3.65-2.11,.64-5.68,.26-6.14-2.37-.13-.76-.68-1.08-1.26-1.08-.48-.41-1.12-.48-1.72-.19-2.31,1.1-4.41,2.72-6.05,4.69-.26,.31-.44,.64-.44,1.06,0,.24,.08,.51,.2,.74-.12,.35-.1,.76,.13,1.18,4.42,7.77,14.41,11.78,22.47,6.92,8.63-5.21,7.69-16.61,7.59-25.3l-.2-19.11c.13,.03,.26,.07,.39,.11,.77,.25,1.64-.29,1.85-1.05,.22-.82-.28-1.59-1.05-1.85Zm-4.03,17.66c.05,4.7,.29,9.44,0,14.13-.24,3.8-1.01,7.93-3.66,10.83-2.61,2.86-6.71,4.17-10.52,3.58-4.33-.66-7.97-3.57-10.15-7.29,.25-.27,.48-.55,.75-.81,.22-.21,.44-.42,.67-.62,.11-.09,.22-.19,.33-.28,.06-.05,.12-.1,.19-.15,.02-.02,.09-.07,.13-.1,.06-.04,.12-.09,.18-.13,.12-.09,.23-.17,.35-.25,.25-.17,.51-.34,.77-.5,.17-.1,.35-.19,.53-.29,1.12,2.59,4.31,3.8,7.04,3.72,1.76-.05,3.69-.53,5.02-1.75,1.69-1.54,1.75-3.8,1.94-5.92,.86-9.75,1.4-19.53,1.65-29.32,1.06-.01,2.13-.02,3.19-.03,.48,0,.96-.01,1.43-.02l.16,15.18Z"/><path class="d" d="M93.27,76.19c-1.48-2.64-3.68-4.89-6.24-6.51-2.69-1.7-5.79-2.28-8.66-3.56-2.22-.98-6.07-4.15-3.91-6.93,2.04-2.61,5.58-.89,7.98,.7-.05,.34,0,.73,.17,1.01,.4,.62,1.38,1.04,2.05,.54,2.16-1.64,4.32-3.27,6.49-4.91,.32-.25,.58-.49,.69-.9,.1-.36,.05-.84-.15-1.16-.11-.17-.28-.33-.46-.46-3.32-4.2-8.48-6.62-13.86-6.51-5.53,.1-10.5,3-13.4,7.7-2.82,4.58-3.51,10.54-1.28,15.5,1.32,2.94,3.91,4.55,6.96,5.29,2.86,.69,6.4,.48,8.83,2.35,1.05,.81,2.04,2.32,1.64,3.7-.35,1.22-1.59,1.7-2.74,1.82-3.42,.36-7.06-1.58-9.84-3.33-.8-.5-1.56-.14-1.95,.47-2.05,.89-3.93,2.07-5.59,3.58-.02,.02-.03,.05-.05,.07-.14,.11-.27,.24-.37,.41-1.74,2.79,2.29,5.47,4.25,6.76,2.34,1.54,5.01,2.63,7.74,3.21,5.69,1.21,11.98,.39,16.86-2.9,5.24-3.54,8.1-10.1,4.82-15.96Zm-1.71,6.89c-1.24,5.8-7.57,8.94-13.03,9.43-3.04,.27-6.09-.13-8.96-1.15-1.37-.49-2.68-1.14-3.91-1.92-.36-.23-3.28-2.26-3.48-2.77,.2-.18,.4-.35,.6-.52,.1-.09,.21-.17,.32-.26h.02l.08-.08c.46-.35,.94-.67,1.43-.97,.48-.29,.97-.56,1.47-.81,.24-.12,.49-.23,.74-.34h0l.07-.03c4.12,2.43,10.93,5.32,14.79,1.45,1.99-2,1.84-5.07,.33-7.3-1.75-2.57-4.71-3.52-7.65-4.02-2.77-.47-6.36-.61-8.23-3.04-1.62-2.1-1.98-5.19-1.74-7.75,.47-5.06,3.82-10.02,8.7-11.73,5.16-1.81,11.42-.35,15.09,3.75-1.2,.91-2.4,1.82-3.6,2.73-2.34-1.67-4.99-3.1-7.96-2.76-2.56,.29-5.01,1.91-5.58,4.55-.57,2.6,.69,5.3,2.56,7.08,2.16,2.06,5.14,2.86,7.89,3.81,5.03,1.74,11.36,6.57,10.05,12.66Z"/></g></g></g></svg>