<?xml version="1.0" encoding="utf-8"?>
<!-- Generator: Adobe Illustrator 26.1.0, SVG Export Plug-In . SVG Version: 6.00 Build 0)  -->
<svg version="1.1" id="Capa_1" xmlns="http://www.w3.org/2000/svg" xmlns:xlink="http://www.w3.org/1999/xlink" x="0px" y="0px"
	 viewBox="0 0 103.7 103.9" style="enable-background:new 0 0 103.7 103.9;" xml:space="preserve">
<style type="text/css">
	.st0{fill:#F7DF1E;}
</style>
<g id="a">
</g>
<g id="b">
	<g id="c">
		<g>
			<path class="st0" d="M103.7,2.6c0-0.4-0.1-0.7-0.3-0.9c-0.1-0.4-0.4-0.8-1.1-0.9C96-0.2,89.5,0,83,0c-6.5,0-12.9,0-19.4,0.1
				C50.5,0.3,37.4,0.7,24.3,1.3C16.9,1.6,9.4,2,2,2.5C0.4,2.5,0.1,4.5,1,5.2C0.3,30.4,0.1,55.5,0,80.7C0,84.1,0,87.6,0,91
				c0,3.4,0.2,6.9,1.2,10.2c0.4,1.3,1.8,1.3,2.5,0.6c0.1,0,0.2,0.1,0.4,0.1c25.1,1.5,50.3,2.2,75.4,2c7.1-0.1,14.2-0.2,21.3-0.4
				c1.5,0,1.8-2,0.9-2.7c0.8-25.5,1.4-51,1.7-76.4C103.6,17,103.7,9.8,103.7,2.6L103.7,2.6z M25.4,100c-7.1-0.3-14.2-0.7-21.3-1.1
				c-0.1,0-0.3,0-0.4,0C2.5,93.5,3,87.7,3,82.2c0-6.3,0-12.6,0.1-18.9C3.2,50.9,3.3,38.4,3.5,26C3.7,19.1,3.8,12.3,4,5.4
				C29.3,3.9,54.7,3.1,80,3c6.8,0,13.9-0.3,20.7,0.6c-0.2,25.2-0.6,50.4-1.2,75.6c-0.2,7.1-0.4,14.2-0.7,21.4
				C74.3,101.2,49.8,101,25.4,100L25.4,100z"/>
			<path class="st0" d="M57.7,47.9c-1.7-0.6-3.6-0.5-5.4-0.5l-5.6,0c-0.8,0-1.5,0.7-1.5,1.5c0,0.5,0.3,1,0.7,1.3
				c-0.2,8-0.6,16.1-1.2,24.1c-0.2,2.1-0.3,4.1-0.5,6.2c-0.2,1.7-0.4,3.1-2.2,3.7c-2.1,0.6-5.7,0.3-6.1-2.4
				c-0.1-0.8-0.7-1.1-1.3-1.1c-0.5-0.4-1.1-0.5-1.7-0.2c-2.3,1.1-4.4,2.7-6,4.7c-0.3,0.3-0.4,0.6-0.4,1.1c0,0.2,0.1,0.5,0.2,0.7
				c-0.1,0.3-0.1,0.8,0.1,1.2c4.4,7.8,14.4,11.8,22.5,6.9c8.6-5.2,7.7-16.6,7.6-25.3l-0.2-19.1c0.1,0,0.3,0.1,0.4,0.1
				c0.8,0.2,1.6-0.3,1.8-1C59,48.9,58.5,48.2,57.7,47.9L57.7,47.9z M53.6,65.6c0,4.7,0.3,9.4,0,14.1c-0.2,3.8-1,7.9-3.7,10.8
				c-2.6,2.9-6.7,4.2-10.5,3.6c-4.3-0.7-8-3.6-10.1-7.3c0.2-0.3,0.5-0.6,0.8-0.8c0.2-0.2,0.4-0.4,0.7-0.6c0.1-0.1,0.2-0.2,0.3-0.3
				c0.1-0.1,0.1-0.1,0.2-0.2c0,0,0.1-0.1,0.1-0.1c0.1,0,0.1-0.1,0.2-0.1c0.1-0.1,0.2-0.2,0.4-0.2c0.2-0.2,0.5-0.3,0.8-0.5
				c0.2-0.1,0.3-0.2,0.5-0.3c1.1,2.6,4.3,3.8,7,3.7c1.8-0.1,3.7-0.5,5-1.8c1.7-1.5,1.8-3.8,1.9-5.9c0.9-9.8,1.4-19.5,1.7-29.3
				c1.1,0,2.1,0,3.2,0c0.5,0,1,0,1.4,0L53.6,65.6L53.6,65.6z"/>
			<path class="st0" d="M93.3,76.2c-1.5-2.6-3.7-4.9-6.2-6.5c-2.7-1.7-5.8-2.3-8.7-3.6c-2.2-1-6.1-4.2-3.9-6.9c2-2.6,5.6-0.9,8,0.7
				c-0.1,0.3,0,0.7,0.2,1c0.4,0.6,1.4,1,2.1,0.5c2.2-1.6,4.3-3.3,6.5-4.9c0.3-0.2,0.6-0.5,0.7-0.9c0.1-0.4,0.1-0.8-0.2-1.2
				c-0.1-0.2-0.3-0.3-0.5-0.5c-3.3-4.2-8.5-6.6-13.9-6.5c-5.5,0.1-10.5,3-13.4,7.7c-2.8,4.6-3.5,10.5-1.3,15.5
				c1.3,2.9,3.9,4.6,7,5.3c2.9,0.7,6.4,0.5,8.8,2.3c1.1,0.8,2,2.3,1.6,3.7c-0.3,1.2-1.6,1.7-2.7,1.8c-3.4,0.4-7.1-1.6-9.8-3.3
				C66.7,80,66,80.4,65.6,81c-2,0.9-3.9,2.1-5.6,3.6c0,0,0,0.1,0,0.1c-0.1,0.1-0.3,0.2-0.4,0.4c-1.7,2.8,2.3,5.5,4.2,6.8
				c2.3,1.5,5,2.6,7.7,3.2c5.7,1.2,12,0.4,16.9-2.9C93.7,88.6,96.5,82,93.3,76.2L93.3,76.2z M91.6,83.1c-1.2,5.8-7.6,8.9-13,9.4
				c-3,0.3-6.1-0.1-9-1.2c-1.4-0.5-2.7-1.1-3.9-1.9c-0.4-0.2-3.3-2.3-3.5-2.8c0.2-0.2,0.4-0.3,0.6-0.5c0.1-0.1,0.2-0.2,0.3-0.3h0
				l0.1-0.1c0.5-0.3,0.9-0.7,1.4-1c0.5-0.3,1-0.6,1.5-0.8c0.2-0.1,0.5-0.2,0.7-0.3l0,0l0.1,0c4.1,2.4,10.9,5.3,14.8,1.4
				c2-2,1.8-5.1,0.3-7.3c-1.8-2.6-4.7-3.5-7.7-4c-2.8-0.5-6.4-0.6-8.2-3c-1.6-2.1-2-5.2-1.7-7.8c0.5-5.1,3.8-10,8.7-11.7
				c5.2-1.8,11.4-0.3,15.1,3.8c-1.2,0.9-2.4,1.8-3.6,2.7c-2.3-1.7-5-3.1-8-2.8c-2.6,0.3-5,1.9-5.6,4.5c-0.6,2.6,0.7,5.3,2.6,7.1
				c2.2,2.1,5.1,2.9,7.9,3.8C86.5,72.2,92.9,77,91.6,83.1L91.6,83.1z"/>
		</g>
	</g>
</g>
</svg>
