<?xml version="1.0" encoding="UTF-8"?><svg xmlns="http://www.w3.org/2000/svg" viewBox="0 0 283.65 60.2"><defs><style>.d{fill:#454545;}</style></defs><g id="a"/><g id="b"><g id="c"><g><path class="d" d="M10.29,17.53c.89,.83,1.87,1.65,3.13,1.75,1.05,.08,2.15-.26,3.03-.83,1.73-1.12,2.87-3.17,2.64-5.25-.22-2.06-1.62-3.9-3.51-4.69-.12-.22-.35-.39-.6-.36-.64,.07-1.25-.19-1.88-.19-.58,0-1.15,.17-1.65,.46-1,.57-1.63,1.56-2.07,2.59-.51,1.18-1.06,2.49-.81,3.79,.2,1.09,.95,2,1.74,2.74h0Zm.07-5.31h0c.35-.91,.76-1.91,1.58-2.49,.39-.28,.83-.43,1.32-.38,.3,.03,.59,.09,.88,.14,.06,.03,.12,.06,.2,.08,1.51,.34,2.76,1.5,3.21,3,.46,1.51-.06,3.1-1.19,4.19-.56,.53-1.24,.92-2,1.08-1,.22-1.75-.12-2.51-.76-.68-.57-1.41-1.2-1.79-2.02-.43-.94-.06-1.93,.28-2.83Z"/><path class="d" d="M18.99,21.99h0c-3.14-.26-6.28-.39-9.44-.4-.47,0-.69,.38-.67,.75-.18,.11-.3,.29-.3,.56,.03,9.66,.06,19.31,.09,28.97,0,.89,1.39,.89,1.39,0v-.16c1.47,.09,2.94,.19,4.4,.28,1.48,.09,2.96,.19,4.42-.18,.72-.18,.59-1.13,.03-1.32,0-.04,.01-.08,.02-.12,.36-9.05,.54-18.11,.56-27.17,.33-.36,.16-1.16-.5-1.21Zm-1.4,28.66h0c-1.09,.12-2.2,.02-3.3-.05-1.41-.09-2.82-.18-4.23-.27l-.08-27.34c2.71,.01,5.42,.12,8.12,.33-.01,9.02-.2,18.04-.55,27.06,0,.1,.01,.19,.04,.27Z"/><path class="d" d="M49.02,22.6h0c-1.14-.98-2.56-1.34-4.02-1.55-1.52-.22-3.07-.45-4.61-.33-1.68,.12-3.14,.69-4.47,1.73-.97,.76-1.84,1.65-2.9,2.28,0-.15,0-.3,0-.45,0-.24,.03-.48,.06-.72v-.09c.23-.12,.38-.38,.38-.62,0-.39-.29-.63-.64-.69-.04-.02-.08-.03-.12-.04-.1-.02-.21-.02-.31,0-2.65-.27-5.31-.39-7.97-.36-.12,0-.23,.03-.32,.08-.4-.11-.9,.1-.9,.64,0,9.3,0,18.6,.01,27.89,0,.25,.12,.44,.28,.55,.09,.24,.29,.43,.63,.42,2.94-.05,5.89-.03,8.83,.03,.86,.02,.89-1.25,.11-1.38,.2-3.08,.4-6.16,.61-9.25,.11-1.59,.17-3.19,.33-4.78,.14-1.38,.44-2.79,1.21-3.95,.63-.94,1.62-1.75,2.78-1.87,1.21-.12,2.33,.55,3.12,1.42,1.92,2.12,1.78,5.55,1.8,8.21,.02,3.6-.31,7.19-.99,10.73-.04,.22,.01,.42,.12,.56,.01,.33,.23,.64,.67,.61,2.88-.21,5.78-.26,8.67-.15,.58,.02,.78-.55,.61-.97,.06-.09,.1-.2,.11-.33,.62-6.93,.53-13.92-.32-20.82-.3-2.39-.79-5.15-2.72-6.82Zm1.66,27.52h0c-2.45-.07-4.9-.03-7.34,.13,.6-3.31,.92-6.66,.93-10.02,0-3.05,.1-6.7-1.87-9.24-1.73-2.23-4.73-2.99-7.05-1.17-2.59,2.03-2.75,5.49-2.94,8.51-.25,3.88-.51,7.76-.76,11.64-2.35-.04-4.7-.05-7.06-.02,0-8.93,0-17.86-.01-26.8,2.38-.02,4.76,.07,7.12,.29-.1,.76-.11,1.52-.01,2.28,.02,.19,.06,.35,.2,.49,.12,.12,.32,.21,.49,.2,.06,0,.12-.01,.18-.03,.14,0,.29-.02,.43-.08,2.39-1.01,3.79-3.49,6.41-4.06,1.41-.31,2.9-.15,4.32,.02,1.38,.17,2.93,.3,4.09,1.13,1.91,1.36,2.31,4.08,2.57,6.24,.38,3.19,.61,6.4,.68,9.61,.08,3.63-.05,7.26-.37,10.87Z"/><path class="d" d="M60.19,2.05h0c-1.1-1.32-3.01-1.99-4.75-1.98-.09-.05-.19-.07-.31-.07-12.46,.12-24.92,.34-37.37,.22-3.54-.04-7.07-.1-10.59-.22-.06,0-.12,0-.18,.02-.02,0-.05,0-.07,0C4.83-.04,2.36,.2,1.47,2.43c-.41,1.02-.44,2.22-.57,3.3-.16,1.23-.31,2.45-.47,3.68-.02,.16,.05,.31,.15,.43C.13,21.54-.06,33.25,.02,44.96c.02,3.03,.06,6.06,.12,9.08-.06,.1-.08,.2-.07,.31,.03,.22,.06,.44,.09,.66v.1c0,.1,.02,.19,.06,.27,.25,1.44,.73,2.88,2.08,3.66,.85,.5,1.86,.66,2.82,.81,1.09,.17,2.18,.28,3.28,.32,.06,.02,.13,.03,.21,.03,12.15-.26,24.3-.52,36.44-.78,3.46-.07,6.92-.15,10.38-.22,.12,0,.23-.04,.32-.08,.59,.06,1.18,.08,1.77-.05,.93-.2,1.56-.82,2-1.63,.88-1.59,1.52-3.45,1.08-5.26,.31-11.49,.44-22.98,.4-34.47,0-2.94-.04-5.89-.07-8.83,.07-.11,.12-.25,.13-.39,.14-1.14,.18-2.29,.07-3.44-.1-1.06-.23-2.15-.94-3.01Zm-.4,4.98c-.16,.11-.27,.29-.26,.54,.15,11.91,.11,23.82-.12,35.73-.06,2.9-.12,5.81-.2,8.71-.02,.09-.03,.19,0,.31,0,.38-.01,.75-.03,1.13,0,.19,.06,.33,.15,.44-.1,.93-.47,1.85-.9,2.67-.3,.56-.59,1.02-1.24,1.18-.58,.13-1.23,.05-1.82-.05-.23-.04-.45,.02-.62,.15-11.92,.25-23.85,.51-35.77,.76l-10.29,.22s-.09-.02-.13-.02c-.95-.03-1.9-.11-2.85-.25-.82-.13-1.74-.23-2.5-.59-1.14-.55-1.49-1.78-1.67-2.96-.23-11.96-.19-23.94,.13-35.9,.09-3.38,.2-6.77,.33-10.15,0-.14-.03-.25-.08-.35,.1-.76,.19-1.52,.3-2.29,.13-.98,.19-1.99,.42-2.95,.48-1.97,2.62-2,4.29-1.96,.06,0,.12,0,.18-.02,.02,0,.05,0,.07,0,12.44,.39,24.88,.23,37.32,.11,3.27-.03,6.55-.06,9.83-.1,.11,.08,.24,.13,.38,.11,.84-.11,1.67-.04,2.47,.22,.74,.24,1.58,.67,2.05,1.31,.48,.64,.51,1.62,.56,2.39,.04,.54,.04,1.07,.02,1.61h0Z"/><path class="d" d="M90.79,38.87c-3.52,.64-7.15,.45-10.6-.46-.06-.02-.11-.02-.16-.03,0-.36,0-.71-.01-1.07,0-.8,0-1.6,.02-2.4,.03-1.67,.09-3.33,.19-5,.19-3.33,.51-6.65,.98-9.95,.11-.81-.2-1.6-1.05-1.85-.7-.2-1.73,.25-1.85,1.05-.57,4.1-.98,8.21-1.17,12.34-.09,2-.13,4-.13,6,0,1.58-.05,4.12,2.19,4.07,.26,0,.48-.07,.67-.17,3.84,.95,7.81,1.05,11.71,.35,.8-.14,1.25-1.11,1.05-1.85-.23-.84-1.05-1.19-1.85-1.05Z"/><path class="d" d="M117.23,40.15c-4.45,.35-8.9,.07-13.26-.88-.17-.04-.34-.04-.5-.03-.05-.4,.03-.89,.05-1.18,.06-.77,.14-1.54,.22-2.31,.15-1.64,.31-3.27,.46-4.91l.08-.82c.1,0,.2-.02,.3-.05,.35-.1,.71-.18,1.07-.25,.15-.03,.31-.06,.46-.08,.02,0,.21-.03,.27-.04,.68-.08,1.37-.12,2.06-.11,.34,0,.68,.02,1.02,.05,.16,.01,.31,.03,.47,.05h.09c.07,.02,.14,.03,.2,.04,.7,.11,1.38,.28,2.06,.48,.75,.23,1.67-.27,1.85-1.05,.18-.81-.24-1.6-1.05-1.85-2.75-.84-5.7-.94-8.51-.33l.4-4.2c3.64-.19,7.3-.06,10.91,.46,.8,.12,1.61-.2,1.85-1.05,.19-.7-.24-1.73-1.05-1.85-4.07-.59-8.17-.78-12.28-.54-.85-.37-2.16,.06-2.27,1.3-.35,3.66-.69,7.33-1.04,10.99-.17,1.83-.35,3.66-.52,5.5-.15,1.61-.1,2.98,.93,4.29,.37,.47,1.04,.53,1.59,.32,.03,0,.06,.02,.09,.03,4.61,1,9.35,1.35,14.06,.98,.81-.06,1.5-.64,1.5-1.5,0-.76-.69-1.56-1.5-1.5Z"/><path class="d" d="M143.46,28.86c-.76-3.33-1.29-6.99-3.42-9.77-.5-.65-1.29-.97-2.05-.54-.08,.05-.16,.11-.24,.18-.24,.06-.47,.2-.68,.44-5.23,6.07-7.45,13.85-9.17,21.51-.42,1.88,2.47,2.68,2.89,.8,.34-1.49,.69-3,1.08-4.5,.1,.02,.21,.03,.32,.03,3.41-.13,6.83,.06,10.2,.61,.27,1.17,.54,2.35,.81,3.52,.43,1.88,3.32,1.08,2.89-.8-.88-3.83-1.75-7.66-2.63-11.49Zm-10.75,5.15c1.28-4.23,3.01-8.31,5.73-11.79,1.22,2.41,1.63,5.25,2.22,7.84,.34,1.48,.68,2.97,1.02,4.45-2.97-.41-5.97-.59-8.97-.5Z"/><path class="d" d="M173.98,38.89l-.06-.08c-.06-.08-.12-.16-.19-.25-.12-.16-.25-.33-.37-.5-.5-.69-.99-1.39-1.45-2.1-.8-1.24-1.54-2.52-2.22-3.82,.97-.63,1.82-1.47,2.44-2.6,1.05-1.89,1.12-4.17,.95-6.27-.09-1.14-.39-2.28-1.29-3.05-.8-.69-1.76-1.01-2.79-1.15-2.54-.35-5.24-.01-7.72,.57-.43,.1-.76,.42-.94,.81-.28,.28-.45,.67-.49,1.09-.49,4.58-.81,9.19-.95,13.79-.07,2.22-.19,4.48-.08,6.71,.05,.9,.34,1.77,1.25,2.14,.89,.36,1.79,0,2.29-.79,.53-.83,.12-1.62-.54-1.99v-.2c0-.49,0-.98,0-1.47,0-.84,.02-1.68,.03-2.51,.02-1.09,.07-2.17,.11-3.26,1.65-.03,3.37-.17,4.96-.61,1.58,3.07,3.5,5.95,5.69,8.62,.5,.61,1.61,.56,2.12,0,.59-.65,.53-1.47,0-2.12-.26-.32-.51-.63-.77-.96Zm-7.31-8.57c-1.47,.53-3.02,.64-4.57,.65,.16-2.87,.38-5.73,.67-8.58,1.59-.32,3.21-.47,4.84-.43,.31,0,.78,.03,.99,.06,.02,0,.29,.06,.39,.08,.08,.02,.17,.04,.25,.07,.02,0,.12,.04,.14,.04,.14,.06,.27,.14,.39,.22-.16-.11,.15,.17,.04,.02,.18,.23,.22,.5,.25,.73,.17,1.48,.24,3.33-.45,4.7-.59,1.18-1.74,2.01-2.96,2.45Z"/><path class="d" d="M203.72,19.05c-.89,0-1.4,.69-1.5,1.5-.67,5.48-1.1,10.99-1.33,16.51-1.95-2.73-3.76-5.57-5.4-8.5-1.08-1.92-2.08-3.88-3.02-5.87-.44-.94-.75-2.17-1.67-2.78-.39-.26-.78-.37-1.15-.35-.19-.09-.4-.14-.59-.14-.88,0-1.42,.7-1.5,1.5-.69,6.71-1.37,13.42-2.06,20.13-.08,.81,.75,1.49,1.5,1.5,.88,0,1.42-.7,1.5-1.5,.55-5.42,1.11-10.83,1.66-16.25,.35,.74,.72,1.48,1.09,2.22,.87,1.7,1.79,3.38,2.77,5.02,1.92,3.24,4.05,6.35,6.35,9.34,.49,.64,1.29,.99,2.05,.54,.2-.12,.38-.31,.51-.53,.46-.21,.82-.64,.84-1.29,.17-6.53,.65-13.04,1.45-19.53,.1-.81-.76-1.5-1.5-1.5Z"/><path class="d" d="M219.83,20.55c.19,7.04-.61,14.1-1.15,21.12-.15,1.93,2.85,1.92,3,0,.53-7.01,1.34-14.07,1.15-21.12-.05-1.93-3.05-1.93-3,0Z"/><path class="d" d="M283.65,34.49c-.04-.81-.66-1.5-1.5-1.5h-6.18c-.78,0-1.54,.69-1.5,1.5,.04,.81,.66,1.5,1.5,1.5h4.19c0,3.57-3.17,6.57-6.77,6.17-4.12-.46-6.19-4.06-6.46-7.87-.15-2.02-.1-4.09,.05-6.1,.14-1.89,.51-3.94,1.85-5.37,2.77-2.94,7.28-1.68,8.81,1.8,.77,1.76,3.36,.24,2.59-1.51-1.61-3.68-5.81-5.71-9.68-4.66-4.36,1.19-6.17,5.2-6.54,9.37-.36,4.1-.58,9.07,1.68,12.7,2.03,3.25,5.98,5.14,9.78,4.57,4.4-.66,7.79-4.77,7.7-9.2,0-.1-.02-.19-.03-.27,.32-.28,.54-.68,.52-1.12Z"/><path class="d" d="M252.43,39.03c-.08-6.17,.07-12.33,.47-18.49,.13-1.93-2.87-1.92-3,0-.38,5.8-.53,11.61-.48,17.41-2.14-1.5-3.4-4.55-4.48-6.69-1.97-3.87-3.93-7.73-5.9-11.6-.44-.86-1.3-.91-1.94-.54-.69,.07-1.35,.54-1.39,1.43l-.82,22.43c-.07,1.93,2.93,1.93,3,0,.22-5.9,.43-11.8,.65-17.71,1.5,2.95,3,5.91,4.51,8.86s3.4,5.91,6.42,7.14c0,.03,0,.06,0,.09,.04,1.78,2.6,1.92,2.96,.4,1.1-.39,1.1-2.16,.02-2.75Z"/></g></g></g></svg>