<?xml version="1.0" encoding="UTF-8"?><svg id="a" xmlns="http://www.w3.org/2000/svg" viewBox="0 0 802.4 100.4"><defs><style>.f{fill:#444;}</style></defs><g id="b"><g><path class="f" d="M501.8,69.82c-.5,0-.9-.1-1.3-.4s-.5-.6-.5-.9v-31.1c0-.4,.2-.7,.5-.9,.3-.3,.7-.4,1.3-.4h8.2c1.9,0,3.6,.3,5.1,1s2.7,1.7,3.6,3.2c.9,1.5,1.3,3.4,1.3,5.9v13.6c0,2.5-.4,4.4-1.3,5.9-.9,1.5-2.1,2.5-3.6,3.2s-3.2,1-5.1,1l-8.2-.1h0Zm2.1-3.5h6.1c1.9,0,3.4-.5,4.5-1.6s1.6-2.7,1.6-5v-13.6c0-2.2-.5-3.9-1.6-5s-2.6-1.6-4.5-1.6h-6.1v26.8h0Z"/><path class="f" d="M527.4,69.82c-.5,0-.9-.1-1.3-.3-.4-.2-.6-.6-.6-1v-31c0-.5,.2-.8,.6-1,.4-.2,.9-.3,1.3-.3,.5,0,.9,.1,1.3,.3,.4,.2,.6,.6,.6,1v31c0,.5-.2,.8-.6,1-.4,.2-.8,.3-1.3,.3Z"/><path class="f" d="M543.9,70.23c-2,0-3.7-.3-5.2-.9s-2.6-1.3-3.4-2.1c-.8-.8-1.2-1.5-1.2-2.2,0-.3,.1-.6,.3-.9,.2-.3,.4-.6,.6-.8s.5-.3,.8-.3c.4,0,.7,.2,1.1,.6,.4,.4,.8,.8,1.3,1.3s1.2,.9,2.1,1.3c.9,.4,2,.6,3.4,.6,1.3,0,2.4-.2,3.4-.6s1.7-1,2.2-1.9,.8-1.9,.8-3.2-.3-2.4-.8-3.2c-.6-.8-1.3-1.5-2.2-2.1s-1.9-1-3-1.5c-1.1-.4-2.1-.9-3.2-1.3-1.1-.4-2.1-1-3-1.7s-1.6-1.5-2.2-2.6c-.6-1-.8-2.4-.8-4,0-1.7,.3-3.1,.9-4.2,.6-1.1,1.4-2,2.4-2.6s2.1-1.1,3.3-1.4c1.2-.3,2.3-.4,3.5-.4,.8,0,1.7,.1,2.6,.2,.9,.1,1.8,.3,2.6,.6,.8,.2,1.5,.6,2,.9,.5,.4,.8,.8,.8,1.4,0,.2-.1,.5-.2,.9-.1,.3-.3,.6-.6,.9-.2,.3-.6,.4-.9,.4s-.8-.1-1.2-.4c-.5-.3-1.1-.6-2-.9-.8-.3-1.9-.4-3.2-.4-1.1,0-2.1,.2-3.1,.5s-1.7,.8-2.3,1.5-.9,1.6-.9,2.8c0,1.1,.3,2,.8,2.7,.6,.7,1.3,1.3,2.2,1.8s1.9,.9,3,1.3c1.1,.4,2.2,.8,3.2,1.3,1.1,.5,2.1,1.1,3,1.9,.9,.7,1.6,1.7,2.2,2.9,.6,1.2,.8,2.7,.8,4.5,0,2.2-.4,4-1.3,5.5-.9,1.4-2.1,2.5-3.6,3.2-1.2,.2-3,.6-5,.6h0Z"/><path class="f" d="M560.7,69.82c-.4,0-.8-.1-1.2-.3-.4-.2-.6-.6-.6-1v-31c0-.5,.2-.8,.6-1,.4-.2,.8-.3,1.2-.3h16.4c.5,0,.8,.2,1,.6,.2,.4,.3,.8,.3,1.1,0,.5-.1,.9-.3,1.3-.2,.4-.6,.6-1,.6h-14.3v11.5h7.2c.4,0,.8,.2,1,.5s.3,.7,.3,1.1-.1,.7-.3,1.1c-.2,.3-.5,.5-1,.5h-7.2v11.8h14.3c.4,0,.8,.2,1,.5,.2,.4,.3,.8,.3,1.3,0,.4-.1,.8-.3,1.1-.2,.4-.5,.6-1,.6h-16.4Z"/><path class="f" d="M584.9,69.82c-.5,0-.9-.1-1.3-.3-.4-.2-.6-.6-.6-1v-31c0-.5,.2-.8,.6-1,.4-.2,.9-.3,1.3-.3,.5,0,.9,.1,1.2,.3s.6,.5,.9,.8c.3,.4,.6,.8,.8,1.4l11.4,22.5v-23.8c0-.5,.2-.8,.6-1,.4-.2,.9-.3,1.3-.3,.5,0,.9,.1,1.3,.3,.4,.2,.6,.6,.6,1v31c0,.5-.2,.8-.6,1-.4,.2-.9,.3-1.3,.3s-.9-.2-1.4-.5c-.4-.3-.8-.7-1-1.2l-12.1-23.2v23.6c0,.5-.2,.8-.6,1-.2,.3-.6,.5-1.1,.4h0Zm11.7-35.3c-.9,0-1.7-.1-2.3-.4-.6-.3-1.3-.5-1.9-.8-.6-.2-1.3-.4-2.1-.4-.6,0-1.2,.1-1.6,.3-.4,.2-.8,.4-1.1,.7s-.6,.3-.8,.3-.4-.1-.6-.2c-.2-.2-.3-.3-.3-.6-.1-.2-.1-.4-.1-.6,0-.5,.1-1,.4-1.3,.3-.3,.7-.6,1.1-.9,.4-.2,.9-.4,1.3-.5,.5-.1,.9-.2,1.1-.2,.9,0,1.6,.1,2.2,.4,.6,.2,1.2,.5,1.9,.8,.6,.3,1.3,.4,2.1,.4,.7,0,1.2-.1,1.6-.3,.4-.2,.7-.4,1-.6s.5-.3,.8-.3,.5,.1,.6,.2c.2,.2,.3,.3,.3,.5,.1,.2,.1,.4,.1,.5,0,.6-.1,1-.4,1.4-.3,.4-.6,.6-1.1,.9-.4,.2-.8,.4-1.3,.4-.3,.3-.6,.3-.9,.3h0Z"/><path class="f" d="M610,69.82c-.3,0-.7-.1-1-.2-.4-.1-.7-.3-.9-.6-.2-.2-.3-.5-.3-.8v-.4l9.5-30.7c.1-.5,.4-.8,.9-1s1-.3,1.5-.3c.6,0,1.1,.1,1.5,.3,.5,.2,.7,.6,.9,1l9.4,30.7c.1,.1,.1,.2,.1,.3,0,.3-.1,.6-.4,.8-.3,.2-.6,.4-.9,.6-.4,.2-.7,.2-1.1,.2-.3,0-.6-.1-.9-.2-.2-.1-.4-.4-.5-.7l-2.1-6.9h-12.1l-2,6.9c-.1,.3-.3,.5-.5,.7-.4,.2-.7,.3-1.1,.3h0Zm4.4-10.9h10.3l-5.2-17.4-5.1,17.4h0Z"/><path class="f" d="M637.6,69.82c-.5,0-.9-.1-1.3-.4-.3-.3-.5-.6-.5-.9v-31.1c0-.4,.2-.7,.5-.9,.3-.3,.7-.4,1.3-.4h8.2c1.9,0,3.6,.3,5.1,1s2.7,1.7,3.6,3.2c.9,1.5,1.3,3.4,1.3,5.9v13.6c0,2.5-.4,4.4-1.3,5.9-.9,1.5-2.1,2.5-3.6,3.2s-3.2,1-5.1,1l-8.2-.1h0Zm2.1-3.5h6.1c1.9,0,3.4-.5,4.5-1.6s1.6-2.7,1.6-5v-13.6c0-2.2-.5-3.9-1.6-5s-2.6-1.6-4.5-1.6h-6.1v26.8h0Z"/><path class="f" d="M671,70.13c-1.9,0-3.6-.3-5.1-1s-2.7-1.7-3.6-3.2c-.9-1.5-1.3-3.4-1.3-5.9v-13.9c0-2.5,.4-4.4,1.3-5.9,.9-1.5,2.1-2.5,3.6-3.2s3.2-1,5.1-1,3.6,.3,5.1,1,2.7,1.7,3.6,3.2c.9,1.5,1.3,3.4,1.3,5.9v13.9c0,2.5-.4,4.4-1.3,5.9-.9,1.5-2.1,2.5-3.6,3.2-1.5,.7-3.2,1-5.1,1Zm0-3.5c1.9,0,3.4-.5,4.5-1.6s1.6-2.7,1.6-5v-13.8c0-2.2-.5-3.9-1.6-5s-2.6-1.6-4.5-1.6-3.4,.5-4.5,1.6-1.6,2.7-1.6,5v13.9c0,2.2,.5,3.9,1.6,5s2.6,1.5,4.5,1.5Z"/><path class="f" d="M704.5,69.92c-.4,0-.7-.2-1-.5s-.5-.7-.8-1.1l-6.9-13.5h-5.4v13.6c0,.5-.2,.8-.6,1-.4,.2-.9,.3-1.3,.3-.5,0-.9-.1-1.3-.3-.4-.2-.6-.6-.6-1v-31c0-.4,.1-.7,.4-.9s.6-.4,1-.4h8.5c1.9,0,3.6,.3,5.1,.9,1.5,.6,2.8,1.5,3.7,2.9,.9,1.3,1.4,3.2,1.4,5.5,0,1.9-.3,3.4-.9,4.7-.6,1.2-1.4,2.2-2.5,2.9-1,.7-2.2,1.2-3.5,1.5l6.8,13c.1,.1,.1,.2,.1,.3v.3c0,.3-.1,.7-.3,1s-.5,.6-.9,.7c-.3,0-.7,.1-1,.1h0Zm-14.1-18.3h6c1.9,0,3.4-.5,4.6-1.4,1.2-.9,1.8-2.5,1.8-4.7s-.6-3.7-1.8-4.6c-1.2-.9-2.7-1.4-4.6-1.4h-6v12.1h0Z"/><path class="f" d="M729.7,70.13c-.5,0-1-.1-1.5-.3-.5-.2-.8-.6-.9-1l-9.1-30.7v-.4c0-.3,.1-.6,.4-.8s.5-.4,.9-.6c.3-.1,.7-.2,1-.2s.7,.1,.9,.2,.5,.4,.5,.7l7.8,27.4,4.4-16.9c.1-.4,.4-.7,.8-.9,.4-.2,.8-.3,1.2-.3,.5,0,.9,.1,1.3,.3,.4,.2,.6,.5,.7,.9l4.4,16.9,7.8-27.4c.1-.3,.3-.5,.5-.7,.3-.1,.6-.2,.9-.2,.4,0,.7,.1,1.1,.2,.4,.1,.7,.3,.9,.6,.2,.2,.4,.5,.4,.8,0,.2,0,.3-.1,.4l-9,30.7c-.2,.4-.5,.8-.9,1-.5,.2-1,.3-1.5,.3s-1-.1-1.5-.3c-.5-.2-.8-.6-.9-1l-4-15.2-4,15.2c-.1,.4-.4,.8-.9,1-.5,.2-1,.3-1.6,.3h0Z"/><path class="f" d="M760.2,69.82c-.4,0-.8-.1-1.2-.3-.4-.2-.6-.6-.6-1v-31c0-.5,.2-.8,.6-1,.4-.2,.8-.3,1.2-.3h16.4c.5,0,.8,.2,1,.6,.2,.4,.3,.8,.3,1.1,0,.5-.1,.9-.3,1.3-.2,.4-.6,.6-1,.6h-14.3v11.5h7.2c.4,0,.8,.2,1,.5s.3,.7,.3,1.1-.1,.7-.3,1.1c-.2,.3-.5,.5-1,.5h-7.2v11.8h14.3c.4,0,.8,.2,1,.5,.2,.4,.3,.8,.3,1.3,0,.4-.1,.8-.3,1.1-.2,.4-.5,.6-1,.6h-16.4Z"/><path class="f" d="M784.3,69.82c-.5,0-.9-.1-1.3-.4s-.5-.6-.5-.9v-31c0-.5,.2-.8,.6-1,.4-.2,.8-.3,1.2-.3h7.9c1.7,0,3.3,.2,4.7,.6,1.4,.4,2.6,1.2,3.4,2.3,.8,1.1,1.3,2.8,1.3,4.9,0,1.9-.4,3.5-1.1,4.9-.7,1.3-1.7,2.2-2.9,2.7,1,.4,1.8,.9,2.5,1.5s1.3,1.4,1.7,2.4,.6,2.3,.6,3.9v.8c0,2.4-.4,4.3-1.2,5.7-.8,1.4-1.9,2.4-3.3,3-1.4,.6-2.9,.9-4.7,.9h-8.9Zm2.1-19.9h5.8c1.9,0,3.3-.4,4.2-1.3,.9-.8,1.3-2.2,1.3-4.1,0-1.3-.2-2.3-.7-3s-1.1-1.2-2-1.5-1.8-.4-3-.4h-5.6v10.3h0Zm0,16.4h6.2c1.9,0,3.3-.5,4.4-1.5s1.5-2.6,1.5-4.8v-.8c0-2.2-.5-3.8-1.5-4.7s-2.5-1.4-4.4-1.4h-6.2v13.2Z"/></g><g><path class="f" d="M3.7,69.92c-1.1,0-2-.3-2.7-.8-.7-.5-1-1.1-1-1.8V33.12c0-.7,.3-1.3,1-1.8,.7-.5,1.6-.8,2.7-.8H13.2c2.5,0,4.7,.4,6.7,1.2,2,.8,3.6,2.2,4.8,4,1.2,1.9,1.7,4.3,1.7,7.4v13.9c0,3.1-.6,5.6-1.7,7.4-1.2,1.9-2.8,3.2-4.8,4s-4.3,1.2-6.7,1.2H3.7v.3Zm4.7-7.3h4.8c1.5,0,2.7-.4,3.6-1.3,.9-.9,1.3-2.2,1.3-4.1v-14c0-1.8-.4-3.2-1.3-4.1-.9-.9-2-1.3-3.6-1.3h-4.8v24.8Z"/><path class="f" d="M34.5,69.92c-.8,0-1.6-.2-2.4-.5-.8-.3-1.6-.7-2.1-1.2-.6-.5-.9-1.1-.9-1.7,0-.1,0-.3,.1-.6l10-32.8c.3-.9,1-1.6,2-2.1,1.1-.5,2.2-.7,3.4-.7,1.3,0,2.4,.2,3.5,.7s1.7,1.2,2,2.1l10.1,32.8c.1,.3,.1,.5,.1,.6,0,.6-.3,1.2-.9,1.7-.6,.5-1.3,.9-2.1,1.2-.8,.3-1.6,.5-2.4,.5-.7,0-1.3-.1-1.7-.4-.5-.2-.8-.6-1-1.2l-1.8-6.7h-11.4l-1.8,6.7c-.1,.6-.5,1-1,1.2-.5,.3-1.1,.4-1.7,.4Zm6.3-14.8h7.9l-3.9-14.4-4,14.4Z"/><path class="f" d="M74.4,70.23c-1.2,0-2.4-.2-3.4-.7-1.1-.5-1.8-1.2-2-2.1l-10.2-32.8c-.1-.3-.1-.5-.1-.6,0-.7,.3-1.3,.9-1.8,.6-.5,1.3-.9,2.1-1.2,.8-.3,1.6-.5,2.4-.5,.7,0,1.3,.1,1.8,.3,.5,.2,.8,.6,1,1.2l7.5,27.6,7.5-27.6c.2-.6,.5-1,1-1.2s1.1-.3,1.7-.3c.8,0,1.6,.2,2.4,.5s1.5,.7,2.1,1.2c.6,.5,.9,1.1,.9,1.8v.3c0,.1,0,.2-.1,.3l-10,32.8c-.3,.9-1,1.6-2,2.1-1.1,.5-2.2,.7-3.5,.7Z"/><path class="f" d="M97.3,69.92c-1,0-2-.2-2.9-.6s-1.3-1.1-1.3-1.9V33.12c0-.9,.4-1.5,1.3-1.9s1.8-.6,2.9-.6c1,0,2,.2,2.9,.6s1.3,1,1.3,1.9v34.2c0,.9-.4,1.5-1.3,1.9-.9,.5-1.8,.7-2.9,.7Z"/><path class="f" d="M111,69.92c-1.1,0-2-.3-2.7-.8s-1-1.1-1-1.8V33.12c0-.7,.3-1.3,1-1.8s1.6-.8,2.7-.8h9.5c2.5,0,4.7,.4,6.7,1.2,2,.8,3.6,2.2,4.8,4,1.2,1.9,1.7,4.3,1.7,7.4v13.9c0,3.1-.6,5.6-1.7,7.4-1.2,1.9-2.8,3.2-4.8,4s-4.3,1.2-6.7,1.2h-9.5v.3Zm4.7-7.3h4.8c1.5,0,2.7-.4,3.6-1.3,.9-.9,1.3-2.2,1.3-4.1v-14c0-1.8-.4-3.2-1.3-4.1-.9-.9-2-1.3-3.6-1.3h-4.8v24.8Z"/><path class="f" d="M171.9,70.23c-.5,0-1-.1-1.5-.4-.5-.2-.9-.6-1.2-1.2l-7.4-14.3h-3.6v13c0,.9-.4,1.5-1.3,1.9-.9,.4-1.8,.6-2.9,.6-1,0-2-.2-2.9-.6s-1.3-1.1-1.3-1.9V33.12c0-.7,.2-1.3,.7-1.8s1.1-.8,1.9-.8h11.1c2.5,0,4.7,.3,6.7,1s3.6,1.9,4.8,3.6c1.2,1.7,1.8,4,1.8,6.9,0,2-.3,3.7-.8,5.2-.6,1.5-1.3,2.6-2.3,3.6-1,.9-2.1,1.7-3.4,2.2l6.6,11.9c.1,.1,.2,.3,.2,.5s.1,.3,.1,.5c0,.7-.3,1.4-.8,2-.5,.7-1.2,1.2-2,1.7-.9,.4-1.7,.6-2.5,.6Zm-13.6-22.3h5.3c1.5,0,2.7-.4,3.6-1.1,.9-.7,1.3-2,1.3-3.9s-.4-3.2-1.3-3.9c-.9-.7-2-1.1-3.6-1.1h-5.3v10Z"/><path class="f" d="M194.1,70.23c-2.5,0-4.7-.4-6.7-1.2-2-.8-3.6-2.2-4.7-4-1.2-1.9-1.7-4.3-1.7-7.4v-14.4c0-3.1,.6-5.6,1.7-7.4,1.2-1.9,2.7-3.2,4.7-4s4.2-1.2,6.7-1.2,4.7,.4,6.7,1.2c2,.8,3.6,2.2,4.8,4,1.2,1.9,1.7,4.3,1.7,7.4v14.3c0,3.1-.6,5.6-1.7,7.4-1.2,1.9-2.8,3.2-4.8,4-2,.9-4.2,1.3-6.7,1.3Zm0-7.3c1.5,0,2.7-.4,3.6-1.3,.9-.9,1.3-2.2,1.3-4.1v-14.3c0-1.9-.4-3.2-1.3-4.1-.9-.9-2-1.3-3.6-1.3-1.5,0-2.7,.4-3.5,1.3-.8,.9-1.3,2.2-1.3,4.1v14.3c0,1.9,.4,3.2,1.3,4.1,.8,.8,2,1.3,3.5,1.3Z"/><path class="f" d="M216.9,69.92c-1,0-2-.2-2.9-.6s-1.3-1.1-1.3-1.9V34.73c0-1.5,.4-2.6,1.3-3.3,.9-.6,1.8-.9,2.9-.9,1,0,1.9,.1,2.6,.2,.7,.2,1.4,.5,2,1.1,.6,.6,1.3,1.5,2,2.8l5.5,9.7,5.5-9.7c.8-1.3,1.4-2.2,2-2.8,.6-.6,1.2-1,1.9-1.1,.7-.2,1.6-.2,2.6-.2,1.1,0,2,.3,2.9,.9s1.3,1.7,1.3,3.3v32.6c0,.9-.4,1.5-1.3,1.9-.9,.4-1.8,.6-2.9,.6-1,0-2-.2-2.9-.6s-1.3-1.1-1.3-1.9v-20.2l-5.2,8.8c-.4,.6-.8,1-1.3,1.2s-1,.4-1.5,.4-.9-.1-1.4-.3-.9-.6-1.2-1.2l-5.1-9.4v20.7c0,.9-.4,1.5-1.3,1.9-.9,.5-1.9,.7-2.9,.7Z"/><path class="f" d="M254.7,69.92c-.9,0-1.7-.2-2.5-.6s-1.2-1.1-1.2-1.9V33.12c0-.9,.4-1.5,1.2-1.9s1.6-.6,2.5-.6h19.2c.9,0,1.5,.4,1.9,1.2,.4,.8,.6,1.6,.6,2.5,0,1-.2,1.9-.6,2.6-.4,.7-1.1,1.1-1.9,1.1h-14.4v9.1h8.1c.8,0,1.5,.3,1.9,1s.6,1.4,.6,2.3c0,.7-.2,1.4-.6,2.1-.4,.7-1,1-1.9,1h-8.1v9.2h14.4c.8,0,1.5,.4,1.9,1.1s.6,1.6,.6,2.6c0,.9-.2,1.7-.6,2.4-.4,.8-1,1.2-1.9,1.2h-19.2v-.1Z"/><path class="f" d="M302.1,70.23c-.5,0-1.1-.1-1.5-.4-.5-.2-.9-.6-1.2-1.2l-7.4-14.3h-3.6v13c0,.9-.4,1.5-1.3,1.9s-1.8,.6-2.9,.6c-1,0-2-.2-2.9-.6s-1.3-1.1-1.3-1.9V33.12c0-.7,.2-1.3,.7-1.8s1.1-.8,1.9-.8h11.1c2.5,0,4.7,.3,6.7,1s3.6,1.9,4.8,3.6c1.2,1.7,1.8,4,1.8,6.9,0,2-.3,3.7-.8,5.2-.6,1.5-1.3,2.6-2.3,3.6-1,.9-2.1,1.7-3.4,2.2l6.6,11.9c.1,.1,.2,.3,.2,.5s.1,.3,.1,.5c0,.7-.3,1.4-.8,2-.5,.7-1.2,1.2-2,1.7-.9,.4-1.7,.6-2.5,.6Zm-13.7-22.3h5.3c1.5,0,2.7-.4,3.6-1.1s1.3-2,1.3-3.9-.4-3.2-1.3-3.9-2-1.1-3.6-1.1h-5.3v10Z"/><path class="f" d="M324.2,70.23c-2.5,0-4.7-.4-6.7-1.2-2-.8-3.6-2.2-4.7-4-1.2-1.9-1.7-4.3-1.7-7.4v-14.4c0-3.1,.6-5.6,1.7-7.4,1.2-1.9,2.7-3.2,4.7-4s4.2-1.2,6.7-1.2,4.7,.4,6.7,1.2c2,.8,3.6,2.2,4.8,4,1.2,1.9,1.7,4.3,1.7,7.4v14.3c0,3.1-.6,5.6-1.7,7.4-1.2,1.9-2.8,3.2-4.8,4-1.9,.9-4.2,1.3-6.7,1.3Zm0-7.3c1.5,0,2.7-.4,3.6-1.3,.9-.9,1.3-2.2,1.3-4.1v-14.3c0-1.9-.4-3.2-1.3-4.1-.9-.9-2-1.3-3.6-1.3-1.5,0-2.7,.4-3.5,1.3-.8,.9-1.3,2.2-1.3,4.1v14.3c0,1.9,.4,3.2,1.3,4.1,.9,.8,2,1.3,3.5,1.3Z"/></g></g><g id="c"><g id="d"><g id="e"><path d="M478.1,43.03l-10.7-10.7h0l-7.9-7.9,7.5-7.5c1.9-1.9,2.9-4.3,2.9-7s-1-5.1-2.9-7S462.7,.02,460,.02s-5.1,1-7,2.9l-7.5,7.5-7.5-7.5c-3.9-3.9-10.1-3.9-14,0s-3.9,10.1,0,14l7.5,7.5-37.2,37.2-11.5-11.5,33.1-33.1c3.9-3.9,3.9-10.1,0-14-3.9-3.9-10.1-3.9-14,0l-40.1,40.1c-3.9,3.9-3.9,10.1,0,14l12.3,12.3h0l6.2,6.2-7.5,7.5c-1.9,1.9-2.9,4.3-2.9,7s1,5.1,2.9,7,4.3,2.9,7,2.9,5.1-1,7-2.9l7.5-7.5,7.6,7.6c1.9,1.9,4.5,2.9,7,2.9s5.1-1,7-2.9,2.9-4.3,2.9-7-1-5.1-2.9-7l-7.6-7.6,37.2-37.2,11.6,11.6-33.1,33.1c-3.9,3.9-3.9,10.1,0,14,1.9,1.9,4.5,2.9,7,2.9s5.1-1,7-2.9l40.1-40.1c3.9-3.9,3.9-10.1,0-14h0ZM453.7,3.62c1.7-1.7,4-2.6,6.4-2.6s4.7,.9,6.4,2.6c1.7,1.7,2.6,4,2.6,6.4s-.9,4.7-2.6,6.4l-7.5,7.5-12.7-12.7,7.4-7.6h0Zm-91.2,40.1L402.6,3.63c1.8-1.8,4.1-2.6,6.4-2.6s4.6,.9,6.4,2.6c3.5,3.5,3.5,9.2,0,12.7l-33.1,33.1h0l-7.1,7.1c-3.5,3.5-3.5,7.5-3.1,9.5h0l-9.6-9.6c-3.6-3.4-3.6-9.2,0-12.7Zm10.8,23.6h0q-.1-.1,0,0l-.1-.2v-.1c0-.1,0-.2-.1-.3l-.1-.3v-.1c0-.1,0-.2-.1-.4v-.1c-.3-1.6-.4-4.6,1.8-7.5,0-.1,.1-.1,.1-.2,.1-.1,.1-.2,.2-.3s.2-.2,.2-.3l.1-.1c.1-.1,.2-.3,.4-.4l6.4-6.4,11.6,11.7-12.7,12.7-7.7-7.7h0Zm42,16.5c1.7,1.7,2.6,4,2.6,6.4s-.9,4.7-2.6,6.4c-3.5,3.5-9.2,3.5-12.7,0l-7.6-7.6,12.7-12.7,7.6,7.5h0Zm-29,12.6c-1.7,1.7-4,2.6-6.4,2.6s-4.7-.9-6.4-2.6c-1.7-1.7-2.6-4-2.6-6.4s.9-4.7,2.6-6.4l58.7-58.7,12.7,12.7-58.6,58.8h0Zm38.4-80.1c-1.7-1.7-2.6-4-2.6-6.4s.9-4.7,2.6-6.4,4.1-2.6,6.4-2.6,4.6,.9,6.4,2.6l29.3,29.3h0v.1h0v.1h0v.1h0v5.1q0,.1-.1,.2t-.1,.2c0,.1,0,.2-.1,.2q0,.1-.1,.2c0,.1-.1,.2-.1,.2q0,.1-.1,.2c0,.1-.1,.2-.1,.2,0,.1-.1,.1-.1,.2s-.1,.2-.1,.2c0,.1-.1,.1-.1,.2s-.1,.2-.1,.2c0,.1-.1,.1-.1,.2s-.1,.2-.1,.2c0,.1-.1,.1-.1,.2-.1,.1-.1,.2-.2,.2,0,.1-.1,.1-.1,.2-.1,.1-.1,.2-.2,.3,0,.1-.1,.1-.1,.2-.1,.1-.2,.2-.2,.3l-.1,.1-.4,.4-6.4,6.4-33-32.8Zm52.8,40.1l-40.1,40.1c-3.5,3.5-9.2,3.5-12.7,0s-3.5-9.2,0-12.7l33.1-33.1h0l7.1-7.1,.4-.4,.1-.1c.1-.1,.2-.3,.3-.4h0c.1-.1,.2-.3,.3-.4l.1-.1c.1-.1,.2-.2,.3-.4v-.1c.1-.1,.2-.3,.3-.4,0,0,0-.1,.1-.1,.1-.1,.1-.2,.2-.4v-.1c.1-.1,.1-.3,.2-.4v-.1c0-.1,.1-.2,.1-.3v-.1c.1-.1,.1-.3,.1-.4v-.1c0-.1,.1-.2,.1-.3v-.1c0-.1,.1-.3,.1-.4v-.1c0-.1,0-.2,.1-.3v-.1c0-.1,0-.3,.1-.4v-.9h0v-.7h0v-1.7l9.6,9.6c3.6,3.3,3.6,9,.1,12.5h0Z"/></g></g></g></svg>