<?xml version="1.0" encoding="UTF-8"?><svg xmlns="http://www.w3.org/2000/svg" xmlns:xlink="http://www.w3.org/1999/xlink" viewBox="0 0 122.23 99.95"><defs><style>.j{fill:url(#g);}.k{fill:url(#f);}.l{fill:url(#i);}.m{fill:url(#h);}.n{fill:#0000c8;}.o{fill:#6464e1;}</style><linearGradient id="f" x1="324.69" y1="1089.82" x2="320.78" y2="1093.75" gradientTransform="translate(340.9 -1033.11) rotate(-180) scale(1 -1)" gradientUnits="userSpaceOnUse"><stop offset="0" stop-color="#000" stop-opacity=".5"/><stop offset="1" stop-color="#000" stop-opacity="0"/></linearGradient><linearGradient id="g" x1="42.16" y1="-323.89" x2="46.24" y2="-327.96" gradientTransform="translate(0 -241.41) scale(1 -1)" xlink:href="#f"/><linearGradient id="h" x1="93.65" y1="-258.74" x2="97.74" y2="-254.66" gradientTransform="translate(0 -241.41) scale(1 -1)" xlink:href="#f"/><linearGradient id="i" x1="106.08" y1="-284.65" x2="102.15" y2="-280.73" gradientTransform="translate(0 -241.41) scale(1 -1)" xlink:href="#f"/></defs><g id="a"/><g id="b"><g id="c"><g id="d"><g id="e"><g><g><g><path class="n" d="M13.66,67.58l29.6,29.6c3.7,3.7,9.8,3.7,13.5,0h0c3.7-3.7,3.7-9.8,0-13.5L23.06,49.98l-6.8,6.8c-5.1,5.1-2.6,10.8-2.6,10.8h0Z"/><path class="o" d="M2.76,56.78h0l5.4,5.4,1,1,4.5,4.5s-2.4-5.7,2.6-10.8l6.8-6.8L56.76,16.38c3.7-3.7,3.7-9.8,0-13.5h0c-3.7-3.7-9.8-3.7-13.5,0L9.56,36.58l-6.7,6.7c-3.8,3.7-3.8,9.8-.1,13.5h0Z"/></g><path class="k" d="M22.96,49.98l-7.1,7.1s-4.4,4.5-2.3,10.5l13.5-13.5-4.1-4.1h0Z"/><polygon class="j" points="39.46 93.28 52.76 79.58 48.86 75.68 35.36 89.18 39.46 93.28"/></g><path class="o" d="M13.96,83.58L94.76,2.78c3.7-3.7,9.8-3.7,13.5,0h0c3.7,3.7,3.7,9.8,0,13.5L27.46,97.08c-3.7,3.7-9.8,3.7-13.5,0h0c-3.7-3.7-3.7-9.7,0-13.5Z"/><g><polygon class="m" points="104.46 19.98 90.86 6.68 86.96 10.58 100.36 24.08 104.46 19.98"/><g><path class="n" d="M108.66,32.38L79.06,2.78c-3.7-3.7-9.8-3.7-13.5,0h0c-3.7,3.7-3.7,9.8,0,13.5l33.7,33.7,6.8-6.8c5-5.1,2.6-10.8,2.6-10.8h0Z"/><path class="o" d="M119.46,43.18h0l-5.4-5.4-1-1-4.5-4.5s2.4,5.7-2.6,10.8l-6.8,6.8-33.7,33.7c-3.7,3.7-3.7,9.8,0,13.5h0c3.7,3.7,9.8,3.7,13.5,0l33.7-33.7,6.7-6.7c3.8-3.7,3.8-9.8,.1-13.5h0Z"/></g><path class="l" d="M99.26,49.88l7.1-7.1s4.4-4.5,2.3-10.5l-13.5,13.6,4.1,4h0Z"/></g></g></g></g></g></g></svg>