<?xml version="1.0" encoding="utf-8"?>
<!-- Generator: Adobe Illustrator 26.1.0, SVG Export Plug-In . SVG Version: 6.00 Build 0)  -->
<svg version="1.1" id="Capa_1" xmlns="http://www.w3.org/2000/svg" xmlns:xlink="http://www.w3.org/1999/xlink" x="0px" y="0px"
	 viewBox="0 0 75.9 50" style="enable-background:new 0 0 75.9 50;" xml:space="preserve">
<style type="text/css">
	.st0{fill:#0000C8;}
</style>
<g id="a">
</g>
<g id="b">
	<g id="c">
		<g id="d">
			<g id="e">
				<path class="st0" d="M73.7,0H2.2C1,0,0,1,0,2.2l0,0v45.6C0,49,1,50,2.2,50h71.4c1.2,0,2.2-1,2.2-2.2V2.2C75.9,1,74.9,0,73.7,0z
					 M70.1,38.4c1,0.7,1.3,2,0.7,3c-0.7,1-2,1.3-3.1,0.7L44.6,27.7l-6.5,4.1l-6.8-4.2L8.1,42.1c-0.3,0.2-0.7,0.3-1.1,0.3
					c-1.2,0-2.2-1-2.2-2.2c0-0.8,0.4-1.5,1-1.9l21.3-13.4L5.8,11.6c-1-0.6-1.4-2-0.7-3.1s2-1.4,3-0.7l0,0l30,18.7L67.7,7.9
					c1-0.7,2.4-0.4,3.1,0.6c0.7,1,0.4,2.4-0.6,3.1c0,0,0,0-0.1,0L48.8,25L70.1,38.4L70.1,38.4z"/>
			</g>
		</g>
	</g>
</g>
</svg>
