<?xml version="1.0" encoding="utf-8"?>
<!-- Generator: Adobe Illustrator 26.1.0, SVG Export Plug-In . SVG Version: 6.00 Build 0)  -->
<svg version="1.1" id="Capa_1" xmlns="http://www.w3.org/2000/svg" xmlns:xlink="http://www.w3.org/1999/xlink" x="0px" y="0px"
	 viewBox="0 0 100 100" style="enable-background:new 0 0 100 100;" xml:space="preserve">
<style type="text/css">
	.st0{fill:#454545;}
</style>
<g id="Capa_2_1_">
	<g id="Capa_1-2">
		<g id="inotoshop">
			<g id="vlpb">
				<g id="vlpc">
					<g id="vlpd">
						<path class="st0" d="M43.9,37.8c0,6.9-4.7,8.7-9.6,8.7c-1.7,0-2.5,0-3.4-0.1V29.6c0.8,0,2.4-0.1,4.1-0.1
							C40.5,29.5,43.9,32.3,43.9,37.8z"/>
						<path class="st0" d="M82.3,0H17.7C7.8,0.1-0.1,8.2,0,18.1l0,0v63.7c-0.1,9.9,7.8,18,17.7,18.2l0,0h64.6
							c9.9-0.1,17.8-8.2,17.7-18.1l0,0V18.2C100.1,8.3,92.2,0.1,82.3,0L82.3,0z M34.1,53.4c-1.6,0-2.2-0.1-3.3-0.1V70
							c0,0.3-0.1,0.5-0.5,0.5h-6.5c-0.3,0-0.5-0.1-0.5-0.5V23.4c0-0.3,0.6-0.5,0.9-0.5c2.7-0.1,6.7-0.2,10.9-0.2
							c11.7,0,16.3,6.6,16.3,15C51.4,48.7,43.7,53.4,34.1,53.4z M64.6,71.2c-3,0.1-6-0.5-8.7-1.9c-0.3-0.1-0.3-0.3-0.3-0.7v-6.4
							c0-0.4,0.2-0.6,0.5-0.3c2.5,1.7,5.5,2.6,8.5,2.6c3.3,0,4.7-1.4,4.7-3.4c0-1.6-1-3-5.2-5.2C58,53,55.5,50,55.5,45
							c0-5.6,4.3-10.2,11.7-10.2c2.6-0.1,5.2,0.3,7.6,1.2c0.3,0.2,0.4,0.5,0.4,0.9v6c0,0.3-0.2,0.6-0.6,0.4c-2.2-1.3-4.8-2-7.4-2
							c-3.3,0-4.5,1.7-4.5,3.2s0.8,2.7,5.2,5c6.6,3.3,8.7,6.5,8.7,11.1C76.7,67.5,71.6,71.2,64.6,71.2z"/>
					</g>
				</g>
			</g>
		</g>
	</g>
</g>
</svg>
