<?xml version="1.0" encoding="utf-8"?>
<!-- Generator: Adobe Illustrator 26.1.0, SVG Export Plug-In . SVG Version: 6.00 Build 0)  -->
<svg version="1.1" id="Capa_1" xmlns="http://www.w3.org/2000/svg" xmlns:xlink="http://www.w3.org/1999/xlink" x="0px" y="0px"
	 viewBox="0 0 103 103.7" style="enable-background:new 0 0 103 103.7;" xml:space="preserve">
<style type="text/css">
	.st0{fill:#2EB6FD;}
</style>
<g id="a">
</g>
<g id="b">
	<g id="c">
		<g>
			<path class="st0" d="M103,24.1c0-0.5-0.2-0.8-0.5-1.1c-0.3-3.3-0.6-6.6-1.8-9.7C99.5,10,97.4,7.2,94.4,5c-2.8-2-6-3.3-9.3-4.1
				c-3.3-0.8-6.7-1.4-10-0.3c-16.4,0.1-32.8,0-49.2-0.3c-0.2-0.2-0.6-0.4-1-0.3C18.4,0.5,11.7,1.7,6.4,5.9C2,9.4-0.7,15.4,0.8,21
				c0.3,19.9,0.1,39.7-0.6,59.5C0.1,80.7,0,81,0,81.3C-0.1,87.2,2.3,93.1,6.6,97s10.4,5.9,16.2,5.2c0.3,0,0.6-0.1,0.8-0.3
				c18.6,1.4,37.3,2,56,1.7c0.2,0,0.3,0,0.4-0.1c3,0,6.2-1.1,9-2.1c2.9-1.1,5.6-2.6,7.7-4.9c4-4.4,5-10.2,5.5-15.9c0,0,0-0.1,0-0.1
				v-0.1c0.1-1,0.1-1.9,0.2-2.9c0-0.3,0-0.5-0.1-0.7C102.9,59.3,103.1,41.7,103,24.1L103,24.1z M99.4,80.5c-0.4,5-1.2,10.2-4.6,13.9
				c-1.8,2-4.1,3.2-6.6,4.2c-2.6,1-5.7,2-8.5,1.9c-0.2,0-0.3,0-0.5,0.1c-19.2,0.3-38.5-0.3-57.7-1.9c-0.6-0.1-1,0.2-1.2,0.6
				c-4.2-0.1-8.4-1.5-11.5-4.4C5.1,91.6,3,86.7,3,81.8c0.1-0.2,0.2-0.5,0.2-0.8c0.7-19.4,0.8-38.8,0.6-58.2c0.3-0.3,0.5-0.8,0.3-1.4
				c-0.1-0.3-0.2-0.6-0.3-0.9c0-0.2,0-0.4,0-0.6c0-0.4-0.1-0.6-0.3-0.9C3,14.7,5.3,10.5,8.8,7.8c4.1-3,9.1-4.1,14-4.6
				c0.2,0.1,0.3,0.1,0.5,0.1c17.1,0.3,34.1,0.4,51.2,0.3c0.3,0.1,0.6,0.1,0.9,0c0.3,0,0.6,0,0.9,0c0.5,0,0.9-0.2,1.2-0.6
				c2.4-0.3,5.1,0.3,7.3,0.9c2.9,0.8,5.7,1.9,8.1,3.7c5.4,4,6.2,10.5,6.7,16.8c0,0.4,0.2,0.7,0.4,0.9
				C100.1,43.7,99.9,62.1,99.4,80.5C99.4,80.5,99.4,80.5,99.4,80.5L99.4,80.5z"/>
			<path class="st0" d="M41.3,31c-1.2-0.6-2.6-0.8-3.9-0.7c-1.3,0.1-2.6,0.4-3.8,0.2c-0.3,0-0.6,0-0.9,0.1c-1-0.3-2.3,0.5-2,1.8
				c0.3,1.3,0.2,2.6,0.2,3.9c-0.1,1.3-0.1,2.7-0.2,4l-0.4,8.2c-0.1,1.7,2.3,1.9,2.9,0.6c2.4,0,4.9-0.1,7.2-0.7
				c2.4-0.6,4-2.3,4.7-4.7c0.7-2.3,0.6-5,0-7.3C44.5,34.4,43.3,32.1,41.3,31L41.3,31z M40.5,45.2c-1,0.5-2.2,0.6-3.3,0.7
				c-1.3,0.1-2.5,0.2-3.8,0.2l0.3-6.1c0.1-2.1,0.3-4.3,0.2-6.4c1,0,1.9,0,3-0.2c1-0.1,2.2-0.3,3.2,0.2c1.9,1,2.5,3.9,2.6,5.8
				C42.6,41.4,42.5,44.2,40.5,45.2L40.5,45.2z"/>
			<path class="st0" d="M47.5,25.1c-2-1.6-4.5-2.5-7-3c-5.1-1.1-10.3-0.5-15.1,1.6c-0.9-0.5-2.3-0.1-2.4,1.2
				c-0.8,15.3-1,30.7-0.8,46.1c0,0.3,0.1,0.6,0.2,0.8c-0.3,0.4-0.5,0.9-0.3,1.4c0.2,0.7,1,1.3,1.9,1.1c0.5-0.2,1.1-0.3,1.7-0.5
				c0.2-0.1,0.5-0.1,0.7-0.1c-0.4,0,0.1,0,0.2,0c0.1,0,0.2,0,0.4,0c0.5,0,1.1,0,1.6,0c0.3,0,0.5,0,0.8,0.1l0.1,0
				c0.2,0,0.3,0.1,0.5,0.1c0.8,0.2,1.7-0.2,1.9-1.1c0-0.1,0-0.3,0-0.4c0.2-0.1,0.4-0.3,0.5-0.5c0.3-0.4,0.3-0.8,0.2-1.2
				c0-0.3,0-0.6,0-1c0.1-1.6,0.2-3.2,0.3-4.8c0.2-3,0.4-5.9,0.6-8.8c8.3,1.2,16.7-3.9,19.1-12.1c1.3-4.3,0.8-9.1-1-13.2
				C50.7,28.5,49.2,26.5,47.5,25.1L47.5,25.1z M44.4,50.4c-3.3,2.3-7.4,3.3-11.3,2.4c-0.8-0.2-1.4,0.2-1.7,0.8
				c-0.5,0.2-0.8,0.6-0.9,1.3c-0.2,2.8-0.4,5.5-0.6,8.3l-0.3,4.1c-0.1,1-0.3,2.1-0.2,3.1c0,0.1,0,0.1,0,0.2
				c-1.4-0.2-2.9-0.1-4.3,0.1c-0.2-14.7,0-29.4,0.7-44c7-3.3,17.8-3.4,22.2,3.9C52,37.1,50.7,46.1,44.4,50.4L44.4,50.4z"/>
			<path class="st0" d="M68.2,49.1c-0.8-0.7-1.7-1.5-1.6-2.7c0.1-1.2,1.7-1.3,2.6-1.5c2.6-0.5,5.2,0.1,7.5,1.4
				c1.4,0.8,2.7-0.9,2.1-2c0,0,0-0.1,0-0.1c-0.1-0.3-0.1-0.5-0.2-0.8c0-0.1,0-0.2-0.1-0.3c0-0.1,0-0.1,0-0.2c-0.1-0.5-0.1-1-0.1-1.5
				c0-0.5,0-1,0-1.5c0-0.2,0-0.5,0.1-0.7c0-0.1,0-0.2,0-0.4c0-0.1,0-0.1,0-0.2c0.1-0.4,0.1-0.8-0.2-1.2c0,0,0,0,0,0
				c-0.1-0.4-0.4-0.8-1.1-0.9c-4.2-0.6-8.6-1.6-12.7-0.5c-3.6,0.9-6.4,3.5-7.8,6.9c-1.4,3.2-1.9,7.5-0.4,10.7
				c0.8,1.9,2.4,2.9,4.1,3.9c1.9,1.1,3.8,2.4,5.4,3.9c0.5,0.4,2.1,1.5,1.7,2.2c-0.4,0.7-2.1,0.7-2.8,0.7c-2.4,0.1-4.7-0.6-6.7-1.9
				c-0.7-0.5-1.4-0.2-1.8,0.3c-0.4,0.3-0.8,0.7-0.8,1.3c0,2.2,0,4.5,0,6.8c0,0.5,0.3,0.9,0.6,1.2c0,0.4,0.1,0.9,0.5,1.2
				c0.7,0.8,1.9,1,2.8,1.2c2.2,0.6,4.5,0.9,6.8,0.7c4.2-0.3,8.1-2.1,10.6-5.6c2.2-3.1,2.9-7.2,1.3-10.7
				C76.2,54.5,71.6,52.1,68.2,49.1L68.2,49.1z M72.3,69.9c-1.8,1.3-4.2,2-6.4,2.1c-1.2,0.1-2.5,0-3.8-0.2c-0.5-0.1-1.1-0.2-1.6-0.3
				c-0.3-0.1-0.5-0.1-0.8-0.2l-0.4-0.1C59.2,71.1,59.1,71,59,71c-0.1-0.2-0.3-0.4-0.5-0.6c0-1.5,0-3,0-4.6c3,1.4,6.7,1.9,9.7,0.6
				c1.6-0.7,2.8-2.2,2.3-4c-0.5-2-2.7-3.5-4.3-4.7c-1.7-1.3-3.5-2.4-5.4-3.5c-1.8-1.1-2.3-2.8-2.4-4.9c-0.1-3.4,1.1-7.2,3.9-9.3
				c3.7-2.7,8.8-1.7,13.1-1c-0.1,1.2-0.1,2.3,0,3.5c-3.1-1-6.5-1.1-9.4,0.2c-1.8,0.8-2.7,2.5-2.5,4.4c0.2,2,1.7,3.5,3.2,4.7
				c1.8,1.5,3.7,2.9,5.4,4.4c1.5,1.3,3.1,2.8,3.6,4.7C76.8,64.3,75,68,72.3,69.9L72.3,69.9z"/>
		</g>
	</g>
</g>
</svg>
