<?xml version="1.0" encoding="UTF-8"?><svg xmlns="http://www.w3.org/2000/svg" viewBox="0 0 103.02 103.68"><defs><style>.d{fill:#454545;}</style></defs><g id="a"/><g id="b"><g id="c"><g><path class="d" d="M103,24.14c0-.48-.19-.84-.47-1.09-.26-3.27-.63-6.59-1.77-9.68-1.26-3.41-3.4-6.2-6.33-8.33-2.76-2.01-6.04-3.29-9.34-4.11-3.28-.82-6.74-1.4-9.98-.34-16.4,.05-32.79-.04-49.19-.27-.24-.22-.57-.36-1.01-.32C18.36,.52,11.7,1.69,6.45,5.9,2.02,9.44-.68,15.39,.82,20.97c.31,19.85,.13,39.71-.55,59.55-.15,.22-.25,.49-.26,.82-.15,5.84,2.26,11.74,6.61,15.68,4.35,3.94,10.39,5.88,16.22,5.15,.31-.04,.6-.14,.84-.3,18.64,1.44,37.34,2.02,56.03,1.73,.16,0,.31-.03,.44-.07,3.03-.02,6.21-1.07,9-2.11,2.87-1.08,5.64-2.57,7.73-4.86,4-4.37,5.03-10.22,5.5-15.95,0-.04,.01-.07,.01-.11v-.08c.08-.97,.14-1.94,.2-2.89,.02-.27-.03-.49-.12-.68,.43-17.57,.61-35.14,.51-52.71Zm-3.59,56.38c-.39,4.97-1.22,10.16-4.64,13.91-1.78,1.96-4.14,3.25-6.6,4.16-2.64,.97-5.68,2.03-8.51,1.94-.19,0-.35,.02-.51,.07-19.24,.28-38.49-.35-57.68-1.9-.59-.05-1,.2-1.23,.58-4.2-.07-8.35-1.53-11.5-4.39-3.69-3.34-5.73-8.17-5.72-13.13,.13-.21,.22-.46,.23-.76,.67-19.4,.85-38.82,.58-58.23,.34-.32,.49-.79,.27-1.38-.11-.29-.21-.58-.29-.88,0-.19,0-.39,0-.58,0-.36-.11-.65-.29-.87-.56-4.33,1.76-8.59,5.29-11.23,4.06-3.04,9.09-4.12,14.05-4.64,.16,.06,.34,.1,.54,.11,17.06,.26,34.12,.36,51.18,.3,.27,.08,.56,.09,.87,0,.31,0,.61,0,.92,0,.53,0,.91-.23,1.15-.56,2.41-.34,5.08,.34,7.31,.94,2.87,.77,5.66,1.9,8.06,3.67,5.43,3.99,6.25,10.54,6.73,16.8,.03,.37,.17,.67,.37,.9,.09,18.39-.11,36.78-.59,55.17,0,0,0,.01,0,.02Z"/><path class="d" d="M41.32,31.05c-1.22-.63-2.57-.77-3.92-.66-1.26,.1-2.59,.43-3.85,.22-.31-.05-.62,0-.9,.09-.97-.31-2.32,.47-2.02,1.8,.28,1.27,.22,2.57,.16,3.87-.06,1.33-.11,2.67-.17,4l-.35,8.17c-.07,1.71,2.27,1.9,2.86,.58,2.39,.01,4.91-.07,7.22-.67,2.39-.62,4.01-2.32,4.71-4.66,.7-2.33,.6-4.97-.02-7.3-.57-2.12-1.7-4.38-3.73-5.43Zm-.83,14.17c-1,.5-2.22,.59-3.32,.71-1.26,.13-2.52,.18-3.79,.18l.26-6.06c.09-2.11,.33-4.3,.16-6.44,.98,.05,1.94-.05,2.95-.16,1.03-.11,2.2-.27,3.16,.24,1.9,1.02,2.51,3.89,2.62,5.83,.1,1.91-.07,4.71-2.03,5.69Z"/><path class="d" d="M47.46,25.11c-1.99-1.6-4.47-2.49-6.96-3.02-5.07-1.07-10.32-.48-15.06,1.56-.86-.49-2.3-.08-2.36,1.24-.79,15.35-1.05,30.72-.8,46.09,0,.3,.09,.55,.21,.75-.33,.36-.5,.86-.34,1.37,.24,.73,1.05,1.33,1.85,1.05,.55-.19,1.1-.35,1.67-.47,.24-.05,.49-.12,.73-.13-.39,.01,.14-.01,.22-.02,.12-.01,.25-.02,.37-.03,.54-.04,1.07-.04,1.61,0,.27,.02,.54,.04,.81,.08l.14,.02c.16,.03,.33,.06,.49,.09,.77,.16,1.66-.22,1.85-1.05,.03-.13,.04-.27,.03-.41,.2-.12,.37-.28,.52-.51,.26-.41,.26-.76,.2-1.23-.04-.33-.02-.62,0-.97,.11-1.6,.21-3.19,.32-4.79,.2-2.95,.39-5.89,.59-8.84,8.29,1.23,16.7-3.94,19.1-12.08,1.29-4.35,.85-9.11-1.04-13.21-.96-2.08-2.36-4.07-4.15-5.5Zm-3.03,25.31c-3.28,2.27-7.37,3.26-11.29,2.38-.78-.18-1.37,.22-1.67,.78-.45,.22-.81,.64-.85,1.27-.19,2.77-.37,5.53-.56,8.3l-.28,4.15c-.07,.99-.26,2.09-.19,3.12-.02,.06-.03,.12-.04,.18-1.43-.17-2.87-.13-4.28,.13-.24-14.69,.01-29.38,.73-44.05,7-3.31,17.84-3.43,22.22,3.94,3.83,6.44,2.52,15.44-3.79,19.81Z"/><path class="d" d="M68.18,49.14c-.75-.66-1.71-1.55-1.63-2.66,.09-1.16,1.69-1.35,2.61-1.52,2.58-.47,5.24,.06,7.5,1.36,1.42,.81,2.71-.9,2.07-2.04,0-.05,0-.09,0-.14-.05-.26-.1-.52-.15-.79-.02-.11-.03-.22-.05-.33,0-.06-.02-.12-.02-.19-.06-.51-.09-1.03-.1-1.54-.01-.51,0-1.03,.03-1.54,.01-.25,.03-.49,.06-.74,.01-.12,.03-.24,.04-.37,.01-.07,.02-.14,.03-.21,.06-.41,.07-.78-.15-1.16,0-.02-.02-.03-.03-.05-.1-.44-.43-.81-1.05-.9-4.15-.61-8.56-1.59-12.73-.54-3.63,.91-6.39,3.54-7.83,6.93-1.38,3.23-1.87,7.45-.42,10.74,.83,1.89,2.37,2.91,4.1,3.92,1.94,1.13,3.77,2.42,5.45,3.91,.47,.41,2.05,1.5,1.66,2.18-.38,.67-2.13,.66-2.75,.68-2.39,.07-4.66-.61-6.67-1.9-.72-.46-1.42-.21-1.83,.3-.44,.26-.75,.72-.75,1.27,0,2.25,0,4.51-.01,6.76,0,.48,.26,.94,.64,1.22-.02,.43,.13,.86,.46,1.25,.66,.78,1.88,.98,2.83,1.23,2.21,.57,4.54,.86,6.81,.7,4.22-.3,8.13-2.08,10.63-5.57,2.2-3.07,2.94-7.23,1.28-10.7-2-4.18-6.65-6.62-10.01-9.57Zm4.1,20.8c-1.84,1.33-4.16,1.96-6.41,2.07-1.25,.06-2.52-.01-3.76-.22-.55-.09-1.1-.21-1.64-.34-.27-.07-.54-.14-.81-.22l-.4-.12c-.1-.05-.18-.08-.24-.11-.12-.22-.28-.41-.47-.55,0-1.52,0-3.04,0-4.57,3.01,1.36,6.72,1.9,9.7,.62,1.6-.69,2.8-2.23,2.32-4.05-.53-2-2.72-3.5-4.27-4.71-1.71-1.34-3.53-2.41-5.37-3.55-1.8-1.11-2.35-2.8-2.42-4.86-.11-3.42,1.08-7.22,3.93-9.32,3.66-2.69,8.79-1.65,13.06-.96-.1,1.16-.1,2.33,0,3.48-3.06-1.02-6.5-1.08-9.45,.22-1.78,.79-2.7,2.48-2.46,4.41,.25,2.03,1.67,3.46,3.19,4.69,1.81,1.46,3.66,2.88,5.43,4.38,1.52,1.29,3.07,2.76,3.64,4.73,.95,3.32-.89,7.01-3.58,8.96Z"/></g></g></g></svg>