<?xml version="1.0" encoding="UTF-8"?><svg xmlns="http://www.w3.org/2000/svg" viewBox="0 0 226.53 178.62"><defs><style>.e{opacity:.1;}.f{fill:#fff;}.g{fill:#69a32b;}.g,.h,.i,.j,.k,.l,.m{stroke-miterlimit:10;}.g,.h,.i,.j,.k,.l,.m,.n{stroke:#000;stroke-width:.5px;}.h{fill:#eaeaea;}.i{fill:#7f7f7f;}.j{fill:#9696ff;}.k,.n{fill:#81b545;}.l{fill:#8d4925;}.m{fill:#d2d200;}.o{opacity:.15;}</style></defs><g id="a"/><g id="b"><g id="c"><path class="g" d="M52.95,28.87v111.77c0,1.03,.53,1.99,1.4,2.54l55.22,34.72c.98,.61,2.22,.61,3.19,0l55.22-34.72c.87-.55,1.4-1.51,1.4-2.54V28.87c0-1.66-1.34-3-3-3H55.95c-1.66,0-3,1.34-3,3Z"/><g><path d="M60.72,17.89c-.3,0-.58-.07-.83-.2s-.38-.32-.38-.57V4.97c0-.26,.13-.45,.38-.57,.26-.12,.53-.18,.83-.18s.59,.06,.84,.18c.25,.12,.37,.31,.37,.57v12.15c0,.25-.12,.44-.37,.57s-.53,.2-.84,.2Z"/><path d="M68.36,18c-.77,0-1.49-.14-2.15-.42-.66-.28-1.18-.73-1.57-1.36-.39-.63-.58-1.46-.58-2.49v-5.22c0-1.03,.19-1.87,.58-2.5s.91-1.08,1.57-1.36,1.38-.42,2.17-.42c.87,0,1.64,.15,2.31,.44,.67,.29,1.19,.7,1.57,1.22,.38,.52,.57,1.15,.57,1.89,0,.49-.1,.81-.3,.96s-.51,.23-.92,.23c-.34,0-.62-.06-.85-.18-.23-.12-.35-.31-.37-.59,0-.15-.02-.33-.07-.53-.04-.21-.13-.41-.25-.61-.12-.2-.31-.37-.57-.5s-.61-.21-1.06-.21c-.64,0-1.12,.18-1.47,.53-.34,.36-.51,.89-.51,1.62v5.22c0,.73,.17,1.28,.52,1.63,.35,.35,.85,.52,1.5,.52,.42,0,.76-.07,1.01-.21,.25-.14,.43-.31,.55-.51,.12-.21,.2-.42,.24-.64,.04-.22,.08-.44,.1-.64,.02-.29,.15-.49,.37-.6,.22-.11,.5-.17,.82-.17,.42,0,.74,.08,.94,.24s.3,.48,.3,.95c0,.75-.19,1.4-.57,1.96-.38,.56-.91,.99-1.58,1.29-.67,.3-1.45,.45-2.32,.45Z"/><path d="M78.74,18c-.82,0-1.57-.14-2.23-.42-.66-.28-1.18-.73-1.57-1.36-.39-.63-.58-1.46-.58-2.49v-5.22c0-1.03,.19-1.87,.58-2.5s.91-1.08,1.56-1.36,1.4-.42,2.23-.42,1.57,.14,2.23,.42,1.19,.74,1.58,1.36,.58,1.46,.58,2.5v5.22c0,1.03-.19,1.87-.58,2.49-.39,.63-.91,1.08-1.58,1.36-.67,.28-1.41,.42-2.23,.42Zm0-2.13c.61,0,1.09-.17,1.44-.52,.35-.35,.52-.89,.52-1.63v-5.22c0-.74-.17-1.28-.52-1.63-.35-.35-.83-.52-1.44-.52s-1.09,.17-1.44,.52c-.35,.35-.52,.89-.52,1.63v5.22c0,.73,.17,1.28,.52,1.63,.35,.35,.83,.52,1.44,.52Z"/><path d="M86.44,17.89c-.3,0-.58-.07-.83-.2s-.38-.32-.38-.57V4.99c0-.26,.13-.45,.38-.58s.53-.19,.83-.19,.54,.03,.74,.09,.37,.18,.54,.36c.17,.18,.35,.46,.53,.83l3.61,6.97V4.97c0-.26,.13-.45,.38-.57,.26-.12,.53-.18,.83-.18s.59,.06,.84,.18c.25,.12,.37,.31,.37,.57v12.15c0,.25-.12,.44-.37,.57s-.53,.2-.84,.2c-.29,0-.55-.06-.79-.17-.24-.11-.44-.31-.59-.6l-4.04-7.51v7.51c0,.25-.12,.44-.37,.57s-.53,.2-.84,.2Z"/><path d="M100.79,18c-.82,0-1.57-.14-2.23-.42-.66-.28-1.18-.73-1.57-1.36-.39-.63-.58-1.46-.58-2.49v-5.22c0-1.03,.19-1.87,.58-2.5s.91-1.08,1.56-1.36,1.4-.42,2.23-.42,1.57,.14,2.23,.42,1.19,.74,1.58,1.36,.58,1.46,.58,2.5v5.22c0,1.03-.19,1.87-.58,2.49-.39,.63-.91,1.08-1.58,1.36-.67,.28-1.41,.42-2.23,.42Zm0-2.13c.61,0,1.09-.17,1.44-.52,.35-.35,.52-.89,.52-1.63v-5.22c0-.74-.17-1.28-.52-1.63-.35-.35-.83-.52-1.44-.52s-1.09,.17-1.44,.52c-.35,.35-.52,.89-.52,1.63v5.22c0,.73,.17,1.28,.52,1.63,.35,.35,.83,.52,1.44,.52Z"/><path d="M111.52,18c-.82,0-1.57-.14-2.23-.42-.66-.28-1.18-.73-1.57-1.36-.39-.63-.58-1.46-.58-2.49v-5.22c0-1.03,.19-1.87,.58-2.5s.91-1.08,1.56-1.36,1.37-.42,2.16-.42c.87,0,1.64,.14,2.31,.43s1.19,.7,1.58,1.23c.39,.54,.58,1.18,.58,1.93,0,.46-.1,.77-.3,.92s-.51,.23-.92,.23c-.33,0-.61-.06-.84-.17-.24-.11-.36-.31-.37-.6-.01-.3-.07-.59-.18-.87-.11-.28-.29-.51-.56-.7-.27-.19-.68-.28-1.22-.28-.61,0-1.09,.18-1.44,.53-.35,.36-.52,.89-.52,1.62v5.22c0,.72,.17,1.26,.52,1.62,.35,.36,.83,.53,1.44,.53s1.09-.18,1.44-.53c.35-.36,.52-.89,.52-1.62v-1.1h-1.51c-.24,0-.42-.1-.55-.3-.13-.2-.2-.42-.2-.65s.07-.45,.2-.65,.31-.3,.55-.3h3.18c.25,0,.44,.08,.57,.23s.2,.34,.2,.55v2.22c0,1.03-.19,1.87-.58,2.49-.39,.63-.91,1.08-1.58,1.36-.67,.28-1.41,.42-2.23,.42Z"/><path d="M125.32,17.98c-.16,0-.32-.05-.48-.15-.16-.1-.28-.24-.36-.43l-2.65-5.16h-1.57v4.88c0,.25-.12,.44-.37,.57s-.53,.2-.84,.2-.58-.07-.83-.2-.38-.32-.38-.57V4.97c0-.2,.07-.37,.22-.52,.14-.15,.33-.22,.57-.22h3.7c.82,0,1.57,.12,2.23,.36,.67,.24,1.2,.64,1.6,1.21,.4,.57,.6,1.35,.6,2.35,0,.72-.11,1.34-.32,1.84-.21,.51-.5,.91-.87,1.22-.37,.3-.79,.53-1.26,.68l2.47,4.54c.02,.05,.04,.1,.06,.16,.01,.06,.02,.1,.02,.14,0,.2-.07,.4-.22,.6-.15,.2-.34,.36-.57,.49-.23,.12-.47,.19-.72,.19Zm-5.07-7.65h2.06c.61,0,1.1-.15,1.46-.45,.36-.3,.54-.81,.54-1.53s-.18-1.27-.54-1.56c-.36-.29-.85-.44-1.46-.44h-2.06v3.98Z"/><path d="M129.01,17.89c-.22,0-.45-.04-.69-.13-.24-.09-.44-.21-.6-.36-.16-.15-.24-.32-.24-.52,0-.04,0-.1,.02-.19l3.61-11.76c.09-.27,.28-.48,.59-.62,.3-.14,.63-.21,.98-.21s.69,.07,.99,.21,.49,.34,.58,.62l3.61,11.76c.03,.09,.04,.15,.04,.19,0,.19-.08,.36-.25,.51-.17,.16-.37,.28-.61,.36-.24,.09-.47,.13-.69,.13-.2,0-.37-.03-.51-.1s-.24-.2-.29-.38l-.71-2.49h-4.3l-.69,2.49c-.05,.19-.15,.31-.3,.38-.15,.07-.32,.1-.52,.1Zm2.04-4.88h3.25l-1.63-5.74-1.63,5.74Z"/><path d="M140.38,17.89c-.3,0-.58-.07-.83-.2s-.38-.32-.38-.57V4.99c0-.25,.11-.44,.34-.57,.23-.13,.47-.2,.73-.2h6.52c.27,0,.47,.11,.59,.34s.18,.46,.18,.71c0,.3-.07,.55-.2,.77s-.32,.32-.57,.32h-5.16v3.74h2.86c.25,0,.44,.1,.57,.29s.2,.42,.2,.68c0,.21-.06,.42-.18,.63s-.31,.31-.59,.31h-2.86v5.12c0,.25-.12,.44-.37,.57s-.53,.2-.84,.2Z"/><path d="M149.26,2.73c-.2,0-.37-.1-.52-.31-.15-.21-.22-.41-.22-.61,0-.27,.1-.47,.32-.58l2.47-1.2c.09-.03,.17-.04,.24-.04,.21,0,.39,.1,.53,.3,.14,.2,.21,.41,.21,.62,0,.26-.11,.45-.34,.56l-2.43,1.18c-.05,.01-.09,.03-.13,.05-.04,.02-.08,.03-.13,.03Zm.64,15.16c-.3,0-.58-.07-.83-.2s-.38-.32-.38-.57V4.97c0-.26,.13-.45,.38-.57,.26-.12,.53-.18,.83-.18s.59,.06,.84,.18c.25,.12,.37,.31,.37,.57v12.15c0,.25-.12,.44-.37,.57s-.53,.2-.84,.2Z"/><path d="M153.95,17.89c-.22,0-.45-.04-.69-.13-.24-.09-.44-.21-.6-.36-.16-.15-.24-.32-.24-.52,0-.04,0-.1,.02-.19l3.61-11.76c.09-.27,.28-.48,.59-.62,.3-.14,.63-.21,.98-.21s.69,.07,.99,.21,.49,.34,.58,.62l3.61,11.76c.03,.09,.04,.15,.04,.19,0,.19-.08,.36-.25,.51-.17,.16-.37,.28-.61,.36-.24,.09-.47,.13-.69,.13-.2,0-.37-.03-.51-.1s-.24-.2-.29-.38l-.71-2.49h-4.3l-.69,2.49c-.05,.19-.15,.31-.3,.38-.15,.07-.32,.1-.52,.1Zm2.04-4.88h3.25l-1.63-5.74-1.63,5.74Z"/></g><g><path class="n" d="M85.46,121.17c-1.41,0-2.72-.31-3.93-.93s-1.81-1.51-1.81-2.69V60.23c0-1.23,.6-2.13,1.81-2.69,1.21-.56,2.52-.84,3.93-.84s2.79,.28,3.97,.84c1.17,.56,1.76,1.46,1.76,2.69v57.32c0,1.18-.59,2.07-1.76,2.69-1.18,.62-2.5,.93-3.97,.93Z"/><path class="n" d="M121.52,121.7c-3.65,0-7.03-.66-10.14-1.99-3.12-1.32-5.59-3.47-7.41-6.44-1.82-2.96-2.73-6.89-2.73-11.77v-24.61c0-4.87,.91-8.81,2.73-11.77,1.82-2.97,4.29-5.11,7.41-6.44,3.11-1.32,6.52-1.98,10.23-1.98,4.11,0,7.74,.69,10.89,2.07,3.14,1.39,5.61,3.31,7.41,5.78s2.69,5.44,2.69,8.91c0,2.3-.47,3.81-1.41,4.54-.94,.74-2.38,1.11-4.32,1.11-1.59,0-2.92-.28-4.01-.84s-1.66-1.49-1.72-2.78c0-.7-.1-1.54-.31-2.51-.21-.98-.6-1.93-1.19-2.87s-1.49-1.73-2.69-2.38-2.86-.98-4.98-.98c-3,0-5.31,.84-6.92,2.51-1.62,1.68-2.43,4.22-2.43,7.63v24.61c0,3.47,.82,6.03,2.47,7.67,1.64,1.64,4,2.47,7.06,2.47,2,0,3.58-.32,4.76-.97s2.04-1.46,2.6-2.43,.94-1.99,1.15-3.04c.2-1.06,.37-2.06,.48-3,.11-1.35,.7-2.29,1.76-2.82s2.35-.8,3.88-.8c2,0,3.47,.39,4.41,1.15,.94,.77,1.41,2.26,1.41,4.5,0,3.52-.9,6.61-2.69,9.26-1.79,2.65-4.28,4.67-7.45,6.09-3.17,1.41-6.82,2.12-10.93,2.12Z"/></g><g><path class="k" d="M64.01,104.2H6.49c-.22,0-.43,.11-.59,.29L.49,110.99c-.32,.39-.32,1.02,0,1.41l5.41,6.5c.16,.19,.37,.29,.59,.29h57.53c.22,0,.43-.11,.59-.29l5.41-6.5c.32-.39,.32-1.02,0-1.41l-5.41-6.5c-.16-.19-.37-.29-.59-.29Z"/><g><path class="f" d="M29.51,114.35c-.4,0-.77-.05-1.1-.15s-.59-.23-.78-.39-.28-.32-.28-.49c0-.08,.02-.17,.07-.28,.04-.11,.1-.2,.18-.28s.17-.12,.27-.12c.11,0,.23,.05,.35,.14s.28,.18,.47,.27c.19,.09,.45,.13,.79,.13,.36,0,.6-.06,.71-.17,.12-.11,.17-.23,.17-.35,0-.18-.07-.31-.21-.41-.14-.1-.32-.18-.53-.24-.22-.06-.45-.13-.69-.2-.24-.07-.47-.16-.69-.28s-.39-.28-.53-.48c-.14-.2-.2-.47-.2-.8,0-.29,.07-.57,.2-.84s.36-.5,.67-.68,.74-.27,1.27-.27c.33,0,.64,.03,.93,.1,.29,.07,.53,.16,.71,.28s.28,.25,.28,.4c0,.07-.03,.17-.07,.28-.05,.12-.12,.22-.2,.32-.08,.1-.19,.14-.3,.14-.09,0-.2-.03-.32-.09-.12-.06-.27-.12-.43-.17-.16-.06-.35-.08-.58-.08-.2,0-.36,.03-.48,.08-.12,.06-.21,.12-.26,.2-.06,.08-.08,.16-.08,.25,0,.14,.07,.26,.2,.34s.31,.15,.53,.2c.22,.06,.45,.12,.7,.19,.24,.07,.48,.17,.7,.3,.22,.13,.4,.31,.54,.52,.13,.22,.2,.5,.2,.86,0,.53-.19,.95-.57,1.27-.38,.32-.93,.48-1.64,.48Z"/><path class="f" d="M34.93,114.37c-.16,0-.31-.02-.44-.07-.14-.05-.22-.12-.26-.2l-2.05-4.75s-.03-.06-.04-.1-.02-.08-.02-.11c0-.12,.06-.23,.17-.33,.12-.1,.25-.18,.41-.24,.16-.06,.31-.09,.44-.09,.1,0,.19,.02,.27,.06s.14,.11,.17,.2l1.34,3.48,1.33-3.46c.03-.1,.09-.18,.17-.22s.17-.07,.28-.07,.24,.03,.4,.09c.16,.06,.31,.14,.44,.25,.13,.1,.19,.22,.19,.34,0,.04,0,.08-.01,.11,0,.03-.02,.06-.04,.1l-2.06,4.75c-.04,.09-.13,.16-.26,.2-.14,.05-.28,.07-.43,.07Z"/><path class="f" d="M40.64,116.89c-.47,0-.91-.07-1.31-.2-.4-.13-.73-.33-.97-.58s-.37-.56-.37-.91c0-.3,.08-.56,.25-.77,.17-.21,.38-.38,.62-.5-.15-.07-.27-.17-.37-.29-.09-.12-.14-.28-.14-.48,0-.22,.06-.41,.17-.55,.12-.14,.26-.27,.44-.39-.24-.18-.42-.41-.55-.67s-.19-.55-.19-.86v-.25c0-.39,.1-.74,.29-1.03,.19-.3,.47-.53,.82-.7,.36-.17,.77-.25,1.23-.25,.26,0,.51,.03,.74,.09,.23,.06,.44,.15,.62,.26,.14-.32,.26-.54,.38-.65,.12-.11,.24-.17,.35-.17,.19,0,.34,.06,.45,.17,.11,.11,.16,.22,.16,.31,0,.07-.02,.14-.05,.19-.04,.06-.09,.1-.15,.14-.07,.05-.16,.11-.26,.17-.1,.07-.2,.16-.29,.28,.14,.16,.25,.34,.32,.53,.07,.2,.1,.41,.1,.64v.25c0,.38-.1,.73-.3,1.03-.2,.3-.48,.54-.84,.71-.36,.18-.77,.26-1.24,.26-.29,0-.55-.04-.78-.11-.04,.03-.07,.07-.1,.11-.03,.04-.04,.08-.04,.13,0,.14,.09,.23,.26,.29,.18,.06,.4,.1,.67,.13,.27,.03,.56,.07,.87,.13,.31,.05,.6,.13,.87,.25,.27,.11,.5,.28,.67,.5,.18,.22,.26,.51,.26,.88,0,.45-.13,.81-.38,1.09-.25,.28-.58,.48-.97,.61-.4,.13-.82,.19-1.27,.19Zm-.02-1c.31,0,.58-.08,.8-.23,.22-.15,.33-.36,.33-.61,0-.17-.05-.3-.14-.41-.1-.1-.23-.18-.39-.23s-.34-.09-.53-.12c-.19-.03-.38-.05-.58-.08-.19,.09-.35,.2-.47,.34-.12,.14-.18,.3-.18,.49,0,.26,.11,.47,.34,.62,.23,.15,.5,.23,.82,.23Zm-.02-4.13c.26,0,.47-.1,.62-.3,.15-.2,.23-.46,.23-.77v-.25c0-.3-.07-.54-.22-.74-.15-.2-.36-.3-.64-.3s-.48,.1-.63,.3c-.15,.2-.22,.45-.22,.74v.24c0,.3,.07,.56,.22,.77,.15,.21,.36,.31,.64,.31Z"/></g></g><g><path class="k" d="M219.94,39.99h-57.53c-.22,0-.43,.11-.59,.29l-5.41,6.5c-.32,.39-.32,1.02,0,1.41l5.41,6.5c.16,.19,.37,.29,.59,.29h57.53c.22,0,.43-.11,.59-.29l5.41-6.5c.32-.39,.32-1.02,0-1.41l-5.41-6.5c-.16-.19-.37-.29-.59-.29Z"/><g><path class="f" d="M184.43,52.68c-.32,0-.53-.07-.64-.2-.11-.13-.16-.28-.16-.44,0-.21,.06-.37,.17-.49,.12-.12,.25-.18,.41-.18,.14,0,.25-.04,.32-.12,.07-.08,.11-.19,.13-.34,.02-.15,.03-.31,.03-.5v-5.6c0-.14,.07-.26,.22-.35,.14-.09,.32-.13,.54-.13s.41,.04,.56,.13c.15,.09,.23,.2,.23,.35v5.6c0,.44-.07,.83-.2,1.18-.14,.34-.34,.61-.61,.8-.27,.19-.6,.29-1,.29Zm1.03-9.62c-.23,0-.43-.08-.6-.23s-.25-.33-.25-.52c0-.21,.08-.39,.25-.53s.37-.22,.6-.22,.44,.07,.6,.22c.16,.15,.24,.33,.24,.53,0,.19-.08,.37-.24,.52-.16,.16-.36,.23-.6,.23Z"/><path class="f" d="M188.21,52.68c-.22,0-.4-.05-.54-.16-.14-.1-.22-.22-.22-.34v-7.38c0-.14,.07-.26,.22-.35,.14-.09,.32-.13,.53-.13s.38,.04,.51,.13c.13,.09,.2,.2,.2,.35v.36c.14-.23,.34-.44,.62-.63,.28-.19,.61-.28,1-.28s.76,.11,1.09,.33c.33,.22,.59,.51,.77,.88,.19,.37,.28,.78,.28,1.22v.98c0,.42-.1,.82-.29,1.2-.19,.38-.45,.68-.77,.91-.32,.23-.67,.35-1.04,.35-.35,0-.67-.1-.96-.29-.29-.19-.49-.41-.61-.66v3c0,.12-.08,.23-.23,.34-.15,.1-.34,.16-.56,.16Zm1.86-3.9c.19,0,.37-.05,.52-.16,.16-.11,.28-.25,.38-.41,.1-.17,.15-.34,.15-.53v-.98c0-.18-.05-.36-.14-.52-.1-.16-.23-.29-.39-.4-.16-.11-.35-.16-.55-.16-.18,0-.34,.04-.5,.13s-.29,.21-.39,.37c-.1,.16-.16,.35-.16,.58v1.2c0,.08,.05,.19,.14,.33,.09,.14,.22,.27,.38,.38s.34,.17,.55,.17Z"/><path class="f" d="M195.92,52.68c-.47,0-.91-.07-1.31-.2-.4-.13-.73-.33-.97-.58s-.37-.56-.37-.91c0-.3,.08-.56,.25-.77,.17-.21,.38-.38,.62-.5-.15-.07-.27-.17-.37-.29-.09-.12-.14-.28-.14-.48,0-.22,.06-.41,.17-.55,.12-.14,.26-.27,.44-.39-.24-.18-.42-.41-.55-.67s-.19-.55-.19-.86v-.25c0-.39,.1-.74,.29-1.03,.19-.3,.47-.53,.82-.7,.36-.17,.77-.25,1.23-.25,.26,0,.51,.03,.74,.09,.23,.06,.44,.15,.62,.26,.14-.32,.26-.54,.38-.65,.12-.11,.24-.17,.35-.17,.19,0,.34,.06,.45,.17,.11,.11,.16,.22,.16,.31,0,.07-.02,.14-.05,.19-.04,.06-.09,.1-.15,.14-.07,.05-.16,.11-.26,.17-.1,.07-.2,.16-.29,.28,.14,.16,.25,.34,.32,.53,.07,.2,.1,.41,.1,.64v.25c0,.38-.1,.73-.3,1.03-.2,.3-.48,.54-.84,.71-.36,.18-.77,.26-1.24,.26-.29,0-.55-.04-.78-.11-.04,.03-.07,.07-.1,.11-.03,.04-.04,.08-.04,.13,0,.14,.09,.23,.26,.29,.18,.06,.4,.1,.67,.13,.27,.03,.56,.07,.87,.13,.31,.05,.6,.13,.87,.25,.27,.11,.5,.28,.67,.5,.18,.22,.26,.51,.26,.88,0,.45-.13,.81-.38,1.09-.25,.28-.58,.48-.97,.61-.4,.13-.82,.19-1.27,.19Zm-.02-1c.31,0,.58-.08,.8-.23,.22-.15,.33-.36,.33-.61,0-.17-.05-.3-.14-.41-.1-.1-.23-.18-.39-.23s-.34-.09-.53-.12c-.19-.03-.38-.05-.58-.08-.19,.09-.35,.2-.47,.34-.12,.14-.18,.3-.18,.49,0,.26,.11,.47,.34,.62,.23,.15,.5,.23,.82,.23Zm-.02-4.13c.26,0,.47-.1,.62-.3,.15-.2,.23-.46,.23-.77v-.25c0-.3-.07-.54-.22-.74-.15-.2-.36-.3-.64-.3s-.48,.1-.63,.3c-.15,.2-.22,.45-.22,.74v.24c0,.3,.07,.56,.22,.77,.15,.21,.36,.31,.64,.31Z"/></g></g><g><path class="k" d="M219.94,115.98h-57.53c-.22,0-.43,.11-.59,.29l-5.41,6.5c-.32,.39-.32,1.02,0,1.41l5.41,6.5c.16,.19,.37,.29,.59,.29h57.53c.22,0,.43-.11,.59-.29l5.41-6.5c.32-.39,.32-1.02,0-1.41l-5.41-6.5c-.16-.19-.37-.29-.59-.29Z"/><g><path class="f" d="M183.47,128.67c-.22,0-.4-.05-.54-.16-.14-.1-.22-.22-.22-.34v-7.38c0-.14,.07-.26,.22-.35,.14-.09,.32-.13,.53-.13s.38,.04,.51,.13c.13,.09,.2,.2,.2,.35v.36c.14-.23,.34-.44,.62-.63,.28-.19,.61-.28,1-.28s.77,.11,1.09,.33c.33,.22,.59,.51,.77,.88,.19,.37,.28,.78,.28,1.22v.98c0,.42-.1,.82-.29,1.2-.19,.38-.45,.68-.77,.91-.32,.23-.67,.35-1.04,.35-.35,0-.67-.1-.96-.29-.29-.19-.49-.41-.61-.66v3c0,.12-.08,.23-.23,.34-.15,.1-.34,.16-.56,.16Zm1.86-3.9c.19,0,.37-.05,.52-.16,.16-.11,.29-.25,.38-.41s.15-.34,.15-.53v-.98c0-.18-.05-.36-.14-.52s-.23-.29-.39-.4c-.16-.11-.35-.16-.54-.16-.18,0-.34,.04-.5,.13-.16,.09-.29,.21-.39,.37-.1,.16-.16,.35-.16,.58v1.2c0,.08,.05,.19,.14,.33,.09,.14,.22,.27,.38,.38,.16,.12,.34,.17,.55,.17Z"/><path class="f" d="M189.69,126.02c-.22,0-.41-.05-.55-.16-.14-.1-.22-.22-.22-.34v-4.73c0-.14,.07-.26,.22-.35,.14-.09,.33-.13,.55-.13,.19,0,.35,.04,.49,.13,.13,.09,.2,.2,.2,.35v.36c.12-.23,.32-.44,.59-.63,.28-.19,.61-.28,1.01-.28,.38,0,.72,.11,1.03,.33,.31,.22,.56,.51,.75,.88,.19,.37,.28,.78,.28,1.22v2.84c0,.16-.08,.28-.24,.37-.16,.08-.34,.13-.54,.13-.18,0-.35-.04-.52-.13s-.25-.21-.25-.37v-2.84c0-.18-.05-.36-.14-.52s-.22-.29-.38-.4c-.16-.11-.34-.16-.53-.16-.16,0-.32,.04-.47,.13-.15,.09-.28,.21-.37,.37s-.14,.35-.14,.58v2.84c0,.12-.08,.23-.23,.34-.15,.1-.34,.16-.55,.16Z"/><path class="f" d="M197.44,128.67c-.47,0-.91-.07-1.31-.2-.4-.13-.73-.33-.97-.58s-.37-.56-.37-.91c0-.3,.08-.56,.25-.77,.17-.21,.38-.38,.62-.5-.15-.07-.27-.17-.37-.29-.09-.12-.14-.28-.14-.48,0-.22,.06-.41,.17-.55,.12-.14,.26-.27,.44-.39-.24-.18-.42-.41-.55-.67s-.19-.55-.19-.86v-.25c0-.39,.1-.74,.29-1.03,.19-.3,.47-.53,.82-.7,.36-.17,.77-.25,1.23-.25,.26,0,.51,.03,.74,.09,.23,.06,.44,.15,.62,.26,.14-.32,.26-.54,.38-.65,.12-.11,.24-.17,.35-.17,.19,0,.34,.06,.45,.17,.11,.11,.16,.22,.16,.31,0,.07-.02,.14-.05,.19-.04,.06-.09,.1-.15,.14-.07,.05-.16,.11-.26,.17-.1,.07-.2,.16-.29,.28,.14,.16,.25,.34,.32,.53,.07,.2,.1,.41,.1,.64v.25c0,.38-.1,.73-.3,1.03-.2,.3-.48,.54-.84,.71-.36,.18-.77,.26-1.24,.26-.29,0-.55-.04-.78-.11-.04,.03-.07,.07-.1,.11-.03,.04-.04,.08-.04,.13,0,.14,.09,.23,.26,.29,.18,.06,.4,.1,.67,.13,.27,.03,.56,.07,.87,.13,.31,.05,.6,.13,.87,.25,.27,.11,.5,.28,.67,.5,.18,.22,.26,.51,.26,.88,0,.45-.13,.81-.38,1.09-.25,.28-.58,.48-.97,.61-.4,.13-.82,.19-1.27,.19Zm-.02-1c.31,0,.58-.08,.8-.23,.22-.15,.33-.36,.33-.61,0-.17-.05-.3-.14-.41-.1-.1-.23-.18-.39-.23s-.34-.09-.53-.12c-.19-.03-.38-.05-.58-.08-.19,.09-.35,.2-.47,.34-.12,.14-.18,.3-.18,.49,0,.26,.11,.47,.34,.62,.23,.15,.5,.23,.82,.23Zm-.02-4.13c.26,0,.47-.1,.62-.3,.15-.2,.23-.46,.23-.77v-.25c0-.3-.07-.54-.22-.74-.15-.2-.36-.3-.64-.3s-.48,.1-.63,.3c-.15,.2-.22,.45-.22,.74v.24c0,.3,.07,.56,.22,.77,.15,.21,.36,.31,.64,.31Z"/></g></g><g><path class="i" d="M49.24,80.05c1.17-1.17,1.17-3.08,0-4.25-1.17-1.17-3.06-1.17-4.23,0-1.16,1.17-1.16,3.07,0,4.25,1.16,1.17,3.06,1.17,4.22,0Z"/><path class="i" d="M37.3,67.09c-.33,.1-.59,.36-.68,.7l-3.7,13.86-2.57,9.63c-.26,.99,.95,1.69,1.68,.96l11.2-11.25c.3-.3,.38-.76,.19-1.13-1.23-2.38-.06-5.68,3.51-6.26,.12-.02,.24-.02,.36,0,4.15,.64,5.08,4.98,2.79,7.29-1.31,1.32-3.29,1.57-4.86,.77-.38-.2-.85-.12-1.15,.18l-11.2,11.26c-.72,.72-.02,1.94,.97,1.67l9.58-2.58,13.79-3.71c.34-.09,.6-.35,.7-.68l3.35-11.36c.1-.35,0-.73-.25-.99l-11.42-11.48c-.26-.26-.64-.36-.99-.25l-11.29,3.37Z"/><path d="M29.82,94.1c-4.38,.82-7.38,.42-9.19-1.23-1.78-1.63-2.42-4.49-2.01-9.01,.19-2.13-.31-3.73-1.49-4.74-2.28-1.94-6.22-.94-6.39-.9-.23,.06-.36,.29-.3,.52,.06,.23,.29,.36,.52,.31,.04,0,3.68-.94,5.63,.72,.96,.82,1.36,2.17,1.2,4.01-.43,4.81,.29,7.89,2.28,9.72,1.36,1.25,3.29,1.87,5.83,1.87,1.22,0,2.58-.14,4.08-.42,.23-.04,.38-.27,.34-.5-.04-.23-.26-.38-.5-.34Z"/><rect class="i" x="55.1" y="57.46" width="7.4" height="17.42" rx="1" ry="1" transform="translate(-29.57 60.96) rotate(-45)"/></g><g><rect class="h" x="163.67" y="67.99" width="55" height="35" rx="1" ry="1"/><rect class="j" x="167.17" y="71.49" width="48" height="28" rx="1" ry="1"/><g><path class="l" d="M198.58,96.41h-6.16c-.77,0-1.25-.83-.87-1.5l3.08-5.34,3.08-5.34c.38-.67,1.35-.67,1.73,0l3.08,5.34,3.08,5.34c.38,.67-.1,1.5-.87,1.5h-6.16Z"/><path class="l" d="M187.22,96.41h-9.63c-.77,0-1.25-.83-.87-1.5l4.81-8.34,4.81-8.34c.38-.67,1.35-.67,1.73,0l4.81,8.34,4.81,8.34c.38,.67-.1,1.5-.87,1.5h-9.63Z"/><circle class="m" cx="203.55" cy="78.75" r="2.37"/></g></g></g><g id="d"><polygon class="o" points="64.14 119.18 48.26 119.21 64.14 104.23 69.78 110.79 70.4 111.7 64.14 119.18"/><polygon class="o" points="220.16 54.95 204.28 54.98 220.16 40 225.8 46.56 226.42 47.47 220.16 54.95"/><polygon class="o" points="220.27 131.08 204.39 131.11 220.27 116.13 225.91 122.69 226.53 123.6 220.27 131.08"/><path class="e" d="M77.86,157.97l32.07,20.14s.79,.23,.81,.23,1.14-.06,1.14-.06c0,0,1.62-.84,1.63-.85l2.89-1.82,3.45-2.17,48.36-30.43s.73-.81,.74-.83,.43-1.35,.43-1.35v-9.86h-6.97l-.66-.37-5.58-6.86v-.62l5.97-7.09,.62-.06h6.62s0-13.05,0-13.04-4.71,.04-4.71,.04l-.99-.87,.04-33.45,.78-.69,4.84,.04v-13.06h-7.03l-.61-.42-5.47-6.72-.05-.77,5.83-6.92,.36-.17h6.98v-11.44l-.64-1.63L77.86,157.97Z"/><polyline class="o" points="192.71 102.99 218.34 68.25 218.67 68.99 218.67 101.99 217.67 102.99"/><polygon class="o" points="33.08 94.64 60.12 74.54 61.3 75.96 57.79 88.05 57.21 88.48 33.35 94.82 33.08 94.64"/><polygon class="o" points="61.02 73.63 66.26 68.4 67.07 69.31 66.87 70.43 62.73 74.46 61.96 74.46 61.02 73.63"/></g></g></svg>