<?xml version="1.0" encoding="UTF-8"?><svg xmlns="http://www.w3.org/2000/svg" viewBox="0 0 226.92 175.44"><defs><style>.e{letter-spacing:0em;}.f{opacity:.1;}.g{fill:#faad1f;}.h{fill:#eaeaea;}.i{fill:#f74544;}.j{fill:#37c027;}.k{font-family:Dosis-Bold, Dosis;font-size:12px;}.l{fill:#ffeb78;}.l,.m,.n,.o{stroke:#000;stroke-miterlimit:10;stroke-width:.5px;}.m{fill:#fc6600;}.n{fill:#61dafb;}.o{fill:#f7df1e;}.p{opacity:.15;}</style></defs><g id="a"/><g id="b"><g id="c"><path class="o" d="M52.03,25.69v111.77c0,1.03,.53,1.99,1.4,2.54l55.22,34.72c.98,.61,2.22,.61,3.19,0l55.22-34.72c.87-.55,1.4-1.51,1.4-2.54V25.69c0-1.66-1.34-3-3-3H55.03c-1.66,0-3,1.34-3,3Z"/><g><path class="l" d="M64.01,41.25H6.49c-.22,0-.43,.11-.59,.29L.49,48.04c-.32,.39-.32,1.02,0,1.41l5.41,6.5c.16,.19,.37,.29,.59,.29h57.53c.22,0,.43-.11,.59-.29l5.41-6.5c.32-.39,.32-1.02,0-1.41l-5.41-6.5c-.16-.19-.37-.29-.59-.29Z"/><text class="k" transform="translate(9.49 53.52)"><tspan x="0" y="0">function( )</tspan></text></g><g><path class="l" d="M217.49,106.33h-57.53c-.22,0-.43,.11-.59,.29l-5.41,6.5c-.32,.39-.32,1.02,0,1.41l5.41,6.5c.16,.19,.37,.29,.59,.29h57.53c.22,0,.43-.11,.59-.29l5.41-6.5c.32-.39,.32-1.02,0-1.41l-5.41-6.5c-.16-.19-.37-.29-.59-.29Z"/><text class="k" transform="translate(178.97 117.18)"><tspan x="0" y="0">json</tspan></text></g><g><path class="l" d="M64.01,115.35H6.49c-.22,0-.43,.11-.59,.29L.49,122.14c-.32,.39-.32,1.02,0,1.41l5.41,6.5c.16,.19,.37,.29,.59,.29h57.53c.22,0,.43-.11,.59-.29l5.41-6.5c.32-.39,.32-1.02,0-1.41l-5.41-6.5c-.16-.19-.37-.29-.59-.29Z"/><text class="k" transform="translate(22 126.19)"><tspan class="e" x="0" y="0">c</tspan><tspan x="5.14" y="0">onst</tspan></text></g><g><path d="M63.43,14.94c-.91,0-1.73-.16-2.46-.48s-1.3-.78-1.72-1.39c-.42-.6-.62-1.31-.62-2.13,0-.51,.11-.85,.33-1.02,.22-.17,.55-.25,1-.25,.33,0,.63,.06,.88,.17s.39,.33,.4,.65c.03,.32,.1,.65,.21,.99,.11,.33,.32,.61,.61,.83,.3,.22,.72,.33,1.27,.33,.68,0,1.21-.19,1.58-.57,.37-.38,.55-.96,.55-1.74V2.41h-2.07c-.25,0-.45-.11-.59-.34s-.21-.5-.21-.82c0-.27,.06-.52,.19-.76,.13-.24,.33-.36,.61-.36h3.52c.29,0,.56,.07,.8,.21s.36,.35,.36,.61V10.34c0,1.11-.21,2.01-.63,2.68-.42,.68-.98,1.17-1.68,1.47-.7,.3-1.47,.45-2.33,.45Z"/><path d="M71.03,14.82c-.24,0-.49-.05-.74-.14-.25-.09-.47-.22-.64-.38-.17-.16-.26-.35-.26-.56,0-.04,0-.11,.02-.2l3.88-12.65c.09-.29,.31-.52,.63-.66s.68-.22,1.06-.22,.74,.07,1.07,.22,.53,.37,.62,.66l3.88,12.65c.03,.09,.04,.16,.04,.2,0,.2-.09,.39-.27,.55-.18,.17-.4,.3-.65,.39-.26,.09-.5,.14-.74,.14-.21,0-.4-.04-.55-.11-.15-.07-.26-.21-.31-.41l-.76-2.67h-4.63l-.74,2.67c-.05,.2-.16,.34-.32,.41-.16,.07-.35,.11-.56,.11Zm2.19-5.25h3.5l-1.75-6.17-1.75,6.17Z"/><path d="M85.75,14.94c-.37,0-.73-.07-1.06-.22s-.53-.37-.61-.66l-3.9-12.65c-.03-.09-.04-.16-.04-.2,0-.21,.09-.4,.26-.56s.39-.29,.65-.38c.26-.09,.51-.14,.75-.14,.21,0,.4,.04,.56,.11,.16,.07,.26,.21,.3,.41l3.08,10.9,3.06-10.9c.07-.2,.18-.34,.33-.41,.15-.07,.34-.11,.55-.11,.24,0,.49,.05,.74,.14,.25,.09,.47,.22,.64,.38s.26,.35,.26,.56c0,.03,0,.06-.01,.09s0,.07,0,.11l-3.88,12.65c-.08,.3-.28,.52-.61,.66-.33,.15-.69,.22-1.08,.22Z"/><path d="M92.6,14.82c-.24,0-.49-.05-.74-.14-.25-.09-.47-.22-.64-.38-.17-.16-.26-.35-.26-.56,0-.04,0-.11,.02-.2l3.88-12.65c.09-.29,.31-.52,.63-.66s.68-.22,1.06-.22,.74,.07,1.07,.22,.53,.37,.62,.66l3.88,12.65c.03,.09,.04,.16,.04,.2,0,.2-.09,.39-.27,.55-.18,.17-.4,.3-.65,.39-.26,.09-.5,.14-.74,.14-.21,0-.4-.04-.55-.11-.15-.07-.26-.21-.31-.41l-.76-2.67h-4.63l-.74,2.67c-.05,.2-.16,.34-.32,.41-.16,.07-.35,.11-.56,.11Zm2.19-5.25h3.5l-1.75-6.17-1.75,6.17Z"/><path d="M107.44,15c-.87,0-1.66-.13-2.36-.38-.7-.25-1.26-.57-1.67-.95s-.61-.77-.61-1.16c0-.19,.05-.39,.15-.61,.1-.22,.24-.41,.41-.56,.17-.15,.37-.23,.58-.23s.41,.08,.6,.23c.19,.15,.4,.34,.64,.54s.54,.39,.89,.54c.35,.15,.78,.23,1.29,.23,.4,0,.77-.06,1.12-.19,.34-.13,.62-.32,.82-.57,.21-.25,.31-.58,.31-.99,0-.43-.11-.79-.34-1.09-.23-.3-.54-.55-.92-.76s-.81-.42-1.27-.62c-.46-.2-.92-.42-1.38-.64-.46-.23-.88-.5-1.27-.82s-.69-.72-.93-1.19c-.23-.47-.35-1.05-.35-1.73,0-.75,.14-1.38,.43-1.89,.29-.51,.67-.92,1.15-1.24,.48-.32,1-.54,1.58-.68,.58-.14,1.15-.21,1.73-.21,.31,0,.67,.02,1.1,.07,.42,.05,.84,.13,1.27,.25,.42,.12,.77,.29,1.05,.49,.27,.21,.41,.47,.41,.79,0,.16-.04,.35-.11,.56-.07,.22-.19,.41-.34,.57-.15,.17-.35,.25-.59,.25-.21,0-.43-.06-.63-.19-.21-.13-.48-.25-.8-.38-.33-.13-.78-.19-1.34-.19-.47,0-.88,.06-1.23,.19-.35,.13-.61,.3-.78,.52-.17,.22-.26,.5-.26,.83s.12,.64,.35,.89,.54,.46,.93,.64c.38,.19,.8,.38,1.26,.56,.46,.19,.91,.41,1.38,.65s.89,.55,1.28,.9c.39,.35,.7,.78,.92,1.3,.23,.52,.34,1.15,.34,1.9,0,.95-.21,1.75-.62,2.4-.42,.65-.98,1.14-1.7,1.47-.72,.33-1.54,.49-2.46,.49Z"/><path d="M118.5,14.94c-.83,0-1.6-.15-2.31-.45-.71-.3-1.27-.79-1.69-1.47-.42-.68-.62-1.57-.62-2.68V4.73c0-1.11,.21-2.01,.62-2.68s.98-1.17,1.69-1.47c.71-.3,1.49-.45,2.33-.45,.94,0,1.77,.16,2.48,.47,.72,.32,1.28,.75,1.69,1.32s.61,1.24,.61,2.03c0,.52-.11,.87-.32,1.04-.22,.17-.54,.25-.99,.25-.36,0-.67-.06-.91-.19s-.38-.34-.39-.63c0-.16-.02-.35-.07-.57-.05-.22-.14-.44-.27-.65s-.34-.4-.61-.54c-.27-.15-.65-.22-1.14-.22-.68,0-1.21,.19-1.58,.57-.37,.38-.55,.96-.55,1.74v5.61c0,.79,.19,1.37,.56,1.75s.91,.56,1.61,.56c.46,0,.82-.07,1.09-.22s.47-.33,.59-.55c.13-.22,.21-.45,.26-.69,.05-.24,.08-.47,.11-.68,.03-.31,.16-.52,.4-.64,.24-.12,.54-.18,.89-.18,.46,0,.79,.09,1.01,.26,.21,.17,.32,.52,.32,1.03,0,.8-.2,1.51-.61,2.11s-.98,1.07-1.7,1.39c-.72,.32-1.56,.48-2.49,.48Z"/><path d="M133.16,14.92c-.17,0-.35-.05-.51-.16-.17-.11-.3-.26-.39-.46l-2.86-5.55h-1.69v5.25c0,.27-.13,.47-.4,.61s-.57,.21-.9,.21-.62-.07-.9-.21-.41-.35-.41-.61V.92c0-.21,.08-.4,.23-.56,.15-.16,.36-.24,.61-.24h3.98c.88,0,1.69,.13,2.4,.38,.72,.25,1.29,.69,1.72,1.3,.43,.61,.64,1.45,.64,2.52,0,.78-.11,1.44-.34,1.98-.23,.54-.54,.98-.94,1.31-.4,.33-.85,.57-1.36,.73l2.65,4.89c.03,.05,.05,.11,.06,.17,.01,.06,.02,.11,.02,.15,0,.21-.08,.43-.24,.64-.16,.22-.36,.39-.61,.52-.25,.13-.51,.2-.77,.2Zm-5.45-8.22h2.21c.66,0,1.18-.16,1.57-.48,.39-.32,.58-.87,.58-1.65s-.19-1.36-.58-1.68-.91-.47-1.57-.47h-2.21V6.7Z"/><path d="M137.83,14.82c-.32,0-.62-.07-.9-.21s-.41-.35-.41-.61V.92c0-.28,.14-.49,.41-.61,.27-.13,.57-.19,.9-.19s.64,.06,.9,.19c.27,.13,.4,.33,.4,.61V14c0,.27-.13,.47-.4,.61s-.57,.21-.9,.21Z"/><path d="M142.87,14.82c-.32,0-.62-.07-.9-.21s-.41-.35-.41-.61V.92c0-.21,.09-.4,.28-.56,.19-.16,.43-.24,.72-.24h4.02c.86,0,1.63,.15,2.32,.44,.69,.29,1.24,.77,1.64,1.44,.4,.66,.6,1.54,.6,2.64v.12c0,1.1-.21,1.98-.62,2.65-.42,.67-.98,1.16-1.7,1.46-.72,.3-1.52,.45-2.4,.45h-2.25v4.67c0,.27-.13,.47-.4,.61s-.57,.21-.9,.21Zm1.31-7.54h2.25c.67,0,1.19-.19,1.56-.57,.37-.38,.55-.96,.55-1.74v-.24c0-.78-.19-1.36-.55-1.74-.37-.38-.89-.57-1.56-.57h-2.25V7.28Z"/><path d="M156.81,14.82c-.34,0-.64-.07-.9-.21s-.4-.35-.4-.61V2.47h-2.96c-.26,0-.46-.12-.6-.36-.15-.24-.22-.52-.22-.82,0-.28,.07-.55,.2-.79s.34-.37,.62-.37h8.51c.29,0,.51,.12,.63,.37,.13,.25,.19,.51,.19,.79,0,.31-.07,.58-.21,.82s-.35,.36-.61,.36h-2.94V14c0,.27-.14,.47-.41,.61-.27,.14-.57,.21-.9,.21Z"/></g><g><path class="l" d="M89.39,118.26c-3.95,0-7.52-.7-10.69-2.1-3.17-1.39-5.66-3.4-7.46-6.02-1.81-2.62-2.71-5.7-2.71-9.25,0-2.21,.48-3.68,1.44-4.41,.96-.73,2.4-1.09,4.32-1.09,1.45,0,2.73,.25,3.84,.74s1.69,1.44,1.75,2.84c.12,1.4,.42,2.82,.92,4.27,.49,1.46,1.38,2.66,2.66,3.62,1.28,.96,3.11,1.44,5.49,1.44,2.97,0,5.25-.83,6.85-2.48,1.6-1.66,2.4-4.18,2.4-7.55V63.9h-8.99c-1.1,0-1.96-.49-2.57-1.48-.61-.99-.92-2.18-.92-3.58,0-1.16,.28-2.27,.83-3.32,.55-1.05,1.44-1.57,2.66-1.57h15.27c1.28,0,2.44,.31,3.49,.92,1.05,.61,1.57,1.5,1.57,2.66v40.75c0,4.83-.92,8.71-2.75,11.65-1.83,2.94-4.26,5.06-7.29,6.37-3.03,1.31-6.4,1.96-10.12,1.96Z"/><path class="l" d="M131.19,118.52c-3.78,0-7.2-.55-10.25-1.66-3.05-1.1-5.47-2.49-7.24-4.14-1.78-1.66-2.66-3.33-2.66-5.02,0-.81,.22-1.7,.65-2.66,.44-.96,1.03-1.77,1.79-2.44,.76-.67,1.6-1,2.53-1s1.8,.33,2.62,1c.81,.67,1.75,1.46,2.79,2.36,1.05,.9,2.32,1.69,3.84,2.36,1.51,.67,3.37,1,5.59,1,1.75,0,3.36-.28,4.84-.83,1.49-.55,2.68-1.38,3.58-2.49,.9-1.1,1.35-2.53,1.35-4.27,0-1.86-.49-3.43-1.48-4.71-.99-1.28-2.33-2.39-4.01-3.32s-3.52-1.83-5.5-2.71-3.97-1.8-5.97-2.79c-2.01-.99-3.84-2.18-5.5-3.58-1.66-1.39-3-3.11-4.01-5.15-1.02-2.03-1.53-4.54-1.53-7.5,0-3.26,.62-5.99,1.88-8.2,1.25-2.21,2.91-4,4.97-5.37,2.06-1.36,4.35-2.36,6.85-2.97,2.5-.61,5-.92,7.5-.92,1.34,0,2.92,.1,4.75,.31,1.83,.2,3.66,.57,5.5,1.09s3.34,1.24,4.54,2.14c1.19,.9,1.79,2.05,1.79,3.45,0,.7-.16,1.51-.48,2.44-.32,.93-.81,1.76-1.48,2.49s-1.53,1.09-2.57,1.09c-.93,0-1.85-.28-2.75-.83-.9-.55-2.07-1.1-3.49-1.66-1.42-.55-3.36-.83-5.8-.83-2.04,0-3.81,.28-5.32,.83-1.51,.55-2.64,1.31-3.4,2.27-.76,.96-1.13,2.17-1.13,3.62s.51,2.79,1.53,3.84c1.02,1.05,2.36,1.98,4.01,2.79,1.66,.81,3.47,1.63,5.45,2.44,1.98,.81,3.97,1.76,5.97,2.84,2.01,1.08,3.85,2.37,5.54,3.88,1.69,1.51,3.02,3.39,4.01,5.63,.99,2.24,1.48,4.99,1.48,8.24,0,4.13-.9,7.61-2.71,10.43-1.8,2.82-4.26,4.95-7.37,6.37s-6.67,2.14-10.69,2.14Z"/></g><g><g><path class="m" d="M173.42,47.62c0-2.96,1.2-5.42,3.15-7.32,.24-.23,.62-.24,.89-.03l.34,.27c.3,.24,.35,.69,.09,.97-1.66,1.8-2.38,3.67-2.38,6.11s.72,4.31,2.38,6.11c.26,.28,.21,.73-.09,.97l-.34,.27c-.26,.21-.65,.2-.89-.03-1.95-1.9-3.15-4.35-3.15-7.32Z"/><path class="m" d="M192.14,54.7c-.3-.24-.35-.69-.09-.97,1.66-1.8,2.38-3.67,2.38-6.11s-.72-4.31-2.38-6.11c-.26-.28-.21-.73,.09-.97l.34-.27c.26-.21,.65-.2,.89,.03,1.95,1.9,3.15,4.35,3.15,7.32s-1.2,5.42-3.15,7.32c-.24,.23-.62,.24-.89,.03l-.34-.27Z"/><path class="m" d="M181.34,58.51l5.05-24c.05-.23,.25-.4,.49-.4h1.22c.32,0,.55,.29,.49,.6l-5.07,24c-.05,.23-.25,.4-.49,.4h-1.2c-.32,0-.55-.29-.49-.6Z"/></g><g><path class="m" d="M190.7,68.17v-.96c0-.25,.18-.46,.43-.49,.43-.06,.77-.22,1.01-.47,.32-.33,.48-1.07,.48-2.23,0-.88,.04-1.53,.11-1.96,.07-.42,.25-.78,.53-1.07,.28-.29,.64-.49,1.09-.62,.44-.13,1.07-.19,1.89-.19h.47v1.38c0,.27-.22,.49-.48,.5-.56,.03-.91,.1-1.04,.22-.17,.16-.26,.46-.27,.91-.04,1.25-.08,2.06-.14,2.43-.06,.37-.18,.73-.39,1.07-.12,.2-.3,.4-.54,.59s-.26,.57-.02,.76,.43,.4,.57,.63c.24,.39,.38,.95,.42,1.69l.13,2.27c.05,.22,.18,.38,.38,.5,.15,.08,.44,.14,.89,.16,.27,.01,.48,.23,.48,.5v1.38h-.46c-.94,0-1.66-.09-2.17-.29-.51-.19-.88-.5-1.11-.93-.23-.43-.34-1.13-.34-2.09,0-1.06-.04-1.74-.12-2.04-.08-.3-.24-.57-.47-.82-.18-.19-.47-.31-.89-.37-.25-.03-.43-.24-.43-.49Z"/><path class="m" d="M198.88,79.59l5.05-24c.05-.23,.25-.4,.49-.4h1.22c.32,0,.55,.29,.49,.6l-5.07,24c-.05,.23-.25,.4-.49,.4h-1.2c-.32,0-.55-.29-.49-.6Z"/><path class="m" d="M214.29,68.17c0,.25-.18,.45-.43,.49-.43,.06-.77,.22-1.01,.48-.32,.33-.48,1.07-.48,2.22,0,.88-.04,1.54-.11,1.96-.07,.42-.25,.78-.53,1.07-.28,.29-.64,.49-1.09,.62-.44,.13-1.07,.19-1.89,.19h-.47v-1.39c0-.27,.21-.49,.48-.5,.53-.03,.87-.1,1.01-.22,.18-.15,.28-.46,.29-.92,.04-1.33,.09-2.19,.16-2.56s.22-.73,.44-1.06c.11-.17,.26-.33,.45-.48,.25-.2,.25-.58,0-.77-.2-.16-.35-.31-.46-.46-.2-.28-.33-.59-.4-.92s-.12-.94-.16-1.84c-.04-.9-.08-1.41-.12-1.54-.05-.13-.16-.24-.34-.34-.13-.07-.43-.11-.88-.13-.27-.01-.49-.23-.49-.5v-1.37h.47c.94,0,1.66,.1,2.17,.29,.51,.19,.88,.5,1.11,.93,.23,.43,.34,1.13,.34,2.09,0,1.1,.05,1.8,.14,2.08,.09,.29,.25,.55,.48,.78,.17,.18,.46,.3,.87,.35,.25,.03,.44,.24,.44,.49v.96Z"/></g><g><path class="m" d="M173.17,97.97v-14c0-.28,.22-.5,.5-.5h5c.28,0,.5,.22,.5,.5v.51c0,.28-.22,.5-.5,.5h-2.29c-.28,0-.5,.22-.5,.5v10.96c0,.28,.22,.5,.5,.5h2.29c.28,0,.5,.22,.5,.5v.53c0,.28-.22,.5-.5,.5h-5c-.28,0-.5-.22-.5-.5Z"/><path class="m" d="M196.76,83.77v14c0,.28-.22,.5-.5,.5h-5c-.28,0-.5-.22-.5-.5v-.51c0-.28,.22-.5,.5-.5h2.29c.28,0,.5-.22,.5-.5v-10.96c0-.28-.22-.5-.5-.5h-2.29c-.28,0-.5-.22-.5-.5v-.53c0-.28,.22-.5,.5-.5h5c.28,0,.5,.22,.5,.5Z"/><path class="m" d="M181.34,102.67l5.05-24c.05-.23,.25-.4,.49-.4h1.22c.32,0,.55,.29,.49,.6l-5.07,24c-.05,.23-.25,.4-.49,.4h-1.2c-.32,0-.55-.29-.49-.6Z"/></g></g><g><polygon class="h" points="6.53 70.14 7.67 69.84 63.25 69.84 63.97 70.21 64.34 70.87 64.34 101.31 63.63 102.18 7.16 102.18 6.53 101.92 6.32 101.24 6.32 70.63 6.53 70.14"/><circle class="i" cx="9.16" cy="71.98" r=".88"/><circle class="g" cx="12.16" cy="71.98" r=".88"/><circle class="j" cx="15.16" cy="71.98" r=".88"/><g><path d="M63.22,69.64H7.28c-.69,0-1.25,.56-1.25,1.25v30.34c0,.69,.56,1.25,1.25,1.25H63.22c.69,0,1.25-.56,1.25-1.25v-30.34c0-.69-.56-1.25-1.25-1.25Zm-55.93,.5H63.22c.41,0,.75,.34,.75,.75v2.79H6.53v-2.79c0-.41,.34-.75,.75-.75Zm55.93,31.84H7.28c-.41,0-.75-.34-.75-.75v-27.05H63.97v27.05c0,.41-.34,.75-.75,.75Z"/><path d="M9.16,73.23c.69,0,1.25-.56,1.25-1.25s-.56-1.25-1.25-1.25-1.25,.56-1.25,1.25,.56,1.25,1.25,1.25Zm0-2c.41,0,.75,.34,.75,.75s-.34,.75-.75,.75-.75-.34-.75-.75,.34-.75,.75-.75Z"/><path d="M12.16,73.23c.69,0,1.25-.56,1.25-1.25s-.56-1.25-1.25-1.25-1.25,.56-1.25,1.25,.56,1.25,1.25,1.25Zm0-2c.41,0,.75,.34,.75,.75s-.34,.75-.75,.75-.75-.34-.75-.75,.34-.75,.75-.75Z"/><path d="M15.16,73.23c.69,0,1.25-.56,1.25-1.25s-.56-1.25-1.25-1.25-1.25,.56-1.25,1.25,.56,1.25,1.25,1.25Zm0-2c.41,0,.75,.34,.75,.75s-.34,.75-.75,.75-.75-.34-.75-.75,.34-.75,.75-.75Z"/></g><g><circle class="n" cx="35.33" cy="88.08" r="2.05"/><path class="n" d="M46.83,88.08c0-1.61-1.89-3-4.83-3.85,.11-.45,.21-.9,.28-1.32,.39-2.42-.04-4.12-1.2-4.79-1.16-.67-2.85-.19-4.75,1.35-.33,.27-.67,.58-1,.9-.33-.32-.67-.63-1-.9-1.9-1.54-3.59-2.02-4.75-1.35-1.16,.67-1.59,2.37-1.21,4.79,.07,.43,.17,.87,.28,1.33-2.94,.84-4.83,2.24-4.83,3.85s1.89,3,4.83,3.85c-.11,.45-.21,.9-.28,1.33-.39,2.42,.04,4.12,1.21,4.79,.34,.2,.73,.3,1.16,.3,1.02,0,2.25-.56,3.59-1.65,.33-.27,.67-.58,1-.9,.33,.32,.67,.63,1,.9,1.34,1.09,2.57,1.65,3.59,1.65,.43,0,.82-.1,1.16-.3,1.16-.67,1.59-2.37,1.2-4.79-.07-.43-.17-.87-.28-1.32,2.94-.84,4.83-2.24,4.83-3.85Zm-9.87-7.83c1.15-.93,2.18-1.43,2.94-1.43,.25,0,.48,.05,.67,.17,.77,.44,1.03,1.81,.72,3.76-.06,.4-.16,.81-.26,1.23-.94-.22-1.97-.38-3.06-.48-.63-.88-1.28-1.7-1.94-2.42,.31-.3,.62-.59,.93-.84Zm1.57,9.68c-.35,.61-.73,1.21-1.11,1.77-.67,.05-1.37,.08-2.09,.08s-1.42-.03-2.09-.08c-.38-.56-.76-1.16-1.11-1.77-.36-.62-.68-1.23-.98-1.85,.3-.62,.62-1.23,.98-1.85,.35-.61,.73-1.21,1.11-1.77,.67-.05,1.37-.08,2.09-.08s1.42,.03,2.09,.08c.38,.56,.76,1.16,1.11,1.77,.36,.62,.68,1.23,.98,1.85-.3,.62-.62,1.23-.98,1.85Zm1.51-.68c.28,.67,.52,1.32,.72,1.96-.64,.14-1.33,.27-2.06,.36,.24-.37,.47-.75,.7-1.14,.23-.39,.44-.78,.64-1.18Zm-4.71,5.1c-.45-.49-.9-1.03-1.34-1.61,.44,.02,.88,.03,1.34,.03s.9-.01,1.34-.03c-.44,.58-.89,1.11-1.34,1.61Zm-3.37-2.78c-.73-.09-1.42-.21-2.06-.36,.2-.64,.44-1.29,.72-1.96,.2,.39,.41,.79,.64,1.18,.23,.39,.46,.77,.7,1.14Zm-1.34-4.67c-.28-.67-.52-1.32-.72-1.96,.64-.14,1.33-.27,2.06-.36-.24,.37-.47,.75-.7,1.14-.23,.39-.44,.78-.64,1.18Zm4.71-5.1c.45,.49,.9,1.03,1.34,1.61-.44-.02-.88-.03-1.34-.03s-.9,.01-1.34,.03c.44-.58,.89-1.11,1.34-1.61Zm4.07,3.92c-.23-.39-.46-.77-.7-1.14,.73,.09,1.42,.21,2.06,.36-.2,.64-.44,1.29-.72,1.96-.2-.39-.41-.79-.64-1.18Zm-10.04-2.98c-.31-1.95-.05-3.32,.72-3.76,.19-.11,.42-.17,.67-.17,.77,0,1.8,.49,2.94,1.43,.31,.25,.62,.54,.93,.84-.67,.72-1.32,1.53-1.94,2.42-1.09,.1-2.12,.26-3.06,.48-.11-.42-.2-.84-.26-1.23Zm-4.53,5.33c0-1.04,1.54-2.16,4.1-2.89,.29,.93,.67,1.9,1.12,2.89-.45,.98-.83,1.95-1.12,2.89-2.55-.73-4.1-1.84-4.1-2.89Zm8.87,7.83c-1.53,1.24-2.85,1.7-3.62,1.26-.77-.44-1.03-1.81-.72-3.76,.06-.4,.16-.81,.26-1.23,.94,.22,1.97,.38,3.06,.48,.63,.88,1.28,1.7,1.94,2.42-.31,.3-.62,.59-.93,.84Zm7.6-2.5c.31,1.95,.05,3.32-.72,3.76-.77,.44-2.09-.02-3.62-1.26-.31-.25-.62-.54-.93-.84,.67-.72,1.32-1.53,1.94-2.42,1.09-.1,2.12-.26,3.06-.48,.11,.42,.2,.84,.26,1.23Zm.43-2.44c-.29-.93-.67-1.9-1.12-2.89,.45-.98,.83-1.95,1.12-2.89,2.55,.73,4.1,1.84,4.1,2.89s-1.54,2.16-4.1,2.89Z"/></g></g></g><g id="d"><polygon class="p" points="64.23 56.11 48.34 56.14 64.23 41.16 69.86 47.72 70.49 48.62 64.23 56.11"/><polygon class="p" points="64.19 130.51 48.31 130.54 64.19 115.56 69.83 122.12 70.45 123.02 64.19 130.51"/><polygon class="p" points="220.66 121.3 204.78 121.32 220.66 106.35 226.3 112.9 226.92 113.81 220.66 121.3"/><polygon class="p" points="6.53 101.92 63.97 70.21 64.34 70.87 64.34 101.31 63.63 102.18 6.53 101.92"/><polygon class="f" points="167.47 23.47 76.53 154.53 109.42 175.19 110.55 175.19 111.58 174.93 167.47 139.69 168.22 138.64 168.56 137.58 168.56 121.35 162.69 121.35 156.85 114.2 156.89 113.4 157.51 112.51 162.67 106.35 168.46 106.35 168.46 25.54 168.26 24.61 167.47 23.47"/></g></g></svg>