<?xml version="1.0" encoding="UTF-8"?><svg xmlns="http://www.w3.org/2000/svg" viewBox="0 0 217.99 177.94"><defs><style>.e{font-size:12px;}.e,.f{fill:#fff;font-family:Dosis-Bold, Dosis;}.g{opacity:.1;}.h{letter-spacing:0em;}.i{letter-spacing:0em;}.j{fill:#009600;}.j,.k,.l,.m,.n,.o,.p,.q,.r{stroke:#000;stroke-miterlimit:10;stroke-width:.5px;}.k{fill:#fc6600;}.l{fill:#fafa00;}.m,.r{fill:none;stroke-linecap:round;}.n{fill:#2449dd;}.o{fill:#2861e8;}.p{fill:#c80000;}.q{fill:#c8c800;}.f{font-size:11px;}.r{stroke-dasharray:0 0 1 1;}.s{opacity:.15;}</style></defs><g id="a"/><g id="b"><g id="c"><path class="n" d="M51.15,28.19v111.77c0,1.03,.53,1.99,1.4,2.54l55.22,34.72c.98,.61,2.22,.61,3.19,0l55.22-34.72c.87-.55,1.4-1.51,1.4-2.54V28.19c0-1.66-1.34-3-3-3H54.15c-1.66,0-3,1.34-3,3Z"/><g><path d="M95.23,19.92c-1.11,0-2.14-.2-3.09-.6-.95-.4-1.7-1.06-2.25-1.96-.55-.9-.83-2.1-.83-3.58V6.28c0-1.49,.28-2.68,.83-3.58s1.31-1.56,2.25-1.96,1.99-.6,3.12-.6c1.25,0,2.36,.21,3.31,.63,.96,.42,1.71,1.01,2.26,1.76,.54,.75,.82,1.66,.82,2.71,0,.7-.14,1.16-.43,1.38s-.73,.34-1.32,.34c-.49,0-.89-.08-1.22-.25-.33-.17-.51-.45-.52-.85,0-.22-.03-.47-.09-.77-.06-.29-.18-.59-.36-.87-.18-.29-.45-.53-.82-.72s-.87-.29-1.52-.29c-.91,0-1.61,.25-2.11,.76-.49,.51-.74,1.28-.74,2.32v7.49c0,1.06,.25,1.83,.75,2.34,.5,.5,1.22,.75,2.15,.75,.61,0,1.09-.1,1.45-.3,.36-.2,.62-.44,.79-.74,.17-.3,.29-.6,.35-.93,.06-.32,.11-.63,.15-.91,.03-.41,.21-.7,.54-.86,.32-.16,.71-.24,1.18-.24,.61,0,1.06,.12,1.34,.35s.43,.69,.43,1.37c0,1.07-.27,2.01-.82,2.82-.55,.81-1.3,1.42-2.27,1.85-.97,.43-2.08,.64-3.33,.64Z"/><path d="M109.27,20c-1.16,0-2.21-.17-3.15-.51s-1.68-.76-2.23-1.27c-.55-.51-.82-1.02-.82-1.54,0-.25,.07-.52,.2-.82,.14-.29,.32-.55,.55-.75,.23-.21,.49-.31,.78-.31s.55,.1,.81,.31c.25,.21,.54,.45,.86,.73,.32,.28,.72,.52,1.18,.72,.47,.21,1.04,.31,1.72,.31,.54,0,1.03-.09,1.49-.26,.46-.17,.82-.42,1.1-.76s.42-.78,.42-1.32c0-.57-.15-1.06-.46-1.45-.31-.39-.72-.73-1.24-1.02-.52-.29-1.08-.56-1.69-.83-.61-.27-1.22-.55-1.84-.86-.62-.3-1.18-.67-1.69-1.1-.51-.43-.92-.96-1.23-1.58-.31-.63-.47-1.4-.47-2.31,0-1,.19-1.84,.58-2.52,.38-.68,.9-1.23,1.53-1.65,.63-.42,1.34-.73,2.11-.91s1.54-.28,2.31-.28c.41,0,.9,.03,1.46,.09,.56,.06,1.13,.17,1.69,.34,.56,.16,1.03,.38,1.4,.66,.37,.28,.55,.63,.55,1.06,0,.22-.05,.47-.15,.75-.1,.29-.25,.54-.46,.77s-.47,.34-.79,.34c-.29,0-.57-.09-.85-.26-.28-.17-.64-.34-1.07-.51-.44-.17-1.03-.25-1.78-.25-.63,0-1.17,.09-1.64,.25-.47,.17-.81,.4-1.05,.7-.23,.3-.35,.67-.35,1.11s.16,.86,.47,1.18c.31,.32,.72,.61,1.23,.86,.51,.25,1.07,.5,1.68,.75,.61,.25,1.22,.54,1.84,.87,.62,.33,1.18,.73,1.7,1.2,.52,.47,.93,1.04,1.23,1.73s.46,1.53,.46,2.54c0,1.27-.28,2.34-.83,3.21-.55,.87-1.31,1.52-2.27,1.96-.96,.44-2.05,.66-3.29,.66Z"/><path d="M123.28,20c-1.16,0-2.21-.17-3.15-.51s-1.68-.76-2.23-1.27c-.55-.51-.82-1.02-.82-1.54,0-.25,.07-.52,.2-.82,.14-.29,.32-.55,.55-.75,.23-.21,.49-.31,.78-.31s.55,.1,.81,.31c.25,.21,.54,.45,.86,.73,.32,.28,.72,.52,1.18,.72,.47,.21,1.04,.31,1.72,.31,.54,0,1.03-.09,1.49-.26,.46-.17,.82-.42,1.1-.76s.42-.78,.42-1.32c0-.57-.15-1.06-.46-1.45-.31-.39-.72-.73-1.24-1.02-.52-.29-1.08-.56-1.69-.83-.61-.27-1.22-.55-1.84-.86-.62-.3-1.18-.67-1.69-1.1-.51-.43-.92-.96-1.23-1.58-.31-.63-.47-1.4-.47-2.31,0-1,.19-1.84,.58-2.52,.38-.68,.9-1.23,1.53-1.65,.63-.42,1.34-.73,2.11-.91s1.54-.28,2.31-.28c.41,0,.9,.03,1.46,.09,.56,.06,1.13,.17,1.69,.34,.56,.16,1.03,.38,1.4,.66,.37,.28,.55,.63,.55,1.06,0,.22-.05,.47-.15,.75-.1,.29-.25,.54-.46,.77s-.47,.34-.79,.34c-.29,0-.57-.09-.85-.26-.28-.17-.64-.34-1.07-.51-.44-.17-1.03-.25-1.78-.25-.63,0-1.17,.09-1.64,.25-.47,.17-.81,.4-1.05,.7-.23,.3-.35,.67-.35,1.11s.16,.86,.47,1.18c.31,.32,.72,.61,1.23,.86,.51,.25,1.07,.5,1.68,.75,.61,.25,1.22,.54,1.84,.87,.62,.33,1.18,.73,1.7,1.2,.52,.47,.93,1.04,1.23,1.73s.46,1.53,.46,2.54c0,1.27-.28,2.34-.83,3.21-.55,.87-1.31,1.52-2.27,1.96-.96,.44-2.05,.66-3.29,.66Z"/></g><path class="o" d="M108.62,141.06c-5.52,0-10.25-.77-14.18-2.3-3.94-1.54-7.18-3.53-9.71-5.97-2.53-2.44-4.36-5.11-5.5-8.01-1.13-2.89-1.69-5.7-1.69-8.41s.61-4.55,1.83-5.5c1.21-.95,3.37-1.42,6.44-1.42,3.62,0,6.04,.47,7.27,1.42,1.21,.95,1.83,2.56,1.83,4.82,0,1.54,.31,2.92,.95,4.14,.63,1.22,1.56,2.26,2.78,3.12,1.21,.86,2.71,1.51,4.47,1.97s3.73,.68,5.91,.68c5.06,0,8.75-1.13,11.05-3.4,2.31-2.26,3.46-6.01,3.46-11.26v-2.58c0-4.97-1.38-8.37-4.13-10.18-2.76-1.81-6.32-2.71-10.66-2.71-1.99,0-3.39-.72-4.21-2.17s-1.23-3.03-1.23-4.75,.41-3.3,1.23-4.75c.82-1.45,2.18-2.17,4.07-2.17,2.25,0,4.34-.29,6.24-.88,1.9-.59,3.41-1.83,4.55-3.73,1.13-1.9,1.69-4.8,1.69-8.68,0-4.52-1.06-7.65-3.19-9.36-2.12-1.72-5.04-2.58-8.75-2.58-2.18,0-4.03,.2-5.57,.61-1.53,.4-2.8,1.02-3.8,1.83-.99,.82-1.7,1.77-2.1,2.85-.41,1.09-.62,2.36-.62,3.8,0,1.99-.56,3.62-1.69,4.88-1.14,1.27-3.32,1.9-6.58,1.9-2.72,0-4.7-.22-5.97-.67s-2.13-1.24-2.57-2.38c-.46-1.13-.68-2.64-.68-4.54,0-2.44,.5-5.02,1.49-7.74,.99-2.71,2.63-5.29,4.89-7.73,2.25-2.45,5.29-4.41,9.09-5.91,3.8-1.49,8.55-2.24,14.24-2.24s10.42,.77,14.72,2.31,7.72,4.07,10.25,7.6,3.8,8.33,3.8,14.38c0,5.34-.95,10.04-2.85,14.11s-4.53,6.87-7.87,8.41c3.99,1.53,7.29,3.93,9.91,7.19,2.63,3.26,3.94,7.69,3.94,13.3v2.58c0,7.33-1.47,13.18-4.42,17.57-2.94,4.39-6.87,7.58-11.8,9.57-4.92,1.99-10.38,2.98-16.34,2.98Z"/><g><path class="o" d="M64.01,41.06H6.49c-.22,0-.43,.11-.59,.29L.49,47.85c-.32,.39-.32,1.02,0,1.41l5.41,6.5c.16,.19,.37,.29,.59,.29h57.53c.22,0,.43-.11,.59-.29l5.41-6.5c.32-.39,.32-1.02,0-1.41l-5.41-6.5c-.16-.19-.37-.29-.59-.29Z"/><text class="e" transform="translate(22.19 52.33)"><tspan x="0" y="0">.class</tspan></text></g><g><path class="o" d="M64.01,122.22H6.49c-.22,0-.43,.11-.59,.29l-5.41,6.5c-.32,.39-.32,1.02,0,1.41l5.41,6.5c.16,.19,.37,.29,.59,.29h57.53c.22,0,.43-.11,.59-.29l5.41-6.5c.32-.39,.32-1.02,0-1.41l-5.41-6.5c-.16-.19-.37-.29-.59-.29Z"/><text class="e" transform="translate(16.01 133.49)"><tspan x="0" y="0">&lt; style &gt;</tspan></text></g><g><path class="o" d="M211.5,60.85h-57.53c-.22,0-.43,.11-.59,.29l-5.41,6.5c-.32,.39-.32,1.02,0,1.41l5.41,6.5c.16,.19,.37,.29,.59,.29h57.53c.22,0,.43-.11,.59-.29l5.41-6.5c.32-.39,.32-1.02,0-1.41l-5.41-6.5c-.16-.19-.37-.29-.59-.29Z"/><text class="f" transform="translate(154.85 72.12)"><tspan x="0" y="0">@</tspan><tspan class="h" x="8.17" y="0">k</tspan><tspan x="13.5" y="0">eyf</tspan><tspan class="i" x="27.79" y="0">r</tspan><tspan x="31.84" y="0">ames</tspan></text></g><g><rect class="p" x="9.64" y="69.41" width="25" height="25" rx="1" ry="1"/><path class="k" d="M31.55,97.9h-12.7c-.77,0-1.25-.83-.87-1.5l6.35-11,6.35-11c.38-.67,1.35-.67,1.73,0l6.35,11,6.35,11c.38,.67-.1,1.5-.87,1.5h-12.7Z"/><polygon class="q" points="56.3 101.62 56.3 87.19 43.8 79.97 31.3 87.19 31.3 101.62 43.8 108.84 56.3 101.62"/><circle class="j" cx="57.75" cy="101.85" r="12.5"/></g><g><path class="l" d="M176.08,112.58l-11.74,2.14c-.32,.06-.56-.27-.42-.56l5.44-10.62c.06-.11,.06-.25,0-.36l-5.67-10.5c-.15-.28,.09-.62,.4-.57l11.78,1.89c.13,.02,.25-.02,.34-.12l8.24-8.64c.22-.23,.62-.11,.67,.21l1.84,11.79c.02,.13,.1,.24,.22,.29l10.76,5.17c.29,.14,.3,.55,0,.7l-10.64,5.4c-.11,.06-.19,.17-.21,.3l-1.59,11.83c-.04,.32-.43,.45-.66,.22l-8.42-8.46c-.09-.09-.22-.13-.35-.11Z"/><g><g><path class="m" d="M203.78,116.51s-.09-.16-.28-.41"/><path class="r" d="M202.85,115.34c-1.28-1.32-3.91-3.08-7.96-1.53-4.53,1.74-6.36-1.59-6.99-3.33"/><path class="m" d="M187.75,110.01c-.09-.3-.12-.48-.12-.48"/></g><path d="M204.93,116.66c.23-.14,.54,.02,.54,.29l.02,.93,.02,.93c0,.27-.28,.45-.53,.32l-.82-.44-.82-.44c-.24-.13-.25-.47-.02-.62l.79-.49,.79-.49Z"/></g><g><path class="m" d="M175.73,93.48s-1.56-5.56-7.95-4.8-5.98-5.94-5.98-5.94"/><circle cx="161.46" cy="82.04" r="1.5"/></g></g></g><g id="d"><polygon class="s" points="63.99 56.02 48.11 56.05 63.99 41.07 69.63 47.63 70.25 48.53 63.99 56.02"/><polygon class="s" points="211.59 75.82 195.71 75.84 211.59 60.87 217.23 67.42 217.85 68.33 211.59 75.82"/><polygon class="s" points="63.99 137.18 48.11 137.21 63.99 122.23 69.63 128.79 70.25 129.7 63.99 137.18"/><polygon class="g" points="166.36 25.78 74.42 156.26 107.77 177.23 108.96 177.69 110.04 177.61 111.56 176.85 166.55 142.23 167.27 141.27 167.58 139.63 167.58 114.14 164.47 114.6 163.87 114.34 167.58 107.03 167.58 100.02 163.65 92.36 164.1 92.11 167.58 92.67 167.58 76.11 153.87 75.84 147.74 68.35 147.74 67.97 153.58 60.85 167.58 60.85 167.58 28.19 167.34 27.02 166.36 25.78"/><polygon class="s" points="198.12 102.88 163.87 114.54 164.47 114.6 170.07 113.68 176.19 112.59 177.1 113.37 184.85 121.15 185.4 121.15 187.16 108.97 197.96 103.4 198.12 102.88"/><path class="s" d="M49.59,111.32s19.39,3.29,19.39-14.95l.94,2.65,.33,3.25-.64,3.54-1.75,3.4-2.68,2.7-3.36,1.77-4.07,.68-3.33-.45-2.86-1.19-1.97-1.39Z"/><polygon class="s" points="31.3 101.62 56.3 87.19 56.3 89.35 52.88 90.26 51.11 91.3 49.12 92.81 46.81 95.81 45.47 99.51 45.26 102.18 45.68 105.1 46.39 107.08 45.8 107.68 43.8 108.84 40.42 106.84 31.3 101.62"/><path class="s" d="M17.92,97.25s13.38-7.63,13.38-7.49,0,8.14,0,8.14l-12.62,.12-.76-.76Z"/><polygon class="s" points="9.77 93.89 34.37 69.72 34.64 70.64 34.64 77.95 32.58 74.4 31.77 73.9 31.04 74 30.5 74.63 19.04 94.41 10.64 94.41 9.77 93.89"/></g></g></svg>