<?xml version="1.0" encoding="UTF-8"?><svg xmlns="http://www.w3.org/2000/svg" viewBox="0 0 150.5 150.5"><defs><style>.d{fill:#f8b962;}.e{fill:#695e0d;}.f{fill:#ffce68;}.g{fill:#742e04;}.h{fill:#dfc772;}.i{fill:#af9179;}.j{fill:#9b765f;}.k{fill:#8c3b13;}</style></defs><g id="a"/><g id="b"><g id="c"><g><rect class="f" x="6.02" y="115.63" width="5.77" height="5.77"/><rect class="f" x="6.02" y="109.87" width="5.77" height="5.76"/><rect class="f" x="6.02" y="104.1" width="5.77" height="5.77"/><rect class="f" x="6.02" y="98.33" width="5.77" height="5.77"/><rect class="f" x="6.02" y="92.56" width="5.77" height="5.77"/><rect class="f" x="6.02" y="86.79" width="5.77" height="5.77"/><rect class="f" x="6.02" y="81.02" width="5.77" height="5.77"/><rect class="f" x="6.02" y="75.25" width="5.77" height="5.77"/><rect class="f" x="6.02" y="69.48" width="5.77" height="5.77"/><rect class="f" x="6.02" y="63.71" width="5.77" height="5.77"/><rect class="f" x="6.02" y="57.94" width="5.77" height="5.77"/><rect class="f" x="11.79" y="127.17" width="5.77" height="5.77"/><rect class="f" x="11.79" y="121.4" width="5.77" height="5.77"/><rect class="j" x="11.79" y="115.63" width="5.77" height="5.77"/><rect class="j" x="11.79" y="109.87" width="5.77" height="5.76"/><rect class="j" x="11.79" y="104.1" width="5.77" height="5.77"/><rect class="j" x="11.79" y="98.33" width="5.77" height="5.77"/><rect class="g" x="11.79" y="92.56" width="5.77" height="5.77"/><rect class="g" x="11.79" y="86.79" width="5.77" height="5.77"/><rect class="g" x="11.79" y="81.02" width="5.77" height="5.77"/><rect class="g" x="11.79" y="75.25" width="5.77" height="5.77"/><rect class="k" x="11.79" y="69.48" width="5.77" height="5.77"/><rect class="g" x="11.79" y="63.71" width="5.77" height="5.77"/><rect class="h" x="11.79" y="57.94" width="5.77" height="5.77"/><rect class="f" x="11.79" y="52.17" width="5.77" height="5.77"/><rect class="f" x="11.79" y="46.4" width="5.77" height="5.77"/><rect class="f" x="17.56" y="132.94" width="5.77" height="5.77"/><rect class="j" x="17.56" y="127.17" width="5.77" height="5.77"/><rect class="j" x="17.56" y="121.4" width="5.77" height="5.77"/><rect class="i" x="17.56" y="115.63" width="5.77" height="5.77"/><rect class="j" x="17.56" y="109.87" width="5.77" height="5.76"/><rect class="i" x="17.56" y="104.1" width="5.77" height="5.77"/><rect class="j" x="17.56" y="98.33" width="5.77" height="5.77"/><rect class="j" x="17.56" y="92.56" width="5.77" height="5.77"/><rect class="g" x="17.56" y="86.79" width="5.77" height="5.77"/><rect class="g" x="17.56" y="81.02" width="5.77" height="5.77"/><rect class="k" x="17.56" y="75.25" width="5.77" height="5.77"/><rect class="g" x="17.56" y="69.48" width="5.77" height="5.77"/><rect class="g" x="17.56" y="63.71" width="5.77" height="5.77"/><rect class="e" x="17.56" y="57.94" width="5.77" height="5.77"/><rect class="e" x="17.56" y="52.17" width="5.77" height="5.77"/><rect class="e" x="17.56" y="46.4" width="5.77" height="5.77"/><rect class="f" x="17.56" y="40.63" width="5.77" height="5.77"/><rect class="f" x="23.33" y="132.94" width="5.77" height="5.77"/><rect class="j" x="23.33" y="127.17" width="5.77" height="5.77"/><rect class="j" x="23.33" y="121.4" width="5.77" height="5.77"/><rect class="i" x="23.33" y="115.63" width="5.77" height="5.77"/><rect class="j" x="23.33" y="109.87" width="5.77" height="5.76"/><rect class="j" x="23.33" y="104.1" width="5.77" height="5.77"/><rect class="j" x="23.33" y="98.33" width="5.77" height="5.77"/><rect class="j" x="23.33" y="92.56" width="5.77" height="5.77"/><rect class="j" x="23.33" y="86.79" width="5.77" height="5.77"/><rect class="i" x="23.33" y="81.02" width="5.77" height="5.77"/><rect class="g" x="23.33" y="75.25" width="5.77" height="5.77"/><rect class="g" x="23.33" y="69.48" width="5.77" height="5.77"/><rect class="g" x="23.33" y="63.71" width="5.77" height="5.77"/><rect class="g" x="23.33" y="57.94" width="5.77" height="5.77"/><rect class="e" x="23.33" y="52.17" width="5.77" height="5.77"/><rect class="e" x="23.33" y="46.4" width="5.77" height="5.77"/><rect class="e" x="23.33" y="40.63" width="5.77" height="5.77"/><rect class="f" x="23.33" y="34.87" width="5.77" height="5.76"/><rect class="f" x="29.1" y="132.94" width="5.77" height="5.77"/><rect class="i" x="29.1" y="127.17" width="5.77" height="5.77"/><rect class="j" x="29.1" y="121.4" width="5.77" height="5.77"/><rect class="j" x="29.1" y="115.63" width="5.77" height="5.77"/><rect class="j" x="29.1" y="109.87" width="5.77" height="5.76"/><rect class="j" x="29.1" y="104.1" width="5.77" height="5.77"/><rect class="i" x="29.1" y="98.33" width="5.77" height="5.77"/><rect class="i" x="29.1" y="92.56" width="5.77" height="5.77"/><rect class="j" x="29.1" y="86.79" width="5.77" height="5.77"/><rect class="j" x="29.1" y="81.02" width="5.77" height="5.77"/><rect class="g" x="29.1" y="75.25" width="5.77" height="5.77"/><rect class="g" x="29.1" y="69.48" width="5.77" height="5.77"/><rect class="k" x="29.1" y="63.71" width="5.77" height="5.77"/><rect class="g" x="29.1" y="57.94" width="5.77" height="5.77"/><rect class="h" x="29.1" y="52.17" width="5.77" height="5.77"/><rect class="h" x="29.1" y="46.4" width="5.77" height="5.77"/><rect class="e" x="29.1" y="40.63" width="5.77" height="5.77"/><rect class="e" x="29.1" y="34.87" width="5.77" height="5.76"/><rect class="f" x="29.1" y="29.1" width="5.77" height="5.77"/><rect class="f" x="34.87" y="132.94" width="5.76" height="5.77"/><rect class="f" x="34.87" y="127.17" width="5.76" height="5.77"/><rect class="j" x="34.87" y="121.4" width="5.76" height="5.77"/><rect class="j" x="34.87" y="115.63" width="5.76" height="5.77"/><rect class="i" x="34.87" y="109.87" width="5.76" height="5.76"/><rect class="j" x="34.87" y="104.1" width="5.76" height="5.77"/><rect class="j" x="34.87" y="98.33" width="5.76" height="5.77"/><rect class="i" x="34.87" y="92.56" width="5.76" height="5.77"/><rect class="j" x="34.87" y="86.79" width="5.76" height="5.77"/><rect class="g" x="34.87" y="81.02" width="5.76" height="5.77"/><rect class="g" x="34.87" y="75.25" width="5.76" height="5.77"/><rect class="g" x="34.87" y="69.48" width="5.76" height="5.77"/><rect class="g" x="34.87" y="63.71" width="5.76" height="5.77"/><rect class="g" x="34.87" y="57.94" width="5.76" height="5.77"/><rect class="e" x="34.87" y="52.17" width="5.76" height="5.77"/><rect class="h" x="34.87" y="46.4" width="5.76" height="5.77"/><rect class="e" x="34.87" y="40.63" width="5.76" height="5.77"/><rect class="e" x="34.87" y="34.87" width="5.76" height="5.76"/><rect class="e" x="34.87" y="29.1" width="5.76" height="5.77"/><rect class="f" x="34.87" y="23.33" width="5.76" height="5.77"/><rect class="f" x="40.63" y="127.17" width="5.77" height="5.77"/><rect class="f" x="40.63" y="121.4" width="5.77" height="5.77"/><rect class="f" x="40.63" y="115.63" width="5.77" height="5.77"/><rect class="f" x="40.63" y="109.87" width="5.77" height="5.76"/><rect class="j" x="40.63" y="104.1" width="5.77" height="5.77"/><rect class="j" x="40.63" y="98.33" width="5.77" height="5.77"/><rect class="j" x="40.63" y="92.56" width="5.77" height="5.77"/><rect class="k" x="40.63" y="86.79" width="5.77" height="5.77"/><rect class="g" x="40.63" y="81.02" width="5.77" height="5.77"/><rect class="g" x="40.63" y="75.25" width="5.77" height="5.77"/><rect class="k" x="40.63" y="69.48" width="5.77" height="5.77"/><rect class="g" x="40.63" y="63.71" width="5.77" height="5.77"/><rect class="g" x="40.63" y="57.94" width="5.77" height="5.77"/><rect class="e" x="40.63" y="52.17" width="5.77" height="5.77"/><rect class="e" x="40.63" y="46.4" width="5.77" height="5.77"/><rect class="e" x="40.63" y="40.63" width="5.77" height="5.77"/><rect class="h" x="40.63" y="34.87" width="5.77" height="5.76"/><rect class="e" x="40.63" y="29.1" width="5.77" height="5.77"/><rect class="f" x="40.63" y="23.33" width="5.77" height="5.77"/><rect class="f" x="46.4" y="127.17" width="5.77" height="5.77"/><rect class="d" x="46.4" y="121.4" width="5.77" height="5.77"/><rect class="d" x="46.4" y="115.63" width="5.77" height="5.77"/><rect class="d" x="46.4" y="109.87" width="5.77" height="5.76"/><rect class="f" x="46.4" y="104.1" width="5.77" height="5.77"/><rect class="f" x="46.4" y="98.33" width="5.77" height="5.77"/><rect class="k" x="46.4" y="92.56" width="5.77" height="5.77"/><rect class="g" x="46.4" y="86.79" width="5.77" height="5.77"/><rect class="g" x="46.4" y="81.02" width="5.77" height="5.77"/><rect class="k" x="46.4" y="75.25" width="5.77" height="5.77"/><rect class="g" x="46.4" y="69.48" width="5.77" height="5.77"/><rect class="g" x="46.4" y="63.71" width="5.77" height="5.77"/><rect class="k" x="46.4" y="57.94" width="5.77" height="5.77"/><rect class="h" x="46.4" y="52.17" width="5.77" height="5.77"/><rect class="e" x="46.4" y="46.4" width="5.77" height="5.77"/><rect class="e" x="46.4" y="40.63" width="5.77" height="5.77"/><rect class="e" x="46.4" y="34.87" width="5.77" height="5.76"/><rect class="e" x="46.4" y="29.1" width="5.77" height="5.77"/><rect class="f" x="46.4" y="23.33" width="5.77" height="5.77"/><rect class="f" x="52.17" y="127.17" width="5.77" height="5.77"/><rect class="d" x="52.17" y="121.4" width="5.77" height="5.77"/><rect class="d" x="52.17" y="115.63" width="5.77" height="5.77"/><rect class="d" x="52.17" y="109.87" width="5.77" height="5.76"/><rect class="d" x="52.17" y="104.1" width="5.77" height="5.77"/><rect class="d" x="52.17" y="98.33" width="5.77" height="5.77"/><rect class="f" x="52.17" y="92.56" width="5.77" height="5.77"/><rect class="f" x="52.17" y="86.79" width="5.77" height="5.77"/><rect class="g" x="52.17" y="81.02" width="5.77" height="5.77"/><rect class="g" x="52.17" y="75.25" width="5.77" height="5.77"/><rect class="g" x="52.17" y="69.48" width="5.77" height="5.77"/><rect class="g" x="52.17" y="63.71" width="5.77" height="5.77"/><rect class="g" x="52.17" y="57.94" width="5.77" height="5.77"/><rect class="h" x="52.17" y="52.17" width="5.77" height="5.77"/><rect class="h" x="52.17" y="46.4" width="5.77" height="5.77"/><rect class="e" x="52.17" y="40.63" width="5.77" height="5.77"/><rect class="e" x="52.17" y="34.87" width="5.77" height="5.76"/><rect class="h" x="52.17" y="29.1" width="5.77" height="5.77"/><rect class="f" x="52.17" y="23.33" width="5.77" height="5.77"/><rect class="f" x="57.94" y="121.4" width="5.77" height="5.77"/><rect class="d" x="57.94" y="115.63" width="5.77" height="5.77"/><rect class="d" x="57.94" y="109.87" width="5.77" height="5.76"/><rect class="d" x="57.94" y="104.1" width="5.77" height="5.77"/><rect class="d" x="57.94" y="98.33" width="5.77" height="5.77"/><rect class="d" x="57.94" y="92.56" width="5.77" height="5.77"/><rect class="d" x="57.94" y="86.79" width="5.77" height="5.77"/><rect class="f" x="57.94" y="81.02" width="5.77" height="5.77"/><rect class="f" x="57.94" y="75.25" width="5.77" height="5.77"/><rect class="g" x="57.94" y="69.48" width="5.77" height="5.77"/><rect class="g" x="57.94" y="63.71" width="5.77" height="5.77"/><rect class="e" x="57.94" y="57.94" width="5.77" height="5.77"/><rect class="e" x="57.94" y="52.17" width="5.77" height="5.77"/><rect class="h" x="57.94" y="46.4" width="5.77" height="5.77"/><rect class="h" x="57.94" y="40.63" width="5.77" height="5.77"/><rect class="e" x="57.94" y="34.87" width="5.77" height="5.76"/><rect class="e" x="57.94" y="29.1" width="5.77" height="5.77"/><rect class="f" x="57.94" y="23.33" width="5.77" height="5.77"/><rect class="f" x="63.71" y="121.4" width="5.77" height="5.77"/><rect class="d" x="63.71" y="115.63" width="5.77" height="5.77"/><rect class="d" x="63.71" y="109.87" width="5.77" height="5.76"/><rect class="d" x="63.71" y="104.1" width="5.77" height="5.77"/><rect class="d" x="63.71" y="98.33" width="5.77" height="5.77"/><rect class="d" x="63.71" y="92.56" width="5.77" height="5.77"/><rect class="d" x="63.71" y="86.79" width="5.77" height="5.77"/><rect class="d" x="63.71" y="81.02" width="5.77" height="5.77"/><rect class="d" x="63.71" y="75.25" width="5.77" height="5.77"/><rect class="f" x="63.71" y="69.48" width="5.77" height="5.77"/><rect class="f" x="63.71" y="63.71" width="5.77" height="5.77"/><rect class="e" x="63.71" y="57.94" width="5.77" height="5.77"/><rect class="e" x="63.71" y="52.17" width="5.77" height="5.77"/><rect class="e" x="63.71" y="46.4" width="5.77" height="5.77"/><rect class="e" x="63.71" y="40.63" width="5.77" height="5.77"/><rect class="e" x="63.71" y="34.87" width="5.77" height="5.76"/><rect class="f" x="63.71" y="29.1" width="5.77" height="5.77"/><rect class="f" x="69.48" y="121.4" width="5.77" height="5.77"/><rect class="d" x="69.48" y="115.63" width="5.77" height="5.77"/><rect class="d" x="69.48" y="109.87" width="5.77" height="5.76"/><rect class="d" x="69.48" y="104.1" width="5.77" height="5.77"/><rect class="d" x="69.48" y="98.33" width="5.77" height="5.77"/><rect class="d" x="69.48" y="92.56" width="5.77" height="5.77"/><rect class="d" x="69.48" y="86.79" width="5.77" height="5.77"/><rect class="d" x="69.48" y="81.02" width="5.77" height="5.77"/><rect class="d" x="69.48" y="75.25" width="5.77" height="5.77"/><rect class="d" x="69.48" y="69.48" width="5.77" height="5.77"/><rect class="d" x="69.48" y="63.71" width="5.77" height="5.77"/><rect class="f" x="69.48" y="57.94" width="5.77" height="5.77"/><rect class="f" x="69.48" y="52.17" width="5.77" height="5.77"/><rect class="e" x="69.48" y="46.4" width="5.77" height="5.77"/><rect class="e" x="69.48" y="40.63" width="5.77" height="5.77"/><rect class="f" x="69.48" y="34.87" width="5.77" height="5.76"/><rect class="f" x="75.25" y="115.63" width="5.77" height="5.77"/><rect class="d" x="75.25" y="109.87" width="5.77" height="5.76"/><rect class="d" x="75.25" y="104.1" width="5.77" height="5.77"/><rect class="d" x="75.25" y="98.33" width="5.77" height="5.77"/><rect class="d" x="75.25" y="92.56" width="5.77" height="5.77"/><rect class="d" x="75.25" y="86.79" width="5.77" height="5.77"/><rect class="d" x="75.25" y="81.02" width="5.77" height="5.77"/><rect class="d" x="75.25" y="75.25" width="5.77" height="5.77"/><rect class="d" x="75.25" y="69.48" width="5.77" height="5.77"/><rect class="d" x="75.25" y="63.71" width="5.77" height="5.77"/><rect class="d" x="75.25" y="57.94" width="5.77" height="5.77"/><rect class="d" x="75.25" y="52.17" width="5.77" height="5.77"/><rect class="f" x="75.25" y="46.4" width="5.77" height="5.77"/><rect class="f" x="75.25" y="40.63" width="5.77" height="5.77"/><rect class="f" x="75.25" y="34.87" width="5.77" height="5.76"/><rect class="f" x="81.02" y="115.63" width="5.77" height="5.77"/><rect class="d" x="81.02" y="109.87" width="5.77" height="5.76"/><rect class="d" x="81.02" y="104.1" width="5.77" height="5.77"/><rect class="d" x="81.02" y="98.33" width="5.77" height="5.77"/><rect class="d" x="81.02" y="92.56" width="5.77" height="5.77"/><rect class="d" x="81.02" y="86.79" width="5.77" height="5.77"/><rect class="d" x="81.02" y="81.02" width="5.77" height="5.77"/><rect class="d" x="81.02" y="75.25" width="5.77" height="5.77"/><rect class="d" x="81.02" y="69.48" width="5.77" height="5.77"/><rect class="d" x="81.02" y="63.71" width="5.77" height="5.77"/><rect class="d" x="81.02" y="57.94" width="5.77" height="5.77"/><rect class="d" x="81.02" y="52.17" width="5.77" height="5.77"/><rect class="d" x="81.02" y="46.4" width="5.77" height="5.77"/><rect class="f" x="81.02" y="40.63" width="5.77" height="5.77"/><rect class="f" x="86.79" y="115.63" width="5.77" height="5.77"/><rect class="d" x="86.79" y="109.87" width="5.77" height="5.76"/><rect class="d" x="86.79" y="104.1" width="5.77" height="5.77"/><rect class="d" x="86.79" y="98.33" width="5.77" height="5.77"/><rect class="d" x="86.79" y="92.56" width="5.77" height="5.77"/><rect class="d" x="86.79" y="86.79" width="5.77" height="5.77"/><rect class="d" x="86.79" y="81.02" width="5.77" height="5.77"/><rect class="d" x="86.79" y="75.25" width="5.77" height="5.77"/><rect class="d" x="86.79" y="69.48" width="5.77" height="5.77"/><rect class="d" x="86.79" y="63.71" width="5.77" height="5.77"/><rect class="d" x="86.79" y="57.94" width="5.77" height="5.77"/><rect class="d" x="86.79" y="52.17" width="5.77" height="5.77"/><rect class="d" x="86.79" y="46.4" width="5.77" height="5.77"/><rect class="d" x="86.79" y="40.63" width="5.77" height="5.77"/><rect class="f" x="86.79" y="34.87" width="5.77" height="5.76"/><rect class="f" x="92.56" y="109.87" width="5.77" height="5.76"/><rect class="d" x="92.56" y="104.1" width="5.77" height="5.77"/><rect class="d" x="92.56" y="98.33" width="5.77" height="5.77"/><rect class="d" x="92.56" y="92.56" width="5.77" height="5.77"/><rect class="d" x="92.56" y="86.79" width="5.77" height="5.77"/><rect class="d" x="92.56" y="81.02" width="5.77" height="5.77"/><rect class="d" x="92.56" y="75.25" width="5.77" height="5.77"/><rect class="d" x="92.56" y="69.48" width="5.77" height="5.77"/><rect class="d" x="92.56" y="63.71" width="5.77" height="5.77"/><rect class="d" x="92.56" y="57.94" width="5.77" height="5.77"/><rect class="d" x="92.56" y="52.17" width="5.77" height="5.77"/><rect class="d" x="92.56" y="46.4" width="5.77" height="5.77"/><rect class="d" x="92.56" y="40.63" width="5.77" height="5.77"/><rect class="d" x="92.56" y="34.87" width="5.77" height="5.76"/><rect class="f" x="92.56" y="29.1" width="5.77" height="5.77"/><rect class="f" x="98.33" y="109.87" width="5.77" height="5.76"/><rect class="d" x="98.33" y="104.1" width="5.77" height="5.77"/><rect class="d" x="98.33" y="98.33" width="5.77" height="5.77"/><rect class="d" x="98.33" y="92.56" width="5.77" height="5.77"/><rect class="d" x="98.33" y="86.79" width="5.77" height="5.77"/><rect class="d" x="98.33" y="81.02" width="5.77" height="5.77"/><rect class="d" x="98.33" y="75.25" width="5.77" height="5.77"/><rect class="d" x="98.33" y="69.48" width="5.77" height="5.77"/><rect class="d" x="98.33" y="63.71" width="5.77" height="5.77"/><rect class="d" x="98.33" y="57.94" width="5.77" height="5.77"/><rect class="d" x="98.33" y="52.17" width="5.77" height="5.77"/><rect class="d" x="98.33" y="46.4" width="5.77" height="5.77"/><rect class="d" x="98.33" y="40.63" width="5.77" height="5.77"/><rect class="d" x="98.33" y="34.87" width="5.77" height="5.76"/><rect class="d" x="98.33" y="29.1" width="5.77" height="5.77"/><rect class="f" x="98.33" y="23.33" width="5.77" height="5.77"/><rect class="f" x="104.1" y="109.87" width="5.77" height="5.76"/><rect class="d" x="104.1" y="104.1" width="5.77" height="5.77"/><rect class="d" x="104.1" y="98.33" width="5.77" height="5.77"/><rect class="d" x="104.1" y="92.56" width="5.77" height="5.77"/><rect class="d" x="104.1" y="86.79" width="5.77" height="5.77"/><rect class="d" x="104.1" y="81.02" width="5.77" height="5.77"/><rect class="d" x="104.1" y="75.25" width="5.77" height="5.77"/><rect class="d" x="104.1" y="69.48" width="5.77" height="5.77"/><rect class="d" x="104.1" y="63.71" width="5.77" height="5.77"/><rect class="d" x="104.1" y="57.94" width="5.77" height="5.77"/><rect class="d" x="104.1" y="52.17" width="5.77" height="5.77"/><rect class="d" x="104.1" y="46.4" width="5.77" height="5.77"/><rect class="d" x="104.1" y="40.63" width="5.77" height="5.77"/><rect class="d" x="104.1" y="34.87" width="5.77" height="5.76"/><rect class="d" x="104.1" y="29.1" width="5.77" height="5.77"/><rect class="f" x="104.1" y="23.33" width="5.77" height="5.77"/><rect class="f" x="109.87" y="109.87" width="5.76" height="5.76"/><rect class="d" x="109.87" y="104.1" width="5.76" height="5.77"/><rect class="d" x="109.87" y="98.33" width="5.76" height="5.77"/><rect class="d" x="109.87" y="92.56" width="5.76" height="5.77"/><rect class="d" x="109.87" y="86.79" width="5.76" height="5.77"/><rect class="d" x="109.87" y="81.02" width="5.76" height="5.77"/><rect class="d" x="109.87" y="75.25" width="5.76" height="5.77"/><rect class="d" x="109.87" y="69.48" width="5.76" height="5.77"/><rect class="d" x="109.87" y="63.71" width="5.76" height="5.77"/><rect class="d" x="109.87" y="57.94" width="5.76" height="5.77"/><rect class="d" x="109.87" y="52.17" width="5.76" height="5.77"/><rect class="d" x="109.87" y="46.4" width="5.76" height="5.77"/><rect class="d" x="109.87" y="40.63" width="5.76" height="5.77"/><rect class="d" x="109.87" y="34.87" width="5.76" height="5.76"/><rect class="d" x="109.87" y="29.1" width="5.76" height="5.77"/><rect class="f" x="109.87" y="23.33" width="5.76" height="5.77"/><rect class="f" x="115.63" y="104.1" width="5.77" height="5.77"/><rect class="d" x="115.63" y="98.33" width="5.77" height="5.77"/><rect class="d" x="115.63" y="92.56" width="5.77" height="5.77"/><rect class="d" x="115.63" y="86.79" width="5.77" height="5.77"/><rect class="d" x="115.63" y="81.02" width="5.77" height="5.77"/><rect class="d" x="115.63" y="75.25" width="5.77" height="5.77"/><rect class="d" x="115.63" y="69.48" width="5.77" height="5.77"/><rect class="d" x="115.63" y="63.71" width="5.77" height="5.77"/><rect class="d" x="115.63" y="57.94" width="5.77" height="5.77"/><rect class="d" x="115.63" y="52.17" width="5.77" height="5.77"/><rect class="d" x="115.63" y="46.4" width="5.77" height="5.77"/><rect class="d" x="115.63" y="40.63" width="5.77" height="5.77"/><rect class="d" x="115.63" y="34.87" width="5.77" height="5.76"/><rect class="d" x="115.63" y="29.1" width="5.77" height="5.77"/><rect class="f" x="115.63" y="23.33" width="5.77" height="5.77"/><rect class="f" x="121.4" y="104.1" width="5.77" height="5.77"/><rect class="d" x="121.4" y="98.33" width="5.77" height="5.77"/><rect class="d" x="121.4" y="92.56" width="5.77" height="5.77"/><rect class="d" x="121.4" y="86.79" width="5.77" height="5.77"/><rect class="d" x="121.4" y="81.02" width="5.77" height="5.77"/><rect class="d" x="121.4" y="75.25" width="5.77" height="5.77"/><rect class="d" x="121.4" y="69.48" width="5.77" height="5.77"/><rect class="d" x="121.4" y="63.71" width="5.77" height="5.77"/><rect class="d" x="121.4" y="57.94" width="5.77" height="5.77"/><rect class="d" x="121.4" y="52.17" width="5.77" height="5.77"/><rect class="d" x="121.4" y="46.4" width="5.77" height="5.77"/><rect class="d" x="121.4" y="40.63" width="5.77" height="5.77"/><rect class="d" x="121.4" y="34.87" width="5.77" height="5.76"/><rect class="f" x="121.4" y="29.1" width="5.77" height="5.77"/><rect class="f" x="127.17" y="98.33" width="5.77" height="5.77"/><rect class="d" x="127.17" y="92.56" width="5.77" height="5.77"/><rect class="d" x="127.17" y="86.79" width="5.77" height="5.77"/><rect class="d" x="127.17" y="81.02" width="5.77" height="5.77"/><rect class="d" x="127.17" y="75.25" width="5.77" height="5.77"/><rect class="d" x="127.17" y="69.48" width="5.77" height="5.77"/><rect class="d" x="127.17" y="63.71" width="5.77" height="5.77"/><rect class="d" x="127.17" y="57.94" width="5.77" height="5.77"/><rect class="d" x="127.17" y="52.17" width="5.77" height="5.77"/><rect class="d" x="127.17" y="46.4" width="5.77" height="5.77"/><rect class="d" x="127.17" y="40.63" width="5.77" height="5.77"/><rect class="f" x="127.17" y="34.87" width="5.77" height="5.76"/><rect class="f" x="132.94" y="98.33" width="5.77" height="5.77"/><rect class="d" x="132.94" y="92.56" width="5.77" height="5.77"/><rect class="d" x="132.94" y="86.79" width="5.77" height="5.77"/><rect class="d" x="132.94" y="81.02" width="5.77" height="5.77"/><rect class="d" x="132.94" y="75.25" width="5.77" height="5.77"/><rect class="d" x="132.94" y="69.48" width="5.77" height="5.77"/><rect class="d" x="132.94" y="63.71" width="5.77" height="5.77"/><rect class="d" x="132.94" y="57.94" width="5.77" height="5.77"/><rect class="d" x="132.94" y="52.17" width="5.77" height="5.77"/><rect class="f" x="132.94" y="46.4" width="5.77" height="5.77"/><rect class="f" x="132.94" y="40.63" width="5.77" height="5.77"/><rect class="f" x="138.71" y="92.56" width="5.77" height="5.77"/><rect class="f" x="138.71" y="86.79" width="5.77" height="5.77"/><rect class="f" x="138.71" y="81.02" width="5.77" height="5.77"/><rect class="f" x="138.71" y="75.25" width="5.77" height="5.77"/><rect class="f" x="138.71" y="69.48" width="5.77" height="5.77"/><rect class="f" x="138.71" y="63.71" width="5.77" height="5.77"/><rect class="f" x="138.71" y="57.94" width="5.77" height="5.77"/><rect class="f" x="138.71" y="52.17" width="5.77" height="5.77"/></g></g></g></svg>