<?xml version="1.0" encoding="UTF-8"?><svg xmlns="http://www.w3.org/2000/svg" viewBox="0 0 104.07 102.92"><defs><style>.d{fill:#454545;}</style></defs><g id="a"/><g id="b"><g id="c"><g><path class="d" d="M100.66,2.04c-1.91-1.21-4.22-1.54-6.45-1.7-.12-.03-.25-.05-.39-.04-.08,0-.17,0-.25,0-.18-.01-.35-.02-.53-.03-.12,0-.24,.01-.35,.04-21.22,.25-42.44,.25-63.65-.01C22.89,.22,16.74,.12,10.6,0c-.33,0-.59,.08-.81,.22-.77-.1-1.54-.09-2.34,.07-1.36,.28-2.64,1.04-3.56,2.07C1.87,4.6,1.38,7.65,1.63,10.57c.02,.2,.07,.4,.15,.58-.46,21.48-.92,42.96-1.39,64.44C.26,81.73,.13,87.88,0,94.02c-.01,.52,.2,.89,.51,1.13,.43,1.6,1.29,3.08,2.53,4.18,1.45,1.29,3.33,2.09,5.27,2.22,.2,.12,.45,.19,.74,.19,22.75-.12,45.51,.03,68.25,.46,6.07,.11,12.15,.25,18.22,.41,.36,.28,.84,.41,1.28,.25,2.16-.74,3.89-2.41,4.85-4.48,1.11-2.41,1.28-5.07,1.15-7.69-.01-.21-.06-.41-.15-.6,.8-20.84-.12-41.7,.39-62.54,.15-5.97,.42-11.94,.88-17.89,0-.02,.02-.04,.02-.07,.53-2.98-.71-5.92-3.29-7.54Zm-1.57,94.78c-.28,.66-.77,1.42-1.25,1.92-.34,.36-.73,.66-1.13,.89-22.74-.58-45.48-.89-68.23-.93-6.04,0-12.07,0-18.11,.04-.22-.14-.47-.22-.74-.19-.47,.04-.93,.04-1.4,0-.03,0-.04,0-.06,0h-.05c-.1-.03-.21-.05-.31-.07-.23-.05-.45-.11-.68-.18-.12-.04-.24-.08-.36-.12-.02,0-.15-.06-.2-.08-.06-.03-.13-.06-.14-.07-.11-.06-.23-.12-.34-.18-.2-.11-.4-.24-.59-.37-.05-.03-.09-.07-.12-.08-.08-.06-.15-.13-.23-.19-.16-.14-.31-.29-.46-.44-.09-.09-.17-.19-.25-.28-.02-.03-.04-.04-.05-.05l-.03-.04c-.27-.38-.49-.78-.71-1.2l-.02-.04h0c-.04-.11-.08-.2-.11-.3-.08-.22-.14-.44-.2-.67-.05-.19-.08-.39-.11-.58,0-.07-.02-.18-.02-.21,0-.13-.01-.25-.02-.38,0-.21-.06-.41-.14-.6,.46-21.2,.91-42.4,1.37-63.6,.13-6.14,.26-12.28,.4-18.42,0-.33-.08-.6-.22-.82-.02-.86,.02-1.7,.17-2.38,.07-.3,.15-.6,.25-.89,.04-.13,.09-.25,.14-.37-.11,.3,.04-.09,.06-.13,.1-.22,.22-.43,.35-.64,.07-.11,.14-.22,.22-.33,.03-.04,.06-.08,.08-.12h0c.16-.18,.32-.36,.49-.53,.1-.09,.2-.17,.29-.26-.22,.21,.08-.05,.12-.08,.21-.14,.44-.27,.67-.38,.03-.01,.08-.03,.11-.05,.13-.05,.26-.09,.39-.12,.11-.03,.22-.06,.33-.08,.05,0,.15-.02,.2-.03,.25-.02,.5-.03,.75-.02,.02,0,.22,.02,.26,.02,.1,.02,.19,.03,.29,.06,.11,.03,.22,.06,.33,.09,.06,.02,.5,.18,.21,.06,.65,.28,1.46,.24,1.92-.34,21.06,.39,42.12,.54,63.18,.43,6.04-.03,12.08-.09,18.12-.16,.4,.02,.79,.05,1.19,.08,.27,.02,.53,.05,.79,.08,.04,0,.07,0,.09,0,.02,0,.05,0,.09,.02,.12,.02,.24,.04,.36,.06,.54,.09,1.07,.22,1.59,.38,.2,.06,.39,.13,.58,.21,.06,.02,.19,.08,.23,.1,.12,.06,.25,.12,.37,.19,.22,.12,.43,.26,.64,.4,.03,.02,.03,.02,.03,.02,.01,.01,.02,.02,.05,.04,.11,.09,.21,.18,.31,.28,.1,.1,.2,.2,.29,.3,.02,.02,.13,.16,.17,.2,.04,.06,.15,.22,.17,.26,.06,.1,.13,.21,.18,.32,0,0,.1,.21,.12,.24,.05,.11,.09,.23,.12,.34,.08,.23,.13,.47,.18,.71,0,.04,.02,.07,.02,.09,0,.02,0,.04,0,.09,0,.15,.02,.29,.02,.44,0,.15-.01,.29-.02,.44,0,.03,0,.05,0,.07,0,.02-.01,.05-.02,.11,0,.02,0,.04,0,.06-.05,.13-.08,.27-.1,.42-1.68,21.39-.84,42.85-.95,64.28-.03,6.1-.15,12.2-.41,18.3-.02,.36,.08,.65,.24,.88-.03,1.44-.22,2.87-.75,4.1Z"/><path class="d" d="M16.26,11.24s-.03,0,0,0h0Z"/><path class="d" d="M14.91,18.52c2.28,.41,4.47-.47,5.85-2.33,.62-.84,1.02-1.89,.93-2.95-.07-.83-.42-1.68-1.04-2.23,0-.23-.06-.47-.2-.68-.59-.99-1.58-1.7-2.7-1.97-1.17-.28-2.31-.11-3.4,.37-1.92,.84-3.98,2.94-3.84,5.18,.15,2.31,2.18,4.21,4.4,4.61Zm2.21-3.09s.02,0,0,0h0Zm1.54-2.17h0c-.08-.05-.05-.04,0,0Zm.14,.13c.05,.01,.13,.03,.13,.03-.04,.02-.09,0-.13-.03Zm-5.2-.08h0c.12-.19,.22-.38,.34-.57,0,0,0,0,.01-.01,.06-.06,.12-.13,.18-.2,.12-.13,.24-.25,.37-.36,.06-.06,.13-.11,.19-.17,.01-.01,.06-.05,.1-.08,.04-.03,.09-.06,.1-.07,.11-.07,.21-.14,.32-.21,.15-.09,.3-.16,.45-.23,.02,0,.04-.02,.05-.02,.12-.04,.24-.08,.36-.11,.08-.02,.17-.03,.25-.05-.05,.01-.07,.02-.09,.02,.04,0,.1-.02,.17-.02,.08,0,.15,0,.23,0,.02,0,.09,0,.15,.01,.03,0,.07,.01,.08,.01,.09,.02,.19,.04,.28,.07,.04,.01,.07,.02,.1,.04-.12-.04,.11,.05,.17,.09,.06,.04,.13,.09,.19,.12-.27-.14-.04-.03,.04,.05,0,0,.02,.02,.03,.03-.1,.69,.25,1.52,.98,1.71v.04s0,.14,0,.24c.02-.06,.05-.09,.01,.03,0,.02-.01,.04-.02,.06,0,.03,0,.05,0,.05,0,0,0-.02-.01-.04l-.04,.15s0,.03-.01,.04c-.02,.04-.04,.08-.05,.1-.08,.16-.17,.3-.27,.45l-.02,.03s-.07,.09-.11,.13c-.12,.13-.24,.25-.37,.37-.01,.01-.05,.04-.08,.07-.03,.02-.06,.04-.08,.05-.15,.1-.3,.19-.45,.27-.04,.02-.08,.04-.12,.06-.02,0-.05,.02-.06,.02-.17,.05-.33,.1-.51,.14-.02,0-.05,.01-.09,.02-.04,0-.08,0-.1,0-.18,.01-.36,0-.54,0-.02,0-.02,0-.03,0-.07-.01-.15-.03-.22-.04-.16-.03-.31-.08-.46-.13l-.09-.03s-.09-.04-.11-.05c-.16-.08-.32-.17-.47-.27,0,0-.12-.1-.17-.13l-.05-.04c-.12-.11-.22-.23-.33-.34,0,0,0,0,0,0-.05-.07-.1-.14-.14-.22-.04-.08-.08-.16-.13-.23,0-.01,0,0-.01-.01,0-.02,0-.02,0-.05,0,0-.03-.11-.05-.18,0-.05-.01-.1-.01-.12,0-.02,0-.07,0-.12,0-.05,.02-.1,.02-.12,.02-.08,.05-.16,.07-.24Z"/><path class="d" d="M18.68,13.74h0s0-.07,0-.1c-.01,.03-.01,.07,0,.1Z"/><path class="d" d="M28.69,19.24c1.17,.46,2.41,.38,3.46-.35,.81-.56,1.48-1.32,1.88-2.22,.89-1.98,.6-4.33-.81-5.96,.07-.57-.2-1.12-.72-1.47-1.87-1.24-4.32-.72-6.05,.49-.87,.61-1.76,1.31-2.38,2.18-.68,.96-.77,2.26-.35,3.34,.81,2.08,2.99,3.21,4.96,3.97Zm-2.22-5.23c0,.08,0,.21,0,0h0Zm.09,.32s0,.03,0,0h0Zm3.51,2.21h.05s-.04,0-.05,0Zm.09,0c.12-.02,.07,0,0,0h0Zm1.21-1.23c-.05,.16-.03,.07,0,0h0Zm-.7-3.67s.07,.04,.1,.06c-.01,0-.04-.02-.1-.06h0Zm-3.32,1.17c.07-.06,.14-.12,.21-.18,.02-.01,.13-.11,.18-.15l.06-.04c.11-.08,.22-.16,.34-.24,.17-.11,.35-.22,.53-.32,.06-.03,.12-.06,.18-.09,.04-.02,.06-.03,.08-.04,.02,0,.03-.01,.06-.02,.18-.06,.37-.12,.56-.16l.09-.02c.06,0,.2-.02,.21-.02,.08,0,.17,0,.25,0h.05c.05,.28,.18,.55,.41,.75,.13,.11,.25,.22,.36,.34,.05,.05,.09,.1,.14,.15l.02,.03c.09,.14,.18,.28,.25,.43,.03,.05,.05,.1,.07,.15l.02,.06c.05,.16,.09,.32,.13,.48v.04c.02,.06,.02,.12,.02,.18,0,.16,0,.33,0,.49,0,0,0,0,0,.01,0,.08-.04,.18-.06,.24-.03,.14-.08,.27-.12,.4-.03,.06-.06,.13-.1,.19-.06,.1-.12,.2-.18,.3,.02-.02-.02,.05-.06,.1h0v.02h0c-.06,.06-.13,.14-.19,.2-.06,.06-.11,.11-.17,.17-.01,.01-.06,.05-.09,.07-.04,.03-.08,.06-.1,.07-.06,.04-.13,.07-.19,.11-.05,.01-.1,.03-.15,.04h-.02c-.07-.02-.14-.04-.21-.06-.16-.05-.32-.12-.48-.17h-.03v-.02c-.1-.04-.19-.08-.28-.12-.37-.17-.73-.36-1.08-.57-.15-.09-.3-.18-.45-.28-.07-.05-.14-.1-.21-.15l-.04-.03s-.1-.08-.12-.1c-.06-.06-.13-.11-.19-.17-.06-.06-.12-.12-.18-.18-.03-.03-.06-.07-.08-.09-.08-.12-.15-.24-.22-.37v-.03c-.03-.08-.05-.16-.07-.24,0-.06,0-.12,0-.18,.04-.09,.07-.17,.04-.14,.03-.04,.05-.09,.08-.13h0c.12-.13,.23-.25,.35-.37,.13-.12,.26-.24,.4-.35Zm-.74,.7c.11-.18,.04-.06,0,0h0Z"/><path class="d" d="M31.04,15.89h0s.04-.07,.07-.11c0,0-.03,.04-.07,.11Z"/><path class="d" d="M42.66,16.44s.08,0,.12,0h.03c-.12-.02-.16,0-.15,0Z"/><path class="d" d="M41.08,16.08h.02c-.07-.11-.21-.1-.02,0Z"/><path class="d" d="M46.71,17.1c.76-1.27,.9-2.83,.49-4.23,.25-.44,.28-.98,.03-1.49-.98-1.99-3.6-2.78-5.61-2.04-2.18,.8-4.07,2.9-4.24,5.27-.16,2.27,1.73,4.33,3.89,4.73,2.1,.39,4.32-.35,5.45-2.25Zm-2.68-4.02h0c.12,.13,.05,.07,0,0Zm-1.02-1h.02c.22-.05,.08-.02-.02,0Zm-.05,0s-.02,0-.02,0h.02Zm-1.93,1.25l-.05,.06s.05-.07,.05-.06Zm-.05,2.68c-.07-.06-.17-.15-.25-.24-.04-.06-.08-.12-.12-.18-.04-.06-.07-.13-.11-.2-.01-.02-.02-.02-.03-.04v-.02c-.04-.11-.06-.22-.1-.32v-.02c0-.09,0-.18-.01-.26v-.03c.02-.09,.03-.18,.06-.27,.03-.09,.06-.18,.09-.27l.02-.03c.12-.21,.23-.42,.37-.62,0-.01,.03-.05,.06-.09,.04-.04,.07-.09,.11-.13,.11-.12,.22-.24,.34-.36,.07-.06,.13-.13,.2-.19l.05-.05s.14-.11,.16-.12c.09-.06,.18-.12,.27-.17,.09-.05,.19-.1,.28-.15h.02v-.02c.2-.06,.39-.11,.58-.15,.09,0,.32-.01,.35-.01,.03,0,.07,0,.11,0,.05,.29,.18,.57,.41,.8,.05,.05,.1,.1,.14,.15,.03,.08,.2,.31,.23,.36l.03,.05s.04,.09,.04,.1c.06,.17,.1,.35,.14,.52,0,.06,.01,.12,.01,.17,0,.15,0,.29,0,.44-.01,.06-.02,.13-.03,.19-.04,.16-.1,.31-.14,.47-.03,.06-.06,.11-.09,.17-.04,.07-.08,.13-.12,.2-.02,.04-.16,.29-.05,.07,.1-.2-.02,.01-.06,.06-.05,.05-.1,.1-.15,.15,.01,0,.02-.01,.04,0-.01,0-.05,.03-.08,.05-.03,.03-.05,.04-.06,.04-.04,.03-.08,.06-.09,.07-.07,.05-.29,.12-.38,.19h-.02c-.06,.03-.12,.04-.18,.06-.07,.02-.14,.03-.21,.05,.02,0,.03,0,.06,0-.03,0-.06,0-.09,0-.07,.02-.11,.01-.12,0-.12,0-.25,.03-.36,.02-.06,0-.12,0-.19,0-.1-.05-.33-.06-.43-.09-.06-.02-.12-.04-.18-.06h0c-.06-.07-.32-.18-.41-.22,0,.01,.02,.02,.02,.04,0-.02-.12-.1-.14-.12Z"/><path class="d" d="M43.68,16.07s.03-.02,.06-.04c.01-.01,.02,0,.03-.03l.02-.02c-.08,.02-.12,.07-.11,.08Z"/><path class="d" d="M34.58,65.3c-4.3-4.55-8.7-9.01-13.15-13.42-.01-.22-.08-.42-.21-.6-1.01-1.32-2.23-2.35-3.8-2.93-1.49-.56-3.13-.47-4.57,.16-1.4,.61-2.49,1.8-2.93,3.27-.48,1.63-.11,3.44,.69,4.9,.67,1.23,1.66,2.23,2.71,3.14,3.63,3.26,6.98,6.83,10.02,10.65-2.32,1.77-4.46,3.75-6.46,5.88-2.25,2.4-4.55,4.9-6.49,7.56-.95,1.3-1.41,2.86-.75,4.39,.57,1.31,1.7,2.59,2.86,3.41,2.36,1.67,4.85,.74,6.93-.74,.16-.07,.32-.16,.47-.29,.15-.13,.29-.27,.44-.41,.2-.16,.39-.33,.58-.49,.1-.09,.18-.18,.25-.28,3.65-3.5,6.8-7.48,9.78-11.57,1.52-2.08,3.42-4.22,4.47-6.59,.77-1.72,.74-3.83-.43-5.26-.04-.27-.17-.53-.4-.78Zm-3.34,7.07c-1.36,1.91-2.71,3.83-4.12,5.7-2.74,3.65-5.7,7.14-9.07,10.22-.65,.54-1.36,1.04-2.16,1.25-1.1,.28-1.86-.33-2.56-1.11-.69-.77-1.31-1.48-.71-2.47,.63-1.04,1.54-1.96,2.32-2.88,3.26-3.86,6.66-7.68,10.76-10.66,.42-.31,.69-.75,.73-1.22,.4-.6,.24-1.32-.2-1.88-2.89-3.73-6.08-7.21-9.53-10.43-.07-.12-.15-.24-.26-.33-.31-.26-.62-.51-.93-.78-.17-.16-.34-.32-.51-.47-.02-.02-.04-.03-.05-.04-.11-.1-.23-.2-.34-.31-.59-.57-.99-1.03-1.37-1.71-.28-.5-.51-1.21-.53-1.72-.03-.68,.03-1,.4-1.54,.02-.02,.14-.17,.17-.2,.03-.04,.3-.26,.29-.26,.1-.07,.19-.13,.29-.19,.05-.03,.42-.18,.35-.17,.11-.04,.22-.08,.34-.11,.05-.01,.4-.07,.39-.08,.11,0,.22-.02,.34-.02,.04,0,.36,.02,.4,.01,.31,.05,.61,.13,.9,.24,.03,.02,.25,.11,.27,.12,.06,.03,.12,.07,.18,.1,.06,.23,.18,.45,.39,.66,4.81,4.71,9.52,9.51,14.15,14.38,0,.46,.21,.92,.74,1.21,1.84,.99-.34,3.68-1.06,4.69Z"/><path class="d" d="M74.89,81.71c-1.32-.73-3.25-1.73-4.66-.66,0,0-.01,.01-.02,.02-7.44,.54-14.89,.85-22.34,.92-.13-.09-.27-.16-.44-.18-2.59-.39-5.52,.35-7.25,2.42-2.16,2.58-.44,5.82,1.92,7.54,1.16,.85,2.56,1.29,3.99,1.4,.3,.02,.6-.08,.85-.26,8.48-.32,16.96-.44,25.44-.33,.35,0,.63-.09,.86-.25,2.41,.06,4.74-1.55,5.27-4.02,.3-1.38,.09-2.86-.7-4.05-.72-1.09-1.76-1.92-2.9-2.55Zm.73,5.64s-.05,.28-.07,.35c-.03,.12-.07,.24-.11,.36,.11-.33-.07,.14-.11,.21-.05,.08-.1,.15-.15,.23,.03-.05-.19,.21-.23,.26-.03,.03-.17,.14-.18,.15-.11,.07-.21,.14-.32,.2-.04,.02-.15,.07-.2,.09-.12,.04-.24,.08-.37,.11-.05,.01-.17,.03-.22,.04-.1,0-.2,.02-.31,.01-.05,0-.24-.02-.29-.03-.12-.03-.24-.05-.36-.09-.48-.14-1.03,0-1.41,.34-8.64-.09-17.27,.03-25.9,.39-.06,0-.12,.02-.17,.02-.18-.05-.35-.1-.53-.17-.05-.02-.12-.05-.16-.08-.13-.07-.26-.14-.39-.21s-.25-.15-.38-.24c-.02-.02-.13-.11-.17-.13-.2-.17-.4-.34-.58-.54-.09-.09-.17-.19-.25-.29,.21,.25-.07-.1-.1-.16-.09-.13-.17-.27-.25-.41,0-.02-.1-.23-.11-.24-.04-.13-.09-.25-.12-.38,0-.04-.02-.07-.02-.11,0-.02,0-.06,0-.1,0-.08,.02-.25,.01-.24,.01-.05,.02-.11,.04-.16v-.03s.13-.18,.15-.21c.07-.08,.14-.17,.22-.24,.11-.11,.23-.21,.35-.31,.04-.03,.13-.1,.18-.13,.26-.17,.53-.33,.8-.47,.04-.02,.21-.09,.24-.1,.09-.03,.18-.07,.27-.1,.3-.1,.6-.16,.9-.22h.05s.09-.02,.14-.02c.15-.01,.31-.02,.46-.02,.09,0,.18,0,.27,0,.23,.2,.54,.32,.94,.32,8.31-.07,16.62-.42,24.91-1.06,.14-.01,.27-.04,.4-.08,.47,.23,.93,.46,1.38,.74,.14,.09,.28,.19,.42,.28,.03,.02,.04,.03,.06,.04l.03,.03c.22,.18,.43,.37,.62,.58,.04,.05,.08,.1,.13,.15,.07,.11,.15,.21,.21,.32,.01,.02,.08,.16,.13,.24,.02,.07,.1,.27,.11,.3,.02,.08,.04,.15,.05,.23,0,0,.03,.3,.03,.36,0,.08,0,.16-.01,.24Z"/></g></g></g></svg>