<?xml version="1.0" encoding="utf-8"?>
<!-- Generator: Adobe Illustrator 26.1.0, SVG Export Plug-In . SVG Version: 6.00 Build 0)  -->
<svg version="1.1" id="Capa_1" xmlns="http://www.w3.org/2000/svg" xmlns:xlink="http://www.w3.org/1999/xlink" x="0px" y="0px"
	 viewBox="0 0 104.1 102.9" style="enable-background:new 0 0 104.1 102.9;" xml:space="preserve">
<style type="text/css">
	.st0{fill:#EAEAEA;}
</style>
<g id="a">
</g>
<g id="b">
	<g id="c">
		<g>
			<path class="st0" d="M100.7,2c-1.9-1.2-4.2-1.5-6.4-1.7c-0.1,0-0.2-0.1-0.4,0c-0.1,0-0.2,0-0.2,0c-0.2,0-0.3,0-0.5,0
				c-0.1,0-0.2,0-0.3,0C71.5,0.6,50.3,0.6,29,0.3C22.9,0.2,16.7,0.1,10.6,0C10.3,0,10,0.1,9.8,0.2C9,0.1,8.2,0.1,7.4,0.3
				c-1.4,0.3-2.6,1-3.6,2.1c-2,2.2-2.5,5.3-2.3,8.2c0,0.2,0.1,0.4,0.1,0.6c-0.5,21.5-0.9,43-1.4,64.4C0.3,81.7,0.1,87.9,0,94
				c0,0.5,0.2,0.9,0.5,1.1c0.4,1.6,1.3,3.1,2.5,4.2c1.4,1.3,3.3,2.1,5.3,2.2c0.2,0.1,0.4,0.2,0.7,0.2c22.8-0.1,45.5,0,68.2,0.5
				c6.1,0.1,12.2,0.2,18.2,0.4c0.4,0.3,0.8,0.4,1.3,0.2c2.2-0.7,3.9-2.4,4.8-4.5c1.1-2.4,1.3-5.1,1.2-7.7c0-0.2-0.1-0.4-0.2-0.6
				c0.8-20.8-0.1-41.7,0.4-62.5c0.2-6,0.4-11.9,0.9-17.9c0,0,0,0,0-0.1C104.5,6.6,103.2,3.7,100.7,2L100.7,2z M99.1,96.8
				c-0.3,0.7-0.8,1.4-1.2,1.9c-0.3,0.4-0.7,0.7-1.1,0.9C74,99,51.2,98.7,28.5,98.7c-6,0-12.1,0-18.1,0c-0.2-0.1-0.5-0.2-0.7-0.2
				c-0.5,0-0.9,0-1.4,0c0,0,0,0-0.1,0H8.1c-0.1,0-0.2-0.1-0.3-0.1c-0.2-0.1-0.4-0.1-0.7-0.2c-0.1,0-0.2-0.1-0.4-0.1
				c0,0-0.2-0.1-0.2-0.1c-0.1,0-0.1-0.1-0.1-0.1c-0.1-0.1-0.2-0.1-0.3-0.2c-0.2-0.1-0.4-0.2-0.6-0.4c-0.1,0-0.1-0.1-0.1-0.1
				c-0.1-0.1-0.2-0.1-0.2-0.2c-0.2-0.1-0.3-0.3-0.5-0.4c-0.1-0.1-0.2-0.2-0.2-0.3c0,0,0,0-0.1-0.1l0,0c-0.3-0.4-0.5-0.8-0.7-1.2l0,0
				l0,0c0-0.1-0.1-0.2-0.1-0.3c-0.1-0.2-0.1-0.4-0.2-0.7c0-0.2-0.1-0.4-0.1-0.6c0-0.1,0-0.2,0-0.2c0-0.1,0-0.2,0-0.4
				c0-0.2-0.1-0.4-0.1-0.6C3.5,71.2,3.9,50,4.4,28.8c0.1-6.1,0.3-12.3,0.4-18.4c0-0.3-0.1-0.6-0.2-0.8c0-0.9,0-1.7,0.2-2.4
				C4.8,6.9,4.9,6.6,5,6.3c0-0.1,0.1-0.2,0.1-0.4C5,6.2,5.2,5.8,5.2,5.8c0.1-0.2,0.2-0.4,0.3-0.6c0.1-0.1,0.1-0.2,0.2-0.3
				c0,0,0.1-0.1,0.1-0.1l0,0C6,4.5,6.2,4.4,6.3,4.2C6.4,4.1,6.5,4,6.6,3.9c-0.2,0.2,0.1,0,0.1-0.1C7,3.7,7.2,3.6,7.4,3.5
				c0,0,0.1,0,0.1,0c0.1,0,0.3-0.1,0.4-0.1c0.1,0,0.2-0.1,0.3-0.1c0.1,0,0.1,0,0.2,0c0.2,0,0.5,0,0.8,0c0,0,0.2,0,0.3,0
				c0.1,0,0.2,0,0.3,0.1c0.1,0,0.2,0.1,0.3,0.1c0.1,0,0.5,0.2,0.2,0.1c0.6,0.3,1.5,0.2,1.9-0.3c21.1,0.4,42.1,0.5,63.2,0.4
				c6,0,12.1-0.1,18.1-0.2c0.4,0,0.8,0,1.2,0.1c0.3,0,0.5,0,0.8,0.1c0,0,0.1,0,0.1,0s0.1,0,0.1,0c0.1,0,0.2,0,0.4,0.1
				c0.5,0.1,1.1,0.2,1.6,0.4C97.8,4,98,4.1,98.2,4.2c0.1,0,0.2,0.1,0.2,0.1c0.1,0.1,0.2,0.1,0.4,0.2c0.2,0.1,0.4,0.3,0.6,0.4
				c0,0,0,0,0,0c0,0,0,0,0.1,0c0.1,0.1,0.2,0.2,0.3,0.3c0.1,0.1,0.2,0.2,0.3,0.3c0,0,0.1,0.2,0.2,0.2c0,0.1,0.2,0.2,0.2,0.3
				c0.1,0.1,0.1,0.2,0.2,0.3c0,0,0.1,0.2,0.1,0.2c0.1,0.1,0.1,0.2,0.1,0.3c0.1,0.2,0.1,0.5,0.2,0.7c0,0,0,0.1,0,0.1s0,0,0,0.1
				c0,0.2,0,0.3,0,0.4s0,0.3,0,0.4c0,0,0,0.1,0,0.1c0,0,0,0.1,0,0.1c0,0,0,0,0,0.1C101,9,101,9.1,101,9.3
				c-1.7,21.4-0.8,42.8-0.9,64.3c0,6.1-0.2,12.2-0.4,18.3c0,0.4,0.1,0.7,0.2,0.9C99.8,94.2,99.6,95.6,99.1,96.8L99.1,96.8z"/>
			<path class="st0" d="M16.3,11.2C16.3,11.2,16.2,11.2,16.3,11.2L16.3,11.2z"/>
			<path class="st0" d="M14.9,18.5c2.3,0.4,4.5-0.5,5.9-2.3c0.6-0.8,1-1.9,0.9-2.9c-0.1-0.8-0.4-1.7-1-2.2c0-0.2-0.1-0.5-0.2-0.7
				c-0.6-1-1.6-1.7-2.7-2c-1.2-0.3-2.3-0.1-3.4,0.4c-1.9,0.8-4,2.9-3.8,5.2C10.7,16.2,12.7,18.1,14.9,18.5z M17.1,15.4
				C17.1,15.4,17.1,15.4,17.1,15.4L17.1,15.4z M18.7,13.3L18.7,13.3C18.6,13.2,18.6,13.2,18.7,13.3z M18.8,13.4c0,0,0.1,0,0.1,0
				C18.9,13.4,18.8,13.4,18.8,13.4z M13.6,13.3L13.6,13.3c0.1-0.2,0.2-0.4,0.3-0.6c0,0,0,0,0,0c0.1-0.1,0.1-0.1,0.2-0.2
				c0.1-0.1,0.2-0.2,0.4-0.4c0.1-0.1,0.1-0.1,0.2-0.2c0,0,0.1-0.1,0.1-0.1s0.1-0.1,0.1-0.1c0.1-0.1,0.2-0.1,0.3-0.2
				c0.1-0.1,0.3-0.2,0.4-0.2c0,0,0,0,0.1,0c0.1,0,0.2-0.1,0.4-0.1c0.1,0,0.2,0,0.2-0.1c0,0-0.1,0-0.1,0c0,0,0.1,0,0.2,0
				c0.1,0,0.1,0,0.2,0c0,0,0.1,0,0.1,0c0,0,0.1,0,0.1,0c0.1,0,0.2,0,0.3,0.1c0,0,0.1,0,0.1,0c-0.1,0,0.1,0.1,0.2,0.1
				s0.1,0.1,0.2,0.1c-0.3-0.1,0,0,0,0.1c0,0,0,0,0,0c-0.1,0.7,0.2,1.5,1,1.7v0c0,0,0,0.1,0,0.2c0-0.1,0-0.1,0,0c0,0,0,0,0,0.1
				c0,0,0,0.1,0,0.1s0,0,0,0l0,0.1c0,0,0,0,0,0c0,0,0,0.1,0,0.1c-0.1,0.2-0.2,0.3-0.3,0.4l0,0c0,0-0.1,0.1-0.1,0.1
				c-0.1,0.1-0.2,0.2-0.4,0.4c0,0,0,0-0.1,0.1c0,0-0.1,0-0.1,0.1c-0.1,0.1-0.3,0.2-0.5,0.3c0,0-0.1,0-0.1,0.1c0,0,0,0-0.1,0
				c-0.2,0.1-0.3,0.1-0.5,0.1c0,0,0,0-0.1,0c0,0-0.1,0-0.1,0c-0.2,0-0.4,0-0.5,0c0,0,0,0,0,0c-0.1,0-0.1,0-0.2,0
				c-0.2,0-0.3-0.1-0.5-0.1l-0.1,0c0,0-0.1,0-0.1-0.1c-0.2-0.1-0.3-0.2-0.5-0.3c0,0-0.1-0.1-0.2-0.1l-0.1,0
				c-0.1-0.1-0.2-0.2-0.3-0.3l0,0c-0.1-0.1-0.1-0.1-0.1-0.2s-0.1-0.2-0.1-0.2c0,0,0,0,0,0c0,0,0,0,0-0.1c0,0,0-0.1-0.1-0.2
				c0-0.1,0-0.1,0-0.1c0,0,0-0.1,0-0.1s0-0.1,0-0.1C13.5,13.5,13.5,13.4,13.6,13.3L13.6,13.3z"/>
			<path class="st0" d="M18.7,13.7L18.7,13.7c0,0,0-0.1,0-0.1C18.7,13.7,18.7,13.7,18.7,13.7z"/>
			<path class="st0" d="M28.7,19.2c1.2,0.5,2.4,0.4,3.5-0.4c0.8-0.6,1.5-1.3,1.9-2.2c0.9-2,0.6-4.3-0.8-6c0.1-0.6-0.2-1.1-0.7-1.5
				c-1.9-1.2-4.3-0.7-6,0.5c-0.9,0.6-1.8,1.3-2.4,2.2c-0.7,1-0.8,2.3-0.4,3.3C24.5,17.3,26.7,18.5,28.7,19.2L28.7,19.2z M26.5,14
				C26.5,14.1,26.5,14.2,26.5,14L26.5,14z M26.6,14.3C26.6,14.3,26.6,14.4,26.6,14.3L26.6,14.3z M30.1,16.5L30.1,16.5
				C30.1,16.5,30.1,16.5,30.1,16.5z M30.2,16.5C30.3,16.5,30.2,16.5,30.2,16.5L30.2,16.5z M31.4,15.3C31.3,15.5,31.3,15.4,31.4,15.3
				L31.4,15.3z M30.7,11.6c0,0,0.1,0,0.1,0.1C30.8,11.7,30.7,11.7,30.7,11.6L30.7,11.6z M27.4,12.8c0.1-0.1,0.1-0.1,0.2-0.2
				c0,0,0.1-0.1,0.2-0.1l0.1,0c0.1-0.1,0.2-0.2,0.3-0.2c0.2-0.1,0.4-0.2,0.5-0.3c0.1,0,0.1-0.1,0.2-0.1c0,0,0.1,0,0.1,0
				c0,0,0,0,0.1,0c0.2-0.1,0.4-0.1,0.6-0.2l0.1,0c0.1,0,0.2,0,0.2,0c0.1,0,0.2,0,0.2,0h0c0,0.3,0.2,0.6,0.4,0.8
				c0.1,0.1,0.2,0.2,0.4,0.3c0,0.1,0.1,0.1,0.1,0.1l0,0c0.1,0.1,0.2,0.3,0.2,0.4c0,0.1,0,0.1,0.1,0.1l0,0.1c0,0.2,0.1,0.3,0.1,0.5v0
				c0,0.1,0,0.1,0,0.2c0,0.2,0,0.3,0,0.5c0,0,0,0,0,0c0,0.1,0,0.2-0.1,0.2c0,0.1-0.1,0.3-0.1,0.4c0,0.1-0.1,0.1-0.1,0.2
				c-0.1,0.1-0.1,0.2-0.2,0.3c0,0,0,0.1-0.1,0.1l0,0v0l0,0C31,16,30.9,16,30.9,16.1c-0.1,0.1-0.1,0.1-0.2,0.2c0,0-0.1,0-0.1,0.1
				c0,0-0.1,0.1-0.1,0.1c-0.1,0-0.1,0.1-0.2,0.1c0,0-0.1,0-0.1,0h0c-0.1,0-0.1,0-0.2-0.1c-0.2,0-0.3-0.1-0.5-0.2h0v0
				c-0.1,0-0.2-0.1-0.3-0.1c-0.4-0.2-0.7-0.4-1.1-0.6c-0.1-0.1-0.3-0.2-0.5-0.3c-0.1-0.1-0.1-0.1-0.2-0.1l0,0c0,0-0.1-0.1-0.1-0.1
				c-0.1-0.1-0.1-0.1-0.2-0.2c-0.1-0.1-0.1-0.1-0.2-0.2c0,0-0.1-0.1-0.1-0.1c-0.1-0.1-0.1-0.2-0.2-0.4v0c0-0.1,0-0.2-0.1-0.2
				c0-0.1,0-0.1,0-0.2c0-0.1,0.1-0.2,0-0.1c0,0,0-0.1,0.1-0.1l0,0c0.1-0.1,0.2-0.2,0.4-0.4C27.1,13,27.2,12.9,27.4,12.8L27.4,12.8z
				 M26.6,13.5C26.7,13.3,26.7,13.5,26.6,13.5L26.6,13.5z"/>
			<path class="st0" d="M31,15.9L31,15.9c0,0,0-0.1,0.1-0.1C31.1,15.8,31.1,15.8,31,15.9z"/>
			<path class="st0" d="M42.7,16.4c0,0,0.1,0,0.1,0h0C42.7,16.4,42.6,16.4,42.7,16.4z"/>
			<path class="st0" d="M41.1,16.1L41.1,16.1C41,16,40.9,16,41.1,16.1z"/>
			<path class="st0" d="M46.7,17.1c0.8-1.3,0.9-2.8,0.5-4.2c0.2-0.4,0.3-1,0-1.5c-1-2-3.6-2.8-5.6-2c-2.2,0.8-4.1,2.9-4.2,5.3
				c-0.2,2.3,1.7,4.3,3.9,4.7C43.4,19.7,45.6,19,46.7,17.1L46.7,17.1z M44,13.1L44,13.1C44.1,13.2,44.1,13.1,44,13.1z M43,12.1
				L43,12.1C43.2,12,43.1,12.1,43,12.1z M43,12.1L43,12.1L43,12.1z M41,13.3L41,13.3C41,13.4,41,13.3,41,13.3z M41,16
				c-0.1-0.1-0.2-0.1-0.2-0.2c0-0.1-0.1-0.1-0.1-0.2c0-0.1-0.1-0.1-0.1-0.2c0,0,0,0,0,0v0c0-0.1-0.1-0.2-0.1-0.3v0
				c0-0.1,0-0.2,0-0.3v0c0-0.1,0-0.2,0.1-0.3c0-0.1,0.1-0.2,0.1-0.3l0,0c0.1-0.2,0.2-0.4,0.4-0.6c0,0,0-0.1,0.1-0.1
				c0,0,0.1-0.1,0.1-0.1c0.1-0.1,0.2-0.2,0.3-0.4c0.1-0.1,0.1-0.1,0.2-0.2l0-0.1c0,0,0.1-0.1,0.2-0.1c0.1-0.1,0.2-0.1,0.3-0.2
				s0.2-0.1,0.3-0.1h0v0c0.2-0.1,0.4-0.1,0.6-0.1c0.1,0,0.3,0,0.3,0s0.1,0,0.1,0c0,0.3,0.2,0.6,0.4,0.8c0,0.1,0.1,0.1,0.1,0.1
				c0,0.1,0.2,0.3,0.2,0.4l0,0.1c0,0,0,0.1,0,0.1c0.1,0.2,0.1,0.4,0.1,0.5c0,0.1,0,0.1,0,0.2c0,0.1,0,0.3,0,0.4c0,0.1,0,0.1,0,0.2
				c0,0.2-0.1,0.3-0.1,0.5c0,0.1-0.1,0.1-0.1,0.2c0,0.1-0.1,0.1-0.1,0.2c0,0-0.2,0.3,0,0.1c0.1-0.2,0,0-0.1,0.1
				c0,0.1-0.1,0.1-0.2,0.1c0,0,0,0,0,0c0,0,0,0-0.1,0.1c0,0,0,0-0.1,0c0,0-0.1,0.1-0.1,0.1c-0.1,0-0.3,0.1-0.4,0.2h0
				c-0.1,0-0.1,0-0.2,0.1c-0.1,0-0.1,0-0.2,0c0,0,0,0,0.1,0c0,0-0.1,0-0.1,0c-0.1,0-0.1,0-0.1,0c-0.1,0-0.2,0-0.4,0
				c-0.1,0-0.1,0-0.2,0c-0.1,0-0.3-0.1-0.4-0.1c-0.1,0-0.1,0-0.2-0.1l0,0c-0.1-0.1-0.3-0.2-0.4-0.2c0,0,0,0,0,0
				C41.1,16.1,41,16,41,16L41,16z"/>
			<path class="st0" d="M43.7,16.1C43.7,16.1,43.7,16,43.7,16.1C43.8,16,43.8,16,43.7,16.1l0.1-0.1C43.7,16,43.7,16,43.7,16.1
				L43.7,16.1z"/>
			<path class="st0" d="M34.6,65.3c-4.3-4.5-8.7-9-13.1-13.4c0-0.2-0.1-0.4-0.2-0.6c-1-1.3-2.2-2.3-3.8-2.9
				c-1.5-0.6-3.1-0.5-4.6,0.2c-1.4,0.6-2.5,1.8-2.9,3.3c-0.5,1.6-0.1,3.4,0.7,4.9c0.7,1.2,1.7,2.2,2.7,3.1c3.6,3.3,7,6.8,10,10.7
				c-2.3,1.8-4.5,3.8-6.5,5.9c-2.2,2.4-4.6,4.9-6.5,7.6c-0.9,1.3-1.4,2.9-0.8,4.4c0.6,1.3,1.7,2.6,2.9,3.4c2.4,1.7,4.8,0.7,6.9-0.7
				c0.2-0.1,0.3-0.2,0.5-0.3s0.3-0.3,0.4-0.4c0.2-0.2,0.4-0.3,0.6-0.5c0.1-0.1,0.2-0.2,0.2-0.3C24.8,86,28,82,31,77.9
				c1.5-2.1,3.4-4.2,4.5-6.6c0.8-1.7,0.7-3.8-0.4-5.3C35,65.8,34.8,65.6,34.6,65.3L34.6,65.3z M31.2,72.4c-1.4,1.9-2.7,3.8-4.1,5.7
				c-2.7,3.7-5.7,7.1-9.1,10.2c-0.6,0.5-1.4,1-2.2,1.2c-1.1,0.3-1.9-0.3-2.6-1.1c-0.7-0.8-1.3-1.5-0.7-2.5c0.6-1,1.5-2,2.3-2.9
				c3.3-3.9,6.7-7.7,10.8-10.7c0.4-0.3,0.7-0.8,0.7-1.2c0.4-0.6,0.2-1.3-0.2-1.9c-2.9-3.7-6.1-7.2-9.5-10.4
				c-0.1-0.1-0.1-0.2-0.3-0.3c-0.3-0.3-0.6-0.5-0.9-0.8c-0.2-0.2-0.3-0.3-0.5-0.5c0,0,0,0-0.1,0c-0.1-0.1-0.2-0.2-0.3-0.3
				c-0.6-0.6-1-1-1.4-1.7c-0.3-0.5-0.5-1.2-0.5-1.7c0-0.7,0-1,0.4-1.5c0,0,0.1-0.2,0.2-0.2c0,0,0.3-0.3,0.3-0.3
				c0.1-0.1,0.2-0.1,0.3-0.2c0.1,0,0.4-0.2,0.4-0.2c0.1,0,0.2-0.1,0.3-0.1c0.1,0,0.4-0.1,0.4-0.1c0.1,0,0.2,0,0.3,0c0,0,0.4,0,0.4,0
				c0.3,0,0.6,0.1,0.9,0.2c0,0,0.2,0.1,0.3,0.1c0.1,0,0.1,0.1,0.2,0.1c0.1,0.2,0.2,0.5,0.4,0.7c4.8,4.7,9.5,9.5,14.1,14.4
				c0,0.5,0.2,0.9,0.7,1.2C34.2,68.7,32,71.4,31.2,72.4L31.2,72.4z"/>
			<path class="st0" d="M74.9,81.7C73.6,81,71.6,80,70.2,81c0,0,0,0,0,0c-7.4,0.5-14.9,0.8-22.3,0.9c-0.1-0.1-0.3-0.2-0.4-0.2
				c-2.6-0.4-5.5,0.3-7.2,2.4c-2.2,2.6-0.4,5.8,1.9,7.5c1.2,0.8,2.6,1.3,4,1.4c0.3,0,0.6-0.1,0.8-0.3c8.5-0.3,17-0.4,25.4-0.3
				c0.3,0,0.6-0.1,0.9-0.2c2.4,0.1,4.7-1.6,5.3-4c0.3-1.4,0.1-2.9-0.7-4.1C77.1,83.2,76,82.3,74.9,81.7L74.9,81.7z M75.6,87.3
				c0,0-0.1,0.3-0.1,0.3c0,0.1-0.1,0.2-0.1,0.4c0.1-0.3-0.1,0.1-0.1,0.2c-0.1,0.1-0.1,0.2-0.2,0.2c0-0.1-0.2,0.2-0.2,0.3
				c0,0-0.2,0.1-0.2,0.2c-0.1,0.1-0.2,0.1-0.3,0.2c0,0-0.2,0.1-0.2,0.1c-0.1,0-0.2,0.1-0.4,0.1c-0.1,0-0.2,0-0.2,0
				c-0.1,0-0.2,0-0.3,0c-0.1,0-0.2,0-0.3,0c-0.1,0-0.2-0.1-0.4-0.1c-0.5-0.1-1,0-1.4,0.3c-8.6-0.1-17.3,0-25.9,0.4
				c-0.1,0-0.1,0-0.2,0c-0.2-0.1-0.3-0.1-0.5-0.2c0,0-0.1-0.1-0.2-0.1c-0.1-0.1-0.3-0.1-0.4-0.2s-0.2-0.2-0.4-0.2
				c0,0-0.1-0.1-0.2-0.1c-0.2-0.2-0.4-0.3-0.6-0.5c-0.1-0.1-0.2-0.2-0.2-0.3c0.2,0.2-0.1-0.1-0.1-0.2c-0.1-0.1-0.2-0.3-0.2-0.4
				c0,0-0.1-0.2-0.1-0.2c0-0.1-0.1-0.2-0.1-0.4c0,0,0-0.1,0-0.1c0,0,0-0.1,0-0.1c0-0.1,0-0.2,0-0.2c0-0.1,0-0.1,0-0.2v0
				c0,0,0.1-0.2,0.2-0.2c0.1-0.1,0.1-0.2,0.2-0.2c0.1-0.1,0.2-0.2,0.3-0.3c0,0,0.1-0.1,0.2-0.1c0.3-0.2,0.5-0.3,0.8-0.5
				c0,0,0.2-0.1,0.2-0.1c0.1,0,0.2-0.1,0.3-0.1c0.3-0.1,0.6-0.2,0.9-0.2h0c0,0,0.1,0,0.1,0c0.2,0,0.3,0,0.5,0c0.1,0,0.2,0,0.3,0
				c0.2,0.2,0.5,0.3,0.9,0.3c8.3-0.1,16.6-0.4,24.9-1.1c0.1,0,0.3,0,0.4-0.1c0.5,0.2,0.9,0.5,1.4,0.7c0.1,0.1,0.3,0.2,0.4,0.3
				c0,0,0,0,0.1,0l0,0c0.2,0.2,0.4,0.4,0.6,0.6c0,0.1,0.1,0.1,0.1,0.2c0.1,0.1,0.2,0.2,0.2,0.3c0,0,0.1,0.2,0.1,0.2
				c0,0.1,0.1,0.3,0.1,0.3c0,0.1,0,0.2,0.1,0.2c0,0,0,0.3,0,0.4C75.7,87.2,75.7,87.3,75.6,87.3L75.6,87.3z"/>
		</g>
	</g>
</g>
</svg>
