<?xml version="1.0" encoding="utf-8"?>
<!-- Generator: Adobe Illustrator 26.1.0, SVG Export Plug-In . SVG Version: 6.00 Build 0)  -->
<svg version="1.1" id="Capa_1" xmlns="http://www.w3.org/2000/svg" xmlns:xlink="http://www.w3.org/1999/xlink" x="0px" y="0px"
	 viewBox="0 0 50 50" style="enable-background:new 0 0 50 50;" xml:space="preserve">
<style type="text/css">
	.st0{fill:#454545;}
</style>
<g id="Capa_2_00000059311783328520099990000004578033645229140629_">
	<g id="terminal">
		<path class="st0" d="M47.5,0h-45C1.1,0,0,1.1,0,2.5v45C0,48.9,1.1,50,2.5,50h45c1.4,0,2.5-1.1,2.5-2.5c0,0,0,0,0,0v-45
			C50,1.1,48.9,0,47.5,0C47.5,0,47.5,0,47.5,0z M13.5,4.2c1.4,0,2.5,1.1,2.5,2.5s-1.1,2.5-2.5,2.5S11,8.1,11,6.7
			C11,5.4,12.1,4.2,13.5,4.2L13.5,4.2z M6.8,4.2c1.4,0,2.5,1.1,2.5,2.5S8.1,9.2,6.8,9.2S4.2,8.1,4.2,6.7C4.2,5.4,5.4,4.2,6.8,4.2
			L6.8,4.2z M15.5,36.9L8,44.3C7.6,44.8,7,45,6.4,45c-0.6,0-1.1-0.2-1.6-0.6c-0.4-0.4-0.6-1-0.7-1.5c0-0.6,0.2-1.1,0.7-1.6l6.7-6.7
			l-6.7-6.8c-0.9-0.8-0.9-2.2,0-3.1c0,0,0,0,0,0c0.4-0.4,1-0.7,1.6-0.7C7,24,7.6,24.2,8,24.7l7.5,7.5C17,33.7,17,35.3,15.5,36.9
			L15.5,36.9z M17.7,6.7c0-1.4,1.1-2.5,2.5-2.5c1.4,0,2.5,1.1,2.5,2.5s-1.1,2.5-2.5,2.5l0,0C18.8,9.2,17.7,8.1,17.7,6.7z M37.2,44.3
			c-0.4,0.4-1,0.7-1.6,0.7H21.3C20,45,19,44,19,42.8c0-0.6,0.2-1.2,0.6-1.6c0.4-0.4,1-0.7,1.6-0.7h14.4c1.2,0,2.2,1,2.2,2.2
			C37.9,43.4,37.7,43.9,37.2,44.3z"/>
	</g>
</g>
</svg>
