<?xml version="1.0" encoding="UTF-8"?><svg xmlns="http://www.w3.org/2000/svg" viewBox="0 0 328.39 124.91"><defs><style>.d{fill:#454545;}</style></defs><g id="a"/><g id="b"><g id="c"><g><path class="d" d="M1.09,30.18c.25,.83,1.18,1.51,2.19,.97,8.19-4.39,16.38-8.79,24.57-13.18,7.29,4.42,14.61,8.81,21.95,13.16,.15,.14,.33,.26,.55,.33,.06,.04,.12,.07,.18,.11,1.51,.9,2.89-1.16,1.88-2.28,.69-4.59,1.11-9.22,1.2-13.86,.02-1.14-1.01-1.6-1.87-1.4-7.34-4.98-14.98-9.49-22.89-13.5-.04-.02-.07-.03-.11-.04-.54-.51-1.41-.71-2.14-.11-3.51,2.92-7.95,4.83-11.94,6.99-4.21,2.27-8.42,4.55-12.63,6.82-.38,.2-.59,.49-.68,.8-.17,.24-.26,.52-.23,.81,.23,2.37,.23,4.75-.03,7.12-.24,2.26-.92,4.53-.24,6.78,.06,.19,.14,.34,.24,.48ZM16.6,9.72c3.73-2.01,7.69-3.86,11.09-6.42,7.9,4.02,15.54,8.54,22.87,13.53-.12,3.59-.42,7.16-.91,10.72-6.98-4.15-13.95-8.32-20.9-12.54-.37-.22-.72-.26-1.04-.19-.22,0-.45,.06-.69,.19-7.82,4.2-15.65,8.4-23.47,12.6-.01-.5,.03-1,.1-1.5,.16-1.15,.36-2.29,.48-3.44,.2-2.07,.21-4.15,.05-6.22,4.15-2.24,8.29-4.48,12.44-6.72Z"/><path class="d" d="M53.56,42.42c.05-.78-.43-1.61-1.44-1.62-4.21-.04-8.41-.04-12.62-.02-.91,0-1.39,.67-1.44,1.38-.12,.2-.2,.45-.2,.74l-.46,32.61c0,.11,0,.22,.03,.31-.19,.23-.3,.54-.29,.94,.23,5.39-5.25,8.11-9.95,7.95-2.44-.08-5.53-.6-7.37-2.35-1.59-1.51-2.24-3.72-2.76-5.81,.01-.09,.02-.18,.02-.27-.48-11.11-.5-22.23-.05-33.35,.03-.84-.52-1.32-1.16-1.42-.28-.36-.71-.59-1.19-.61-3.97-.18-7.94-.13-11.89,.17-.61,.04-1.15,.39-1.38,.92-.23,.24-.39,.55-.41,.97C.31,55.42-.35,67.89,.21,80.36c.01,.29,.1,.53,.23,.74,.58,6.09,5.25,10.31,10.13,13.48,5.39,3.51,11.39,6.7,18.02,5.47,.27-.05,.48-.16,.65-.3,.03,0,.05,0,.08,0,5.47-.11,10.45-3.12,14.94-5.97,4.54-2.89,8.17-6.79,9.04-12.28,.02-.15,.02-.28,0-.41,.09-.19,.15-.41,.16-.66,.26-12.5,.32-25,.19-37.5,0-.2-.04-.37-.1-.52Zm-5.77,44.51c-1.46,1.85-3.4,3.24-5.38,4.48-3.94,2.46-8.31,5.26-13.1,5.36-.42,0-.75,.16-.98,.39-.17-.03-.35-.03-.54,0-5.59,1.03-10.83-2.03-15.34-4.93-4.15-2.67-8.75-6.26-9.06-11.61-.02-.26-.09-.48-.19-.67-.51-11.99,.09-23.98,.74-35.95,3.35-.21,6.71-.25,10.07-.12-.41,10.67-.39,21.35,.07,32.02-.09,.25-.12,.54-.04,.87,.7,2.86,1.63,5.93,3.92,7.94,2.53,2.22,6.36,2.98,9.64,3.01,3.3,.03,6.59-.93,9.08-3.14,2.21-1.96,3.6-4.84,3.47-7.82,0-.12-.02-.24-.05-.35,.19-.23,.31-.53,.31-.91,.15-10.58,.3-21.15,.45-31.73,3.27-.01,6.55-.01,9.82,.01,.12,12.22,.05,24.43-.2,36.64,0,.01,0,.02,0,.04-.02,.08-.05,.15-.06,.24-.36,2.26-1.19,4.41-2.61,6.21Z"/><path class="d" d="M105.09,62.77c-.74-1.81-1.58-3.5-2.82-5.02-2.15-2.65-5.22-4.47-8.42-5.56-3.76-1.28-7.71-1.53-11.42,.02-3.28,1.37-6.3,3.65-8.52,6.42-2.48,3.09-4.7,7.5-3.39,11.52,.02,.05,.04,.09,.06,.14,0,.02,0,.04,0,.06,1.09,7.16,5.47,13.77,12.49,16.23,3.66,1.28,7.62,.99,11.24-.26,1.69-.58,3.41-1.28,4.88-2.3,1.53-1.06,2.41-2.36,3.41-3.89,1.1-1.68,2.34-3.13,3.11-5,.81-1.97,1.18-4.08,1.13-6.22,0-.24-.06-.46-.15-.64-.18-1.94-.88-3.71-1.61-5.5Zm-2.47,11.96c-.87,1.73-2.17,3.24-3.22,4.87-1.02,1.59-2.62,2.5-4.31,3.23-2,.86-4.17,1.5-6.35,1.59-8.49,.37-14.1-7.18-15.27-14.87-.02-.14-.06-.27-.11-.38-1.05-3.63,1.76-7.72,4.22-10.14,2.7-2.66,6.42-5.02,10.33-4.95,3.6,.06,7.5,1.5,10.27,3.79,1.42,1.17,2.53,2.59,3.36,4.24,.92,1.83,1.98,4.13,2.16,6.19,.02,.2,.07,.38,.15,.54,0,.03,0,.05,0,.07,.05,2.01-.32,4.01-1.23,5.82Z"/><path class="d" d="M119.1,68.5c-.09-9.79-.37-19.59-.57-29.38-.12-5.63-.23-11.26-.35-16.9-.01-.57-.28-.96-.65-1.2-.18-.21-.41-.36-.69-.41-2.13-.39-4.29-.66-6.45-.76-2.01-.09-4.09-.12-6.08,.25-.83-.13-1.77,.35-1.77,1.43,0,7.82,.09,15.64,.24,23.45-6.06-4.7-13.81-7.3-21.43-5.39-4.21,1.05-8.53,3.11-12.03,5.68-1.73,1.27-3.11,2.83-4.45,4.5-1.42,1.77-2.87,3.55-4.01,5.53-2.39,4.14-3.56,8.91-3.43,13.69,0,.3,.09,.55,.22,.76,.19,6.67,3.12,12.98,6.88,18.39,3.64,5.23,8.61,9.74,14.99,11.12,.28,.06,.53,.04,.76-.03,4.11,.81,8.25,.23,12.32-.62,2.01-.42,4.01-.84,5.85-1.78,1.56-.79,3.02-1.78,4.49-2.74,.04,.81,.07,1.63,.09,2.44,.01,.64,.46,1.26,1.08,1.44,.32,.61,1.01,.91,1.7,.76,3.49-.74,7.11-.34,10.62,.03,.81,.08,1.5-.75,1.5-1.5,0-.31-.09-.58-.24-.8,1.24-9.28,1.5-18.63,1.42-27.98Zm-13.1,27.18c-.05-1.44-.12-2.89-.22-4.33-.03-.4-.15-.77-.44-1.06-.26-.26-.69-.46-1.06-.44-.51,.02-1.02,.31-1.3,.75-.14,.04-.28,.09-.43,.18-1.61,1.02-3.21,2.11-4.86,3.06-1.71,.98-3.54,1.38-5.45,1.79-3.82,.81-7.78,1.5-11.65,.63-.26-.06-.5-.05-.71,0-5.54-1.36-9.84-5.35-12.99-9.98-3.36-4.93-6.1-10.59-6.24-16.65,0-.3-.09-.55-.22-.75-.08-3.7,.66-7.4,2.31-10.73,.88-1.78,2.01-3.41,3.23-4.97,1.19-1.51,2.37-3.08,3.79-4.4,2.76-2.58,6.71-4.44,10.26-5.65,3.88-1.33,7.83-1.59,11.8-.47,4.12,1.15,7.89,3.4,11.02,6.29,.81,.75,1.84,.38,2.32-.32,.39-.23,.67-.64,.66-1.24-.17-8.15-.26-16.3-.27-24.46,1.59-.22,3.26-.15,4.84-.08,1.62,.07,3.23,.26,4.82,.52,.2,9.39,.39,18.77,.59,28.16,.2,9.55,.51,19.12,.21,28.67-.16,5.15-.52,10.3-1.2,15.41-2.94-.27-5.88-.41-8.79,.06Z"/><path class="d" d="M162.13,54.46c-2.96-2.21-6.19-3.57-9.92-3.68-3.5-.1-7.07,.8-10.19,2.36-3.31,1.66-5.26,4.62-6.95,7.8-.34,.63-.19,1.24,.17,1.66,.24,1.03,1.33,1.43,2.13,1.18,.09,.16,1.12,.08,1.34,.09,.65,.03,1.29,.05,1.94,.08,1.15,.05,2.29,.1,3.44,.14,2.4,.1,4.8,.19,7.2,.27,4.88,.16,9.77,.24,14.65,.16,.81-.01,1.28-.55,1.41-1.17,.16-.21,.27-.47,.3-.78,.38-3.75-2.86-6.13-5.52-8.11Zm-11.59,6.88c-2.48-.08-4.97-.19-7.45-.29-1.3-.05-2.6-.11-3.9-.16-.19,0-.41-.03-.63-.06,1.11-1.92,2.41-3.69,4.41-4.8,2.52-1.4,5.52-2.19,8.4-2.25,2.92-.06,5.59,.74,8,2.38,1.86,1.26,4.75,2.97,5.23,5.38-4.69,.05-9.37-.03-14.05-.19Z"/><path class="d" d="M179.3,60.51c-1.47-3.8-3.04-8.04-5.89-11.04-1.46-1.54-3.11-3.01-4.72-4.4-1.54-1.33-3.26-2.04-5.13-2.78-4.22-1.66-8.58-3.11-13.18-2.96-.25,0-.46,.06-.64,.16-1.7-.13-3.23,.35-4.87,.96-1.7,.64-3.4,1.3-5.04,2.07-3.02,1.43-5.76,3.4-8.1,5.77-4.23,4.27-7.15,9.67-9.05,15.35-.38,.23-.66,.63-.69,1.2-.23,4.64-.29,9.25,1.16,13.71,1.2,3.68,3.15,7.05,5.59,10.05,5.21,6.4,12.94,11.25,21.27,11.89,.26,.02,.48-.02,.67-.1,5.12,.21,10.33-.54,15.11-2.41,2.52-.99,4.92-2.23,7.12-3.81,1.97-1.42,4.11-3.04,5.15-5.29,.31-.29,.51-.7,.49-1.1-.04-.88-.66-1.42-1.5-1.5,.04,0,.07,.01,.09,.01h0s.03,0-.03-.02c-.02-.01-.05-.03-.09-.05-.05-.03-.06-.04-.08-.05-.06-.05-.12-.1-.18-.16-.3-.28-.57-.57-.88-.83-.76-.64-1.61-1.13-2.46-1.61-1.74-.98-3.52-1.9-5.33-2.75-.71-.33-1.65-.22-2.05,.54-.02,.04-.03,.08-.05,.12-.07,.03-.13,.06-.2,.1-4.8,2.99-10.66,4.23-16.26,3.24-2.61-.46-5.44-1.29-7.47-3.08-2.02-1.78-2.8-4.42-3.11-7.02,13.32,.25,26.65,.62,39.96,.03h.04s.07,0,.11,0c1.03-.05,1.5-.92,1.43-1.71,1.2-4.15,.35-8.53-1.19-12.5Zm-41.74,11.16c-.97-.02-1.46,.74-1.45,1.49-.18,.23-.27,.54-.24,.93,.32,3.33,1.14,6.7,3.51,9.2,2.21,2.34,5.47,3.58,8.56,4.24,6.61,1.41,13.63,.19,19.37-3.39,.12-.07,.21-.16,.3-.24,1.57,.76,3.11,1.56,4.63,2.43,.8,.46,1.45,.85,2.04,1.43,.23,.22,.45,.43,.69,.61-1.04,1.6-3.11,2.92-4.55,3.87-2.04,1.34-4.24,2.44-6.54,3.25-4.6,1.62-9.46,2.18-14.31,1.84-.18-.01-.34,.01-.49,.05-7.18-.87-13.74-5.4-18.22-10.91-2.18-2.68-3.91-5.79-4.93-9.09-1.12-3.6-1.16-7.29-1.01-11.01,.21-.27,.32-.61,.33-.95,1.65-5.3,4.25-10.39,8.07-14.46,1.92-2.04,4.12-3.79,6.59-5.12,1.51-.82,3.09-1.47,4.69-2.09,1.52-.58,3.36-1.58,5.03-1.29,.36,.06,.68,0,.95-.13,3.94-.09,7.69,1.12,11.33,2.52,1.8,.69,3.53,1.31,4.98,2.62,1.38,1.24,2.78,2.5,4.1,3.81,2.65,2.66,4.1,6.58,5.43,10.03,1.3,3.36,2.15,6.94,1.31,10.46-13.38,.54-26.77,.14-40.15-.1Z"/><path class="d" d="M267.71,95.87l-.43-19.75c-.13-6.08,.1-12.32-.83-18.35-.84-5.44-3.32-10.33-7.7-13.74-2.2-1.71-4.7-2.93-7.36-3.78-2.77-.89-5.63-1.58-8.51-.85-3.08,.78-6.18,2.2-9.04,3.57-2.13,1.02-4.59,2.25-6.12,4.17-3.65-3.76-8.54-6.34-13.72-7.16-2.84-.45-5.9-.55-8.7,.2-1.87,.5-3.39,1.65-4.79,2.96,0-.47-.03-.94-.08-1.4-.03-.28-.09-.53-.22-.76-.16-.66-.76-1.11-1.46-1.15-4.29-.26-8.58-.15-12.85,.34-.8,.09-1.5,.62-1.5,1.5,0,.47,.28,.99,.7,1.28-.25,8.99-.49,17.99-.74,26.98-.12,4.3-.1,8.58,.07,12.88,.19,4.55,.39,9.11,.05,13.66-.1,1.35,1.34,1.75,2.26,1.2,4.03,.62,8.09,.93,12.16,.88,.29,0,.52-.08,.72-.19,.65-.1,1.23-.57,1.22-1.43-.11-6.63-.21-13.25-.32-19.88-.1-6.04-.85-13.1,2.11-18.63,1.21-2.27,3.34-4.32,6.06-4.32,2.55,0,5.93,.86,7.23,3.24,1.25,2.28,1.28,5.21,1.42,7.73,.19,3.3,.17,6.6,.1,9.9-.16,7.24-.59,14.5,.18,21.72,.05,.5,.3,.86,.63,1.1,.43,.67,1.14,.74,1.87,.81,1.24,.12,2.49,.23,3.73,.32,2.49,.18,4.98,.28,7.48,.32,.42,0,.74-.13,.97-.35,.74,0,1.45-.49,1.39-1.44-.35-6.38-.81-12.76-1-19.15-.18-6.15,.02-12.5,2.07-18.37,.94-2.7,3.06-4.22,5.9-4.45,1.44-.12,2.89,.07,4.3,.38,1.41,.31,3.13,.59,4.26,1.56,2.18,1.85,2.06,5.15,1.97,7.74-.12,3.13-.36,6.28-.31,9.42,.06,3.58,.48,7.14,.54,10.72,.06,3.74-.04,7.48-.15,11.22-.02,.71,.38,1.16,.89,1.35,.7,1.01,2.42,.98,3.52,1.01,1.27,.04,2.53-.08,3.79-.2,1.22-.12,2.45-.24,3.68-.22,1.26,.02,2.5,.22,3.73-.15,1.14-.34,1.27-1.57,.77-2.34,0-.03,0-.06,0-.09Zm-7.58-.25c-1.06,.1-2.12,.21-3.19,.25-.49,.02-.97,.02-1.46,0-.23-.01-.78,0-1.09-.06-.02-.01-.03-.03-.05-.04,.1-3.49,.18-6.98,.13-10.47-.06-3.58-.48-7.15-.54-10.72-.05-3.44,.26-6.87,.34-10.31,.07-3.04-.32-6.25-2.47-8.58-2.11-2.28-5.89-2.9-8.84-3.18-2.9-.27-5.96,.33-8.25,2.22-2.44,2.02-3.25,5.42-3.89,8.39-.75,3.45-1.05,6.99-1.12,10.51-.14,7.52,.52,15.08,.96,22.59-1.71-.04-3.43-.1-5.14-.2-.93-.05-1.87-.12-2.8-.19-.47-.04-.93-.08-1.4-.12-.25-.02-.51-.05-.76-.07-.62-6.88-.24-13.78-.09-20.68,.08-3.62,.09-7.25-.16-10.86-.2-2.83-.4-5.92-1.86-8.43-1.57-2.7-4.38-3.7-7.3-4.29-3.18-.64-6.12,.04-8.57,2.22-4.87,4.34-5.16,12.05-5.12,18.07,.04,7.95,.24,15.91,.37,23.86-3.43-.01-6.87-.25-10.26-.77,.19-3.99,.03-7.98-.13-11.97-.17-4.3-.19-8.58-.07-12.88,.24-8.99,.49-17.97,.74-26.96,3.12-.26,6.26-.32,9.39-.18,.02,.57,.03,1.13,0,1.7-.01,.21-.03,.42-.05,.63-.01,.11-.02,.21-.04,.32,0,.04-.01,.08-.02,.12-.07,.45-.16,.9-.27,1.34-.18,.76,.24,1.66,1.05,1.85,.62,.14,1.31-.1,1.66-.63,1.88-1.92,3.79-4.43,6.49-5.09,2.44-.6,5.19-.48,7.65-.01,4.9,.95,9.32,3.48,12.58,7.25,.29,.34,.63,.48,.96,.49,.65,.37,1.47,.31,1.86-.57,.98-2.24,3.51-3.4,5.59-4.42,2.41-1.18,4.95-2.22,7.49-3.09,2.71-.92,5.05-.48,7.73,.34,2.43,.74,4.76,1.81,6.77,3.39,4,3.13,6.02,7.65,6.69,12.6,.74,5.47,.53,11.12,.65,16.64,.14,6.64,.29,13.28,.43,19.92-.46-.02-.93-.07-1.38-.08-1.07-.02-2.13,.06-3.19,.16Z"/><path class="d" d="M328.31,42.19c.02-.76-.46-1.53-1.45-1.53l-6.55,.04c-1.05,0-2.1,.01-3.14,.02-.52,0-1.05,0-1.57,0h-1.17c-.33-.2-.74-.28-1.11-.21-.59-.2-1.26-.05-1.62,.68-5.9,11.7-10.74,23.92-14.46,36.49-2.02-5.52-4.16-10.99-6.45-16.41-1.35-3.2-2.74-6.38-4.17-9.54-1.46-3.22-3.37-6.44-4.05-9.94-.24-1.22-1.52-1.32-2.31-.73-4.11-.54-8.25-.8-12.39-.75-1.58,.02-1.87,2.03-.86,2.75,8.27,17.94,14.09,36.88,21.82,55.05-.69,1.54-1.39,3.08-2.08,4.62-.63,1.39-1.27,2.84-2.21,4.05-.95,1.21-2.14,1.84-3.6,2.24-1.85,.5-3.72,.78-5.63,.85-.86,.03-1.33,.65-1.43,1.31-.26,.27-.42,.65-.45,1.05-.24,3.44-.24,6.9-.01,10.34,.05,.81,.65,1.5,1.5,1.5,.14,0,.27-.03,.4-.07,.84,.18,1.64,.59,2.48,.77,.87,.18,1.74,.17,2.62,.04,1.74-.24,3.45-.81,5.08-1.48,3.18-1.3,6.14-3.15,8.54-5.62,2.58-2.66,4.35-5.95,6-9.23,1.85-3.7,3.53-7.48,5.06-11.33,.05-.12,.08-.24,.09-.35,6.94-18.14,14.63-35.98,23.05-53.48,.2-.41,.2-.8,.08-1.14Zm-14.17-1.46h.01c-.16,0-.17,0-.01,0Zm-16.49,65.81c-1.53,3.07-3.1,6.23-5.46,8.76-2.13,2.28-4.8,4.04-7.68,5.22-1.4,.57-2.93,1.12-4.43,1.33-1.31,.19-2.5-.28-3.73-.62-.14-2.81-.12-5.62,.05-8.42,3.58-.22,7.66-.92,10.07-3.69,1.16-1.33,1.96-2.88,2.69-4.46,.89-1.96,1.77-3.92,2.65-5.89,.29-.63,.23-1.36-.26-1.84-.02-.06-.03-.12-.06-.18-7.51-17.62-13.21-35.96-21.08-53.42,3.22,.06,6.43,.29,9.62,.71,.82,2.82,2.29,5.47,3.5,8.12,1.49,3.25,2.94,6.53,4.33,9.83,2.8,6.62,5.39,13.33,7.79,20.1,.21,.58,.64,.89,1.12,.99,.77,.46,1.94,.31,2.25-.81,3.67-13.31,8.62-26.23,14.77-38.58,.6,.08,1.26,.04,1.79,.04l3.67-.02c1.83,0,3.66-.02,5.49-.03-8.22,17.22-15.75,34.76-22.56,52.57-.04,.1-.06,.2-.08,.3-1.36,3.39-2.85,6.72-4.47,9.99Z"/></g></g></g></svg>