<?xml version="1.0" encoding="UTF-8"?><svg xmlns="http://www.w3.org/2000/svg" viewBox="0 0 400 243.89"><g id="a"/><g id="b"><g id="c"><g><path d="M387.63,0H12.37C5.55,0,0,4.73,0,10.54V233.36c0,5.81,5.55,10.54,12.37,10.54H387.63c6.82,0,12.37-4.73,12.37-10.54V10.54c0-5.81-5.55-10.54-12.37-10.54Zm10.38,233.36c0,4.87-4.66,8.84-10.38,8.84H12.37c-5.72,0-10.38-3.97-10.38-8.84V25.38H398.01V233.36Zm0-209.68H1.99V10.54C1.99,5.66,6.64,1.7,12.37,1.7H387.63c5.72,0,10.38,3.97,10.38,8.84v13.15Z"/><path d="M17.29,7.39c-2.95,0-5.35,2.24-5.35,5s2.4,5,5.35,5,5.35-2.24,5.35-5-2.4-5-5.35-5Zm0,8.87c-2.28,0-4.14-1.74-4.14-3.87s1.86-3.87,4.14-3.87,4.14,1.74,4.14,3.87-1.86,3.87-4.14,3.87Z"/><path d="M31.07,7.39c-2.95,0-5.35,2.24-5.35,5s2.4,5,5.35,5,5.35-2.24,5.35-5-2.4-5-5.35-5Zm0,8.87c-2.28,0-4.14-1.74-4.14-3.87s1.86-3.87,4.14-3.87,4.14,1.74,4.14,3.87-1.86,3.87-4.14,3.87Z"/><path d="M44.84,7.39c-2.95,0-5.35,2.24-5.35,5s2.4,5,5.35,5,5.35-2.24,5.35-5-2.4-5-5.35-5Zm0,8.87c-2.28,0-4.14-1.74-4.14-3.87s1.86-3.87,4.14-3.87,4.14,1.74,4.14,3.87-1.86,3.87-4.14,3.87Z"/><g><path d="M184.11,170.58c-.5-.41-1.08-.73-1.75-.95-.65-.22-1.26-.33-1.8-.33-1.55,0-2.07,.87-2.23,1.38l-2.47,7.05-1.67-5.6c-.27-.9-.8-1.26-1.19-1.4-.84-.3-1.92-.3-2.76,0-.4,.14-.92,.5-1.19,1.4l-1.67,5.6-2.46-7.02c-.16-.52-.5-.91-.99-1.13-.86-.39-1.93-.34-3.13,.06-.67,.22-1.25,.54-1.73,.93-.74,.61-.89,1.28-.89,1.74,0,.15,.02,.31,.05,.47,.03,.13,.09,.32,.18,.57l5.6,14c.23,.56,.67,.97,1.28,1.19,1.07,.38,2.34,.33,3.34-.04,.86-.32,1.18-.83,1.28-1.17l1.7-4.48,1.7,4.48c.2,.52,.63,.91,1.29,1.16,.53,.2,1.12,.3,1.74,.3,.57,0,1.1-.09,1.59-.26,.61-.22,1.06-.63,1.28-1.19l5.6-14c.07-.17,.11-.33,.15-.5,.03-.17,.05-.33,.05-.47,0-.48-.16-1.17-.91-1.79h0Zm-.61,1.97c-.02,.08-.04,.16-.07,.23l-5.6,13.99c-.05,.11-.13,.24-.39,.33-.69,.24-1.61,.23-2.3-.03-.23-.08-.38-.19-.42-.29l-3.1-8.17-3.12,8.22s-.11,.14-.38,.24c-.68,.25-1.59,.29-2.33,.03-.26-.09-.34-.22-.39-.33l-5.59-13.98c-.06-.15-.1-.27-.12-.35-.01-.06-.02-.1-.02-.15,0-.13,.04-.33,.34-.58,.34-.28,.76-.5,1.25-.67,.81-.27,1.53-.35,2.03-.12,.08,.04,.14,.08,.19,.24l4,11.42,2.99-10.03c.04-.14,.13-.37,.26-.42,.52-.18,1.23-.18,1.75,0,.13,.05,.22,.28,.26,.42l2.99,10.04,4.01-11.43c.04-.12,.12-.36,.81-.36,.38,0,.82,.08,1.33,.25,.49,.16,.91,.39,1.27,.68,.33,.27,.36,.5,.36,.64,0,.05,0,.11-.02,.18Z"/><path d="M211.63,170.58c-.5-.41-1.08-.73-1.75-.95-.66-.22-1.26-.33-1.8-.33-1.54,0-2.07,.87-2.24,1.38l-2.47,7.05-1.67-5.6c-.27-.9-.8-1.26-1.19-1.4-.84-.3-1.92-.3-2.76,0-.4,.14-.92,.5-1.19,1.4l-1.67,5.6-2.46-7.02c-.16-.52-.5-.91-.99-1.13-.86-.39-1.93-.34-3.13,.06-.67,.22-1.25,.54-1.73,.93-.74,.61-.89,1.28-.89,1.74,0,.15,.02,.3,.05,.47,.03,.13,.09,.32,.18,.57l5.6,14c.23,.56,.67,.97,1.28,1.19,1.07,.38,2.34,.33,3.34-.04,.86-.32,1.18-.83,1.28-1.17l1.7-4.48,1.7,4.48c.2,.52,.64,.91,1.29,1.16,.53,.2,1.12,.3,1.74,.3,.57,0,1.1-.09,1.59-.26,.61-.22,1.06-.63,1.28-1.19l5.6-13.99c.07-.17,.12-.33,.15-.5,.03-.17,.05-.33,.05-.47,0-.48-.16-1.17-.91-1.79h0Zm-.61,1.97c-.02,.08-.04,.15-.07,.23l-5.6,13.99c-.04,.11-.13,.24-.39,.33-.7,.25-1.61,.23-2.3-.03-.13-.05-.37-.16-.42-.29l-3.1-8.17-3.12,8.22s-.11,.15-.38,.24c-.68,.25-1.59,.29-2.33,.03-.26-.09-.34-.22-.39-.33l-5.59-13.98c-.06-.15-.1-.27-.12-.35-.01-.06-.02-.11-.02-.15,0-.13,.04-.33,.34-.58,.34-.28,.76-.5,1.25-.67,.81-.27,1.53-.35,2.03-.12,.08,.04,.14,.08,.19,.24l4,11.42,2.99-10.03c.04-.13,.13-.37,.26-.42,.52-.18,1.23-.18,1.75,0,.13,.05,.22,.28,.26,.42l2.99,10.04,4-11.43c.04-.12,.12-.36,.82-.36,.38,0,.82,.08,1.33,.25,.49,.16,.91,.39,1.27,.68,.33,.27,.36,.5,.36,.64,0,.05,0,.12-.02,.18Z"/><path d="M239.15,170.58c-.49-.41-1.08-.73-1.75-.95-.66-.22-1.26-.33-1.8-.33-1.54,0-2.07,.87-2.24,1.38l-2.47,7.05-1.67-5.6c-.27-.9-.8-1.26-1.19-1.4-.84-.3-1.92-.3-2.76,0-.4,.14-.92,.5-1.2,1.4l-1.67,5.6-2.46-7.02c-.16-.52-.5-.91-.99-1.13-.86-.39-1.94-.34-3.13,.06-.67,.22-1.25,.54-1.73,.93-.74,.61-.89,1.28-.89,1.74,0,.15,.02,.31,.05,.47,.03,.13,.09,.32,.18,.57l5.6,13.99c.22,.56,.67,.98,1.28,1.19,1.06,.38,2.34,.33,3.34-.04,.86-.31,1.18-.83,1.28-1.17l1.7-4.48,1.7,4.48c.2,.52,.64,.91,1.29,1.16,.53,.2,1.12,.3,1.74,.3,.57,0,1.1-.09,1.6-.26,.61-.22,1.06-.63,1.28-1.19l5.6-13.99c.07-.17,.12-.33,.15-.5,.03-.17,.05-.33,.05-.47,0-.47-.16-1.17-.91-1.79h0Zm-.61,1.97c-.02,.08-.04,.15-.07,.23l-5.6,13.99c-.04,.11-.13,.24-.39,.33-.7,.25-1.61,.23-2.3-.03-.23-.08-.38-.19-.42-.29l-3.1-8.17-3.11,8.22c-.02,.06-.14,.16-.38,.25-.68,.25-1.59,.29-2.33,.03-.26-.09-.34-.22-.39-.33l-5.59-13.98c-.06-.15-.1-.27-.12-.35-.01-.06-.02-.1-.02-.15,0-.13,.04-.33,.34-.58,.34-.28,.76-.5,1.25-.67,.81-.27,1.53-.35,2.03-.12,.08,.04,.14,.08,.19,.24l4,11.42,2.99-10.03c.04-.14,.13-.37,.26-.42,.52-.18,1.23-.18,1.75,0,.13,.05,.22,.28,.26,.42l2.99,10.04,4-11.43c.04-.12,.12-.36,.82-.36,.38,0,.82,.08,1.33,.25,.49,.16,.91,.39,1.26,.68,.33,.27,.37,.5,.37,.64,0,.05,0,.12-.02,.18Z"/><path d="M157.5,176.42c0-.72-.28-1.36-.8-1.85-.52-.48-1.07-.73-1.65-.73-.4,0-.72,.1-.88,.25l-6.36,4.13c-.41,.26-.7,.6-.88,1-.16,.36-.24,.71-.24,1.03s.08,.67,.24,1.03c.18,.4,.47,.74,.88,1l6.28,4.07c.24,.2,.56,.3,.96,.3,.58,0,1.13-.25,1.65-.73,.52-.49,.8-1.13,.8-1.85,0-.93-.44-1.39-.79-1.61l-3.43-2.22,3.42-2.21c.37-.23,.81-.69,.81-1.62Zm-1.61,.35l-5.38,3.48,5.39,3.49c.08,.05,.09,.23,.09,.34,0,.31-.1,.54-.33,.75-.22,.21-.43,.32-.69,.32h0l-6.35-4.13c-.16-.1-.26-.22-.32-.35-.09-.21-.11-.35-.11-.42s.02-.21,.11-.43c.06-.13,.16-.24,.32-.35l6.43-4.18c-.05,.04-.09,.05,0,.05,.19,0,.4,.11,.63,.32,.22,.21,.33,.45,.33,.75,0,.13-.02,.29-.11,.35Z"/><path d="M250.44,178.22l-6.28-4.08c-.24-.2-.56-.3-.96-.3-.56,0-1.11,.24-1.63,.72-.54,.49-.82,1.13-.82,1.86,0,.92,.44,1.39,.79,1.61l3.43,2.22-3.42,2.21c-.37,.23-.81,.69-.81,1.62,0,.72,.28,1.37,.82,1.86,.52,.48,1.07,.72,1.63,.72,.4,0,.72-.1,.88-.25l6.36-4.13c.41-.26,.7-.6,.88-1,.16-.36,.24-.71,.24-1.03s-.08-.67-.24-1.03c-.18-.4-.47-.74-.88-1Zm-.49,2.45c-.06,.13-.16,.25-.32,.35l-6.43,4.18s.08-.05,.04-.05h-.04c-.22,0-.46-.18-.62-.33-.23-.21-.33-.44-.33-.75,0-.1,.01-.29,.11-.35l5.38-3.48-5.39-3.49c-.08-.05-.09-.21-.09-.34,0-.31,.1-.54,.33-.75,.16-.15,.4-.32,.69-.32l6.35,4.13c.16,.1,.26,.22,.32,.35h0c.09,.21,.11,.35,.11,.42s-.02,.21-.11,.42Z"/><path d="M131.74,149.9v5.25c0,3.31,2.69,6,6,6h124.29c3.31,0,6-2.69,6-6v-5.25c0-3.31-2.69-6-6-6h-6.09c-.36-20.43-11.68-38.9-28.92-48.77-.08-.06-.17-.12-.27-.15-3.66-2.07-7.59-3.76-11.73-5v-.07c0-3.31-2.69-6-6-6h-5.25c-.39,0-.76-.01-1.12-.02-1.53-.04-2.97-.08-3.94,.78-.96-.85-2.34-.82-3.94-.78-.36,.01-.73,.02-1.12,.02h-5.24c-3.31,0-6,2.69-6,6v.04c-4.17,1.23-8.12,2.92-11.81,5-.06-.01-.12-.04-.18-.04-.44,0-.8,.28-.93,.67-16.8,9.97-27.77,28.18-28.13,48.32h-3.62c-3.31,0-6,2.69-6,6Zm37.68-51.93v34.41c0,.55,.45,1,1,1s1-.45,1-1v-35.6c3.43-1.95,7.11-3.56,10.98-4.74l-.06,24.84c0,.55,.45,1,1,1h0c.55,0,1-.45,1-1l.06-26.97c0-2.21,1.79-4,4-4h5.24c.41,0,.8-.01,1.18-.02,1.09-.03,2.22-.06,2.58,.28,.2,.2,.24,.64,.24,.97l-.05,39.12c0,.55,.45,1,1,1h0s.04-.01,.06-.01c.02,0,.03,.01,.05,.01h0c.55,0,1-.45,1-1l.06-39.12c0-.34,.04-.78,.24-.97,.36-.35,1.49-.31,2.58-.29,.38,.01,.77,.02,1.18,.02h5.25c2.21,0,4,1.79,4,4v.83s0,.08,0,.11l-.06,26.02c0,.55,.44,.98,1,1,.55,0,1-.45,1-1l.05-24.82c3.66,1.13,7.14,2.64,10.41,4.45v35.86c0,.55,.45,1,1,1s1-.45,1-1v-34.69c15.84,9.7,26.17,27.06,26.52,46.21h-110.58c.35-18.98,10.47-36.18,26.06-45.93Zm-27.09,47.93h119.69c2.21,0,4,1.79,4,4v5.25c0,2.21-1.79,4-4,4h-124.29c-2.21,0-4-1.79-4-4v-5.25c0-2.21,1.79-4,4-4h4.59Z"/><path d="M108.01,158.48c1.76-3.41,3.47-6.84,5.25-10.23,1.27-2.41,2.28-4.89,2.87-7.55,.13-.59,.3-1.17,.46-1.78,1.09,.16,1.67-.43,2.04-1.33,.1-.24,.25-.46,.35-.7,.23-.54,.22-1.08-.16-1.53-.23-.27-.17-.47-.04-.74,2.52-4.91,5.03-9.82,7.55-14.74,.09-.18,.2-.37,.27-.51,.6,.21,1.14,.49,1.7,.57,.68,.1,1.06-.41,1.35-.99l.97,.5c-.05,.11-.08,.18-.11,.25-.63,1.29-.3,2.33,.97,2.99,.71,.37,1.42,.74,2.14,1.1,1.11,.54,2.23,.19,2.79-.9,1-1.92,1.98-3.84,2.95-5.77,.57-1.12,.19-2.23-.94-2.82-.61-.32-1.23-.63-1.84-.94-1.43-.74-2.09-.63-3.18,.54-.31-.16-.62-.33-.93-.49,.57-1.27,.4-1.79-.81-2.41-2.48-1.27-4.95-2.54-7.43-3.81-2.85-1.45-5.81-1.7-8.86-.76-1.62,.5-3.03,1.38-4.15,2.68-.43,.49-.6,1.03-.3,1.62,.3,.6,.84,.78,1.49,.72,.42-.04,.85-.08,1.27-.1,1.54-.06,3.08-.02,4.55,.52,1.52,.56,2.03,1.41,1.9,3.01-.03,.34,.13,.68,.19,1.03,.02,.16,.06,.35,0,.48-2.58,5.06-5.17,10.12-7.77,15.18-.07,.14-.3,.22-.47,.29-.37,.15-.83,.19-1.11,.43-1.04,.9-1.25,2.33-.59,3.52-.8,.96-1.61,1.92-2.4,2.9-1.23,1.53-2.17,3.23-3.05,4.97-1.76,3.46-3.53,6.91-5.3,10.37-.9,1.76-.86,3.49,.28,5.1,2.07,2.92,6.42,2.55,8.09-.68Zm26.68-43.69c.2-.39,.47-.52,.88-.31,.74,.38,1.49,.75,2.22,1.15,.15,.08,.26,.23,.41,.36-.06,.2-.08,.38-.16,.53-.96,1.88-1.92,3.76-2.88,5.63-.23,.44-.47,.51-.92,.29-.72-.36-1.43-.72-2.14-1.09-.45-.23-.52-.46-.29-.92,.96-1.88,1.92-3.75,2.88-5.63Zm-2.88-.07c.34,.18,.65,.33,1,.51-.49,.96-.97,1.9-1.48,2.9-.32-.17-.64-.32-.99-.51,.49-.96,.97-1.9,1.48-2.91Zm-13.02-4.22c-1.89-.69-3.85-.69-5.82-.58-.13,0-.25,0-.5,.01,1.33-1.37,2.84-2.08,4.55-2.39,2.42-.43,4.71-.04,6.89,1.12,2.27,1.21,4.57,2.35,6.86,3.52,.16,.08,.32,.16,.53,.27-1.02,2-2.03,3.97-3.05,5.97-.09-.03-.17-.05-.23-.09-2.02-1.02-4.03-2.05-6.05-3.07-.21-.1-.37-.18-.35-.49,.13-2.16-.79-3.54-2.83-4.28Zm2.99,6.33c1.19,.61,2.36,1.2,3.55,1.8-2.69,5.26-5.36,10.47-8.05,15.73-1.19-.61-2.35-1.2-3.54-1.81,2.69-5.25,5.35-10.46,8.04-15.71Zm-9.79,16.48c1.89,.96,3.76,1.92,5.68,2.9l-.64,1.28c-1.9-.97-3.77-1.93-5.68-2.91,.23-.45,.42-.82,.64-1.27Zm-11.08,21.52c1.85-3.63,3.76-7.24,5.56-10.9,1.37-2.78,3.31-5.13,5.33-7.47,1.14,.58,2.28,1.16,3.44,1.76-.69,2.7-1.27,5.42-2.56,7.92-2.01,3.89-3.98,7.79-5.99,11.67-1.15,2.22-4.08,2.5-5.53,.53-.82-1.11-.87-2.3-.25-3.52Z"/><path d="M269.63,125.41c.4,.06,.81,.12,1.2,.24,1.1,.35,1.89,1.09,2.46,2.08,.95,1.66,1.9,3.34,2.9,4.97v.02s.04,.07,.06,.11c.09,.18,.2,.36,.3,.53,3.07,5.32,6.14,10.64,9.21,15.96,1.75,3.04,3.48,6.09,5.27,9.11,1.97,3.33,6.5,3.65,8.82,.65,.28-.37,.51-.78,.76-1.18l.38-1.42c.13-1.69-.57-3.11-1.39-4.53-4.61-7.94-9.19-15.89-13.78-23.85-.26-.45-.52-.9-.78-1.35-.94-1.64-1.86-3.29-2.85-4.9-.9-1.46-1.05-2.91-.6-4.56,1.95-7.11-3.14-13.86-10.43-13.95-.77,0-1.43,.18-1.79,.91-.35,.7-.14,1.33,.31,1.93,1.38,1.87,2.75,3.75,4.11,5.64,.79,1.1,.64,2.03-.47,2.84-.92,.68-1.84,1.35-2.77,2.02-1.17,.84-2.09,.7-2.93-.46-1.39-1.91-2.79-3.82-4.18-5.74-.41-.56-.94-.85-1.63-.73-.69,.11-1.16,.54-1.33,1.2-.22,.87-.46,1.75-.52,2.63-.41,6.13,3.59,10.96,9.71,11.8Zm-7.9-11.67c.05-.6,.2-1.2,.33-1.95,1.47,2.02,2.8,3.87,4.16,5.71,1.27,1.73,3.38,2.08,5.13,.86,1.09-.76,2.15-1.55,3.22-2.34,.88-.65,1.4-1.52,1.49-2.63,.08-.94-.19-1.77-.75-2.52-1.35-1.84-2.68-3.69-4.11-5.65,2.45,.1,4.48,.91,6.14,2.51,2.66,2.56,3.39,5.68,2.43,9.19-.57,2.07-.35,3.96,.77,5.8,.85,1.4,1.66,2.82,2.47,4.24,.01,.02,.02,.05,.04,.07,.07,.13,.14,.25,.21,.37l.45,.77c.09,.16,.18,.31,.27,.47,.06,.1,.12,.21,.18,.31,4.44,7.68,8.87,15.36,13.3,23.04,.43,.74,.88,1.47,1.27,2.23,1.2,2.34-.5,5.1-3.13,5.06-1.4-.02-2.41-.72-3.11-1.94-4.66-8.1-9.34-16.19-14.01-24.28-.22-.39-.43-.79-.68-1.16-.02-.03-.04-.06-.06-.08-.02-.05-.04-.1-.07-.14-.89-1.6-1.84-3.18-2.74-4.78-1.13-2-2.82-3.09-5.1-3.34-4.96-.54-8.53-4.88-8.1-9.84Z"/><path d="M280.34,131.37s.06,.09,.09,.13c3.53,6.14,7.07,12.27,10.61,18.41,.1,.18,.2,.36,.34,.5,.33,.31,.72,.39,1.12,.14,.4-.24,.53-.61,.39-1.05-.06-.19-.18-.37-.28-.54-1.38-2.39-2.75-4.77-4.13-7.15-2.18-3.77-4.36-7.54-6.54-11.31-.01-.02-.02-.04-.03-.06-1.02-1.79-2.05-3.57-3.09-5.34-.14-.23-.36-.41-.62-.71-.33,.15-.68,.22-.92,.42-.35,.31-.31,.73-.09,1.12,1.05,1.82,2.09,3.64,3.15,5.45Z"/></g></g></g></g></svg>