<?xml version="1.0" encoding="utf-8"?>
<!-- Generator: Adobe Illustrator 26.1.0, SVG Export Plug-In . SVG Version: 6.00 Build 0)  -->
<svg version="1.1" id="Capa_1" xmlns="http://www.w3.org/2000/svg" xmlns:xlink="http://www.w3.org/1999/xlink" x="0px" y="0px"
	 viewBox="0 0 103.8 100.2" style="enable-background:new 0 0 103.8 100.2;" xml:space="preserve">
<style type="text/css">
	.st0{fill:#4EBBF4;}
</style>
<g id="a">
</g>
<g id="b">
	<g id="c">
		<path class="st0" d="M101.1,12.2c-2.3-2.1-5.7-3.2-8.6-4.5c-3.1-1.4-6.3-2.9-9.4-4.3c-3-1.3-5.9-2.9-9.2-3.4c-0.4-0.1-0.7,0-1,0.1
			h0c-0.5-0.1-0.8,0-1.2,0.2c-0.3,0-0.6,0.2-0.9,0.4C57.9,13,44.6,25,31,36.6c-0.2-0.2-0.5-0.3-0.7-0.5c-4.4-3.3-8.9-6.6-13.3-9.9
			c-0.1-0.1-0.3-0.2-0.4-0.2c-1.6-1.4-3.4-2.7-5.6-2.4c-1.3,0.1-2.4,0.8-3.5,1.6c-1,0.7-2,1.5-2.9,2.3c-0.9,0.8-1.7,1.7-2.5,2.6
			C1,31,0.2,32.1,0,33.5c-0.1,1.3,0.5,2.3,1.3,3.2c0.9,1,1.9,1.8,2.9,2.6c0,0,0.1,0,0.1,0.1c4,3.7,8.1,7.4,12.2,11.1
			C12,53.9,7.7,57.6,3.7,61.7c-0.1,0.1-0.2,0.3-0.3,0.4c-1.3,1-2.1,2.7-2,4.4c0.1,2.6,1.8,4.7,3.4,6.6c1.5,1.8,3.4,4.1,5.8,4.3
			c1.3,0.1,2.5-0.4,3.5-1.1c0.5-0.3,0.9-0.7,1.4-1c0.4,0,0.7-0.2,1-0.4c4.7-4.1,9.6-7.9,14.6-11.5c0,0,0,0,0,0
			c8.6,7.5,17.1,15,25.6,22.6c5,4.5,10,9.1,14.9,13.7c0.5,0.4,1,0.5,1.4,0.3c0.8,0.3,1.6,0.2,2.3-0.1c0.3,0.1,0.7,0.1,1.1-0.1
			c5.7-2.5,11.4-5,17.1-7.4c2.4-1,5.3-1.9,7.1-4c1.3-1.6,1.9-3.6,2.3-5.6c0.2-0.2,0.4-0.6,0.4-1c0.3-20.6,0.4-41.3,0.2-61.9
			c0.1-0.2,0.2-0.4,0.2-0.6C104,16.8,103,14,101.1,12.2L101.1,12.2z M74.7,37.9C75,48.6,75.1,59.3,75.2,70
			C66.6,63.4,58,56.8,49.4,50.3c8.4-6.7,16.8-13.3,25.1-20C74.6,32.9,74.6,35.4,74.7,37.9z M72.6,3.3c1.5,0.9,1.2,3.9,1.3,5.3
			c0.1,3.3,0.2,6.6,0.3,9.9c0.1,2.8,0.2,5.5,0.2,8.2c-0.1,0-0.1,0.1-0.2,0.1C65.1,34,56,41.2,46.9,48.5c-4.5-3.4-9-6.7-13.5-10.1
			C46.8,27,59.8,15.3,72.6,3.3z M16.4,71.1c-0.2,0-0.3,0.1-0.5,0.2c-0.8,0.6-1.7,1.2-2.5,1.9c-0.6,0.5-1.4,1.1-2.1,1.3
			c-0.7,0.1-1.4-0.4-1.8-0.8c-0.7-0.6-1.4-1.4-2-2.1c-1.2-1.3-2.5-2.8-2.9-4.6c-0.1-0.6-0.1-1.2,0.1-1.7c0.2-0.5,0.6-0.9,1.1-1
			c0.7-0.2,1-0.7,1.1-1.3c3.7-3.6,7.6-7,11.8-10.1c0.1-0.1,0.3-0.2,0.4-0.4c3.3,3,6.7,5.9,10,8.9C24.6,64.5,20.4,67.7,16.4,71.1
			L16.4,71.1z M20.6,50.2c-5-4.5-10-9-15-13.6c-0.2-0.1-0.3-0.2-0.5-0.3c-0.4-0.3-0.7-0.7-1.1-1c-0.4-0.4-1.2-1-1.1-1.6
			c0.1-0.8,1-1.5,1.5-2.1c0.7-0.7,1.4-1.4,2.1-2.1c0.7-0.6,1.4-1.2,2.1-1.7c0.7-0.5,1.5-1.2,2.4-1.4c1.6-0.3,3,1.2,4,2.2
			c0.3,0.2,0.6,0.4,0.8,0.4c15.4,11.5,30.9,23,46.2,34.6c4.4,3.3,8.7,6.7,13,10.1c0,1.3,0,2.5,0,3.8c0,3.6,0,7.3,0,10.9
			c0,1.8,0,3.6,0,5.4c0,0.8,0.2,3.8-1.4,3.2C73.5,97,73.3,97,73.1,97C56,80.9,38.1,65.8,20.6,50.2L20.6,50.2z M98,87
			c-0.9,0.8-2.1,1.3-3.2,1.8c-1.4,0.6-2.7,1.2-4.1,1.8c-4.2,1.8-8.4,3.7-12.6,5.5c0-0.2,0.1-0.5,0.1-0.7c0.2-3.6,0.1-7.2,0.1-10.7
			c0-7.3,0-14.7-0.1-22.1c-0.1-14.7-0.5-29.4-0.9-44c-0.1-3.9-0.1-7.9-0.3-11.8c-0.1-0.9-0.2-1.9-0.5-2.8c1.6,0.6,3.2,1.3,4.8,2
			c2.8,1.3,5.7,2.6,8.5,3.9c2.6,1.2,5.4,2.3,7.9,3.7c2,1.1,3.1,2.9,3.2,5.1c-0.1,0.2-0.2,0.5-0.2,0.8c0.1,20.5,0.1,41-0.2,61.4
			c-0.1,0.1-0.1,0.2-0.1,0.4C99.9,83.1,99.6,85.5,98,87L98,87z"/>
	</g>
</g>
</svg>
