<?xml version="1.0" encoding="UTF-8"?><svg xmlns="http://www.w3.org/2000/svg" viewBox="0 0 103.8 100.25"><defs><style>.d{fill:#454545;}</style></defs><g id="a"/><g id="b"><g id="c"><path class="d" d="M101.06,12.25c-2.33-2.14-5.73-3.19-8.56-4.49-3.14-1.43-6.28-2.87-9.41-4.3-2.97-1.35-5.94-2.9-9.18-3.44-.36-.06-.69,0-.96,.14h-.02c-.46-.11-.85-.01-1.15,.19-.3,.03-.6,.15-.88,.41-13.01,12.26-26.31,24.2-39.91,35.8-.23-.17-.47-.35-.7-.52-4.44-3.31-8.87-6.62-13.31-9.92-.14-.1-.28-.17-.41-.22-1.57-1.42-3.44-2.69-5.65-2.43-1.33,.15-2.45,.84-3.51,1.6-1.02,.72-2,1.5-2.93,2.33-.9,.81-1.74,1.67-2.54,2.58-.89,1.03-1.78,2.13-1.91,3.53-.12,1.28,.51,2.34,1.34,3.25,.89,.96,1.88,1.83,2.91,2.64,.04,.03,.08,.05,.12,.08,4.03,3.73,8.09,7.41,12.19,11.07-4.55,3.39-8.86,7.09-12.87,11.1-.13,.13-.22,.27-.29,.41-1.35,1-2.12,2.72-2.04,4.42,.12,2.57,1.77,4.69,3.36,6.57,1.5,1.77,3.35,4.06,5.82,4.33,1.28,.14,2.49-.37,3.53-1.08,.46-.31,.91-.65,1.36-.98,.36-.02,.72-.17,1.02-.42,4.7-4.05,9.57-7.87,14.63-11.46,.01,0,.02-.02,.03-.03,8.57,7.52,17.15,15.01,25.63,22.63,5.01,4.5,9.98,9.06,14.88,13.68,.46,.43,.99,.49,1.45,.34,.75,.27,1.55,.22,2.28-.06,.33,.09,.69,.09,1.07-.07,5.71-2.48,11.43-4.96,17.14-7.43,2.4-1.04,5.31-1.89,7.06-3.96,1.35-1.6,1.93-3.59,2.32-5.6,.24-.24,.41-.57,.41-1.01,.29-20.63,.36-41.27,.23-61.91,.1-.18,.17-.39,.19-.64,.22-2.62-.77-5.36-2.72-7.15Zm-26.36,25.69c.26,10.69,.41,21.38,.47,32.08-8.54-6.66-17.15-13.2-25.81-19.7,8.38-6.65,16.75-13.3,25.13-19.95,.07,2.52,.15,5.05,.21,7.57Zm-2.09-34.68c1.46,.88,1.24,3.9,1.28,5.28,.09,3.29,.19,6.59,.28,9.88,.08,2.75,.15,5.5,.23,8.25-.05,.03-.11,.06-.16,.1-9.11,7.23-18.22,14.46-27.33,21.69-4.48-3.36-8.97-6.72-13.47-10.07C46.78,27,59.84,15.29,72.61,3.26ZM16.35,71.1c-.17,.03-.34,.09-.48,.2-.84,.62-1.68,1.24-2.51,1.86-.62,.46-1.36,1.13-2.14,1.26-.7,.12-1.35-.39-1.84-.83-.72-.64-1.38-1.36-2.02-2.08-1.16-1.31-2.49-2.79-2.9-4.55-.14-.61-.1-1.17,.13-1.7,.22-.52,.58-.87,1.05-1,.71-.2,1.03-.74,1.06-1.3,3.69-3.61,7.6-6.99,11.75-10.06,.14-.1,.26-.23,.37-.36,3.33,2.97,6.68,5.92,10.03,8.87-4.28,3.07-8.44,6.31-12.48,9.69Zm4.27-20.93c-5.03-4.48-10.03-9-14.97-13.58-.15-.14-.31-.23-.47-.3-.37-.32-.73-.66-1.08-1-.39-.39-1.19-.96-1.09-1.59,.12-.77,.98-1.53,1.47-2.07,.67-.73,1.37-1.43,2.11-2.1,.67-.61,1.37-1.18,2.11-1.71,.7-.51,1.5-1.18,2.38-1.35,1.57-.29,3.01,1.21,4.03,2.19,.26,.25,.55,.38,.84,.42,15.43,11.51,30.91,22.95,46.21,34.64,4.37,3.33,8.71,6.69,13.04,10.08,0,1.26,.01,2.53,.01,3.79,0,3.63,0,7.27-.03,10.9-.01,1.82-.02,3.63-.04,5.45,0,.8,.16,3.83-1.38,3.19-.23-.1-.44-.13-.64-.11-17.09-16.08-34.98-31.26-52.5-46.86Zm77.37,36.8c-.89,.82-2.1,1.28-3.2,1.76-1.37,.6-2.74,1.19-4.11,1.78-4.21,1.83-8.42,3.65-12.63,5.48,.03-.25,.05-.49,.07-.74,.18-3.56,.07-7.16,.08-10.72,.02-7.35,0-14.7-.07-22.06-.14-14.69-.54-29.37-.95-44.05-.11-3.93-.09-7.9-.34-11.83-.06-.91-.2-1.88-.48-2.8,1.62,.58,3.19,1.33,4.77,2.05,2.84,1.3,5.68,2.59,8.52,3.89,2.63,1.2,5.42,2.26,7.94,3.69,1.98,1.12,3.13,2.93,3.22,5.11-.13,.21-.21,.46-.21,.77,.14,20.48,.06,40.96-.21,61.43-.06,.12-.1,.25-.13,.4-.35,2-.68,4.38-2.25,5.83Z"/></g></g></svg>