<?xml version="1.0" encoding="UTF-8"?><svg xmlns="http://www.w3.org/2000/svg" viewBox="0 0 99.68 97.25"><defs><style>.d{fill:#454545;}</style></defs><g id="a"/><g id="b"><g id="c"><path class="d" d="M99.23,36.55c-.69-3.84-2.23-7.51-4.42-10.73-.02-.02-.04-.04-.06-.07-5.44-9.09-12.99-17.3-22.86-21.49C65.69,1.63,58.64,.77,51.97,.18c-6.37-.57-12.75,.24-18.78,2.39-6.5,2.31-12.42,5.94-17.64,10.42-.28,.03-.57,.16-.83,.4C5.28,22.04-.11,34.8,0,47.6c.06,7.25,2.15,14.28,4.79,20.98,1.38,3.5,3.17,6.63,5.75,9.39,2.56,2.73,5.44,5.21,8.34,7.56,3.15,2.55,6.46,4.91,10,6.88,3.74,2.08,7.72,3.87,12.03,4.24,.21,.17,.48,.29,.8,.32,6.96,.73,14.06,.06,20.76-1.97,1.21-.37,2.38-.79,3.54-1.25,.09,.02,.18,.03,.27,.02,.41-.02,.75-.17,1.06-.44l.25-.22c4.94-2.14,9.47-5.01,13.91-8.15,2.84-2,5.71-4.05,8.09-6.59,2.21-2.35,3.98-5.1,5.32-8.03,3.07-6.73,3.95-14.1,4.43-21.41,.27-4.13,.6-8.27-.14-12.37Zm-15.28,8.38c-.12-1.49-.4-2.97-.9-4.41-.94-2.7-2.65-4.9-4.2-7.26-1.46-2.23-2.6-4.63-3.21-7.23-.57-2.46-.6-5.05,.17-7.46,.33-1.01,.79-2.06,2-1.96,1.14,.1,2.43,.62,3.45,1.11,2.13,1.01,3.99,2.56,4.8,4.83,.92,2.59,.75,5.6,.62,8.3-.23,4.79-1.17,9.54-2.74,14.08ZM16.53,15.81c.25-.05,.5-.15,.73-.36C26.16,7.69,37.62,2.5,49.59,3.01c3.36,.14,6.7,.65,10.02,1.16,3.29,.5,6.57,1.13,9.71,2.28,4.95,1.82,9.4,4.88,13.19,8.51-1.65-.82-3.5-1.4-5.16-1.37-2.94,.05-4.29,3.1-4.79,5.57-1.2,5.9,1.03,11.74,4.33,16.56,2.07,3.02,3.81,5.86,4.08,9.61,.25,3.6-.42,7.17-1.14,10.69-.09,.42,0,.79,.18,1.09-1.77,5.71-3.69,11.38-5.77,16.99-5.8-15.8-11.15-31.76-16-47.87,1.41-.01,2.81-.07,4.2-.22,1.9-.2,1.92-3.2,0-3-4.18,.44-8.46,.12-12.65,.02-4.3-.1-8.59-.19-12.89-.29-1.93-.04-1.93,2.96,0,3l4.34,.1c2.63,6.97,5.26,13.95,7.89,20.92-.13,.42-.24,.84-.31,1.28-.16,.17-.3,.38-.38,.66-2.31,8.36-5,16.6-8.05,24.71-4.94-15.85-9.65-31.88-16.53-47,1.44,.05,2.88,.11,4.31,.21,1.93,.14,1.92-2.86,0-3-6.07-.43-12.16-.38-18.23,.09,1.86-2.88,4.07-5.54,6.59-7.9Zm52,72.53c-.58,.51-1.16,1.01-1.74,1.52-3.66-7.52-5.29-15.79-7.62-23.77-2.62-9.01-6.25-17.74-9.56-26.51-1.72-4.56-3.44-9.11-5.16-13.67l5.33,.12c1.76,.04,3.53,.12,5.3,.16,5.28,17.57,11.12,34.98,17.52,52.18-1.3,3.35-2.65,6.67-4.07,9.98Zm-35,1.7c-4.09-7.43-6.05-15.75-8.56-23.8-2.73-8.76-6.73-16.99-10.15-25.49-1.84-4.58-3.46-9.25-4.53-14.07,3.52-.27,7.05-.38,10.58-.34-.06,.3-.03,.62,.12,.96,7.46,16.23,12.3,33.6,17.66,50.6-1.61,4.08-3.33,8.13-5.13,12.14Zm-11.1-5.51c-2.79-2.15-5.46-4.48-8-6.92-2.55-2.44-4.64-5.09-6.1-8.32-1.52-3.37-2.69-7.01-3.68-10.56-.84-3.02-1.41-6.09-1.58-9.23-.31-5.94,.64-11.89,2.71-17.47,.51-1.38,1.11-2.73,1.76-4.05,2,8.64,5.72,16.73,9.2,24.85,1.82,4.25,3.54,8.54,4.96,12.95,1.39,4.33,2.57,8.73,3.97,13.06,1.17,3.64,2.52,7.24,4.21,10.66-2.59-1.48-5.07-3.15-7.44-4.97Zm19.42,9.45c-.22-.17-.5-.29-.84-.32-1.81-.14-3.57-.62-5.27-1.26,1.96-4.31,3.81-8.67,5.56-13.06,.38-.28,.62-.73,.52-1.29,3.43-8.77,6.43-17.7,9-26.76h0c.14,.38,.29,.76,.43,1.14,1.64,4.36,3.29,8.72,4.64,13.18,1.28,4.23,2.32,8.54,3.52,12.79,1.25,4.41,2.71,8.77,4.72,12.89-.26,.09-.51,.2-.78,.29-6.92,2.36-14.24,3.16-21.51,2.41Zm54.66-47.48c-.4,6.94-.94,13.97-3.43,20.53-1.12,2.96-2.68,5.84-4.74,8.26-2.09,2.47-4.65,4.45-7.27,6.32-2.93,2.09-5.88,4.12-8.97,5.9,1.2-2.87,2.36-5.75,3.49-8.65,.02-.05,.04-.1,.06-.15,3.64-9.43,6.85-19.01,9.6-28.74,.03-.11,.05-.22,.06-.33,2.31-5.4,3.76-11.11,4.26-16.98,.28-3.33,.42-6.89-.46-10.04,1.66,2.31,3.18,4.74,4.55,7.24,.08,.14,.17,.25,.26,.35,1.02,1.99,1.78,4.09,2.25,6.29,.7,3.31,.54,6.65,.34,10.01Z"/></g></g></svg>