<?xml version="1.0" encoding="utf-8"?>
<!-- Generator: Adobe Illustrator 26.1.0, SVG Export Plug-In . SVG Version: 6.00 Build 0)  -->
<svg version="1.1" id="Capa_1" xmlns="http://www.w3.org/2000/svg" xmlns:xlink="http://www.w3.org/1999/xlink" x="0px" y="0px"
	 viewBox="0 0 99.7 97.2" style="enable-background:new 0 0 99.7 97.2;" xml:space="preserve">
<style type="text/css">
	.st0{fill:#1C87AA;}
</style>
<g id="a">
</g>
<g id="b">
	<g id="c">
		<path class="st0" d="M99.2,36.5c-0.7-3.8-2.2-7.5-4.4-10.7c0,0,0,0-0.1-0.1c-5.4-9.1-13-17.3-22.9-21.5C65.7,1.6,58.6,0.8,52,0.2
			c-6.4-0.6-12.8,0.2-18.8,2.4C26.7,4.9,20.8,8.5,15.6,13c-0.3,0-0.6,0.2-0.8,0.4C5.3,22-0.1,34.8,0,47.6c0.1,7.2,2.2,14.3,4.8,21
			c1.4,3.5,3.2,6.6,5.8,9.4c2.6,2.7,5.4,5.2,8.3,7.6c3.1,2.6,6.5,4.9,10,6.9c3.7,2.1,7.7,3.9,12,4.2c0.2,0.2,0.5,0.3,0.8,0.3
			c7,0.7,14.1,0.1,20.8-2c1.2-0.4,2.4-0.8,3.5-1.2c0.1,0,0.2,0,0.3,0c0.4,0,0.8-0.2,1.1-0.4l0.2-0.2c4.9-2.1,9.5-5,13.9-8.2
			c2.8-2,5.7-4.1,8.1-6.6c2.2-2.3,4-5.1,5.3-8c3.1-6.7,3.9-14.1,4.4-21.4C99.6,44.8,99.9,40.7,99.2,36.5L99.2,36.5z M84,44.9
			c-0.1-1.5-0.4-3-0.9-4.4c-0.9-2.7-2.7-4.9-4.2-7.3c-1.5-2.2-2.6-4.6-3.2-7.2c-0.6-2.5-0.6-5,0.2-7.5c0.3-1,0.8-2.1,2-2
			c1.1,0.1,2.4,0.6,3.4,1.1c2.1,1,4,2.6,4.8,4.8c0.9,2.6,0.8,5.6,0.6,8.3C86.5,35.6,85.5,40.4,84,44.9L84,44.9z M16.5,15.8
			c0.2-0.1,0.5-0.1,0.7-0.4C26.2,7.7,37.6,2.5,49.6,3c3.4,0.1,6.7,0.6,10,1.2c3.3,0.5,6.6,1.1,9.7,2.3c4.9,1.8,9.4,4.9,13.2,8.5
			c-1.7-0.8-3.5-1.4-5.2-1.4c-2.9,0.1-4.3,3.1-4.8,5.6c-1.2,5.9,1,11.7,4.3,16.6c2.1,3,3.8,5.9,4.1,9.6c0.2,3.6-0.4,7.2-1.1,10.7
			c-0.1,0.4,0,0.8,0.2,1.1c-1.8,5.7-3.7,11.4-5.8,17c-5.8-15.8-11.2-31.8-16-47.9c1.4,0,2.8-0.1,4.2-0.2c1.9-0.2,1.9-3.2,0-3
			c-4.2,0.4-8.5,0.1-12.6,0c-4.3-0.1-8.6-0.2-12.9-0.3c-1.9,0-1.9,3,0,3l4.3,0.1c2.6,7,5.3,14,7.9,20.9c-0.1,0.4-0.2,0.8-0.3,1.3
			c-0.2,0.2-0.3,0.4-0.4,0.7c-2.3,8.4-5,16.6-8,24.7c-4.9-15.8-9.6-31.9-16.5-47c1.4,0,2.9,0.1,4.3,0.2c1.9,0.1,1.9-2.9,0-3
			c-6.1-0.4-12.2-0.4-18.2,0.1C11.8,20.8,14,18.2,16.5,15.8L16.5,15.8z M68.5,88.3c-0.6,0.5-1.2,1-1.7,1.5
			c-3.7-7.5-5.3-15.8-7.6-23.8c-2.6-9-6.2-17.7-9.6-26.5c-1.7-4.6-3.4-9.1-5.2-13.7l5.3,0.1c1.8,0,3.5,0.1,5.3,0.2
			c5.3,17.6,11.1,35,17.5,52.2C71.3,81.7,69.9,85,68.5,88.3L68.5,88.3z M33.5,90c-4.1-7.4-6-15.8-8.6-23.8
			c-2.7-8.8-6.7-17-10.1-25.5c-1.8-4.6-3.5-9.2-4.5-14.1c3.5-0.3,7-0.4,10.6-0.3c-0.1,0.3,0,0.6,0.1,1c7.5,16.2,12.3,33.6,17.7,50.6
			C37,82,35.3,86,33.5,90L33.5,90z M22.4,84.5c-2.8-2.2-5.5-4.5-8-6.9c-2.6-2.4-4.6-5.1-6.1-8.3c-1.5-3.4-2.7-7-3.7-10.6
			c-0.8-3-1.4-6.1-1.6-9.2C2.8,43.6,3.7,37.6,5.8,32c0.5-1.4,1.1-2.7,1.8-4c2,8.6,5.7,16.7,9.2,24.9c1.8,4.2,3.5,8.5,5,12.9
			c1.4,4.3,2.6,8.7,4,13.1c1.2,3.6,2.5,7.2,4.2,10.7C27.3,88,24.8,86.3,22.4,84.5L22.4,84.5z M41.8,94c-0.2-0.2-0.5-0.3-0.8-0.3
			c-1.8-0.1-3.6-0.6-5.3-1.3c2-4.3,3.8-8.7,5.6-13.1c0.4-0.3,0.6-0.7,0.5-1.3c3.4-8.8,6.4-17.7,9-26.8l0,0c0.1,0.4,0.3,0.8,0.4,1.1
			c1.6,4.4,3.3,8.7,4.6,13.2c1.3,4.2,2.3,8.5,3.5,12.8c1.2,4.4,2.7,8.8,4.7,12.9c-0.3,0.1-0.5,0.2-0.8,0.3
			C56.4,93.9,49.1,94.7,41.8,94L41.8,94z M96.5,46.5c-0.4,6.9-0.9,14-3.4,20.5c-1.1,3-2.7,5.8-4.7,8.3c-2.1,2.5-4.7,4.4-7.3,6.3
			c-2.9,2.1-5.9,4.1-9,5.9c1.2-2.9,2.4-5.8,3.5-8.7c0-0.1,0-0.1,0.1-0.2c3.6-9.4,6.8-19,9.6-28.7c0-0.1,0.1-0.2,0.1-0.3
			c2.3-5.4,3.8-11.1,4.3-17c0.3-3.3,0.4-6.9-0.5-10c1.7,2.3,3.2,4.7,4.6,7.2c0.1,0.1,0.2,0.2,0.3,0.4c1,2,1.8,4.1,2.2,6.3
			C96.9,39.8,96.7,43.1,96.5,46.5L96.5,46.5z"/>
	</g>
</g>
</svg>
