<?xml version="1.0" encoding="utf-8"?>
<!-- Generator: Adobe Illustrator 26.1.0, SVG Export Plug-In . SVG Version: 6.00 Build 0)  -->
<svg version="1.1" id="Capa_1" xmlns="http://www.w3.org/2000/svg" xmlns:xlink="http://www.w3.org/1999/xlink" x="0px" y="0px"
	 viewBox="0 0 100 100" style="enable-background:new 0 0 100 100;" xml:space="preserve">
<style type="text/css">
	.st0{fill:#454545;}
</style>
<g id="Capa_2_1_">
	<g id="Capa_1-2">
		<g id="WordPress">
			<path class="st0" d="M50,0C22.4,0,0,22.4,0,50s22.4,50,50,50s50-22.4,50-50S77.6,0,50,0z M5,50c0-6.3,1.3-12.5,3.9-18.3
				l21.4,58.8C14.9,82.9,5,67.2,5,50z M50,95c-4.3,0-8.6-0.6-12.7-1.9l13.5-39.2l13.8,37.9c0.1,0.2,0.2,0.4,0.3,0.6
				C60.1,94.1,55.1,95,50,95z M56.2,29c2.7-0.1,5.2-0.4,5.2-0.4c1-0.1,1.8-1,1.7-2s-1-1.8-2-1.7l0,0c0,0-7.3,0.6-12,0.6
				c-4.4,0-11.8-0.6-11.8-0.6c-2.4-0.1-2.7,3.6-0.3,3.7c0,0,2.3,0.3,4.7,0.4l7,19.2l-9.8,29.4L22.5,28.9c2.7-0.1,5.1-0.4,5.1-0.4
				c1-0.1,1.8-1,1.7-2s-1-1.8-2-1.7l0,0c0,0-7.3,0.6-12,0.6c-0.9,0-1.8,0-2.9,0C26,4.6,53.9-1.2,74.7,12.4c2,1.3,3.9,2.8,5.7,4.4
				c-0.2,0-0.4,0-0.6,0c-4.3,0.1-7.7,3.7-7.5,8c0,3.7,2.1,6.8,4.4,10.5c2.4,3.7,3.6,8,3.7,12.4c0,3.8-1.5,8.3-3.4,14.5l-4.5,15
				L56.2,29z M72.6,88.9l13.7-39.7c2.2-5.1,3.3-10.6,3.4-16.1c0-1.5-0.1-3.1-0.3-4.6C101.1,49.9,93.6,76.6,72.6,88.9L72.6,88.9z"/>
		</g>
	</g>
</g>
</svg>
