<svg xmlns="http://www.w3.org/2000/svg" viewBox="0 0 279.66 167.07"><defs><style>.cls-1{fill:#007d00;}</style></defs><g id="Capa_2" data-name="Capa 2"><g id="Capa_1-2" data-name="Capa 1"><path class="cls-1" d="M80.38,79.87a44.21,44.21,0,0,1,13.69,3.7,37.68,37.68,0,0,1,19.6,20.59,43.26,43.26,0,0,1,3,16.4,49,49,0,0,1-3.45,18.61,37.66,37.66,0,0,1-10.48,14.55,50.71,50.71,0,0,1-17.76,9.49q-10.72,3.47-25.52,3.46H0V.48H59.18Q82.35.48,95.79,11.2t13.44,30.46a40.08,40.08,0,0,1-8.63,25.15,36.77,36.77,0,0,1-9.25,8.26A39.17,39.17,0,0,1,80.38,79.87Zm-21-4.19q16.52,0,27.37-8.5T97.64,41.66q0-15.78-10.11-23.43T59.18,10.59H11.59V75.68Zm-.24,80.88q23.91,0,34.89-9.25t11-26.75q0-9.86-3.21-16.52a26.58,26.58,0,0,0-9.24-10.73A40.07,40.07,0,0,0,78,87.52a96.51,96.51,0,0,0-19.11-1.73H11.59v70.77Z"/><polygon class="cls-1" points="279.66 10.59 279.66 0 162.92 0 162.92 10.59 215.53 10.59 215.53 156.48 162.92 156.48 162.92 167.07 279.66 167.07 279.66 156.48 227.12 156.48 227.12 10.59 279.66 10.59"/></g></g></svg>