<svg xmlns="http://www.w3.org/2000/svg" viewBox="0 0 137.9 136.92"><defs><style>.cls-1{fill:#fff;}</style></defs><g id="Capa_2" data-name="Capa 2"><g id="Capa_1-2" data-name="Capa 1"><path class="cls-1" d="M71.43,1l-.25,5.52,2.41.11.11-2.28.91,0-.15,3.2-5.38-.25,0-.92.95.05L70.32,1l-.95,0,0-.92,3,.14,0,.91Z"/><path class="cls-1" d="M80.7,5.86a2.62,2.62,0,0,1-.55,1.3,2.66,2.66,0,0,1-2.49,1,2.66,2.66,0,0,1-1.33-.56,2.48,2.48,0,0,1-.82-1.1,2.75,2.75,0,0,1-.15-1.4,2.85,2.85,0,0,1,.53-1.34A2.53,2.53,0,0,1,77,3a2.83,2.83,0,0,1,1.43-.15,2.63,2.63,0,0,1,1.31.56,2.73,2.73,0,0,1,.82,1.11A2.83,2.83,0,0,1,80.7,5.86ZM77.79,7.19a1.45,1.45,0,0,0,.85-.11,1.67,1.67,0,0,0,.67-.54,2,2,0,0,0,.33-.83,1.87,1.87,0,0,0-.09-.88,1.75,1.75,0,0,0-.49-.71,1.53,1.53,0,0,0-.8-.35,1.46,1.46,0,0,0-.85.11,1.77,1.77,0,0,0-1,1.37,1.91,1.91,0,0,0,.09.89,1.7,1.7,0,0,0,.5.71A1.56,1.56,0,0,0,77.79,7.19Z"/><path class="cls-1" d="M85.08,4.45l0-.21.86.19L85.6,6.09l-.85-.19.07-.31a1.38,1.38,0,0,0-1-.88,1.11,1.11,0,0,0-.68,0,.53.53,0,0,0-.35.38.5.5,0,0,0,.1.43,2.62,2.62,0,0,0,.79.44l.63.28c1,.41,1.33,1,1.14,1.79a1.37,1.37,0,0,1-.79,1,2.64,2.64,0,0,1-2.18-.18,2.18,2.18,0,0,1-.51-.38l-.07.27L81,8.54l.4-1.71.87.2,0,.18a.89.89,0,0,0,.27.67,1.38,1.38,0,0,0,.72.4,1.5,1.5,0,0,0,.79,0,.55.55,0,0,0,.39-.43.4.4,0,0,0-.13-.42A4,4,0,0,0,83.45,7L83,6.75A2.12,2.12,0,0,1,82,6a1.34,1.34,0,0,1-.13-1,1.3,1.3,0,0,1,.44-.74,1.62,1.62,0,0,1,.78-.34,2.12,2.12,0,0,1,.87,0A2.44,2.44,0,0,1,85.08,4.45Z"/><path class="cls-1" d="M96.82,5.86l2.36,1-.35.85L98,7.34l-2.08,5.11.82.34-.35.85-2.56-1.05.34-.85.81.33L97.07,7,92.27,12l-.2-.08.14-7-2.09,5.12.75.3-.35.85-2.41-1,.34-.85.83.33,2.08-5.11-.82-.34.34-.85,2.34,1-.11,5.39Z"/><path class="cls-1" d="M102.76,14.37a2.82,2.82,0,0,1-1,1,2.71,2.71,0,0,1-2.7,0,2.73,2.73,0,0,1-1-1,2.63,2.63,0,0,1-.36-1.33,2.75,2.75,0,0,1,.37-1.36,2.69,2.69,0,0,1,1-1.05,2.43,2.43,0,0,1,1.31-.37,2.75,2.75,0,0,1,1.39.38,2.63,2.63,0,0,1,1,1,2.73,2.73,0,0,1,.35,1.34A2.62,2.62,0,0,1,102.76,14.37Zm-3.19.19a1.62,1.62,0,0,0,.83.2,1.6,1.6,0,0,0,.82-.27,1.82,1.82,0,0,0,.61-.65,1.8,1.8,0,0,0,.23-.84,1.69,1.69,0,0,0-.2-.85,1.53,1.53,0,0,0-1.44-.81,1.65,1.65,0,0,0-.83.26,1.81,1.81,0,0,0-.61.65,1.69,1.69,0,0,0-.23.85A1.58,1.58,0,0,0,99,14,1.49,1.49,0,0,0,99.57,14.56Z"/><path class="cls-1" d="M107.35,14.65l.13-.18.72.49-1,1.41-.73-.5.18-.26a1.37,1.37,0,0,0-.63-1.19,1.12,1.12,0,0,0-.64-.23.53.53,0,0,0-.47.23.47.47,0,0,0-.06.43,2.22,2.22,0,0,0,.57.7L106,16c.73.73.87,1.42.41,2.09a1.38,1.38,0,0,1-1.1.63,2.31,2.31,0,0,1-1.44-.47,2.73,2.73,0,0,1-.53-.49,2.17,2.17,0,0,1-.33-.55l-.16.23-.74-.5,1-1.45.74.5-.09.15a.9.9,0,0,0,0,.72,1.43,1.43,0,0,0,.52.63,1.45,1.45,0,0,0,.74.3.58.58,0,0,0,.53-.27.39.39,0,0,0,0-.43,4,4,0,0,0-.6-.72l-.37-.39a2,2,0,0,1-.63-1.09,1.33,1.33,0,0,1,.25-1,1.29,1.29,0,0,1,.68-.53,1.63,1.63,0,0,1,.85,0,2.11,2.11,0,0,1,.8.34A2.44,2.44,0,0,1,107.35,14.65Z"/><path class="cls-1" d="M111.2,17.29l-.55.71-.74-.58-1.66,2.12A1.19,1.19,0,0,0,108,20a.38.38,0,0,0,.17.29,1.59,1.59,0,0,0,.48.26l-.56.72a2.6,2.6,0,0,1-.68-.36,1.11,1.11,0,0,1-.52-.82,1.63,1.63,0,0,1,.45-1l1.79-2.28-.52-.41.55-.72.53.42.48-.61,1.36-.11-1,1.34Z"/><path class="cls-1" d="M111.27,21.39l-.77.87.83.74-.59.68-2.36-2.09.6-.68.77.69L112,19.11l-.77-.69.6-.67L113.16,19l-.78.87a2.16,2.16,0,0,1,1.21-.21,2.57,2.57,0,0,1,1.16.67l.17.15-.68.76-.16-.14a2.58,2.58,0,0,0-1.06-.65,1,1,0,0,0-.82.13A4.45,4.45,0,0,0,111.27,21.39Z"/><path class="cls-1" d="M116.94,26.27a2.62,2.62,0,0,1-1.23.7,2.69,2.69,0,0,1-1.38,0,2.64,2.64,0,0,1-1.2-.73,2.68,2.68,0,0,1-.71-1.25,2.49,2.49,0,0,1,0-1.38,3,3,0,0,1,2-1.92,2.42,2.42,0,0,1,1.36,0,2.73,2.73,0,0,1,1.23.76,2.6,2.6,0,0,1,.69,1.24,2.69,2.69,0,0,1,0,1.38A2.64,2.64,0,0,1,116.94,26.27Zm-3.11-.72a1.58,1.58,0,0,0,1.6.41,1.93,1.93,0,0,0,.77-.45,1.86,1.86,0,0,0,.47-.75,1.79,1.79,0,0,0,0-.86,1.52,1.52,0,0,0-.41-.77,1.5,1.5,0,0,0-.75-.43,1.72,1.72,0,0,0-.87,0,1.69,1.69,0,0,0-.76.45,1.74,1.74,0,0,0-.47.75,1.72,1.72,0,0,0,0,.87A1.62,1.62,0,0,0,113.83,25.55Z"/><path class="cls-1" d="M121.27,27.84l.17-.14.55.68-1.32,1.08-.55-.68.24-.2a1.4,1.4,0,0,0-.27-1.33,1.13,1.13,0,0,0-.55-.4.56.56,0,0,0-.51.09.46.46,0,0,0-.18.4,2.26,2.26,0,0,0,.35.83l.33.61c.49.9.43,1.61-.2,2.12a1.38,1.38,0,0,1-1.23.29,2.28,2.28,0,0,1-1.25-.86,2.43,2.43,0,0,1-.37-.62,2,2,0,0,1-.16-.61l-.22.17-.57-.7,1.37-1.11.56.7-.13.11a.91.91,0,0,0-.2.7,1.32,1.32,0,0,0,.32.75,1.41,1.41,0,0,0,.62.49.56.56,0,0,0,.58-.1.4.4,0,0,0,.15-.41,3.33,3.33,0,0,0-.37-.86l-.24-.48a2.12,2.12,0,0,1-.31-1.22,1.33,1.33,0,0,1,.53-.89,1.22,1.22,0,0,1,.8-.31,1.62,1.62,0,0,1,.83.2,2.28,2.28,0,0,1,.67.56A2.43,2.43,0,0,1,121.27,27.84Z"/><path class="cls-1" d="M121.77,33.36l.85-.55,1.71,2.67-.85.54Z"/><path class="cls-1" d="M131.24,40.28l.45-.22.39.81-2,1-.39-.81.46-.22a1.78,1.78,0,0,0,.09-1.78,1.5,1.5,0,0,0-.63-.73.81.81,0,0,0-.77,0,.77.77,0,0,0-.47.56,2.61,2.61,0,0,0,.06,1l.17.88a3.34,3.34,0,0,1,0,1.4,1.68,1.68,0,0,1-.44.85,2.61,2.61,0,0,1-.75.51,2.05,2.05,0,0,1-1.7.13,2.36,2.36,0,0,1-1.26-1.25,2.66,2.66,0,0,1-.14-2l-.54.26-.41-.82,2.42-1.17.4.82-.59.29a2,2,0,0,0-.34,2.07,1.41,1.41,0,0,0,.71.73,1.18,1.18,0,0,0,1-.09c.48-.23.64-.72.5-1.48l-.16-.94a3.17,3.17,0,0,1,0-1.65,1.73,1.73,0,0,1,.93-1,2,2,0,0,1,1.61-.14A2.23,2.23,0,0,1,131,38.55,2.68,2.68,0,0,1,131.24,40.28Z"/><path class="cls-1" d="M127.36,46.82A2.3,2.3,0,0,0,128.49,48l2.6-1-.32-.85.85-.32.67,1.8-4,1.48.31.82-.84.32-.66-1.77.55-.21a2.81,2.81,0,0,1-1.22-1.35,1.28,1.28,0,0,1,0-1.15A2.33,2.33,0,0,1,127.7,45l2.31-.86-.25-.67.84-.31.61,1.62L127.86,46a1.06,1.06,0,0,0-.5.34A.57.57,0,0,0,127.36,46.82Z"/><path class="cls-1" d="M133.45,52.37l.21-.06.23.85-1.64.45-.23-.85.3-.08a1.43,1.43,0,0,0,.29-1.33,1.12,1.12,0,0,0-.35-.58.52.52,0,0,0-.5-.13.48.48,0,0,0-.33.29,2.47,2.47,0,0,0,0,.9l.05.69c.09,1-.25,1.65-1,1.86a1.34,1.34,0,0,1-1.24-.23,2.25,2.25,0,0,1-.8-1.29,2.43,2.43,0,0,1-.09-.71,2.19,2.19,0,0,1,.1-.63l-.27.07-.24-.87,1.7-.46.24.86-.17.05a.91.91,0,0,0-.47.56,1.43,1.43,0,0,0,0,.82,1.46,1.46,0,0,0,.38.7.57.57,0,0,0,.57.14.41.41,0,0,0,.3-.32,3.81,3.81,0,0,0,0-.94l0-.53a2.09,2.09,0,0,1,.21-1.24,1.42,1.42,0,0,1,.85-.61,1.23,1.23,0,0,1,.85,0,1.64,1.64,0,0,1,.68.52,2.2,2.2,0,0,1,.39.78A2.52,2.52,0,0,1,133.45,52.37Z"/><path class="cls-1" d="M133.59,61.85l-2.4.33.12.85-.89.13-.24-1.74.62-.08a2.34,2.34,0,0,1-.94-1.52,1.75,1.75,0,0,1,.6-1.59,1.53,1.53,0,0,1,1.66-.21,1.68,1.68,0,0,1,.68.62,2.17,2.17,0,0,1,.33.86,2.36,2.36,0,0,1-.25,1.44l.55-.07a1.24,1.24,0,0,0,.82-.37,1.18,1.18,0,0,0,.14-.86,1.43,1.43,0,0,0-.24-.66,1.25,1.25,0,0,0-.51-.39l.1-1a2.17,2.17,0,0,1,1,.75,2.73,2.73,0,0,1,.48,1.26,2.1,2.1,0,0,1-.25,1.56A2,2,0,0,1,133.59,61.85Zm-2.94-2a2,2,0,0,0,.81,1.29l.59-.08a2.14,2.14,0,0,0,.33-1.38A1,1,0,0,0,132,59a.8.8,0,0,0-.66-.2.85.85,0,0,0-.57.34A1,1,0,0,0,130.65,59.85Z"/><path class="cls-1" d="M131.45,64.25l3.33-.06v-.87l.9,0,0,1.87-.65,0a2.85,2.85,0,0,1,.75,1.75,1.22,1.22,0,0,1-.78,1.24,3,3,0,0,1,.84,1.85,1.36,1.36,0,0,1-.35,1,1.53,1.53,0,0,1-1.12.39l-2.81.06,0,.89-.9,0,0-1.9,3.26-.06a3.74,3.74,0,0,0,.54,0,.7.7,0,0,0,.36-.19.62.62,0,0,0,.13-.46,1.53,1.53,0,0,0-.18-.65,3.4,3.4,0,0,0-.51-.77l-2.74.06,0,.86-.9,0,0-1.88,3.37-.06a1.25,1.25,0,0,0,.71-.17.53.53,0,0,0,.2-.49,2.68,2.68,0,0,0-.69-1.45l-2.74.06,0,.9-.9,0-.05-2.83.89,0Z"/><path class="cls-1" d="M131.24,75.26l-.89-.07.2-2.59.89.07-.06.8,3.32.26.06-.8.9.07-.14,1.81-4.22-.33Zm6-.26a.57.57,0,0,1-.41-.21.62.62,0,0,1-.15-.45.53.53,0,0,1,.21-.4.61.61,0,0,1,.44-.15.65.65,0,0,1,.42.21.59.59,0,0,1,.15.44.65.65,0,0,1-.21.42A.61.61,0,0,1,137.24,75Z"/><path class="cls-1" d="M134,80.62l.73.12-.3,1.9-.89-.14.14-.92-3.8-.59A3,3,0,0,1,128,80a2.57,2.57,0,0,1-.42-2.06,3.27,3.27,0,0,1,1-2l.62.76a2.56,2.56,0,0,0-.49.63,2,2,0,0,0-.25.75,1.55,1.55,0,0,0,.28,1.25,1.81,1.81,0,0,0,1.18.62l.47.07a2.42,2.42,0,0,1-.48-.93,2.31,2.31,0,0,1-.06-1,2.29,2.29,0,0,1,.55-1.21,2.54,2.54,0,0,1,1.09-.73,2.74,2.74,0,0,1,1.34-.11,2.67,2.67,0,0,1,1.28.54,2.62,2.62,0,0,1,.85,1.05,2.45,2.45,0,0,1,.17,1.34,2.35,2.35,0,0,1-.35.9A3.06,3.06,0,0,1,134,80.62Zm-3.34-2.21a1.57,1.57,0,0,0,.1.89,1.61,1.61,0,0,0,.55.69,1.76,1.76,0,0,0,.83.35,1.8,1.8,0,0,0,1.6-.57,1.46,1.46,0,0,0,.38-.8,1.49,1.49,0,0,0-.11-.86,1.7,1.7,0,0,0-.54-.68,1.94,1.94,0,0,0-.84-.34,1.9,1.9,0,0,0-.89.06,1.52,1.52,0,0,0-1.08,1.26Z"/><path class="cls-1" d="M130.4,88a2.7,2.7,0,0,1-1.23-.7,2.64,2.64,0,0,1-.71-1.19,2.7,2.7,0,0,1,0-1.41,2.73,2.73,0,0,1,.71-1.25,2.42,2.42,0,0,1,1.19-.68,2.81,2.81,0,0,1,1.41,0,2.87,2.87,0,0,1,1.26.69,2.5,2.5,0,0,1,.69,1.17,2.71,2.71,0,0,1,0,1.44,2.6,2.6,0,0,1-.7,1.24,2.72,2.72,0,0,1-1.2.68A2.77,2.77,0,0,1,130.4,88Zm-1-3a1.48,1.48,0,0,0,0,.86,1.65,1.65,0,0,0,.46.73,1.85,1.85,0,0,0,.78.42,1.87,1.87,0,0,0,.88,0,1.75,1.75,0,0,0,.77-.41,1.52,1.52,0,0,0,.44-.74,1.48,1.48,0,0,0,0-.86,1.69,1.69,0,0,0-.46-.74,1.91,1.91,0,0,0-.78-.42,1.79,1.79,0,0,0-.89,0,1.66,1.66,0,0,0-.76.41A1.56,1.56,0,0,0,129.41,85Z"/><path class="cls-1" d="M131.28,92.56l.2.07-.29.83-1.61-.58.3-.83.3.11a1.41,1.41,0,0,0,1-.91,1.09,1.09,0,0,0,0-.68.5.5,0,0,0-.34-.39.44.44,0,0,0-.43,0,2.22,2.22,0,0,0-.53.73l-.35.59c-.52.89-1.16,1.2-1.92.92a1.36,1.36,0,0,1-.88-.9,2.25,2.25,0,0,1,.09-1.52,2.42,2.42,0,0,1,.34-.63,2.16,2.16,0,0,1,.44-.46l-.26-.09.3-.85,1.66.6-.31.84-.16-.06a.94.94,0,0,0-.7.19,1.36,1.36,0,0,0-.48.66,1.46,1.46,0,0,0-.1.79.54.54,0,0,0,.39.44.39.39,0,0,0,.42-.08,3.71,3.71,0,0,0,.55-.76l.28-.46a2.12,2.12,0,0,1,.89-.88,1.34,1.34,0,0,1,1,0,1.24,1.24,0,0,1,.68.52,1.68,1.68,0,0,1,.25.82,2.28,2.28,0,0,1-.13.86A2.55,2.55,0,0,1,131.28,92.56Z"/><path class="cls-1" d="M125.52,96.06l2.92,1.61.42-.76.79.44L128.74,99l-.57-.32a2.85,2.85,0,0,1-.22,1.9,1.23,1.23,0,0,1-1.29.69,3,3,0,0,1-.2,2,1.34,1.34,0,0,1-.8.69,1.48,1.48,0,0,1-1.16-.22L122,102.38l-.44.79-.78-.43.91-1.67,2.85,1.57a3.61,3.61,0,0,0,.5.24.58.58,0,0,0,.75-.32,1.54,1.54,0,0,0,.16-.64,3.06,3.06,0,0,0-.06-.93l-2.39-1.32-.42.76-.79-.43.91-1.65,3,1.63a1.21,1.21,0,0,0,.69.21.55.55,0,0,0,.42-.32,2.81,2.81,0,0,0,.13-1.6L125,97l-.44.79-.79-.44,1.37-2.48.79.44Z"/><path class="cls-1" d="M120.78,108.31l-2-1.41-.5.7-.73-.52,1-1.43.51.37a2.27,2.27,0,0,1,.36-1.74,1.82,1.82,0,0,1,.69-.58,1.65,1.65,0,0,1,.84-.17,1.52,1.52,0,0,1,.81.28,1.47,1.47,0,0,1,.54.72,1.65,1.65,0,0,1,.07.91,2.22,2.22,0,0,1-.35.85,2.55,2.55,0,0,1-1.18.88l.45.32a1.27,1.27,0,0,0,.85.3,1.14,1.14,0,0,0,.69-.53,1.4,1.4,0,0,0,.28-.65,1.17,1.17,0,0,0-.1-.63l.76-.65a2.14,2.14,0,0,1,.22,1.25,2.64,2.64,0,0,1-.52,1.25,2,2,0,0,1-1.26,1A2,2,0,0,1,120.78,108.31Zm-.75-3.47a2,2,0,0,0-.31,1.49l.49.35a2.17,2.17,0,0,0,1.18-.77,1,1,0,0,0,.2-.71.83.83,0,0,0-1-.75A.86.86,0,0,0,120,104.84Zm4.25,2.84.93,1.59-.85,1.19-.48-2.22Z"/><path class="cls-1" d="M119,112.94l.17.14-.57.67-1.3-1.1.57-.67.24.2a1.4,1.4,0,0,0,1.26-.5,1.17,1.17,0,0,0,.29-.62.53.53,0,0,0-.18-.48.45.45,0,0,0-.42-.11,2.21,2.21,0,0,0-.75.5l-.55.43c-.79.65-1.5.71-2.11.19a1.38,1.38,0,0,1-.51-1.16,2.28,2.28,0,0,1,.62-1.39,2.23,2.23,0,0,1,.54-.47,2.08,2.08,0,0,1,.57-.27l-.21-.18.58-.69,1.34,1.14-.58.69-.13-.12a.9.9,0,0,0-.72-.07,1.41,1.41,0,0,0-.69.45,1.48,1.48,0,0,0-.37.71.59.59,0,0,0,.21.55.42.42,0,0,0,.43.07,3.86,3.86,0,0,0,.78-.52L118,110a2.09,2.09,0,0,1,1.15-.51,1.34,1.34,0,0,1,1,.35,1.25,1.25,0,0,1,.44.73,1.64,1.64,0,0,1,0,.85,2.09,2.09,0,0,1-.42.76A2.4,2.4,0,0,1,119,112.94Z"/><path class="cls-1" d="M112.56,119.17l.25.28-.66.6-1.31-1.43.66-.61a1.18,1.18,0,0,0,.91.33,1.45,1.45,0,0,0,.87-.39,1.31,1.31,0,0,0,.42-.7,1.56,1.56,0,0,0,0-.83,2,2,0,0,0-.45-.78A2,2,0,0,0,112,115a1.42,1.42,0,0,0-1.18.38,1.56,1.56,0,0,0-.45,1.78l-.89.27a2.47,2.47,0,0,1,.75-2.76,2.65,2.65,0,0,1,1.25-.65,2.49,2.49,0,0,1,1.35.11,3,3,0,0,1,1.18.82,2.79,2.79,0,0,1,.68,1.23,2.41,2.41,0,0,1-.74,2.44A2.17,2.17,0,0,1,112.56,119.17Z"/><path class="cls-1" d="M108.67,122.92a1.32,1.32,0,0,1-2.08-.37l-1.69-2.26-.7.53-.54-.72,1.5-1.13,2,2.68a1.44,1.44,0,0,0,.6.53.57.57,0,0,0,.52-.12,2.75,2.75,0,0,0,.78-1.4l-1.69-2.24-.71.53-.54-.72,2.25-1.69.54.72-.73.55,3.35,4.45.73-.55.54.71-1.55,1.16-1.7-2.26A2.71,2.71,0,0,1,108.67,122.92Z"/><path class="cls-1" d="M101.68,122.38l-.48-.76,2.18-1.4.48.76-.67.43,1.8,2.8.68-.43.48.76-1.52,1L102.34,122Zm3.84,4.62a.6.6,0,0,1,.64-.92.62.62,0,0,1,.38.27.64.64,0,0,1,.08.45.56.56,0,0,1-.26.39.58.58,0,0,1-.46.08A.55.55,0,0,1,105.52,127Z"/><path class="cls-1" d="M100.49,127.69l.1.19-.77.43L99,126.82l.76-.43.16.28a1.38,1.38,0,0,0,1.35,0,1.17,1.17,0,0,0,.49-.47.53.53,0,0,0,0-.52.45.45,0,0,0-.36-.25,2.3,2.3,0,0,0-.88.21l-.66.21c-1,.33-1.65.14-2-.56a1.37,1.37,0,0,1-.07-1.26,2.31,2.31,0,0,1,1.06-1.09,2.71,2.71,0,0,1,.67-.25,2.5,2.5,0,0,1,.64-.06l-.13-.24.78-.44.86,1.54-.79.44-.08-.16a.93.93,0,0,0-.65-.32,1.37,1.37,0,0,0-.8.19,1.52,1.52,0,0,0-.6.53.57.57,0,0,0,0,.59.39.39,0,0,0,.37.21,3.6,3.6,0,0,0,.92-.21l.51-.16a2,2,0,0,1,1.25-.08,1.33,1.33,0,0,1,.79.67,1.3,1.3,0,0,1,.17.85,1.64,1.64,0,0,1-.35.77,2.11,2.11,0,0,1-.66.57A2.51,2.51,0,0,1,100.49,127.69Z"/><path class="cls-1" d="M96.25,125.45l1.28,3.08.8-.34.35.84-1.73.72-.25-.6a2.87,2.87,0,0,1-1.36,1.34,1.22,1.22,0,0,1-1.44-.27,3,3,0,0,1-1.41,1.45,1.33,1.33,0,0,1-1,0,1.51,1.51,0,0,1-.77-.89l-1.08-2.6-.83.34-.34-.83,1.75-.73,1.25,3a2.48,2.48,0,0,0,.24.49.59.59,0,0,0,.3.26.64.64,0,0,0,.48,0,1.51,1.51,0,0,0,.53-.4,3.27,3.27,0,0,0,.53-.76l-1-2.53-.8.33-.34-.83,1.73-.72,1.3,3.12a1.23,1.23,0,0,0,.41.6.55.55,0,0,0,.53,0,2.71,2.71,0,0,0,1.1-1.17l-1-2.53-.84.34-.34-.83,2.61-1.08.35.83Z"/><path class="cls-1" d="M83.57,131.63a2.7,2.7,0,0,1,0-1.41,2.63,2.63,0,0,1,.67-1.21,2.68,2.68,0,0,1,1.22-.71,2.62,2.62,0,0,1,1.44,0,2.58,2.58,0,0,1,1.19.68,2.89,2.89,0,0,1,.7,1.23,2.83,2.83,0,0,1,0,1.44,2.5,2.5,0,0,1-.67,1.18,2.72,2.72,0,0,1-1.25.71,2.54,2.54,0,0,1-1.42,0,2.69,2.69,0,0,1-1.2-.69A2.78,2.78,0,0,1,83.57,131.63Zm2.13-2.38a1.53,1.53,0,0,0-.73.44,1.68,1.68,0,0,0-.4.77,1.88,1.88,0,0,0,0,.88,1.83,1.83,0,0,0,.43.77,1.69,1.69,0,0,0,.74.46,1.51,1.51,0,0,0,.87,0,1.55,1.55,0,0,0,.73-.45,1.73,1.73,0,0,0,.4-.77,1.81,1.81,0,0,0-.46-1.66,1.63,1.63,0,0,0-.74-.45A1.61,1.61,0,0,0,85.7,129.25Z"/><path class="cls-1" d="M80.12,134.67l0,.22-.87.15-.3-1.67.86-.16.06.31a1.38,1.38,0,0,0,1.29.4,1.16,1.16,0,0,0,.61-.29.53.53,0,0,0,.17-.49.46.46,0,0,0-.26-.35,2.31,2.31,0,0,0-.9-.09h-.69c-1,0-1.61-.4-1.76-1.19a1.39,1.39,0,0,1,.33-1.22,2.29,2.29,0,0,1,1.36-.68,2.18,2.18,0,0,1,.72,0,2.45,2.45,0,0,1,.62.15l-.05-.27.88-.16.32,1.73-.88.16,0-.17a.9.9,0,0,0-.51-.52,1.68,1.68,0,0,0-1.55.24.56.56,0,0,0-.18.55.38.38,0,0,0,.29.33,3.12,3.12,0,0,0,.93.09l.53,0a2,2,0,0,1,1.22.32,1.36,1.36,0,0,1,.53.89,1.28,1.28,0,0,1-.11.85,1.67,1.67,0,0,1-.58.63,2.18,2.18,0,0,1-.81.32A2.42,2.42,0,0,1,80.12,134.67Z"/><path class="cls-1" d="M72.37,133.2a2.73,2.73,0,0,1,.23-1.39,2.68,2.68,0,0,1,2.2-1.56,2.83,2.83,0,0,1,1.42.23,2.59,2.59,0,0,1,1,.89,3,3,0,0,1,.26,2.75,2.47,2.47,0,0,1-.87,1,2.77,2.77,0,0,1-1.36.48,2.56,2.56,0,0,1-1.4-.24,2.67,2.67,0,0,1-1.05-.89A2.77,2.77,0,0,1,72.37,133.2Zm2.52-2a1.55,1.55,0,0,0-.8.31,1.66,1.66,0,0,0-.52.68,1.76,1.76,0,0,0-.13.88,1.72,1.72,0,0,0,.29.83,1.56,1.56,0,0,0,.64.58,1.47,1.47,0,0,0,.85.17,1.53,1.53,0,0,0,.8-.32,1.65,1.65,0,0,0,.53-.69,1.84,1.84,0,0,0,.14-.87,1.81,1.81,0,0,0-.3-.84,1.62,1.62,0,0,0-.65-.57A1.48,1.48,0,0,0,74.89,131.23Z"/><path class="cls-1" d="M68.5,135.6v.22h-.87l0-1.7h.88v.31a1.4,1.4,0,0,0,1.21.61,1.07,1.07,0,0,0,.65-.19.53.53,0,0,0,.25-.46.44.44,0,0,0-.2-.38,2.46,2.46,0,0,0-.87-.24l-.68-.12c-1-.17-1.53-.66-1.54-1.46a1.38,1.38,0,0,1,.53-1.15,2.3,2.3,0,0,1,1.45-.45,2.43,2.43,0,0,1,.71.09,2.49,2.49,0,0,1,.59.25v-.28h.9l0,1.76h-.9v-.17a.87.87,0,0,0-.42-.59,1.32,1.32,0,0,0-.79-.21,1.45,1.45,0,0,0-.78.18.56.56,0,0,0-.27.52.39.39,0,0,0,.23.37,3.54,3.54,0,0,0,.91.24l.52.11a2,2,0,0,1,1.15.52,1.32,1.32,0,0,1,.37,1,1.27,1.27,0,0,1-.25.82,1.57,1.57,0,0,1-.67.52,2.33,2.33,0,0,1-.85.19A2.41,2.41,0,0,1,68.5,135.6Z"/><path class="cls-1" d="M63.81,132.53l-.1,1-3.15-.33.1-1Z"/><path class="cls-1" d="M54.49,135.57l1.23-5.39-2.36-.54-.5,2.23-.89-.21.71-3.11,5.25,1.2-.2.89-.92-.21-1.23,5.38.92.22-.2.89-2.94-.67.21-.89Z"/><path class="cls-1" d="M47,130.19l.76-2.3-.82-.27.28-.85,1.66.54-.2.6a2.29,2.29,0,0,1,1.78-.17,1.73,1.73,0,0,1,.75.48,1.75,1.75,0,0,1,.42.75,1.53,1.53,0,0,1,0,.85,1.42,1.42,0,0,1-.52.74,1.68,1.68,0,0,1-.85.34,2.1,2.1,0,0,1-.91-.09,2.42,2.42,0,0,1-1.2-.85l-.17.52a1.22,1.22,0,0,0,0,.9,1.17,1.17,0,0,0,.72.5,1.43,1.43,0,0,0,.69.08,1.27,1.27,0,0,0,.58-.29l.84.53a2.19,2.19,0,0,1-1.12.59,2.78,2.78,0,0,1-1.35-.13,2.09,2.09,0,0,1-1.29-.91A2,2,0,0,1,47,130.19Zm3.09-1.76a2,2,0,0,0-1.52.16l-.19.57a2.17,2.17,0,0,0,1.1.9,1,1,0,0,0,.73,0,.84.84,0,0,0,.42-1.16A.92.92,0,0,0,50.07,128.43Z"/><path class="cls-1" d="M43.27,126.16l-1.54,3,.77.4-.42.8-1.66-.86.3-.58a2.81,2.81,0,0,1-1.9-.18,1.22,1.22,0,0,1-.72-1.28,3,3,0,0,1-2-.15,1.33,1.33,0,0,1-.7-.78,1.52,1.52,0,0,1,.19-1.17l1.3-2.49-.79-.42.41-.79,1.68.88-1.5,2.88a3.67,3.67,0,0,0-.22.5.61.61,0,0,0,0,.4.62.62,0,0,0,.34.34,1.45,1.45,0,0,0,.65.15,3.4,3.4,0,0,0,.92-.08l1.27-2.43-.77-.4.42-.79,1.66.87-1.56,3a1.34,1.34,0,0,0-.2.7.6.6,0,0,0,.34.42,2.73,2.73,0,0,0,1.6.08l1.27-2.43-.8-.41.41-.8,2.51,1.31-.41.8Z"/><path class="cls-1" d="M30.5,120.17l3.55,2.44a1.84,1.84,0,0,0,.19-1.28,1.74,1.74,0,0,0-.72-1,2.19,2.19,0,0,0-.9-.36,1.78,1.78,0,0,0-1,.12l-.51-.83a2.67,2.67,0,0,1,1.47-.19,3.3,3.3,0,0,1,1.41.56,3.21,3.21,0,0,1,1,1.13,2.47,2.47,0,0,1,.27,1.36,2.66,2.66,0,0,1-.5,1.35,2.72,2.72,0,0,1-1.08,1,2.63,2.63,0,0,1-1.35.25,2.84,2.84,0,0,1-1.31-.49,2.57,2.57,0,0,1-1-1.1,2.46,2.46,0,0,1-.2-1.38A3.68,3.68,0,0,1,30.5,120.17Zm1,3.29a1.42,1.42,0,0,0,1,.25,1.7,1.7,0,0,0,1-.52L31,121.37a1.76,1.76,0,0,0-.08,1.17A1.56,1.56,0,0,0,31.54,123.46Z"/><path class="cls-1" d="M25.73,122.13a.58.58,0,0,1,.4-.22.6.6,0,0,1,.45.13.55.55,0,0,1,.22.41.62.62,0,0,1-.54.67.55.55,0,0,1-.44-.13.61.61,0,0,1-.23-.41A.59.59,0,0,1,25.73,122.13Zm7.16-5.93a3.63,3.63,0,0,1,.44.42l-.57.71a4.38,4.38,0,0,0-.38-.35,1.15,1.15,0,0,0-.53-.27.64.64,0,0,0-.45.16,4.15,4.15,0,0,0-.62.66l-2.58,3.22.63.5-.56.7-1.42-1.13,2.93-3.66A8,8,0,0,1,30.84,116a1.35,1.35,0,0,1,.9-.34A2,2,0,0,1,32.89,116.2Z"/><path class="cls-1" d="M23.47,114.37a2.67,2.67,0,0,1,1.19-.76,2.6,2.6,0,0,1,1.38-.07,2.81,2.81,0,0,1,1.25.66,2.75,2.75,0,0,1,.78,1.21,2.59,2.59,0,0,1,0,1.38,2.77,2.77,0,0,1-.68,1.24,2.83,2.83,0,0,1-1.2.79,2.61,2.61,0,0,1-1.36.06,2.74,2.74,0,0,1-1.26-.7,2.65,2.65,0,0,1-.76-1.2,2.81,2.81,0,0,1,0-1.38A2.74,2.74,0,0,1,23.47,114.37Zm3.15.55a1.49,1.49,0,0,0-.76-.38,1.58,1.58,0,0,0-.86.06,1.87,1.87,0,0,0-1.17,1.26,1.83,1.83,0,0,0,0,.87,1.53,1.53,0,0,0,.45.74,1.46,1.46,0,0,0,.77.39,1.68,1.68,0,0,0,.86-.07,1.76,1.76,0,0,0,.74-.48,1.88,1.88,0,0,0,.43-.78,1.61,1.61,0,0,0,0-.87A1.58,1.58,0,0,0,26.62,114.92Z"/><path class="cls-1" d="M22,112l.86-.79-.75-.82.66-.61,2.12,2.32-.66.61-.69-.76-2.46,2.25.69.76-.66.61-1.24-1.35.86-.79a2,2,0,0,1-1.22.09,2.79,2.79,0,0,1-1.09-.78l-.15-.17.75-.69.15.16a2.62,2.62,0,0,0,1,.75,1,1,0,0,0,.84,0A4.5,4.5,0,0,0,22,112Z"/><path class="cls-1" d="M13.65,109.39a.55.55,0,0,1,.45-.11.59.59,0,0,1,.51.68.62.62,0,0,1-.24.4.6.6,0,0,1-.45.12.6.6,0,0,1-.4-.24.57.57,0,0,1-.11-.45A.55.55,0,0,1,13.65,109.39ZM18,105.25l.72-.53,1.55,2.08-.72.53-.48-.64-2.67,2,.48.64-.73.54-1.08-1.46,3.4-2.52Z"/><path class="cls-1" d="M12.89,102.1,15,100.73l-.46-.73.76-.48,1,1.58-2.86,1.82a1.32,1.32,0,0,0-.51.48.52.52,0,0,0,.07.5,2.52,2.52,0,0,0,1.37.92l2.31-1.46-.48-.74.76-.49,1.49,2.35-.76.48-.48-.76L14.44,106l.48.76-.76.48-1-1.6.53-.33a3.09,3.09,0,0,1-1.54-1.13,1.23,1.23,0,0,1-.18-1.09A2.14,2.14,0,0,1,12.89,102.1Z"/><path class="cls-1" d="M8,99.11l.54.73c-.28.18-.37.37-.26.57a.32.32,0,0,0,.3.2,1.41,1.41,0,0,0,.58-.21l.68-.37-.41-.77.8-.43.41.78L13.59,98l-.46-.85.79-.43,1.29,2.41-.79.42-.36-.66-2.93,1.57.35.66-.8.43-.35-.67-.7.38a1.78,1.78,0,0,1-1.17.23,1.19,1.19,0,0,1-.87-.69,1.28,1.28,0,0,1-.16-.93A1.44,1.44,0,0,1,8,99.11Z"/><path class="cls-1" d="M9.19,92.55a2.69,2.69,0,0,1,2.69.26,2.65,2.65,0,0,1,.88,1.1A2.74,2.74,0,0,1,13,95.33a2.67,2.67,0,0,1-.51,1.28,2.8,2.8,0,0,1-1.11.87,2.88,2.88,0,0,1-1.42.25,2.46,2.46,0,0,1-1.27-.49,2.77,2.77,0,0,1-.88-1.13,2.55,2.55,0,0,1-.22-1.4,2.7,2.7,0,0,1,.51-1.29A2.74,2.74,0,0,1,9.19,92.55Zm2.67,1.76a1.58,1.58,0,0,0-.54-.66,1.71,1.71,0,0,0-.82-.28,1.88,1.88,0,0,0-1.57.7,1.65,1.65,0,0,0-.34.79,1.54,1.54,0,0,0,.66,1.52,1.62,1.62,0,0,0,.83.28,1.75,1.75,0,0,0,.87-.15,1.77,1.77,0,0,0,.7-.54,1.72,1.72,0,0,0,.34-.8A1.49,1.49,0,0,0,11.86,94.31Z"/><path class="cls-1" d="M8.78,89.83l1.1-.38-.36-1.06.85-.29,1,3-.85.29-.33-1L7.06,91.48l.34,1-.86.29L5.94,91,7,90.64a2,2,0,0,1-1.15-.41,2.55,2.55,0,0,1-.68-1.14l-.08-.22,1-.33.07.2a2.77,2.77,0,0,0,.6,1.09,1.07,1.07,0,0,0,.78.29A4.78,4.78,0,0,0,8.78,89.83Z"/><path class="cls-1" d="M8.78,86.3,5.53,87l.19.85-.88.2-.41-1.83.63-.14A2.94,2.94,0,0,1,4,84.54a1.22,1.22,0,0,1,.52-1.37A3,3,0,0,1,3.3,81.53a1.31,1.31,0,0,1,.14-1,1.48,1.48,0,0,1,1-.61l2.75-.62L7,78.39l.88-.2L8.29,80l-3.17.71a4.38,4.38,0,0,0-.53.16.62.62,0,0,0-.3.25.63.63,0,0,0,0,.48,1.72,1.72,0,0,0,.31.6,3.7,3.7,0,0,0,.66.65l2.67-.6-.19-.85.87-.2L9,83.08l-3.3.74a1.27,1.27,0,0,0-.66.3.54.54,0,0,0-.1.52,2.68,2.68,0,0,0,1,1.28l2.67-.6-.2-.88.88-.2L9.86,87,9,87.2Z"/><path class="cls-1" d="M4.21,74l2.41-.25-.09-.85.9-.1.18,1.74L7,74.6a2.24,2.24,0,0,1,.88,1.55,1.65,1.65,0,0,1-.13.88,1.62,1.62,0,0,1-.52.69,1.46,1.46,0,0,1-.79.32,1.55,1.55,0,0,1-.88-.17,1.67,1.67,0,0,1-.65-.64,2.06,2.06,0,0,1-.3-.87,2.52,2.52,0,0,1,.29-1.44L4.33,75a1.16,1.16,0,0,0-.82.34,1.09,1.09,0,0,0-.18.85,1.51,1.51,0,0,0,.22.67,1.27,1.27,0,0,0,.5.41l-.14,1a2.17,2.17,0,0,1-1-.79,2.71,2.71,0,0,1-.44-1.28,2.08,2.08,0,0,1,.31-1.55A2,2,0,0,1,4.21,74Zm2.87,2.1a2,2,0,0,0-.76-1.32l-.6.06a2.09,2.09,0,0,0-.37,1.37,1,1,0,0,0,.32.66.79.79,0,0,0,.66.22.78.78,0,0,0,.57-.31A.93.93,0,0,0,7.08,76.09Z"/><path class="cls-1" d="M2.59,68.5H2.22v-.9l1.94,0,0,.9a1.12,1.12,0,0,0-.85.46,1.37,1.37,0,0,0-.28.91,1.33,1.33,0,0,0,.24.78,1.54,1.54,0,0,0,.65.53,2.12,2.12,0,0,0,.87.18,2,2,0,0,0,1.31-.45,1.41,1.41,0,0,0,.49-1.15,1.56,1.56,0,0,0-1-1.52L6,67.38a2.46,2.46,0,0,1,1.57,2.39,2.61,2.61,0,0,1-.34,1.37,2.53,2.53,0,0,1-1,.94,2.92,2.92,0,0,1-1.39.34,2.84,2.84,0,0,1-1.37-.3A2.45,2.45,0,0,1,2.11,70,2.17,2.17,0,0,1,2.59,68.5Z"/><path class="cls-1" d="M.64,64.75a.53.53,0,0,1,.42.2.56.56,0,0,1,.16.44.6.6,0,0,1-.2.41A.61.61,0,0,1,.58,66a.55.55,0,0,1-.42-.19A.56.56,0,0,1,0,65.32a.6.6,0,0,1,.2-.42A.58.58,0,0,1,.64,64.75Zm6-.41.9,0L7.39,67l-.89,0,0-.8L3.21,66l0,.8-.9,0,.1-1.8,4.22.22Z"/><path class="cls-1" d="M2.05,61,.48,60l.18-1.45L2.13,60.3Zm3.61-2.73A2.61,2.61,0,0,1,7,58.77a2.7,2.7,0,0,1,.86,1.09,2.83,2.83,0,0,1-.35,2.73,2.53,2.53,0,0,1-1.09.83A2.76,2.76,0,0,1,5,63.6a2.88,2.88,0,0,1-1.35-.52A2.57,2.57,0,0,1,2.81,62a2.74,2.74,0,0,1-.17-1.43,2.66,2.66,0,0,1,.53-1.32,2.76,2.76,0,0,1,1.11-.83A2.69,2.69,0,0,1,5.66,58.25ZM7,61.13a1.56,1.56,0,0,0-.13-.85,1.74,1.74,0,0,0-.55-.66,1.86,1.86,0,0,0-.83-.31,1.74,1.74,0,0,0-.88.1,1.59,1.59,0,0,0-.7.5,1.53,1.53,0,0,0-.35.8,1.64,1.64,0,0,0,.13.85,1.71,1.71,0,0,0,.56.66,1.66,1.66,0,0,0,.83.32,1.76,1.76,0,0,0,.88-.1,1.63,1.63,0,0,0,.7-.51A1.59,1.59,0,0,0,7,61.13Z"/><path class="cls-1" d="M6,52.44,8.51,53l.19-.84.88.2-.42,1.82-3.3-.75a1.33,1.33,0,0,0-.71,0,.5.5,0,0,0-.3.4,2.52,2.52,0,0,0,.31,1.62l2.66.61.2-.86.87.2L8.27,58.1l-.87-.2L7.6,57l-3.25-.74-.2.88L3.27,57l.42-1.85.61.14A3.1,3.1,0,0,1,4,53.36a1.19,1.19,0,0,1,.64-.89A2.1,2.1,0,0,1,6,52.44Z"/><path class="cls-1" d="M11.9,43.31l.84.33-.7,1.8-.7-.28a2.53,2.53,0,0,1-.69,3.12,2.35,2.35,0,0,1-1.2.48,2.88,2.88,0,0,1-1.35-.19,2.83,2.83,0,0,1-1.16-.81,2.72,2.72,0,0,1-.59-1.22,2.5,2.5,0,0,1,.12-1.33A2.32,2.32,0,0,1,7,44.4a3,3,0,0,1,.9-.57L6,43.09,5.65,44l-.83-.32.73-1.86,6,2.35Zm-1.21,3.37a1.56,1.56,0,0,0,.07-.88,1.75,1.75,0,0,0-.4-.79,2,2,0,0,0-.75-.52,1.76,1.76,0,0,0-.9-.12,1.71,1.71,0,0,0-.8.33,1.6,1.6,0,0,0-.52.72,1.42,1.42,0,0,0-.07.86,1.73,1.73,0,0,0,.4.77,1.82,1.82,0,0,0,.74.51,1.94,1.94,0,0,0,.91.13,1.6,1.6,0,0,0,1.32-1Z"/><path class="cls-1" d="M13.32,37.48l-2,3.83a1.88,1.88,0,0,0,1.3,0,1.73,1.73,0,0,0,.92-.85,2.21,2.21,0,0,0,.24-.93,1.78,1.78,0,0,0-.24-.94l.76-.61a2.69,2.69,0,0,1,.38,1.43,3.42,3.42,0,0,1-.38,1.47,3,3,0,0,1-1,1.15A2.44,2.44,0,0,1,12,42.5a2.74,2.74,0,0,1-1.41-.31,2.91,2.91,0,0,1-1.07-.95,2.57,2.57,0,0,1-.42-1.31,2.67,2.67,0,0,1,.31-1.37,2.63,2.63,0,0,1,1-1.09,2.59,2.59,0,0,1,1.35-.38A3.67,3.67,0,0,1,13.32,37.48Zm-3.13,1.45A1.47,1.47,0,0,0,10.08,40a1.69,1.69,0,0,0,.65,1l1.46-2.86a1.79,1.79,0,0,0-1.17.07A1.6,1.6,0,0,0,10.19,38.93Z"/><path class="cls-1" d="M13.2,32.77,13,32.65l.46-.74,1.45.9-.47.75-.27-.17a1.4,1.4,0,0,0-1.17.68,1.14,1.14,0,0,0-.2.65.54.54,0,0,0,.25.46.47.47,0,0,0,.43,0,2.35,2.35,0,0,0,.67-.6l.48-.5c.69-.76,1.38-.92,2.07-.49a1.38,1.38,0,0,1,.67,1.07A2.3,2.3,0,0,1,17,36.16a2.45,2.45,0,0,1-.47.55,2.54,2.54,0,0,1-.53.35l.24.15-.48.76L14.24,37l.48-.76.15.09a.9.9,0,0,0,.72,0,1.38,1.38,0,0,0,.61-.54,1.43,1.43,0,0,0,.27-.75.55.55,0,0,0-.28-.52.41.41,0,0,0-.44,0,3.89,3.89,0,0,0-.7.63l-.37.38a2.18,2.18,0,0,1-1.06.68,1.43,1.43,0,0,1-1.57-.88,1.59,1.59,0,0,1-.06-.84,2.15,2.15,0,0,1,.31-.82A2.46,2.46,0,0,1,13.2,32.77Z"/><path class="cls-1" d="M13.81,28.47a.55.55,0,0,1,.24.4.58.58,0,0,1-.1.46.57.57,0,0,1-.4.23.61.61,0,0,1-.45-.1.62.62,0,0,1-.24-.4.56.56,0,0,1,.1-.45.59.59,0,0,1,.4-.25A.61.61,0,0,1,13.81,28.47Zm5.26,2.91.72.53L18.28,34l-.73-.53.47-.65-2.7-1.95-.47.65L14.12,31l1.06-1.47L18.61,32Z"/><path class="cls-1" d="M20.55,25.54l1.95,1.65.56-.66.68.58-1.2,1.43L20,26.36a1.24,1.24,0,0,0-.62-.34.51.51,0,0,0-.46.21,2.52,2.52,0,0,0-.46,1.58l2.08,1.76.57-.67.69.58L20,31.6,19.27,31l.58-.7L17.3,28.19l-.58.69L16,28.3l1.22-1.45.48.4a3.06,3.06,0,0,1,.61-1.8,1.25,1.25,0,0,1,1-.51A2.25,2.25,0,0,1,20.55,25.54Z"/><path class="cls-1" d="M21.92,20l-.53.74c-.26-.21-.47-.23-.63-.07a.32.32,0,0,0-.1.34,1.74,1.74,0,0,0,.38.49l.56.54.61-.63.65.63-.62.63L24.62,25l.68-.69.64.63L24,26.88l-.64-.63.53-.54-2.38-2.32-.53.53-.64-.63.52-.54-.57-.55a1.78,1.78,0,0,1-.57-1.05,1.2,1.2,0,0,1,.39-1,1.34,1.34,0,0,1,.84-.44A1.47,1.47,0,0,1,21.92,20Z"/><path class="cls-1" d="M28.53,19.15a2.6,2.6,0,0,1,.63,1.26A2.63,2.63,0,0,1,28.31,23a2.73,2.73,0,0,1-1.29.65,2.55,2.55,0,0,1-1.37-.09,2.86,2.86,0,0,1-1.16-.8,2.8,2.8,0,0,1-.67-1.27,2.51,2.51,0,0,1,.08-1.36,2.78,2.78,0,0,1,.82-1.19A2.63,2.63,0,0,1,26,18.27a2.59,2.59,0,0,1,1.38.1A2.66,2.66,0,0,1,28.53,19.15Zm-.87,3.08a1.6,1.6,0,0,0,.46-.73,1.67,1.67,0,0,0,0-.86,1.84,1.84,0,0,0-.41-.78,1.8,1.8,0,0,0-.73-.5,1.58,1.58,0,0,0-.86-.09,1.52,1.52,0,0,0-.79.37,1.62,1.62,0,0,0-.46.72,1.71,1.71,0,0,0,0,.87,1.82,1.82,0,0,0,.41.79,1.84,1.84,0,0,0,.73.5,1.72,1.72,0,0,0,.87.08A1.66,1.66,0,0,0,27.66,22.23Z"/><path class="cls-1" d="M31,17.93l.69.93.9-.67.54.72L30.6,20.79l-.54-.72.83-.61-2-2.67-.83.61-.53-.72L29,15.58l.7.94a2,2,0,0,1,0-1.23,2.54,2.54,0,0,1,.88-1l.19-.13.61.82-.18.13a2.56,2.56,0,0,0-.85.9,1,1,0,0,0,0,.83A4.71,4.71,0,0,0,31,17.93Z"/><path class="cls-1" d="M34.36,16.86,32.68,14l-.75.44-.46-.78,1.62-.94.33.56a2.81,2.81,0,0,1,1.16-1.52,1.22,1.22,0,0,1,1.46.08,3.07,3.07,0,0,1,1.2-1.64,1.32,1.32,0,0,1,1-.18,1.59,1.59,0,0,1,.89.78l1.42,2.43.77-.46.46.78-1.64,1-1.65-2.81a3.48,3.48,0,0,0-.3-.45.65.65,0,0,0-.34-.22.61.61,0,0,0-.46.11,1.62,1.62,0,0,0-.48.47,3.3,3.3,0,0,0-.42.82l1.38,2.37.75-.44.46.77-1.63.95-1.7-2.91a1.32,1.32,0,0,0-.49-.54.57.57,0,0,0-.53.06A2.82,2.82,0,0,0,33.84,14l1.39,2.36.78-.46.45.78L34,18.1l-.46-.78Z"/><path class="cls-1" d="M44.69,8.77l1,2.22.79-.35.36.83-1.6.7L45,11.59a2.26,2.26,0,0,1-1.2,1.31,1.71,1.71,0,0,1-.88.15,1.84,1.84,0,0,1-.82-.29,1.47,1.47,0,0,1-.54-.66,1.45,1.45,0,0,1-.11-.89,1.82,1.82,0,0,1,.41-.82,2.24,2.24,0,0,1,.74-.54A2.42,2.42,0,0,1,44,9.69l-.22-.51a1.19,1.19,0,0,0-.58-.68,1.16,1.16,0,0,0-.87.09,1.42,1.42,0,0,0-.57.42,1.24,1.24,0,0,0-.23.59l-1,.17A2.13,2.13,0,0,1,41,8.58a2.7,2.7,0,0,1,1.09-.8,2.06,2.06,0,0,1,1.57-.18A2,2,0,0,1,44.69,8.77Zm-1.13,3.36a1.94,1.94,0,0,0,1-1.12l-.24-.55a2.12,2.12,0,0,0-1.42.06,1,1,0,0,0-.53.5.82.82,0,0,0,0,.7.79.79,0,0,0,.48.45A.88.88,0,0,0,43.56,12.13Z"/><path class="cls-1" d="M52.88,8.52l.28.86L51.32,10l-.23-.71a2.51,2.51,0,0,1-2.85,1.43,2.32,2.32,0,0,1-1.13-.63,2.9,2.9,0,0,1-.71-1.17,2.8,2.8,0,0,1-.1-1.4,2.5,2.5,0,0,1,.57-1.23A2.42,2.42,0,0,1,48,5.51a2.39,2.39,0,0,1,1-.1,3,3,0,0,1,1,.34l-.63-1.94-.94.31-.27-.85L50,2.66l2,6.15ZM49.5,9.71a1.5,1.5,0,0,0,.73-.5,1.81,1.81,0,0,0,.36-.81,2,2,0,0,0-.07-.91A1.8,1.8,0,0,0,50,6.72a1.59,1.59,0,0,0-.75-.41,1.69,1.69,0,0,0-.89,0,1.45,1.45,0,0,0-.71.49,1.66,1.66,0,0,0-.35.8,1.94,1.94,0,0,0,.55,1.68,1.65,1.65,0,0,0,.75.42A1.58,1.58,0,0,0,49.5,9.71Z"/><path class="cls-1" d="M57.06,5.16l.51,2.37.84-.18.19.88-1.71.36L56.76,8a2.26,2.26,0,0,1-1.45,1,1.68,1.68,0,0,1-.89,0,1.74,1.74,0,0,1-.74-.44,1.52,1.52,0,0,1-.4-.75,1.46,1.46,0,0,1,.07-.9,1.79,1.79,0,0,1,.57-.72,2.33,2.33,0,0,1,.83-.39,2.45,2.45,0,0,1,1.46.14l-.12-.54a1.22,1.22,0,0,0-.42-.79,1.14,1.14,0,0,0-.88-.07,1.35,1.35,0,0,0-.64.29,1.26,1.26,0,0,0-.35.53l-1,0a2.16,2.16,0,0,1,.67-1.07,2.71,2.71,0,0,1,1.23-.58,2.08,2.08,0,0,1,1.57.15A1.94,1.94,0,0,1,57.06,5.16ZM55.28,8.24a2,2,0,0,0,1.23-.9l-.12-.59A2.11,2.11,0,0,0,55,6.53a1,1,0,0,0-.62.39.76.76,0,0,0-.15.68.78.78,0,0,0,.37.54A1,1,0,0,0,55.28,8.24Z"/><path class="cls-1" d="M61.4,5.8l-.09-1,3.15-.29.1,1Z"/></g></g></svg>