<svg xmlns="http://www.w3.org/2000/svg" xmlns:xlink="http://www.w3.org/1999/xlink" viewBox="0 0 150 127.66"><defs><style>.cls-1{fill:#fff;fill-rule:evenodd;}.cls-2{mask:url(#mask);}.cls-3{mask:url(#mask-2);}</style><mask id="mask" x="0" y="0" width="69.82" height="127.66" maskUnits="userSpaceOnUse"><g id="onwswyb52d"><path id="cd4omjf53c" class="cls-1" d="M0,0H69.82V127.66H0Z"/></g></mask><mask id="mask-2" x="79.78" y="0" width="70.22" height="127.66" maskUnits="userSpaceOnUse"><g id="z7zerlg7sf"><path id="suze5ig3qe" class="cls-1" d="M79.79,0H150V127.66H79.79Z"/></g></mask></defs><g id="Capa_2" data-name="Capa 2"><g id="Capa_1-2" data-name="Capa 1"><g class="cls-2"><path class="cls-1" d="M67.67,9.75,58.32,0,2.05,58.68A7.53,7.53,0,0,0,2.05,69l56.28,58.66,9.34-9.73a7.84,7.84,0,0,0,0-10.78L26.12,63.84,67.67,20.5a7.83,7.83,0,0,0,0-10.75"/></g><g class="cls-3"><path class="cls-1" d="M148.07,59,91.5,0,82.1,9.79a7.75,7.75,0,0,0,0,10.66l41.62,43.37-42,43.77a7.2,7.2,0,0,0,0,9.89l9.76,10.18,56.56-59a7.1,7.1,0,0,0,0-9.73"/></g></g></g></svg>