<?xml version="1.0" encoding="utf-8"?>
<!-- Generator: Adobe Illustrator 25.3.1, SVG Export Plug-In . SVG Version: 6.00 Build 0)  -->
<svg version="1.1" id="Capa_1" xmlns="http://www.w3.org/2000/svg" xmlns:xlink="http://www.w3.org/1999/xlink" x="0px" y="0px"
	 viewBox="0 0 2360 1055.4" style="enable-background:new 0 0 2360 1055.4;" xml:space="preserve">
<style type="text/css">
	.st0{fill:#EFB810;}
</style>
<g id="Capa_2_1_">
	<g id="Capa_1-2">
		<g id="Capa_2-2">
			<g id="Capa_2-2-2">
				<g>
					<path class="st0" d="M2039.3,33c22.6,0,50.4,13.5,72.4,35.2c24,23.7,37.8,53.7,37.8,82.3c0,32.9-9.4,66.7-25.8,92.7
						c-13.7,21.8-30.6,34.9-45,34.9h-30v30c0,4.9,1.4,22,20,35.6c15.8,11.7,39.5,17.4,72.4,17.4l30,0h155.8v104.1h-248.2
						c-22.2,0-34-0.6-41.4-3.7c-7.6-3.2-16.9-11.8-33.8-27.2l-0.6-0.6c-37.5-34.4-111.5-121.2-112.3-122l-52.8-62v81.5v134.1h-117.2
						V33H2039.3 M1837.8,246.2h30h112.5c21.9,0,41.2-8.2,54.4-23c11.4-12.9,17.7-30.2,17.7-48.7c0-18.8-6.3-36.9-17.7-51
						c-13.6-16.7-32.9-26-54.4-26h-112.5h-30v30v88.6V246.2 M1468.6,33l121,432.1h-97.9l-18.1-49.3l-7.2-19.6h-20.9h-170.6h-20.7
						l-7.4,19.3l-18.9,49.6h-100.9L1254.6,33h110l-26.5,85.7l-55.8,180.5l-12,38.9h40.7h108.3h40l-11.2-38.4l-52.5-180.5L1370.4,33
						H1468.6 M1106,33v87.6H919.5h-30v30v314.6H788.8V150.6v-30h-30H556.1c-10.6,0-22.6,0-33.5,1.5c-7.6,1-14,2.7-19.4,5
						c-13.4,5.8-19.4,15.2-22.1,22c-2.5,6.3-5.4,19.2,3.1,34.7c3.5,6.5,8.9,13.2,16.4,20.3l60.3,71.4l0.2,0.3l0.3,0.3
						c11.2,12.7,17.9,23.4,20.3,33c2.1,8.1,1.4,16,0.5,27c-0.5,6.6-1.2,14-1.2,22.2c0,38.9-18.1,64.3-33.3,78.7
						c-18.3,17.4-42.7,28.2-63.7,28.2H34V361l314.9,0c0.8,0.1,2.7,0.2,4.2,0.4c6.9,0.7,17.4,1.6,28.3,1.6c10.8,0,19.8-1,27.4-3
						c19.9-5.3,28.3-17.1,31.8-26.1c11.8-30.4-18.1-57.5-29.3-67.7c-28.6-26-47.8-51.4-58.8-77.9c-8.8-21.2-11.4-40.2-12.6-62.4
						c-0.9-15.7,8.8-43.5,28.5-64.2c18-19.1,40.3-28.7,66.2-28.7H1106 M680.1,587.5l-126.8,432.2h-99l-57.3-210.9l-27.2-100.3
						l-30.4,99.4l-64.8,211.8h-103L44.1,587.5h118.4l39.8,142.2l30,107l28-107.6l36.8-141.6h144.8l42.8,142.7l28.7,95.8l28.7-95.8
						L585,587.5H680.1 M2327,587.5v87.7h-152.6v0h-30c-13.7,0-23.5,0.7-31.9,2.3c-23.9,4.6-33.5,17.2-37.4,27
						c-3.1,7.9-5.1,20.5,3.2,35.7c3.8,7,9.6,14.2,17.7,21.9l60.3,71.4l0.2,0.3l0.3,0.3c15.8,17.8,24.9,31.3,28.8,42.6
						c3.3,9.8,3.3,19.6,3.3,34.6l0,1.6c0,37.3-20.9,62.7-38.5,77.5c-21.3,17.9-49.5,29.4-71.7,29.4h-0.1l-0.1,0l-387.6,2.6
						c-22.1,0-33.9-0.6-41.3-3.7c-7.6-3.2-16.9-11.8-33.8-27.2l-0.7-0.6c-37.6-34.4-111.5-121.2-112.3-122l-52.8-62v81.5v134.1
						h-117.2V590.2h318.8c22.6,0,50.4,13.5,72.4,35.2c24,23.7,37.8,53.7,37.8,82.3c0,32.9-9.4,66.7-25.8,92.6
						c-13.8,21.8-30.6,34.9-45.1,34.9h-72.2l50.9,51.2c3.3,3.3,33.8,32.5,84.1,32.5c37.8,0,180.8,0.1,190.5,0.2
						c0.8,0.1,2.7,0.2,4.2,0.4c6.9,0.7,17.3,1.6,28.3,1.6c10.8,0,19.8-1,27.4-3c19.9-5.3,28.3-17.1,31.8-26.1
						c11.8-30.4-18.1-57.5-29.3-67.8c-61.8-56.2-69.1-100.1-71.3-140.2c-0.5-8.7,1.9-21,6.3-32.8c5.4-14.3,13.4-27.3,23.1-37.7
						c16.4-17.3,36.7-26.1,60.5-26.1H2327 M1450.1,803.4h30h112.5c21.9,0,41.2-8.2,54.4-23c11.4-12.9,17.7-30.2,17.7-48.7
						c0-18.8-6.3-36.9-17.7-51c-13.6-16.7-32.9-26-54.4-26h-112.5h-30v30v88.6V803.4 M1069.5,590.3l121,432.1h-98l-18.1-49.3
						l-7.2-19.6h-20.9H875.7H855l-7.4,19.3l-18.9,49.6H727.9l127.6-432.1h110L938.9,676l-55.8,180.5l-12,38.9h40.7h108.3h40
						l-11.2-38.4l-52.5-180.5l-25.1-86.2H1069.5 M2039.3,3h-348.8v492.1h177.2V331.1c0,0,75.5,88.6,114.8,124.7
						c39.4,36.1,42.7,39.4,96.1,39.4h278.2V331.1h-215.8v0c-62.4,0-62.4-23-62.4-23c53.4,0,100.8-77.8,100.8-157.5
						S2101.7,3,2039.3,3L2039.3,3z M1867.8,216.2v-88.6h112.5c51.6,0,60.5,88.6,0,88.6H1867.8L1867.8,216.2z M1491.4,3h-259.2
						l-145.3,492.1h161.7l26.2-68.9h170.6l25.3,68.9h158.4L1491.4,3L1491.4,3z M1310.9,308.1l55.8-180.5l52.5,180.5H1310.9
						L1310.9,308.1z M1136,3H434.7c-85.3,0-127,81.9-124.7,124.6c2.3,42.7,10.2,96.3,81.1,160.8c41.8,37.9,16.3,44.7-9.7,44.7
						c-14.2,0-28.6-2-32.1-2L4,331v164.1h479.9c55.8,0,127-51.6,127-136.9c0-34.3,13.1-56.7-27.2-102.1l-61.4-72.7
						c-35.2-32.8,4.2-32.8,33.8-32.8h202.7v344.6h160.7V150.6H1136V3L1136,3z M720.2,557.5H562.7l-49.2,164.1l-49.2-164.1H273.9
						l-42.7,164.1l-45.9-164.1H4l145.2,492.2h147.7l71.3-233l63.3,233h144.4L720.2,557.5L720.2,557.5z M2357,557.5h-331.7
						c-85.3,0-122.2,85.5-119.8,128.1c2.4,42.7,10.2,96.3,81.1,160.8c41.8,38,16.2,44.7-9.7,44.7c-14.2,0-28.6-2-32-2
						c0,0-151.6-0.2-191-0.2s-62.9-23.6-62.9-23.6c53.5,0,100.9-77.8,100.9-157.5s-77.8-147.6-140.2-147.6h-348.8v492.1h177.2V888.2
						c0,0,75.5,88.6,114.9,124.7c39.4,36.1,42.7,39.4,96.1,39.4l387.7-2.6c55.8,0,140.2-51.6,140.2-136.9c0-34.3,0.7-53.3-39.7-98.7
						l-61.4-72.8c-35.2-32.8-3-36.2,26.5-36.2v0H2357V557.5L2357,557.5z M1480.1,773.4v-88.6h112.5c51.6,0,60.5,88.6,0,88.6H1480.1
						L1480.1,773.4z M1092.3,560.3H833l-145.3,492.1h161.7l26.2-68.9h170.6l25.3,68.9h158.4L1092.3,560.3L1092.3,560.3z
						 M911.8,865.4l55.8-180.5l52.5,180.5H911.8L911.8,865.4z"/>
				</g>
			</g>
		</g>
	</g>
</g>
</svg>
