<?xml version="1.0" encoding="UTF-8"?>
<svg id="Capa_2" data-name="Capa 2" xmlns="http://www.w3.org/2000/svg" viewBox="0 0 250 300">
  <defs>
    <style>
      .cls-1 {
        fill: none;
      }

      .cls-2 {
        fill: #af0000;
      }

      .cls-3 {
        fill: #fff;
        stroke: #000;
        stroke-linejoin: bevel;
        stroke-width: 1.07px;
      }
    </style>
  </defs>
  <g id="Marco">
    <rect class="cls-1" width="250" height="300"/>
  </g>
  <g id="Capa_3" data-name="Capa 3">
    <g id="Capa_3-2" data-name="Capa 3">
      <g>
        <g>
          <polygon class="cls-1" points="155.44 227.32 155.53 227.32 155.53 227.75 155.96 227.75 155.96 228.18 156.4 228.18 156.4 228.61 156.83 228.61 156.83 229.05 157.26 229.05 157.26 229.48 157.69 229.48 157.69 229.91 158.12 229.91 158.12 230.34 158.38 230.34 158.38 225.27 155.44 225.27 155.44 227.32"/>
          <polygon class="cls-1" points="155.44 244.75 155.84 244.75 155.84 245.19 156.28 245.19 156.28 245.62 156.71 245.62 156.71 246.05 157.14 246.05 157.14 246.48 157.57 246.48 157.57 246.91 158 246.91 158 247.34 158.38 247.34 158.38 244 155.44 244 155.44 244.75"/>
          <path class="cls-1" d="M106.2,226.73v-.43h-.43v-.43h-.43v-.12c-.42,.24-.75,.56-.97,.97-.52,.96-.77,2.18-.77,3.65v6.89h.71v.43h.43v.43h.43v.43h.43v.43h.43v.43h.43v.43h.43v.43h.43v.43h.43v.43h.43v.43h.43v.43h.43v.43h.43v.43h.38c-.29-.93-.43-1.92-.43-2.97v-10.15h-.21v-.43h-.43v-.43h-.43v-.43h-.43v-.43h-.43v-.43h-.43v-.43h-.43v-.43h-.43Z"/>
          <path class="cls-1" d="M69.87,242.99v.43h.43v.26c.35-.07,.65-.18,.91-.31,.6-.31,1.06-.75,1.39-1.32,.33-.57,.52-1.26,.59-2.06,.03-.45,.06-.94,.07-1.46-.14-.14-.28-.28-.41-.42-.15-.14-.3-.28-.43-.43-.15-.14-.3-.28-.43-.43-.15-.14-.3-.28-.43-.43-.15-.14-.3-.28-.43-.43-.15-.14-.3-.28-.43-.43-.15-.14-.3-.28-.43-.43-.15-.14-.3-.28-.43-.43-.15-.14-.3-.28-.43-.43-.15-.14-.3-.28-.43-.43-.15-.14-.3-.28-.43-.43-.15-.14-.3-.28-.43-.43-.15-.14-.3-.28-.43-.43-.15-.14-.3-.28-.43-.43-.15-.14-.3-.28-.43-.43-.15-.14-.3-.28-.43-.43-.15-.14-.3-.28-.43-.43-.15-.14-.3-.28-.43-.43-.15-.14-.3-.28-.43-.43-.15-.14-.3-.28-.43-.43-.15-.14-.3-.28-.43-.43-.15-.14-.3-.28-.43-.43-.15-.14-.3-.28-.43-.43-.15-.14-.3-.28-.43-.43-.15-.14-.3-.28-.43-.43-.15-.14-.3-.28-.43-.43-.15-.14-.3-.28-.43-.43-.15-.14-.3-.28-.43-.43-.4-.37-.75-.77-1.04-1.19h-4.14v2.05h.09v.43h.43v.43h.43v.43h.43v.43h.43v.43h.43v.43h.43v.43h.43v.43h.43v.43h.43v.43h.43v.43h.43v.43h.43v.43h.43v.43h.43v.43h.43v.43h.43v.43h.43v.43h.43v.43h.43v.43h.43v.43h.43v.43h.43v.43h.43v.43h.43v.43h.43v2.29h.4v.43h.43v.43h.43v.43h.43v.43h.43v.43h.43v.43h.43Z"/>
          <path class="cls-1" d="M81.05,226.36v-.43h-.43v-.4c-.18,.07-.35,.15-.51,.24-.54,.33-.97,.74-1.3,1.23-.33,.53-.56,1.14-.68,1.81,0,.02,0,.03,0,.05h0c.15,.14,.29,.29,.43,.43,.15,.14,.29,.28,.43,.43,.15,.14,.29,.28,.43,.43,.15,.14,.29,.28,.43,.43,.15,.14,.29,.28,.43,.43,.15,.14,.29,.28,.43,.43,.15,.14,.29,.28,.43,.43,.15,.14,.29,.28,.43,.43,.15,.14,.29,.28,.43,.43,.15,.14,.29,.28,.43,.43,.15,.14,.29,.28,.43,.43,.15,.14,.29,.28,.43,.43,.15,.14,.29,.28,.43,.43,.06,.06,.12,.11,.17,.17v-5.69h-.27v-.43h-.43v-.43h-.43v-.43h-.43v-.43h-.43v-.43h-.43v-.43h-.43Z"/>
          <path class="cls-1" d="M109.91,243.02v.28h.1c-.03-.09-.07-.19-.1-.28Z"/>
          <path class="cls-2" d="M239.06,225.03c-.57-1.24-1.29-2.29-2.17-3.15-.16-.17-.32-.34-.49-.49-.14-.15-.28-.29-.43-.43-.14-.15-.28-.29-.43-.43-.14-.15-.28-.29-.43-.43-.14-.15-.28-.29-.43-.43-.14-.15-.28-.29-.43-.43-.14-.15-.28-.29-.43-.43-.14-.15-.28-.29-.43-.43-.14-.15-.28-.29-.43-.43-.14-.15-.28-.29-.43-.43-.14-.15-.28-.29-.43-.43-.14-.15-.28-.29-.43-.43-.14-.15-.28-.29-.43-.43-.14-.15-.28-.29-.43-.43-.14-.15-.28-.29-.43-.43-.14-.15-.28-.29-.43-.43-.14-.15-.28-.29-.43-.43-.14-.15-.28-.29-.43-.43-.14-.15-.28-.29-.43-.43-.14-.15-.28-.29-.43-.43-.14-.15-.28-.29-.43-.43-.14-.15-.28-.29-.43-.43-.14-.15-.28-.29-.43-.43-.14-.15-.28-.29-.43-.43-.14-.15-.28-.29-.43-.43-.14-.15-.28-.29-.43-.43-.14-.15-.28-.29-.43-.43-.14-.15-.28-.29-.43-.43-.14-.15-.28-.29-.43-.43-.17-.19-.36-.37-.55-.54-.16-.17-.32-.33-.49-.49-1.03-.86-2.17-1.51-3.43-1.96-1.26-.45-2.52-.67-3.8-.67s-2.54,.22-3.8,.67c-1.26,.45-2.38,1.11-3.37,1.96-.54,.47-1.02,1.01-1.45,1.61h-.16v-.43h-.43v-.43h-.43v-.43h-.43v-.43h-.43v-.43h-.43v-.43h-.43v-.43h-.43v-.43h-.43v-.43h-20.89v2.59h-.37v-.43h-.43v-.43h-.43v-.43h-.43v-.43h-.43v-.43h-.43v-.43h-6.3v9.9l-.15-.41h-.28l-.16-.43h-.28l-.16-.43h-.28l-.16-.43h-.28l-.16-.43h-.28l-.16-.43h-.28l-.16-.43h-.28l-.16-.43h-.28l-.16-.43h-.28l-.16-.43h-.28l-.16-.43h-.28l-.16-.43h-.28l-.16-.43h-.28l-.16-.43h-.28l-.16-.43h-.28l-.16-.43h-.28l-.16-.43h-.28l-.16-.43h-.28l-.16-.43h-.28l-.16-.43h-.28l-.16-.43h-.28l-.16-.43h-.28l-.16-.43h-6.06v3.88h-.38v-.43h-.43v-.43h-.43v-.43h-.43v-.43h-.43v-.43h-.43v-.43h-.43v-.43h-.43v-.43h-.43v-.43h-18.79v6.04h-.32v-.43h-.43v-.43h-.43v-.43h-.43v-.43h-.43v-.43h-.43v-.43h-.43v-.43h-.43v-.43h-.43v-.43h-.43v-.43h-.43v-.43h-.43v-.43h-.43v-.43h-.43v-.43h-6.3v8.2h-.02v-.43h-.43v-.43h-.43v-.43h-.43v-.43h-.43v-.43h-.43v-.43h-.43v-.43h-.43v-.43h-.43v-.43h-.43v-.43h-.43v-.43h-.43v-.43h-.43v-.43h-.43v-.43h-.43v-.43h-.43v-.43h-.43v-.43h-.43v-.43h-.43v-.43h-6.3v10.55c-.07-.07-.13-.13-.2-.2-.02-.02-.04-.05-.06-.07-.12-.12-.24-.24-.37-.36-.02-.02-.04-.05-.06-.07-.12-.12-.24-.24-.37-.36-.02-.02-.04-.05-.06-.07-.12-.12-.24-.24-.37-.36-.02-.02-.04-.05-.06-.07-.12-.12-.24-.24-.37-.36-.02-.02-.04-.05-.06-.07-.12-.12-.24-.24-.37-.36-.02-.02-.04-.05-.06-.07-.12-.12-.24-.24-.37-.36-.02-.02-.04-.05-.06-.07-.12-.12-.24-.24-.37-.36-.02-.02-.04-.05-.06-.07-.12-.12-.24-.24-.37-.36-.02-.02-.04-.05-.06-.07-.12-.12-.24-.24-.37-.36-.02-.02-.04-.05-.06-.07-.12-.12-.24-.24-.37-.36-.02-.02-.04-.05-.06-.07-.12-.12-.24-.24-.37-.36-.02-.02-.04-.05-.06-.07-.12-.12-.24-.24-.37-.36-.02-.02-.04-.05-.06-.07-.12-.12-.24-.24-.37-.36-.02-.02-.04-.05-.06-.07-.12-.12-.24-.24-.37-.36-.02-.02-.04-.05-.06-.07-.12-.12-.24-.24-.37-.36-.02-.02-.04-.05-.06-.07-.12-.12-.24-.24-.37-.36-.02-.02-.04-.05-.06-.07-.12-.12-.24-.24-.37-.36-.02-.02-.04-.05-.06-.07-.12-.12-.24-.24-.37-.36-.02-.02-.04-.05-.06-.07-1.85-1.92-4.26-2.89-7.23-2.89-1.53,0-2.92,.26-4.17,.77-1.26,.51-2.34,1.22-3.25,2.12s-1.61,1.96-2.1,3.19c-.49,1.23-.74,2.56-.74,3.99v.24s-.06-.06-.09-.09c-.06-.06-.11-.13-.17-.19-.09-.08-.17-.16-.26-.25-.06-.06-.11-.13-.17-.19-.09-.08-.17-.16-.26-.25-.06-.06-.11-.13-.17-.19-.09-.08-.17-.16-.26-.25-.06-.06-.11-.13-.17-.19-.09-.08-.17-.16-.26-.25-.06-.06-.11-.13-.17-.19-.09-.08-.17-.16-.26-.25-.06-.06-.11-.13-.17-.19-.09-.08-.17-.16-.26-.25-.06-.06-.11-.13-.17-.19-.09-.08-.17-.16-.26-.25-.06-.06-.11-.13-.17-.19-.09-.08-.17-.16-.26-.25-.06-.06-.11-.13-.17-.19-.09-.08-.17-.16-.26-.25-.06-.06-.11-.13-.17-.19-.09-.08-.17-.16-.26-.25-.06-.06-.11-.13-.17-.19-.09-.08-.17-.16-.26-.25-.06-.06-.11-.13-.17-.19-.09-.08-.17-.16-.26-.25-.06-.06-.11-.13-.17-.19-.09-.08-.17-.16-.26-.25-.06-.06-.11-.13-.17-.19-.09-.08-.17-.16-.26-.25-.06-.06-.11-.13-.17-.19-.09-.08-.17-.16-.26-.25-.06-.06-.11-.13-.17-.19-.09-.08-.17-.16-.26-.25-.06-.06-.11-.13-.17-.19-.95-.94-2.07-1.7-3.37-2.27s-2.73-.86-4.29-.86c-1.85,0-3.45,.32-4.79,.95-1.34,.63-2.44,1.48-3.31,2.55-.43,.5-.8,1.05-1.12,1.63v-.02h-.43v-.43h-.43v-.43h-.43v-.43h-.43v-.43h-.43v-.43h-.43v-.43h-.43v-.43h-.43v-.43h-.43v-.43h-.43v-.43h-.43v-.43h-18.79v11.7s-.04-.03-.06-.05c-.02-.02-.04-.04-.06-.06-.12-.13-.25-.25-.37-.37-.02-.02-.04-.04-.06-.06-.12-.13-.25-.25-.37-.37-.02-.02-.04-.04-.06-.06-.12-.13-.25-.25-.37-.37-.02-.02-.04-.04-.06-.06-.12-.13-.25-.25-.37-.37-.02-.02-.04-.04-.06-.06-.12-.13-.25-.25-.37-.37-.02-.02-.04-.04-.06-.06-.12-.13-.25-.25-.37-.37-.02-.02-.04-.04-.06-.06-.12-.13-.25-.25-.37-.37-.02-.02-.04-.04-.06-.06-.12-.13-.25-.25-.37-.37-.02-.02-.04-.04-.06-.06-.12-.13-.25-.25-.37-.37-.02-.02-.04-.04-.06-.06-.12-.13-.25-.25-.37-.37-.02-.02-.04-.04-.06-.06-.12-.13-.25-.25-.37-.37-.02-.02-.04-.04-.06-.06-.12-.13-.25-.25-.37-.37-.02-.02-.04-.04-.06-.06-.12-.13-.25-.25-.37-.37-.02-.02-.04-.04-.06-.06-.12-.13-.25-.25-.37-.37-.02-.02-.04-.04-.06-.06-.12-.13-.25-.25-.37-.37-.02-.02-.04-.04-.06-.06-.12-.13-.25-.25-.37-.37-.02-.02-.04-.04-.06-.06-.12-.13-.25-.25-.37-.37-.02-.02-.04-.04-.06-.06-.12-.13-.25-.25-.37-.37-.02-.02-.04-.04-.06-.06-.12-.13-.25-.25-.37-.37-.02-.02-.04-.04-.06-.06-.12-.13-.25-.25-.37-.37-.02-.02-.04-.04-.06-.06-1.88-1.96-4.63-2.95-8.25-2.95H10.07v43.72h.43v.43h.43v.43h.43v.43h.43v.43h.43v.43h.43v.43h.43v.43h.43v.43h.43v.43h.43v.43h.43v.43h.43v.43h.43v.43h.43v.43h.43v.43h.43v.43h.43v.43h.43v.43h.43v.43h.43v.43h.43v.43h.43v.43h.43v.43h.43v.43h.43v.43h.43v.43h.43v.43h.43v.43h.43v.43h.43v.43h.43v.43h8.78c3.75,0,6.62-.97,8.62-2.92,1.06-1.03,1.83-2.36,2.33-3.99h.13v.43h.43v.43h.43v.43h.43v.43h.43v.43h.43v.43h.43v.43h.43v.43h.43v.43h.43v.43h.43v.43h.43v.43h.43v.43h.43v.43h.43v.43h.43v.43h18.79v-6.26h-.43v-.43h-.43v-.43h-.43v-.43h-.43v-.43h-.43v-.43h-.43v-.43h-.43v-.43h-.43v-.43h-.43v-.43h-.43v-.43h-.43v-.43h-.43v-.43h-.43v-.43h-.43v-.43h-.43v-.43h-.43v-.43h-.43v-.43h-.43v-.43h-.43v-.43h-.43v-.43h-.43v-.43h-.43v-.43h-.43v-.43h-.43v-.43h-.43v-.43h-.43v-.43h-.43v-.43h-.43v-.43h-.4v-.75h2.88c.55,1.16,1.26,2.19,2.16,3.08,.06,.06,.12,.12,.18,.17,.08,.09,.17,.18,.25,.26,.06,.06,.12,.12,.18,.17,.08,.09,.17,.18,.25,.26,.06,.06,.12,.11,.18,.17,.08,.09,.17,.18,.25,.26,.06,.06,.12,.12,.18,.17,.08,.09,.17,.18,.25,.26,.06,.06,.12,.12,.18,.17,.08,.09,.17,.18,.25,.26,.06,.06,.12,.12,.18,.17,.08,.09,.17,.18,.25,.26,.06,.06,.12,.12,.18,.17,.08,.09,.17,.18,.25,.26,.06,.06,.12,.11,.18,.17,.08,.09,.17,.18,.25,.26,.06,.06,.12,.12,.18,.17,.08,.09,.17,.18,.25,.26,.06,.06,.12,.12,.18,.17,.08,.09,.17,.18,.25,.26,.06,.06,.12,.12,.18,.17,.08,.09,.17,.18,.25,.26,.06,.06,.12,.12,.18,.17,.08,.09,.17,.18,.25,.26,.06,.06,.12,.11,.18,.17,.08,.09,.17,.18,.25,.26,.06,.06,.12,.12,.18,.17,.08,.09,.17,.18,.25,.26,.06,.06,.12,.12,.18,.17,.08,.09,.17,.18,.25,.26,.06,.06,.12,.12,.18,.17,.08,.09,.17,.18,.25,.26,.06,.06,.12,.12,.18,.17,.08,.09,.17,.18,.25,.26,.06,.06,.12,.12,.18,.17,.08,.09,.17,.18,.25,.26,.06,.06,.12,.11,.18,.17,.08,.09,.17,.18,.25,.26,.06,.06,.12,.12,.18,.17,.08,.09,.17,.18,.25,.26,.06,.06,.12,.12,.18,.17,.08,.09,.17,.18,.25,.26,.06,.06,.12,.12,.18,.17,.08,.09,.17,.18,.25,.26,.06,.06,.12,.12,.18,.17,.08,.09,.17,.18,.25,.26,.06,.06,.12,.11,.18,.17,.08,.09,.17,.18,.25,.26,.06,.06,.12,.12,.18,.17,.08,.09,.17,.18,.25,.26,.06,.06,.12,.12,.18,.17,.08,.09,.17,.18,.25,.26,.06,.06,.12,.12,.18,.17,.08,.09,.17,.18,.25,.26,.06,.06,.12,.12,.18,.17,.08,.09,.17,.18,.25,.26,.06,.06,.12,.11,.18,.17,.08,.09,.17,.18,.25,.26,.06,.06,.12,.12,.18,.17,.08,.09,.17,.18,.25,.26,.06,.06,.12,.12,.18,.17,.08,.09,.17,.18,.25,.26,.95,.94,2.08,1.68,3.4,2.21,1.32,.53,2.74,.8,4.26,.8,2.02,0,3.73-.33,5.13-.98,1.4-.66,2.53-1.55,3.4-2.7,.82-1.11,1.42-2.45,1.79-4.02,.18-.75,.31-1.53,.4-2.34,.06,.06,.13,.13,.19,.19,.14,.15,.28,.29,.43,.43,.14,.15,.28,.29,.43,.43,.14,.15,.28,.29,.43,.43,.14,.15,.28,.29,.43,.43,.14,.15,.28,.29,.43,.43,.14,.15,.28,.29,.43,.43,.14,.15,.28,.29,.43,.43,.14,.15,.28,.29,.43,.43,.14,.15,.28,.29,.43,.43,.14,.15,.28,.29,.43,.43,.14,.15,.28,.29,.43,.43,.14,.15,.28,.29,.43,.43,.14,.15,.28,.29,.43,.43,.14,.15,.28,.29,.43,.43,.14,.15,.28,.29,.43,.43,.14,.15,.28,.29,.43,.43,.25,.26,.51,.51,.78,.74,.99,.82,2.1,1.39,3.34,1.72,1.24,.33,2.45,.49,3.65,.49,1.4,0,2.71-.28,3.93-.83,1.21-.55,2.28-1.3,3.18-2.24,.9-.94,1.62-2.02,2.13-3.22,.51-1.21,.77-2.49,.77-3.84v-1.04s.1,.09,.15,.14c.08,.09,.16,.17,.24,.25,.06,.06,.13,.12,.19,.18,.08,.09,.16,.17,.24,.25,.06,.06,.13,.12,.19,.18,.08,.09,.16,.17,.24,.25,.06,.06,.13,.12,.19,.18,.08,.09,.16,.17,.24,.25,.06,.06,.13,.12,.19,.18,.08,.09,.16,.17,.24,.25,.06,.06,.13,.12,.19,.18,.08,.09,.16,.17,.24,.25,.06,.06,.13,.12,.19,.18,.08,.09,.16,.17,.24,.25,.06,.06,.13,.12,.19,.18,.08,.09,.16,.17,.24,.25,.06,.06,.13,.12,.19,.18,.08,.09,.16,.17,.24,.25,.06,.06,.13,.12,.19,.18,.08,.09,.16,.17,.24,.25,.06,.06,.13,.12,.19,.18,.08,.09,.16,.17,.24,.25,.06,.06,.13,.12,.19,.18,.08,.09,.16,.17,.24,.25,.06,.06,.13,.12,.19,.18,.08,.09,.16,.17,.24,.25,.06,.06,.13,.12,.19,.18,.08,.09,.16,.17,.24,.25,.06,.06,.13,.12,.19,.18,.08,.09,.16,.17,.24,.25,.06,.06,.13,.12,.19,.18,.08,.09,.16,.17,.24,.25,.06,.06,.13,.12,.19,.18,.08,.09,.16,.17,.24,.25,.06,.06,.13,.12,.19,.18,.08,.09,.16,.17,.24,.25,.06,.06,.13,.12,.19,.18,.08,.09,.16,.17,.24,.25,.95,.94,2.03,1.68,3.25,2.21,1.21,.53,2.52,.8,3.93,.8s2.72-.27,3.95-.8c1.24-.53,2.33-1.27,3.27-2.21,.95-.94,1.68-2.02,2.19-3.22,.09-.2,.16-.4,.23-.61h.43v.43h.43v.43h.43v.43h.43v.43h.43v.43h.43v.43h.43v.43h.43v.43h.43v.43h.43v.43h.43v.43h.43v.43h.43v.43h.43v.43h.43v.43h18.79v-3.88h.38v.43h.43v.43h.43v.43h.43v.43h.43v.43h.43v.43h.43v.43h.43v.43h.43v.43h6.3v-9.93h.11l.16,.43h.27l.16,.43h.27l.16,.43h.27l.16,.43h.27l.16,.43h.27l.16,.43h.27l.16,.43h.27l.16,.43h.27l.16,.43h.27l.16,.43h.27l.16,.43h.27l.16,.43h.27l.16,.43h.27l.16,.43h.27l.16,.43h.27l.16,.43h.27l.16,.43h.27l.16,.43h.27l.16,.43h.27l.16,.43h.27l.16,.43h.27l.16,.43h.27l.16,.43h5.93v-9.93h.33v.43h.43v.43h.43v.43h.43v.43h.43v.43h.43v.43h.43v.43h.43v.43h.43v.43h.43v.43h.43v.43h.43v.43h.43v.43h.43v.43h.43v.43h.43v.43h.43v.43h.43v.43h.43v.43h.43v.43h.43v.43h.43v.43h.43v.43h6.3v-14.66c.13,.13,.26,.26,.39,.39,.14,.15,.28,.29,.43,.43,.14,.15,.28,.29,.43,.43,.14,.15,.28,.29,.43,.43,.14,.15,.28,.29,.43,.43,.14,.15,.28,.29,.43,.43,.14,.15,.28,.29,.43,.43,.14,.15,.28,.29,.43,.43,.14,.15,.28,.29,.43,.43,.14,.15,.28,.29,.43,.43,.14,.15,.28,.29,.43,.43,.14,.15,.28,.29,.43,.43,.14,.15,.28,.29,.43,.43,.14,.15,.28,.29,.43,.43,.14,.15,.28,.29,.43,.43,.14,.15,.28,.29,.43,.43,.14,.15,.28,.29,.43,.43,.14,.15,.28,.29,.43,.43,.14,.15,.28,.29,.43,.43,.14,.15,.28,.29,.43,.43,.14,.15,.28,.29,.43,.43,.14,.15,.28,.29,.43,.43,.14,.15,.28,.29,.43,.43,.14,.15,.28,.29,.43,.43,.14,.15,.28,.29,.43,.43,.14,.15,.28,.29,.43,.43,.1,.1,.2,.21,.31,.31,.27,.3,.56,.58,.87,.84,.99,.9,2.11,1.58,3.37,2.03,1.26,.45,2.52,.67,3.8,.67s2.54-.22,3.8-.67c1.26-.45,2.4-1.13,3.43-2.03,.99-.86,1.79-1.95,2.41-3.26,.62-1.31,.93-2.89,.93-4.73v-23.09c0-1.76-.31-3.32-.93-4.67l-.02,.07Zm-80.68,22.32h-.38v-.43h-.43v-.43h-.43v-.43h-.43v-.43h-.43v-.43h-.43v-.43h-.4v-.75h2.94v3.34h0Zm0-17.01h-.26v-.43h-.43v-.43h-.43v-.43h-.43v-.43h-.43v-.43h-.43v-.43h-.43v-.43h-.09v-2.05h2.94v5.07h0Zm-89.37,12.21v-.43h-.43v-.43h-.43v-.43h-.43v-.43h-.43v-.43h-.4v-2.29h-.43v-.43h-.43v-.43h-.43v-.43h-.43v-.43h-.43v-.43h-.43v-.43h-.43v-.43h-.43v-.43h-.43v-.43h-.43v-.43h-.43v-.43h-.43v-.43h-.43v-.43h-.43v-.43h-.43v-.43h-.43v-.43h-.43v-.43h-.43v-.43h-.43v-.43h-.43v-.43h-.43v-.43h-.43v-.43h-.43v-.43h-.43v-.43h-.43v-.43h-.09v-2.05h4.14c.29,.42,.64,.82,1.04,1.19,.14,.15,.28,.29,.43,.43,.14,.15,.28,.29,.43,.43,.14,.15,.28,.29,.43,.43,.14,.15,.28,.29,.43,.43,.14,.15,.28,.29,.43,.43,.14,.15,.28,.29,.43,.43,.14,.15,.28,.29,.43,.43,.14,.15,.28,.29,.43,.43,.14,.15,.28,.29,.43,.43,.14,.15,.28,.29,.43,.43,.14,.15,.28,.29,.43,.43,.14,.15,.28,.29,.43,.43,.14,.15,.28,.29,.43,.43,.14,.15,.28,.29,.43,.43,.14,.15,.28,.29,.43,.43,.14,.15,.28,.29,.43,.43,.14,.15,.28,.29,.43,.43,.14,.15,.28,.29,.43,.43,.14,.15,.28,.29,.43,.43,.14,.15,.28,.29,.43,.43,.14,.15,.28,.29,.43,.43,.14,.15,.28,.29,.43,.43,.14,.15,.28,.29,.43,.43,.14,.15,.28,.29,.43,.43,.14,.15,.28,.29,.43,.43,.14,.15,.28,.29,.43,.43,.14,.15,.28,.29,.43,.43,.13,.14,.27,.28,.41,.42-.02,.51-.04,1-.07,1.46-.06,.8-.26,1.48-.59,2.06s-.79,1.01-1.39,1.32c-.26,.13-.56,.24-.91,.31v-.26h-.43v-.43h-.43v-.43h-.43Zm38.06-15.4v.43h.43v.43h.43v.43h.43v.43h.43v.43h.43v.43h.21v10.15c0,1.05,.14,2.04,.43,2.97h-.38v-.43h-.43v-.43h-.43v-.43h-.43v-.43h-.43v-.43h-.43v-.43h-.43v-.43h-.43v-.43h-.43v-.43h-.43v-.43h-.43v-.43h-.43v-.43h-.43v-.43h-.71v-6.89c0-1.47,.26-2.69,.77-3.65,.22-.42,.55-.74,.97-.97v.12h.43v.43h.43v.43h.43v.43h.43Zm2.85,15.85c.03,.1,.06,.19,.1,.28h-.1v-.28Zm-28-16.23v.43h.43v.43h.43v.43h.43v.43h.43v.43h.27v5.69c-.06-.06-.12-.11-.17-.17-.14-.15-.28-.29-.43-.43-.14-.15-.28-.29-.43-.43-.14-.15-.28-.29-.43-.43-.14-.15-.28-.29-.43-.43-.14-.15-.28-.29-.43-.43-.14-.15-.28-.29-.43-.43-.14-.15-.28-.29-.43-.43-.14-.15-.28-.29-.43-.43-.14-.15-.28-.29-.43-.43-.14-.15-.28-.29-.43-.43-.14-.15-.28-.29-.43-.43-.14-.15-.28-.29-.43-.43-.14-.15-.28-.29-.43-.43h0s0-.04,0-.05c.12-.67,.35-1.28,.68-1.81,.33-.49,.76-.9,1.3-1.23,.16-.09,.33-.17,.51-.24v.4h.43v.43h.43v.43h.43Z"/>
        </g>
        <g>
          <path class="cls-3" d="M10,249.72v-43.72h9.33c3.63,0,6.38,.98,8.25,2.95,1.87,1.96,2.81,4.75,2.81,8.35v20.45c0,4.09-1,7.11-3,9.06-2,1.95-4.87,2.92-8.62,2.92H10Zm6.3-37.82v31.93h2.91c1.77,0,3.03-.44,3.77-1.32,.74-.88,1.11-2.26,1.11-4.14v-21.06c0-1.72-.35-3.05-1.05-3.99-.7-.94-1.98-1.41-3.83-1.41h-2.91Z"/>
          <path class="cls-3" d="M36.33,249.72v-43.72h18.79v5.89h-12.48v12.83h10.88v5.89h-10.88v12.83h12.48v6.26h-18.79Z"/>
          <path class="cls-3" d="M79.59,218.59h-6.3v-1.41c0-1.43-.34-2.67-1.02-3.72-.68-1.04-1.82-1.57-3.43-1.57-.86,0-1.57,.16-2.1,.49-.54,.33-.97,.74-1.3,1.23-.33,.53-.56,1.14-.68,1.81s-.18,1.38-.18,2.12c0,.86,.03,1.58,.09,2.15,.06,.58,.22,1.09,.46,1.54,.25,.45,.61,.84,1.08,1.17,.47,.33,1.12,.66,1.95,.98l4.82,1.91c1.4,.53,2.53,1.16,3.4,1.87,.86,.72,1.54,1.55,2.04,2.49,.45,.98,.76,2.1,.93,3.35s.25,2.67,.25,4.27c0,1.84-.18,3.55-.56,5.13-.37,1.58-.97,2.92-1.79,4.02-.86,1.15-2,2.05-3.4,2.7-1.4,.66-3.11,.98-5.13,.98-1.53,0-2.95-.27-4.26-.8-1.32-.53-2.45-1.27-3.4-2.21-.95-.94-1.7-2.04-2.26-3.29-.56-1.25-.83-2.61-.83-4.08v-2.33h6.3v1.96c0,1.15,.34,2.18,1.02,3.1s1.82,1.38,3.43,1.38c1.07,0,1.91-.15,2.5-.46,.6-.31,1.06-.75,1.39-1.32,.33-.57,.52-1.26,.59-2.06,.06-.8,.09-1.69,.09-2.67,0-1.15-.04-2.09-.12-2.83-.08-.74-.25-1.33-.49-1.78-.29-.45-.67-.82-1.14-1.11s-1.1-.59-1.88-.92l-4.51-1.84c-2.72-1.11-4.54-2.57-5.47-4.39-.93-1.82-1.39-4.1-1.39-6.85,0-1.64,.22-3.19,.68-4.67,.45-1.47,1.13-2.74,2.04-3.81,.86-1.06,1.97-1.91,3.31-2.55,1.34-.63,2.94-.95,4.79-.95,1.57,0,3,.29,4.29,.86,1.3,.57,2.42,1.33,3.37,2.27,1.89,1.96,2.84,4.22,2.84,6.76v3.07h0Z"/>
          <path class="cls-3" d="M104.31,237.26v2.7c0,1.35-.26,2.63-.77,3.84-.52,1.21-1.23,2.28-2.13,3.22-.91,.94-1.97,1.69-3.18,2.24s-2.52,.83-3.93,.83c-1.2,0-2.41-.16-3.65-.49-1.24-.33-2.35-.9-3.34-1.72-.99-.82-1.8-1.87-2.44-3.16-.64-1.29-.96-2.94-.96-4.94v-24.07c0-1.43,.25-2.76,.74-3.99,.49-1.23,1.19-2.29,2.1-3.19,.9-.9,1.99-1.61,3.25-2.12,1.26-.51,2.65-.77,4.17-.77,2.97,0,5.38,.96,7.23,2.89,.9,.94,1.62,2.06,2.13,3.35,.51,1.29,.77,2.69,.77,4.21v2.46h-6.3v-2.09c0-1.23-.35-2.29-1.05-3.19-.7-.9-1.65-1.35-2.84-1.35-1.57,0-2.61,.48-3.12,1.44-.52,.96-.77,2.18-.77,3.65v22.35c0,1.27,.28,2.33,.83,3.19,.56,.86,1.55,1.29,3,1.29,.41,0,.85-.07,1.33-.21,.47-.14,.92-.38,1.33-.71,.37-.33,.68-.78,.93-1.35,.25-.57,.37-1.29,.37-2.15v-2.15h6.3Z"/>
          <path class="cls-3" d="M129.83,206v33.9c0,1.43-.26,2.75-.77,3.96-.52,1.21-1.25,2.28-2.19,3.22-.95,.94-2.04,1.68-3.27,2.21-1.24,.53-2.56,.8-3.95,.8s-2.71-.27-3.93-.8c-1.21-.53-2.3-1.27-3.25-2.21s-1.69-2.02-2.22-3.22c-.54-1.21-.8-2.53-.8-3.96v-33.9h6.3v33.28c0,1.56,.37,2.7,1.11,3.44s1.67,1.11,2.78,1.11,2.04-.37,2.78-1.11c.74-.74,1.11-1.88,1.11-3.44v-33.28h6.3Z"/>
          <path class="cls-3" d="M135.76,249.72v-43.72h18.79v5.89h-12.48v12.83h10.88v5.89h-10.88v12.83h12.48v6.26h-18.79Z"/>
          <path class="cls-3" d="M158.38,249.72v-43.72h6.06l9.52,26.34h.12v-26.34h6.3v43.72h-5.93l-9.64-26.29h-.12v26.29h-6.31Z"/>
          <path class="cls-3" d="M190.21,249.72v-37.83h-7.29v-5.89h20.89v5.89h-7.29v37.83h-6.3Z"/>
          <path class="cls-3" d="M205.47,216.32c0-1.76,.31-3.32,.93-4.67,.62-1.35,1.44-2.48,2.47-3.38,.99-.86,2.11-1.51,3.37-1.96,1.26-.45,2.52-.67,3.8-.67s2.54,.22,3.8,.67c1.26,.45,2.4,1.11,3.43,1.96,.99,.9,1.79,2.03,2.41,3.38,.62,1.35,.93,2.91,.93,4.67v23.09c0,1.84-.31,3.42-.93,4.73-.62,1.31-1.42,2.39-2.41,3.26-1.03,.9-2.17,1.58-3.43,2.03-1.26,.45-2.52,.67-3.8,.67s-2.54-.22-3.8-.67-2.38-1.13-3.37-2.03c-1.03-.86-1.85-1.95-2.47-3.26-.62-1.31-.93-2.89-.93-4.73v-23.09Zm6.3,23.09c0,1.51,.42,2.63,1.27,3.35,.84,.72,1.84,1.08,3,1.08s2.15-.36,3-1.08c.84-.71,1.27-1.83,1.27-3.35v-23.09c0-1.51-.42-2.63-1.27-3.35-.85-.72-1.84-1.08-3-1.08s-2.15,.36-3,1.08c-.85,.72-1.27,1.83-1.27,3.35v23.09Z"/>
        </g>
      </g>
    </g>
  </g>
</svg>