<?xml version="1.0" encoding="utf-8"?>
<!-- Generator: Adobe Illustrator 27.0.0, SVG Export Plug-In . SVG Version: 6.00 Build 0)  -->
<svg version="1.1" id="Capa_2_00000072973789301600080770000001124726110614105221_"
	 xmlns="http://www.w3.org/2000/svg" xmlns:xlink="http://www.w3.org/1999/xlink" x="0px" y="0px" viewBox="0 0 40.9 50"
	 style="enable-background:new 0 0 40.9 50;" xml:space="preserve">
<style type="text/css">
	.st0{fill:#FF8000;}
</style>
<g id="Capa_108">
	<g>
		<path class="st0" d="M6.8,37c-2.8,1.9-0.7,3.3-5.8,9.5s9.9,2.6,12.7,0.7c2.8-1.9,3.5-5.7,1.6-8.5C13.4,36,9.6,35.2,6.8,37L6.8,37z
			"/>
		<path class="st0" d="M39.9,0.4c-4-2.8-12.8,9.5-23.5,24.7c-5.1,7.3-2.4,9.9-1.5,10.4c0.1,0.1,0.3,0.2,0.4,0.3
			c0.8,0.6,4.2,2.3,9.3-5C35.3,15.6,43.9,3.2,39.9,0.4z"/>
	</g>
</g>
</svg>
