<?xml version="1.0" encoding="UTF-8"?>
<svg id="Capa_2" data-name="Capa 2" xmlns="http://www.w3.org/2000/svg" viewBox="0 0 250 300">
  <defs>
    <style>
      .cls-1, .cls-2 {
        fill: none;
      }

      .cls-2 {
        stroke: #000;
        stroke-dasharray: 0 0 0 14.24;
        stroke-linecap: round;
        stroke-linejoin: round;
        stroke-width: 2.85px;
      }
    </style>
  </defs>
  <g id="Marco">
    <rect class="cls-1" width="250" height="300"/>
  </g>
  <g id="Capa_5" data-name="Capa 5">
    <g id="Capa_5-2" data-name="Capa 5">
      <path class="cls-2" d="M131.25,125.39c11.72,16.36,8.87,41.98-11.06,47.68-19.93,2.85-39.86-11.39-39.86-31.32,0-25.62,19.93-42.71,42.71-42.71,34.17,2.85,54.1,42.71,39.86,71.18-14.24,28.47-48.4,37.02-76.88,22.78-17.08-8.54-28.47-22.78-31.32-42.71-8.54-45.56,34.17-85.42,79.73-76.88,31.32,5.7,56.95,34.17,59.79,65.49,5.7,45.56-34.17,85.42-76.88,85.42-22.78,2.85-48.4-5.7-65.49-25.62C9.14,153.13,29.08,76.26,83.17,53.48c42.71-17.08,88.27-2.85,116.74,31.32,22.78,28.47,25.62,62.64,17.08,93.96-19.93,62.64-93.96,91.11-153.75,62.64C17.69,218.62-2.24,167.37,3.45,118.96,11.99,50.63,80.33,13.61,142.97,22.16c42.71,5.7,76.88,37.02,93.96,74.03,17.08,42.71,14.24,91.11-14.24,128.13-28.47,37.02-71.18,54.1-112.78,54.74"/>
    </g>
  </g>
</svg>