<?xml version="1.0" encoding="UTF-8"?>
<svg id="Capa_2" data-name="Capa 2" xmlns="http://www.w3.org/2000/svg" viewBox="0 0 250 300">
  <defs>
    <style>
      .cls-1 {
        fill: none;
      }

      .cls-2 {
        fill: #af0000;
      }

      .cls-3 {
        fill: #fff;
        stroke: #000;
        stroke-linejoin: bevel;
        stroke-width: 1.33px;
      }
    </style>
  </defs>
  <g id="Marco">
    <rect class="cls-1" width="250" height="300"/>
  </g>
  <g id="Capa_2-2" data-name="Capa 2">
    <g id="Capa_2-2" data-name="Capa 2-2">
      <g>
        <g>
          <path class="cls-1" d="M120.6,99.39v84.01c2.06-.37,3.81-1.31,5.25-2.8,1.92-1.99,2.88-4.5,2.88-7.52V89.07c-2.06,.37-3.81,1.31-5.25,2.8-1.92,1.99-2.88,4.5-2.88,7.52h0Z"/>
          <path class="cls-2" d="M83.71,129.48c.86-2.05,1.34-4.67,1.55-7.83,.21-3.16,.31-7.28,.31-12.37,0-8.93-.62-15.66-1.86-20.2-.69-2.34-1.55-4.33-2.58-5.98-1.03-1.65-2.23-3.3-3.61-4.95-.47-.57-1-1.14-1.58-1.71-.14-.14-.28-.29-.43-.43-.14-.14-.28-.29-.43-.43-.14-.14-.28-.29-.43-.43-.14-.14-.28-.29-.43-.43-.14-.14-.28-.29-.43-.43-.14-.14-.28-.29-.43-.43-.14-.14-.28-.29-.43-.43-.14-.14-.28-.29-.43-.43-.14-.14-.28-.29-.43-.43-.14-.14-.28-.29-.43-.43-.14-.14-.28-.29-.43-.43-.14-.14-.28-.29-.43-.43-.14-.14-.28-.29-.43-.43-.14-.14-.28-.29-.43-.43-.14-.14-.28-.29-.43-.43-.14-.14-.28-.29-.43-.43-.14-.14-.28-.29-.43-.43-.14-.14-.28-.29-.43-.43-.14-.14-.28-.29-.43-.43-.14-.14-.28-.29-.43-.43-.14-.14-.28-.29-.43-.43-.14-.14-.28-.29-.43-.43-.14-.14-.28-.29-.43-.43-.14-.14-.28-.29-.43-.43-.14-.14-.28-.29-.43-.43-.14-.14-.28-.29-.43-.43-.14-.14-.28-.29-.43-.43-.14-.14-.28-.29-.43-.43-1.85-1.9-4.32-3.78-7.41-5.63-3.78-2.27-8.55-3.4-14.32-3.4-4.4,0-8.52,.82-12.37,2.47-3.85,1.65-7.21,3.85-10.1,6.6-2.88,2.75-5.15,6.05-6.8,9.89-1.65,3.85-2.47,7.9-2.47,12.16v12.16h.43v.43h.43v.43h.43v.43h.43v.43h.43v.43h.43v.43h.43v.43h.43v.43h.43v.43h.43v.43h.43v.43h.43v.43h.43v.43h.43v.43h.43v.43h.43v.43h.43v.43h.43v.43h.43v.43h.43v.43h.43v.43h.43v.43h.43v.43h.43v.43h.43v.43h.43v.43h.43v.43h.43v.43h.43v.43h21.02v-11.95c0-2.2,.79-4.46,2.37-6.8,1.25-1.85,3.18-2.97,5.77-3.35v16.64c0,5.5-1.21,9-3.61,10.51-2.4,1.51-6.77,2.27-13.09,2.27v18.55h.43v.43h.43v.43h.43v.43h.43v.43h.43v.43h.43v.43h.43v.43h.43v.43h.43v.43h.43v.43h.43v.43h.43v.43h.43v.43h.43v.43h.43v.43h.43v.43h.43v.43h.43v.43h.43v.43h.43v.43h.43v.43h.43v.43h.43v.43h.43v.43h.43v.43h.43v.43h.43v.43h.43v.43h.43v.43c1.53,0,2.93,.03,4.2,.08,.01,.41,.02,.83,.02,1.26v21.02c0,3.58-.93,6.43-2.78,8.55-1.41,1.62-3.2,2.62-5.36,3.01v-9.6h-.43v-.43h-.43v-.43h-.43v-.43h-.43v-.43h-.43v-.43h-.43v-.43h-.43v-.43h-.43v-.43h-.43v-.43h-.43v-.43h-.43v-.43h-.43v-.43h-.43v-.43h-.43v-.43h-.43v-.43h-.43v-.43h-.43v-.43h-.43v-.43h-.43v-.43h-.43v-.43h-.43v-.43h-.43v-.43h-.43v-.43h-.43v-.43h-.43v-.43h-.43v-.43h-.43v-.43h-.43v-.43h-.43v-.43H10.43v11.95c0,5.77,.99,10.65,2.99,14.63,1.62,3.24,3.58,5.99,5.89,8.23,.14,.14,.29,.29,.43,.43,.14,.14,.29,.29,.43,.43,.14,.14,.29,.29,.43,.43,.14,.14,.29,.29,.43,.43,.14,.14,.29,.29,.43,.43,.14,.14,.29,.29,.43,.43,.14,.14,.29,.29,.43,.43,.14,.14,.29,.29,.43,.43,.14,.14,.29,.29,.43,.43,.14,.14,.29,.29,.43,.43,.14,.14,.29,.29,.43,.43,.14,.14,.29,.29,.43,.43,.14,.14,.29,.29,.43,.43,.14,.14,.29,.29,.43,.43,.14,.14,.29,.29,.43,.43,.14,.14,.29,.29,.43,.43,.14,.14,.29,.29,.43,.43,.14,.14,.29,.29,.43,.43,.14,.14,.29,.29,.43,.43,.14,.14,.29,.29,.43,.43,.14,.14,.29,.29,.43,.43,.14,.14,.29,.29,.43,.43,.14,.14,.29,.29,.43,.43,.14,.14,.29,.29,.43,.43,.14,.14,.29,.29,.43,.43,.14,.14,.29,.29,.43,.43,.14,.14,.29,.29,.43,.43,.14,.14,.29,.29,.43,.43,.66,.67,1.35,1.3,2.06,1.89,3.02,2.47,6.39,4.26,10.1,5.36,3.71,1.1,7.21,1.65,10.51,1.65,6.6,0,11.92-1.27,15.97-3.81,4.05-2.54,7.39-5.73,10-9.58,1.1-1.65,1.99-3.23,2.68-4.74,.69-1.51,1.22-3.37,1.65-5.56,.4-2.06,.72-4.67,.93-7.83,.21-3.16,.31-7.14,.31-11.95,0-5.22-.07-9.51-.21-12.88-.14-3.36-.6-6.29-1.44-8.76-.8-2.34-2.1-4.4-3.81-6.18-.15-.15-.3-.31-.46-.47-.14-.14-.28-.29-.43-.43-.14-.14-.28-.29-.43-.43-.14-.14-.28-.29-.43-.43-.14-.14-.28-.29-.43-.43-.14-.14-.28-.29-.43-.43-.14-.14-.28-.29-.43-.43-.14-.14-.28-.29-.43-.43-.14-.14-.28-.29-.43-.43-.14-.14-.28-.29-.43-.43-.14-.14-.28-.29-.43-.43-.14-.14-.28-.29-.43-.43-.14-.14-.28-.29-.43-.43-.14-.14-.28-.29-.43-.43-.12-.12-.25-.25-.37-.37,2.5-1.53,4.51-2.96,6.01-4.29,1.72-1.51,3.09-3.35,4.02-5.56v.03Z"/>
          <path class="cls-2" d="M235.2,175.65s-.03-.03-.04-.04c-.13-.13-.25-.26-.39-.39-.01-.01-.03-.03-.04-.04-.13-.13-.25-.26-.39-.39-.01-.01-.03-.03-.04-.04-.13-.13-.25-.26-.39-.39-.01-.01-.03-.03-.04-.04-.13-.13-.25-.26-.39-.39-.01-.01-.03-.03-.04-.04-.13-.13-.25-.26-.39-.39-.01-.01-.03-.03-.04-.04-.13-.13-.25-.26-.39-.39-.01-.01-.03-.03-.04-.04-.13-.13-.25-.26-.39-.39-.01-.01-.03-.03-.04-.04-.13-.13-.25-.26-.39-.39-.01-.01-.03-.03-.04-.04-.13-.13-.25-.26-.39-.39-.01-.01-.03-.03-.04-.04-.13-.13-.25-.26-.39-.39-.01-.01-.03-.03-.04-.04-.13-.13-.25-.26-.39-.39-.01-.01-.03-.03-.04-.04-.13-.13-.25-.26-.39-.39-.01-.01-.03-.03-.04-.04-.13-.13-.25-.26-.39-.39-.01-.01-.03-.03-.04-.04-.13-.13-.25-.26-.39-.39-.01-.01-.03-.03-.04-.04-.13-.13-.25-.26-.39-.39-.01-.01-.03-.03-.04-.04-.13-.13-.25-.26-.39-.39-.01-.01-.03-.03-.04-.04-.13-.13-.25-.26-.39-.39-.01-.01-.03-.03-.04-.04-.13-.13-.25-.26-.39-.39-.01-.01-.03-.03-.04-.04-.13-.13-.25-.26-.39-.39-.01-.01-.03-.03-.04-.04-.13-.13-.25-.26-.39-.39-.01-.01-.03-.03-.04-.04-.13-.13-.25-.26-.39-.39-.01-.01-.03-.03-.04-.04-.13-.13-.25-.26-.39-.39-.01-.01-.03-.03-.04-.04-.13-.13-.25-.26-.39-.39-.01-.01-.03-.03-.04-.04-.13-.13-.25-.26-.39-.39-.01-.01-.03-.03-.04-.04-.13-.13-.25-.26-.39-.39-.01-.01-.03-.03-.04-.04-.13-.13-.25-.26-.39-.39-.01-.01-.03-.03-.04-.04-.13-.13-.25-.26-.39-.39-.01-.01-.03-.03-.04-.04-.13-.13-.25-.26-.39-.39-.01-.01-.03-.03-.04-.04-.13-.13-.25-.26-.39-.39-3.16-3.02-7.42-4.54-12.78-4.54-1.13,0-2.21,.07-3.24,.21l30.76-89.76h-.58l.15-.43h-.58l.15-.43h-.58l.15-.43h-.58l.15-.43h-.58l.15-.43h-.58l.15-.43h-.58l.15-.43h-.58l.15-.43h-.58l.15-.43h-.58l.15-.43h-.58l.15-.43h-.58l.15-.43h-.58l.15-.43h-.58l.15-.43h-.58l.15-.43h-.58l.15-.43h-.58l.15-.43h-.58l.15-.43h-.58l.15-.43h-.58l.15-.43h-.58l.15-.43h-.58l.15-.43h-.58l.15-.43h-.58l.15-.43h-.58l.15-.43h-.58l.15-.43h-.58l.15-.43h-.58l.15-.43h-.58l.15-.43h-13.6l-6.89,20.09c-.77-1.63-1.8-3.07-3.11-4.33-.01-.01-.03-.03-.04-.04-.13-.13-.25-.26-.39-.39-.01-.01-.03-.03-.04-.04-.13-.13-.25-.26-.39-.39-.01-.01-.03-.03-.04-.04-.13-.13-.25-.26-.39-.39-.01-.01-.03-.03-.04-.04-.13-.13-.25-.26-.39-.39-.01-.01-.03-.03-.04-.04-.13-.13-.25-.26-.39-.39-.01-.01-.03-.03-.04-.04-.13-.13-.25-.26-.39-.39-.01-.01-.03-.03-.04-.04-.13-.13-.25-.26-.39-.39-.01-.01-.03-.03-.04-.04-.13-.13-.25-.26-.39-.39-.01-.01-.03-.03-.04-.04-.13-.13-.25-.26-.39-.39-.01-.01-.03-.03-.04-.04-.13-.13-.25-.26-.39-.39-.01-.01-.03-.03-.04-.04-.13-.13-.25-.26-.39-.39-.01-.01-.03-.03-.04-.04-.13-.13-.25-.26-.39-.39-.01-.01-.03-.03-.04-.04-.13-.13-.25-.26-.39-.39-.01-.01-.03-.03-.04-.04-.13-.13-.25-.26-.39-.39-.01-.01-.03-.03-.04-.04-.13-.13-.25-.26-.39-.39-.01-.01-.03-.03-.04-.04-.13-.13-.25-.26-.39-.39-.01-.01-.03-.03-.04-.04-.13-.13-.25-.26-.39-.39-.01-.01-.03-.03-.04-.04-.13-.13-.25-.26-.39-.39-.01-.01-.03-.03-.04-.04-.13-.13-.25-.26-.39-.39-.01-.01-.03-.03-.04-.04-.13-.13-.25-.26-.39-.39-.01-.01-.03-.03-.04-.04-.13-.13-.25-.26-.39-.39-.01-.01-.03-.03-.04-.04-.13-.13-.25-.26-.39-.39-.01-.01-.03-.03-.04-.04-.13-.13-.25-.26-.39-.39-.01-.01-.03-.03-.04-.04-.13-.13-.25-.26-.39-.39-.01-.01-.03-.03-.04-.04-.13-.13-.25-.26-.39-.39-.01-.01-.03-.03-.04-.04-.13-.13-.25-.26-.39-.39-.01-.01-.03-.03-.04-.04-.13-.13-.25-.26-.39-.39-.01-.01-.03-.03-.04-.04-.13-.13-.25-.26-.39-.39-.01-.01-.03-.03-.04-.04-.13-.13-.25-.26-.39-.39-3.16-3.02-7.42-4.54-12.78-4.54s-9.62,1.51-12.78,4.54c-3.16,3.02-4.74,7.15-4.74,12.37v11.82c-1.58-2.96-3.53-5.56-5.87-7.8,0,0,0,0-.01-.01-.14-.14-.27-.28-.42-.42,0,0,0,0-.01-.01-.14-.14-.27-.28-.42-.42,0,0,0,0-.01-.01-.14-.14-.27-.28-.42-.42,0,0,0,0-.01-.01-.14-.14-.27-.28-.42-.42,0,0,0,0-.01-.01-.14-.14-.27-.28-.42-.42,0,0,0,0-.01-.01-.14-.14-.27-.28-.42-.42,0,0,0,0-.01-.01-.14-.14-.27-.28-.42-.42,0,0,0,0-.01-.01-.14-.14-.27-.28-.42-.42,0,0,0,0-.01-.01-.14-.14-.27-.28-.42-.42,0,0,0,0-.01-.01-.14-.14-.27-.28-.42-.42,0,0,0,0-.01-.01-.14-.14-.27-.28-.42-.42,0,0,0,0-.01-.01-.14-.14-.27-.28-.42-.42,0,0,0,0-.01-.01-.14-.14-.27-.28-.42-.42,0,0,0,0-.01-.01-.14-.14-.27-.28-.42-.42,0,0,0,0-.01-.01-.14-.14-.27-.28-.42-.42,0,0,0,0-.01-.01-.14-.14-.27-.28-.42-.42,0,0,0,0-.01-.01-.14-.14-.27-.28-.42-.42,0,0,0,0-.01-.01-.14-.14-.27-.28-.42-.42,0,0,0,0-.01-.01-.14-.14-.27-.28-.42-.42,0,0,0,0-.01-.01-.14-.14-.27-.28-.42-.42,0,0,0,0-.01-.01-.14-.14-.27-.28-.42-.42,0,0,0,0-.01-.01-.14-.14-.27-.28-.42-.42,0,0,0,0-.01-.01-.14-.14-.27-.28-.42-.42,0,0,0,0-.01-.01-.14-.14-.27-.28-.42-.42,0,0,0,0-.01-.01-.14-.14-.27-.28-.42-.42,0,0,0,0-.01-.01-.14-.14-.27-.28-.42-.42,0,0,0,0-.01-.01-.14-.14-.27-.28-.42-.42,0,0,0,0-.01-.01-.14-.14-.27-.28-.42-.42,0,0,0,0-.01-.01-.14-.14-.27-.28-.42-.42-2.88-2.75-6.22-4.84-10-6.29-3.78-1.44-7.73-2.16-11.85-2.16s-8.07,.72-11.85,2.16c-3.78,1.44-7.11,3.54-10,6.29-2.88,2.75-5.19,6.05-6.91,9.89-1.72,3.85-2.58,8.24-2.58,13.19v86.15c0,4.95,.86,9.34,2.58,13.19,1.72,3.85,4.02,7.15,6.91,9.89,0,0,0,0,0,0,.14,.14,.28,.29,.42,.42h0c.14,.15,.28,.29,.42,.43,0,0,0,0,0,0,.14,.14,.28,.29,.42,.42,0,0,0,0,0,0,.14,.14,.28,.29,.42,.42,0,0,0,0,0,0,.14,.14,.28,.29,.42,.42,0,0,0,0,0,0,.14,.14,.28,.29,.42,.42h0c.14,.15,.28,.29,.42,.43,0,0,0,0,0,0,.14,.14,.28,.29,.42,.42,0,0,0,0,0,0,.14,.14,.28,.29,.42,.42,0,0,0,0,0,0,.14,.14,.28,.29,.42,.42,0,0,0,0,0,0,.14,.14,.28,.29,.42,.42h0c.14,.15,.28,.29,.42,.43,0,0,0,0,0,0,.14,.14,.28,.29,.42,.42,0,0,0,0,0,0,.14,.14,.28,.29,.42,.42,0,0,0,0,0,0,.14,.14,.28,.29,.42,.42,0,0,0,0,0,0,.14,.14,.28,.29,.42,.42,0,0,0,0,0,0,.14,.14,.28,.29,.42,.42h0c.14,.15,.28,.29,.42,.43,0,0,0,0,0,0,.14,.14,.28,.29,.42,.42,0,0,0,0,0,0,.14,.14,.28,.29,.42,.42,0,0,0,0,0,0,.14,.14,.28,.29,.42,.42,0,0,0,0,0,0,.14,.14,.28,.29,.42,.42h0c.14,.15,.28,.29,.42,.43,0,0,0,0,0,0,.14,.14,.28,.29,.42,.42,0,0,0,0,0,0,.14,.14,.28,.29,.42,.42,0,0,0,0,0,0,.14,.14,.28,.29,.42,.42,0,0,0,0,0,0,.14,.14,.28,.29,.42,.42h0c.14,.15,.28,.29,.42,.43,0,0,0,0,0,0,.14,.14,.28,.29,.42,.42,2.88,2.75,6.21,4.84,10,6.29,3.78,1.44,7.73,2.16,11.85,2.16s8.07-.72,11.85-2.16c3.78-1.44,7.11-3.54,10-6.29,2.88-2.75,5.19-6.04,6.91-9.89,1.72-3.84,2.58-8.24,2.58-13.19V99.39c0-1.28-.06-2.52-.17-3.72,.31,.37,.65,.72,1,1.06,.14,.15,.28,.29,.43,.43,.14,.15,.28,.29,.43,.43,.14,.15,.28,.29,.43,.43,.14,.15,.28,.29,.43,.43,.14,.15,.28,.29,.43,.43,.14,.15,.28,.29,.43,.43,.14,.15,.28,.29,.43,.43,.14,.15,.28,.29,.43,.43,.14,.15,.28,.29,.43,.43,.14,.15,.28,.29,.43,.43,.14,.15,.28,.29,.43,.43,.14,.15,.28,.29,.43,.43,.14,.15,.28,.29,.43,.43,.14,.15,.28,.29,.43,.43,.14,.15,.28,.29,.43,.43,.14,.15,.28,.29,.43,.43,.14,.15,.28,.29,.43,.43,.14,.15,.28,.29,.43,.43,.14,.15,.28,.29,.43,.43,.14,.15,.28,.29,.43,.43,.14,.15,.28,.29,.43,.43,.14,.15,.28,.29,.43,.43,.14,.15,.28,.29,.43,.43,.14,.15,.28,.29,.43,.43,.14,.15,.28,.29,.43,.43,.14,.15,.28,.29,.43,.43,.14,.15,.28,.29,.43,.43,.14,.15,.28,.29,.43,.43,.24,.25,.48,.49,.74,.73,3.16,2.88,7.42,4.33,12.78,4.33,1.13,0,2.21-.07,3.24-.2l-30.76,89.75h.58l-.15,.43h.58l-.15,.43h.58l-.15,.43h.58l-.15,.43h.58l-.15,.43h.58l-.15,.43h.58l-.15,.43h.58l-.15,.43h.58l-.15,.43h.58l-.15,.43h.58l-.15,.43h.58l-.15,.43h.58l-.15,.43h.58l-.15,.43h.58l-.15,.43h.58l-.15,.43h.58l-.15,.43h.58l-.15,.43h.58l-.15,.43h.58l-.15,.43h.58l-.15,.43h.58l-.15,.43h.58l-.15,.43h.58l-.15,.43h.58l-.15,.43h.58l-.15,.43h.58l-.15,.43h.58l-.15,.43h.58l-.15,.43h13.6l6.79-19.8c.71,1.46,1.68,2.77,2.9,3.94,.14,.15,.28,.29,.43,.43,.14,.15,.28,.29,.43,.43,.14,.15,.28,.29,.43,.43,.14,.15,.28,.29,.43,.43,.14,.15,.28,.29,.43,.43,.14,.15,.28,.29,.43,.43,.14,.15,.28,.29,.43,.43,.14,.15,.28,.29,.43,.43,.14,.15,.28,.29,.43,.43,.14,.15,.28,.29,.43,.43,.14,.15,.28,.29,.43,.43,.14,.15,.28,.29,.43,.43,.14,.15,.28,.29,.43,.43,.14,.15,.28,.29,.43,.43,.14,.15,.28,.29,.43,.43,.14,.15,.28,.29,.43,.43,.14,.15,.28,.29,.43,.43,.14,.15,.28,.29,.43,.43,.14,.15,.28,.29,.43,.43,.14,.15,.28,.29,.43,.43,.14,.15,.28,.29,.43,.43,.14,.15,.28,.29,.43,.43,.14,.15,.28,.29,.43,.43,.14,.15,.28,.29,.43,.43,.14,.15,.28,.29,.43,.43,.14,.15,.28,.29,.43,.43,.14,.15,.28,.29,.43,.43,.14,.15,.28,.29,.43,.43,.24,.25,.48,.49,.74,.73,3.16,2.88,7.42,4.33,12.78,4.33s9.62-1.44,12.78-4.33c3.16-2.88,4.74-6.66,4.74-11.34v-13.4c0-5.22-1.58-9.34-4.74-12.37l-.06,.07Zm-106.46-2.58c0,3.02-.96,5.53-2.88,7.52-1.45,1.5-3.2,2.43-5.25,2.8V99.39c0-3.02,.96-5.53,2.88-7.52,1.44-1.49,3.19-2.43,5.25-2.8v84.01Z"/>
        </g>
        <g>
          <path class="cls-3" d="M34.94,118.03c6.32,0,10.68-.75,13.09-2.27,2.4-1.51,3.61-5.01,3.61-10.51v-18.96c0-3.02-.93-5.49-2.78-7.42-1.86-1.92-4.36-2.88-7.52-2.88-3.71,0-6.36,1.17-7.93,3.5-1.58,2.34-2.37,4.6-2.37,6.8v11.95H10v-12.16c0-4.26,.82-8.31,2.47-12.16,1.65-3.84,3.92-7.14,6.8-9.89,2.88-2.75,6.25-4.95,10.1-6.6,3.84-1.65,7.97-2.47,12.37-2.47,5.77,0,10.54,1.13,14.32,3.4,3.78,2.27,6.63,4.57,8.55,6.91,1.37,1.65,2.58,3.3,3.61,4.95,1.03,1.65,1.89,3.64,2.58,5.98,1.24,4.53,1.86,11.27,1.86,20.2,0,5.08-.1,9.21-.31,12.37-.21,3.16-.72,5.77-1.55,7.83-.96,2.2-2.3,4.06-4.02,5.56-1.72,1.51-4.09,3.16-7.11,4.95,3.3,2.06,5.8,3.99,7.52,5.77,1.72,1.79,2.99,3.85,3.81,6.18,.82,2.47,1.3,5.39,1.44,8.76,.14,3.37,.21,7.66,.21,12.88,0,4.81-.1,8.8-.31,11.95-.21,3.16-.51,5.77-.93,7.83-.41,2.2-.96,4.06-1.65,5.56-.69,1.51-1.58,3.09-2.68,4.74-2.61,3.85-5.95,7.04-10,9.58-4.06,2.54-9.38,3.81-15.97,3.81-3.3,0-6.8-.55-10.51-1.65-3.71-1.1-7.08-2.88-10.1-5.36-3.02-2.47-5.53-5.7-7.52-9.69-1.99-3.98-2.99-8.86-2.99-14.63v-11.95H31.02v10.92c0,3.3,.93,6.01,2.78,8.14,1.86,2.13,4.36,3.19,7.52,3.19s5.67-1.06,7.52-3.19c1.86-2.13,2.78-4.98,2.78-8.55v-21.02c0-5.77-1.1-9.55-3.3-11.34-1.24-1.1-2.92-1.78-5.05-2.06-2.13-.27-4.91-.41-8.35-.41v-18.55h0Z"/>
          <path class="cls-3" d="M86.67,86.49c0-4.95,.86-9.34,2.58-13.19,1.72-3.84,4.02-7.14,6.91-9.89,2.88-2.75,6.21-4.84,10-6.29,3.78-1.44,7.73-2.16,11.85-2.16s8.07,.72,11.85,2.16c3.78,1.44,7.11,3.54,10,6.29,2.88,2.75,5.19,6.05,6.91,9.89,1.72,3.85,2.58,8.24,2.58,13.19v86.15c0,4.95-.86,9.34-2.58,13.19-1.72,3.85-4.02,7.15-6.91,9.89-2.88,2.75-6.22,4.84-10,6.29-3.78,1.44-7.73,2.16-11.85,2.16s-8.07-.72-11.85-2.16c-3.78-1.44-7.11-3.54-10-6.29-2.88-2.75-5.19-6.04-6.91-9.89-1.72-3.84-2.58-8.24-2.58-13.19V86.49Zm21.02,86.15c0,3.02,.96,5.53,2.88,7.52,1.92,1.99,4.4,2.99,7.42,2.99s5.49-.99,7.42-2.99c1.92-1.99,2.88-4.5,2.88-7.52V86.49c0-3.02-.96-5.53-2.88-7.52-1.92-1.99-4.4-2.99-7.42-2.99s-5.5,1-7.42,2.99c-1.92,1.99-2.88,4.5-2.88,7.52v86.15Z"/>
          <path class="cls-3" d="M175.72,100.92c-5.36,0-9.62-1.44-12.78-4.33-3.16-2.88-4.74-6.66-4.74-11.34v-13.4c0-5.22,1.58-9.34,4.74-12.37,3.16-3.02,7.42-4.54,12.78-4.54s9.62,1.51,12.78,4.54c3.16,3.02,4.74,7.15,4.74,12.37v13.4c0,4.67-1.58,8.45-4.74,11.34-3.16,2.88-7.42,4.33-12.78,4.33Zm-15.05,102.03L210.96,56.19h13.6l-50.29,146.75h-13.6Zm15.05-114.39c1.37,0,2.58-.51,3.61-1.55,1.03-1.03,1.55-2.3,1.55-3.81v-10.51c0-1.51-.51-2.78-1.55-3.81-1.03-1.03-2.23-1.55-3.61-1.55s-2.58,.51-3.61,1.55c-1.03,1.03-1.55,2.3-1.55,3.81v10.51c0,1.51,.51,2.78,1.55,3.81,1.03,1.03,2.23,1.55,3.61,1.55Zm33.8,115.63c-5.36,0-9.62-1.44-12.78-4.33-3.16-2.88-4.74-6.66-4.74-11.34v-13.4c0-5.22,1.58-9.34,4.74-12.37,3.16-3.02,7.42-4.54,12.78-4.54s9.62,1.51,12.78,4.54c3.16,3.02,4.74,7.15,4.74,12.37v13.4c0,4.67-1.58,8.45-4.74,11.34-3.16,2.88-7.42,4.33-12.78,4.33Zm-5.15-17.73c0,1.51,.51,2.78,1.55,3.81,1.03,1.03,2.23,1.55,3.61,1.55s2.58-.51,3.61-1.55c1.03-1.03,1.55-2.3,1.55-3.81v-10.51c0-1.51-.51-2.78-1.55-3.81-1.03-1.03-2.23-1.55-3.61-1.55s-2.58,.51-3.61,1.55c-1.03,1.03-1.55,2.3-1.55,3.81v10.51Z"/>
        </g>
      </g>
    </g>
  </g>
</svg>