<?xml version="1.0" encoding="utf-8"?>
<!-- Generator: Adobe Illustrator 27.0.0, SVG Export Plug-In . SVG Version: 6.00 Build 0)  -->
<svg version="1.1" id="Capa_2_00000116922306630166858750000010917285280309543075_"
	 xmlns="http://www.w3.org/2000/svg" xmlns:xlink="http://www.w3.org/1999/xlink" x="0px" y="0px" viewBox="0 0 35.7 50"
	 style="enable-background:new 0 0 35.7 50;" xml:space="preserve">
<style type="text/css">
	.st0{fill:#EEEEEE;}
</style>
<g id="cv">
	<path class="st0" d="M33.6,0H2.1C1,0,0,1,0,2.1v45.7C0,49,1,50,2.1,50h31.4c1.2,0,2.1-1,2.1-2.1V2.1C35.7,1,34.8,0,33.6,0z
		 M17.9,3.5c3.2,0,5.8,2.6,5.8,5.8s-2.6,5.8-5.8,5.8s-5.8-2.6-5.8-5.8S14.7,3.6,17.9,3.5z M6.1,26.3C6.9,20.5,11.9,16,17.9,16
		s11,4.5,11.7,10.3c0.1,0.8-0.5,1.6-1.3,1.6H7.5C6.7,27.8,6,27.1,6.1,26.3z M9.6,44.4c0.4,0.4,1,0.6,1.8,0.6c0.5,0,0.9-0.1,1.2-0.2
		c0.3-0.2,0.5-0.4,0.6-0.6c0.1-0.2,0.2-0.5,0.3-0.8s0.1-0.5,0.1-0.8s0.2-0.6,0.4-0.7c0.3-0.1,0.6-0.2,1-0.2c0.5,0,0.9,0.1,1.1,0.3
		c0.2,0.2,0.4,0.6,0.4,1.1c0,0.9-0.2,1.7-0.7,2.3c-0.4,0.7-1.1,1.2-1.9,1.5c-0.8,0.4-1.7,0.5-2.7,0.5c-0.9,0-1.8-0.2-2.5-0.5
		S7.3,46,6.8,45.3s-0.7-1.7-0.7-2.9v-6.2c0-1.2,0.2-2.2,0.7-2.9c0.5-0.8,1.1-1.3,1.9-1.6c0.8-0.3,1.6-0.5,2.6-0.5s1.9,0.2,2.7,0.5
		s1.4,0.8,1.9,1.4c0.5,0.6,0.7,1.4,0.7,2.2c0,0.6-0.1,1-0.4,1.1s-0.6,0.3-1.1,0.3c-0.4,0-0.7-0.1-1-0.2s-0.4-0.4-0.4-0.7
		c0-0.2,0-0.4-0.1-0.6c-0.1-0.2-0.1-0.5-0.3-0.7c-0.1-0.2-0.4-0.4-0.7-0.6c-0.3-0.2-0.7-0.2-1.2-0.2c-0.8,0-1.3,0.2-1.7,0.6
		c-0.4,0.4-0.6,1-0.6,1.9v6.2C9,43.3,9.2,44,9.6,44.4L9.6,44.4z M29.6,32.5L29.6,32.5l-4.3,14c-0.1,0.3-0.3,0.6-0.7,0.7
		c-0.4,0.2-0.8,0.2-1.2,0.2s-0.8-0.1-1.2-0.2s-0.6-0.4-0.7-0.7l-4.3-13.9c0-0.1,0-0.2,0-0.2c0-0.2,0.1-0.4,0.3-0.6
		c0.2-0.2,0.4-0.3,0.7-0.4c0.3-0.1,0.6-0.2,0.8-0.2c0.2,0,0.4,0,0.6,0.1s0.3,0.2,0.3,0.5l3.4,12l3.4-12c0.1-0.2,0.2-0.4,0.4-0.5
		c0.2-0.1,0.4-0.1,0.6-0.1c0.3,0,0.5,0.1,0.8,0.2s0.5,0.2,0.7,0.4c0.2,0.2,0.3,0.4,0.3,0.6C29.6,32.5,29.6,32.5,29.6,32.5L29.6,32.5
		z"/>
</g>
</svg>
