<?xml version="1.0" encoding="utf-8"?>
<!-- Generator: Adobe Illustrator 27.0.0, SVG Export Plug-In . SVG Version: 6.00 Build 0)  -->
<svg version="1.1" id="Capa_2_00000074441551892452398780000006575873379677137073_"
	 xmlns="http://www.w3.org/2000/svg" xmlns:xlink="http://www.w3.org/1999/xlink" x="0px" y="0px" viewBox="0 0 51.3 50"
	 style="enable-background:new 0 0 51.3 50;" xml:space="preserve">
<style type="text/css">
	.st0{fill:#EEEEEE;}
</style>
<g id="github">
	<g>
		<path class="st0" d="M16.1,41.6c0,0.2,0.2,0.4,0.6,0.4c0.3,0,0.5-0.2,0.5-0.4s-0.2-0.4-0.5-0.4C16.4,41.2,16.1,41.4,16.1,41.6z"/>
		<path class="st0" d="M18.7,41.2c-0.3,0-0.5,0.3-0.5,0.5s0.3,0.3,0.6,0.3c0.3-0.1,0.5-0.3,0.5-0.5C19.3,41.3,19,41.1,18.7,41.2
			L18.7,41.2z"/>
		<path class="st0" d="M25.6,0C11.5,0,0,11.5,0,25.6c0,11.4,7.3,21,17.5,24.3c1.3,0.2,1.8-0.6,1.8-1.2c0-0.6,0-2.6,0-4.8
			c-7.1,1.5-8.6-3-8.6-3c-1.2-3-2.8-3.8-2.8-3.8c-2.3-1.6,0.2-1.6,0.2-1.6c2.6,0.2,3.9,2.6,3.9,2.6c2.3,3.9,6,2.8,7.5,2.1
			c0.2-1.7,0.9-2.8,1.6-3.4C15.4,36.1,9.4,34,9.4,24.1c0-2.8,1-5.1,2.6-6.9c-0.3-0.6-1.1-3.2,0.2-6.8c0,0,2.2-0.7,7.1,2.6
			c2-0.6,4.2-0.9,6.4-0.9s4.4,0.3,6.4,0.9c4.9-3.3,7-2.6,7-2.6c1.4,3.5,0.5,6.1,0.2,6.8c1.6,1.8,2.6,4.1,2.6,6.9
			c0,9.9-6,12-11.7,12.6c0.9,0.8,1.7,2.4,1.7,4.8c0,3.4,0,6.2,0,7c0,0.7,0.5,1.5,1.8,1.2c10.2-3.4,17.5-13,17.5-24.3
			C51.3,11.5,39.8,0,25.6,0z"/>
		<path class="st0" d="M14,41c-0.1,0.2,0.1,0.4,0.4,0.5s0.6,0,0.6-0.2c0.1-0.2-0.1-0.4-0.4-0.5S14.1,40.8,14,41z"/>
		<path class="st0" d="M10.3,37c-0.1,0.1-0.1,0.3,0.1,0.5c0.2,0.2,0.4,0.2,0.5,0.1c0.1-0.1,0.1-0.3-0.1-0.5S10.4,36.9,10.3,37z"/>
		<path class="st0" d="M8.9,36.2c-0.1,0.1,0,0.3,0.2,0.4c0.2,0.1,0.4,0,0.4-0.1c0.1-0.1,0-0.3-0.2-0.4S9,36.1,8.9,36.2z"/>
		<path class="st0" d="M11.2,38.2c-0.2,0.1-0.2,0.4,0,0.6s0.4,0.3,0.6,0.2c0.2-0.1,0.2-0.4,0-0.6C11.6,38.2,11.3,38.1,11.2,38.2
			L11.2,38.2z"/>
		<path class="st0" d="M12.4,40c-0.1,0.2-0.1,0.5,0.1,0.7c0.2,0.2,0.5,0.2,0.7,0.1c0.1-0.2,0.1-0.5-0.1-0.7
			C12.8,39.9,12.5,39.8,12.4,40L12.4,40z"/>
	</g>
</g>
</svg>
