<?xml version="1.0" encoding="utf-8"?>
<!-- Generator: Adobe Illustrator 27.0.0, SVG Export Plug-In . SVG Version: 6.00 Build 0)  -->
<svg version="1.1" id="Capa_2_00000047049390327556939440000014635427023497625276_"
	 xmlns="http://www.w3.org/2000/svg" xmlns:xlink="http://www.w3.org/1999/xlink" x="0px" y="0px" viewBox="0 0 50 50"
	 style="enable-background:new 0 0 50 50;" xml:space="preserve">
<style type="text/css">
	.st0{fill:#EEEEEE;}
</style>
<g id="linkedin">
	<path class="st0" d="M46.3,0H3.7C1.7,0,0,1.6,0,3.6v42.8c0,2,1.7,3.6,3.7,3.6h42.6c2,0,3.7-1.6,3.7-3.6V3.6C50,1.6,48.3,0,46.3,0z
		 M14.8,42.6H7.4V18.7h7.4V42.6z M11.1,15.5c-2.4,0-4.3-1.9-4.3-4.3s1.9-4.3,4.3-4.3s4.3,1.9,4.3,4.3S13.5,15.5,11.1,15.5z
		 M42.6,42.6h-7.4V31c0-2.8-0.1-6.3-3.9-6.3s-4.4,3-4.4,6.1v11.8h-7.4V18.7h7.1V22h0.1c1-1.9,3.4-3.9,7-3.9c7.5,0,8.9,4.9,8.9,11.4
		V42.6z"/>
</g>
</svg>
