<?xml version="1.0" encoding="UTF-8" standalone="no"?>
<svg
   viewBox="0 0 50 18.796776"
   fill="none"
   version="1.1"
   id="svg2"
   sodipodi:docname="Udemy_logo.svg"
   inkscape:export-filename="../Desktop/Udemy_logo.svg"
   inkscape:export-xdpi="96"
   inkscape:export-ydpi="96"
   inkscape:version="1.3 (0e150ed, 2023-07-21)"
   width="50"
   height="18.796776"
   xmlns:inkscape="http://www.inkscape.org/namespaces/inkscape"
   xmlns:sodipodi="http://sodipodi.sourceforge.net/DTD/sodipodi-0.dtd"
   xmlns="http://www.w3.org/2000/svg"
   xmlns:svg="http://www.w3.org/2000/svg">
  <defs
     id="defs2" />
  <sodipodi:namedview
     id="namedview2"
     pagecolor="#ffffff"
     bordercolor="#cccccc"
     borderopacity="1"
     inkscape:showpageshadow="0"
     inkscape:pageopacity="1"
     inkscape:pagecheckerboard="0"
     inkscape:deskcolor="#d1d1d1"
     inkscape:export-bgcolor="#ffffff00"
     inkscape:zoom="5.3516484"
     inkscape:cx="13.26694"
     inkscape:cy="17.471253"
     inkscape:window-width="1440"
     inkscape:window-height="872"
     inkscape:window-x="0"
     inkscape:window-y="0"
     inkscape:window-maximized="1"
     inkscape:current-layer="svg2" />
  <path
     d="M 14.05,8.112 7.024,4.056 0,8.112 V 4.056 L 7.025,0 14.051,4.056 v 4.056 z"
     fill="#a435f0"
     id="path1"
     inkscape:export-filename="../Desktop/path2.svg"
     inkscape:export-xdpi="96"
     inkscape:export-ydpi="96"
     style="display:none" />
  <path
     d="m 0,11.518 h 3.68 v 8.941 c 0,2.31 1.725,3.436 3.345,3.436 1.634,0 3.346,-1.156 3.346,-3.467 v -8.91 h 3.68 v 9.154 c 0,2.128 -0.669,3.77 -2.007,4.896 -1.339,1.125 -3.011,1.673 -5.05,1.673 -2.037,0 -3.71,-0.547 -5.017,-1.673 C 0.669,24.443 0,22.862 0,20.763 Z M 45.866,22.63 c -1.114,0.992 -2.383,1.478 -3.83,1.478 -2.64,0 -4.41,-1.504 -4.61,-3.833 h 11.89 c 0,0 0.08,-0.752 0.08,-1.458 0,-2.19 -0.7,-4.015 -2.13,-5.505 -1.398,-1.49 -3.222,-2.22 -5.443,-2.22 -2.341,0 -4.258,0.73 -5.779,2.22 -1.49,1.49 -2.25,3.436 -2.25,5.87 v 0.12 c 0,2.403 0.76,4.319 2.25,5.749 1.49,1.429 3.467,2.159 5.87,2.159 2.794,0 5.017,-1.102 6.685,-3.002 z m -6.994,-7.463 c 0.82,-0.639 1.825,-0.973 2.95,-0.973 1.064,0 1.946,0.334 2.707,1.004 0.726,0.61 1.118,1.359 1.152,2.22 H 37.52 c 0.118,-0.89 0.568,-1.64 1.353,-2.25 z M 82.91,29.276 C 81.417,32.801 79.855,34 77.46,34 H 75.8 v -3.262 h 1.342 c 0.824,0 1.59,-0.31 2.32,-1.994 l 0.73,-1.686 -6.296,-15.54 h 3.741 l 4.471,11.192 4.593,-11.192 h 3.74 l -7.53,17.758 z M 28.377,5.649 v 7.257 c -1.206,-1.08 -3.082,-1.723 -4.896,-1.723 -2.16,0 -3.984,0.76 -5.474,2.31 -1.46,1.521 -2.19,3.406 -2.19,5.687 0,2.282 0.73,4.167 2.19,5.718 1.49,1.521 3.315,2.282 5.474,2.282 2.49,0 4.064,-0.979 4.896,-1.746 v 1.411 h 3.65 V 5.65 h -3.65 z m -1.095,16.878 c -0.882,0.882 -2.007,1.339 -3.315,1.339 -1.308,0 -2.372,-0.457 -3.254,-1.339 -0.85,-0.882 -1.277,-2.007 -1.277,-3.345 0,-1.339 0.426,-2.464 1.277,-3.346 0.882,-0.882 1.946,-1.338 3.254,-1.338 1.308,0 2.433,0.456 3.315,1.338 0.912,0.882 1.37,2.007 1.37,3.346 0,1.338 -0.458,2.463 -1.37,3.345 z m 40.94,-11.313 c -2.772,0 -4.213,1.15 -5.2,2.258 -0.395,-0.753 -1.507,-2.258 -4.105,-2.258 -2.196,0 -3.49,1.11 -4.136,1.9 V 11.52 h -3.618 v 15.327 h 3.618 v -8.82 c 0,-2.068 1.278,-3.558 2.98,-3.558 1.735,0 2.738,1.308 2.738,3.406 v 8.971 h 3.619 v -8.82 c 0,-2.098 1.246,-3.558 3.04,-3.558 1.734,0 2.737,1.308 2.737,3.405 v 8.972 h 3.65 v -9.488 c 0,-3.996 -2.148,-6.142 -5.323,-6.142 z"
     fill="#000000"
     id="path2"
     inkscape:export-filename="../Desktop/path2.svg"
     inkscape:export-xdpi="96"
     inkscape:export-ydpi="96"
     style="display:none" />
  <path
     id="path4"
     style="display:inline;fill:#ededed;fill-opacity:1;stroke-width:0.552843"
     d="m 0,6.367677 h 2.034476 v 4.943003 c 0,1.277095 0.95366,1.899595 1.849271,1.899595 0.90335,0 1.849825,-0.6391 1.849825,-1.916724 V 6.367677 h 2.034475 v 5.060764 c 0,1.176464 -0.369855,2.084234 -1.109565,2.706734 -0.740258,0.62195 -1.66462,0.924915 -2.791874,0.924915 -1.126147,0 -2.051061,-0.302413 -2.773631,-0.924915 C 0.369854,13.513225 0,12.639175 0,11.478757 Z m 25.356873,6.143248 c -0.61589,0.548412 -1.317448,0.8171 -2.117404,0.8171 -1.459528,0 -2.438058,-0.831485 -2.548643,-2.11905 h 6.573349 c 0,0 0.04425,-0.41575 0.04425,-0.80605 0,-1.21075 -0.387,-2.2197 -1.177554,-3.043436 -0.772897,-0.823734 -1.781286,-1.227314 -3.009148,-1.227314 -1.294213,0 -2.354026,0.40358 -3.1949,1.227314 -0.823749,0.823736 -1.243902,1.899586 -1.243902,3.245217 v 0.06627 c 0,1.328491 0.420153,2.387745 1.243902,3.178321 0.823746,0.790013 1.916707,1.193594 3.245202,1.193594 1.544649,0 2.773643,-0.609232 3.69579,-1.659643 z m -3.866617,-4.1259 c 0.453321,-0.353265 1.008941,-0.537917 1.630895,-0.537917 0.588224,0 1.07583,0.184652 1.496561,0.555065 0.401363,0.337225 0.618067,0.751302 0.636862,1.227302 h -4.511766 c 0.06523,-0.492027 0.314017,-0.90665 0.748003,-1.2439 z m 24.346267,7.800102 c -0.8254,1.948798 -1.688948,2.611648 -3.013027,2.611648 h -0.917721 v -1.803377 h 0.741912 c 0.455541,0 0.879038,-0.171373 1.282608,-1.102373 l 0.40358,-0.9321 -3.48072,-8.591248 h 2.068198 l 2.471771,6.187467 2.539232,-6.187467 H 50 l -4.162925,9.81745 z M 15.688125,3.123025 V 7.135029 C 15.021391,6.537975 13.984259,6.182475 12.981383,6.182475 c -1.194147,0 -2.202533,0.42017 -3.026267,1.277092 -0.807162,0.840863 -1.210741,1.882992 -1.210741,3.144029 0,1.261593 0.403579,2.303721 1.210741,3.161179 0.823734,0.840883 1.832676,1.2616 3.026267,1.2616 1.376592,0 2.246785,-0.54125 2.706742,-0.965274 v 0.780074 h 2.0179 v -11.7176 h -2.0179 z m -0.605354,9.33095 c -0.48762,0.4876 -1.109575,0.740252 -1.832697,0.740252 -0.723122,0 -1.31135,-0.252652 -1.798952,-0.740252 -0.469936,-0.4876 -0.705997,-1.109553 -0.705997,-1.849269 0,-0.74027 0.235505,-1.362225 0.705997,-1.849831 0.487602,-0.4876 1.07583,-0.7397 1.798952,-0.7397 0.723122,0 1.345077,0.2521 1.832697,0.7397 0.504192,0.487606 0.7574,1.109561 0.7574,1.849831 0,0.739716 -0.253208,1.361669 -0.7574,1.849269 z m 22.633531,-6.25435 c -1.532483,0 -2.329136,0.635767 -2.874804,1.248324 -0.218373,-0.416288 -0.833131,-1.248324 -2.269423,-1.248324 -1.214052,0 -1.92945,0.61365 -2.286594,1.0504 V 6.368787 h -2.000198 v 8.473488 h 2.000198 v -4.8761 c 0,-1.1433 0.706544,-1.967047 1.647494,-1.967047 0.959197,0 1.5137,0.723142 1.5137,1.882997 v 4.9596 h 2.000749 V 9.965623 c 0,-1.15989 0.688851,-1.967048 1.680651,-1.967048 0.958641,0 1.51315,0.723139 1.51315,1.88245 v 4.96015 h 2.017881 v -5.24541 c 0,-2.20919 -1.187527,-3.39559 -2.942804,-3.39559 z M 7.767492,4.484685 3.883194,2.242343 0,4.484685 V 2.242343 L 3.883747,0 l 3.8843,2.242343 v 2.242342 z"
     inkscape:export-filename="../Desktop/courses_udemy.png"
     inkscape:export-xdpi="96"
     inkscape:export-ydpi="96" />
</svg>
