<?xml version="1.0" encoding="UTF-8" standalone="no"?>
<svg
   viewBox="0 0 4550 639.09039"
   fill="none"
   version="1.1"
   id="svg2"
   sodipodi:docname="Udemy_logo.svg"
   width="4550"
   height="639.09039"
   xmlns:inkscape="http://www.inkscape.org/namespaces/inkscape"
   xmlns:sodipodi="http://sodipodi.sourceforge.net/DTD/sodipodi-0.dtd"
   xmlns="http://www.w3.org/2000/svg"
   xmlns:svg="http://www.w3.org/2000/svg">
  <defs
     id="defs2" />
  <sodipodi:namedview
     id="namedview2"
     pagecolor="#ffffff"
     bordercolor="#cccccc"
     borderopacity="1"
     inkscape:showpageshadow="0"
     inkscape:pageopacity="1"
     inkscape:pagecheckerboard="0"
     inkscape:deskcolor="#d1d1d1" />
  <path
     d="m 31.054108,-1230.7586 -7.026,-4.056 -7.024,4.056 v -4.056 l 7.025,-4.056 7.026,4.056 v 4.056 z"
     fill="#a435f0"
     id="path1" />
  <path
     d="m 17.004108,-1227.3526 h 3.68 v 8.941 c 0,2.31 1.725,3.436 3.345,3.436 1.634,0 3.346,-1.156 3.346,-3.467 v -8.91 h 3.68 v 9.154 c 0,2.128 -0.669,3.77 -2.007,4.896 -1.339,1.125 -3.011,1.673 -5.05,1.673 -2.037,0 -3.71,-0.547 -5.017,-1.673 -1.308,-1.125 -1.977,-2.706 -1.977,-4.805 z m 45.866,11.112 c -1.114,0.992 -2.383,1.478 -3.83,1.478 -2.64,0 -4.41,-1.504 -4.61,-3.833 h 11.89 c 0,0 0.08,-0.752 0.08,-1.458 0,-2.19 -0.7,-4.015 -2.13,-5.505 -1.398,-1.49 -3.222,-2.22 -5.443,-2.22 -2.341,0 -4.258,0.73 -5.779,2.22 -1.49,1.49 -2.25,3.436 -2.25,5.87 v 0.12 c 0,2.403 0.76,4.319 2.25,5.749 1.49,1.429 3.467,2.159 5.87,2.159 2.794,0 5.017,-1.102 6.685,-3.002 z m -6.994,-7.463 c 0.82,-0.639 1.825,-0.973 2.95,-0.973 1.064,0 1.946,0.334 2.707,1.004 0.726,0.61 1.118,1.359 1.152,2.22 h -8.161 c 0.118,-0.89 0.568,-1.64 1.353,-2.25 z m 44.038,14.109 c -1.493,3.525 -3.055,4.724 -5.45,4.724 h -1.66 v -3.262 h 1.342 c 0.824,0 1.59,-0.31 2.32,-1.994 l 0.73,-1.686 -6.296,-15.54 h 3.741 l 4.471,11.192 4.593002,-11.192 h 3.74 l -7.530002,17.758 z m -54.533,-23.627 v 7.257 c -1.206,-1.08 -3.082,-1.723 -4.896,-1.723 -2.16,0 -3.984,0.76 -5.474,2.31 -1.46,1.521 -2.19,3.406 -2.19,5.687 0,2.282 0.73,4.167 2.19,5.718 1.49,1.521 3.315,2.282 5.474,2.282 2.49,0 4.064,-0.979 4.896,-1.746 v 1.411 h 3.65 v -21.195 h -3.65 z m -1.095,16.878 c -0.882,0.882 -2.007,1.339 -3.315,1.339 -1.308,0 -2.372,-0.457 -3.254,-1.339 -0.85,-0.882 -1.277,-2.007 -1.277,-3.345 0,-1.339 0.426,-2.464 1.277,-3.346 0.882,-0.882 1.946,-1.338 3.254,-1.338 1.308,0 2.433,0.456 3.315,1.338 0.912,0.882 1.37,2.007 1.37,3.346 0,1.338 -0.458,2.463 -1.37,3.345 z m 40.94,-11.313 c -2.772,0 -4.213,1.15 -5.2,2.258 -0.395,-0.753 -1.507,-2.258 -4.105,-2.258 -2.196,0 -3.49,1.11 -4.136,1.9 v -1.594 h -3.618 v 15.327 h 3.618 v -8.82 c 0,-2.068 1.278,-3.558 2.98,-3.558 1.735,0 2.738,1.308 2.738,3.406 v 8.971 h 3.619 v -8.82 c 0,-2.098 1.246,-3.558 3.04,-3.558 1.734,0 2.737,1.308 2.737,3.405 v 8.972 h 3.65 v -9.488 c 0,-3.996 -2.148,-6.142 -5.323,-6.142 z"
     fill="#000000"
     id="path2" />
  <path
     id="path4"
     style="fill:#ededed;fill-opacity:1;stroke-width:0.552843"
     d="m 16.81725,-1196.0656 h 2.034476 v 4.943 c 0,1.2771 0.953661,1.8996 1.849272,1.8996 0.90335,0 1.849825,-0.6391 1.849825,-1.9167 v -4.9259 h 2.034475 v 5.0608 c 0,1.1765 -0.369856,2.0842 -1.109566,2.7067 -0.740257,0.622 -1.664619,0.925 -2.791873,0.925 -1.126148,0 -2.051061,-0.3025 -2.773631,-0.925 -0.723124,-0.6219 -1.092978,-1.496 -1.092978,-2.6564 z m 25.356873,6.1433 c -0.61589,0.5484 -1.317448,0.8171 -2.117404,0.8171 -1.459528,0 -2.438058,-0.8315 -2.548643,-2.1191 h 6.573349 c 0,0 0.04425,-0.4157 0.04425,-0.806 0,-1.2108 -0.387,-2.2197 -1.177554,-3.0434 -0.772897,-0.8238 -1.781286,-1.2274 -3.009148,-1.2274 -1.294213,0 -2.354026,0.4036 -3.1949,1.2274 -0.823749,0.8237 -1.243902,1.8995 -1.243902,3.2452 v 0.066 c 0,1.3285 0.420153,2.3878 1.243902,3.1784 0.823746,0.79 1.916707,1.1936 3.245202,1.1936 1.544649,0 2.773643,-0.6093 3.69579,-1.6597 z m -3.866617,-4.1259 c 0.453321,-0.3533 1.008941,-0.5379 1.630895,-0.5379 0.588224,0 1.07583,0.1846 1.496561,0.555 0.401363,0.3373 0.618067,0.7513 0.636862,1.2273 h -4.511766 c 0.06523,-0.492 0.314017,-0.9066 0.748003,-1.2439 z m 24.346267,7.8001 c -0.8254,1.9488 -1.688948,2.6116 -3.013027,2.6116 h -0.917721 v -1.8033 h 0.741912 c 0.455541,0 0.879038,-0.1714 1.282608,-1.1024 l 0.40358,-0.9321 -3.48072,-8.5913 h 2.068198 l 2.471771,6.1875 2.539232,-6.1875 h 2.067644 l -4.162925,9.8175 z m -30.148398,-13.0621 v 4.012 c -0.666734,-0.5971 -1.703866,-0.9526 -2.706742,-0.9526 -1.194147,0 -2.202533,0.4202 -3.026266,1.2771 -0.807162,0.8409 -1.210742,1.883 -1.210742,3.1441 0,1.2616 0.40358,2.3037 1.210742,3.1611 0.823733,0.8409 1.832675,1.2616 3.026266,1.2616 1.376592,0 2.246785,-0.5412 2.706742,-0.9652 v 0.78 h 2.0179 v -11.7176 h -2.0179 z m -0.605354,9.3309 c -0.48762,0.4876 -1.109575,0.7403 -1.832697,0.7403 -0.723122,0 -1.31135,-0.2527 -1.798952,-0.7403 -0.469936,-0.4876 -0.705997,-1.1095 -0.705997,-1.8492 0,-0.7403 0.235505,-1.3623 0.705997,-1.8499 0.487602,-0.4876 1.07583,-0.7397 1.798952,-0.7397 0.723122,0 1.345077,0.2521 1.832697,0.7397 0.504192,0.4876 0.7574,1.1096 0.7574,1.8499 0,0.7397 -0.253208,1.3616 -0.7574,1.8492 z m 22.633531,-6.2543 c -1.532483,0 -2.329136,0.6358 -2.874804,1.2483 -0.218373,-0.4163 -0.833131,-1.2483 -2.269423,-1.2483 -1.214052,0 -1.92945,0.6136 -2.286594,1.0504 v -0.8812 h -2.000198 v 8.4734 h 2.000198 v -4.8761 c 0,-1.1433 0.706544,-1.967 1.647494,-1.967 0.959197,0 1.5137,0.7231 1.5137,1.883 v 4.9596 h 2.000749 v -4.8761 c 0,-1.1599 0.688851,-1.9671 1.680651,-1.9671 0.958641,0 1.51315,0.7232 1.51315,1.8825 v 4.9601 h 2.017881 v -5.2454 c 0,-2.2092 -1.187527,-3.3956 -2.942804,-3.3956 z m -29.948809,-1.7149 -3.884299,-2.2424 -3.883194,2.2424 v -2.2424 l 3.883748,-2.2423 3.8843,2.2423 v 2.2424 z" />
</svg>
