<?xml version="1.0" encoding="UTF-8" standalone="no"?>
<svg
   viewBox="0 0 133.00154 50"
   fill="none"
   version="1.1"
   id="svg2"
   sodipodi:docname="Udemy_logo.svg"
   inkscape:export-filename="../Desktop/Udemy_logo.svg"
   inkscape:export-xdpi="96"
   inkscape:export-ydpi="96"
   inkscape:version="1.3 (0e150ed, 2023-07-21)"
   width="133.00154"
   height="50"
   xmlns:inkscape="http://www.inkscape.org/namespaces/inkscape"
   xmlns:sodipodi="http://sodipodi.sourceforge.net/DTD/sodipodi-0.dtd"
   xmlns="http://www.w3.org/2000/svg"
   xmlns:svg="http://www.w3.org/2000/svg">
  <defs
     id="defs2" />
  <sodipodi:namedview
     id="namedview2"
     pagecolor="#ffffff"
     bordercolor="#cccccc"
     borderopacity="1"
     inkscape:showpageshadow="0"
     inkscape:pageopacity="1"
     inkscape:pagecheckerboard="0"
     inkscape:deskcolor="#d1d1d1"
     inkscape:export-bgcolor="#ffffff00"
     inkscape:zoom="5.3516484"
     inkscape:cx="65.587269"
     inkscape:cy="26.066735"
     inkscape:window-width="1440"
     inkscape:window-height="872"
     inkscape:window-x="0"
     inkscape:window-y="0"
     inkscape:window-maximized="1"
     inkscape:current-layer="svg2" />
  <path
     d="M 14.05,8.112 7.024,4.056 0,8.112 V 4.056 L 7.025,0 14.051,4.056 v 4.056 z"
     fill="#a435f0"
     id="path1"
     inkscape:export-filename="../Desktop/path2.svg"
     inkscape:export-xdpi="96"
     inkscape:export-ydpi="96"
     style="display:none" />
  <path
     d="m 0,11.518 h 3.68 v 8.941 c 0,2.31 1.725,3.436 3.345,3.436 1.634,0 3.346,-1.156 3.346,-3.467 v -8.91 h 3.68 v 9.154 c 0,2.128 -0.669,3.77 -2.007,4.896 -1.339,1.125 -3.011,1.673 -5.05,1.673 -2.037,0 -3.71,-0.547 -5.017,-1.673 C 0.669,24.443 0,22.862 0,20.763 Z M 45.866,22.63 c -1.114,0.992 -2.383,1.478 -3.83,1.478 -2.64,0 -4.41,-1.504 -4.61,-3.833 h 11.89 c 0,0 0.08,-0.752 0.08,-1.458 0,-2.19 -0.7,-4.015 -2.13,-5.505 -1.398,-1.49 -3.222,-2.22 -5.443,-2.22 -2.341,0 -4.258,0.73 -5.779,2.22 -1.49,1.49 -2.25,3.436 -2.25,5.87 v 0.12 c 0,2.403 0.76,4.319 2.25,5.749 1.49,1.429 3.467,2.159 5.87,2.159 2.794,0 5.017,-1.102 6.685,-3.002 z m -6.994,-7.463 c 0.82,-0.639 1.825,-0.973 2.95,-0.973 1.064,0 1.946,0.334 2.707,1.004 0.726,0.61 1.118,1.359 1.152,2.22 H 37.52 c 0.118,-0.89 0.568,-1.64 1.353,-2.25 z M 82.91,29.276 C 81.417,32.801 79.855,34 77.46,34 H 75.8 v -3.262 h 1.342 c 0.824,0 1.59,-0.31 2.32,-1.994 l 0.73,-1.686 -6.296,-15.54 h 3.741 l 4.471,11.192 4.593,-11.192 h 3.74 l -7.53,17.758 z M 28.377,5.649 v 7.257 c -1.206,-1.08 -3.082,-1.723 -4.896,-1.723 -2.16,0 -3.984,0.76 -5.474,2.31 -1.46,1.521 -2.19,3.406 -2.19,5.687 0,2.282 0.73,4.167 2.19,5.718 1.49,1.521 3.315,2.282 5.474,2.282 2.49,0 4.064,-0.979 4.896,-1.746 v 1.411 h 3.65 V 5.65 h -3.65 z m -1.095,16.878 c -0.882,0.882 -2.007,1.339 -3.315,1.339 -1.308,0 -2.372,-0.457 -3.254,-1.339 -0.85,-0.882 -1.277,-2.007 -1.277,-3.345 0,-1.339 0.426,-2.464 1.277,-3.346 0.882,-0.882 1.946,-1.338 3.254,-1.338 1.308,0 2.433,0.456 3.315,1.338 0.912,0.882 1.37,2.007 1.37,3.346 0,1.338 -0.458,2.463 -1.37,3.345 z m 40.94,-11.313 c -2.772,0 -4.213,1.15 -5.2,2.258 -0.395,-0.753 -1.507,-2.258 -4.105,-2.258 -2.196,0 -3.49,1.11 -4.136,1.9 V 11.52 h -3.618 v 15.327 h 3.618 v -8.82 c 0,-2.068 1.278,-3.558 2.98,-3.558 1.735,0 2.738,1.308 2.738,3.406 v 8.971 h 3.619 v -8.82 c 0,-2.098 1.246,-3.558 3.04,-3.558 1.734,0 2.737,1.308 2.737,3.405 v 8.972 h 3.65 v -9.488 c 0,-3.996 -2.148,-6.142 -5.323,-6.142 z"
     fill="#000000"
     id="path2"
     inkscape:export-filename="../Desktop/path2.svg"
     inkscape:export-xdpi="96"
     inkscape:export-ydpi="96"
     style="display:none" />
  <path
     id="path4"
     style="display:inline;fill:#ededed;fill-opacity:1;stroke-width:1.47058"
     d="m 0,16.938217 h 5.4117688 v 13.14854 c 0,3.397113 2.5367651,5.052979 4.9191182,5.052979 2.402938,0 4.920591,-1.700026 4.920591,-5.098544 V 16.938217 h 5.411766 v 13.461788 c 0,3.129431 -0.983826,5.544126 -2.951477,7.199995 -1.969109,1.654408 -4.42794,2.460303 -7.426471,2.460303 C 7.2897105,40.060303 4.8294108,39.255877 2.9073525,37.6 0.98382304,35.945595 0,33.620593 0,30.533847 Z m 67.450064,16.341229 c -1.638287,1.45879 -3.504454,2.173512 -5.632363,2.173512 -3.882386,0 -6.485307,-2.211777 -6.779467,-5.636741 h 17.485309 c 0,0 0.117691,-1.105906 0.117691,-2.144116 0,-3.220633 -1.029431,-5.90447 -3.132328,-8.095634 -2.055927,-2.191158 -4.738276,-3.264693 -8.004424,-3.264693 -3.442647,0 -6.261782,1.073535 -8.498531,3.264693 -2.191197,2.191164 -3.308819,5.052957 -3.308819,8.632378 v 0.176272 c 0,3.533828 1.117622,6.351473 3.308819,8.454432 2.191186,2.101458 5.098497,3.174996 8.632336,3.174996 4.108813,0 7.377977,-1.620575 9.830914,-4.414701 z M 57.16474,22.304425 c 1.205851,-0.939696 2.683815,-1.430876 4.338234,-1.430876 1.564693,0 2.86174,0.49118 3.980899,1.47649 1.067635,0.897029 1.644076,1.998486 1.694071,3.264661 H 55.176507 c 0.173512,-1.308807 0.835296,-2.411717 1.98971,-3.308812 z m 64.76182,20.748512 C 119.73097,48.236799 117.43391,50 113.91182,50 h -2.44117 v -4.797039 h 1.97351 c 1.21175,0 2.33827,-0.455858 3.41178,-2.932347 l 1.07353,-2.479414 -9.25882,-22.852983 h 5.50147 l 6.57499,16.458851 6.75443,-16.458851 h 5.5 l -11.07351,26.11472 z M 41.730896,8.3073427 V 18.979397 c -1.773532,-1.588182 -4.532338,-2.533823 -7.200018,-2.533823 -3.176467,0 -5.858806,1.117665 -8.049963,3.397104 -2.147076,2.236721 -3.220608,5.008816 -3.220608,8.363214 0,3.355877 1.073532,6.127971 3.220608,8.408833 2.191157,2.236775 4.874975,3.355895 8.049963,3.355895 3.661777,0 5.976517,-1.439742 7.200018,-2.567659 v 2.075022 h 5.367675 V 8.3088056 h -5.367675 z m -1.61026,24.8206143 c -1.297085,1.297031 -2.951506,1.969093 -4.875031,1.969093 -1.923527,0 -3.488231,-0.672062 -4.785267,-1.969093 -1.250045,-1.297031 -1.877973,-2.951445 -1.877973,-4.919112 0,-1.969142 0.626449,-3.623561 1.877973,-4.920608 1.297036,-1.297031 2.86174,-1.967625 4.785267,-1.967625 1.923525,0 3.577946,0.670594 4.875031,1.967625 1.341167,1.297047 2.014708,2.951466 2.014708,4.920608 0,1.967667 -0.673541,3.622081 -2.014708,4.919112 z M 100.32652,16.491193 c -4.076449,0 -6.195568,1.69116 -7.647063,3.320581 -0.580881,-1.107339 -2.216153,-3.320581 -6.036736,-3.320581 -3.229415,0 -5.132394,1.632328 -6.082407,2.794097 V 16.941169 H 75.239723 V 39.48091 h 5.320591 V 26.510332 c 0,-3.041213 1.879425,-5.232405 4.382381,-5.232405 2.551495,0 4.026488,1.92358 4.026488,5.00883 v 13.192689 h 5.322054 V 26.508864 c 0,-3.085343 1.832367,-5.232408 4.470585,-5.232408 2.550018,0 4.025028,1.923572 4.025028,5.007375 v 13.194152 h 5.36762 V 25.52503 c 0,-5.876513 -3.15886,-9.032374 -7.82795,-9.032374 z M 20.661768,11.9294 10.329416,5.9647013 0,11.9294 V 5.9647013 L 10.330887,0 20.663244,5.9647013 V 11.9294 Z"
     inkscape:export-filename="../Desktop/courses_udemy.svg"
     inkscape:export-xdpi="153.21777"
     inkscape:export-ydpi="153.21777" />
</svg>
