<?xml version="1.0" encoding="UTF-8" standalone="no"?>
<svg
   class="lg:mr-40"
   width="162.26926"
   height="30"
   viewBox="0 0 162.26926 30"
   fill="none"
   version="1.1"
   id="svg8"
   sodipodi:docname="crehana-seeklogo.com.svg"
   inkscape:version="1.3 (0e150ed, 2023-07-21)"
   xmlns:inkscape="http://www.inkscape.org/namespaces/inkscape"
   xmlns:sodipodi="http://sodipodi.sourceforge.net/DTD/sodipodi-0.dtd"
   xmlns="http://www.w3.org/2000/svg"
   xmlns:svg="http://www.w3.org/2000/svg">
  <defs
     id="defs8" />
  <sodipodi:namedview
     id="namedview8"
     pagecolor="#ffffff"
     bordercolor="#cccccc"
     borderopacity="1"
     inkscape:showpageshadow="0"
     inkscape:pageopacity="1"
     inkscape:pagecheckerboard="0"
     inkscape:deskcolor="#d1d1d1"
     inkscape:zoom="2.2136364"
     inkscape:cx="95.77002"
     inkscape:cy="35.462012"
     inkscape:window-width="1440"
     inkscape:window-height="872"
     inkscape:window-x="0"
     inkscape:window-y="0"
     inkscape:window-maximized="1"
     inkscape:current-layer="svg8" />
  <path
     id="path7"
     style="fill:#ededed;fill-opacity:1;stroke-width:1.875"
     d="m 162.26925,9.2316 v 20.185275 h -6.72694 v -1.129687 c -1.60781,1.018499 -3.45581,1.536937 -5.52562,1.536937 -2.77219,0 -5.11913,-1.0185 -7.05957,-3.036937 -1.959,-2.055563 -2.95706,-4.555501 -2.95706,-7.5 0,-2.944482 0.9795,-5.444457 2.95706,-7.500019 1.94044,-2.0185315 4.28738,-3.0370127 7.05957,-3.0370127 2.06981,0 3.91781,0.5184937 5.52562,1.5370127 V 9.2131125 h 6.72694 z m -10.88513,15.074025 c 1.62638,0 3.01238,-0.629625 4.15819,-1.870313 v -6.296287 c -1.12725,-1.240725 -2.51344,-1.870387 -4.15819,-1.870387 -1.34906,0 -2.49487,0.4815 -3.40031,1.462987 -0.90562,0.962962 -1.36762,2.166656 -1.36762,3.574125 0,1.407375 0.462,2.592562 1.36762,3.555562 0.90544,0.963001 2.03288,1.444313 3.40031,1.444313 z M 128.25525,8.7222375 c 2.55038,0 4.62019,0.8518313 6.19106,2.5370255 1.57088,1.666668 2.3655,3.907443 2.3655,6.740774 v 11.537025 h -6.72694 v -10.4445 c 0,-1.388831 -0.33262,-2.444362 -0.97931,-3.166593 -0.64687,-0.722231 -1.5525,-1.074113 -2.71668,-1.074113 -1.27519,0 -2.49488,0.666713 -3.65925,2.000044 v 12.703725 h -6.76388 V 9.3703875 h 6.76388 v 1.3333315 c 1.71881,-1.3333315 3.56681,-1.9814815 5.52562,-1.9814815 z M 111.3825,9.3519938 V 29.53725 h -6.72694 v -1.129688 c -1.60781,1.0185 -3.45581,1.537125 -5.52581,1.537125 -2.772,0 -5.119125,-1.0185 -7.059562,-3.037124 -1.959,-2.055563 -2.956875,-4.5555 -2.956875,-7.5 0,-2.944463 0.9795,-5.444457 2.956875,-7.5 1.940437,-2.0185317 4.287562,-3.037013 7.059562,-3.037013 2.07,0 3.918,0.5184938 5.52581,1.537013 V 9.3335063 h 6.72694 z M 100.49738,24.426187 c 1.62637,0 3.01237,-0.629812 4.15818,-1.8705 v -6.296268 c -1.12743,-1.240744 -2.51344,-1.870388 -4.15819,-1.870388 -1.349058,0 -2.49487,0.4815 -3.400495,1.462988 -0.905438,0.962962 -1.367438,2.166656 -1.367438,3.574106 0,1.407375 0.462,2.592562 1.367438,3.555562 0.905625,0.963 2.051437,1.4445 3.400505,1.4445 z M 77.156438,8.7222188 c 2.550374,0 4.620187,0.8518499 6.191062,2.5370252 1.570875,1.666668 2.3655,3.907443 2.3655,6.740775 v 11.537043 h -6.726937 v -10.4445 c 0,-1.388849 -0.332625,-2.444381 -0.979501,-3.166612 -0.646687,-0.722212 -1.552312,-1.074094 -2.716499,-1.074094 -1.275188,0 -2.494875,0.666694 -3.65925,2.000025 V 29.555625 H 64.866938 V 0 h 6.763875 V 10.703719 C 73.349625,9.3703875 75.179062,8.7222188 77.156438,8.7222188 Z M 61.152,19.0185 c 0,1.074 -0.03694,1.888875 -0.129375,2.4075 h -14.34075 c 0.628312,2.166563 2.143687,3.24075 4.527562,3.24075 1.404563,0 2.439563,-0.4815 3.067875,-1.463063 h 6.69 C 60.468375,25.277812 59.322562,26.9445 57.548437,28.166625 55.75575,29.388937 53.630438,30 51.135563,30 47.864625,30 45.203437,29.018625 43.152,27.037125 41.137687,25.092562 40.121063,22.5555 40.121063,19.425937 c 0,-3.074099 0.9795,-5.611143 2.957062,-7.5741 2.014313,-1.9629745 4.620188,-2.962987 7.81725,-2.962987 2.9385,0 5.39625,0.9444563 7.35525,2.833331 C 60.191062,13.592569 61.152,16.0185 61.152,19.0185 Z M 50.858437,14.092556 c -2.236124,0 -3.640687,1.12965 -4.195124,3.370388 h 8.186812 c -0.369563,-2.240738 -1.70025,-3.370388 -3.991688,-3.370388 z M 38.3475,9.0183938 v 6.4074002 c -3.012375,0.111112 -5.340938,0.962962 -6.930187,2.537043 V 29.536875 H 24.65325 V 9.3517313 h 6.764063 V 11.518425 C 33.339188,9.8517562 35.649188,9.0183938 38.3475,9.0183938 Z M 11.051419,24.29625 c 1.016419,0 1.903462,-0.277687 2.624212,-0.83325 0.720732,-0.555563 1.164282,-1.296375 1.330594,-2.203688 h 6.357337 C 21.123375,23.87025 20.0145,25.9815 18.074025,27.592687 16.188994,29.203687 13.841944,30 11.014425,30 7.8357562,30 5.1930562,29.018625 3.123225,27.037125 1.0533975,25.092562 0,22.5555 0,19.425937 0,16.351838 1.0349175,13.8333 3.123225,11.88885 c 2.1067875,-2.0000062 4.7310187,-3 7.8912,-3 2.772075,0 5.119125,0.8148563 7.0596,2.463 1.940475,1.611113 3.030788,3.703688 3.289537,6.277762 H 15.006225 C 14.839913,16.722206 14.396363,15.98145 13.675631,15.425906 12.954881,14.870344 12.086325,14.5926 11.051419,14.5926 c -1.3860565,0 -2.4948752,0.44445 -3.3449815,1.333331 -0.8501063,0.8889 -1.2751688,2.055525 -1.2751688,3.500007 0,1.4445 0.4250625,2.611125 1.2751688,3.518437 0.8316188,0.9075 1.958925,1.351875 3.3449815,1.351875 z" />
</svg>
