<?xml version="1.0" encoding="UTF-8"?>
<svg id="Capa_2" data-name="Capa 2" xmlns="http://www.w3.org/2000/svg" viewBox="0 0 596.82 100">
  <defs>
    <style>
      .cls-1 {
        fill: #f0f0f0;
      }
    </style>
  </defs>
  <g id="Capa_3" data-name="Capa 3">
    <g>
      <path class="cls-1" d="M594.57,33.4h-6.74v-6.74c0-1.24-1.01-2.25-2.25-2.25h-6.74v-6.74c0-1.24-1.01-2.25-2.25-2.25h-8.99c-1.24,0-2.25,1.01-2.25,2.25v8.99c0,1.24,1.01,2.25,2.25,2.25h6.74v6.74c0,1.24,1.01,2.25,2.25,2.25h6.74v4.5h-6.74c-1.24,0-2.25,1.01-2.25,2.25v6.74h-6.74c-1.24,0-2.25,1.01-2.25,2.25v8.99c0,1.24,1.01,2.25,2.25,2.25h8.99c1.24,0,2.25-1.01,2.25-2.25v-6.74h6.74c1.24,0,2.25-1.01,2.25-2.25v-6.74h6.74c1.24,0,2.25-1.01,2.25-2.25v-8.99c0-1.24-1.01-2.25-2.25-2.25Zm-24.73-13.49h4.5v4.5h-4.5v-4.5Zm8.99,8.99h4.5v4.5h-4.5v-4.5Zm-4.5,31.47h-4.5v-4.5h4.5v4.5Zm8.99-8.99h-4.5v-4.5h4.5v4.5Zm8.99-8.99h-4.5v-4.5h4.5v4.5Z"/>
      <g>
        <path class="cls-1" d="M369.55,4.38h0c-4.3-2.9-9.16-4.38-14.46-4.38h-19.4V78.13h19.63c5.3-.04,10.16-1.56,14.46-4.54,4.27-2.96,7.65-7.12,10.02-12.37,2.35-5.2,3.55-11.1,3.55-17.55v-9.8c-.06-6.35-1.31-12.17-3.71-17.32-2.42-5.19-5.82-9.29-10.09-12.18Zm-2.75,64.64c-3.5,2.4-7.44,3.62-11.71,3.62h-14.28V5.5h14.63c4.21,.07,8.1,1.34,11.57,3.77,3.5,2.45,6.27,5.9,8.23,10.25,1.99,4.4,2.99,9.37,2.99,14.78v9.68c-.03,5.41-1.07,10.39-3.1,14.8-2.01,4.37-4.81,7.81-8.34,10.23Z"/>
        <path class="cls-1" d="M405.8,17.62c-3.74,0-7.24,1.32-10.38,3.94-3.08,2.56-5.52,6.14-7.26,10.66-1.72,4.45-2.58,9.41-2.58,14.73v2.33c0,5.33,.9,10.26,2.68,14.65,1.8,4.44,4.33,8,7.54,10.57,3.27,2.62,6.92,3.95,10.84,3.95,7.09,0,12.51-3.28,16.11-9.76l.53-.95-3.58-3.17-.85,1.35c-1.51,2.41-3.25,4.21-5.18,5.35-1.9,1.12-4.26,1.69-7.03,1.69s-5.46-.98-7.94-3.01c-2.51-2.05-4.52-4.94-5.96-8.58-1.47-3.7-2.21-7.79-2.21-12.15v-1.7h33.72v-4.3c0-7.51-1.69-13.68-5.03-18.35-3.44-4.81-7.95-7.25-13.4-7.25Zm0,5.5c2.51,0,4.71,.79,6.74,2.42,2.06,1.66,3.72,4.03,4.91,7.06,1.14,2.9,1.76,6.06,1.83,9.42h-28.5c.64-5.35,2.31-9.84,4.95-13.36,2.81-3.73,6.1-5.55,10.07-5.55Z"/>
        <path class="cls-1" d="M455.42,48.82c-2.37-1.52-5.6-2.84-9.6-3.95-3.76-1.04-6.65-2.12-8.57-3.21-1.83-1.04-3.15-2.19-3.92-3.43-.76-1.21-1.14-2.96-1.14-5.21,0-2.83,1.03-5.13,3.16-7.02,2.14-1.91,5.14-2.87,8.9-2.87,3.97,0,7.09,1.12,9.52,3.41,2.41,2.28,3.58,5.04,3.58,8.45v1.35h5.09v-1.35c0-5.27-1.7-9.53-5.04-12.67-3.32-3.11-7.75-4.69-13.15-4.69-5,0-9.13,1.46-12.29,4.34-3.19,2.91-4.81,6.67-4.81,11.15s1.29,7.97,3.83,10.56c2.49,2.53,6.7,4.53,12.86,6.09,9.16,2.3,13.61,6.42,13.61,12.58,0,2.94-1.14,5.38-3.49,7.46-2.39,2.12-5.45,3.16-9.36,3.16-4.25,0-7.63-1-10.05-2.99-2.4-1.96-3.67-4.65-3.88-8.23l-.07-1.27h-4.97v1.35c0,4.87,1.79,8.92,5.31,12.02,3.47,3.06,8.07,4.61,13.67,4.61,5.25,0,9.58-1.47,12.86-4.38,3.33-2.95,5.03-6.88,5.03-11.68,0-3.07-.56-5.72-1.67-7.89-1.12-2.19-2.94-4.1-5.39-5.68Z"/>
        <path class="cls-1" d="M469.28,7.96c-1.15,0-2.19,.44-2.99,1.26-.79,.82-1.21,1.85-1.21,2.99s.42,2.17,1.22,2.97c.8,.8,1.83,1.22,2.97,1.22s2.17-.42,2.98-1.21c.83-.8,1.27-1.84,1.27-2.99s-.43-2.18-1.25-3c-.82-.82-1.85-1.25-3-1.25Z"/>
        <rect class="cls-1" x="466.53" y="19.38" width="5.5" height="58.75"/>
        <path class="cls-1" d="M510.07,25.18c-1.29-1.78-2.77-3.27-4.43-4.44-2.94-2.07-6.34-3.12-10.11-3.12-5.97,0-10.71,2.75-14.12,8.17-3.27,5.22-4.94,12.51-4.94,21.67v.73c0,9.19,1.66,16.56,4.93,21.89,3.4,5.55,8.12,8.36,14.04,8.36,3.74,0,7.14-.93,10.1-2.77,1.7-1.05,3.21-2.38,4.51-3.95v4.05c-.08,6.05-1.39,10.76-3.89,14-2.44,3.18-5.78,4.72-10.21,4.72-2.63,0-4.95-.66-6.88-1.96-2.01-1.36-3.9-3.36-5.62-5.96l-.97-1.47-3.47,3.94,.52,.85c1.95,3.21,4.36,5.72,7.14,7.46,2.82,1.75,5.98,2.64,9.37,2.64,5.88,0,10.61-2.28,14.04-6.77,3.35-4.38,5.05-10.49,5.05-18.15V18.66h-5.08v6.52Zm-24.69,41.58c-2.53-4.35-3.81-10.47-3.81-18.21,0-8.52,1.29-15.02,3.83-19.31,2.44-4.12,5.74-6.12,10.1-6.12,7.4,0,12.17,4.38,14.57,13.38v25.07c-1.08,3.59-2.89,6.41-5.39,8.39-2.52,1.99-5.64,3-9.27,3-4.32,0-7.6-2.03-10.03-6.19Z"/>
        <path class="cls-1" d="M553.62,23.97c-2.85-3.74-7.21-5.63-12.96-5.63-4.13,0-7.94,1.37-11.33,4.08-1.93,1.54-3.59,3.41-4.98,5.59v-8.64h-5.18v58.75h5.18V41.05c1.06-5.09,3.08-9.3,6.02-12.5,2.9-3.17,6.23-4.71,10.16-4.71,4.25,0,7.23,1.24,9.13,3.78,1.96,2.63,2.97,6.85,3,12.52v37.99h5.18V40.2c-.03-7.14-1.45-12.6-4.21-16.22Z"/>
      </g>
      <g>
        <path class="cls-1" d="M92.17,28.86h-6.74v-6.74c0-1.24-1.01-2.25-2.25-2.25h-17.98c-1.24,0-2.25,1.01-2.25,2.25v6.74h-6.74c-1.24,0-2.25,1.01-2.25,2.25v35.97c0,1.24,1.01,2.25,2.25,2.25h6.74v6.74c0,1.24,1.01,2.25,2.25,2.25h17.98c1.24,0,2.25-1.01,2.25-2.25v-6.74h6.74c1.24,0,2.25-1.01,2.25-2.25v-8.99c0-1.24-1.01-2.25-2.25-2.25h-8.99c-1.24,0-2.25,1.01-2.25,2.25v6.74h-13.49v-13.49h24.73c1.24,0,2.25-1.01,2.25-2.25V31.1c0-1.24-1.01-2.25-2.25-2.25Zm-2.25,8.99h-4.5v-4.5h4.5v4.5Zm-15.74,0h-6.74v-4.5h13.49v4.5h-6.74Zm-11.24,17.98h-4.5v-4.5h4.5v4.5Zm-4.5-8.99v-4.5h4.5v4.5h-4.5Zm22.48-17.98h-4.5v-4.5h4.5v4.5Zm-13.49-4.5h4.5v4.5h-4.5v-4.5Zm-8.99,8.99h4.5v4.5h-4.5v-4.5Zm0,26.98h4.5v4.5h-4.5v-4.5Zm26.98,0h4.5v4.5h-4.5v-4.5Zm-4.5,13.49h-4.5v-4.5h4.5v4.5Zm-8.99,0h-4.5v-4.5h4.5v4.5Zm-4.5-31.47h4.5v4.5h-4.5v-4.5Zm8.99,0h4.5v4.5h-4.5v-4.5Zm13.49,4.5h-4.5v-4.5h4.5v4.5Z"/>
        <path class="cls-1" d="M236.04,28.86h-6.74v-6.74c0-1.24-1.01-2.25-2.25-2.25h-17.98c-1.24,0-2.25,1.01-2.25,2.25v6.74h-6.74c-1.24,0-2.25,1.01-2.25,2.25v35.97c0,1.24,1.01,2.25,2.25,2.25h6.74v6.74c0,1.24,1.01,2.25,2.25,2.25h17.98c1.24,0,2.25-1.01,2.25-2.25v-6.74h6.74c1.24,0,2.25-1.01,2.25-2.25V31.1c0-1.24-1.01-2.25-2.25-2.25Zm-17.98,35.97h-6.74v-31.47h13.49v31.47h-6.74Zm-11.24-17.98h-4.5v-4.5h4.5v4.5Zm-4.5,4.5h4.5v4.5h-4.5v-4.5Zm31.47-4.5h-4.5v-4.5h4.5v4.5Zm-4.5,4.5h4.5v4.5h-4.5v-4.5Zm4.5-13.49h-4.5v-4.5h4.5v4.5Zm-8.99-8.99h-4.5v-4.5h4.5v4.5Zm-13.49-4.5h4.5v4.5h-4.5v-4.5Zm-8.99,8.99h4.5v4.5h-4.5v-4.5Zm0,26.98h4.5v4.5h-4.5v-4.5Zm8.99,8.99h4.5v4.5h-4.5v-4.5Zm13.49,4.5h-4.5v-4.5h4.5v4.5Zm8.99-8.99h-4.5v-4.5h4.5v4.5Z"/>
        <path class="cls-1" d="M281,1.88h-8.99c-1.24,0-2.25,1.01-2.25,2.25v15.74h-15.74c-1.24,0-2.25,1.01-2.25,2.25v6.74h-6.74c-1.24,0-2.25,1.01-2.25,2.25v35.97c0,1.24,1.01,2.25,2.25,2.25h6.74v6.74c0,1.24,1.01,2.25,2.25,2.25h26.98c1.24,0,2.25-1.01,2.25-2.25V4.13c0-1.24-1.01-2.25-2.25-2.25Zm-17.98,62.94h-6.74v-31.47h13.49v31.47h-6.74Zm-11.24-17.98h-4.5v-4.5h4.5v4.5Zm-4.5,4.5h4.5v4.5h-4.5v-4.5Zm26.98-35.97h4.5v4.5h-4.5v-4.5Zm4.5,8.99v4.5h-4.5v-4.5h4.5Zm0,13.49h-4.5v-4.5h4.5v4.5Zm0,8.99h-4.5v-4.5h4.5v4.5Zm0,8.99h-4.5v-4.5h4.5v4.5Zm-4.5,4.5h4.5v4.5h-4.5v-4.5Zm0-53.95h4.5v4.5h-4.5V6.38Zm-4.5,22.48h-4.5v-4.5h4.5v4.5Zm-13.49-4.5h4.5v4.5h-4.5v-4.5Zm-8.99,8.99h4.5v4.5h-4.5v-4.5Zm0,26.98h4.5v4.5h-4.5v-4.5Zm8.99,8.99h4.5v4.5h-4.5v-4.5Zm8.99,0h4.5v4.5h-4.5v-4.5Zm13.49,4.5h-4.5v-4.5h4.5v4.5Z"/>
        <path class="cls-1" d="M191.08,1.88h-8.99c-1.24,0-2.25,1.01-2.25,2.25v6.74h-6.74c-1.24,0-2.25,1.01-2.25,2.25v6.74h-6.74c-1.24,0-2.25,1.01-2.25,2.25v6.74h-4.5V4.13c0-1.24-1.01-2.25-2.25-2.25h-8.99c-1.24,0-2.25,1.01-2.25,2.25V76.06c0,1.24,1.01,2.25,2.25,2.25h8.99c1.24,0,2.25-1.01,2.25-2.25v-24.73h4.5v6.74c0,1.24,1.01,2.25,2.25,2.25h6.74v6.74c0,1.24,1.01,2.25,2.25,2.25h6.74v6.74c0,1.24,1.01,2.25,2.25,2.25h8.99c1.24,0,2.25-1.01,2.25-2.25v-8.99c0-1.24-1.01-2.25-2.25-2.25h-6.74v-6.74c0-1.24-1.01-2.25-2.25-2.25h-6.74v-6.74c0-1.24-1.01-2.25-2.25-2.25h-6.74v-13.49h6.74c1.24,0,2.25-1.01,2.25-2.25v-6.74h6.74c1.24,0,2.25-1.01,2.25-2.25v-6.74h6.74c1.24,0,2.25-1.01,2.25-2.25V4.13c0-1.24-1.01-2.25-2.25-2.25Zm-29.22,35.97h-4.5v-4.5h4.5v4.5Zm-13.49-4.5h4.5v4.5h-4.5v-4.5Zm4.5-4.5h-4.5v-4.5h4.5v4.5Zm0-8.99h-4.5v-4.5h4.5v4.5Zm-4.5,40.46h4.5v4.5h-4.5v-4.5Zm4.5-4.5h-4.5v-4.5h4.5v4.5Zm-4.5-8.99v-4.5h4.5v4.5h-4.5Zm0-40.46h4.5v4.5h-4.5V6.38Zm4.5,67.44h-4.5v-4.5h4.5v4.5Zm4.5-31.47h4.5v4.5h-4.5v-4.5Zm31.47,31.47h-4.5v-4.5h4.5v4.5Zm-8.99-8.99h-4.5v-4.5h4.5v4.5Zm-8.99-8.99h-4.5v-4.5h4.5v4.5Zm0-26.98h-4.5v-4.5h4.5v4.5Zm8.99-8.99h-4.5v-4.5h4.5v4.5Zm8.99-8.99h-4.5V6.38h4.5v4.5Z"/>
        <path class="cls-1" d="M137.13,28.86h-6.74v-6.74c0-1.24-1.01-2.25-2.25-2.25h-17.98c-1.24,0-2.25,1.01-2.25,2.25v6.74h-6.74c-1.24,0-2.25,1.01-2.25,2.25v35.97c0,1.24,1.01,2.25,2.25,2.25h6.74v6.74c0,1.24,1.01,2.25,2.25,2.25h17.98c1.24,0,2.25-1.01,2.25-2.25v-6.74h6.74c1.24,0,2.25-1.01,2.25-2.25v-8.99c0-1.24-1.01-2.25-2.25-2.25h-8.99c-1.24,0-2.25,1.01-2.25,2.25v6.74h-13.49v-13.49h24.73c1.24,0,2.25-1.01,2.25-2.25V31.1c0-1.24-1.01-2.25-2.25-2.25Zm-2.25,8.99h-4.5v-4.5h4.5v4.5Zm-15.74,0h-6.74v-4.5h13.49v4.5h-6.74Zm-11.24,17.98h-4.5v-4.5h4.5v4.5Zm-4.5-8.99v-4.5h4.5v4.5h-4.5Zm22.48-17.98h-4.5v-4.5h4.5v4.5Zm-13.49-4.5h4.5v4.5h-4.5v-4.5Zm-8.99,8.99h4.5v4.5h-4.5v-4.5Zm0,26.98h4.5v4.5h-4.5v-4.5Zm26.98,0h4.5v4.5h-4.5v-4.5Zm-4.5,13.49h-4.5v-4.5h4.5v4.5Zm-8.99,0h-4.5v-4.5h4.5v4.5Zm-4.5-31.47h4.5v4.5h-4.5v-4.5Zm8.99,0h4.5v4.5h-4.5v-4.5Zm13.49,4.5h-4.5v-4.5h4.5v4.5Z"/>
        <path class="cls-1" d="M325.95,28.86h-6.74v-6.74c0-1.24-1.01-2.25-2.25-2.25h-17.98c-1.24,0-2.25,1.01-2.25,2.25v6.74h-6.74c-1.24,0-2.25,1.01-2.25,2.25v35.97c0,1.24,1.01,2.25,2.25,2.25h6.74v6.74c0,1.24,1.01,2.25,2.25,2.25h17.98c1.24,0,2.25-1.01,2.25-2.25v-6.74h6.74c1.24,0,2.25-1.01,2.25-2.25v-8.99c0-1.24-1.01-2.25-2.25-2.25h-8.99c-1.24,0-2.25,1.01-2.25,2.25v6.74h-13.49v-13.49h24.73c1.24,0,2.25-1.01,2.25-2.25V31.1c0-1.24-1.01-2.25-2.25-2.25Zm-2.25,8.99h-4.5v-4.5h4.5v4.5Zm-15.74,0h-6.74v-4.5h13.49v4.5h-6.74Zm-11.24,17.98h-4.5v-4.5h4.5v4.5Zm-4.5-8.99v-4.5h4.5v4.5h-4.5Zm22.48-17.98h-4.5v-4.5h4.5v4.5Zm-13.49-4.5h4.5v4.5h-4.5v-4.5Zm-8.99,8.99h4.5v4.5h-4.5v-4.5Zm0,26.98h4.5v4.5h-4.5v-4.5Zm26.98,0h4.5v4.5h-4.5v-4.5Zm-4.5,13.49h-4.5v-4.5h4.5v4.5Zm-8.99,0h-4.5v-4.5h4.5v4.5Zm-4.5-31.47h4.5v4.5h-4.5v-4.5Zm8.99,0h4.5v4.5h-4.5v-4.5Zm13.49,4.5h-4.5v-4.5h4.5v4.5Z"/>
        <path class="cls-1" d="M47.21,10.87h-6.74V4.13c0-1.24-1.01-2.25-2.25-2.25H11.24c-1.24,0-2.25,1.01-2.25,2.25v6.74H2.25c-1.24,0-2.25,1.01-2.25,2.25v53.95c0,1.24,1.01,2.25,2.25,2.25h6.74v6.74c0,1.24,1.01,2.25,2.25,2.25h26.98c1.24,0,2.25-1.01,2.25-2.25v-6.74h6.74c1.24,0,2.25-1.01,2.25-2.25v-26.98c0-1.24-1.01-2.25-2.25-2.25H29.22c-1.24,0-2.25,1.01-2.25,2.25v8.99c0,1.24,1.01,2.25,2.25,2.25h6.74v13.49H13.49V15.37h22.48v6.74c0,1.24,1.01,2.25,2.25,2.25h8.99c1.24,0,2.25-1.01,2.25-2.25V13.12c0-1.24-1.01-2.25-2.25-2.25ZM8.99,28.86H4.5v-4.5h4.5v4.5Zm0,8.99H4.5v-4.5h4.5v4.5Zm0,8.99H4.5v-4.5h4.5v4.5Zm-4.5,4.5h4.5v4.5H4.5v-4.5Zm0-35.97h4.5v4.5H4.5v-4.5Zm0,44.96h4.5v4.5H4.5v-4.5Zm35.97-8.99h4.5v4.5h-4.5v-4.5Zm4.5,13.49h-4.5v-4.5h4.5v4.5Zm0-17.98h-4.5v-4.5h4.5v4.5Zm-13.49-4.5h4.5v4.5h-4.5v-4.5Zm4.5,31.47h-4.5v-4.5h4.5v4.5Zm-8.99,0h-4.5v-4.5h4.5v4.5Zm-8.99,0h-4.5v-4.5h4.5v4.5ZM13.49,6.38h4.5v4.5h-4.5V6.38Zm8.99,0h4.5v4.5h-4.5V6.38Zm8.99,0h4.5v4.5h-4.5V6.38Zm13.49,13.49h-4.5v-4.5h4.5v4.5Z"/>
      </g>
      <g>
        <path class="cls-1" d="M520.11,93.77v-9.75h2.65c.79,0,1.5,.19,2.11,.58,.61,.38,1.09,.93,1.43,1.63,.34,.71,.51,1.51,.51,2.43v.49c0,.92-.17,1.74-.51,2.44-.34,.7-.82,1.24-1.45,1.62-.63,.38-1.34,.57-2.15,.57h-2.58Zm1.56-8.39v7.03h1.02c.82,0,1.45-.28,1.88-.83,.44-.56,.66-1.35,.67-2.39v-.54c0-1.06-.21-1.87-.63-2.43-.42-.56-1.04-.84-1.84-.84h-1.09Z"/>
        <path class="cls-1" d="M528.21,84.63c0-.25,.07-.46,.22-.62,.15-.17,.35-.25,.63-.25s.48,.08,.63,.25c.15,.17,.22,.37,.22,.62s-.07,.45-.22,.61c-.15,.16-.36,.24-.63,.24s-.48-.08-.63-.24-.22-.37-.22-.61Zm1.59,9.13h-1.5v-7.25h1.5v7.25Z"/>
        <path class="cls-1" d="M531.17,90.09c0-1.13,.24-2.02,.73-2.7,.49-.67,1.13-1.01,1.94-1.01,.76,0,1.36,.29,1.79,.86l.07-.73h1.35v7.03c0,.95-.27,1.7-.82,2.25s-1.28,.82-2.2,.82c-.49,0-.97-.11-1.43-.33-.47-.22-.82-.51-1.06-.87l.71-.98c.46,.59,1.03,.89,1.7,.89,.5,0,.89-.15,1.18-.44,.29-.29,.43-.72,.43-1.29v-.49c-.43,.52-1.01,.78-1.73,.78-.78,0-1.42-.34-1.91-1.01-.5-.67-.74-1.61-.74-2.8Zm1.49,.14c0,.73,.14,1.3,.41,1.72,.27,.42,.65,.63,1.14,.63,.6,0,1.05-.28,1.34-.84v-3.19c-.28-.55-.73-.82-1.33-.82-.49,0-.88,.21-1.15,.64-.27,.42-.41,1.05-.41,1.88Z"/>
        <path class="cls-1" d="M538.59,84.63c0-.25,.07-.46,.22-.62,.15-.17,.35-.25,.63-.25s.48,.08,.63,.25c.15,.17,.22,.37,.22,.62s-.07,.45-.22,.61c-.15,.16-.36,.24-.63,.24s-.48-.08-.63-.24-.22-.37-.22-.61Zm1.59,9.13h-1.5v-7.25h1.5v7.25Z"/>
        <path class="cls-1" d="M543.69,84.76v1.76h1.18v1.21h-1.18v4.05c0,.28,.05,.48,.15,.6,.1,.12,.28,.18,.54,.18,.17,0,.35-.02,.52-.07v1.26c-.34,.1-.67,.15-.99,.15-1.15,0-1.73-.69-1.73-2.07v-4.11h-1.1v-1.21h1.1v-1.76h1.5Z"/>
        <path class="cls-1" d="M550,93.77c-.07-.14-.12-.36-.17-.68-.48,.54-1.06,.81-1.75,.81s-1.22-.21-1.64-.62-.63-.93-.63-1.54c0-.77,.26-1.37,.79-1.78,.53-.41,1.28-.62,2.27-.62h.92v-.48c0-.38-.1-.68-.29-.9-.19-.23-.49-.34-.88-.34-.34,0-.62,.09-.84,.28-.22,.19-.33,.42-.33,.71h-1.5c0-.4,.12-.77,.36-1.12,.24-.35,.57-.62,.99-.81,.42-.2,.88-.29,1.4-.29,.78,0,1.4,.21,1.87,.64,.46,.43,.7,1.03,.71,1.8v3.27c0,.65,.08,1.17,.25,1.56v.11h-1.53Zm-1.65-1.17c.3,0,.57-.08,.84-.23,.26-.16,.46-.37,.59-.63v-1.37h-.81c-.55,0-.97,.11-1.25,.31-.28,.21-.42,.51-.42,.89,0,.31,.1,.56,.29,.75,.19,.19,.45,.28,.77,.28Z"/>
        <path class="cls-1" d="M554.43,93.77h-1.5v-10.29h1.5v10.29Z"/>
        <path class="cls-1" d="M558.95,90.09c0-1.13,.24-2.02,.73-2.7,.49-.67,1.13-1.01,1.94-1.01,.76,0,1.36,.29,1.79,.86l.07-.73h1.35v7.03c0,.95-.27,1.7-.82,2.25s-1.28,.82-2.2,.82c-.49,0-.97-.11-1.43-.33-.47-.22-.82-.51-1.06-.87l.71-.98c.46,.59,1.03,.89,1.7,.89,.5,0,.89-.15,1.18-.44,.29-.29,.43-.72,.43-1.29v-.49c-.43,.52-1.01,.78-1.73,.78-.78,0-1.42-.34-1.91-1.01-.5-.67-.74-1.61-.74-2.8Zm1.49,.14c0,.73,.14,1.3,.41,1.72,.27,.42,.65,.63,1.14,.63,.6,0,1.05-.28,1.34-.84v-3.19c-.28-.55-.73-.82-1.33-.82-.49,0-.88,.21-1.15,.64-.27,.42-.41,1.05-.41,1.88Z"/>
        <path class="cls-1" d="M566.08,90.07c0-.71,.13-1.35,.39-1.92,.26-.57,.62-1.01,1.09-1.31,.47-.31,1.01-.46,1.61-.46,.9,0,1.63,.31,2.19,.94s.86,1.46,.91,2.51v.38c0,.71-.12,1.35-.37,1.92-.25,.56-.61,1-1.08,1.31s-1.01,.46-1.63,.46c-.94,0-1.69-.34-2.26-1.02-.57-.68-.85-1.59-.85-2.72v-.08Zm1.5,.14c0,.75,.14,1.33,.43,1.75,.28,.42,.68,.63,1.18,.63s.9-.21,1.18-.64,.42-1.06,.42-1.88c0-.73-.14-1.31-.43-1.74-.29-.43-.68-.64-1.18-.64s-.88,.21-1.16,.63c-.29,.42-.43,1.05-.43,1.89Z"/>
        <path class="cls-1" d="M577.53,93.77c-.07-.14-.12-.36-.17-.68-.48,.54-1.06,.81-1.75,.81s-1.22-.21-1.64-.62-.63-.93-.63-1.54c0-.77,.26-1.37,.79-1.78,.53-.41,1.28-.62,2.27-.62h.92v-.48c0-.38-.1-.68-.29-.9-.19-.23-.49-.34-.88-.34-.34,0-.62,.09-.84,.28-.22,.19-.33,.42-.33,.71h-1.5c0-.4,.12-.77,.36-1.12,.24-.35,.57-.62,.99-.81,.42-.2,.88-.29,1.4-.29,.78,0,1.4,.21,1.87,.64,.46,.43,.7,1.03,.71,1.8v3.27c0,.65,.08,1.17,.25,1.56v.11h-1.53Zm-1.65-1.17c.3,0,.57-.08,.84-.23,.26-.16,.46-.37,.59-.63v-1.37h-.81c-.55,0-.97,.11-1.25,.31-.28,.21-.42,.51-.42,.89,0,.31,.1,.56,.29,.75,.19,.19,.45,.28,.77,.28Z"/>
        <path class="cls-1" d="M581.97,93.77h-1.5v-10.29h1.5v10.29Z"/>
        <path class="cls-1" d="M587.34,91.8c0-.29-.11-.51-.33-.66-.22-.15-.58-.29-1.09-.4-.51-.12-.93-.26-1.28-.44-.75-.39-1.12-.96-1.12-1.71,0-.63,.24-1.15,.73-1.57,.48-.42,1.1-.63,1.85-.63,.8,0,1.44,.21,1.93,.64,.49,.43,.74,.98,.74,1.67h-1.5c0-.31-.11-.57-.32-.78-.21-.21-.5-.31-.85-.31-.33,0-.6,.08-.8,.25-.21,.17-.31,.39-.31,.66,0,.25,.1,.44,.29,.58,.19,.14,.58,.28,1.17,.42,.59,.14,1.05,.31,1.38,.5,.33,.19,.58,.43,.75,.7,.16,.27,.24,.6,.24,.99,0,.65-.25,1.18-.75,1.58-.5,.4-1.15,.61-1.95,.61-.55,0-1.03-.11-1.46-.32-.43-.21-.76-.51-1-.88s-.36-.78-.36-1.21h1.45c.02,.38,.15,.68,.4,.89,.25,.21,.57,.31,.98,.31s.69-.08,.9-.24c.21-.16,.31-.38,.31-.64Z"/>
        <path class="cls-1" d="M595.02,95.05h-5.65v-1.28h5.65v1.28Z"/>
      </g>
    </g>
  </g>
</svg>