<?xml version="1.0" encoding="UTF-8"?>
<svg id="Capa_2" data-name="Capa 2" xmlns="http://www.w3.org/2000/svg" viewBox="0 0 422.24 100">
  <defs>
    <style>
      .cls-1 {
        fill: #f0f0f0;
      }
    </style>
  </defs>
  <g id="Capa_3" data-name="Capa 3">
    <g>
      <path class="cls-1" d="M88.32,15.48c-2.32,2.83-4.46,5.44-6.77,8.25-2.1-1.47-4.06-2.91-6.09-4.24-11.2-7.38-23.71-9.65-36.82-8.93-3.28,.18-6.69,1.34-9.69,2.77-7.92,3.76-8.63,13.79-1.14,18.37,4.41,2.7,9.45,4.49,14.37,6.22,8.73,3.06,17.71,5.44,26.34,8.74,5.32,2.03,10.58,4.68,15.19,7.99,13.18,9.47,12.09,29.19-1.76,37.74-8.79,5.42-18.59,6.98-28.64,7.46-13.63,.66-26.97-.85-39.44-6.74-4.69-2.21-9-5.22-13.88-8.09,2.64-3.32,4.78-6,6.73-8.44,5.08,2.83,9.67,6.08,14.75,8.08,12.68,4.98,25.83,6.78,39.28,3.3,2.43-.63,4.96-1.72,6.89-3.28,6.31-5.09,5.79-14.56-1.47-18.36-6.68-3.5-13.96-5.91-21.09-8.48-8.12-2.93-16.51-5.15-24.5-8.37-4.3-1.73-8.43-4.44-11.91-7.52C-2.41,32.11,.05,14.15,13.22,6.56,22.84,1,33.37-.25,44.21,.04c14.38,.39,27.88,3.75,39.88,12.05,1.41,.98,2.69,2.14,4.24,3.39Z"/>
      <path class="cls-1" d="M264.42,100c-17.21-.51-33.95-.7-50.65-1.65-7.19-.41-13.78-3.24-18.14-9.7-6.95-10.32-2.8-24.72,8.61-29.61,7.26-3.11,14.96-3.57,22.69-3.69,6.06-.1,12.12-.02,18.16-.02,.66-8.64-7.24-15.44-15.31-15.6-5.04-.1-10.08-.02-15.12-.04-.91,0-1.82-.08-3.19-.14,0-2.75-.08-5.39,.07-8.01,.03-.52,.99-1.42,1.49-1.4,10.64,.53,21.38-1.5,31.91,1.63,12.34,3.67,20.07,14.33,19.6,25.96-.52,12.53-.11,25.1-.1,37.65,0,1.22,0,2.44,0,4.61Zm-18.73-35.05c-5.57,0-10.78-.08-15.99,.03-2.86,.06-5.78,.13-8.54,.76-5.94,1.36-8.84,5.56-8.78,12.01,.06,6.16,3.09,10.63,9.1,11.34,7.09,.84,14.31,.59,21.48,.78,.88,.02,1.77-.12,2.74-.19v-24.73Z"/>
      <path class="cls-1" d="M353.04,82.24c6.13,2.28,11.74,4.94,17.64,6.44,8.21,2.07,16.62,2.84,24.92-.13,3.48-1.25,5.98-3.31,6.21-7.21,.22-3.69-1.97-6.07-5.09-7.35-4.26-1.75-8.66-3.17-13.04-4.61-7.22-2.37-14.61-4.29-21.66-7.07-5.52-2.18-10.28-5.81-12.07-11.97-3.07-10.57,2.34-19.9,14.06-23.23,15.75-4.48,31.31-3.6,46.41,3.1,1.58,.7,2.47,1.57,2.36,3.45-.14,2.46-.03,4.93-.03,7.4,0,.3-.09,.61-.23,1.45-1.27-.62-2.43-1.11-3.51-1.73-8.84-4.99-18.31-7.28-28.43-6.49-2.31,.18-4.7,.77-6.81,1.71-5.16,2.28-5.94,8.25-1.44,11.69,2.23,1.71,4.92,3.02,7.61,3.88,7.73,2.47,15.71,4.24,23.31,7.03,4.83,1.77,9.62,4.32,13.65,7.5,8.49,6.72,6.46,22.23-3.21,27.82-5.73,3.32-11.98,4.82-18.48,5.46-13.5,1.33-26.69,.34-39.33-5.09-2.12-.91-3.02-2.07-2.86-4.37,.17-2.55,.04-5.12,.04-7.67Z"/>
      <path class="cls-1" d="M311.49,99.19c-8.49,.26-16.58,.7-24.14-3.25-8.96-4.67-13.71-12.25-13.85-22.1-.31-22.22-.09-44.46-.07-66.68,0-.41,.1-.81,.22-1.79h11.54q7.08,0,7.07,7.12c0,5.73,0,11.47,0,17.6,5.66,0,10.98,.11,16.3-.05,2.38-.07,3.41,.55,3.16,3.08-.2,2.03-.04,4.09-.04,6.48h-18.74c-.16,1.02-.36,1.71-.36,2.39-.01,10.29-.12,20.58,.09,30.87,.06,2.92,.65,5.98,1.7,8.71,2.25,5.88,6.74,8.42,13.13,7.93,3.99-.3,4.01-.05,4,3.98,0,1.83,0,3.66,0,5.72Z"/>
      <path class="cls-1" d="M139.85,30.14v9.4h-18.63c-.16,1-.35,1.67-.35,2.35,0,10.39-.26,20.79,.16,31.16,.15,3.75,1.48,7.65,3.11,11.08,1.72,3.62,5.14,5.47,9.38,5.33,2.03-.07,4.06-.01,6.29-.01v9.25c-16.77,2.39-31.34-2.44-36.35-17.56-.79-2.4-1.26-5.03-1.27-7.55-.1-21.8-.07-43.61-.06-65.41,0-.8,.12-1.6,.22-2.78,5.75,0,11.38-.07,16.99,.12,.53,.02,1.43,1.72,1.44,2.65,.13,6.58,.08,13.16,.09,19.75,0,.6,.07,1.19,.13,2.24h18.84Z"/>
      <path class="cls-1" d="M202.13,30.08v9.62c-5.59,0-11.02-.32-16.39,.11-3.47,.28-7.18,1.06-10.21,2.68-5.71,3.06-7.56,8.72-7.62,14.87-.12,12.64-.03,25.28-.02,37.92,0,1.3,0,2.61,0,4.06h-18.56c-.07-1.27-.19-2.55-.2-3.83-.01-12.44,0-24.87,0-37.31,0-13.65,7.88-23.99,21.3-26.8,5.76-1.2,11.81-1.05,17.74-1.3,4.59-.19,9.19-.04,13.97-.04Z"/>
      <path class="cls-1" d="M320.8,30.59h18.52V98.91h-18.52V30.59Z"/>
    </g>
  </g>
</svg>