<?xml version="1.0" encoding="UTF-8"?>
<svg id="Capa_2" data-name="Capa 2" xmlns="http://www.w3.org/2000/svg" viewBox="0 0 453.06 100">
  <defs>
    <style>
      .cls-1 {
        fill: #f0f0f0;
      }
    </style>
  </defs>
  <g id="Capa_3" data-name="Capa 3">
    <g>
      <g>
        <path class="cls-1" d="M21.38,69.88c-.13,.32-.26,.63-.38,.96-2.34,6.67-4.7,13.34-7.01,20.02-.31,.91-.93,.75-1.58,.78-.65,.03-1.1-.06-1.34-.82-2.15-6.77-4.35-13.52-6.53-20.27-.07-.21-.18-.41-.46-.6-.08,1.12-.18,2.24-.24,3.36-.16,3.38-.28,6.77-.46,10.15-.13,2.48-.36,4.96-.51,7.45-.04,.72-.32,1.03-1.05,.93-.26-.03-.53-.03-.8,0-.91,.1-1.09-.24-.99-1.15,.26-2.31,.36-4.63,.52-6.95,.32-4.43,.63-8.87,.95-13.3,.07-.99,.17-1.99,.2-2.98,.02-.68,.36-.87,.96-.8,.03,0,.07,0,.1,0,2.92-.04,2.95-.05,3.87,2.72,1.95,5.82,3.85,11.65,5.78,17.48,.06,.18,.17,.35,.35,.71,.17-.42,.29-.67,.38-.92,2.25-6.42,4.49-12.85,6.78-19.26,.11-.32,.63-.67,.98-.7,.99-.08,2.28-.36,2.9,.14,.56,.45,.45,1.8,.53,2.77,.18,2.42,.29,4.84,.44,7.26,.25,4.01,.52,8.02,.77,12.02,.02,.36,.02,.73,.03,1.1,.02,1.89-.43,2.27-2.32,1.83-.22-.05-.48-.43-.51-.68-.16-1.82-.31-3.64-.39-5.46-.23-5.08-.42-10.16-.62-15.23,0-.16-.05-.32-.08-.48-.09-.02-.18-.04-.27-.06Z"/>
        <path class="cls-1" d="M276.66,75.99c1.32-2.07,3.11-3.32,5.56-3.35,2.57-.04,4.22,1.33,5.34,3.7,.31-.4,.52-.68,.74-.95,1.73-2.13,3.88-3.2,6.66-2.58,2.61,.58,3.84,2.45,4.39,4.88,.16,.7,.22,1.45,.22,2.17,.03,3.36,0,6.72,.03,10.08,0,.79-.19,1.14-1.06,1.1-2.06-.07-1.83,.22-1.84-1.8,0-2.66,.03-5.32-.02-7.98-.02-.95-.13-1.93-.34-2.85-.51-2.21-1.82-3.32-3.75-3.34-1.84-.01-3.66,1.38-4.19,3.27-.16,.57-.22,1.18-.23,1.77-.02,3.26-.05,6.52,.01,9.78,.02,.95-.3,1.19-1.2,1.16-2.11-.08-1.83,.22-1.84-1.89-.01-3.23,.01-6.45-.01-9.68-.02-2.07-1.11-3.71-2.74-4.22-2.65-.82-5.59,1.51-5.62,4.49-.03,3.36-.04,6.72,.01,10.08,.02,.98-.29,1.26-1.24,1.22-2.04-.08-1.8,.21-1.8-1.83,0-4.26,0-8.51,0-12.77,0-.6,0-1.2-.03-1.8-.07-1.65-.08-1.62,1.54-1.62,.66,0,.98,.17,.99,.88,.01,.64,.14,1.28,.22,1.93,.06,.06,.12,.11,.19,.17Z"/>
        <path class="cls-1" d="M165.88,68.77c-5-1.46-9.66-1.56-13.13,2.93-2.64,3.42-2.66,9.49-.35,13.13,1.44,2.25,3.54,3.47,6.11,3.91,2.5,.43,4.95,.11,7.33-.73,.1,.14,.18,.21,.2,.3,.68,2.06,.65,2.18-1.5,2.63-4.07,.85-8.09,.86-11.75-1.47-3.32-2.11-4.8-5.34-5.13-9.13-.21-2.43-.06-4.85,.9-7.15,1.81-4.38,5.12-6.82,9.76-7.56,2.37-.38,4.7-.24,7.01,.39,1.34,.37,1.34,.37,.93,1.67-.11,.34-.24,.68-.38,1.08Z"/>
        <path class="cls-1" d="M251.09,81.95c-.08,4.68-2.44,8.03-6.48,9.12-5.6,1.51-10.45-1.84-11.06-7.6-.35-3.36,.32-6.39,2.94-8.68,2.59-2.28,5.66-2.71,8.88-1.65,3.1,1.01,4.81,3.31,5.43,6.45,.15,.78,.19,1.58,.28,2.36Zm-14.48,.09c0,1.81,.27,2.94,1.01,4.3,2.03,3.7,6.83,3.91,9.02,.3,1.87-3.09,1.84-6.35-.06-9.42-1.99-3.23-6.61-3.18-8.68,0-.95,1.46-1.35,3.08-1.28,4.82Z"/>
        <path class="cls-1" d="M109.38,82.72c-.07,4.69-2.44,8.05-6.54,9.19-5.35,1.48-10.27-1.82-10.98-7.29-.35-2.68,.03-5.17,1.51-7.43,1.93-2.96,5.62-4.32,9.4-3.53,3.28,.68,5.8,3.41,6.36,6.9,.11,.72,.18,1.44,.26,2.17Zm-14.55,.12c.11,.82,.15,1.65,.33,2.46,.61,2.66,2.67,4.59,4.92,4.7,2.68,.12,4.77-1.42,5.67-4.26,.82-2.59,.64-5.13-.73-7.5-2-3.43-6.72-3.49-8.86-.15-.93,1.44-1.31,3.03-1.32,4.75Z"/>
        <path class="cls-1" d="M318.31,88.63c.66,2.03,.66,1.75-1.47,2.31-1.93,.51-3.91,.68-5.92,.31-3.19-.59-5.41-2.32-6.39-5.44-1.11-3.52-.77-6.93,1.41-9.96,2.06-2.86,5.02-3.73,8.39-2.99,3.1,.68,4.64,2.91,5.23,5.87,.18,.9,.14,1.84,.23,2.77,.07,.75-.26,.97-.99,.96-3.56-.03-7.12,.01-10.68-.03-.94-.01-1.27,.19-1.17,1.22,.27,2.91,2.34,5.2,5.25,5.31,1.99,.08,3.99-.21,6.13-.34Zm-6.36-8.22c1.36,0,2.73,.03,4.09-.03,.3-.01,.79-.32,.83-.55,.37-1.95-1.51-4.55-3.5-4.95-3.62-.74-5.79,1.75-6.38,4.72-.12,.62,.18,.83,.77,.82,1.4-.02,2.79,0,4.19,0Z"/>
        <path class="cls-1" d="M183.46,88.43c.11,.35,.34,.78,.34,1.22,0,.3-.24,.8-.49,.89-2.86,.95-5.78,1.34-8.7,.31-3.36-1.18-4.98-3.76-5.35-7.15-.27-2.45,.05-4.84,1.31-7.04,2.31-4.06,7.9-5.36,11.49-2.65,1.66,1.26,2.41,3.05,2.78,5.03,.14,.75,.13,1.52,.22,2.27,.1,.86-.24,1.16-1.13,1.15-3.53-.04-7.06-.02-10.59-.02-1.33,0-1.36,.11-1.16,1.46,.55,3.74,3.47,5.48,7.17,5.13,1.34-.13,2.68-.39,4.11-.61Zm-6.42-8.03c1.39,0,2.79,.03,4.18-.03,.28-.01,.75-.34,.78-.58,.33-2.16-1.4-4.53-3.54-4.94-3.08-.59-5.66,1.36-6.22,4.65-.12,.68,.05,.91,.72,.9,1.36-.02,2.72,0,4.08,0Z"/>
        <path class="cls-1" d="M371.91,88.57c-.18,.32-.3,.7-.56,.94-1.71,1.6-3.74,2.21-6.06,1.77-2.23-.42-3.65-1.74-4.09-3.95-.44-2.19,.23-4.09,2.01-5.49,1.67-1.32,3.68-1.78,5.75-2.02,.72-.09,1.46-.22,2.18-.18,.88,.05,.98-.39,.94-1.09-.15-2.25-1.63-3.77-3.88-3.67-1.69,.08-3.37,.48-5.05,.74-.03,.11-.05,.22-.08,.33-.16-.41-.4-.82-.45-1.25-.03-.27,.14-.74,.35-.84,2.81-1.3,5.72-1.79,8.67-.58,1.99,.82,3.05,2.52,3.23,4.58,.22,2.54,.16,5.1,.24,7.65,.05,1.59,.11,3.18,.19,4.77,.02,.5-.13,.76-.66,.73-.27-.01-.54-.04-.8,0-1.04,.17-1.36-.39-1.36-1.3,0-.28-.07-.57-.1-.85-.16-.1-.31-.2-.47-.3Zm.55-4.85c-.1-.02-.19-.05-.29-.07,0-.46,.06-.94-.02-1.39-.04-.22-.34-.56-.53-.57-2.17-.01-4.36,.08-6.18,1.46-1.17,.88-1.5,2.16-1.23,3.57,.24,1.26,1,2.09,2.24,2.41,1.82,.47,4.05-.32,4.96-1.98,.56-1.03,.72-2.29,1.06-3.44Z"/>
        <path class="cls-1" d="M44.12,89.22c.11,.36,.32,.8,.33,1.24,0,.3-.21,.81-.44,.89-2.96,.99-5.98,1.37-8.98,.24-2.95-1.11-4.56-3.42-5.02-6.44-.37-2.45-.19-4.9,.96-7.19,1.8-3.56,5.62-5.28,9.47-4.24,2.79,.76,4.79,3.3,5.11,6.48,.07,.66,.16,1.32,.17,1.98,.02,.75-.29,1.11-1.15,1.09-3.53-.05-7.06-.02-10.58-.02-1.24,0-1.4,.17-1.19,1.4,.67,4.02,3.58,5.51,7.21,5.23,1.34-.1,2.67-.43,4.1-.67Zm-6.4-8.02c1.4,0,2.79,.03,4.18-.03,.28-.01,.75-.34,.78-.58,.4-2.69-2.26-5.36-4.97-5.05-2.56,.3-4.2,1.93-4.82,4.69-.16,.73,.01,.98,.74,.97,1.36-.02,2.72,0,4.09,0Z"/>
        <path class="cls-1" d="M119.53,73.84c1.04,0,1.96-.04,2.87,.03,.23,.02,.53,.38,.62,.65,1.57,4.27,3.1,8.54,4.65,12.82,.11,.29,.21,.58,.42,1.17,.25-.66,.4-1.01,.52-1.37,1.38-4.15,2.78-8.31,4.13-12.47,.21-.65,.55-.91,1.22-.86,.69,.05,1.39,.01,2.27,.01-.27,.71-.48,1.29-.71,1.86-2.06,5.29-4.04,10.61-6.24,15.84-.82,1.96-1.97,3.87-3.32,5.51-.97,1.17-2.51,1.89-3.83,2.76-.61,.4-1.05,.19-1.21-.56-.11-.51-.27-1.02-.43-1.59,1.8-.78,3.33-1.86,4.45-3.44,.12-.16,.23-.33,.34-.49,.95-1.32,1.19-2.58,.47-4.23-2.07-4.78-3.92-9.65-5.86-14.49-.13-.33-.23-.67-.39-1.15Z"/>
        <path class="cls-1" d="M256.13,76.02c-.9-1.9-.87-2.01,.93-2.63,1.9-.66,3.85-.97,5.87-.6,3.07,.56,4.95,2.63,5.06,5.75,.07,2.09,.06,4.19,.07,6.28,.01,2.02,0,4.04,0,6.14-.62,0-1.57,.27-2.13-.08-.47-.29-.47-1.32-.73-2.17-.29,.28-.51,.49-.74,.71-1.98,1.87-4.29,2.47-6.9,1.69-1.89-.56-3.07-1.89-3.37-3.82-.37-2.35,.34-4.34,2.38-5.73,1.64-1.11,3.51-1.53,5.44-1.75,.82-.09,1.66-.09,2.48-.23,.24-.04,.58-.43,.59-.68,.1-2.38-1.52-3.99-3.93-4.07-1.77-.06-3.42,.32-5.04,1.18Zm9.03,7.97c0-.53,.08-1.08-.03-1.59-.06-.28-.43-.71-.67-.71-1.8-.06-3.59,.14-5.23,.95-1.83,.9-2.56,2.84-1.83,4.72,.6,1.56,2.33,2.25,4.29,1.72,2.38-.65,3.48-2.25,3.47-5.09Z"/>
        <path class="cls-1" d="M189.43,73.11c.11-.04,.14-.05,.17-.06q2.28-.16,2.46,2.08c.01,.16,.03,.33,.07,.49,.02,.08,.12,.14,.23,.26,.17-.18,.33-.32,.47-.5,1.84-2.39,4.76-3.33,7.55-2.44,2.56,.82,4.21,3.16,4.26,6.23,.06,3.62,.02,7.25,.06,10.88,0,.74-.26,.99-.99,.97-2.18-.06-1.98,.26-2-1.97-.03-3.09,0-6.19-.11-9.28-.09-3.01-1.72-4.74-4.28-4.73-2.58,0-4.81,2.26-4.85,4.99-.04,3.26-.05,6.52,.01,9.78,.02,.99-.32,1.25-1.26,1.21-2.05-.08-1.79,.21-1.8-1.83-.02-5.26-.04-10.51-.05-15.77,0-.09,.04-.19,.06-.32Z"/>
        <path class="cls-1" d="M48.05,73.94c.18-.08,.21-.1,.25-.1q2.92-.14,4.53,2.28c.99,1.49,1.98,2.98,3.07,4.61,.26-.35,.46-.59,.63-.84,1.1-1.7,2.23-3.39,3.28-5.13,.44-.72,.95-1.02,1.78-.94,.62,.06,1.26,.01,2.04,.01-.21,.35-.34,.6-.5,.83-1.66,2.37-3.31,4.75-5.01,7.09-.43,.59-.41,1,0,1.59,1.74,2.51,3.44,5.06,5.15,7.59,.16,.24,.31,.49,.57,.89-1.08,0-2.04,.06-2.98-.03-.31-.03-.66-.41-.86-.71-1.25-1.88-2.47-3.79-3.7-5.68-.16-.25-.33-.49-.58-.86-.23,.29-.41,.49-.56,.72-1.19,1.88-2.41,3.75-3.55,5.66-.43,.72-.95,1.02-1.78,.94-.62-.06-1.25-.01-2.07-.01,.24-.4,.39-.68,.57-.93,1.67-2.4,3.3-4.83,5.04-7.19,.61-.83,.55-1.39-.03-2.18-1.55-2.12-3.01-4.3-4.51-6.46-.24-.35-.47-.7-.75-1.12Z"/>
        <path class="cls-1" d="M88.46,76.51c-3.41-1.03-6.63-1.29-9.02,1.88-1.75,2.31-1.8,6.11-.26,8.58,.97,1.56,2.41,2.6,4.2,2.73,1.68,.13,3.4-.18,5.31-.31-.17-.15-.09-.12-.07-.06q.57,2.04-1.5,2.53c-2,.48-4.01,.55-6-.02-2.53-.72-4.4-2.26-5.31-4.72-1.29-3.5-1.17-6.95,1.11-10.04,2.2-2.99,5.37-3.84,8.92-3.57,.79,.06,1.55,.32,2.33,.47,.8,.15,1.05,.56,.72,1.33-.17,.38-.28,.79-.41,1.2Z"/>
        <path class="cls-1" d="M357.72,88.33c.07,.07,.11,.08,.12,.11,.66,2.04,.61,2.11-1.49,2.61-1.84,.43-3.69,.57-5.53,.1-3.64-.92-5.78-3.28-6.37-6.97-.6-3.79,.19-7.2,3.39-9.62,2.99-2.26,6.38-2.4,9.87-1.3,.49,.15,.72,.41,.48,.97-.19,.45-.3,.94-.46,1.45-3.49-.98-6.88-1.36-9.16,2.11-1.79,2.72-1.84,5.74-.03,8.46,2.32,3.49,5.75,3.12,9.17,2.09Z"/>
        <path class="cls-1" d="M218.37,88.88c.05,.61,.13,1.19,.11,1.78,0,.18-.3,.48-.48,.5-1.05,.11-2.13,.31-3.16,.17-2.15-.3-3.35-1.61-3.62-3.78-.14-1.15-.19-2.31-.2-3.47-.03-2.43,0-4.86,0-7.28q0-1.53-1.49-1.54c-1.26,0-1.7-.58-1.27-1.79,.08-.22,.55-.41,.85-.42,1.91-.09,1.99-.08,1.88-1.93-.07-1.18,.26-1.82,1.47-1.97,.48-.06,.94-.25,1.58-.43,0,1.08,0,2.03,0,2.98q0,1.34,1.38,1.34c.8,0,1.6,.04,2.4,0,.91-.06,.92,.49,.93,1.15,.01,.7-.1,1.16-.97,1.11-.9-.06-1.8,.04-2.7-.03-.86-.06-1.07,.29-1.06,1.1,.04,3.13,0,6.25,.02,9.38,.01,2.53,1.21,3.53,3.76,3.17,.16-.02,.32,0,.58,0Z"/>
        <path class="cls-1" d="M225.72,76.47c.2-.36,.4-.73,.62-1.08,.91-1.55,2.24-2.51,4.05-2.75,.77-.1,1.23,.13,1.14,1.01-.04,.36,.08,.77-.04,1.08-.11,.29-.43,.67-.7,.7-3.17,.39-4.91,2.27-4.95,5.51-.03,3.02-.03,6.05,0,9.07,0,.79-.23,1.05-1.03,1.03-2.37-.07-2.01,.27-2.02-2-.02-4.09,0-8.17,0-12.26,0-.73,0-1.46-.03-2.19-.06-1.61-.06-1.57,1.59-1.57,.72,0,.91,.28,.93,.94,.02,.82,.14,1.64,.22,2.46,.08,.02,.15,.04,.23,.06Z"/>
        <path class="cls-1" d="M327.17,76.5c.18-.33,.35-.67,.54-1,.95-1.67,2.34-2.68,4.29-2.87,.65-.06,1.04,.12,.96,.87-.02,.2-.02,.4,0,.6,.12,.95-.11,1.39-1.25,1.42-2.4,.07-4.29,2.27-4.35,4.87-.07,3.12-.11,6.25-.08,9.37,0,1.02-.32,1.42-1.32,1.27-.13-.02-.27-.02-.4,0-.99,.16-1.33-.22-1.31-1.25,.06-3.62,.04-7.25,.02-10.87,0-1.63-.06-3.26-.15-4.88-.05-.82,.27-1.09,1.04-1,.26,.03,.53,.02,.8,0,.61-.05,.82,.23,.82,.82,0,.87,.06,1.74,.09,2.61,.11,.02,.22,.03,.33,.05Z"/>
        <path class="cls-1" d="M339.75,82.04c0,2.66-.02,5.31,.02,7.97,.01,.78-.23,1.05-1.02,1.03-2.37-.07-2.01,.27-2.02-2-.02-4.98,.01-9.96-.02-14.94,0-.82,.24-1.1,1.07-1.08,2.29,.07,1.96-.26,1.97,1.95,.02,2.36,0,4.72,0,7.07Z"/>
        <path class="cls-1" d="M70.53,82.81c0,2.66-.02,5.31,.01,7.97,0,.74-.16,1.08-.99,1.06-2.42-.08-2.04,.28-2.05-2.07-.02-4.92,.01-9.83-.02-14.75,0-.87,.17-1.25,1.15-1.21,2.19,.09,1.89-.24,1.9,1.93,.01,2.36,0,4.72,0,7.07Z"/>
        <path class="cls-1" d="M317.17,65.16c-1.44,1.67-2.71,3.29-4.15,4.74-.41,.41-1.31,.34-1.99,.48-.05-.09-.1-.18-.15-.27,.95-1.54,1.9-3.09,2.88-4.61,.12-.18,.44-.32,.68-.33,.85-.04,1.7-.02,2.73-.02Z"/>
        <path class="cls-1" d="M36.72,70.98c1.01-1.62,1.93-3.14,2.89-4.64,.12-.18,.43-.33,.67-.34,.81-.04,1.63-.02,2.73-.02-1.24,1.46-2.3,2.71-3.37,3.95-1.06,1.23-1.07,1.22-2.92,1.04Z"/>
        <path class="cls-1" d="M338.33,65.84c1.09,.02,1.83,.79,1.82,1.92,0,1.11-.87,1.94-1.98,1.9-1.02-.04-1.87-.93-1.85-1.96,.02-1.11,.86-1.88,2.01-1.86Z"/>
        <path class="cls-1" d="M67.1,68.55c0-1.14,.8-1.93,1.94-1.91,1.07,.02,1.88,.82,1.88,1.89,0,1.05-.9,1.93-1.98,1.93-1.06,0-1.84-.82-1.84-1.91Z"/>
      </g>
      <g>
        <path class="cls-1" d="M336.67,35.36c0-6.56-2.81-12.36-12.31-12.36-4.87,0-8.75,1.39-10.84,2.6l1.54,5.26c1.93-1.21,5.02-2.21,7.93-2.21,4.81,0,5.6,2.71,5.6,4.46v.42c-10.5-.02-17.13,3.61-17.13,11,0,4.51,3.37,8.75,9.26,8.75,3.59,0,6.63-1.45,8.44-3.74h.18s1.2,5,7.81,3.09c-.34-2.1-.46-4.3-.46-6.99v-10.29Zm-7.83,6.93c0,.53-.04,1.08-.2,1.55-.6,2.02-2.69,3.71-5.28,3.71-2.19,0-3.91-1.24-3.91-3.84,0-3.97,4.39-5.07,9.39-5.04"/>
        <path class="cls-1" d="M175.95,14.07s6.86,28.05,7.95,32.6c1.28,5.31,3.58,7.27,10.22,5.97l4.29-17.4c1.08-4.31,1.82-7.4,2.52-11.79h.12c.49,4.44,1.19,7.48,2.07,11.81,0,0,1.75,7.9,2.66,12.04,.88,4.14,3.37,6.75,9.88,5.34l10.2-38.56h-8.24l-3.5,16.68c-.93,4.83-1.77,8.64-2.43,13.07h-.12c-.59-4.38-1.34-8.03-2.31-12.77l-3.63-16.98h-8.59l-3.87,16.55c-1.1,5.05-2.14,9.11-2.78,13.4h-.11c-.67-4.02-1.58-9.15-2.54-14.01,0,0-2.3-11.85-3.11-15.93"/>
        <path class="cls-1" d="M248.8,35.36c0-6.56-2.82-12.36-12.32-12.36-4.86,0-8.74,1.39-10.84,2.6l1.54,5.26c1.93-1.21,5.01-2.21,7.93-2.21,4.81,0,5.6,2.71,5.6,4.46v.42c-10.5-.02-17.14,3.61-17.14,11,0,4.51,3.38,8.75,9.24,8.75,3.63,0,6.64-1.45,8.45-3.74h.18s1.2,5,7.81,3.09c-.34-2.1-.46-4.3-.46-6.99v-10.29Zm-7.84,6.93c0,.53-.04,1.08-.19,1.55-.61,2.02-2.7,3.71-5.3,3.71-2.18,0-3.9-1.24-3.9-3.84,0-3.97,4.39-5.07,9.39-5.04"/>
        <polygon class="cls-1" points="253.08 14.07 253.08 52.62 260.91 52.62 260.91 44.45 260.91 14.07 253.08 14.07"/>
        <path class="cls-1" d="M360.73,14.07v28.44c0,3.93,.74,6.66,2.32,8.34,1.39,1.47,3.67,2.43,6.39,2.43,2.33,0,4.61-.45,5.69-.84l-.1-6.12c-.8,.19-1.73,.35-2.99,.35-2.68,0-3.56-1.69-3.56-5.22v-10.89h6.83v-7.37h-6.83V14.07"/>
        <path class="cls-1" d="M340.47,23.67v28.97h8.1v-14.84c0-.8,.05-1.49,.18-2.13,.6-3.13,2.98-5.11,6.4-5.11,.95,0,1.6,.11,2.32,.22v-7.59c-.6-.11-1.02-.17-1.76-.17-3.03,0-6.47,1.93-7.92,6.12h-.2v-5.47"/>
        <path class="cls-1" d="M265.47,23.67v28.97h7.9v-17c0-.8,.09-1.61,.37-2.35,.64-1.72,2.23-3.72,4.79-3.72,3.18,0,4.68,2.68,4.68,6.55v16.51h7.88v-17.21c0-.75,.11-1.67,.33-2.34,.63-1.95,2.36-3.53,4.74-3.53,3.21,0,4.77,2.63,4.77,7.19v15.88h7.87v-17.08c0-8.97-4.56-12.53-9.75-12.53-2.28,0-4.09,.56-5.72,1.57-1.38,.85-2.59,2.04-3.67,3.6h-.12c-1.25-3.12-4.17-5.16-8-5.16-4.9,0-7.13,2.48-8.44,4.57h-.12v-3.92"/>
        <path class="cls-1" d="M417.71,22.37c1.55,0,2.85-.81,3.02-1.85l1.54-17.39c0-1.72-2.03-3.13-4.56-3.13s-4.56,1.41-4.56,3.13l1.55,17.39c.16,1.04,1.46,1.85,3.01,1.85"/>
        <path class="cls-1" d="M408.3,27.81c.77-1.36,.72-2.87-.11-3.54l-14.33-10.02c-1.49-.87-3.72,.17-5,2.36-1.27,2.19-1.02,4.65,.44,5.5l15.87,7.36c1.02,.38,2.34-.33,3.12-1.67"/>
        <path class="cls-1" d="M427.13,27.79c.81,1.34,2.14,2.05,3.13,1.69l15.87-7.38c1.47-.87,1.69-3.3,.45-5.5-1.27-2.19-3.52-3.22-5.01-2.37l-14.34,10.01c-.79,.68-.85,2.2-.08,3.55"/>
        <path class="cls-1" d="M417.71,44.09c1.55,0,2.85,.81,3.02,1.85l1.54,17.39c0,1.72-2.03,3.12-4.56,3.12s-4.56-1.4-4.56-3.12l1.55-17.39c.16-1.04,1.46-1.85,3.01-1.85"/>
        <path class="cls-1" d="M427.13,38.66c.81-1.35,2.14-2.07,3.13-1.68l15.87,7.36c1.47,.85,1.69,3.31,.45,5.5-1.27,2.18-3.52,3.21-5.01,2.36l-14.34-10.03c-.79-.68-.85-2.18-.08-3.52"/>
        <path class="cls-1" d="M408.3,38.65c.77,1.36,.72,2.86-.11,3.54l-14.33,10.01c-1.49,.87-3.72-.17-5-2.35-1.27-2.19-1.02-4.65,.44-5.5l15.87-7.36c1.02-.39,2.34,.33,3.12,1.66"/>
        <path class="cls-1" d="M450.77,50.69h.2c.27,0,.38,.08,.41,.3,.06,.24,.09,.4,.15,.47h.51c-.04-.05-.1-.18-.13-.48-.06-.26-.19-.4-.38-.46v-.05c.26-.06,.41-.23,.41-.44,0-.19-.09-.33-.18-.42-.17-.08-.33-.15-.69-.15-.32,0-.55,.03-.74,.07v1.92h.45v-.76Zm.01-.88l.23-.03c.27,0,.42,.13,.42,.3,0,.2-.2,.29-.45,.29h-.2v-.56Zm.29-1.3c-1.11,0-2,.87-2,1.94s.88,1.96,2,1.96,1.98-.87,1.98-1.96-.86-1.94-1.98-1.94m0,.39c.86,0,1.49,.69,1.49,1.55s-.64,1.57-1.49,1.56c-.86,0-1.5-.7-1.5-1.56s.65-1.55,1.49-1.55"/>
      </g>
    </g>
  </g>
</svg>