<?xml version="1.0" encoding="utf-8"?>
<!-- Generator: Adobe Illustrator 27.0.0, SVG Export Plug-In . SVG Version: 6.00 Build 0)  -->
<svg version="1.1" id="Capa_2_00000000902554017883994720000002392702663464005305_"
	 xmlns="http://www.w3.org/2000/svg" xmlns:xlink="http://www.w3.org/1999/xlink" x="0px" y="0px" viewBox="0 0 69 50"
	 style="enable-background:new 0 0 69 50;" xml:space="preserve">
<style type="text/css">
	.st0{fill-rule:evenodd;clip-rule:evenodd;fill:#FF8000;}
</style>
<g id="portfolio">
	<path class="st0" d="M27.4,2.2c0-0.4,0.4-0.7,0.8-0.7h12.5c0.4,0,0.8,0.3,0.8,0.7V5H27.4L27.4,2.2L27.4,2.2z M25.9,5V2.2
		c0-1.2,1-2.2,2.4-2.2h12.5c1.3,0,2.3,1,2.3,2.2V5h23.4C67.9,5,69,6.1,69,7.4v40.2c0,1.3-1.1,2.4-2.5,2.4h-64C1.1,50,0,48.9,0,47.6
		V7.4C0,6.1,1.1,5,2.5,5L25.9,5L25.9,5z M30.2,25.5H0V23h30.2c0.1-1.3,1.2-2.2,2.5-2.2h3.6c1.3,0,2.4,1,2.5,2.2H69v2.5H38.8
		c-0.2,1.1-1.2,2-2.5,2h-3.6C31.5,27.5,30.5,26.7,30.2,25.5L30.2,25.5z"/>
</g>
</svg>
