<?xml version="1.0" encoding="UTF-8"?>
<svg id="Capa_2" data-name="Capa 2" xmlns="http://www.w3.org/2000/svg" xmlns:xlink="http://www.w3.org/1999/xlink" viewBox="0 0 100 100">
  <defs>
    <style>
      .cls-1 {
        fill: #b25000;
      }

      .cls-2 {
        fill: #572364;
      }

      .cls-3 {
        fill: url(#Degradado_sin_nombre_223);
      }

      .cls-4 {
        fill: url(#Degradado_sin_nombre_221);
      }

      .cls-5 {
        fill: url(#Degradado_sin_nombre_221-2);
      }

      .cls-6 {
        fill: url(#Degradado_sin_nombre_223-2);
      }
    </style>
    <linearGradient id="Degradado_sin_nombre_221" data-name="Degradado sin nombre 221" x1="20.42" y1="57.59" x2="37.63" y2="79.39" gradientUnits="userSpaceOnUse">
      <stop offset="0" stop-color="#b25000"/>
      <stop offset="1" stop-color="#d86100"/>
    </linearGradient>
    <linearGradient id="Degradado_sin_nombre_223" data-name="Degradado sin nombre 223" x1="12.12" y1="57.79" x2="39.38" y2="21.65" gradientUnits="userSpaceOnUse">
      <stop offset="0" stop-color="#ff8000"/>
      <stop offset="1" stop-color="#d86100"/>
    </linearGradient>
    <linearGradient id="Degradado_sin_nombre_221-2" data-name="Degradado sin nombre 221" x1="80.6" y1="43.81" x2="62.24" y2="20.28" xlink:href="#Degradado_sin_nombre_221"/>
    <linearGradient id="Degradado_sin_nombre_223-2" data-name="Degradado sin nombre 223" x1="88.3" y1="40.53" x2="61.33" y2="79.83" xlink:href="#Degradado_sin_nombre_223"/>
  </defs>
  <g id="Master">
    <rect class="cls-2" width="100" height="100"/>
    <g>
      <path class="cls-1" d="M71.93,18.75h0c-3.93-2.75-9.35-1.8-12.1,2.13L25.94,69.28c-2.75,3.93-1.8,9.35,2.13,12.1h0c3.93,2.75,9.35,1.8,12.1-2.13L74.06,30.85c2.75-3.93,1.8-9.35-2.13-12.1Z"/>
      <path class="cls-4" d="M37.82,81.53c-3.93,2.75-9.35,1.8-12.1-2.13l-7.43-10.61h0c-1.56-4.06,4.74-13.93,7.16-17.48,.01-.01,.02-.03,.03-.05l.19-.27c.09-.13,.17-.24,.24-.35,.09-.13,.17-.25,.24-.34,.13-.19,.2-.29,.2-.29h0s13.6,19.42,13.6,19.42c2.76,3.93,1.8,9.35-2.13,12.1Z"/>
      <path class="cls-3" d="M41.53,25.59c0,1.73-.51,3.46-1.58,4.98l-13.6,19.42h0s-.08,.1-.2,.3c-.07,.09-.15,.21-.24,.34-.08,.11-.16,.23-.24,.35l-.19,.27s-.02,.03-.03,.05c-2.42,3.56-8.72,13.43-7.16,17.48l-8.31-11.87s-.11-.14-.28-.39l-.16-.23s-.06-.09-.1-.14c-.36-.55-.85-1.33-1.22-2.09,0-.02-.02-.03-.02-.05-.23-.55-.4-1.12-.51-1.7,0,0,0-.01,0-.03-.05-.21-.27-1.32-.14-2.83,0,0,0-.01,0-.02-.03-1.76,.48-3.55,1.56-5.1L25.72,20.6c2.75-3.93,8.17-4.88,12.1-2.13,2.42,1.69,3.71,4.39,3.71,7.12Z"/>
      <path class="cls-5" d="M62.18,18.47c3.93-2.75,9.35-1.8,12.1,2.13l7.43,10.61h0c1.56,4.06-4.74,13.93-7.16,17.48-.01,.01-.02,.03-.03,.05l-.19,.27c-.09,.13-.17,.24-.24,.35-.09,.13-.17,.25-.24,.34-.13,.19-.2,.29-.2,.29h0s-13.6-19.42-13.6-19.42c-2.76-3.93-1.8-9.35,2.13-12.1Z"/>
      <path class="cls-6" d="M58.47,74.41c0-1.73,.51-3.46,1.58-4.98l13.6-19.42h0s.08-.1,.2-.3c.07-.09,.15-.21,.24-.34,.08-.11,.16-.23,.24-.35l.19-.27s.02-.03,.03-.05c2.42-3.56,8.72-13.43,7.16-17.48l8.31,11.87s.11,.14,.28,.39l.16,.23s.06,.09,.1,.14c.36,.55,.85,1.33,1.22,2.09,0,.02,.02,.03,.02,.05,.23,.55,.4,1.12,.51,1.7,0,0,0,.01,0,.03,.05,.21,.27,1.32,.14,2.83,0,0,0,.01,0,.02,.03,1.76-.48,3.55-1.56,5.1l-16.61,23.73c-2.75,3.93-8.17,4.88-12.1,2.13-2.42-1.69-3.71-4.39-3.71-7.12Z"/>
    </g>
  </g>
</svg>