<?xml version="1.0" encoding="utf-8"?>
<!-- Generator: Adobe Illustrator 27.0.0, SVG Export Plug-In . SVG Version: 6.00 Build 0)  -->
<svg version="1.1" id="Capa_2_00000019660277943215721110000000368371421796518825_"
	 xmlns="http://www.w3.org/2000/svg" xmlns:xlink="http://www.w3.org/1999/xlink" x="0px" y="0px" viewBox="0 0 50 50"
	 style="enable-background:new 0 0 50 50;" xml:space="preserve">
<style type="text/css">
	.st0{fill:#FF8000;}
</style>
<g id="js">
	<g id="Capa_2-2_00000116204095444691048940000003139527844556858004_">
		<g id="Capa_1-2">
			<g id="JavaScript">
				<g id="Capa_1-2-2">
					<g id="Capa_2-2">
						<g id="Capa_1-2-2-2">
							<path class="st0" d="M0,0v50h50V0H0z M27.2,39c0,4.8-2.9,7.1-7,7.1c-3.8,0-5.9-2-7.1-4.3l3.8-2.3c0.8,1.3,1.4,2.4,3,2.4
								s2.5-0.6,2.5-3V23h4.7V39z M38.3,46.1c-4.3,0-7.2-2.1-8.5-4.8l3.8-2.2c1,1.7,2.3,2.8,4.7,2.8c2,0,3.2-1,3.2-2.3
								c0-1.6-1.2-2.2-3.4-3.1L36.9,36c-3.4-1.5-5.6-3.2-5.6-7.1c0-3.5,2.7-6.2,6.9-6.2c3,0,5.2,1,6.7,3.8l-3.7,2.4
								c-0.8-1.5-1.7-2-3-2s-2.2,0.9-2.2,2c0,1.4,0.9,2,2.9,2.9l1.2,0.5c4,1.7,6.2,3.5,6.2,7.4C46.1,43.8,42.8,46.1,38.3,46.1z"/>
						</g>
					</g>
				</g>
			</g>
		</g>
	</g>
</g>
</svg>
