<?xml version="1.0" encoding="UTF-8"?>
<svg id="Capa_2" data-name="Capa 2" xmlns="http://www.w3.org/2000/svg" viewBox="0 0 300 300">
  <defs>
    <style>
      .cls-1 {
        fill: none;
      }

      .cls-2 {
        fill: #ededed;
      }
    </style>
  </defs>
  <g id="Marco">
    <rect class="cls-1" width="300" height="300"/>
  </g>
  <g id="Capa_2-2" data-name="Capa 2">
    <g id="Capa_2-3" data-name="Capa 2">
      <g id="Capa_2-2" data-name="Capa 2-2">
        <path class="cls-2" d="M51.97,153.25v10.91H7.5V100.13H51.15v10.91H19.95v15.42h26.97v10.1H19.95v16.68H51.97Z"/>
        <path class="cls-2" d="M67.75,123.13v41.04h-12.45V100.13h9.65l33.37,42.01v-41.92h12.45v63.95h-10.1l-32.92-41.04Z"/>
        <path class="cls-2" d="M138.22,100.13h11l24.35,64.04h-12.81l-5.95-15.97h-22.37l-5.87,15.97h-12.8l24.44-64.04Zm14.34,39.33l-8.84-25.17-9.2,25.17h18.04Z"/>
        <path class="cls-2" d="M176.73,164.17V100.13h12.45v53.12h32.65v10.91h-45.09Z"/>
        <path class="cls-2" d="M16.71,181.09v.62H7.64v-13.73h8.9v.62H8.32v5.78h7.19v.62h-7.19v6.09h8.39Z"/>
        <path class="cls-2" d="M21.6,181.9c-.74,0-1.47-.13-2.16-.39-.68-.26-1.28-.67-1.78-1.2l.37-.45c.49,.47,1.06,.85,1.68,1.13,.6,.25,1.25,.38,1.9,.37,.8,.03,1.58-.18,2.26-.6,.56-.37,.89-1.01,.87-1.68,.01-.3-.07-.59-.22-.84-.17-.24-.39-.44-.65-.58-.33-.18-.69-.32-1.06-.42-.42-.12-.9-.25-1.44-.38s-1.03-.25-1.44-.37c-.36-.11-.7-.26-1.02-.45-.26-.15-.46-.37-.6-.64-.14-.31-.2-.65-.19-.99-.01-.45,.09-.89,.29-1.29,.19-.36,.45-.67,.78-.9,.35-.25,.73-.43,1.14-.53,.45-.12,.92-.18,1.38-.18,.72-.02,1.44,.12,2.1,.41,.53,.21,.98,.56,1.31,1.03l-.45,.33c-.32-.42-.75-.73-1.25-.9-.56-.21-1.15-.32-1.75-.31-.38,0-.76,.04-1.12,.13-.32,.08-.63,.22-.9,.41-.56,.39-.88,1.03-.86,1.71,0,.27,.04,.53,.15,.77,.1,.21,.26,.39,.47,.51,.27,.15,.55,.27,.85,.35,.34,.1,.75,.2,1.25,.32,.61,.14,1.17,.28,1.64,.42,.42,.12,.83,.29,1.22,.5,.31,.18,.57,.43,.75,.73,.18,.33,.28,.7,.26,1.08,0,.42-.09,.83-.27,1.21-.19,.35-.45,.66-.76,.9-.36,.27-.77,.47-1.2,.59-.5,.14-1.02,.21-1.55,.21Z"/>
        <path class="cls-2" d="M31.85,181.9c-.42,0-.84-.07-1.25-.19-.39-.13-.76-.3-1.1-.52-.34-.22-.66-.48-.94-.77-.28-.29-.52-.61-.73-.95v6.37h-.66v-14.18h.62v2.11c.21-.33,.46-.63,.75-.9,.29-.28,.61-.52,.95-.72,.33-.19,.69-.34,1.06-.45,.37-.11,.75-.17,1.13-.17,.67,0,1.33,.15,1.93,.45,.58,.29,1.1,.69,1.53,1.18,.43,.49,.77,1.06,1,1.67,.24,.61,.36,1.25,.36,1.91,0,.68-.11,1.35-.34,1.99-.21,.61-.53,1.17-.95,1.65-.4,.47-.9,.86-1.46,1.13-.59,.28-1.24,.41-1.89,.39Zm-.09-.62c.58,0,1.16-.13,1.68-.4,.5-.26,.93-.61,1.29-1.04,.35-.44,.63-.94,.82-1.47,.19-.54,.29-1.1,.29-1.67,0-.59-.11-1.17-.33-1.72-.21-.54-.52-1.04-.9-1.47-.38-.42-.84-.76-1.36-1.01-.52-.25-1.09-.38-1.66-.38-.41,0-.81,.09-1.19,.24-.42,.16-.81,.38-1.18,.64-.36,.25-.68,.56-.94,.9-.25,.32-.41,.7-.45,1.1v3.46c.17,.39,.39,.76,.66,1.09,.26,.34,.57,.64,.9,.9,.34,.25,.71,.45,1.1,.6,.4,.15,.83,.23,1.26,.23h0Z"/>
        <path class="cls-2" d="M42.5,181.9c-.66,0-1.32-.14-1.92-.42-.59-.28-1.12-.66-1.55-1.14-.45-.49-.8-1.06-1.04-1.68-.26-.65-.38-1.34-.38-2.04,0-.68,.12-1.35,.37-1.99,.24-.6,.58-1.15,1.03-1.63,.43-.46,.95-.84,1.53-1.1,.59-.27,1.24-.41,1.9-.41,.67,0,1.33,.13,1.93,.41,.58,.27,1.11,.65,1.55,1.12,.44,.48,.8,1.04,1.03,1.65,.25,.64,.38,1.32,.37,2.01v.29h-9.03c.05,.6,.2,1.18,.45,1.73,.22,.52,.53,.99,.91,1.39,.38,.38,.82,.69,1.31,.9,.49,.23,1.03,.34,1.57,.34,.73,0,1.44-.2,2.07-.56,.3-.17,.58-.39,.81-.65,.23-.24,.42-.52,.56-.82l.6,.15c-.15,.36-.36,.69-.62,.98-.28,.31-.6,.58-.96,.79-.37,.22-.77,.38-1.19,.5-.43,.12-.87,.18-1.31,.18Zm4.16-5.49c-.03-.6-.17-1.19-.41-1.74-.22-.5-.52-.96-.9-1.36-.37-.38-.82-.69-1.31-.9-.5-.21-1.04-.32-1.59-.32-.55,0-1.09,.11-1.59,.33-.49,.21-.92,.52-1.29,.9-.38,.39-.69,.85-.9,1.36-.23,.55-.36,1.13-.4,1.72h8.38Z"/>
        <path class="cls-2" d="M48.22,176.64c0-.69,.12-1.38,.37-2.02,.23-.6,.58-1.16,1.03-1.63,.91-.96,2.19-1.5,3.51-1.48,.82-.01,1.63,.2,2.34,.61,.67,.39,1.2,.97,1.53,1.67l-.64,.23c-.31-.58-.78-1.07-1.36-1.4-.59-.34-1.26-.51-1.93-.5-.56,0-1.12,.12-1.63,.35-.51,.23-.97,.55-1.36,.96-.39,.42-.7,.91-.9,1.44-.22,.57-.32,1.17-.32,1.78,0,.61,.11,1.22,.34,1.78,.21,.54,.52,1.04,.9,1.48,.38,.42,.84,.76,1.36,1,.5,.25,1.05,.37,1.61,.37,.38,0,.75-.06,1.11-.17,.36-.11,.7-.26,1.02-.45,.29-.17,.56-.38,.8-.63,.21-.21,.37-.48,.45-.76l.66,.19c-.12,.36-.32,.69-.57,.97-.26,.3-.57,.55-.9,.76-.37,.22-.76,.39-1.17,.5-.43,.13-.88,.19-1.33,.19-.66,0-1.32-.14-1.92-.42-.59-.28-1.12-.66-1.56-1.13-.93-1.01-1.44-2.34-1.44-3.71h0Z"/>
        <path class="cls-2" d="M58.81,169.22v-1.62h.64v1.62h-.64Zm0,12.49v-10.06h.64v10.06h-.64Z"/>
        <path class="cls-2" d="M64.48,181.9c-.44,0-.88-.08-1.29-.24-.38-.15-.73-.38-1.02-.66-.29-.28-.53-.61-.7-.98-.17-.38-.26-.8-.25-1.22,0-.41,.1-.81,.31-1.17,.22-.36,.51-.67,.86-.9,.4-.27,.85-.48,1.31-.6,.55-.15,1.11-.22,1.67-.21,.57,0,1.15,.05,1.71,.14,.53,.08,1.05,.22,1.55,.41v-1.08c.04-.88-.26-1.75-.86-2.41-.61-.61-1.45-.94-2.31-.9-.54,.01-1.07,.12-1.56,.32-.59,.23-1.15,.53-1.66,.9l-.31-.48c1.29-.88,2.48-1.31,3.58-1.31,1.03-.05,2.04,.32,2.77,1.04,.71,.78,1.07,1.81,1.02,2.86v5.26c0,.28,.11,.42,.35,.42v.62s-.07,0-.11,0h-.09c-.21,0-.41-.08-.55-.24-.15-.16-.23-.37-.22-.59v-.9c-.47,.61-1.1,1.09-1.81,1.4-.75,.35-1.57,.53-2.39,.54Zm.08-.56c.49,0,.97-.07,1.44-.19,.46-.12,.9-.3,1.31-.53,.36-.2,.68-.47,.95-.78,.23-.26,.36-.6,.37-.95v-1.89c-1.02-.39-2.11-.59-3.21-.58-.49,0-.98,.05-1.45,.18-.4,.1-.78,.26-1.13,.48-.3,.19-.55,.44-.74,.75-.18,.29-.27,.63-.26,.98,0,.35,.07,.69,.21,1,.14,.31,.34,.58,.58,.81,.25,.23,.54,.42,.86,.54,.34,.13,.71,.2,1.08,.2h0Z"/>
        <path class="cls-2" d="M71.83,167.6h.64v12.39c-.02,.34,.11,.67,.35,.9,.25,.22,.57,.34,.9,.33,.17,0,.34-.02,.51-.05,.19-.03,.37-.08,.55-.14l.16,.54c-.24,.07-.48,.13-.73,.17-.25,.05-.5,.07-.75,.08-.44,.02-.87-.14-1.19-.45-.31-.33-.48-.77-.45-1.23v-12.54Z"/>
        <path class="cls-2" d="M75.92,169.22v-1.62h.66v1.62h-.66Zm0,12.49v-10.06h.66v10.06h-.66Z"/>
        <path class="cls-2" d="M82.21,181.9c-.74,0-1.48-.13-2.17-.39-.67-.26-1.28-.67-1.78-1.2l.37-.45c.49,.46,1.05,.83,1.66,1.1,.6,.25,1.24,.38,1.89,.37,.8,.04,1.6-.17,2.28-.6,.57-.37,.9-1.01,.87-1.68,.01-.3-.07-.59-.22-.84-.17-.24-.39-.44-.65-.58-.33-.18-.69-.32-1.05-.42-.42-.12-.9-.25-1.44-.38s-1.03-.25-1.44-.37c-.36-.11-.7-.26-1.02-.45-.26-.15-.46-.37-.6-.64-.14-.31-.2-.65-.19-.99-.01-.45,.09-.89,.29-1.29,.19-.36,.45-.67,.78-.9,.34-.25,.73-.43,1.14-.53,.45-.12,.92-.18,1.38-.18,.72-.02,1.44,.12,2.1,.41,.51,.22,.96,.57,1.28,1.03l-.45,.33c-.32-.42-.75-.73-1.25-.9-.92-.34-1.92-.4-2.87-.19-.32,.08-.63,.22-.9,.41-.56,.39-.88,1.03-.86,1.71,0,.27,.04,.53,.15,.77,.11,.22,.28,.39,.49,.51,.27,.15,.55,.27,.85,.35,.34,.1,.76,.2,1.25,.32,.62,.14,1.17,.28,1.64,.42,.42,.12,.83,.29,1.22,.5,.31,.17,.57,.42,.76,.72,.18,.33,.28,.7,.26,1.08,0,.42-.09,.83-.28,1.21-.18,.35-.44,.66-.76,.9-.36,.27-.77,.47-1.2,.59-.5,.16-1.03,.25-1.56,.26Z"/>
        <path class="cls-2" d="M91.95,181.24l-.19,.11c-.13,.07-.27,.13-.41,.19-.19,.08-.4,.14-.6,.19-.24,.05-.49,.08-.75,.08-.47,0-.94-.16-1.31-.45-.37-.3-.58-.75-.55-1.23v-7.91h-1.43v-.58h1.43v-3.46h.68v3.46h2.38v.58h-2.38v7.83c0,.33,.16,.65,.42,.85,.26,.2,.58,.3,.9,.29,.2,0,.39-.02,.59-.07,.17-.04,.33-.09,.49-.15,.12-.05,.24-.1,.35-.16,.05-.03,.11-.06,.16-.1l.22,.54Z"/>
        <path class="cls-2" d="M95.57,181.9c-.44,0-.88-.08-1.3-.24-.39-.15-.74-.37-1.04-.66-.29-.28-.53-.61-.7-.98-.17-.38-.26-.8-.25-1.22,0-.41,.1-.82,.31-1.17,.22-.36,.51-.67,.86-.9,.4-.27,.85-.48,1.31-.6,.55-.15,1.11-.22,1.67-.21,.57,0,1.15,.05,1.71,.14,.53,.08,1.05,.22,1.55,.41v-1.08c.04-.88-.26-1.75-.86-2.41-.61-.61-1.45-.94-2.31-.9-.54,.01-1.07,.12-1.57,.32-.59,.23-1.15,.53-1.66,.9l-.31-.48c1.03-.79,2.28-1.24,3.57-1.31,1.03-.06,2.04,.32,2.77,1.04,.71,.78,1.07,1.81,1.02,2.86v5.26c0,.28,.12,.42,.35,.42v.62s-.07,0-.11,0h-.09c-.21,0-.41-.08-.55-.24-.15-.16-.23-.37-.22-.59v-.9c-.47,.61-1.09,1.1-1.81,1.4-.74,.34-1.55,.53-2.37,.53Zm.08-.56c.49,0,.97-.07,1.44-.19,.46-.12,.89-.3,1.3-.53,.36-.2,.68-.47,.95-.78,.23-.26,.36-.6,.37-.95v-1.89c-1.02-.39-2.11-.59-3.21-.58-.49,0-.98,.05-1.45,.18-.4,.1-.78,.26-1.13,.48-.3,.19-.55,.44-.74,.75-.17,.3-.27,.63-.26,.98,0,.35,.07,.69,.22,1,.14,.31,.33,.58,.58,.81,.25,.23,.54,.42,.86,.54,.34,.13,.71,.2,1.08,.2h0Z"/>
        <path class="cls-2" d="M105.85,181.9c-.74,0-1.47-.13-2.16-.39-.67-.26-1.27-.67-1.77-1.19l.37-.45c.49,.46,1.05,.83,1.66,1.1,.6,.25,1.24,.38,1.89,.37,.8,.04,1.6-.17,2.28-.6,.56-.37,.89-1.01,.87-1.68,.01-.3-.07-.59-.23-.84-.17-.24-.39-.44-.65-.58-.33-.18-.69-.32-1.05-.42-.42-.12-.9-.25-1.44-.38s-1.03-.25-1.44-.37c-.36-.1-.7-.26-1.01-.45-.26-.15-.47-.37-.6-.64-.14-.31-.21-.65-.19-.99-.01-.45,.09-.89,.29-1.29,.19-.36,.46-.67,.79-.9,.34-.25,.73-.43,1.14-.53,.45-.11,.92-.16,1.39-.14,.72-.02,1.44,.12,2.1,.41,.52,.21,.96,.57,1.29,1.03l-.45,.33c-.32-.42-.75-.73-1.25-.9-.92-.34-1.92-.4-2.87-.19-.32,.08-.63,.22-.9,.41-.56,.39-.88,1.03-.86,1.71,0,.27,.05,.53,.16,.77,.11,.22,.28,.39,.49,.51,.27,.15,.55,.27,.85,.35,.34,.1,.75,.2,1.25,.32,.62,.14,1.17,.28,1.64,.42,.42,.12,.83,.29,1.22,.5,.31,.17,.57,.42,.76,.72,.19,.33,.28,.7,.26,1.08,0,.42-.09,.83-.27,1.21-.19,.35-.45,.66-.76,.9-.36,.27-.76,.47-1.2,.59-.51,.15-1.05,.22-1.58,.22Z"/>
        <path class="cls-2" d="M120.02,181.9c-.66,0-1.32-.14-1.92-.42-.59-.28-1.12-.66-1.55-1.14-.45-.49-.8-1.06-1.04-1.68-.26-.65-.38-1.34-.38-2.04,0-.68,.12-1.36,.37-1.99,.23-.6,.58-1.15,1.02-1.63,.43-.46,.95-.84,1.53-1.1,.59-.27,1.24-.41,1.9-.41,.67,0,1.33,.13,1.93,.41,.58,.26,1.11,.64,1.55,1.11,.44,.48,.8,1.04,1.03,1.65,.25,.64,.38,1.32,.37,2.01v.29h-9.03c.05,.6,.2,1.18,.45,1.73,.22,.51,.54,.98,.93,1.38,.38,.38,.82,.69,1.31,.9,.49,.23,1.03,.34,1.57,.34,.73,0,1.44-.2,2.07-.56,.3-.17,.58-.39,.81-.65,.23-.24,.42-.52,.56-.82l.6,.15c-.15,.36-.36,.69-.62,.98-.27,.31-.6,.57-.96,.78-.38,.22-.78,.4-1.2,.52-.43,.12-.88,.18-1.32,.18Zm4.16-5.49c-.03-.6-.17-1.19-.41-1.74-.22-.5-.52-.96-.9-1.36-.37-.38-.82-.69-1.31-.9-1.01-.43-2.15-.43-3.16,0-.48,.21-.92,.52-1.28,.9-.38,.39-.69,.85-.9,1.36-.23,.55-.36,1.13-.4,1.72l8.36,.02Z"/>
        <path class="cls-2" d="M134.44,181.71h-.66v-5.61c0-1.36-.19-2.39-.59-3.03-.4-.64-1.11-1.01-1.87-.96-.46,0-.92,.09-1.36,.25-.45,.17-.87,.4-1.25,.7-.38,.3-.72,.65-1,1.04-.29,.4-.5,.84-.63,1.31v6.28h-.66v-10.06h.64v2.52c.21-.4,.47-.77,.77-1.09,.31-.33,.66-.61,1.04-.84,.39-.23,.8-.41,1.23-.54,.43-.13,.88-.19,1.32-.19,.91-.07,1.79,.36,2.29,1.13,.47,.76,.71,1.89,.71,3.39v5.68Z"/>
        <path class="cls-2" d="M142.29,169.25v12.45h-.68v-13.72h.51l10.09,12.65v-12.65h.68v13.73h-.66l-9.95-12.46Z"/>
        <path class="cls-2" d="M159.76,181.9c-.66,0-1.31-.14-1.91-.42-.59-.28-1.12-.66-1.56-1.14-1.39-1.55-1.81-3.75-1.07-5.71,.23-.6,.58-1.15,1.03-1.63,.43-.46,.95-.84,1.53-1.1,.59-.27,1.24-.41,1.89-.41,.67,0,1.33,.13,1.93,.41,.58,.26,1.11,.64,1.55,1.11,.45,.48,.8,1.04,1.03,1.65,.25,.64,.38,1.32,.38,2.01v.15s.01,.09,0,.14h-9.01c.05,.6,.2,1.18,.45,1.73,.22,.51,.53,.98,.93,1.38,.38,.38,.82,.69,1.31,.9,.49,.23,1.03,.34,1.58,.34,.36,0,.72-.05,1.07-.15,.35-.09,.69-.23,1-.42,.3-.17,.58-.39,.81-.65,.23-.24,.42-.52,.56-.82l.6,.15c-.15,.36-.36,.69-.62,.98-.27,.31-.6,.57-.95,.78-.37,.22-.78,.4-1.19,.52-.43,.12-.88,.18-1.33,.18Zm4.16-5.49c-.03-.6-.17-1.19-.4-1.74-.22-.5-.52-.96-.9-1.36-.37-.38-.81-.69-1.3-.9-.5-.21-1.04-.32-1.59-.32-.54,0-1.08,.11-1.58,.33-.48,.21-.92,.52-1.29,.9-.38,.39-.69,.85-.9,1.36-.23,.55-.36,1.13-.39,1.72h8.36Z"/>
        <path class="cls-2" d="M170.32,181.9c-.66,0-1.31-.14-1.91-.42-.58-.27-1.1-.66-1.54-1.12-.44-.48-.79-1.04-1.03-1.65-.24-.64-.37-1.31-.37-1.99,0-.69,.12-1.37,.38-2.01,.24-.61,.59-1.18,1.03-1.66,.44-.47,.96-.86,1.54-1.13,.59-.28,1.23-.42,1.88-.42,.65,0,1.3,.14,1.89,.42,.59,.27,1.11,.66,1.55,1.13,.44,.49,.79,1.05,1.03,1.66,.77,1.93,.37,4.12-1.03,5.65-.43,.47-.96,.86-1.54,1.12-.6,.28-1.25,.42-1.91,.42Zm-4.17-5.16c0,.6,.11,1.2,.33,1.76,.21,.53,.52,1.03,.9,1.45,.37,.41,.82,.75,1.32,.98,.51,.24,1.06,.36,1.62,.36,.56,0,1.12-.12,1.63-.37,.5-.24,.96-.57,1.33-.98,.39-.42,.7-.92,.9-1.46,.44-1.14,.44-2.4,0-3.54-.2-.54-.51-1.04-.9-1.46-.38-.41-.83-.75-1.33-.98-.5-.25-1.05-.37-1.61-.37-.56,0-1.11,.12-1.6,.37-.5,.24-.95,.58-1.32,.99-.39,.43-.69,.93-.9,1.47-.23,.57-.36,1.18-.36,1.79h0Z"/>
        <path class="cls-2" d="M185.01,181.71h-.66v-5.61c0-1.36-.2-2.39-.59-3.03-.4-.64-1.11-1.01-1.87-.96-.46,0-.92,.09-1.36,.25-.45,.17-.87,.4-1.25,.7-.38,.3-.72,.65-1.01,1.04-.29,.4-.5,.84-.63,1.31v6.28h-.66v-10.06h.64v2.52c.41-.8,1.04-1.47,1.81-1.93,.39-.23,.8-.41,1.23-.54,.43-.13,.88-.19,1.32-.19,.91-.07,1.79,.36,2.29,1.13,.47,.75,.7,1.88,.7,3.39v5.68Z"/>
        <path class="cls-2" d="M191.63,181.9c-.66,0-1.32-.14-1.92-.42-.59-.28-1.12-.66-1.55-1.14-.45-.49-.8-1.06-1.04-1.68-.26-.65-.38-1.34-.38-2.04,0-.68,.12-1.35,.37-1.99,.24-.6,.58-1.15,1.03-1.63,.43-.46,.95-.84,1.53-1.1,.59-.27,1.24-.41,1.9-.41,.67,0,1.33,.13,1.93,.41,.58,.26,1.11,.64,1.55,1.11,.45,.48,.8,1.05,1.03,1.66,.25,.64,.38,1.32,.37,2.01v.29h-9.03c.05,.6,.2,1.18,.45,1.73,.22,.51,.54,.98,.93,1.38,.38,.38,.82,.69,1.31,.9,.49,.23,1.03,.34,1.57,.34,.73,0,1.44-.2,2.07-.56,.3-.17,.58-.39,.81-.65,.23-.24,.42-.52,.56-.82l.6,.15c-.15,.36-.36,.69-.62,.98-.28,.31-.6,.57-.96,.78-.37,.22-.77,.38-1.19,.5-.43,.13-.88,.2-1.33,.2Zm4.16-5.49c-.03-.6-.17-1.19-.41-1.74-.22-.5-.52-.96-.9-1.36-.37-.38-.82-.69-1.31-.9-.5-.21-1.04-.32-1.59-.32-.55,0-1.09,.11-1.59,.33-.48,.22-.92,.52-1.29,.9-.38,.39-.69,.85-.9,1.36-.23,.55-.37,1.13-.4,1.72h8.38Z"/>
        <path class="cls-2" d="M201.12,181.9c-.74,0-1.47-.13-2.16-.39-.68-.26-1.28-.67-1.78-1.2l.37-.45c.49,.46,1.05,.83,1.66,1.1,.6,.25,1.25,.38,1.9,.37,.8,.04,1.6-.17,2.28-.6,.56-.37,.89-1.01,.87-1.68,.01-.3-.07-.59-.22-.84-.17-.24-.39-.44-.65-.58-.33-.18-.69-.32-1.06-.42-.42-.12-.9-.25-1.44-.38s-1.03-.25-1.44-.37c-.36-.11-.7-.26-1.02-.45-.26-.15-.46-.37-.6-.64-.14-.31-.2-.65-.19-.99-.01-.45,.09-.89,.29-1.29,.19-.36,.45-.67,.78-.9,.35-.25,.73-.43,1.14-.53,.45-.12,.92-.18,1.38-.18,.72-.02,1.44,.12,2.1,.41,.52,.21,.96,.57,1.29,1.03l-.45,.33c-.32-.42-.75-.73-1.25-.9-.92-.34-1.91-.4-2.87-.19-.32,.08-.63,.22-.9,.41-.26,.19-.47,.43-.63,.7-.16,.31-.24,.66-.23,1.01,0,.27,.04,.53,.15,.77,.11,.22,.28,.39,.49,.51,.27,.15,.55,.27,.85,.35,.34,.1,.75,.2,1.25,.32,.61,.14,1.17,.28,1.64,.42,.42,.12,.83,.29,1.22,.5,.31,.17,.57,.42,.76,.72,.18,.33,.28,.7,.26,1.08,0,.42-.09,.83-.27,1.21-.19,.35-.45,.66-.76,.9-.36,.27-.77,.47-1.2,.59-.51,.16-1.04,.25-1.57,.26Z"/>
        <path class="cls-2" d="M220.95,181.71l-1.91-1.99c-.49,.65-1.12,1.19-1.84,1.59-.74,.4-1.57,.61-2.42,.6-.54,0-1.07-.08-1.59-.24-.49-.15-.95-.38-1.36-.7-.39-.3-.71-.68-.95-1.11-.44-.88-.47-1.9-.09-2.81,.18-.39,.41-.76,.7-1.08,.31-.35,.64-.67,1.01-.95,.39-.29,.8-.59,1.22-.9-.39-.41-.71-.78-.98-1.1-.24-.29-.46-.59-.66-.9-.15-.24-.27-.5-.36-.77-.07-.23-.1-.47-.1-.7,0-.38,.08-.75,.25-1.09,.17-.34,.41-.65,.7-.9,.31-.27,.66-.48,1.04-.63,.41-.16,.85-.23,1.3-.23,.4,0,.81,.06,1.19,.19,.35,.12,.67,.3,.95,.54,.26,.23,.47,.5,.62,.81,.15,.31,.22,.64,.22,.98,0,.39-.09,.77-.27,1.12-.19,.36-.44,.69-.72,.98-.33,.33-.68,.63-1.05,.9-.39,.3-.8,.59-1.22,.87l4.39,4.58c.64-1.11,.97-2.37,.97-3.65h.6c0,.73-.1,1.45-.3,2.15-.19,.68-.48,1.33-.86,1.93l2.42,2.49-.88,.03Zm-6.09-.37c.76,.01,1.5-.18,2.16-.55,.64-.37,1.2-.88,1.63-1.48l-4.52-4.78c-.4,.27-.78,.55-1.13,.82-.33,.26-.63,.56-.9,.88-.26,.3-.47,.63-.63,.99-.16,.36-.24,.76-.23,1.15,0,.46,.1,.91,.33,1.31,.22,.36,.51,.67,.86,.9,.36,.25,.77,.43,1.19,.55,.41,.12,.82,.19,1.25,.2Zm-2.61-10.67c0,.18,.03,.36,.08,.53,.07,.23,.17,.44,.29,.65,.17,.3,.37,.58,.59,.84,.25,.32,.58,.69,.99,1.11,.45-.31,.88-.6,1.26-.88,.34-.25,.67-.52,.97-.82,.25-.24,.46-.52,.62-.82,.14-.28,.21-.59,.21-.9,0-.55-.24-1.08-.67-1.43-.48-.38-1.08-.58-1.69-.56-.36,0-.71,.06-1.04,.19-.31,.11-.59,.28-.84,.49-.23,.2-.43,.45-.56,.73-.13,.27-.2,.58-.2,.88h0Z"/>
        <path class="cls-2" d="M33.98,185.96h.58l5.92,13.71h-.74l-2.03-4.74h-6.88l-2.03,4.74h-.74l5.92-13.71Zm3.52,8.41l-3.23-7.56-3.25,7.56h6.48Z"/>
        <path class="cls-2" d="M49.79,199.67h-.66v-5.61c0-1.38-.2-2.39-.59-3.03-.4-.64-1.11-1.01-1.87-.96-.46,0-.92,.09-1.36,.25-.44,.17-.86,.4-1.23,.7-.38,.3-.72,.65-1.01,1.04-.29,.4-.5,.84-.63,1.31v6.28h-.66v-10.05h.64v2.51c.2-.4,.46-.77,.76-1.09,.31-.33,.66-.61,1.04-.84,.39-.23,.8-.41,1.23-.54,.43-.13,.88-.19,1.32-.19,.91-.07,1.79,.36,2.29,1.13,.47,.75,.7,1.88,.7,3.39v5.68Z"/>
        <path class="cls-2" d="M55.34,199.86c-.94,.06-1.85-.38-2.39-1.14-.54-.76-.81-1.88-.81-3.38v-5.72h.66v5.64c0,2.66,.89,3.98,2.68,3.98,.46,0,.92-.08,1.36-.24,.43-.16,.84-.38,1.21-.66,.37-.29,.7-.64,.97-1.03,.28-.4,.5-.85,.65-1.31v-6.38h.66v8.99c0,.28,.12,.42,.35,.42v.62c-.06,0-.13,0-.19,0-.21,0-.4-.09-.54-.24-.15-.16-.24-.37-.23-.59v-1.66c-.41,.8-1.04,1.48-1.81,1.95-.76,.49-1.64,.75-2.54,.75Z"/>
        <path class="cls-2" d="M70.89,199.67h-.66v-5.61c0-1.38-.2-2.39-.59-3.03-.4-.64-1.11-1.01-1.87-.96-.46,0-.92,.09-1.36,.25-.45,.17-.87,.4-1.25,.7-.38,.3-.72,.65-1,1.04-.29,.4-.5,.84-.63,1.31v6.28h-.66v-10.05h.64v2.51c.2-.4,.46-.77,.77-1.09,.31-.33,.66-.61,1.04-.84,.39-.23,.8-.41,1.23-.54,.43-.13,.88-.19,1.32-.19,.91-.07,1.79,.36,2.29,1.13,.47,.75,.7,1.88,.7,3.39v5.68Z"/>
        <path class="cls-2" d="M72.61,194.61c0-.69,.12-1.38,.37-2.02,.23-.61,.58-1.17,1.03-1.65,.91-.96,2.18-1.5,3.5-1.49,.82-.02,1.63,.19,2.34,.61,.67,.39,1.2,.97,1.53,1.68l-.64,.23c-.31-.58-.78-1.06-1.36-1.39-.59-.34-1.26-.51-1.93-.51-.56,0-1.12,.12-1.64,.35-.5,.23-.95,.56-1.33,.96-.39,.42-.7,.91-.9,1.44-.22,.57-.32,1.17-.32,1.78,0,.62,.11,1.23,.34,1.81,.21,.54,.52,1.04,.9,1.48,.38,.42,.84,.77,1.36,1.01,.5,.24,1.05,.37,1.61,.37,.38,0,.75-.06,1.11-.17,.36-.11,.7-.26,1.02-.45,.29-.17,.56-.38,.8-.63,.21-.21,.37-.48,.45-.76l.66,.19c-.12,.36-.31,.69-.57,.97-.26,.3-.57,.56-.9,.76-.37,.22-.76,.39-1.17,.5-.43,.12-.87,.19-1.31,.19-.66,0-1.32-.14-1.92-.42-.59-.27-1.11-.66-1.55-1.13-.93-1.01-1.45-2.34-1.44-3.71v.02Z"/>
        <path class="cls-2" d="M83.2,187.18v-1.63h.65v1.63h-.65Zm0,12.49v-10.05h.65v10.05h-.65Z"/>
        <path class="cls-2" d="M90.55,199.86c-.66,0-1.31-.14-1.9-.42-.58-.27-1.1-.65-1.54-1.12-.44-.48-.79-1.04-1.03-1.65-.24-.64-.37-1.31-.37-1.99,0-.69,.13-1.37,.38-2.01,.24-.61,.59-1.18,1.03-1.66,.43-.47,.95-.86,1.54-1.13,.59-.28,1.23-.42,1.88-.42,.65,0,1.3,.14,1.89,.42,.59,.27,1.11,.65,1.55,1.13,.44,.49,.79,1.05,1.03,1.66,.5,1.29,.5,2.72,0,4-.24,.61-.58,1.17-1.03,1.65-.43,.47-.96,.85-1.54,1.12-.6,.28-1.25,.42-1.92,.42Zm-4.17-5.16c0,1.18,.43,2.33,1.22,3.21,.37,.41,.83,.74,1.33,.98,1.03,.48,2.22,.48,3.24,0,.51-.24,.97-.57,1.36-.98,.39-.43,.69-.92,.9-1.46,.43-1.14,.43-2.4,0-3.54-.21-.54-.52-1.03-.9-1.46-.38-.41-.84-.75-1.36-.98-.5-.24-1.05-.37-1.61-.37-.56,0-1.1,.13-1.6,.37-.5,.24-.95,.58-1.32,.99-.8,.89-1.25,2.05-1.25,3.26h0Z"/>
        <path class="cls-2" d="M100.29,199.86c-.74,0-1.47-.13-2.16-.39-.68-.26-1.28-.67-1.78-1.2l.37-.45c.49,.45,1.05,.82,1.66,1.1,.6,.25,1.25,.38,1.9,.37,.8,.03,1.58-.18,2.26-.6,.56-.37,.89-1.01,.87-1.68,.01-.3-.07-.59-.22-.84-.17-.24-.39-.44-.65-.58-.34-.18-.69-.32-1.06-.42-.42-.12-.9-.25-1.44-.37s-1.03-.26-1.44-.38c-.36-.11-.7-.26-1.02-.45-.26-.15-.46-.37-.6-.64-.14-.31-.2-.65-.19-.99-.01-.45,.09-.89,.29-1.29,.19-.36,.46-.67,.78-.9,.35-.25,.73-.43,1.14-.53,.45-.12,.92-.18,1.38-.17,.72-.02,1.43,.12,2.1,.4,.52,.21,.96,.57,1.28,1.03l-.45,.33c-.32-.42-.75-.73-1.25-.9-.56-.21-1.15-.31-1.75-.31-.38,0-.75,.04-1.12,.12-.32,.08-.63,.22-.9,.41-.26,.19-.48,.43-.63,.71-.16,.31-.24,.65-.23,1,0,.27,.04,.53,.15,.77,.11,.22,.28,.39,.49,.52,.27,.15,.56,.27,.85,.35,.34,.09,.75,.2,1.25,.32,.61,.14,1.17,.28,1.64,.42,.42,.12,.83,.29,1.22,.51,.67,.34,1.08,1.05,1.03,1.81,0,.42-.09,.83-.27,1.21-.18,.35-.45,.66-.76,.9-.36,.27-.77,.48-1.2,.59-.5,.16-1.02,.24-1.54,.25Z"/>
        <path class="cls-2" d="M110.57,199.67v-13.71h.68v13.1h8.41v.62h-9.09Z"/>
        <path class="cls-2" d="M123.91,199.86c-.94,.06-1.85-.38-2.4-1.14-.54-.76-.81-1.88-.81-3.38v-5.72h.64v5.64c0,2.66,.9,3.98,2.71,3.98,.46,0,.91-.08,1.33-.24,.43-.16,.84-.38,1.21-.66,.37-.29,.7-.64,.97-1.03,.28-.4,.5-.85,.65-1.31v-6.38h.66v8.99c0,.28,.11,.42,.35,.42v.62c-.06,0-.13,0-.19,0-.21,0-.4-.09-.54-.24-.15-.16-.24-.37-.23-.59v-1.66c-.41,.8-1.04,1.48-1.81,1.95-.75,.49-1.63,.75-2.53,.75Z"/>
        <path class="cls-2" d="M146.05,199.67h-.66v-5.61c0-1.36-.21-2.37-.63-3.01-.42-.65-1.15-1.02-1.92-.97-.44,0-.87,.08-1.28,.25-.4,.17-.76,.4-1.08,.69-.34,.3-.63,.66-.85,1.05-.25,.42-.44,.88-.56,1.36v6.26h-.66v-5.62c0-1.38-.2-2.39-.61-3.03-.42-.65-1.16-1.01-1.92-.96-.87,0-1.7,.31-2.34,.9-.69,.65-1.19,1.48-1.43,2.39v6.28h-.66v-10.04h.64v2.51c.37-.78,.94-1.46,1.64-1.97,.65-.46,1.43-.7,2.22-.7,.77-.03,1.52,.25,2.08,.77,.55,.55,.89,1.27,.96,2.05,.99-1.88,2.32-2.82,3.98-2.82,.93-.07,1.82,.37,2.34,1.15,.49,.77,.73,1.89,.73,3.37v5.68Z"/>
        <path class="cls-2" d="M148.48,187.18v-1.63h.66v1.63h-.66Zm0,12.49v-10.05h.66v10.05h-.66Z"/>
        <path class="cls-2" d="M159.74,199.67h-.66v-5.61c0-1.38-.2-2.39-.59-3.03-.4-.64-1.11-1.01-1.87-.96-.46,0-.92,.09-1.36,.25-.45,.17-.87,.4-1.25,.7-.38,.3-.72,.65-1.01,1.04-.29,.4-.5,.84-.63,1.31v6.28h-.66v-10.05h.64v2.51c.21-.4,.47-.77,.77-1.09,.31-.33,.66-.61,1.04-.84,.39-.23,.8-.41,1.23-.54,.43-.13,.88-.19,1.32-.19,.91-.07,1.79,.36,2.29,1.13,.45,.75,.71,1.88,.71,3.39v5.68Z"/>
        <path class="cls-2" d="M166.27,199.86c-.66,0-1.31-.14-1.9-.42-.58-.27-1.1-.65-1.54-1.12-.45-.48-.79-1.04-1.03-1.65-.25-.64-.37-1.31-.37-1.99,0-1.36,.5-2.67,1.41-3.67,.43-.47,.95-.86,1.54-1.13,.59-.28,1.23-.42,1.88-.42,.66,0,1.3,.14,1.9,.42,.59,.27,1.11,.65,1.55,1.13,1.88,2.08,1.88,5.24,0,7.32-.43,.47-.95,.85-1.54,1.12-.6,.28-1.25,.42-1.91,.42Zm-4.17-5.16c0,1.18,.43,2.33,1.22,3.21,.37,.41,.82,.74,1.32,.98,1.03,.48,2.22,.48,3.25,0,.51-.24,.97-.57,1.36-.98,.39-.43,.69-.92,.9-1.46,.44-1.14,.44-2.4,0-3.54-.21-.54-.52-1.03-.9-1.46-.38-.41-.84-.75-1.36-.98-.5-.24-1.06-.37-1.62-.37-.56,0-1.1,.13-1.6,.37-.5,.24-.95,.58-1.32,.99-.39,.43-.69,.93-.9,1.47-.23,.57-.34,1.17-.34,1.78h0Z"/>
        <path class="cls-2" d="M176,199.86c-.74,0-1.47-.13-2.16-.39-.68-.26-1.28-.67-1.78-1.2l.37-.45c.49,.45,1.05,.82,1.66,1.1,.6,.25,1.25,.38,1.9,.37,.8,.03,1.58-.18,2.26-.6,.56-.37,.89-1.01,.87-1.68,.01-.3-.07-.59-.22-.84-.17-.24-.39-.44-.65-.58-.34-.18-.69-.32-1.06-.42-.42-.12-.9-.25-1.44-.37s-1.03-.26-1.44-.38c-.36-.11-.7-.26-1.02-.45-.26-.15-.46-.37-.6-.64-.14-.31-.2-.65-.19-.99-.01-.45,.09-.89,.29-1.29,.19-.36,.46-.67,.78-.9,.35-.25,.73-.43,1.14-.53,.45-.12,.92-.18,1.38-.17,.72-.02,1.43,.12,2.1,.4,.52,.21,.96,.57,1.29,1.03l-.45,.33c-.32-.42-.75-.73-1.25-.9-.56-.21-1.15-.31-1.75-.31-.38,0-.75,.04-1.12,.12-.32,.08-.63,.22-.9,.41-.26,.19-.47,.43-.63,.71-.16,.31-.24,.65-.23,1,0,.27,.04,.53,.15,.77,.11,.22,.28,.39,.49,.52,.27,.15,.56,.27,.85,.35,.34,.09,.75,.2,1.25,.32,.61,.14,1.17,.28,1.64,.42,.42,.12,.83,.29,1.22,.51,.67,.34,1.08,1.05,1.03,1.81,0,.42-.09,.83-.27,1.21-.18,.35-.45,.66-.76,.9-.36,.27-.77,.48-1.2,.59-.5,.16-1.02,.24-1.55,.25Z"/>
        <path class="cls-2" d="M185.7,199.86c-.66,0-1.31-.14-1.91-.42-.58-.27-1.1-.65-1.54-1.12-.44-.48-.79-1.04-1.03-1.65-.24-.64-.37-1.31-.37-1.99,0-.69,.13-1.37,.38-2.01,.24-.61,.59-1.18,1.03-1.66,.43-.47,.96-.86,1.54-1.13,.59-.28,1.23-.42,1.88-.42,.65,0,1.3,.14,1.89,.42,.59,.27,1.11,.65,1.55,1.13,.44,.49,.79,1.05,1.03,1.66,.76,1.93,.36,4.12-1.03,5.66-.43,.47-.96,.85-1.54,1.12-.6,.28-1.25,.42-1.92,.42Zm-4.17-5.16c0,1.18,.43,2.33,1.22,3.21,.37,.41,.82,.74,1.32,.98,.51,.24,1.06,.36,1.62,.36,.56,0,1.12-.12,1.63-.37,.51-.24,.97-.57,1.36-.98,.39-.43,.69-.92,.9-1.46,.43-1.14,.43-2.4,0-3.54-.21-.54-.52-1.03-.9-1.46-.38-.41-.84-.75-1.36-.98-.5-.24-1.05-.37-1.61-.37-.56,0-1.1,.13-1.6,.37-.5,.24-.95,.58-1.32,.99-.81,.89-1.25,2.05-1.25,3.26h0Z"/>
        <path class="cls-2" d="M195.43,199.86c-.74,0-1.48-.13-2.17-.39-.67-.26-1.28-.67-1.78-1.2l.37-.45c.49,.45,1.05,.83,1.66,1.1,.6,.25,1.24,.38,1.89,.37,.8,.03,1.58-.18,2.26-.6,.57-.37,.9-1.01,.87-1.68,.01-.3-.07-.59-.22-.84-.17-.24-.39-.44-.65-.58-.33-.18-.69-.32-1.05-.42-.42-.12-.9-.25-1.44-.37s-1.03-.26-1.44-.38c-.36-.11-.7-.26-1.02-.45-.26-.15-.46-.37-.6-.64-.14-.31-.2-.65-.19-.99-.01-.45,.09-.89,.29-1.29,.19-.36,.45-.67,.78-.9,.34-.25,.73-.43,1.14-.53,.45-.12,.92-.18,1.38-.17,.72-.02,1.44,.12,2.1,.4,.52,.21,.96,.57,1.28,1.03l-.45,.33c-.32-.42-.75-.73-1.25-.9-.92-.33-1.92-.4-2.87-.19-.32,.08-.63,.22-.9,.41-.26,.19-.48,.43-.63,.71-.16,.31-.24,.65-.23,1,0,.27,.04,.53,.15,.77,.11,.22,.28,.39,.49,.52,.27,.15,.55,.27,.85,.35,.34,.09,.76,.2,1.25,.32,.62,.14,1.17,.28,1.64,.42,.42,.12,.83,.29,1.22,.51,.67,.34,1.08,1.05,1.03,1.81,0,.42-.09,.83-.27,1.21-.19,.35-.45,.66-.76,.9-.36,.27-.77,.48-1.2,.59-.5,.16-1.01,.24-1.54,.25Z"/>
        <rect class="cls-2" x="231.38" y="104.87" width="22.59" height="22.59" transform="translate(-11.06 205.62) rotate(-45)"/>
        <rect class="cls-2" x="248.3" y="121.8" width="22.59" height="22.59" transform="translate(-18.08 222.55) rotate(-45)"/>
        <rect class="cls-2" x="231.37" y="138.73" width="22.59" height="22.59" transform="translate(-35.01 215.53) rotate(-45)"/>
        <rect class="cls-2" x="265.23" y="138.73" width="22.59" height="22.59" transform="translate(-25.09 239.48) rotate(-45)"/>
        <rect class="cls-2" x="248.3" y="155.66" width="22.59" height="22.59" transform="translate(-42.02 232.46) rotate(-45)"/>
        <rect class="cls-2" x="231.43" y="172.54" width="22.59" height="22.59" transform="translate(-58.9 225.47) rotate(-45)"/>
      </g>
    </g>
  </g>
</svg>