<?xml version="1.0" encoding="utf-8"?>
<!-- Generator: Adobe Illustrator 27.0.0, SVG Export Plug-In . SVG Version: 6.00 Build 0)  -->
<svg version="1.1" id="Capa_1" xmlns="http://www.w3.org/2000/svg" xmlns:xlink="http://www.w3.org/1999/xlink" x="0px" y="0px"
	 viewBox="0 0 222.2 100" style="enable-background:new 0 0 222.2 100;" xml:space="preserve">
<style type="text/css">
	.st0{fill:#EDEDED;}
</style>
<g>
	<path class="st0" d="M65.9,23.6c3.9-1.3,3,12.5,2.3,14.5c-1.8,5.4-3.9-1-4.2-3.6c-0.3-2.5-0.1-5.1,0.4-7.6
		C64.6,26.1,66,24,65.9,23.6L65.9,23.6z M163.7,15.6c0.6-0.7,1.2-1.6,1.6-2.5c0.6,0.1,0.2,10.1,0.1,10.9c-0.6-0.6-0.8-1.7-1.4-2.2
		c-1.1-0.9-2.6-0.5-4-0.5c-1.4,0-3.2,0.2-4.4-0.1c-0.4,4.2,0,7.9-0.1,12.1c0,1.5-1.3,14,2,13.4c-1.9-0.1-3.9,0-5.9,0
		c-0.5,0-4.3-0.2-4.4-0.1c2.7-2,2-4.6,2.2-7.7c0.3-3.9-0.2-7.7-0.2-11.7c0-1.3,0.6-4.1,0-5.2c-0.5-1-0.6-0.7-2.2-0.7
		c-1.7,0-4.8-0.6-6.1,0.3c-0.7,0.5-1.1,1.8-1.6,2.5c-0.3-2,0.2-4-0.2-6c-0.7-0.1-3.6,7.7-4.2,9.1c-1-1.7-0.9-3-2.8-4.2
		c-1.2-0.8-2.4-1.3-3.8-1.7c-2.1-0.5-4.6-0.6-6.6,0.2c-2.4,1-4,3.9-0.8,5.3c0.8,0.4,1.9,0.4,2.8,0.5c2.3,0.3,4.8,0.4,7.1,1
		c1.4,0.3,2.7,1,3.7,2c0.7,0.6,1.6,0.8,2.2,1.4c1.5,1.4,1.8,4.3,1.7,6.1c0,0.8-0.2,1.5-0.5,2.2c0,0.1-1.3,2-1.3,2.1
		c0,0.4,0.4,0.2,0.5,0.2c-2,4.9-10.4,5.5-14.9,4.8c-1.4-0.2-2.8-0.6-4.1-1.1c-1.3-0.5-3-1.9-4.3-2c-0.4,0-1.8,0.4-1.9,0.9
		c-0.3,0.8,0.7,1.3,1.5,1.9c-3.1,0.1-7.1,0.7-10.1,0c-0.1-0.1,1.1-1.6,1.1-1.7c0-0.6-0.6-1.2-1-1.7c-1.3-1.7-2.5-3.9-3.8-5.4
		c-0.3-0.4-1.2-0.9-1.6-1.4l-2.4-2.8c-0.9-0.9-4.4-6.9-5.6-6.7c0.3,0.1-0.1,10.4-0.1,11.3c0,1.8-1.1,8.1,2,8.4
		c-3.2,0.3-6.6-0.4-9.7,0.1c0.7-0.7,1.4-1.5,1.9-2.3c0.5-1.3-0.1-3.2,0-4.6c0.2-2.5,0.1-3.5,0.1-6V23.1c0-1.3,0.4-3.8-0.1-5
		c-0.4-1-1.9-1.3-2.6-2.2c4.2,0.2,8.5-0.1,12.7,0c-0.1,0.4-1.8,1-2,1.3c-1,1.2-0.5,1.6,0.6,2.8c1.6,2,3.2,3.9,4.7,6
		c0.9,1.3,2,2.6,3.1,3.7c0.7,0.7,3.7,5.6,4.6,5.5c0.3,0,0.1-9.8,0.1-10.6c0-1.9,0.3-4.1,0-5.9c-0.3-1.6-1-1.3-2-2.7h10.1
		c-1.1,1.1-1.9,1.1-2.3,2.8c-0.2,0.9,0.1,2.1,0.1,3l-0.1,6.7c0,5.4-0.3,10.9,0.2,16.3c1-0.4,2.3-5.3,2.6-6.1
		c0.5-1.3,1.2-2.6,1.5-3.9c0.3,0.1,0.5,2,0.6,2.4c0.3,1,1,1.9,1.9,2.4c2.7,1.8,6.7,2.8,9.9,2.1c4.3-1,6.1-5.8,1-6.8
		c-2.3-0.4-4.7-0.6-7.1-0.9c-5.9-0.9-10.4-5.5-8.4-11.8c0.4-1.4,1.2-2.7,2.3-3.7c0.7-0.6,1.5-0.6,2.1-1c0.5-0.3,0.5-0.7,1-1
		c1-0.4,2-0.7,3.1-0.9c1.5-0.2,2.3,0.4,3.7,0.5c1.3,0.1,2.7-0.3,4.1-0.1c2.2,0.3,4.4,2.4,6.6,2.6c0.8,0,2.4-0.3,2.9-1.2
		c0.2-0.4-0.3-4.4,0.1-4.4c0.4,4,6,3.5,8.8,3.5c2.2,0,4.5-0.4,6.8-0.4C157.4,15.9,161.8,16.9,163.7,15.6L163.7,15.6z M208.2,37.4
		c-0.2-0.5-1.3-2.9-1.8-3.2c-0.5-0.3-3.1,0-3.7,0c-2.4,0-1.9-0.4-2.5,1.4c-0.5,1.4-0.6,7.5,0,9c0.2,0.5,2,1.7,2,2.1
		c-2,0.7-5.4,0-7.5,0c-3.4,0.1-1.9-0.2-2.6,2.6c-0.7-0.9-1.4-1.8-2.2-2.6c-1.4-0.6-3.5,0.1-4.9-0.1c-1-0.2-1.7-0.5-2.7-0.4
		c-1.7,0.1-3.6,0.4-5.5,0.5c-3.8,0.1-7.7-0.1-11.5,0c1.5-1.3,2-1.4,2.2-3.4c0.2-2.3,0.1-4.6,0-6.9c0-3.3-0.1-6.4,0.4-9.6
		c0.1-0.6,0.2-1.2,0.2-1.7c0-0.5-0.4-0.8-0.4-1c-0.2-1.6,0.2-3.8-0.2-5.5c-0.3-1.2-0.9-1.6-1.6-2.6c6.1-0.2,12.3,0.3,18.3,0.4
		c2.5,0.1,7.2-0.1,7.4-3.6c0.3,1.4-0.5,2.5,0.7,3.1c1,0.5,3.3,0.1,4.5,0.1h6.7c1.4,0,2.7,0.1,4.1,0.3c3.5,0.5,7-1,10.1,2
		c2.5,2.5,2.9,7.1,2,10.3c-0.2,1-0.8,1.9-1.5,2.6c-0.4,0.4-1.3,1.6-1.6,1.8c-0.7,0.5-2.8,0.8-3.2,1.3c-0.1,1.9,3,5.2,4,6.8
		c1.3,2.2,3,4.2,5,5.9c-0.3-0.5-10.5-0.5-11.3,0.1c0.5-0.5,1-1.1,1.4-1.6c0.2-1.2-1.6-3.4-2.2-4.4C209.5,39.7,208.8,38.6,208.2,37.4
		L208.2,37.4z M191.7,16c-0.4,2.5,0,5.7-0.2,8.3c-0.3-0.7-1-2.5-1.7-2.9c-1.4-0.9-5.6-0.2-7.3-0.2l-6.8,0c-1.8,0-1.5-0.3-2,1
		c-0.3,0.7,0,2.7,0,3.5c0,1.2-0.2,1.8,0.7,2.2c0.7,0.4,2.3,0.1,3.1,0.1c1.5,0,5.1,0.6,6.4-0.1c1-0.5,1.3-2,2.1-2.8
		c0.5,1.6,0.1,3.9,0.1,5.5c0,0.8,0.6,5.2-0.1,5.8c-0.8-2-1.4-3-3.4-3.2c-2.2-0.2-4.5,0-6.7,0c-0.3,0-1.7-0.2-2,0
		c-0.6,0.5-0.3,3.3-0.3,4.2c0,1.4-0.3,3.2,0.8,3.7c1.2,0.5,3.7,0,4.9,0l7,0c0.9,0,3,0.4,3.8,0c1-0.5,1.2-2.2,2-3v4.3
		c0,1.1-0.6,3.8,0.7,3.4c2.8-0.9,0.9-8.4,1-10.3c0-1.5,0.4-3.1,0.5-4.6c0.1-2-0.3-4-0.3-6C194,22.2,195.2,16.9,191.7,16L191.7,16z
		 M208.4,21.3c-1.2-0.1-7.5-0.8-8.3,0c-0.7,0.8,0,6.5,0,7.6c3.6-0.4,12.1,2.2,13.4-2.6C214.6,22.8,211.7,21,208.4,21.3L208.4,21.3z
		 M81,25.6c0.4,1.7,1.8,3.3,2.1,5.2c0.3,1.5,0.3,3,0.1,4.5c-0.3,2-1,3.8-2.2,5.4c-4.4,6.1-11.8,7.2-18.4,4.6
		c-6.8-2.7-12.7-7.8-12.4-16c0.2-7.7,7.5-12.6,14.8-12.6C71.5,16.8,77.1,20.5,81,25.6L81,25.6z M62.5,21c-4.1,0.3-7.2,4.1-6.4,8
		c0.9,4.7,3.9,8.6,7.9,11.4c3.8,2.7,8.4,2.9,12-0.2c3.4-2.9,2.2-6.9,0.2-10.3C73.4,25.2,68.3,20.1,62.5,21L62.5,21z"/>
	<path class="st0" d="M182,49.3c0.4-0.4,0.6-1,0.9-1.5c0,3.8,0.3,3.1,4,3.1l5.1,0.2c3.8,0.3,7.7-0.7,11.6,0c4.5,0.8,6.8,4.4,6.9,8.7
		c0.1,2-0.2,4.2-1.5,5.9c-0.6,0.8-1.1,0.9-1.7,1.3c-0.2,0.2-0.8,0.9-1,1c-0.6,0.3-1.9,0.5-2.5,0.9c-0.1,1.1,1.1,2.5,1.6,3.1
		c0.5,0.8,1.4,1.7,1.7,2.6c0.2,0.5,0.1,1.2,0.3,1.6c0.1,0.2,0.9,0.7,1.2,1c0.6,0.6,0.8,1.5,1.4,2.1c0.5,0.6,2.4,1.6,2.6,2.3h-5.8
		c-1,0-4.5-0.6-5.3,0c1-1.5,1.4-1,1.2-2.5c-0.2-1-1.2-2.1-1.7-3c-1-1.7-2-3.5-3-5.2c-0.8-1.4-0.6-1.3-1.9-1.7
		c-1-0.3-4.9-0.3-5.4,0.3c-0.8,1,0,5.9,0,7.1c0,1-0.2,2.2,0.2,3.1c0.4,0.8,1.4,1,1.8,1.9c-1.5,0-8.2-0.9-9.2,0.1
		c-0.1,0.1-0.1,2.7-0.3,2.5c-0.6-0.6-0.7-1.8-1.4-2.3c-1.1-0.8-4.3-0.3-5.6-0.3h-8.3c-3.7-0.1-7.5,0-11.2,0c1.6-2.1,2.2-1.6,2.2-4.2
		v-21c0-0.9,0.2-2.2,0-3.1c-0.1-0.3-1.2-2.4-1.5-1.6v7.5c-0.5,0-1.2-2.1-1.5-2.4c-0.8-0.7-0.1-0.4-1.3-0.7c-1.3-0.4-3.2,0-4.6,0
		h-1.3c-1.3-0.4-1.8,0-1.3,1.4c-0.8,2.2-0.1,6,0,8.4c0,3.4-0.2,6.7,0,10c0.1,1.5-0.3,3.1,0.5,4.3c0.3,0.5,1.5,0.9,1.6,1.4h-5.8
		c-0.5,0-4.4-0.3-4.5-0.2c3.2-2.1,2.1-6.5,2.1-10l0.1-11.8c0-0.6,0.4-3-0.1-3.5c-0.2-0.3-2.6,0-2.9,0c-1.2,0-2.4-0.2-3.6-0.1
		c-2.7,0.3-1.6,1.5-3.4,3c-0.2-2.5,0.1-4.9-0.1-7.4c-2.3-0.3-1.2,13.4-1.2,14.7v10.4c0,0.8-0.3,2.1,0,2.9c0.3,0.9,1.3,1.2,1.9,2.1
		h-10.2c2.2-2.2,0.4-3.4-1.1-5.2l-2.8-3.5l-3.6-4.5c-0.9-1.1-4.5-6.7-5.7-6.6c-0.1,4.1-0.1,8.2-0.1,12.3c0,1.4-0.5,4.2,0,5.5
		c0.2,0.4,1.9,2.1,2.1,2.1c-0.9,0-10-0.1-10-0.1c3.6-1.5,2.1-8.3,2.1-11.5v-5.1c-0.1-1.5-0.1-2.9,0-4.4c0.1-0.9,0.8-2.5,0.8-3.4
		c-0.1-0.1-0.8,0-0.8-0.1c-0.1-0.6-0.1-1.2,0-1.8c0-1,0.2-2.1-0.4-2.9c-1.3-1.6-2.5-0.5-2.9,1c-0.6,2.3,0,5.6,0,8
		c0,4.3,0.6,9.2-0.3,13.5c-0.6,2.5-1.5,3.5-3.5,4.9c-0.7,0.5-0.7,1.1-1.8,1.4c-1,0.3-2,0.2-3,0.5c-3.9,1.1-8.8,1.1-12.6-0.8
		c-3.3-1.6-4.4-4.6-4.7-8c-0.5-5.2-0.1-10.6-0.1-15.9c0-1.5,0.5-4-0.9-5c-2.5-1.7-3.1,2.5-3.1,4.3c0,1.3,0.2,2.8,0,4.1
		c-0.2,0.9-0.6,0.5-0.7,1.5c0,0.5,0.6,1.3,0.7,1.9c0.3,1.5,0,3.3,0,4.8c0,4.4,0.1,8.9-0.6,13.2c-0.3,1.8,0.5,4.7,0.6,6.7
		c0,0.6-0.4,1.4-0.4,2.1c0,1,0.4,2.3,0.4,3.6c0,1.6-0.3,2.9,0.9,3.8c0.8,0.7,3.5,0.6,3.9,1.5c-2.7-0.3-5.8,0.1-8.6,0.1
		c-0.9,0-7.5-0.6-7.9-0.3c1,0.1,3.3-1.8,3.7-2.5c0.8-1.7,0.1-6.1,0.1-8V81c0-3,0.2-2.4-2.3-2.8c-0.5-0.2-1.1-0.3-1.7-0.4
		c-2.1,0-4.6,0.4-6.9,0.4h-8c-0.3,0-2.2-0.2-2.5,0c-0.7,0.6-0.2,5-0.2,5.9c0,2.7,0,5.3,0,8c0,1.5-0.5,4.2,0.4,5.5
		c0.5,0.6,3.7,1.3,3.8,2c-2.5-0.3-5.4,0.1-7.9,0.1c-0.8,0-6.8,0.7-7.2-0.2c4-1.9,3-5.4,3-9.5V70.1l0.2-12.6c0-1.2,0.2-3.4-0.6-4.5
		c-0.6-0.9-2.5-1.4-3.3-2.1c1.5,0,15.8-0.3,15.8,0.1c-0.7-0.1-2.8,1.2-3.3,1.7c-0.9,1-0.8,1.4-0.8,3.1c0,2.6-0.1,5.1-0.1,7.6
		c0,1.2-0.6,6.4,0.1,7c0.5,0.4,1.8-0.1,2.3,0.1c0.8,0.2,1.3,0.9,2.1,1c1.2,0.1,1.8-1.4,2.6-1.5c0.2,0,0.8,0.8,1,0.8
		c0.9,0,1.7-0.3,2.7-0.2c2.4,0.1,4.6,0,7.2,0c1.3,0,2.7,0.3,3.3-0.6c0.4-0.6,0-2.2,0-2.9l0.1-6.1c0-2.8,1-9.2-3.1-9.9
		c2,0,23.4,0,23.4,0.1c-3.9,2.1-2.2,9.1-2.2,12.8c0,2.8-0.4,5.9,0.3,8.6c1,4,5.4,4.5,8.3,4.4c6.4-0.4,5.5-7.4,5.5-12.1
		c0-2.8,0.3-5.5,0.1-8.2c-0.1-1,0.3-2.7-0.1-3.7c-0.1-0.3-1.9-1.8-1.7-1.8c2.5-0.9,7.5,0,10,0h9.7c-1,1.9-1.7,1.2-0.6,3.3
		c0.3,0.6,0.6,1.3,1,1.9c0.5,0.5,0.8,0.4,1.3,0.9c2.2,2,4.1,5,6,7.3c1.6,2,3.3,4,4.8,6c1.1,0.3,0.3-8.7,0.3-8.4
		c0-2.3,0.8-6.6-0.1-8.8c-0.4-1-1.4-1.4-1.9-2.3h6.5c1,0,2.2,0.4,2.8-0.5c0.1-0.1-0.3-2.6,0-2.6c1.8,3.8,3.6,3.1,7.5,3
		c2.1,0,3.7-0.1,5.7,0c2.6,0.2,5.3-0.1,8-0.1c2,0,2.3,0.2,3.5-1c0.2-0.2,0.9-1.9,1.2-1.7c0.6,1.8-0.8,2.5,1.7,2.8
		c1.1,0.1,2.3,0.1,3.4,0c3.2,0,6.5-0.2,9.7,0C175.4,51.1,179.9,52.6,182,49.3L182,49.3z M182.3,75c0.4-0.4,0.6-1,1-1.5
		c0,1.4-0.6,5.4,0,6.6c0.6,1,0.8-0.1,1-1.2c0.7-3.4,0-7.3,0-10.6c0-3,0.1-6,0.1-8.9c0-0.7,0.3-8.4-1.4-7.7c-0.8,0.3,0.3,7.6-0.3,7.6
		c-0.6-4.6-7.6-3-10.8-3c-1.2,0-6.3-0.6-7.1,0.3c-0.4,0.5-0.1,3.8-0.1,4.6c0,2.1-0.2,1.7,1.4,2c1.5,0.3,3.2,0,4.7,0
		c0.9,0,2.3,0.2,3.2,0c2-0.4,1.8-1.7,3-3c0.1,3.6,0.2,7.9-0.1,11.3c-1.1-2.3-1-2.8-3.2-3.1c-2.2-0.3-5.5-0.5-7.7,0
		c-1.8,0.4-1.3,0.5-1.4,2.3c-0.1,1.4-0.1,2.7,0,4.1c0.3,2.3,0.6,1.6,3.2,1.6C170,76.4,182.7,77.6,182.3,75L182.3,75z M201.4,56.5
		c-2.9-0.3-6.7-0.7-9.6-0.1c-1.7,0.3-0.8-0.3-1.3,0.9c-0.2,0.6,0,1.8,0,2.5c0,1-0.5,3.1,0.1,3.8c0.6,0.8,2.9,0.4,4.1,0.4
		c2.5,0,4.6,0.8,7.2-0.2C205.1,62.6,205,57.1,201.4,56.5L201.4,56.5z M17,0.6c-2,1.8-1.3,3.1-0.4,5.2l1.6,3.5
		c0.5,1.3,0.4,2.5,0.8,3.7c0.5,1.5,2.1,2.9,2.9,4.6c0.9,1.9,1.7,3.8,2.5,5.7c0.4,0.8,0.7,1.6,1,2.5c0.5,1.2,0.7,2.5,1.5,2
		c0.7-0.4,2-4.5,2.3-5.1l5-10.9c1.1-2.4,2.2-4.6,3.1-7c0.3-0.7,0.8-1.5,0.8-2.3c0-0.4-1.9-2.5-1.8-2.6h15.8c-1,1.2-2,1.4-2.6,3.1
		c-0.3,0.8-0.4,1.6-0.6,2.5c-0.1,1.4,0.4,2.6,0.5,4c0.3,4.8,0,9.8,0,14.6v15.8c0,0.9-0.2,2.1,0,3c0.6,2.2,3,2.2,4.4,3.5
		c-0.6-0.6-6.9,0.1-8,0.1c-2.5,0-6.5,0.9-8.8-0.1c2.5-0.3,4-2.8,4.2-4.9c0.3-4,0-8.1,0-12.1c0-0.9-0.4-2.6,0-3.5
		c0.2-0.6,1-0.3,1.2-0.9c0.3-0.8-0.8-1.7-1-2.3c-0.2-0.8-0.3-1.7-0.3-2.6c0-0.6,0.5-5.1-0.3-5.1c-1.6,2.3-2.6,5.7-3.9,8.3
		c-0.7,1.4-1.3,3-2.1,4.4c-0.3,0.6-3.5,4.2-3.2,4.4c0.3-0.2,0.7-0.3,1.1-0.3c0.2,1.1-2.4,5.1-2.7,5.8c-0.6,1.3-1.2,2.5-1.8,3.7
		c-0.2,0.3-1.9,5-2.5,5.1l-7.5-17L16,24l-3.1-6.9c-0.2-0.4-0.7-2.4-1.1-2.7c-0.1-0.1-0.4,4.6-0.4,5.4v8.1c0,2.8-0.3,5.7-0.5,8.3
		c-0.1,1.4,0.2,2.4,0.4,3.8c0.2,1.4-0.2,2.7,0.4,4c0.8,1.5,2.5,1.6,3.5,2.7c-1.1,0.4-15,0.7-15.3,0c1.1,0.2,3.5-2.3,3.8-3.3
		c0.1-0.6,0.1-1.2,0-1.8v-9.4c0-2.2-0.5-5.2,0-7.3c0.1-0.6,0.7-0.2,0.8-0.7c0.2-1,0-2.5,0.1-3.5c0,0.4,0.5-1.2,0.6-0.9
		c-0.1-0.1-0.5-0.5-0.4-0.3c0.2,0.5-1-0.6-1-0.8c-0.9-1.9,0-6.2,0-8.2c0-2.2,0.5-5.1,0-7.3c0-0.1-2.1-3.4-2.3-3
		C6.8,0,12.2,0,17.6,0.1C17.4,0.3,17.2,0.5,17,0.6L17,0.6z"/>
</g>
</svg>
