<?xml version="1.0" encoding="UTF-8"?>
<svg id="Capa_2" data-name="Capa 2" xmlns="http://www.w3.org/2000/svg" viewBox="0 0 300 150">
  <defs>
    <style>
      .cls-1 {
        fill: none;
      }

      .cls-2 {
        fill: #ededed;
      }
    </style>
  </defs>
  <g id="Capa_3" data-name="Capa 3">
    <rect class="cls-1" width="300" height="150"/>
  </g>
  <g id="Capa_2-2" data-name="Capa 2">
    <g id="Capa_2-2" data-name="Capa 2-2">
      <g id="Capa_2-3" data-name="Capa 2-3">
        <g id="Capa_2-2-2" data-name="Capa 2-2">
          <path class="cls-2" d="M53.69,78.18v10.72H10V26H52.88v10.72H22.23v15.15h26.5v9.92H22.23v16.39h31.46Z"/>
          <path class="cls-2" d="M69.19,48.59v40.32h-12.23V26h9.48l32.78,41.27V26.08h12.23v62.83h-9.92s-32.34-40.32-32.34-40.32Z"/>
          <path class="cls-2" d="M138.43,26h10.81l23.92,62.92h-12.59l-5.85-15.69h-21.98l-5.77,15.69h-12.58l24.01-62.92h0Zm14.09,38.64l-8.68-24.73-9.04,24.73h17.72Z"/>
          <path class="cls-2" d="M176.26,88.91V26h12.23v52.19h32.08v10.72h-44.31Z"/>
          <path class="cls-2" d="M19.05,105.53v.61H10.14v-13.49h8.74v.61H10.81v5.68h7.06v.61h-7.06v5.98h8.24Z"/>
          <path class="cls-2" d="M23.85,106.33c-.73,0-1.44-.13-2.12-.38-.67-.26-1.26-.66-1.75-1.18l.36-.44c.48,.46,1.04,.84,1.65,1.11,.59,.25,1.23,.37,1.87,.36,.79,.03,1.55-.18,2.22-.59,.55-.36,.87-.99,.85-1.65,0-.29-.07-.58-.22-.83-.17-.24-.38-.43-.64-.57-.32-.18-.68-.31-1.04-.41-.41-.12-.88-.25-1.41-.37s-1.01-.25-1.41-.36c-.35-.11-.69-.26-1-.44-.26-.15-.45-.36-.59-.63-.14-.3-.2-.64-.19-.97,0-.44,.09-.87,.28-1.27,.19-.35,.44-.66,.77-.88,.34-.25,.72-.42,1.12-.52,.44-.12,.9-.18,1.36-.18,.71-.02,1.41,.12,2.06,.4,.52,.21,.96,.55,1.29,1.01l-.44,.32c-.31-.41-.74-.72-1.23-.88-.55-.21-1.13-.31-1.72-.3-.37,0-.75,.04-1.1,.13-.31,.08-.62,.22-.88,.4-.55,.38-.86,1.01-.84,1.68,0,.27,.04,.52,.15,.76,.1,.21,.26,.38,.46,.5,.27,.15,.54,.27,.84,.34,.33,.1,.74,.2,1.23,.31,.6,.14,1.15,.28,1.61,.41,.41,.12,.82,.28,1.2,.49,.3,.18,.56,.42,.74,.72,.18,.32,.28,.69,.26,1.06,0,.41-.09,.82-.27,1.19-.19,.34-.44,.65-.75,.88-.35,.27-.76,.46-1.18,.58-.49,.14-1,.21-1.52,.21h0Z"/>
          <path class="cls-2" d="M33.92,106.33c-.41,0-.83-.07-1.23-.19-.38-.13-.75-.29-1.08-.51s-.65-.47-.92-.76c-.28-.28-.51-.6-.72-.93v6.26h-.65v-13.93h.61v2.07c.21-.32,.45-.62,.74-.88,.28-.28,.6-.51,.93-.71,.32-.19,.68-.33,1.04-.44,.36-.11,.74-.17,1.11-.17,.66,0,1.31,.15,1.9,.44,.57,.28,1.08,.68,1.5,1.16,.42,.48,.76,1.04,.98,1.64,.24,.6,.35,1.23,.35,1.88s-.11,1.33-.33,1.96c-.21,.6-.52,1.15-.93,1.62-.39,.46-.88,.84-1.43,1.11-.58,.28-1.22,.4-1.86,.38h0Zm-.09-.61c.57,0,1.14-.13,1.65-.39,.49-.26,.91-.6,1.27-1.02,.34-.43,.62-.92,.81-1.44,.19-.53,.28-1.08,.28-1.64s-.11-1.15-.32-1.69c-.21-.53-.51-1.02-.88-1.44-.37-.41-.83-.75-1.34-.99s-1.07-.37-1.63-.37c-.4,0-.8,.09-1.17,.24-.41,.16-.8,.37-1.16,.63-.35,.25-.67,.55-.92,.88-.25,.31-.4,.69-.44,1.08v3.4c.17,.38,.38,.75,.65,1.07,.26,.33,.56,.63,.88,.88,.33,.25,.7,.44,1.08,.59,.39,.15,.82,.23,1.24,.23h0Z"/>
          <path class="cls-2" d="M44.39,106.33c-.65,0-1.3-.14-1.89-.41-.58-.28-1.1-.65-1.52-1.12-.44-.48-.79-1.04-1.02-1.65-.26-.64-.37-1.32-.37-2s.12-1.33,.36-1.96c.24-.59,.57-1.13,1.01-1.6,.42-.45,.93-.83,1.5-1.08,.58-.27,1.22-.4,1.87-.4s1.31,.13,1.9,.4c.57,.27,1.09,.64,1.52,1.1,.43,.47,.79,1.02,1.01,1.62,.25,.63,.37,1.3,.36,1.97v.28h-8.87c.05,.59,.2,1.16,.44,1.7,.22,.51,.52,.97,.89,1.37,.37,.37,.81,.68,1.29,.88,.48,.23,1.01,.33,1.54,.33,.72,0,1.41-.2,2.03-.55,.29-.17,.57-.38,.8-.64,.23-.24,.41-.51,.55-.81l.59,.15c-.15,.35-.35,.68-.61,.96-.28,.3-.59,.57-.94,.78-.36,.22-.76,.37-1.17,.49-.42,.12-.85,.18-1.29,.18h0Zm4.09-5.39c-.03-.59-.17-1.17-.4-1.71-.22-.49-.51-.94-.88-1.34-.36-.37-.81-.68-1.29-.88-.49-.21-1.02-.31-1.56-.31s-1.07,.11-1.56,.32c-.48,.21-.9,.51-1.27,.88-.37,.38-.68,.84-.88,1.34-.23,.54-.35,1.11-.39,1.69h8.24Z"/>
          <path class="cls-2" d="M50.01,101.16c0-.68,.12-1.36,.36-1.98,.23-.59,.57-1.14,1.01-1.6,.89-.94,2.15-1.47,3.45-1.45,.81,0,1.6,.2,2.3,.6,.66,.38,1.18,.95,1.5,1.64l-.63,.23c-.3-.57-.77-1.05-1.34-1.38-.58-.33-1.24-.5-1.9-.49-.55,0-1.1,.12-1.6,.34-.5,.23-.95,.54-1.34,.94-.38,.41-.69,.89-.88,1.41-.22,.56-.31,1.15-.31,1.75s.11,1.2,.33,1.75c.21,.53,.51,1.02,.88,1.45,.37,.41,.83,.75,1.34,.98,.49,.25,1.03,.36,1.58,.36,.37,0,.74-.06,1.09-.17s.69-.26,1-.44c.28-.17,.55-.37,.79-.62,.21-.21,.36-.47,.44-.75l.65,.19c-.12,.35-.31,.68-.56,.95-.26,.29-.56,.54-.88,.75-.36,.22-.75,.38-1.15,.49-.42,.13-.86,.19-1.31,.19-.65,0-1.3-.14-1.89-.41-.58-.28-1.1-.65-1.53-1.11-.91-.99-1.41-2.3-1.41-3.64h0v.02Z"/>
          <path class="cls-2" d="M60.41,93.87v-1.59h.63v1.59h-.63Zm0,12.27v-9.88h.63v9.88h-.63Z"/>
          <path class="cls-2" d="M65.98,106.33c-.43,0-.86-.08-1.27-.24-.37-.15-.72-.37-1-.65s-.52-.6-.69-.96c-.17-.37-.26-.79-.25-1.2,0-.4,.1-.8,.3-1.15,.22-.35,.5-.66,.84-.88,.39-.27,.84-.47,1.29-.59,.54-.15,1.09-.22,1.64-.21,.56,0,1.13,.05,1.68,.14,.52,.08,1.03,.22,1.52,.4v-1.06c.04-.86-.26-1.72-.84-2.37-.6-.6-1.42-.92-2.27-.88-.53,0-1.05,.12-1.53,.31-.58,.23-1.13,.52-1.63,.88l-.3-.47c1.27-.86,2.44-1.29,3.52-1.29,1.01-.05,2,.31,2.72,1.02,.7,.77,1.05,1.78,1,2.81v5.17c0,.28,.11,.41,.34,.41v.61h-.2c-.21,0-.4-.08-.54-.24-.15-.16-.23-.36-.22-.58v-.88c-.46,.6-1.08,1.07-1.78,1.38-.74,.34-1.54,.52-2.35,.53v-.02Zm.08-.55c.48,0,.95-.07,1.41-.19,.45-.12,.88-.29,1.29-.52,.35-.2,.67-.46,.93-.77,.23-.26,.35-.59,.36-.93v-1.86c-1-.38-2.07-.58-3.15-.57-.48,0-.96,.05-1.42,.18-.39,.1-.77,.26-1.11,.47-.29,.19-.54,.43-.73,.74-.18,.28-.27,.62-.26,.96,0,.34,.07,.68,.21,.98s.33,.57,.57,.8c.25,.23,.53,.41,.84,.53,.33,.13,.7,.2,1.06,.2h0v-.02Z"/>
          <path class="cls-2" d="M73.2,92.28h.63v12.17c-.02,.33,.11,.66,.34,.88,.25,.22,.56,.33,.88,.32,.17,0,.33-.02,.5-.05,.19-.03,.36-.08,.54-.14l.16,.53c-.24,.07-.47,.13-.72,.17-.25,.05-.49,.07-.74,.08-.43,.02-.85-.14-1.17-.44-.3-.32-.47-.76-.44-1.21v-12.32h0Z"/>
          <path class="cls-2" d="M77.22,93.87v-1.59h.65v1.59h-.65Zm0,12.27v-9.88h.65v9.88h-.65Z"/>
          <path class="cls-2" d="M83.4,106.33c-.73,0-1.45-.13-2.13-.38-.66-.26-1.26-.66-1.75-1.18l.36-.44c.48,.45,1.03,.82,1.63,1.08,.59,.25,1.22,.37,1.86,.36,.79,.04,1.57-.17,2.24-.59,.56-.36,.88-.99,.85-1.65,0-.29-.07-.58-.22-.83-.17-.24-.38-.43-.64-.57-.32-.18-.68-.31-1.03-.41-.41-.12-.88-.25-1.41-.37s-1.01-.25-1.41-.36c-.35-.11-.69-.26-1-.44-.26-.15-.45-.36-.59-.63-.14-.3-.2-.64-.19-.97,0-.44,.09-.87,.28-1.27,.19-.35,.44-.66,.77-.88,.33-.25,.72-.42,1.12-.52,.44-.12,.9-.18,1.36-.18,.71-.02,1.41,.12,2.06,.4,.5,.22,.94,.56,1.26,1.01l-.44,.32c-.31-.41-.74-.72-1.23-.88-.9-.33-1.89-.39-2.82-.19-.31,.08-.62,.22-.88,.4-.55,.38-.86,1.01-.84,1.68,0,.27,.04,.52,.15,.76,.11,.22,.28,.38,.48,.5,.27,.15,.54,.27,.84,.34,.33,.1,.75,.2,1.23,.31,.61,.14,1.15,.28,1.61,.41,.41,.12,.82,.28,1.2,.49,.3,.17,.56,.41,.75,.71,.18,.32,.28,.69,.26,1.06,0,.41-.09,.82-.28,1.19-.18,.34-.43,.65-.75,.88-.35,.27-.76,.46-1.18,.58-.49,.16-1.01,.25-1.53,.26h.03Z"/>
          <path class="cls-2" d="M92.97,105.68l-.19,.11c-.13,.07-.27,.13-.4,.19-.19,.08-.39,.14-.59,.19-.24,.05-.48,.08-.74,.08-.46,0-.92-.16-1.29-.44-.36-.29-.57-.74-.54-1.21v-7.77h-1.4v-.57h1.4v-3.4h.67v3.4h2.34v.57h-2.34v7.69c0,.32,.16,.64,.41,.84,.26,.2,.57,.29,.88,.28,.2,0,.38-.02,.58-.07,.17-.04,.32-.09,.48-.15,.12-.05,.24-.1,.34-.16,.05-.03,.11-.06,.16-.1l.22,.53h0Z"/>
          <path class="cls-2" d="M96.52,106.33c-.43,0-.86-.08-1.28-.24-.38-.15-.73-.36-1.02-.65-.28-.28-.52-.6-.69-.96-.17-.37-.26-.79-.25-1.2,0-.4,.1-.81,.3-1.15,.22-.35,.5-.66,.84-.88,.39-.27,.84-.47,1.29-.59,.54-.15,1.09-.22,1.64-.21,.56,0,1.13,.05,1.68,.14,.52,.08,1.03,.22,1.52,.4v-1.06c.04-.86-.26-1.72-.84-2.37-.6-.6-1.42-.92-2.27-.88-.53,0-1.05,.12-1.54,.31-.58,.23-1.13,.52-1.63,.88l-.3-.47c1.01-.78,2.24-1.22,3.51-1.29,1.01-.06,2,.31,2.72,1.02,.7,.77,1.05,1.78,1,2.81v5.17c0,.28,.12,.41,.34,.41v.61h-.2c-.21,0-.4-.08-.54-.24-.15-.16-.23-.36-.22-.58v-.88c-.46,.6-1.07,1.08-1.78,1.38-.73,.33-1.52,.52-2.33,.52h.03Zm.08-.56c.48,0,.95-.07,1.41-.19,.45-.12,.87-.29,1.28-.52,.35-.2,.67-.46,.93-.77,.23-.26,.35-.59,.36-.93v-1.86c-1-.38-2.07-.58-3.15-.57-.48,0-.96,.05-1.42,.18-.39,.1-.77,.26-1.11,.47-.29,.19-.54,.43-.73,.74-.17,.29-.27,.62-.26,.96,0,.34,.07,.68,.22,.98,.14,.3,.32,.57,.57,.8s.53,.41,.84,.53c.33,.13,.7,.2,1.06,.2h0v-.02Z"/>
          <path class="cls-2" d="M106.62,106.33c-.73,0-1.44-.13-2.12-.38-.66-.26-1.25-.66-1.74-1.17l.36-.44c.48,.45,1.03,.82,1.63,1.08,.59,.25,1.22,.37,1.86,.36,.79,.04,1.57-.17,2.24-.59,.55-.36,.87-.99,.85-1.65,0-.29-.07-.58-.23-.83-.17-.24-.38-.43-.64-.57-.32-.18-.68-.31-1.03-.41-.41-.12-.88-.25-1.41-.37s-1.01-.25-1.41-.36c-.35-.1-.69-.26-.99-.44-.26-.15-.46-.36-.59-.63-.14-.3-.21-.64-.19-.97,0-.44,.09-.87,.28-1.27,.19-.35,.45-.66,.78-.88,.33-.25,.72-.42,1.12-.52,.44-.11,.9-.16,1.37-.14,.71-.02,1.41,.12,2.06,.4,.51,.21,.94,.56,1.27,1.01l-.44,.32c-.31-.41-.74-.72-1.23-.88-.9-.33-1.89-.39-2.82-.19-.31,.08-.62,.22-.88,.4-.55,.38-.86,1.01-.84,1.68,0,.27,.05,.52,.16,.76,.11,.22,.28,.38,.48,.5,.27,.15,.54,.27,.84,.34,.33,.1,.74,.2,1.23,.31,.61,.14,1.15,.28,1.61,.41,.41,.12,.82,.28,1.2,.49,.3,.17,.56,.41,.75,.71,.19,.32,.28,.69,.26,1.06,0,.41-.09,.82-.27,1.19-.19,.34-.44,.65-.75,.88-.35,.27-.75,.46-1.18,.58-.5,.15-1.03,.22-1.55,.22l-.02-.02Z"/>
          <path class="cls-2" d="M120.55,106.33c-.65,0-1.3-.14-1.89-.41-.58-.28-1.1-.65-1.52-1.12-.44-.48-.79-1.04-1.02-1.65-.26-.64-.37-1.32-.37-2s.12-1.34,.36-1.96c.23-.59,.57-1.13,1-1.6,.42-.45,.93-.83,1.5-1.08,.58-.27,1.22-.4,1.87-.4s1.31,.13,1.9,.4c.57,.26,1.09,.63,1.52,1.09,.43,.47,.79,1.02,1.01,1.62,.25,.63,.37,1.3,.36,1.97v.28h-8.87c.05,.59,.2,1.16,.44,1.7,.22,.5,.53,.96,.91,1.36,.37,.37,.81,.68,1.29,.88,.48,.23,1.01,.33,1.54,.33,.72,0,1.41-.2,2.03-.55,.29-.17,.57-.38,.8-.64,.23-.24,.41-.51,.55-.81l.59,.15c-.15,.35-.35,.68-.61,.96-.27,.3-.59,.56-.94,.77-.37,.22-.77,.39-1.18,.51-.42,.12-.86,.18-1.3,.18h.02Zm4.09-5.38c-.03-.59-.17-1.17-.4-1.71-.22-.49-.51-.94-.88-1.34-.36-.37-.81-.68-1.29-.88-.99-.42-2.11-.42-3.1,0-.47,.21-.9,.51-1.26,.88-.37,.38-.68,.84-.88,1.34-.23,.54-.35,1.11-.39,1.69,0,0,8.21,.02,8.21,.02Z"/>
          <path class="cls-2" d="M134.71,106.14h-.65v-5.51c0-1.34-.19-2.35-.58-2.98s-1.09-.99-1.84-.94c-.45,0-.9,.09-1.34,.25-.44,.17-.85,.39-1.23,.69s-.71,.64-.98,1.02c-.28,.39-.49,.83-.62,1.29v6.17h-.65v-9.88h.63v2.48c.21-.39,.46-.76,.76-1.07,.3-.32,.65-.6,1.02-.83,.38-.23,.79-.4,1.21-.53,.42-.13,.86-.19,1.3-.19,.89-.07,1.76,.35,2.25,1.11,.46,.75,.7,1.86,.7,3.33v5.58l.02,.02Z"/>
          <path class="cls-2" d="M142.43,93.9v12.23h-.67v-13.48h.5l9.91,12.43v-12.43h.67v13.49h-.65l-9.78-12.24h0Z"/>
          <path class="cls-2" d="M159.59,106.33c-.65,0-1.29-.14-1.88-.41-.58-.28-1.1-.65-1.53-1.12-1.37-1.52-1.78-3.68-1.05-5.61,.23-.59,.57-1.13,1.01-1.6,.42-.45,.93-.83,1.5-1.08,.58-.27,1.22-.4,1.86-.4s1.31,.13,1.9,.4c.57,.26,1.09,.63,1.52,1.09,.44,.47,.79,1.02,1.01,1.62,.25,.63,.37,1.3,.37,1.97v.15s0,.09,0,.14h-8.85c.05,.59,.2,1.16,.44,1.7,.22,.5,.52,.96,.91,1.36,.37,.37,.81,.68,1.29,.88,.48,.23,1.01,.33,1.55,.33,.35,0,.71-.05,1.05-.15,.34-.09,.68-.23,.98-.41,.29-.17,.57-.38,.8-.64,.23-.24,.41-.51,.55-.81l.59,.15c-.15,.35-.35,.68-.61,.96-.27,.3-.59,.56-.93,.77-.36,.22-.77,.39-1.17,.51-.42,.12-.86,.18-1.31,.18v.02Zm4.08-5.39c-.03-.59-.17-1.17-.39-1.71-.22-.49-.51-.94-.88-1.34-.36-.37-.8-.68-1.28-.88-.49-.21-1.02-.31-1.56-.31s-1.06,.11-1.55,.32c-.47,.21-.9,.51-1.27,.88-.37,.38-.68,.84-.88,1.34-.23,.54-.35,1.11-.38,1.69h8.2Z"/>
          <path class="cls-2" d="M169.96,106.33c-.65,0-1.29-.14-1.88-.41-.57-.27-1.08-.65-1.51-1.1-.43-.47-.78-1.02-1.01-1.62-.24-.63-.36-1.29-.36-1.96s.12-1.35,.37-1.97c.24-.6,.58-1.16,1.01-1.63,.43-.46,.94-.84,1.51-1.11,.58-.28,1.21-.41,1.85-.41s1.28,.14,1.86,.41c.58,.27,1.09,.65,1.52,1.11,.43,.48,.78,1.03,1.01,1.63,.76,1.9,.36,4.05-1.01,5.55-.42,.46-.94,.84-1.51,1.1-.59,.28-1.23,.41-1.88,.41h.03Zm-4.1-5.07c0,.59,.11,1.18,.32,1.73,.21,.52,.51,1.01,.88,1.42,.36,.4,.81,.74,1.3,.96,.5,.24,1.04,.35,1.59,.35s1.1-.12,1.6-.36c.49-.24,.94-.56,1.31-.96,.38-.41,.69-.9,.88-1.43,.43-1.12,.43-2.36,0-3.48-.2-.53-.5-1.02-.88-1.43-.37-.4-.82-.74-1.31-.96-.49-.25-1.03-.36-1.58-.36s-1.09,.12-1.57,.36c-.49,.24-.93,.57-1.3,.97-.38,.42-.68,.91-.88,1.44-.23,.56-.35,1.16-.35,1.76h0Z"/>
          <path class="cls-2" d="M184.4,106.14h-.65v-5.51c0-1.34-.2-2.35-.58-2.98-.39-.63-1.09-.99-1.84-.94-.45,0-.9,.09-1.34,.25-.44,.17-.85,.39-1.23,.69s-.71,.64-.99,1.02c-.28,.39-.49,.83-.62,1.29v6.17h-.65v-9.88h.63v2.48c.4-.79,1.02-1.44,1.78-1.9,.38-.23,.79-.4,1.21-.53,.42-.13,.86-.19,1.3-.19,.89-.07,1.76,.35,2.25,1.11,.46,.74,.69,1.85,.69,3.33v5.58l.04,.02Z"/>
          <path class="cls-2" d="M190.9,106.33c-.65,0-1.3-.14-1.89-.41-.58-.28-1.1-.65-1.52-1.12-.44-.48-.79-1.04-1.02-1.65-.26-.64-.37-1.32-.37-2s.12-1.33,.36-1.96c.24-.59,.57-1.13,1.01-1.6,.42-.45,.93-.83,1.5-1.08,.58-.27,1.22-.4,1.87-.4s1.31,.13,1.9,.4c.57,.26,1.09,.63,1.52,1.09,.44,.47,.79,1.03,1.01,1.63,.25,.63,.37,1.3,.36,1.97v.28h-8.87c.05,.59,.2,1.16,.44,1.7,.22,.5,.53,.96,.91,1.36,.37,.37,.81,.68,1.29,.88,.48,.23,1.01,.33,1.54,.33,.72,0,1.41-.2,2.03-.55,.29-.17,.57-.38,.8-.64,.23-.24,.41-.51,.55-.81l.59,.15c-.15,.35-.35,.68-.61,.96-.28,.3-.59,.56-.94,.77-.36,.22-.76,.37-1.17,.49-.42,.13-.86,.2-1.31,.2h0Zm4.09-5.39c-.03-.59-.17-1.17-.4-1.71-.22-.49-.51-.94-.88-1.34-.36-.37-.81-.68-1.29-.88-.49-.21-1.02-.31-1.56-.31s-1.07,.11-1.56,.32c-.47,.22-.9,.51-1.27,.88-.37,.38-.68,.84-.88,1.34-.23,.54-.36,1.11-.39,1.69h8.24Z"/>
          <path class="cls-2" d="M200.22,106.33c-.73,0-1.44-.13-2.12-.38-.67-.26-1.26-.66-1.75-1.18l.36-.44c.48,.45,1.03,.82,1.63,1.08,.59,.25,1.23,.37,1.87,.36,.79,.04,1.57-.17,2.24-.59,.55-.36,.87-.99,.85-1.65,0-.29-.07-.58-.22-.83-.17-.24-.38-.43-.64-.57-.32-.18-.68-.31-1.04-.41-.41-.12-.88-.25-1.41-.37s-1.01-.25-1.41-.36c-.35-.11-.69-.26-1-.44-.26-.15-.45-.36-.59-.63-.14-.3-.2-.64-.19-.97,0-.44,.09-.87,.28-1.27,.19-.35,.44-.66,.77-.88,.34-.25,.72-.42,1.12-.52,.44-.12,.9-.18,1.36-.18,.71-.02,1.41,.12,2.06,.4,.51,.21,.94,.56,1.27,1.01l-.44,.32c-.31-.41-.74-.72-1.23-.88-.9-.33-1.88-.39-2.82-.19-.31,.08-.62,.22-.88,.4-.26,.19-.46,.42-.62,.69-.16,.3-.24,.65-.23,.99,0,.27,.04,.52,.15,.76,.11,.22,.28,.38,.48,.5,.27,.15,.54,.27,.84,.34,.33,.1,.74,.2,1.23,.31,.6,.14,1.15,.28,1.61,.41,.41,.12,.82,.28,1.2,.49,.3,.17,.56,.41,.75,.71,.18,.32,.28,.69,.26,1.06,0,.41-.09,.82-.27,1.19-.19,.34-.44,.65-.75,.88-.35,.27-.76,.46-1.18,.58-.5,.16-1.02,.25-1.54,.26h0Z"/>
          <path class="cls-2" d="M219.71,106.14l-1.88-1.96c-.48,.64-1.1,1.17-1.81,1.56-.73,.39-1.54,.6-2.38,.59-.53,0-1.05-.08-1.56-.24-.48-.15-.93-.37-1.34-.69-.38-.29-.7-.67-.93-1.09-.43-.86-.46-1.87-.09-2.76,.18-.38,.4-.75,.69-1.06,.3-.34,.63-.66,.99-.93,.38-.28,.79-.58,1.2-.88-.38-.4-.7-.77-.96-1.08-.24-.28-.45-.58-.65-.88-.15-.24-.27-.49-.35-.76-.07-.23-.1-.46-.1-.69,0-.37,.08-.74,.25-1.07s.4-.64,.69-.88c.3-.27,.65-.47,1.02-.62,.4-.16,.84-.23,1.28-.23,.39,0,.8,.06,1.17,.19,.34,.12,.66,.29,.93,.53,.26,.23,.46,.49,.61,.8s.22,.63,.22,.96c0,.38-.09,.76-.27,1.1-.19,.35-.43,.68-.71,.96-.32,.32-.67,.62-1.03,.88-.38,.29-.79,.58-1.2,.85l4.31,4.5c.63-1.09,.95-2.33,.95-3.59h.59c0,.72-.1,1.42-.29,2.11-.19,.67-.47,1.31-.84,1.9l2.38,2.45-.86,.03h-.02Zm-5.98-.37c.75,0,1.47-.18,2.12-.54,.63-.36,1.18-.86,1.6-1.45l-4.44-4.7c-.39,.27-.77,.54-1.11,.81-.32,.26-.62,.55-.88,.86-.26,.29-.46,.62-.62,.97s-.24,.75-.23,1.13c0,.45,.1,.89,.32,1.29,.22,.35,.5,.66,.84,.88,.35,.25,.76,.42,1.17,.54,.4,.12,.81,.19,1.23,.2h0Zm-2.56-10.47c0,.18,.03,.35,.08,.52,.07,.23,.17,.43,.28,.64,.17,.29,.36,.57,.58,.83,.25,.31,.57,.68,.97,1.09,.44-.3,.86-.59,1.24-.86,.33-.25,.66-.51,.95-.81,.25-.24,.45-.51,.61-.81,.14-.28,.21-.58,.21-.88,0-.54-.24-1.06-.66-1.4-.47-.37-1.06-.57-1.66-.55-.35,0-.7,.06-1.02,.19-.3,.11-.58,.28-.83,.48-.23,.2-.42,.44-.55,.72-.13,.27-.2,.57-.2,.86h0Z"/>
          <path class="cls-2" d="M36.02,110.32h.57l5.82,13.47h-.73l-1.99-4.66h-6.76l-1.99,4.66h-.73s5.82-13.47,5.82-13.47Zm3.46,8.26l-3.17-7.43-3.19,7.43h6.37Z"/>
          <path class="cls-2" d="M51.55,123.79h-.65v-5.51c0-1.36-.2-2.35-.58-2.98-.39-.63-1.09-.99-1.84-.94-.45,0-.9,.09-1.34,.25-.43,.17-.84,.39-1.21,.69-.37,.29-.71,.64-.99,1.02-.28,.39-.49,.83-.62,1.29v6.17h-.65v-9.87h.63v2.47c.2-.39,.45-.76,.75-1.07,.3-.32,.65-.6,1.02-.83,.38-.23,.79-.4,1.21-.53,.42-.13,.86-.19,1.3-.19,.89-.07,1.76,.35,2.25,1.11,.46,.74,.69,1.85,.69,3.33v5.58l.03,.02Z"/>
          <path class="cls-2" d="M57,123.98c-.92,.06-1.82-.37-2.35-1.12s-.8-1.85-.8-3.32v-5.62h.65v5.54c0,2.61,.87,3.91,2.63,3.91,.45,0,.9-.08,1.34-.24,.42-.16,.83-.37,1.19-.65,.36-.28,.69-.63,.95-1.01,.28-.39,.49-.84,.64-1.29v-6.27h.65v8.83c0,.28,.12,.41,.34,.41v.61h-.19c-.21,0-.39-.09-.53-.24-.15-.16-.24-.36-.23-.58v-1.63c-.4,.79-1.02,1.45-1.78,1.92-.75,.48-1.61,.74-2.5,.74h-.03Z"/>
          <path class="cls-2" d="M72.28,123.79h-.65v-5.51c0-1.36-.2-2.35-.58-2.98-.39-.63-1.09-.99-1.84-.94-.45,0-.9,.09-1.34,.25-.44,.17-.85,.39-1.23,.69s-.71,.64-.98,1.02c-.28,.39-.49,.83-.62,1.29v6.17h-.65v-9.87h.63v2.47c.2-.39,.45-.76,.76-1.07,.3-.32,.65-.6,1.02-.83,.38-.23,.79-.4,1.21-.53,.42-.13,.86-.19,1.3-.19,.89-.07,1.76,.35,2.25,1.11,.46,.74,.69,1.85,.69,3.33v5.58l.03,.02Z"/>
          <path class="cls-2" d="M73.97,118.82c0-.68,.12-1.36,.36-1.98,.23-.6,.57-1.15,1.01-1.62,.89-.94,2.14-1.47,3.44-1.46,.81-.02,1.6,.19,2.3,.6,.66,.38,1.18,.95,1.5,1.65l-.63,.23c-.3-.57-.77-1.04-1.34-1.37-.58-.33-1.24-.5-1.9-.5-.55,0-1.1,.12-1.61,.34-.49,.23-.93,.55-1.31,.94-.38,.41-.69,.89-.88,1.41-.22,.56-.31,1.15-.31,1.75s.11,1.21,.33,1.78c.21,.53,.51,1.02,.88,1.45,.37,.41,.83,.76,1.34,.99,.49,.24,1.03,.36,1.58,.36,.37,0,.74-.06,1.09-.17s.69-.26,1-.44c.28-.17,.55-.37,.79-.62,.21-.21,.36-.47,.44-.75l.65,.19c-.12,.35-.3,.68-.56,.95-.26,.29-.56,.55-.88,.75-.36,.22-.75,.38-1.15,.49-.42,.12-.85,.19-1.29,.19-.65,0-1.3-.14-1.89-.41-.58-.27-1.09-.65-1.52-1.11-.91-.99-1.42-2.3-1.41-3.64v.02l-.04-.02Z"/>
          <path class="cls-2" d="M84.37,111.52v-1.6h.64v1.6h-.64Zm0,12.27v-9.87h.64v9.87h-.64Z"/>
          <path class="cls-2" d="M91.59,123.98c-.65,0-1.29-.14-1.87-.41-.57-.27-1.08-.64-1.51-1.1-.43-.47-.78-1.02-1.01-1.62-.24-.63-.36-1.29-.36-1.96s.13-1.35,.37-1.97c.24-.6,.58-1.16,1.01-1.63,.42-.46,.93-.84,1.51-1.11,.58-.28,1.21-.41,1.85-.41s1.28,.14,1.86,.41c.58,.27,1.09,.64,1.52,1.11,.43,.48,.78,1.03,1.01,1.63,.49,1.27,.49,2.67,0,3.93-.24,.6-.57,1.15-1.01,1.62-.42,.46-.94,.84-1.51,1.1-.59,.28-1.23,.41-1.89,.41h.03Zm-4.1-5.07c0,1.16,.42,2.29,1.2,3.15,.36,.4,.82,.73,1.31,.96,1.01,.47,2.18,.47,3.18,0,.5-.24,.95-.56,1.34-.96,.38-.42,.68-.9,.88-1.43,.42-1.12,.42-2.36,0-3.48-.21-.53-.51-1.01-.88-1.43-.37-.4-.83-.74-1.34-.96-.49-.24-1.03-.36-1.58-.36s-1.08,.13-1.57,.36c-.49,.24-.93,.57-1.3,.97-.79,.87-1.23,2.01-1.23,3.2h0v-.02Z"/>
          <path class="cls-2" d="M101.16,123.98c-.73,0-1.44-.13-2.12-.38-.67-.26-1.26-.66-1.75-1.18l.36-.44c.48,.44,1.03,.81,1.63,1.08,.59,.25,1.23,.37,1.87,.36,.79,.03,1.55-.18,2.22-.59,.55-.36,.87-.99,.85-1.65,0-.29-.07-.58-.22-.83-.17-.24-.38-.43-.64-.57-.33-.18-.68-.31-1.04-.41-.41-.12-.88-.25-1.41-.36s-1.01-.26-1.41-.37c-.35-.11-.69-.26-1-.44-.26-.15-.45-.36-.59-.63-.14-.3-.2-.64-.19-.97,0-.44,.09-.87,.28-1.27,.19-.35,.45-.66,.77-.88,.34-.25,.72-.42,1.12-.52,.44-.12,.9-.18,1.36-.17,.71-.02,1.4,.12,2.06,.39,.51,.21,.94,.56,1.26,1.01l-.44,.32c-.31-.41-.74-.72-1.23-.88-.55-.21-1.13-.3-1.72-.3-.37,0-.74,.04-1.1,.12-.31,.08-.62,.22-.88,.4-.26,.19-.47,.42-.62,.7-.16,.3-.24,.64-.23,.98,0,.27,.04,.52,.15,.76,.11,.22,.28,.38,.48,.51,.27,.15,.55,.27,.84,.34,.33,.09,.74,.2,1.23,.31,.6,.14,1.15,.28,1.61,.41,.41,.12,.82,.28,1.2,.5,.66,.33,1.06,1.03,1.01,1.78,0,.41-.09,.82-.27,1.19-.18,.34-.44,.65-.75,.88-.35,.27-.76,.47-1.18,.58-.49,.16-1,.24-1.51,.25v-.03Z"/>
          <path class="cls-2" d="M111.26,123.79v-13.47h.67v12.87h8.26v.61h-8.93Z"/>
          <path class="cls-2" d="M124.37,123.98c-.92,.06-1.82-.37-2.36-1.12-.53-.75-.8-1.85-.8-3.32v-5.62h.63v5.54c0,2.61,.88,3.91,2.66,3.91,.45,0,.89-.08,1.31-.24,.42-.16,.83-.37,1.19-.65,.36-.28,.69-.63,.95-1.01,.28-.39,.49-.84,.64-1.29v-6.27h.65v8.83c0,.28,.11,.41,.34,.41v.61h-.19c-.21,0-.39-.09-.53-.24-.15-.16-.24-.36-.23-.58v-1.63c-.4,.79-1.02,1.45-1.78,1.92-.74,.48-1.6,.74-2.49,.74h0Z"/>
          <path class="cls-2" d="M146.12,123.79h-.65v-5.51c0-1.34-.21-2.33-.62-2.96-.41-.64-1.13-1-1.89-.95-.43,0-.85,.08-1.26,.25-.39,.17-.75,.39-1.06,.68-.33,.29-.62,.65-.84,1.03-.25,.41-.43,.86-.55,1.34v6.15h-.65v-5.52c0-1.36-.2-2.35-.6-2.98-.41-.64-1.14-.99-1.89-.94-.85,0-1.67,.3-2.3,.88-.68,.64-1.17,1.45-1.4,2.35v6.17h-.65v-9.86h.63v2.47c.36-.77,.92-1.43,1.61-1.94,.64-.45,1.4-.69,2.18-.69,.76-.03,1.49,.25,2.04,.76,.54,.54,.87,1.25,.94,2.01,.97-1.85,2.28-2.77,3.91-2.77,.91-.07,1.79,.36,2.3,1.13,.48,.76,.72,1.86,.72,3.31v5.6Z"/>
          <path class="cls-2" d="M148.51,111.52v-1.6h.65v1.6h-.65Zm0,12.27v-9.87h.65v9.87h-.65Z"/>
          <path class="cls-2" d="M159.57,123.79h-.65v-5.51c0-1.36-.2-2.35-.58-2.98-.39-.63-1.09-.99-1.84-.94-.45,0-.9,.09-1.34,.25-.44,.17-.85,.39-1.23,.69s-.71,.64-.99,1.02c-.28,.39-.49,.83-.62,1.29v6.17h-.65v-9.87h.63v2.47c.21-.39,.46-.76,.76-1.07,.3-.32,.65-.6,1.02-.83,.38-.23,.79-.4,1.21-.53,.42-.13,.86-.19,1.3-.19,.89-.07,1.76,.35,2.25,1.11,.44,.74,.7,1.85,.7,3.33v5.58l.03,.02Z"/>
          <path class="cls-2" d="M165.98,123.98c-.65,0-1.29-.14-1.87-.41-.57-.27-1.08-.64-1.51-1.1-.44-.47-.78-1.02-1.01-1.62-.25-.63-.36-1.29-.36-1.96,0-1.34,.49-2.62,1.39-3.61,.42-.46,.93-.84,1.51-1.11,.58-.28,1.21-.41,1.85-.41s1.28,.14,1.87,.41c.58,.27,1.09,.64,1.52,1.11,1.85,2.04,1.85,5.15,0,7.19-.42,.46-.93,.84-1.51,1.1-.59,.28-1.23,.41-1.88,.41h0Zm-4.1-5.08c0,1.16,.42,2.29,1.2,3.15,.36,.4,.81,.73,1.3,.96,1.01,.47,2.18,.47,3.19,0,.5-.24,.95-.56,1.34-.96,.38-.42,.68-.9,.88-1.43,.43-1.12,.43-2.36,0-3.48-.21-.53-.51-1.01-.88-1.43-.37-.4-.83-.74-1.34-.96-.49-.24-1.04-.36-1.59-.36s-1.08,.13-1.57,.36c-.49,.24-.93,.57-1.3,.97-.38,.42-.68,.91-.88,1.44-.23,.56-.33,1.15-.33,1.75h0Z"/>
          <path class="cls-2" d="M175.54,123.98c-.73,0-1.44-.13-2.12-.38-.67-.26-1.26-.66-1.75-1.18l.36-.44c.48,.44,1.03,.81,1.63,1.08,.59,.25,1.23,.37,1.87,.36,.79,.03,1.55-.18,2.22-.59,.55-.36,.87-.99,.85-1.65,0-.29-.07-.58-.22-.83-.17-.24-.38-.43-.64-.57-.33-.18-.68-.31-1.04-.41-.41-.12-.88-.25-1.41-.36s-1.01-.26-1.41-.37c-.35-.11-.69-.26-1-.44-.26-.15-.45-.36-.59-.63-.14-.3-.2-.64-.19-.97,0-.44,.09-.87,.28-1.27,.19-.35,.45-.66,.77-.88,.34-.25,.72-.42,1.12-.52,.44-.12,.9-.18,1.36-.17,.71-.02,1.4,.12,2.06,.39,.51,.21,.94,.56,1.27,1.01l-.44,.32c-.31-.41-.74-.72-1.23-.88-.55-.21-1.13-.3-1.72-.3-.37,0-.74,.04-1.1,.12-.31,.08-.62,.22-.88,.4-.26,.19-.46,.42-.62,.7-.16,.3-.24,.64-.23,.98,0,.27,.04,.52,.15,.76,.11,.22,.28,.38,.48,.51,.27,.15,.55,.27,.84,.34,.33,.09,.74,.2,1.23,.31,.6,.14,1.15,.28,1.61,.41,.41,.12,.82,.28,1.2,.5,.66,.33,1.06,1.03,1.01,1.78,0,.41-.09,.82-.27,1.19-.18,.34-.44,.65-.75,.88-.35,.27-.76,.47-1.18,.58-.49,.16-1,.24-1.52,.25v-.03Z"/>
          <path class="cls-2" d="M185.07,123.98c-.65,0-1.29-.14-1.88-.41-.57-.27-1.08-.64-1.51-1.1-.43-.47-.78-1.02-1.01-1.62-.24-.63-.36-1.29-.36-1.96s.13-1.35,.37-1.97c.24-.6,.58-1.16,1.01-1.63,.42-.46,.94-.84,1.51-1.11,.58-.28,1.21-.41,1.85-.41s1.28,.14,1.86,.41c.58,.27,1.09,.64,1.52,1.11,.43,.48,.78,1.03,1.01,1.63,.75,1.9,.35,4.05-1.01,5.56-.42,.46-.94,.84-1.51,1.1-.59,.28-1.23,.41-1.89,.41h.04Zm-4.1-5.08c0,1.16,.42,2.29,1.2,3.15,.36,.4,.81,.73,1.3,.96,.5,.24,1.04,.35,1.59,.35s1.1-.12,1.6-.36c.5-.24,.95-.56,1.34-.96,.38-.42,.68-.9,.88-1.43,.42-1.12,.42-2.36,0-3.48-.21-.53-.51-1.01-.88-1.43-.37-.4-.83-.74-1.34-.96-.49-.24-1.03-.36-1.58-.36s-1.08,.13-1.57,.36c-.49,.24-.93,.57-1.3,.97-.8,.87-1.23,2.01-1.23,3.2h0Z"/>
          <path class="cls-2" d="M194.63,123.98c-.73,0-1.45-.13-2.13-.38-.66-.26-1.26-.66-1.75-1.18l.36-.44c.48,.44,1.03,.82,1.63,1.08,.59,.25,1.22,.37,1.86,.36,.79,.03,1.55-.18,2.22-.59,.56-.36,.88-.99,.85-1.65,0-.29-.07-.58-.22-.83-.17-.24-.38-.43-.64-.57-.32-.18-.68-.31-1.03-.41-.41-.12-.88-.25-1.41-.36s-1.01-.26-1.41-.37c-.35-.11-.69-.26-1-.44-.26-.15-.45-.36-.59-.63-.14-.3-.2-.64-.19-.97,0-.44,.09-.87,.28-1.27,.19-.35,.44-.66,.77-.88,.33-.25,.72-.42,1.12-.52,.44-.12,.9-.18,1.36-.17,.71-.02,1.41,.12,2.06,.39,.51,.21,.94,.56,1.26,1.01l-.44,.32c-.31-.41-.74-.72-1.23-.88-.9-.32-1.89-.39-2.82-.19-.31,.08-.62,.22-.88,.4-.26,.19-.47,.42-.62,.7-.16,.3-.24,.64-.23,.98,0,.27,.04,.52,.15,.76,.11,.22,.28,.38,.48,.51,.27,.15,.54,.27,.84,.34,.33,.09,.75,.2,1.23,.31,.61,.14,1.15,.28,1.61,.41,.41,.12,.82,.28,1.2,.5,.66,.33,1.06,1.03,1.01,1.78,0,.41-.09,.82-.27,1.19-.19,.34-.44,.65-.75,.88-.35,.27-.76,.47-1.18,.58-.49,.16-.99,.24-1.51,.25v-.03Z"/>
          <rect class="cls-2" x="229.96" y="30.65" width="22.19" height="22.19" transform="translate(41.08 182.68) rotate(-45)"/>
          <rect class="cls-2" x="246.57" y="47.29" width="22.19" height="22.19" transform="translate(34.18 199.3) rotate(-45)"/>
          <rect class="cls-2" x="229.94" y="63.92" width="22.19" height="22.19" transform="translate(17.56 192.41) rotate(-45)"/>
          <rect class="cls-2" x="263.21" y="63.92" width="22.19" height="22.19" transform="translate(27.3 215.94) rotate(-45)"/>
          <rect class="cls-2" x="246.58" y="80.55" width="22.19" height="22.19" transform="translate(10.67 209.05) rotate(-45)"/>
          <rect class="cls-2" x="230" y="97.13" width="22.19" height="22.19" transform="translate(-5.91 202.18) rotate(-45)"/>
        </g>
      </g>
    </g>
  </g>
</svg>