<?xml version="1.0" encoding="UTF-8"?>
<svg id="Capa_2" data-name="Capa 2" xmlns="http://www.w3.org/2000/svg" viewBox="0 0 300 300">
  <defs>
    <style>
      .cls-1 {
        fill: none;
      }

      .cls-2 {
        fill: #ededed;
      }
    </style>
  </defs>
  <g id="Marco">
    <rect class="cls-1" width="300" height="300"/>
  </g>
  <g id="Capa_2-2" data-name="Capa 2">
    <g>
      <g>
        <path class="cls-2" d="M34.96,174.96c-6.67,0-12.93-2.6-17.65-7.31-4.71-4.71-7.31-10.98-7.31-17.65,0-13.76,11.2-24.96,24.96-24.96s24.96,11.2,24.96,24.96-11.2,24.96-24.96,24.96Zm0-49.15c-13.34,0-24.19,10.85-24.19,24.19,0,6.46,2.52,12.54,7.09,17.11,4.57,4.57,10.65,7.09,17.11,7.09,13.34,0,24.19-10.85,24.19-24.19s-10.85-24.19-24.19-24.19Z"/>
        <path class="cls-2" d="M34.99,172.01c-8.26,0-16.19-4.69-19.9-12.66-2.47-5.31-2.73-11.26-.73-16.76s6.03-9.9,11.34-12.37c5.31-2.48,11.26-2.73,16.76-.73,5.5,2,9.9,6.03,12.37,11.34,5.11,10.96,.35,24.03-10.6,29.14-2.99,1.39-6.13,2.05-9.23,2.05Zm-.05-43.71c-3.14,0-6.26,.69-9.19,2.05-5.27,2.46-9.27,6.82-11.26,12.29-1.99,5.46-1.73,11.38,.73,16.65,5.07,10.88,18.05,15.6,28.93,10.53,10.88-5.07,15.6-18.05,10.53-28.93-2.46-5.27-6.82-9.27-12.29-11.26-2.43-.88-4.95-1.32-7.46-1.32Z"/>
        <path class="cls-2" d="M51.91,156.06v5.91H23.18c-.85,0-1.66-.17-2.42-.5-.76-.33-1.42-.78-1.98-1.34-.57-.56-1.01-1.23-1.34-1.98-.33-.76-.5-1.56-.5-2.42v-11.28c0-.85,.17-1.66,.5-2.42,.33-.76,.78-1.42,1.34-1.98,.56-.56,1.23-1.01,1.98-1.34,.76-.33,1.56-.5,2.42-.5h28.73v5.91H25.95v11.95h25.96Zm-20.91-3.18v-5.54h19.1v5.54H30.99Z"/>
      </g>
      <path class="cls-2" d="M94.47,138.11l-14.15,23.86h-8.01l-14.15-23.86h9.5l8.63,15.06,8.67-15.06h9.5Z"/>
      <path class="cls-2" d="M126.42,138.11c.86,0,1.67,.17,2.45,.52,.77,.35,1.45,.8,2.03,1.37,.58,.57,1.04,1.23,1.39,1.99,.35,.76,.52,1.56,.52,2.39v11.33c0,.89-.17,1.71-.52,2.47-.35,.76-.81,1.42-1.39,1.97-.58,.55-1.26,1-2.03,1.33-.77,.33-1.59,.5-2.45,.5h-22.45c-.89,0-1.71-.17-2.47-.5-.76-.33-1.43-.77-1.99-1.33-.57-.55-1.02-1.21-1.35-1.97-.33-.76-.5-1.58-.5-2.47v-11.33c0-.86,.17-1.67,.5-2.45,.33-.77,.78-1.44,1.35-1.99,.57-.55,1.23-1,1.99-1.33,.76-.33,1.58-.5,2.47-.5h22.45Zm-2.7,5.93h-17.01v11.99h17.01v-11.99Z"/>
      <path class="cls-2" d="M171.94,144.04h-12.91v17.93h-9.05v-17.93h-12.95v-5.93h34.9v5.93Z"/>
      <path class="cls-2" d="M211.28,156.03v5.93h-28.84c-.86,0-1.67-.17-2.43-.5-.76-.33-1.42-.78-1.99-1.35-.57-.57-1.02-1.23-1.35-1.99-.33-.76-.5-1.57-.5-2.43v-11.33c0-.86,.17-1.67,.5-2.43,.33-.76,.78-1.42,1.35-1.99,.57-.57,1.23-1.02,1.99-1.35,.76-.33,1.57-.5,2.43-.5h28.84v5.93h-26.06v11.99h26.06Zm-21-3.2v-5.56h19.17v5.56h-19.17Z"/>
      <path class="cls-2" d="M224.6,156.03h26.06v5.93h-28.84c-.86,0-1.67-.17-2.43-.5-.76-.33-1.42-.78-1.99-1.35-.57-.57-1.02-1.23-1.35-1.99-.33-.76-.5-1.57-.5-2.43v-11.33c0-.86,.17-1.67,.5-2.43,.33-.76,.78-1.42,1.35-1.99,.57-.57,1.23-1.02,1.99-1.35,.76-.33,1.57-.5,2.43-.5h28.84v5.93h-26.06v11.99Z"/>
      <path class="cls-2" d="M290,138.11v23.86h-9v-8.55h-17.05v8.55h-9.05v-23.86h9.05v9.75h17.05v-9.75h9Z"/>
      <g>
        <path class="cls-2" d="M263.16,129.58h-5.18v7.11h-2.74v-9.47h8.51c.27,0,.53,.06,.79,.18,.26,.12,.48,.29,.69,.51,.2,.22,.36,.48,.48,.78,.12,.3,.18,.63,.18,1v1.14c0,.35-.06,.68-.19,.98-.13,.3-.29,.56-.5,.78-.21,.22-.44,.4-.69,.53-.26,.13-.51,.2-.76,.2h-4.24v-2.22h3.65v-1.52Z"/>
        <path class="cls-2" d="M275.09,129.58h-5.18v7.11h-2.74v-9.47h8.51c.27,0,.53,.06,.79,.18,.26,.12,.48,.29,.69,.51,.2,.22,.36,.48,.48,.78,.12,.3,.18,.63,.18,1v1.14c0,.33-.07,.65-.19,.95-.13,.3-.3,.57-.5,.79-.21,.23-.43,.41-.69,.54-.25,.14-.49,.21-.73,.21l2,3.38h-5.72v-5.6h3.11v-1.52Z"/>
        <path class="cls-2" d="M287.82,127.23c.26,0,.51,.07,.74,.21,.23,.14,.44,.32,.62,.54,.18,.23,.32,.49,.42,.79,.1,.3,.16,.62,.16,.95v4.5c0,.35-.05,.68-.16,.98-.1,.3-.25,.56-.42,.78-.18,.22-.38,.4-.62,.53-.23,.13-.48,.2-.74,.2h-6.8c-.27,0-.52-.07-.75-.2-.23-.13-.43-.31-.6-.53-.17-.22-.31-.48-.41-.78-.1-.3-.15-.63-.15-.98v-4.5c0-.34,.05-.66,.15-.97,.1-.31,.24-.57,.41-.79,.17-.22,.37-.4,.6-.53,.23-.13,.48-.2,.75-.2h6.8Zm-.82,2.35h-5.15v4.76h5.15v-4.76Z"/>
      </g>
    </g>
  </g>
</svg>