<?xml version="1.0" encoding="UTF-8"?>
<svg id="Capa_2" data-name="Capa 2" xmlns="http://www.w3.org/2000/svg" viewBox="0 0 300 150">
  <defs>
    <style>
      .cls-1 {
        fill: none;
      }

      .cls-2 {
        fill: #ededed;
      }
    </style>
  </defs>
  <g id="Capa_3" data-name="Capa 3">
    <rect class="cls-1" width="300" height="150"/>
  </g>
  <g id="Capa_2-2" data-name="Capa 2">
    <g>
      <path class="cls-2" d="M231.19,83.99l-2.94-8.08c-.59-1.54-.61-3.25-.05-4.8,2.46-6.25,4.66-15.67,1.26-25.03-3.4-9.36-11.15-15.15-17.05-18.36-1.42-.83-2.49-2.15-3.02-3.71l-2.94-8.08c-.2-.57-.49-1.1-.87-1.58l-.41-.49-12.17,4.43c-1.2,.43-2.59,.19-3.82-.67-18.56-13-42.16-16.18-63.15-8.54-20.99,7.64-37.01,25.26-42.88,47.13-.37,1.45-1.3,2.53-2.49,2.97l-12.17,4.43v.64c.01,.6,.13,1.2,.34,1.77l2.93,8.08c.59,1.53,.61,3.23,.06,4.78-2.46,6.25-4.66,15.67-1.26,25.03,3.41,9.36,11.15,15.15,17.05,18.36,1.42,.83,2.49,2.15,3.02,3.71l2.94,8.08c.2,.57,.49,1.1,.87,1.57l.41,.49,12.17-4.43c1.2-.43,2.59-.19,3.82,.67,18.56,12.99,42.16,16.18,63.14,8.54,20.98-7.64,37.03-25.26,42.9-47.13,.37-1.45,1.3-2.53,2.5-2.97l12.17-4.43v-.64c-.01-.6-.13-1.19-.35-1.76Zm-12.54,4.87c-1.62,.59-2.85,2.05-3.37,4.01-5.74,21.36-21.44,38.58-42.01,46.07h0c-20.57,7.49-43.67,4.38-61.8-8.31-1.67-1.16-3.55-1.5-5.17-.91l-11.09,4.05c-.05-.08-.09-.16-.13-.25l-2.94-8.07c-.72-2.11-2.17-3.89-4.1-5.01-5.56-3.03-12.85-8.45-15.99-17.06-3.13-8.61-1.03-17.44,1.28-23.34,.75-2.1,.72-4.39-.09-6.47l-2.94-8.08c-.03-.09-.04-.18-.06-.27l11.09-4.04c1.62-.59,2.85-2.05,3.37-4.01,5.74-21.39,21.44-38.62,42.01-46.1,20.57-7.48,43.67-4.38,61.79,8.3,1.66,1.17,3.55,1.5,5.17,.91l11.11-4.05c.04,.09,.09,.14,.13,.24l2.94,8.08c.72,2.11,2.17,3.89,4.1,5.01,5.56,3.03,12.85,8.44,15.99,17.05s1.03,17.45-1.28,23.34c-.75,2.1-.72,4.39,.09,6.47l2.95,8.09c.02,.09,.04,.18,.06,.27l-11.1,4.06Z"/>
      <path class="cls-2" d="M101.28,70.51c1.72-.62,2.86-1.52,3.43-2.73,.57-1.2,.54-2.74-.08-4.6-1.35,1.19-2.91,2.1-4.6,2.69-1.64,.57-3.32,1.01-5.03,1.3-2.12,.4-4.21,.96-6.24,1.69-3.35,1.22-5.93,2.74-7.73,4.55-1.8,1.81-2.9,3.73-3.29,5.76-.39,2.03-.21,4.13,.52,6.06,.54,1.48,1.3,2.4,2.28,2.77,.98,.37,2.24,.27,3.78-.29-.16-.22-.35-.42-.55-.6-.35-.34-.71-1.04-1.1-2.09-1.17-3.22-1.28-5.71-.33-7.49,.95-1.78,2.69-3.13,5.22-4.05l.51-.19,4.22,30.42,6.14-2.25-4.08-29.5c1.8-.27,3.18-.5,4.14-.69,.95-.19,1.89-.45,2.8-.78Z"/>
      <path class="cls-2" d="M105.58,97.29c1.46,.72,3.16,.79,4.68,.19,1.3-.44,2.42-1.28,3.21-2.4,.78-1.17,1.36-2.47,1.71-3.83,.6,1.24,1.38,2.06,2.35,2.46,1.04,.4,2.2,.39,3.24-.04,1.44-.53,2.71-1.53,3.8-3l.18,1.25,6.14-2.25-2.07-14.73c-.11-1.13,0-2.28,.34-3.37,.23-.84,.85-1.53,1.67-1.84,.85-.31,1.5,.16,1.96,1.41,.13,.36,.22,.74,.26,1.12l2.25,15.83,6.13-2.25-2.08-14.77c-.1-1.12,0-2.25,.33-3.33,.21-.82,.79-1.49,1.57-1.8,1.02-.37,1.8,.17,2.33,1.61,.26,.8,.45,1.62,.55,2.46,.15,1.04,.3,2.1,.43,3.17,.01,.24,.07,.73,.18,1.5,.1,.77,.22,1.56,.35,2.36,.11,.71,.28,1.42,.52,2.1,.42,1.27,1.3,2.34,2.46,2.99h0c1.16,.63,2.59,.63,4.34,0,1.55-.61,2.86-1.72,3.7-3.16,.27-.42,.5-.92,.69-1.49,.35,.3,.72,.56,1.12,.74h0c1.46,.7,3.14,.77,4.64,.17,1.3-.43,2.42-1.28,3.2-2.4,.78-1.18,1.36-2.47,1.72-3.83,.62,1.22,1.41,2.04,2.38,2.44,1.04,.4,2.21,.39,3.24-.05,1.56-.57,2.91-1.68,4.07-3.34,.28-.41,.53-.87,.74-1.39,.4,.46,.85,.82,1.35,1.06h0c1.18,.56,2.54,.6,3.75,.11,1.62-.59,3.05-1.73,4.3-3.43,.39-.53,.71-1.15,.97-1.85,.44,.4,.91,.72,1.43,.94,1.56,.67,3.4,.62,5.5-.15,3.07-1.12,5.39-3.27,6.98-6.43,.16,.18,.33,.35,.51,.5,.8,.69,1.78,1.14,2.83,1.28,1.27,.17,2.55,.01,3.74-.45,1.34-.49,2.59-1.22,3.68-2.16,1.11-.95,1.94-2.18,2.39-3.57,.48-1.43,.4-3.01-.23-4.74-.28-.77-.8-1.98-1.56-3.63-1.88-4.11-3.56-7.96-5.02-11.55l-5.99,3.14c.12,2.62,.14,5.11,.06,7.44-.09,2.37-.33,4.74-.71,7.09-.54,.59-.9,1.31-1.04,2.09-.18,.88-.11,1.78,.2,2.62-.27,.45-.54,.88-.84,1.31-.91,1.16-2.15,2.03-3.55,2.5-1.09,.39-1.96,.43-2.62,.11-.66-.33-1.25-1.18-1.76-2.57-.11-.28-.28-.86-.54-1.73,1.64-.72,3.11-1.79,4.31-3.13,1.18-1.29,2.02-2.84,2.45-4.53,.43-1.61,.34-3.32-.24-4.89-.99-2.73-3.05-3.52-6.18-2.38-2.67,.97-4.56,2.63-5.66,4.98-1.1,2.34-1.63,4.9-1.53,7.49,.04,2.35,.45,4.67,1.2,6.89,.21,.56,.43,1.08,.68,1.54,0,.02-.01,.03-.02,.05-.36,.86-1.06,1.53-1.92,1.87-.46,.22-.98,.27-1.47,.13-.42-.22-.73-.61-.85-1.07-.17-.46-.28-.94-.32-1.43l-3.47-24.8-5.99,3.14,3.21,23.01c.13,.98,.36,1.95,.67,2.89,.02,.05,.04,.09,.06,.14-.23,.84-.84,1.52-1.65,1.83-1.16,.42-1.97,.03-2.41-1.2-.17-.46-.28-.94-.33-1.43l-2.21-15.61-6.14,2.25,.35,2.42-.11-.3c-.22-.64-.76-1.12-1.42-1.27-.71-.19-1.65-.07-2.81,.35-2.23,.78-4.06,2.43-5.07,4.57-1.09,2.26-1.64,4.74-1.61,7.25-.03,2.41,.36,4.81,1.15,7.09,.24,.65,.5,1.24,.78,1.77,0,0,0,0,0,0-.28,.79-.91,1.41-1.71,1.66-.47,.23-1.03,.23-1.5,0-.42-.28-.72-.7-.86-1.18-.22-.67-.36-1.37-.43-2.07-.12-.9-.23-1.84-.33-2.8-.15-1.58-.31-2.92-.5-3.99-.14-.97-.37-1.93-.7-2.86-.61-1.63-1.48-2.69-2.62-3.17-1.14-.49-2.44-.47-3.89,.06-2.38,.86-3.92,2.78-4.6,5.78-1.32-2.28-3.22-2.97-5.72-2.06-2.01,.73-3.59,2.31-4.31,4.32l-.34-2.38-6.14,2.25,2.58,18.36c-.31,.58-.81,1.03-1.43,1.27-1.16,.42-1.97,.02-2.41-1.2-.17-.46-.28-.94-.33-1.43l-2.22-15.61-6.14,2.25,.35,2.42-.11-.3c-.22-.64-.76-1.12-1.42-1.27-.71-.19-1.65-.07-2.81,.35-2.23,.78-4.06,2.43-5.07,4.57-1.07,2.25-1.61,4.73-1.58,7.22-.03,2.41,.35,4.81,1.14,7.08,.86,2.36,2.03,3.9,3.51,4.61Zm98.87-53.84c.5,1.07,1.47,3.18,2.93,6.31,.58,1.13,1.1,2.3,1.56,3.49,.51,1.39,.52,2.53,.04,3.41h-.01c-.51,.88-1.34,1.55-2.31,1.86-.91,.33-1.66,.33-2.25,0-.42-.23-.78-.65-1.09-1.23,.06-.18,.11-.35,.17-.53,.24,.04,.52,0,.84-.12,.53-.18,.94-.6,1.12-1.12,.2-.53,.2-1.11,0-1.64-.24-.64-.83-1.09-1.52-1.12,.45-3.08,.63-6.2,.52-9.31Zm-13.24,5.3c.33-2.14,1-3.4,2.03-3.78,.71-.26,1.28,.19,1.7,1.36,.42,1.16,.54,2.42,.34,3.64-.19,1.23-.65,2.41-1.36,3.44h.02c-.64,.97-1.55,1.74-2.62,2.2-.4-2.27-.43-4.58-.11-6.86Zm-31.35,11.22c.44-1.64,1.23-2.67,2.35-3.09,.48-.22,1.03-.2,1.5,.05,.37,.21,.67,.54,.82,.93l1.46,10.38c.19,1.11,.04,2.25-.43,3.27h0c-.32,.8-.94,1.43-1.71,1.76-.56,.22-1.18,.2-1.73-.04-.55-.25-1.09-1.08-1.61-2.5-.57-1.68-.91-3.43-1.03-5.2-.18-1.86-.06-3.74,.37-5.55Zm-52.34,19.05c.43-1.64,1.22-2.67,2.35-3.09,.49-.22,1.05-.2,1.52,.05,.37,.21,.66,.54,.82,.93l1.46,10.38c.19,1.11,.04,2.25-.42,3.27h0c-.45,.92-1.04,1.51-1.74,1.76-.56,.22-1.18,.2-1.73-.04-.55-.25-1.09-1.08-1.61-2.5-.57-1.68-.92-3.43-1.03-5.2-.18-1.86-.04-3.74,.39-5.55Z"/>
      <path class="cls-2" d="M158.44,87.78c.49,.3,1.1,.35,1.64,.13,.52-.15,.93-.56,1.09-1.08,.12-.61,.06-1.25-.19-1.82-.4-1.13-1.08-1.82-2.03-2.08-1.1-.26-2.25-.16-3.28,.27-1.89,.63-3.41,2.07-4.15,3.93-.78,1.95-1.1,4.05-.95,6.15,.1,2.01,.49,3.98,1.15,5.88,.78,2.17,1.78,3.57,2.99,4.19,1.21,.62,2.74,.6,4.6-.07,1.91-.73,3.5-2.11,4.49-3.9,.12-.21,.22-.43,.32-.65,.34,.44,.72,.77,1.16,.98h0c.84,.42,1.82,.46,2.7,.12,1.45-.52,2.4-1.74,2.84-3.63,.29,.61,.78,1.11,1.39,1.41,.6,.25,1.27,.25,1.87,0,.55-.16,1-.56,1.22-1.08,.24-.75,.35-1.53,.33-2.32-.14,.14-.32,.24-.51,.3-.27,.12-.57,.15-.86,.07-.24-.13-.42-.35-.49-.62-.1-.27-.16-.54-.19-.83l-1.28-9.04-3.55,1.29,.19,1.41-.06-.18c-.12-.38-.43-.66-.82-.75-.55-.09-1.12-.02-1.63,.21-1.3,.45-2.35,1.4-2.94,2.65-.63,1.31-.95,2.74-.93,4.2-.02,1.4,.21,2.8,.67,4.12,.06,.16,.12,.32,.19,.47-.24,.42-.52,.82-.85,1.18-.67,.73-1.52,1.29-2.46,1.62-1.12,.4-2.01,.36-2.68-.14-.67-.5-1.23-1.37-1.68-2.62-.63-1.77-1.03-3.62-1.18-5.5-.19-1.74-.09-3.49,.27-5.2,.36-1.48,.97-2.38,1.85-2.7,.41-.19,.89-.19,1.3,0,.36,.21,.63,.55,.75,.95,.17,.48,.23,.99,.16,1.5-.03,.43-.19,.85-.47,1.18Zm7.97,1.36c.25-.95,.7-1.54,1.36-1.79,.28-.13,.61-.12,.88,.03,.22,.12,.39,.31,.48,.54l.85,6.01c.11,.64,.02,1.3-.25,1.89h0c-.19,.46-.55,.83-1.01,1.03-.32,.13-.69,.12-1-.03-.33-.14-.64-.63-.94-1.45-.33-.97-.53-1.99-.59-3.01-.1-1.08-.03-2.16,.23-3.22Z"/>
      <path class="cls-2" d="M184.77,89.6c-.29-.16-.64-.18-.95-.04-.37,.11-.69,.36-.89,.7-.16,.26-.19,.57-.1,.86,.04,.13,.13,.25,.25,.32,.13,.06,.27,.07,.4,.03,.06,.35-.27,.66-.98,.91-.45,.15-.91,.28-1.37,.37-.27,.07-.46,.12-.56,.15l2.25-12.64-6.34,2.31c-.53,.18-1,.51-1.35,.94-.33,.39-.55,.86-.65,1.36-.1,.41-.08,.84,.04,1.24,.09,.31,.33,.56,.63,.68,.29,.11,.61,.11,.9,0,.34-.12,.63-.36,.82-.67,.18-.35,.2-.76,.04-1.12-.09-.24-.18-.37-.29-.37-.11,0-.18-.03-.18-.06-.06-.16,.01-.31,.22-.44,.31-.18,.65-.33,1-.45l1.38-.52-2.27,13.33,6.55-2.38c.55-.19,1.05-.53,1.43-.98,.34-.41,.58-.89,.69-1.41,.1-.45,.07-.91-.07-1.34-.1-.31-.32-.58-.6-.75Z"/>
      <path class="cls-2" d="M222.72,76.98c-.24-.12-.42-.35-.49-.62-.1-.27-.16-.54-.19-.82l-1.28-9.04-3.56,1.3,.19,1.41-.06-.17c-.12-.38-.44-.66-.83-.75-.55-.09-1.12-.03-1.63,.2-1.3,.45-2.35,1.41-2.94,2.65-.63,1.31-.95,2.75-.93,4.2-.02,1.4,.21,2.8,.67,4.12,.13,.35,.26,.66,.41,.95-.21,.5-.62,.89-1.12,1.09-.27,.12-.57,.15-.85,.06-.25-.13-.43-.35-.49-.62-.1-.27-.16-.54-.18-.83l-2.02-14.36-3.47,1.82,1.87,13.33c.03,.27,.08,.54,.14,.81-.28,.56-.59,1.09-.95,1.6-.53,.68-1.24,1.18-2.06,1.45-.47,.22-1.01,.24-1.5,.06-.39-.19-.73-.69-1.02-1.5-.06-.16-.16-.5-.31-1.01,.95-.42,1.8-1.05,2.49-1.84,.68-.74,1.17-1.64,1.42-2.62,.25-.93,.2-1.92-.13-2.82-.57-1.58-1.77-2.04-3.58-1.38-1.44,.47-2.63,1.52-3.28,2.89-.64,1.35-.94,2.84-.88,4.33,.03,1.36,.26,2.71,.7,3.99,.13,.37,.28,.69,.44,.99-.17,.44-.5,.78-.94,.95-.26,.12-.55,.13-.83,.06-.24-.13-.42-.35-.49-.62-.1-.27-.16-.55-.19-.83l-1.28-9.04-3.56,1.29,1.21,8.56c.06,.63,0,1.27-.21,1.87-.15,.47-.51,.84-.97,1.01-.5,.18-.87-.07-1.12-.75-.08-.23-.14-.48-.18-.72l-1.28-9.04-3.56,1.3,1.2,8.54c.07,.57,.19,1.13,.37,1.68,.36,.99,.87,1.64,1.53,1.96,.69,.33,1.49,.34,2.19,.05,.66-.24,1.25-.65,1.71-1.18,.57-.72,.95-1.58,1.09-2.49,.27,.64,.76,1.17,1.39,1.47,.61,.24,1.3,.24,1.9-.02,.97-.38,1.8-1.06,2.36-1.94,.2-.29,.36-.62,.49-1,.25,.22,.51,.4,.8,.52h0c.9,.39,1.96,.36,3.17-.07,1.96-.71,3.39-2.14,4.3-4.28,.34,.68,.77,1.15,1.3,1.4h0c.69,.33,1.49,.34,2.2,.05,1.01-.4,1.88-1.09,2.49-1.98,.21-.29,.39-.63,.54-1.01,.23,.22,.48,.41,.75,.54,.84,.42,1.82,.46,2.7,.12,1.45-.53,2.4-1.74,2.84-3.63,.29,.61,.78,1.11,1.39,1.4,.6,.25,1.27,.25,1.87,0,.55-.16,1-.56,1.23-1.09,.23-.75,.34-1.53,.33-2.31-.15,.13-.32,.24-.51,.3-.27,.13-.57,.15-.85,.07Zm-22.89,.11c.19-1.24,.58-1.97,1.17-2.19,.41-.15,.74,.11,.99,.79,.24,.67,.31,1.4,.19,2.11-.11,.71-.38,1.39-.79,1.99h0c-.37,.56-.89,1-1.51,1.27-.23-1.31-.25-2.65-.06-3.97Zm18.32,1.13v-.02c-.19,.46-.54,.82-.99,1.03-.33,.13-.7,.12-1.02-.03-.32-.14-.63-.63-.93-1.45-.33-.97-.53-1.98-.59-2.99-.1-1.08-.03-2.16,.23-3.22,.24-.96,.7-1.55,1.36-1.79,.28-.13,.61-.12,.88,.03,.22,.12,.39,.31,.48,.54l.84,6.01c.11,.64,.03,1.3-.25,1.89Z"/>
      <path class="cls-2" d="M140.24,91.43c-.25-.04-.51-.01-.75,.09-.59,.21-1.07,.64-1.33,1.21-.28,.59-.43,1.24-.42,1.9,0,.64,.1,1.27,.31,1.87,.13,.51,.46,.95,.92,1.21h0c.38,.17,.82,.18,1.21,.01,.34-.11,.64-.33,.85-.63,.21-.3,.35-.64,.43-1,.13,.27,.34,.48,.61,.59,.27,.09,.57,.08,.83-.03,.62-.22,1.05-.66,1.29-1.28,.12,.11,.25,.21,.39,.28,.46,.18,.97,.16,1.43-.04,1.09-.39,1.53-1.18,1.33-2.36-.12,.24-.28,.47-.47,.66-.17,.18-.38,.32-.61,.41-.46,.17-.8-.06-1.03-.67-.04-.11-.07-.23-.1-.34,.43-.19,.81-.47,1.12-.82,.31-.34,.53-.74,.64-1.19,.11-.42,.09-.87-.06-1.28-.26-.71-.8-.92-1.62-.63-.66,.21-1.2,.68-1.5,1.31-.29,.61-.43,1.29-.4,1.97,.01,.62,.12,1.23,.32,1.81,.04,.16,.11,.3,.19,.44-.08,.18-.22,.33-.41,.41-.12,.06-.25,.07-.37,.04-.11-.06-.19-.16-.22-.28-.04-.12-.07-.25-.08-.37l-.91-6.51-1.58,.82,.37,2.71c-.06-.16-.2-.28-.37-.32Zm4.78-.47c.09-.57,.25-.9,.52-.99,.19-.07,.34,.05,.45,.36,.11,.31,.14,.64,.09,.96-.05,.33-.18,.64-.37,.91h0c-.16,.24-.4,.44-.68,.56-.09-.6-.09-1.19,0-1.79Zm-4.32,1.37l.37,2.76,.02,.06c.04,.28,0,.57-.13,.82-.09,.19-.25,.35-.45,.43-.15,.06-.31,.06-.45,0-.21-.16-.36-.4-.42-.66-.15-.44-.24-.9-.27-1.36-.05-.49-.01-.98,.1-1.46,.06-.36,.29-.67,.62-.82,.23-.09,.49,0,.6,.22Z"/>
      <polygon class="cls-2" points="116.46 100.85 111.44 104.79 113.68 107.64 114.13 107.28 112.3 104.94 116.86 101.36 116.46 100.85"/>
      <path class="cls-2" d="M118.21,112.26l2.58-6.42-.44-.45-6.44,2.53,.5,.5,1.67-.69,2.32,2.33-.69,1.67,.51,.51Zm-1.54-4.76l3.38-1.39-1.41,3.37-1.97-1.99Z"/>
      <polygon class="cls-2" points="127.33 118.68 130.71 113.25 129.87 112.73 125.25 116.09 125.25 116.08 126.21 110.44 125.36 109.92 121.98 115.34 122.53 115.69 125.47 110.97 125.49 110.98 124.51 116.92 124.8 117.1 129.7 113.61 129.72 113.62 126.78 118.33 127.33 118.68"/>
      <path class="cls-2" d="M134.19,121.67l-.03-6.9-.58-.24-4.99,4.77,.65,.28,1.28-1.26,3.02,1.28v1.81s.65,.28,.65,.28Zm-3.22-3.81l2.6-2.55-.03,3.64-2.57-1.09Z"/>
      <path class="cls-2" d="M140.25,116.9c-.35-.23-.72-.4-1.1-.5l-2.04-.55-1.65,6.16,2.04,.55c.38,.1,.78,.14,1.2,.12,.42-.02,.82-.12,1.2-.3,.38-.17,.72-.43,1.01-.76,.29-.33,.51-.76,.65-1.27,.14-.51,.16-.98,.07-1.42-.09-.44-.25-.83-.49-1.17-.24-.34-.54-.63-.89-.86Zm.65,3.27c-.09,.32-.23,.61-.42,.88-.19,.27-.44,.49-.72,.67-.29,.17-.63,.29-1.01,.34-.38,.05-.81,.02-1.27-.11l-1.24-.33,1.35-5.04,1.24,.33c.46,.12,.85,.31,1.15,.54,.31,.24,.54,.5,.7,.8,.16,.3,.26,.61,.29,.94,.03,.33,0,.66-.08,.98Z"/>
      <path class="cls-2" d="M146.28,120.53c.16-.12,.29-.27,.4-.45,.11-.18,.17-.38,.2-.62,.04-.31,.02-.58-.07-.8-.08-.23-.21-.42-.39-.57-.18-.16-.39-.28-.65-.37-.26-.09-.54-.16-.85-.19l-1.85-.22-.76,6.29,.64,.08,.36-2.94,1.07,.13,1.39,3.15,.78,.1-1.48-3.22c.23,0,.45-.02,.66-.08,.21-.06,.39-.15,.55-.27Zm-1.79-.22l-1.11-.13,.27-2.25,1.14,.14c.24,.03,.45,.08,.64,.14,.19,.06,.35,.15,.47,.26s.22,.23,.28,.39c.06,.15,.08,.33,.05,.54-.05,.37-.22,.64-.52,.79-.3,.15-.71,.2-1.22,.14Z"/>
      <rect class="cls-2" x="144.83" y="120.59" width="6.39" height=".65" transform="translate(21.47 264.15) rotate(-87.78)"/>
      <polygon class="cls-2" points="154.24 123.99 155.05 123.94 154.68 117.6 154.04 117.63 154.35 123.04 154.33 123.04 150.33 117.85 149.52 117.89 149.88 124.24 150.53 124.2 150.22 118.74 150.24 118.74 154.24 123.99"/>
      <path class="cls-2" d="M156.34,123.81l.69-.14,.34-1.78,3.22-.66,1.02,1.49,.7-.15-3.96-5.67-.62,.13-1.4,6.78Zm3.89-3.11l-2.74,.57,.69-3.59,2.05,3.02Z"/>
      <polygon class="cls-2" points="170.79 119.28 171.52 118.95 168.92 113.17 168.33 113.44 170.55 118.36 170.53 118.37 164.95 114.96 164.21 115.29 166.82 121.07 167.41 120.81 165.17 115.83 165.18 115.83 170.79 119.28"/>
      <path class="cls-2" d="M177.27,115.48l.61-.38-5.71-3.9-.53,.34,1.09,6.84,.6-.38-.31-1.78,2.77-1.76,1.49,1.03Zm-4.37,.1l-.63-3.6,2.99,2.1-2.36,1.5Z"/>
      <polygon class="cls-2" points="182.19 111.41 182.8 110.88 178.62 106.11 178.14 106.53 181.69 110.6 181.68 110.61 175.35 108.97 174.74 109.5 178.91 114.28 179.4 113.85 175.81 109.75 175.82 109.74 182.19 111.41"/>
      <path class="cls-2" d="M184.1,108.44c.42-.03,.82-.14,1.21-.34,.39-.2,.74-.48,1.05-.84,.19-.22,.33-.44,.44-.66,.11-.23,.19-.45,.23-.67,.05-.22,.07-.44,.06-.65-.01-.21-.04-.41-.09-.59l-.57,.17c.11,.38,.11,.75,0,1.09-.1,.35-.27,.66-.51,.94-.26,.31-.56,.54-.88,.69-.33,.15-.66,.23-1,.24-.34,0-.68-.05-1.01-.17-.33-.12-.64-.31-.92-.55-.28-.24-.51-.51-.68-.82-.18-.31-.29-.63-.33-.97-.04-.34-.02-.68,.08-1.02,.1-.34,.28-.67,.55-.99,.13-.15,.27-.28,.43-.39,.15-.1,.3-.18,.46-.25s.31-.1,.46-.12c.15-.02,.28-.02,.4,0l.05-.66c-.19-.02-.38,0-.58,.03-.2,.04-.4,.11-.59,.2-.2,.09-.38,.21-.57,.35-.18,.14-.35,.3-.5,.47-.31,.36-.53,.74-.66,1.16-.14,.42-.19,.83-.16,1.25,.03,.42,.15,.82,.35,1.21,.2,.39,.48,.74,.85,1.06,.37,.32,.76,.54,1.17,.68,.42,.14,.83,.2,1.25,.17Z"/>
      <polygon class="cls-2" points="189.65 102.47 187.36 100.98 185.63 97.01 185.22 97.64 186.74 100.94 183.12 100.86 182.68 101.53 187.01 101.52 189.3 103.02 189.65 102.47"/>
      <polygon class="cls-2" points="114.14 47.22 112.17 49.81 112.47 50.05 113.33 48.92 116.39 51.25 116.65 50.91 113.59 48.58 114.45 47.45 114.14 47.22"/>
      <path class="cls-2" d="M115.63,48.08c-.07-.06-.14-.11-.2-.15l-.25,.3c.08,.06,.17,.12,.26,.19,.09,.07,.17,.14,.23,.18l1.67,1.4,.26-.31-1.1-.92c-.14-.12-.25-.24-.32-.36-.07-.12-.12-.24-.14-.35-.02-.11,0-.22,.02-.32,.03-.1,.09-.19,.15-.28,.04-.04,.07-.08,.12-.12,.04-.04,.07-.06,.1-.08l-.26-.29s-.07,.05-.1,.08-.06,.06-.1,.1c-.13,.15-.2,.32-.23,.51s0,.36,.07,.53h0s-.11-.08-.18-.13Z"/>
      <path class="cls-2" d="M118.12,45.7c-.13-.05-.26-.06-.39-.05-.13,.02-.25,.06-.37,.13-.12,.07-.23,.16-.33,.27-.16,.17-.28,.36-.35,.55-.07,.19-.11,.37-.1,.53l.35,.02c0-.14,.02-.28,.07-.43,.05-.15,.14-.28,.25-.4,.17-.18,.33-.27,.51-.28,.17-.01,.35,.06,.52,.23l.07,.06c-.17,.19-.33,.37-.48,.56-.15,.19-.26,.37-.34,.54-.08,.18-.11,.35-.09,.51,.02,.17,.1,.32,.26,.47,.11,.11,.23,.17,.35,.2,.12,.03,.24,.03,.35,0,.11-.02,.22-.06,.32-.13,.1-.06,.19-.13,.26-.21,.15-.17,.26-.34,.31-.51,.05-.17,.05-.37,0-.59h0c.06,.04,.11,.09,.18,.14,.06,.05,.12,.09,.18,.13l.25-.27c-.07-.04-.15-.1-.24-.17-.09-.07-.17-.15-.25-.22l-.9-.83c-.13-.12-.25-.2-.38-.24Zm.61,.98c.09,.08,.16,.18,.22,.28,.05,.11,.09,.21,.1,.33s0,.23-.04,.34-.11,.23-.21,.33c-.05,.06-.11,.11-.18,.15-.07,.04-.14,.08-.21,.09-.07,.02-.15,.02-.22,0-.08-.02-.15-.06-.22-.13-.1-.09-.14-.19-.14-.31,0-.12,.03-.24,.1-.37,.06-.13,.15-.26,.25-.39,.11-.13,.21-.26,.33-.38l.08-.09,.15,.14Z"/>
      <path class="cls-2" d="M119.78,43.49c-.2,.06-.38,.16-.53,.3-.16,.15-.28,.31-.36,.49-.08,.18-.12,.36-.12,.54s.03,.36,.1,.54c.07,.18,.18,.34,.32,.5,.14,.15,.3,.27,.47,.35,.17,.08,.35,.13,.53,.14,.18,.01,.36-.02,.54-.08,.18-.07,.35-.17,.51-.32,.15-.14,.26-.31,.34-.5,.08-.2,.1-.4,.07-.62h0s.32,.34,.32,.34l.3-.28-3.08-3.32-.3,.28,1.5,1.62h0c-.21-.04-.42-.04-.63,.02Zm.93,.35c.13,.06,.25,.15,.36,.27,.11,.12,.19,.24,.24,.38s.08,.28,.08,.41c0,.14-.03,.27-.09,.41-.06,.13-.14,.25-.26,.36-.12,.11-.25,.19-.39,.24-.14,.05-.27,.06-.41,.05-.13-.01-.27-.05-.4-.12s-.25-.16-.35-.27c-.11-.11-.19-.24-.25-.37s-.09-.27-.09-.4c0-.14,.02-.27,.08-.4s.15-.26,.27-.37c.11-.11,.24-.18,.38-.23,.14-.05,.27-.07,.41-.06,.14,0,.28,.05,.41,.11Z"/>
      <path class="cls-2" d="M120.7,41.59c.05-.05,.09-.11,.1-.19,.01-.08,0-.15-.06-.22-.05-.06-.12-.1-.2-.1-.08,0-.15,.02-.2,.06-.06,.05-.09,.11-.1,.19-.01,.08,0,.15,.06,.22,.05,.06,.12,.1,.2,.1,.08,0,.15-.02,.2-.06Z"/>
      <rect class="cls-2" x="121.9" y="41.87" width=".41" height="2.8" transform="translate(.54 88.03) rotate(-39.73)"/>
      <path class="cls-2" d="M122.54,41.15c-.1,.17-.17,.35-.19,.53-.02,.18-.01,.37,.04,.56s.14,.37,.27,.54c.13,.17,.27,.3,.44,.41,.17,.1,.34,.17,.52,.19,.18,.03,.37,.02,.56-.03,.19-.05,.38-.14,.56-.28,.2-.15,.34-.31,.42-.48,.09-.17,.13-.36,.14-.55h-.38c0,.14-.03,.27-.09,.4-.06,.13-.16,.25-.3,.36-.13,.1-.27,.16-.41,.2-.14,.03-.28,.04-.41,0-.14-.03-.26-.08-.38-.16-.12-.08-.23-.18-.33-.31s-.17-.26-.21-.4c-.04-.14-.06-.28-.04-.42,.01-.14,.06-.27,.13-.4,.07-.13,.17-.24,.3-.34,.12-.09,.26-.15,.4-.17,.15-.02,.28,0,.4,.04l.12-.37c-.19-.06-.39-.06-.6,0-.2,.05-.38,.13-.53,.24-.18,.14-.33,.29-.43,.46Z"/>
      <path class="cls-2" d="M123.71,39.2c.08,.01,.15,0,.21-.05,.06-.04,.1-.1,.12-.18s0-.15-.04-.22c-.05-.07-.11-.11-.19-.12-.08-.01-.15,0-.21,.05s-.1,.1-.12,.18c-.02,.08,0,.15,.04,.22s.11,.11,.19,.12Z"/>
      <rect class="cls-2" x="124.95" y="39.56" width=".41" height="2.81" transform="translate(-1.22 77.99) rotate(-34.45)"/>
      <polygon class="cls-2" points="126.35 36.85 125.88 37.13 125.82 38.18 126.12 37.99 126.35 36.85"/>
      <path class="cls-2" d="M125.58,39.95c.03,.19,.1,.38,.21,.56,.11,.18,.24,.33,.4,.44,.16,.11,.32,.19,.5,.24,.18,.04,.37,.05,.56,.02,.19-.03,.38-.11,.57-.22,.19-.11,.34-.25,.46-.41s.2-.33,.24-.51,.05-.37,.02-.56c-.03-.19-.1-.38-.21-.56-.11-.18-.24-.33-.4-.44-.16-.11-.32-.19-.5-.24-.18-.04-.37-.05-.56-.02-.19,.03-.38,.11-.57,.22-.18,.11-.33,.25-.45,.41-.12,.16-.2,.33-.24,.51-.04,.18-.05,.37-.02,.56Zm.41-.5c.03-.13,.08-.26,.16-.38,.08-.12,.19-.22,.33-.31,.14-.08,.28-.14,.42-.15,.14-.02,.28,0,.41,.03,.13,.04,.25,.1,.37,.19,.11,.09,.21,.2,.29,.33,.08,.13,.14,.27,.17,.41,.03,.14,.03,.28,0,.42-.03,.13-.08,.26-.16,.38-.08,.12-.19,.22-.33,.3-.14,.09-.28,.14-.42,.15-.14,.02-.28,0-.41-.03-.13-.04-.25-.1-.37-.19s-.21-.2-.29-.34c-.08-.13-.14-.27-.16-.41-.03-.14-.03-.28,0-.42Z"/>
      <path class="cls-2" d="M129.11,37.32c.07-.09,.15-.15,.25-.2,.13-.07,.25-.1,.36-.11s.21,.02,.3,.07c.09,.05,.17,.12,.25,.22,.08,.1,.15,.21,.22,.34l.71,1.38,.36-.19-.79-1.53c-.16-.31-.37-.52-.62-.62-.26-.11-.54-.08-.86,.09-.18,.09-.32,.22-.44,.4-.11,.17-.17,.35-.16,.53h-.01s-.06-.11-.11-.19c-.05-.08-.09-.15-.13-.22l-.35,.18c.05,.08,.11,.17,.16,.28,.06,.1,.11,.19,.14,.26l1,1.94,.36-.19-.66-1.28c-.09-.17-.14-.32-.16-.47-.02-.14-.02-.27,.01-.39,.03-.12,.08-.22,.15-.3Z"/>
      <path class="cls-2" d="M133.82,34.87c-.21-.02-.41,.01-.6,.09-.2,.08-.38,.19-.51,.33s-.24,.29-.31,.46c-.07,.17-.1,.35-.1,.54,0,.19,.04,.39,.12,.58s.18,.36,.31,.5c.13,.14,.28,.25,.45,.33,.17,.08,.35,.12,.54,.12,.19,0,.39-.03,.6-.11,.19-.08,.36-.19,.5-.35,.14-.16,.24-.34,.28-.55h.01s.18,.44,.18,.44l.38-.15-1.68-4.21-.38,.15,.82,2.05h-.01c-.18-.12-.38-.19-.59-.21Zm.74,.66c.1,.11,.18,.24,.24,.39,.06,.15,.09,.3,.09,.44,0,.15-.02,.29-.08,.41-.05,.13-.13,.24-.23,.35-.1,.1-.22,.18-.37,.24-.16,.06-.31,.09-.45,.09-.14,0-.28-.04-.4-.1-.12-.06-.23-.15-.32-.26-.1-.11-.17-.24-.23-.38-.06-.14-.09-.29-.1-.44,0-.15,.01-.28,.06-.41,.05-.13,.12-.24,.22-.35,.1-.1,.23-.19,.38-.25,.14-.06,.29-.08,.43-.08,.14,0,.28,.04,.41,.1,.13,.06,.24,.14,.34,.25Z"/>
      <path class="cls-2" d="M138.28,34.82s-.02-.06-.03-.09c-.06-.18-.14-.35-.24-.49-.11-.14-.23-.26-.37-.35s-.31-.14-.49-.16-.38,0-.59,.07c-.19,.06-.36,.15-.5,.27-.14,.12-.25,.26-.34,.43-.08,.16-.13,.34-.15,.53s0,.39,.07,.59c.06,.2,.16,.38,.28,.53,.12,.15,.27,.27,.43,.36,.16,.09,.34,.14,.53,.16,.19,.02,.39,0,.58-.07,.22-.07,.41-.18,.58-.32s.3-.35,.39-.6l-.36-.14c-.04,.15-.12,.29-.23,.43-.12,.14-.28,.24-.48,.3-.14,.04-.27,.06-.41,.04-.13-.01-.26-.05-.37-.11s-.22-.14-.3-.24c-.09-.1-.15-.22-.2-.35l2.22-.69s-.01-.07-.02-.1Zm-2.28,.48c-.03-.12-.03-.24-.02-.36,.02-.12,.05-.23,.11-.34,.06-.11,.14-.2,.23-.28,.1-.08,.21-.14,.34-.18,.28-.09,.52-.07,.72,.05,.2,.12,.35,.3,.44,.55l-1.82,.57Z"/>
      <path class="cls-2" d="M138.96,33.59s.1-.09,.17-.12c.07-.03,.13-.06,.2-.07,.15-.04,.29-.03,.43,0s.25,.11,.33,.21l.24-.3c-.13-.13-.29-.22-.49-.26-.2-.04-.39-.04-.58,0-.12,.03-.24,.08-.35,.14-.11,.06-.2,.13-.27,.22-.08,.09-.13,.18-.16,.3-.03,.11-.03,.24,0,.38,.03,.13,.08,.23,.15,.3,.07,.07,.15,.13,.24,.16,.09,.04,.18,.06,.28,.06,.1,0,.19,0,.28,0,.27,0,.49,.02,.64,.05,.15,.04,.25,.13,.28,.27,.02,.09,.02,.17,0,.24-.02,.07-.05,.13-.1,.18s-.11,.1-.18,.13c-.07,.03-.15,.06-.24,.08-.16,.04-.32,.04-.48-.01-.15-.05-.28-.12-.38-.22l-.26,.31c.17,.15,.36,.24,.57,.28,.21,.04,.42,.03,.63-.02,.12-.03,.24-.08,.36-.13,.11-.06,.21-.13,.29-.23,.08-.09,.14-.2,.17-.32,.03-.12,.03-.26,0-.41-.05-.21-.17-.36-.35-.45-.18-.09-.44-.12-.78-.11-.24,0-.41,0-.53-.05-.12-.04-.2-.13-.23-.25-.02-.07-.02-.14,0-.2,.02-.06,.05-.12,.1-.17Z"/>
      <path class="cls-2" d="M142.65,32.52c-.2-.06-.41-.07-.61-.04-.22,.04-.4,.11-.57,.21-.16,.1-.29,.23-.4,.38-.1,.15-.17,.32-.21,.51s-.04,.38,0,.59c.03,.2,.1,.39,.2,.55,.1,.17,.22,.3,.37,.41,.15,.11,.31,.19,.5,.23,.19,.04,.39,.05,.6,.01,.2-.03,.39-.11,.56-.23,.17-.12,.3-.28,.39-.48h.01s.08,.46,.08,.46l.4-.07-.75-4.45-.4,.07,.37,2.17h-.01c-.15-.16-.32-.27-.53-.33Zm.59,.8c.08,.13,.13,.27,.15,.42,.03,.16,.02,.31,0,.45-.03,.14-.08,.27-.16,.39-.08,.11-.18,.21-.3,.29-.12,.08-.26,.13-.41,.16-.16,.03-.32,.02-.46-.01-.14-.03-.26-.1-.37-.18-.11-.09-.19-.19-.26-.32-.07-.13-.12-.27-.14-.42-.03-.15-.03-.3,0-.44,.02-.14,.07-.27,.14-.39,.07-.11,.17-.21,.29-.29,.12-.08,.26-.14,.43-.16,.15-.03,.3-.02,.44,.01,.14,.04,.26,.09,.37,.18,.11,.08,.2,.19,.28,.32Z"/>
      <path class="cls-2" d="M146.98,33.35s0-.06,0-.09c-.02-.19-.07-.37-.14-.53-.07-.16-.17-.3-.3-.41-.12-.11-.27-.2-.45-.26-.17-.06-.37-.07-.59-.05-.2,.02-.38,.07-.54,.16-.16,.09-.3,.21-.42,.35-.11,.14-.2,.31-.25,.49-.05,.19-.07,.38-.05,.59,.02,.21,.08,.4,.17,.57,.09,.17,.21,.32,.35,.44,.14,.12,.3,.21,.49,.26,.18,.06,.38,.07,.59,.05,.23-.02,.44-.09,.63-.2,.19-.11,.36-.28,.51-.51l-.33-.21c-.07,.13-.17,.26-.32,.37-.14,.11-.32,.18-.53,.2-.14,.01-.28,0-.41-.04-.13-.04-.24-.1-.34-.19-.1-.08-.18-.18-.25-.3-.06-.12-.1-.25-.12-.39l2.31-.23s0-.07,0-.1Zm-2.33,0c0-.12,.01-.24,.06-.35,.04-.11,.1-.22,.18-.31,.08-.09,.17-.17,.28-.23,.11-.06,.23-.1,.37-.11,.29-.03,.52,.04,.7,.19s.28,.37,.32,.63l-1.9,.19Z"/>
      <polygon class="cls-2" points="150.31 34.68 150.32 30.44 149.94 30.44 148.86 31.33 149.12 31.63 149.89 30.98 149.88 34.68 150.31 34.68"/>
      <path class="cls-2" d="M152.74,34.76l1.29-1.78c.12-.16,.22-.34,.31-.52,.09-.18,.14-.38,.16-.6,.01-.2,0-.38-.06-.55-.06-.17-.14-.32-.26-.44-.12-.12-.25-.23-.42-.3s-.34-.12-.54-.14c-.2-.01-.39,0-.56,.06s-.32,.13-.46,.24c-.13,.11-.24,.24-.32,.4-.08,.16-.13,.34-.14,.53-.01,.19,0,.37,.06,.54s.14,.31,.24,.43c.11,.12,.24,.22,.39,.29,.15,.07,.32,.12,.5,.13,.11,0,.22,0,.34-.02,.12-.02,.21-.05,.28-.1h.01s-1.32,1.78-1.32,1.78l.5,.03Zm.7-2.09c-.12,.04-.25,.05-.4,.04-.14,0-.27-.04-.39-.1s-.21-.13-.29-.22c-.08-.09-.13-.2-.17-.32-.04-.12-.05-.25-.04-.38,0-.14,.04-.26,.1-.38,.05-.12,.13-.21,.22-.29,.09-.08,.19-.14,.31-.18,.12-.04,.25-.06,.39-.05,.14,0,.27,.04,.38,.1,.11,.06,.21,.13,.29,.22s.14,.2,.17,.32c.04,.12,.05,.25,.04,.39,0,.14-.04,.26-.09,.38-.05,.11-.12,.21-.21,.29s-.19,.14-.31,.18Z"/>
      <polygon class="cls-2" points="155.43 35.07 157.68 31.52 157.74 31.13 155.26 30.76 155.2 31.14 157.25 31.44 154.96 35 155.43 35.07"/>
      <path class="cls-2" d="M160.24,33.02c-.05,.08-.1,.16-.17,.22-.06,.07-.13,.13-.21,.19s-.15,.11-.23,.16l-2.08,1.33-.1,.44,2.65,.59,.08-.38-2.2-.49,1.83-1.15c.11-.07,.22-.14,.32-.21,.1-.07,.2-.15,.28-.24,.08-.09,.16-.18,.22-.29,.06-.1,.11-.22,.14-.36,.04-.19,.05-.36,0-.52s-.1-.3-.19-.42c-.09-.12-.21-.22-.35-.31s-.29-.14-.46-.18c-.16-.04-.32-.05-.47-.03-.15,.02-.29,.06-.43,.13-.13,.06-.25,.15-.35,.26-.1,.11-.19,.23-.25,.37l.4,.18c.09-.21,.23-.36,.41-.46,.18-.1,.39-.13,.61-.08,.11,.02,.21,.07,.3,.13,.09,.06,.17,.13,.23,.22,.06,.09,.1,.18,.12,.29,.02,.11,.02,.22,0,.34-.02,.09-.06,.18-.1,.26Z"/>
      <path class="cls-2" d="M176.06,100.27c.35-.38,.31-.98-.07-1.32-.38-.35-.98-.31-1.32,.07-5.98,6.64-14.18,10.56-23.1,11.03-8.92,.47-17.49-2.56-24.14-8.53-1.73-1.55-3.29-3.29-4.66-5.16-.3-.42-.89-.51-1.31-.2-.42,.3-.51,.89-.2,1.31,1.44,1.97,3.1,3.81,4.92,5.45,6.54,5.88,14.85,9.06,23.58,9.06,.63,0,1.27-.02,1.91-.05,9.42-.5,18.08-4.64,24.39-11.65Z"/>
      <path class="cls-2" d="M168.22,48.77c.43,.28,1.01,.17,1.3-.27,.28-.43,.17-1.01-.27-1.3-3-1.98-6.27-3.48-9.74-4.48-9.07-2.59-18.6-1.5-26.84,3.08-8.24,4.58-14.21,12.09-16.8,21.16-.14,.5,.15,1.01,.64,1.16,.09,.02,.17,.04,.26,.04,.41,0,.78-.27,.9-.68,2.45-8.58,8.11-15.7,15.91-20.03,7.81-4.33,16.83-5.37,25.42-2.91,3.28,.94,6.38,2.36,9.22,4.24Z"/>
      <path class="cls-2" d="M203.08,88.83c-.5-.12-1.01,.18-1.13,.68-3.44,13.93-12.09,25.69-24.37,33.11-12.28,7.42-26.72,9.61-40.65,6.18-14.13-3.48-26.4-12.72-33.67-25.33-.26-.45-.83-.6-1.28-.34-.45,.26-.6,.83-.34,1.28,7.52,13.05,20.22,22.6,34.84,26.21,4.45,1.1,8.91,1.62,13.31,1.62,24.97,0,47.73-16.98,53.97-42.28,.12-.5-.18-1.01-.68-1.13Z"/>
      <path class="cls-2" d="M96.76,63.55c.08,.02,.16,.03,.24,.03,.41,0,.79-.28,.9-.7,3.69-13.86,12.56-25.46,24.97-32.66,12.41-7.2,26.88-9.13,40.75-5.44,10.2,2.71,19.29,8.31,26.3,16.18,.34,.39,.94,.42,1.32,.08,.39-.34,.42-.94,.08-1.32-7.26-8.15-16.67-13.94-27.22-16.75-14.35-3.82-29.32-1.82-42.17,5.63-12.85,7.45-22.02,19.45-25.84,33.8-.13,.5,.16,1.01,.66,1.14Z"/>
      <polygon class="cls-2" points="141.41 51.36 140.17 50.18 139.98 51.88 138.47 52.69 140.04 53.39 140.34 55.08 141.49 53.81 143.19 54.04 142.34 52.55 143.08 51.01 141.41 51.36"/>
      <polygon class="cls-2" points="136 54.15 135.08 53.27 134.93 54.54 133.8 55.15 134.97 55.68 135.2 56.95 136.07 55.99 137.34 56.17 136.7 55.05 137.26 53.89 136 54.15"/>
      <polygon class="cls-2" points="131.72 56.71 131.16 56.18 131.08 56.95 130.4 57.31 131.11 57.63 131.24 58.39 131.76 57.82 132.53 57.92 132.14 57.25 132.48 56.56 131.72 56.71"/>
      <polygon class="cls-2" points="146.98 50.16 146.05 49.27 145.92 50.55 144.78 51.15 145.96 51.69 146.18 52.95 147.05 52 148.32 52.17 147.69 51.05 148.24 49.9 146.98 50.16"/>
      <polygon class="cls-2" points="151.48 49.52 150.92 48.99 150.84 49.75 150.16 50.12 150.86 50.44 151 51.2 151.52 50.62 152.28 50.73 151.9 50.06 152.23 49.37 151.48 49.52"/>
    </g>
  </g>
</svg>