<?xml version="1.0" encoding="UTF-8"?>
<svg id="Capa_2" data-name="Capa 2" xmlns="http://www.w3.org/2000/svg" viewBox="0 0 300 150">
  <defs>
    <style>
      .cls-1 {
        fill: none;
      }

      .cls-2 {
        fill: #ededed;
      }
    </style>
  </defs>
  <g id="Capa_3" data-name="Capa 3">
    <rect class="cls-1" width="300" height="150"/>
  </g>
  <g id="Capa_2-2" data-name="Capa 2">
    <g>
      <g id="Capa_2-2" data-name="Capa 2-2">
        <g>
          <path class="cls-2" d="M24.04,80.83c-1.65,.92-3.36,1.53-4.79,2.71-3.83,3.17-5.43,8.18-5.49,13.89-.08,7.97,2.13,14.86,6.53,20.41,1.22,1.53,2.56,2.9,3.97,4.21-2.12-4.34-2.99-8.96-2.38-14.03,.61-5.05,2.49-9.05,5.75-11.94-.32,.63-.64,1.26-.95,1.9-1.55,3.3-1.92,6.72,.44,9.8,1.36,1.78,1.13,3.73,.03,6.04-.25,.53-.61,.97-.9,1.48-1.19,2.1-1.21,6.17,.02,8.13,.26,.41,.74,.63,1.14,.85,5.85,3.22,11.67,3.22,17.43-.41,.28-.18,.54-.4,.8-.62,.4-.33,.79-.69,1.23-1.06-2.8-2.03-3.28-5.74-4.01-9.27-.36-1.72-.65-3.51-1.24-5.1-.99-2.67-3.09-2.66-4.2-.07-.34,.8-.49,1.76-.71,2.64-.09,.36-.14,.74-.27,1.08-.69-4.39-.36-8.54,1.73-12.18,.5-.87,1.18-1.65,1.89-2.21,1.43-1.14,2.9-.76,3.69,1.18,.84,2.08,1.43,4.34,1.98,6.59,.52,2.08,.83,4.26,1.28,6.38,.12,.54,.37,1.06,.63,1.52,.6,1.08,1.31,2.08,2.43,1.87,1.2-.23,2.07-1.22,2.44-2.76,.99-4.09,1.34-8.25,.74-12.53-1.01-7.15-3.97-12.9-7.55-18.1-3.72-5.4-7.75-10.41-11.55-15.72-2.75-3.84-5.12-8.08-6.26-13.28-.94-4.29-.9-8.65-.35-13.01,.29-2.29,.74-4.54,1.12-6.81,.08,0,.17,0,.25,0,.14,1.1,.25,2.21,.4,3.31,.48,3.6,1.46,6.94,3.09,9.9,.84,1.52,1.89,2.63,3.33,3.17,3.35,1.25,5.15,4.42,5.65,8.84,.22,1.89-.02,3.87,.12,5.78,.1,1.34,.22,2.92,.81,3.9,1.72,2.84,3.61,5.52,5.55,8.1,3.36,4.48,6.36,9.29,8.26,15.15,2.33,7.22,2.79,14.68,1.1,22.2-2.02,8.94-6.34,15.3-13.04,18.41-7.86,3.64-15.29,2-22.27-3.84-4.09-3.42-7.17-8.06-9.33-13.71-1.39-3.62-2.1-7.56-2.43-11.64-.37-4.37-.03-8.6,1.38-12.54,2.08-5.8,5.67-8.67,10.54-8.7,.64,0,1.29,.07,1.96,.11l.02-.03Z"/>
          <path class="cls-2" d="M62.15,119.47c.24-2.63,.51-5.25,.71-7.89,.42-5.54,.54-11.06,.22-16.64-.36-6.34-1.23-12.53-3.03-18.39-1.42-4.64-3.12-9.21-5.14-13.45-4.26-8.98-9.94-16.34-16.04-23.15-2.46-2.75-4.75-5.71-6.4-9.42-1.55-3.48-2.54-7.21-2.36-11.28,.19-4.12,.59-8.23,1.05-12.35,.57,3.48,1.58,6.6,3.5,9.07,1.02,1.31,2.1,2.66,3.34,3.53,3.62,2.55,4.49,6.67,4.19,11.61-.08,1.35-.14,2.71-.18,4.06-.06,1.66,.53,2.94,1.41,4.03,2.66,3.31,5.36,6.55,7.97,9.93,4.42,5.74,8.44,11.9,11.39,19.18,2.72,6.69,4.5,13.79,5.52,21.23,.44,3.15,.68,6.35,.85,9.54,.31,5.99-1.5,11.16-3.86,16.04-.8,1.64-1.87,3.05-2.81,4.57-.11-.07-.22-.15-.33-.23h0Z"/>
          <path class="cls-2" d="M38.09,143.08c-1.73,.02-3.05-1.27-3.06-2.97,0-1.63,1.25-2.95,2.82-2.98,1.65-.03,3.15,1.39,3.13,2.98-.02,1.55-1.38,2.96-2.89,2.97Z"/>
        </g>
      </g>
      <g>
        <g>
          <path class="cls-2" d="M119.23,36.73c-1.6-.68-3.18-1.22-4.73-1.66-1.55-.43-3.72-.65-6.5-.65-5.52,.05-9.89,2.26-13.15,6.6-3.26,4.35-4.87,10.25-4.87,17.69,0,6.31,1.39,11.85,4.19,16.63,2.8,4.81,7.18,7.2,13.15,7.2,2.8,0,5.08-.24,6.85-.71,1.79-.46,3.37-1.01,4.76-1.63l1.85,2.77c-1.44,.79-3.42,1.44-5.95,2.01-2.53,.57-4.89,.84-7.12,.84-8.05,0-13.73-2.72-17.01-8.15s-4.95-11.74-4.95-18.92c0-7.69,1.85-14.21,5.54-19.62,3.7-5.38,9.32-8.07,16.91-8.07,1.6,0,3.75,.24,6.41,.71,2.69,.46,4.76,1.2,6.2,2.17l-1.55,2.77h-.03Z"/>
          <path class="cls-2" d="M147.82,31.08l20.87,53.9-4.02,.9-6.52-17.15h-23.78l-6.2,17.15h-3.94l19.9-54.79h3.7Zm-1.77,5.33l-10.55,29.16h21.53l-10.95-29.16h-.03Z"/>
          <path class="cls-2" d="M172.8,85.87V31.08h16.44c8.43,0,14.41,2.64,17.94,7.94,3.53,5.3,5.27,11.66,5.27,19.13s-1.9,14.16-5.71,19.57c-3.81,5.44-9.73,8.13-17.72,8.13h-16.2l-.03,.03Zm17.07-51.64h-13.13v48.52h12.34c5.73,0,10.38-2.31,13.94-6.96,3.56-4.65,5.33-10.49,5.33-17.53,0-6.5-1.52-12.12-4.54-16.88-3.04-4.76-7.66-7.12-13.89-7.12l-.05-.03Z"/>
          <path class="cls-2" d="M216.59,85.87V31.08h13.13c5.68,0,10.41,1.28,14.13,3.78,3.72,2.53,5.6,6.77,5.6,12.72s-2.01,10.22-6.03,12.94c-4.02,2.72-8.89,4.08-14.6,4.08h-8.29v21.28h-3.94Zm14.11-51.56h-10.17v27.15h9.27c4.29,0,7.99-1.17,11.03-3.45,3.07-2.31,4.59-5.73,4.59-10.33s-1.36-8.13-4.08-10.22c-2.72-2.09-6.28-3.15-10.68-3.15h.03Z"/>
          <path class="cls-2" d="M269.13,31.08l20.87,53.9-4.02,.9-6.52-17.15h-23.78l-6.2,17.15h-3.94l19.9-54.79h3.7Zm-1.77,5.33l-10.55,29.16h21.53l-10.95-29.16h-.03Z"/>
        </g>
        <g>
          <path class="cls-2" d="M95.07,101.91l6.58,16.47-3.23,.43-1.52-3.97h-6.41l-1.49,3.97h-3.23l6.6-16.91h2.72Zm-1.44,4.43l-2.23,5.9h4.48l-2.26-5.9Z"/>
          <path class="cls-2" d="M113.69,118.81l-3.59-6.47c-.19,0-.38,.03-.57,.03h-2.47v6.41h-3.21v-16.91h5.3c1.85,0,3.42,.43,4.73,1.28,1.3,.84,1.96,2.15,1.96,3.94,0,1.03-.27,1.96-.82,2.69-.54,.76-1.22,1.33-2.07,1.77l4.16,7.26h-3.42Zm-4.62-14.24h-1.98v5.16h2.04c.95,0,1.77-.19,2.39-.57s.95-1.03,.95-1.93c0-.95-.3-1.63-.9-2.04s-1.41-.63-2.5-.63Z"/>
          <path class="cls-2" d="M126.73,113.68l-4.05-5.19v10.33h-3.21v-16.91h2.04l5.73,7.8,5.19-7.8h1.96v16.91h-3.26v-9.76l-3.15,4.46-1.25,.16Z"/>
          <path class="cls-2" d="M137.88,110.09c0-2.61,.68-4.73,2.04-6.39,1.36-1.66,3.26-2.5,5.73-2.55,2.66,0,4.62,.84,5.9,2.55s1.9,3.78,1.9,6.2c0,2.61-.68,4.76-2.07,6.39-1.36,1.63-3.29,2.47-5.76,2.53-2.64,0-4.59-.84-5.87-2.55s-1.9-3.75-1.9-6.2l.03,.03Zm3.37,0c0,1.77,.35,3.23,1.06,4.35,.71,1.14,1.82,1.69,3.34,1.69,1.36,0,2.45-.52,3.26-1.52s1.22-2.58,1.22-4.67c0-1.77-.35-3.21-1.06-4.32s-1.82-1.69-3.34-1.69c-1.33,0-2.39,.54-3.23,1.66-.84,1.11-1.25,2.61-1.25,4.51h0Z"/>
          <path class="cls-2" d="M171.25,101.91v16.91h-3.23l-7.83-11.31v11.31h-3.21v-16.91h3.21l7.83,11.31v-11.31h3.23Z"/>
          <path class="cls-2" d="M178.64,101.91v16.91h-3.21v-16.91h3.21Z"/>
          <path class="cls-2" d="M194.54,104.44l-9.92,11.88h9.76l.38,2.5h-13.24l-.38-2.5,9.65-11.88h-8.56l-.38-2.53h12.31l.38,2.53h0Z"/>
          <path class="cls-2" d="M204.63,101.91l6.58,16.47-3.23,.43-1.52-3.97h-6.41l-1.49,3.97h-3.23l6.6-16.91h2.72Zm-1.44,4.43l-2.23,5.9h4.48l-2.26-5.9h0Z"/>
          <path class="cls-2" d="M219.6,118.81h-6.17v-16.91h6.17c2.64,0,4.59,.76,5.87,2.34,1.28,1.58,1.9,3.59,1.9,6.01,0,2.61-.68,4.7-2.04,6.22s-3.26,2.31-5.73,2.36v-.03Zm.14-14.21h-3.07v11.47h2.91c1.36,0,2.45-.46,3.26-1.33s1.22-2.39,1.22-4.51c0-1.77-.35-3.13-1.03-4.13-.71-1.01-1.79-1.49-3.29-1.49h0Z"/>
          <path class="cls-2" d="M230.26,110.09c0-2.61,.68-4.73,2.04-6.39,1.36-1.66,3.26-2.5,5.73-2.55,2.66,0,4.62,.84,5.9,2.55s1.93,3.78,1.93,6.2c0,2.61-.68,4.76-2.07,6.39-1.36,1.63-3.29,2.47-5.76,2.53-2.64,0-4.59-.84-5.87-2.55s-1.93-3.75-1.93-6.2l.03,.03Zm3.37,0c0,1.77,.35,3.23,1.06,4.35,.71,1.14,1.82,1.69,3.34,1.69,1.36,0,2.45-.52,3.26-1.52,.82-1.01,1.22-2.58,1.22-4.67,0-1.77-.35-3.21-1.06-4.32-.71-1.11-1.82-1.69-3.34-1.69-1.33,0-2.42,.54-3.23,1.66s-1.25,2.61-1.25,4.51h0Z"/>
          <path class="cls-2" d="M259.18,118.81l-3.59-6.47c-.19,0-.38,.03-.57,.03h-2.47v6.41h-3.21v-16.91h5.3c1.85,0,3.42,.43,4.73,1.28,1.3,.84,1.96,2.15,1.96,3.94,0,1.03-.27,1.96-.82,2.69-.54,.76-1.22,1.33-2.07,1.77l4.16,7.26h-3.42Zm-4.62-14.24h-1.98v5.16h2.04c.95,0,1.77-.19,2.39-.57,.63-.38,.95-1.03,.95-1.93,0-.95-.3-1.63-.9-2.04s-1.41-.63-2.5-.63h0Z"/>
          <path class="cls-2" d="M276.79,118.81h-11.85v-16.91h10.11l.49,2.53h-7.39v4.57h4.54l.52,2.55h-5.06v4.76h8.1l.52,2.5h.03Z"/>
          <path class="cls-2" d="M279.4,114.76c.52,.27,1.17,.54,1.96,.79,.79,.27,1.55,.41,2.26,.41,1.01,0,1.77-.16,2.28-.46s.76-.76,.76-1.36-.33-1.06-1.01-1.49c-.68-.43-1.41-.87-2.23-1.28-1.2-.63-2.34-1.33-3.42-2.17-1.09-.84-1.63-1.98-1.63-3.45,0-1.28,.52-2.36,1.52-3.23s2.42-1.3,4.29-1.3c.84,0,1.69,.14,2.53,.41s1.6,.54,2.23,.87l-1.06,2.58c-.52-.24-1.06-.49-1.66-.71-.6-.22-1.25-.33-1.98-.33s-1.3,.14-1.79,.43c-.49,.27-.73,.71-.73,1.3s.33,1.14,.95,1.58c.63,.41,1.39,.84,2.23,1.33,1.22,.63,2.36,1.33,3.48,2.17,1.11,.84,1.66,1.96,1.63,3.4,0,1.33-.57,2.45-1.63,3.34-1.09,.87-2.64,1.33-4.67,1.33-.71,0-1.63-.16-2.75-.46-1.11-.33-1.88-.63-2.26-.98l.73-2.61-.03-.11Z"/>
        </g>
      </g>
    </g>
  </g>
</svg>