<?xml version="1.0" encoding="UTF-8"?>
<svg id="Capa_2" data-name="Capa 2" xmlns="http://www.w3.org/2000/svg" viewBox="0 0 300 300">
  <defs>
    <style>
      .cls-1 {
        fill: none;
      }

      .cls-2 {
        fill: #ededed;
      }
    </style>
  </defs>
  <g id="Marco">
    <rect class="cls-1" width="300" height="300"/>
  </g>
  <g id="Capa_2-2" data-name="Capa 2">
    <g>
      <g>
        <path class="cls-2" d="M122.5,138.03c-2.92,1.62-5.93,2.7-8.46,4.79-6.76,5.6-9.59,14.45-9.69,24.53-.14,14.07,3.77,26.24,11.53,36.04,2.15,2.71,4.52,5.12,7.02,7.44-3.74-7.66-5.28-15.83-4.2-24.78,1.08-8.92,4.4-15.99,10.15-21.09-.56,1.12-1.13,2.22-1.67,3.36-2.73,5.82-3.39,11.87,.77,17.31,2.41,3.15,1.99,6.59,.05,10.66-.45,.94-1.08,1.71-1.59,2.61-2.11,3.71-2.13,10.9,.04,14.36,.46,.73,1.3,1.12,2.01,1.51,10.34,5.69,20.61,5.69,30.78-.73,.49-.31,.95-.7,1.41-1.09,.71-.59,1.4-1.21,2.18-1.88-4.95-3.59-5.8-10.13-7.08-16.38-.63-3.04-1.15-6.2-2.19-9-1.75-4.71-5.46-4.7-7.41-.12-.6,1.42-.87,3.1-1.26,4.67-.16,.63-.24,1.3-.48,1.91-1.22-7.76-.64-15.08,3.05-21.52,.88-1.54,2.08-2.91,3.33-3.91,2.53-2.02,5.13-1.35,6.52,2.09,1.48,3.67,2.52,7.67,3.5,11.64,.91,3.68,1.47,7.52,2.26,11.26,.21,.96,.66,1.87,1.12,2.69,1.06,1.9,2.32,3.68,4.29,3.3,2.12-.41,3.66-2.16,4.31-4.87,1.74-7.23,2.37-14.57,1.3-22.13-1.78-12.62-7.02-22.78-13.34-31.96-6.57-9.53-13.69-18.39-20.39-27.76-4.86-6.79-9.05-14.27-11.06-23.45-1.66-7.57-1.59-15.28-.62-22.97,.51-4.04,1.31-8.02,1.98-12.03,.15,0,.3,0,.45,.01,.24,1.95,.45,3.9,.71,5.84,.85,6.35,2.57,12.25,5.45,17.48,1.48,2.68,3.33,4.64,5.88,5.6,5.91,2.21,9.1,7.81,9.98,15.61,.38,3.34-.04,6.83,.21,10.21,.18,2.36,.39,5.16,1.43,6.88,3.03,5.02,6.38,9.75,9.81,14.31,5.94,7.91,11.24,16.41,14.58,26.76,4.11,12.75,4.93,25.92,1.94,39.21-3.56,15.79-11.19,27.03-23.03,32.51-13.88,6.42-27.01,3.53-39.34-6.78-7.22-6.04-12.66-14.24-16.48-24.21-2.45-6.39-3.7-13.36-4.3-20.56-.65-7.72-.06-15.19,2.44-22.15,3.68-10.25,10.02-15.32,18.61-15.37,1.13,0,2.27,.12,3.46,.2Z"/>
        <path class="cls-2" d="M189.81,206.28c.42-4.64,.9-9.28,1.25-13.93,.74-9.78,.96-19.54,.39-29.38-.64-11.2-2.18-22.13-5.35-32.47-2.51-8.2-5.51-16.26-9.07-23.75-7.53-15.86-17.56-28.86-28.33-40.89-4.34-4.86-8.39-10.09-11.31-16.63-2.74-6.14-4.49-12.73-4.16-19.92,.34-7.28,1.05-14.53,1.86-21.82,1.01,6.14,2.79,11.66,6.18,16.01,1.8,2.31,3.71,4.7,5.89,6.23,6.4,4.5,7.93,11.78,7.4,20.51-.14,2.39-.24,4.78-.32,7.17-.1,2.93,.94,5.19,2.49,7.12,4.69,5.84,9.47,11.56,14.07,17.53,7.8,10.13,14.9,21.02,20.12,33.88,4.8,11.81,7.95,24.36,9.75,37.49,.77,5.56,1.2,11.22,1.5,16.85,.55,10.58-2.65,19.71-6.82,28.32-1.41,2.9-3.3,5.39-4.97,8.07-.19-.13-.39-.27-.58-.4Z"/>
        <path class="cls-2" d="M147.31,247.98c-3.05,.04-5.39-2.24-5.4-5.25,0-2.88,2.2-5.21,4.98-5.26,2.92-.05,5.56,2.46,5.53,5.26-.03,2.74-2.44,5.22-5.11,5.25Z"/>
      </g>
      <g>
        <g>
          <path class="cls-2" d="M124.75,262.3c-.59-.25-1.17-.45-1.74-.61s-1.37-.24-2.39-.24c-2.03,.02-3.64,.83-4.84,2.43-1.2,1.6-1.79,3.77-1.79,6.51,0,2.32,.51,4.36,1.54,6.12,1.03,1.77,2.64,2.65,4.84,2.65,1.03,0,1.87-.09,2.52-.26,.66-.17,1.24-.37,1.75-.6l.68,1.02c-.53,.29-1.26,.53-2.19,.74-.93,.21-1.8,.31-2.62,.31-2.96,0-5.05-1-6.26-3-1.21-2-1.82-4.32-1.82-6.96,0-2.83,.68-5.23,2.04-7.22,1.36-1.98,3.43-2.97,6.22-2.97,.59,0,1.38,.09,2.36,.26,.99,.17,1.75,.44,2.28,.8l-.57,1.02Z"/>
          <path class="cls-2" d="M135.27,260.22l7.68,19.83-1.48,.33-2.4-6.31h-8.75l-2.28,6.31h-1.45l7.32-20.16h1.36Zm-.65,1.96l-3.88,10.73h7.92l-4.03-10.73Z"/>
          <path class="cls-2" d="M144.46,280.38v-20.16h6.05c3.1,0,5.3,.97,6.6,2.92,1.3,1.95,1.94,4.29,1.94,7.04s-.7,5.21-2.1,7.2c-1.4,2-3.58,2.99-6.52,2.99h-5.96Zm6.28-19h-4.83v17.85h4.54c2.11,0,3.82-.85,5.13-2.56,1.31-1.71,1.96-3.86,1.96-6.45,0-2.39-.56-4.46-1.67-6.21-1.12-1.75-2.82-2.62-5.11-2.62Z"/>
          <path class="cls-2" d="M160.57,280.38v-20.16h4.83c2.09,0,3.83,.47,5.2,1.39,1.37,.93,2.06,2.49,2.06,4.68s-.74,3.76-2.22,4.76c-1.48,1-3.27,1.5-5.37,1.5h-3.05v7.83h-1.45Zm5.19-18.97h-3.74v9.99h3.41c1.58,0,2.94-.43,4.06-1.27,1.13-.85,1.69-2.11,1.69-3.8s-.5-2.99-1.5-3.76c-1-.77-2.31-1.16-3.93-1.16Z"/>
          <path class="cls-2" d="M179.9,260.22l7.68,19.83-1.48,.33-2.4-6.31h-8.75l-2.28,6.31h-1.45l7.32-20.16h1.36Zm-.65,1.96l-3.88,10.73h7.92l-4.03-10.73Z"/>
        </g>
        <g>
          <path class="cls-2" d="M115.86,286.28l2.42,6.06-1.19,.16-.56-1.46h-2.36l-.55,1.46h-1.19l2.43-6.22h1.01Zm-.53,1.63l-.82,2.17h1.65l-.83-2.17Z"/>
          <path class="cls-2" d="M122.71,292.5l-1.32-2.38c-.07,0-.14,.01-.21,.01s-.15,0-.22,0h-.69v2.36h-1.18v-6.22h1.95c.68,0,1.26,.16,1.74,.47,.48,.31,.72,.79,.72,1.45,0,.38-.1,.72-.3,.99-.2,.28-.45,.49-.76,.65l1.53,2.67h-1.26Zm-1.7-5.24h-.73v1.9h.75c.35,0,.65-.07,.88-.21s.35-.38,.35-.71c0-.35-.11-.6-.33-.75-.22-.15-.52-.23-.92-.23Z"/>
          <path class="cls-2" d="M127.51,290.61l-1.49-1.91v3.8h-1.18v-6.22h.75l2.11,2.87,1.91-2.87h.72v6.22h-1.2v-3.59l-1.16,1.64-.46,.06Z"/>
          <path class="cls-2" d="M131.61,289.29c0-.96,.25-1.74,.75-2.35,.5-.61,1.2-.92,2.11-.94,.98,0,1.7,.31,2.17,.94,.47,.63,.7,1.39,.7,2.28,0,.96-.25,1.75-.76,2.35-.5,.6-1.21,.91-2.12,.93-.97,0-1.69-.31-2.16-.94-.47-.63-.7-1.38-.7-2.28Zm1.24,0c0,.65,.13,1.19,.39,1.6,.26,.42,.67,.62,1.23,.62,.5,0,.9-.19,1.2-.56,.3-.37,.45-.95,.45-1.72,0-.65-.13-1.18-.39-1.59-.26-.41-.67-.62-1.23-.62-.49,0-.88,.2-1.19,.61s-.46,.96-.46,1.66Z"/>
          <path class="cls-2" d="M143.89,286.28v6.22h-1.19l-2.88-4.16v4.16h-1.18v-6.22h1.18l2.88,4.16v-4.16h1.19Z"/>
          <path class="cls-2" d="M146.61,286.28v6.22h-1.18v-6.22h1.18Z"/>
          <path class="cls-2" d="M152.46,287.21l-3.65,4.37h3.59l.14,.92h-4.87l-.14-.92,3.55-4.37h-3.15l-.14-.93h4.53l.14,.93Z"/>
          <path class="cls-2" d="M156.17,286.28l2.42,6.06-1.19,.16-.56-1.46h-2.36l-.55,1.46h-1.19l2.43-6.22h1.01Zm-.53,1.63l-.82,2.17h1.65l-.83-2.17Z"/>
          <path class="cls-2" d="M161.68,292.5h0s-2.27,0-2.27,0v-6.22h2.27c.97,0,1.69,.28,2.16,.86,.47,.58,.7,1.32,.7,2.21,0,.96-.25,1.73-.75,2.29-.5,.56-1.2,.85-2.11,.87Zm.05-5.23h-1.13v4.22h1.07c.5,0,.9-.17,1.2-.49s.45-.88,.45-1.66c0-.65-.13-1.15-.38-1.52-.26-.37-.66-.55-1.21-.55Z"/>
          <path class="cls-2" d="M165.6,289.29c0-.96,.25-1.74,.75-2.35s1.2-.92,2.11-.94c.98,0,1.7,.31,2.17,.94,.47,.63,.71,1.39,.71,2.28,0,.96-.25,1.75-.76,2.35-.5,.6-1.21,.91-2.12,.93-.97,0-1.69-.31-2.16-.94-.47-.63-.71-1.38-.71-2.28Zm1.24,0c0,.65,.13,1.19,.39,1.6,.26,.42,.67,.62,1.23,.62,.5,0,.9-.19,1.2-.56,.3-.37,.45-.95,.45-1.72,0-.65-.13-1.18-.39-1.59-.26-.41-.67-.62-1.23-.62-.49,0-.89,.2-1.19,.61s-.46,.96-.46,1.66Z"/>
          <path class="cls-2" d="M176.24,292.5l-1.32-2.38c-.07,0-.14,.01-.21,.01-.07,0-.15,0-.22,0h-.69v2.36h-1.18v-6.22h1.95c.68,0,1.26,.16,1.74,.47,.48,.31,.72,.79,.72,1.45,0,.38-.1,.72-.3,.99-.2,.28-.45,.49-.76,.65l1.53,2.67h-1.26Zm-1.7-5.24h-.73v1.9h.75c.35,0,.65-.07,.88-.21,.23-.14,.35-.38,.35-.71,0-.35-.11-.6-.33-.75-.22-.15-.52-.23-.92-.23Z"/>
          <path class="cls-2" d="M182.72,292.5h-4.36v-6.22h3.72l.18,.93h-2.72v1.68h1.67l.19,.94h-1.86v1.75h2.98l.19,.92Z"/>
          <path class="cls-2" d="M183.68,291.01c.19,.1,.43,.2,.72,.29,.29,.1,.57,.15,.83,.15,.37,0,.65-.06,.84-.17s.28-.28,.28-.5c0-.21-.12-.39-.37-.55-.25-.16-.52-.32-.82-.47-.44-.23-.86-.49-1.26-.8-.4-.31-.6-.73-.6-1.27,0-.47,.19-.87,.56-1.19,.37-.32,.89-.48,1.58-.48,.31,0,.62,.05,.93,.15,.31,.1,.59,.2,.82,.32l-.39,.95c-.19-.09-.39-.18-.61-.26-.22-.08-.46-.12-.73-.12s-.48,.05-.66,.16c-.18,.1-.27,.26-.27,.48,0,.23,.12,.42,.35,.58,.23,.15,.51,.31,.82,.49,.45,.23,.87,.49,1.28,.8,.41,.31,.61,.72,.6,1.25,0,.49-.21,.9-.6,1.23-.4,.32-.97,.49-1.72,.49-.26,0-.6-.06-1.01-.17-.41-.12-.69-.23-.83-.36l.27-.96Z"/>
        </g>
      </g>
    </g>
  </g>
</svg>