<?xml version="1.0" encoding="UTF-8"?>
<svg id="Capa_2" data-name="Capa 2" xmlns="http://www.w3.org/2000/svg" viewBox="0 0 300 300">
  <defs>
    <style>
      .cls-1 {
        fill: none;
      }

      .cls-2 {
        fill: #ededed;
      }
    </style>
  </defs>
  <g id="Marco">
    <rect class="cls-1" width="300" height="300"/>
  </g>
  <g id="Capa_2-2" data-name="Capa 2">
    <g id="Capa_2-3" data-name="Capa 2">
      <g id="Capa_1-2" data-name="Capa 1-2">
        <path class="cls-2" d="M66.96,138.32c3.25-2.93,3.51-7.93,.58-11.18-2.93-3.25-7.93-3.51-11.18-.58-3.25,2.93-3.51,7.93-.58,11.18,.18,.2,.38,.4,.58,.58-4.58,2.08-7.52,6.65-7.52,11.68v1.9h1.92c1.5,0,3.15,.57,4.88,1.18,1.96,.69,3.99,1.4,6.16,1.4s4.11-.71,6.03-1.4c1.68-.6,3.27-1.17,4.73-1.17h1.92v-1.92c0-5.03-2.95-9.58-7.52-11.66Zm-5.3-9.94c2.25,0,4.07,1.82,4.07,4.07s-1.82,4.07-4.07,4.07-4.07-1.82-4.07-4.07c0,0,0,0,0,0,0-2.24,1.83-4.06,4.07-4.06h0Zm4.87,21.09c-1.68,.6-3.27,1.17-4.73,1.17s-3.15-.57-4.89-1.18c-1.32-.5-2.68-.9-4.06-1.2,.98-4.86,5.72-8.01,10.59-7.03,3.54,.72,6.31,3.48,7.03,7.03-1.34,.3-2.66,.7-3.94,1.2h0Z"/>
        <path class="cls-2" d="M64.73,100.23H29.31L10,190.64l19.62-10.75,35.12-.03c21.95,0,39.82-17.86,39.82-39.82s-17.88-39.82-39.82-39.82Zm0,72.15l-37.03,.03-6.97,3.81,14.63-68.5h29.35c17.86,0,32.33,14.47,32.33,32.33s-14.47,32.33-32.33,32.33h.01Z"/>
        <rect class="cls-2" x="110.47" y="132.47" width="8.09" height="46.53"/>
        <path class="cls-2" d="M114.53,118.38c-1.07,0-2.09,.42-2.84,1.18-1.57,1.51-1.62,4.01-.11,5.58,.04,.04,.07,.07,.11,.11,1.51,1.57,4.01,1.62,5.58,.11,.04-.04,.07-.07,.11-.11,1.58-1.57,1.59-4.12,.02-5.7-.76-.77-1.81-1.2-2.89-1.19l.02,.02Z"/>
        <path class="cls-2" d="M157.89,133.02c-2.97-1.04-6.1-1.57-9.26-1.57-4.52,0-8.6,1.05-12.24,3.14-3.6,2.05-6.58,5.01-8.65,8.6-2.12,3.64-3.19,7.82-3.19,12.54s1.06,8.82,3.19,12.49c2.06,3.61,5.05,6.6,8.65,8.65,3.64,2.09,7.72,3.14,12.24,3.14,3.15,0,6.28-.53,9.26-1.57,3-1.05,5.3-2.51,6.93-4.4v-10.11c-.67,1.48-1.82,2.88-3.44,4.19-1.71,1.37-3.64,2.43-5.71,3.14-2.26,.79-4.64,1.18-7.03,1.17-2.86,.05-5.69-.71-8.14-2.18-2.38-1.43-4.34-3.47-5.67-5.92-1.38-2.5-2.07-5.36-2.07-8.6s.69-6.12,2.07-8.65c1.31-2.45,3.27-4.5,5.67-5.92,2.47-1.44,5.28-2.17,8.14-2.13,2.39-.02,4.77,.38,7.03,1.17,2.06,.71,3.99,1.75,5.71,3.09,1.62,1.28,2.76,2.7,3.44,4.25v-10.11c-1.62-1.89-3.93-3.35-6.93-4.4Z"/>
        <path class="cls-2" d="M201.71,133.12c-2.73-1.11-5.92-1.67-9.56-1.67-4.32,0-8.01,.64-11.08,1.92s-5.49,2.57-7.24,3.86l3.94,5.97c.98-.69,1.99-1.33,3.03-1.92,1.48-.83,3.06-1.49,4.7-1.95,2.03-.56,4.12-.83,6.22-.81,1.36,0,2.72,.13,4.05,.4,1.2,.24,2.34,.68,3.39,1.31,.97,.6,1.76,1.46,2.28,2.48,.54,1.04,.81,2.38,.81,4v6.72c-1.5-.93-3.11-1.67-4.79-2.22-2.26-.78-5.08-1.16-8.45-1.16-5.73,0-10.2,1.36-13.4,4.09-3.2,2.73-4.81,6.35-4.81,10.88,0,3.17,.74,5.87,2.23,8.09,1.47,2.21,3.52,3.98,5.92,5.11,2.48,1.18,5.2,1.79,7.94,1.77,2.64-.02,5.26-.49,7.74-1.42,2.52-.89,4.78-2.38,6.59-4.35,.39-.43,.75-.9,1.06-1.39v6.14h8.09v-33.36c0-3.03-.76-5.6-2.28-7.69-1.52-2.09-3.64-3.7-6.38-4.81Zm.56,27.67c.04,2.27-.57,4.5-1.78,6.42-1.16,1.84-2.81,3.33-4.75,4.3-2.09,1.03-4.4,1.55-6.73,1.52-1.78,.03-3.56-.29-5.21-.96-1.44-.58-2.68-1.58-3.54-2.88-.87-1.36-1.31-2.94-1.26-4.55-.05-1.54,.37-3.05,1.2-4.35,.81-1.22,2.04-2.16,3.69-2.83,1.65-.67,3.79-1.01,6.42-1.01,2.7-.02,5.39,.34,7.99,1.06,1.36,.39,2.68,.9,3.94,1.53l.02,1.76Z"/>
        <path class="cls-2" d="M238.96,132.11c-1.53-.45-3.11-.67-4.71-.66-2.16,0-4.29,.84-6.37,2.53-1.33,1.09-2.49,2.38-3.43,3.82v-5.33h-8.09v46.53h8.09v-28.33c-.02-2.01,.2-4.01,.66-5.97,.44-1.75,1.23-3.13,2.38-4.15,1.15-1.01,2.73-1.52,4.75-1.53,1.14-.04,2.27,.15,3.34,.56,1.05,.47,2.03,1.07,2.94,1.77l4.45-6.68c-1.08-1.19-2.46-2.08-4-2.57Z"/>
        <path class="cls-2" d="M281.91,100.09v40.41c-1.41-2.44-3.34-4.53-5.66-6.12-2.9-1.95-6.31-2.93-10.22-2.93-4.03-.04-8.01,.97-11.53,2.93-3.51,1.96-6.41,4.85-8.39,8.35-2.09,3.61-3.14,7.94-3.14,13s1.05,9.31,3.14,12.95c1.97,3.52,4.87,6.42,8.39,8.39,3.52,1.96,7.5,2.97,11.53,2.94,3.91,0,7.32-.98,10.22-2.94,2.33-1.6,4.27-3.7,5.66-6.15v8.09h8.09V100.09h-8.09Zm-2.23,64.74c-1.35,2.36-3.3,4.31-5.66,5.66-2.12,1.23-4.53,1.9-6.98,1.92-2.75,.02-5.46-.64-7.89-1.92-2.44-1.29-4.46-3.26-5.82-5.66-1.45-2.49-2.18-5.53-2.17-9.11,0-3.58,.73-6.61,2.17-9.11,1.36-2.41,3.38-4.37,5.82-5.66,2.43-1.29,5.14-1.95,7.89-1.93,2.45,.03,4.86,.69,6.98,1.92,2.36,1.35,4.31,3.3,5.66,5.66,1.48,2.49,2.23,5.53,2.23,9.11,0,3.58-.74,6.61-2.23,9.11Z"/>
        <path class="cls-2" d="M177.5,190.99c-.28-.26-.59-.48-.93-.66-.31-.16-.63-.3-.95-.42-.54-.17-1.07-.41-1.56-.69-.33-.18-.61-.43-.82-.74-.16-.26-.24-.56-.24-.87,0-.37,.16-.73,.42-.99,.37-.32,.85-.48,1.34-.44,.39-.01,.78,.08,1.12,.26,.3,.17,.57,.4,.78,.66,.21,.25,.39,.53,.53,.82l1.18-.68c-.19-.42-.45-.8-.76-1.14-.33-.37-.73-.68-1.17-.9-.5-.24-1.05-.36-1.61-.35-.59-.01-1.17,.12-1.7,.38-.48,.23-.88,.6-1.17,1.04-.28,.45-.43,.97-.42,1.5-.01,.45,.09,.91,.3,1.31,.19,.35,.45,.65,.77,.9,.31,.24,.64,.44,.99,.6,.34,.16,.66,.28,.94,.38,.42,.14,.82,.32,1.22,.51,.36,.17,.68,.42,.93,.74,.25,.35,.37,.77,.35,1.2,.01,.49-.19,.95-.55,1.28-.4,.35-.92,.52-1.46,.5-.42,0-.83-.1-1.2-.3-.37-.21-.7-.48-.96-.81-.31-.38-.58-.78-.82-1.2l-1.1,.74c.26,.51,.58,.98,.96,1.4,.39,.43,.85,.79,1.37,1.05,.93,.46,2.02,.52,3,.17,.41-.13,.79-.34,1.13-.61,.33-.28,.59-.63,.78-1.02,.19-.42,.29-.88,.28-1.34,.01-.46-.08-.92-.28-1.33-.18-.36-.42-.68-.71-.96Z"/>
        <path class="cls-2" d="M184.15,189.08c-.41-.22-.88-.34-1.35-.32-.49,0-.96,.13-1.37,.4-.35,.25-.64,.57-.85,.95v-6.36h-1.29v12.61h1.29v-4.53c0-.33,.07-.66,.23-.96,.15-.28,.38-.51,.66-.66,.3-.17,.65-.25,.99-.24,.45-.04,.89,.14,1.2,.47,.29,.4,.43,.89,.4,1.39v4.53h1.29v-4.69c.02-.56-.09-1.11-.31-1.62-.19-.41-.5-.75-.9-.97Z"/>
        <path class="cls-2" d="M191.1,189.02c-.49-.19-1.01-.28-1.53-.27-.6-.02-1.21,.08-1.77,.3-.41,.16-.8,.37-1.16,.61l.63,.95c.12-.08,.28-.19,.49-.3,.24-.13,.49-.23,.75-.3,.32-.09,.66-.13,.99-.13,.22,0,.43,.02,.65,.07,.19,.04,.38,.11,.54,.21,.16,.1,.28,.23,.36,.4,.09,.2,.14,.42,.13,.64v1.08c-.24-.15-.5-.27-.77-.36-.44-.13-.89-.2-1.35-.19-.77-.05-1.53,.19-2.14,.66-.51,.43-.79,1.07-.77,1.74-.03,.9,.48,1.72,1.3,2.1,.4,.19,.83,.3,1.27,.3,.42,0,.84-.08,1.24-.23,.4-.14,.76-.38,1.05-.69,.06-.07,.12-.14,.17-.22v.98h1.29v-5.34c.01-.44-.11-.87-.36-1.23-.26-.35-.61-.61-1.02-.77Zm-.19,5.45c-.19,.29-.45,.53-.76,.69-.33,.17-.7,.25-1.08,.24-.29,0-.57-.05-.83-.16-.23-.09-.43-.25-.56-.46-.14-.22-.21-.47-.2-.72,0-.25,.06-.49,.19-.7,.15-.21,.36-.37,.6-.45,.33-.12,.68-.17,1.03-.16,.43,0,.86,.05,1.28,.17,.22,.06,.43,.14,.63,.25v.28c0,.36-.1,.72-.29,1.03Z"/>
        <path class="cls-2" d="M196.4,188.75c-.38,.01-.74,.16-1.02,.4-.21,.18-.4,.39-.55,.62v-.86h-1.29v7.44h1.29v-4.53c0-.32,.03-.64,.1-.96,.05-.26,.19-.49,.38-.66,.21-.17,.48-.26,.76-.24,.18,0,.37,.02,.54,.09,.17,.08,.32,.17,.47,.28l.71-1.07c-.17-.19-.4-.33-.64-.41-.24-.07-.5-.11-.75-.1Z"/>
        <path class="cls-2" d="M203.31,189.21c-.57-.32-1.23-.48-1.88-.46-.68-.01-1.34,.15-1.93,.49-.55,.32-1,.79-1.29,1.36-.32,.63-.48,1.33-.46,2.04-.01,.7,.14,1.39,.45,2.02,.28,.56,.71,1.04,1.24,1.37,.55,.33,1.19,.51,1.84,.49,.72,.02,1.44-.15,2.08-.48,.6-.33,1.11-.82,1.46-1.42l-1.05-.66c-.23,.42-.57,.77-.99,1.01-.41,.23-.87,.34-1.34,.33-.45,.01-.9-.1-1.29-.32-.36-.22-.64-.55-.81-.94-.15-.34-.23-.71-.26-1.08h5.85v-.39c.02-.7-.13-1.4-.42-2.04-.26-.55-.67-1.01-1.19-1.32Zm-3.15,.99c.39-.22,.83-.33,1.27-.31,.38,0,.76,.09,1.1,.28,.31,.18,.56,.44,.74,.76,.15,.29,.24,.61,.25,.94h-4.4c.04-.26,.12-.51,.23-.75,.17-.38,.45-.69,.81-.91h0Z"/>
        <polygon class="cls-2" points="213.29 194.04 211.21 188.91 209.68 188.91 212.52 195.3 210.49 199.91 211.94 199.91 216.79 188.91 215.34 188.91 213.29 194.04"/>
        <path class="cls-2" d="M222.25,189.25c-1.22-.67-2.7-.67-3.92,0-.57,.33-1.05,.8-1.38,1.37-.68,1.25-.68,2.75,0,4,.33,.58,.81,1.05,1.38,1.38,1.22,.67,2.7,.67,3.92,0,.57-.33,1.05-.81,1.37-1.38,.68-1.25,.68-2.75,0-4-.33-.57-.8-1.04-1.37-1.37Zm.24,4.75c-.21,.39-.52,.72-.9,.95-.81,.46-1.8,.46-2.6,0-.38-.23-.69-.56-.9-.95-.23-.42-.34-.89-.33-1.37,0-.48,.11-.96,.33-1.38,.21-.39,.52-.72,.9-.95,.81-.45,1.79-.45,2.6,0,.38,.23,.69,.56,.9,.95,.22,.43,.34,.9,.33,1.38,0,.48-.1,.95-.33,1.37Z"/>
        <path class="cls-2" d="M229.78,193.44c0,.34-.07,.67-.23,.97-.15,.28-.38,.51-.66,.66-.31,.16-.65,.24-.99,.23-.45,.03-.88-.15-1.18-.49-.29-.4-.44-.88-.4-1.37v-4.53h-1.29v4.69c-.04,.77,.21,1.52,.69,2.12,.47,.53,1.15,.82,1.86,.79,.45,.01,.9-.1,1.29-.33,.39-.24,.71-.59,.92-.99v1.17h1.29v-7.44h-1.29v4.53Z"/>
        <path class="cls-2" d="M235.24,188.75c-.38,.01-.74,.16-1.02,.4-.21,.18-.4,.39-.55,.62v-.86h-1.29v7.44h1.29v-4.53c0-.32,.03-.64,.1-.96,.05-.26,.19-.49,.38-.66,.21-.17,.48-.26,.76-.24,.18,0,.36,.02,.53,.09,.17,.08,.32,.17,.47,.28l.71-1.07c-.17-.19-.39-.33-.64-.41-.24-.07-.5-.11-.75-.1Z"/>
        <path class="cls-2" d="M244.94,188.75c-.94-.03-1.8,.49-2.22,1.33v-1.17h-1.29v7.44h1.3v-4.53c0-.34,.07-.67,.24-.97,.15-.28,.38-.51,.66-.66,.31-.16,.65-.24,.99-.23,.44-.03,.88,.14,1.18,.47,.3,.4,.44,.89,.4,1.39v4.53h1.29v-4.69c.04-.77-.2-1.53-.69-2.13-.47-.53-1.16-.82-1.87-.78Z"/>
        <path class="cls-2" d="M253.72,189.21c-.57-.32-1.23-.48-1.88-.46-.68-.01-1.34,.15-1.93,.49-.55,.32-1,.79-1.29,1.36-.32,.63-.48,1.33-.46,2.04-.01,.7,.14,1.39,.45,2.02,.28,.56,.71,1.04,1.24,1.37,.55,.33,1.19,.51,1.84,.49,.72,.02,1.44-.15,2.08-.48,.6-.33,1.11-.82,1.46-1.42l-1.05-.66c-.23,.42-.57,.77-.99,1.01-.41,.23-.87,.34-1.34,.33-.45,.01-.9-.1-1.29-.32-.36-.22-.64-.55-.81-.94-.15-.34-.23-.71-.26-1.08h5.85v-.39c.02-.7-.13-1.4-.42-2.04-.26-.55-.67-1.01-1.19-1.32Zm-3.15,.99c.39-.22,.83-.33,1.27-.31,.38,0,.76,.09,1.1,.28,.31,.18,.56,.44,.74,.76,.15,.29,.24,.61,.25,.94h-4.4c.04-.26,.12-.51,.23-.75,.17-.38,.45-.69,.81-.91h0Z"/>
        <polygon class="cls-2" points="258.04 186.33 256.75 186.33 256.75 188.91 255.54 188.91 255.54 190.13 256.75 190.13 256.75 196.35 258.04 196.35 258.04 190.13 259.26 190.13 259.26 188.91 258.04 188.91 258.04 186.33"/>
        <polygon class="cls-2" points="267.37 193.78 265.2 188.35 263.18 193.75 261.32 188.91 259.87 188.91 263.1 196.92 265.22 191.5 267.46 196.92 270.7 188.91 269.24 188.91 267.37 193.78"/>
        <path class="cls-2" d="M276.46,189.25c-1.22-.67-2.7-.67-3.92,0-.57,.33-1.05,.8-1.38,1.37-.68,1.25-.68,2.75,0,4,.33,.58,.81,1.05,1.38,1.38,1.22,.67,2.7,.67,3.92,0,.57-.33,1.05-.81,1.37-1.38,.68-1.25,.68-2.75,0-4-.33-.57-.8-1.05-1.37-1.37Zm.24,4.75c-.21,.39-.52,.72-.9,.95-1.19,.72-2.73,.34-3.45-.85-.02-.03-.04-.06-.06-.1-.23-.42-.34-.89-.33-1.37,0-.48,.11-.96,.33-1.38,.21-.39,.52-.72,.9-.95,.81-.45,1.79-.45,2.6,0,.38,.23,.69,.56,.9,.95,.23,.43,.34,.9,.33,1.38,.01,.48-.1,.95-.33,1.37Z"/>
        <path class="cls-2" d="M282.09,188.75c-.38,.01-.74,.15-1.02,.4-.21,.18-.4,.39-.55,.62v-.86h-1.29v7.44h1.29v-4.53c0-.32,.03-.64,.11-.96,.05-.25,.19-.49,.38-.66,.21-.17,.49-.26,.76-.24,.18,0,.36,.02,.53,.09,.17,.08,.32,.17,.47,.28l.71-1.07c-.17-.19-.39-.33-.64-.41-.24-.07-.5-.11-.75-.1Z"/>
        <polygon class="cls-2" points="290 196.35 286.44 191.99 289.68 188.91 288.06 188.91 285.31 191.53 285.31 183.74 284.02 183.74 284.02 196.35 285.31 196.35 285.31 192.58 288.38 196.35 290 196.35"/>
      </g>
    </g>
  </g>
</svg>