<?xml version="1.0" encoding="UTF-8"?>
<svg id="Capa_2" data-name="Capa 2" xmlns="http://www.w3.org/2000/svg" viewBox="0 0 300 150">
  <defs>
    <style>
      .cls-1 {
        fill: none;
      }

      .cls-2, .cls-3 {
        fill: #ededed;
      }

      .cls-3 {
        fill-rule: evenodd;
      }
    </style>
  </defs>
  <g id="Capa_3" data-name="Capa 3">
    <rect class="cls-1" width="300" height="150"/>
  </g>
  <g id="Capa_2-2" data-name="Capa 2">
    <g>
      <g>
        <path class="cls-2" d="M182.94,94.79c-.03,1.13-.03,2.25-.11,3.38-.11,1.59-.25,3.17-.44,4.75-.07,.65-.27,1.29-.45,1.92-.31,1.08-.64,2.17-1,3.24-.62,1.82-1.49,3.52-2.49,5.16-.9,1.48-2.03,2.78-3.19,4.01-.92,.97-1.96,1.83-3.04,2.59-1.3,.9-2.66,1.71-4.05,2.43-2.65,1.37-5.43,2.25-8.31,2.58-1.6,.18-3.21,.17-4.81,.13-1.98-.04-3.95-.19-5.92-.32-.54-.03-1.06-.17-1.59-.23-1.18-.13-2.37-.21-3.55-.36-1.84-.23-3.69-.44-5.52-.76-1.89-.33-3.81-.49-5.73-.49-1.32,0-2.69,.06-4,.57-.1,.04-.2,.06-.3,.09-.36,.08-.51-.05-.43-.43,.12-.57,.29-1.12,.41-1.69,.22-1.04,.42-2.09,.6-3.13,.07-.37,.22-.59,.58-.57,1.1,.05,2.21,.07,3.31,.17,1.43,.13,2.86,.28,4.28,.5,2.39,.38,4.77,.83,7.15,1.22,1.27,.21,2.55,.38,3.83,.52,2.12,.23,4.24,.54,6.37,.6,2.98,.08,5.94-.21,8.89-1.09,3.01-.9,5.76-2.36,8.29-4.34,1.44-1.13,2.74-2.46,3.95-3.89,1.14-1.34,1.97-2.88,2.88-4.37,.37-.6,.66-1.24,.96-1.88,1.03-2.2,1.84-4.48,2.45-6.82,.27-1.05,.4-2.14,.6-3.21,.02-.11,.1-.22,.16-.32,.07,.02,.14,.03,.2,.05Z"/>
        <path class="cls-2" d="M138.69,103.91c-.18-.75-.41-1.48-.53-2.24-.16-1-.3-2.02-.32-3.04-.03-1.31,.04-2.64,.13-3.96,.05-.73-.03-1.33-.62-1.79-.49-.37-.47-.59-.25-1.21,.59-1.71,1.43-3.29,2.43-4.77,.82-1.21,1.67-2.43,2.65-3.49,2.42-2.6,5.23-4.56,8.44-5.8,2.4-.93,4.85-1.42,7.39-1.46,2.72-.05,5.28,.48,7.76,1.46,1.24,.49,2.44,1.06,3.5,1.91,.92,.73,1.92,1.38,2.77,2.19,.86,.81,1.64,1.73,2.34,2.7,.75,1.03,1.44,2.13,2,3.29,1.01,2.09,1.72,4.32,2.08,6.7,.37,2.42,.32,4.85-.03,7.29-.12,.88-.31,1.76-.5,2.63-.03,.15-.23,.35-.37,.38-.33,.06-.67,.05-1,.04-.45-.01-.75,.18-.93,.65-.88,2.32-2.18,4.38-3.78,6.23-.71,.82-1.48,1.59-2.28,2.3-.55,.49-1.21,.84-1.82,1.25-.03-.04-.05-.08-.08-.12,.73-.64,1.49-1.23,2.17-1.92,.61-.63,1.14-1.35,1.7-2.04,1.28-1.6,2.2-3.41,2.94-5.32,.63-1.62,.99-3.29,1.23-5.01,.2-1.47,.25-2.93,.13-4.38-.14-1.78-.51-3.51-1.11-5.16-.81-2.25-1.98-4.25-3.47-6.05-1.17-1.4-2.59-2.45-4.07-3.44-2.04-1.36-4.31-2.05-6.7-2.4-3.92-.59-7.67,.21-11.28,2.19-1.6,.88-3.05,1.97-4.38,3.29-2.22,2.19-3.87,4.78-4.99,7.72-.86,2.25-1.34,4.59-1.38,6.97-.02,1.16,.17,2.31,.26,3.47,.02,.3,.05,.61,.08,.91-.04,.01-.07,.02-.11,.03Z"/>
        <path class="cls-2" d="M142.36,102.11c.02-.58,.11-1.17,.06-1.75-.15-1.97,.24-3.88,.81-5.77,.73-2.44,1.97-4.59,3.63-6.46,1.28-1.44,2.78-2.62,4.46-3.5,1.91-1.01,3.91-1.6,5.99-1.82,.72-.08,1.46-.01,2.18,.04,1.8,.13,3.56,.42,5.14,1.31,.89,.5,1.72,1.13,2.53,1.77,.69,.54,1.37,1.11,1.95,1.77,1.2,1.38,2.11,2.98,2.79,4.73,.04,.1,.07,.2,.1,.3,.26,.74,.24,.72-.34,1.31-.19,.19-.33,.54-.33,.81,0,1.06,.1,2.11,.06,3.16-.04,1.08-.17,2.17-.35,3.24-.08,.47-.36,.92-.55,1.37-.03-.01-.07-.02-.1-.03,0-.09,0-.18,.03-.26,.38-.82,.28-1.7,.38-2.55,.22-1.85,.11-3.66-.39-5.43-.57-2.03-1.58-3.75-2.89-5.29-.9-1.06-2.02-1.8-3.19-2.49-1.52-.89-3.16-1.39-4.89-1.57-1.34-.14-2.7,.03-4.05,.38-1.2,.31-2.36,.72-3.45,1.38-1.42,.87-2.68,1.92-3.8,3.24-1.23,1.44-2.07,3.07-2.74,4.83-.52,1.36-.68,2.76-.77,4.18-.13,2.03,.15,3.99,.87,5.81,.44,1.13,1.11,2.16,1.76,3.18,.71,1.12,1.68,1.98,2.78,2.66,.78,.48,1.54,.99,2.3,1.49,.09,.06,.16,.13,.31,.25-.15,.03-.21,.06-.25,.05-1.02-.29-2.01-.64-2.85-1.35-.8-.68-1.69-1.27-2.38-2.05-1.36-1.54-2.47-3.3-3.25-5.28-.14-.35-.27-.61-.74-.44-.43,.16-.45-.29-.56-.58-.08-.22-.19-.44-.28-.66v.02Z"/>
        <path class="cls-2" d="M142.19,78.15c-.22,.24-.45,.46-.65,.71-.38,.46-.76,.93-1.13,1.39-.48,.59-.95,1.2-1.45,1.76-.91,1.03-1.49,2.26-2.12,3.47-1.22,2.35-2.05,4.86-2.79,7.4-.18,.63-.25,1.29-.33,1.94-.17,1.32-.4,2.64-.43,3.96-.04,1.72,.06,3.45,.14,5.16,.02,.49,.14,.97,.23,1.45,.08,.42-.02,.59-.41,.54-.55-.07-1.09-.16-1.62-.31-.14-.04-.29-.29-.32-.47-.31-2.33-.37-4.68-.33-7.05,.03-1.78,.43-3.5,.61-5.26,.11-1.03,.42-2.06,.69-3.07,.04-.16,.37-.38,.53-.36,.81,.12,1.16-.25,1.44-1.07,.63-1.82,1.6-3.47,2.83-4.94,.61-.74,1.18-1.53,1.79-2.27,.3-.37,.66-.69,1-1.03,.47-.48,.93-.97,1.42-1.43,.26-.24,.56-.42,.85-.63,.03,.03,.05,.07,.08,.1Z"/>
        <path class="cls-2" d="M156.92,107.52c-.3,.05-.61,.13-.9,.13-.36,0-.73-.04-1.07-.15-.35-.11-.69-.29-.99-.5-.08-.05-.07-.36,0-.51,.55-1.42,1.13-2.82,1.69-4.23,.01-.03,.02-.06,.03-.09,.3-.56,.57-1.09-.12-1.56-.22-.15-.24-.68-.46-.77-.21-.09-.57,.15-.85,.28-1.3,.58-2.6,1.16-3.89,1.78-.13,.06-.26,.42-.22,.57,.15,.46,.38,.87,.58,1.31,.02,.05,.03,.11,.09,.29-.19-.08-.33-.1-.4-.18-.63-.74-1.01-1.61-1.04-2.65,0-.11,.15-.3,.26-.33,1.17-.37,2.35-.73,3.53-1.08,.33-.1,.65-.22,.98-.3,.22-.05,.46-.1,.68-.07,.27,.03,.35-.11,.29-.31-.14-.43,.03-.79,.19-1.17,.12-.29,.12-.42-.23-.56-.53-.21-.98-.61-1.48-.89-.78-.45-1.56-.89-2.36-1.31-.33-.18-.61-.08-.78,.34-.17,.41-.38,.81-.57,1.21-.05-.02-.1-.03-.14-.05,.03-.21,.02-.45,.1-.64,.3-.7,.61-1.4,.97-2.07,.22-.4,.55-.2,.8,0,1.13,.87,2.27,1.72,3.36,2.64,.49,.42,.88,.83,1.5,.13,.15-.17,.52-.13,.65-.31,.08-.11-.12-.43-.16-.66-.25-1.44-.49-2.88-.75-4.31-.1-.56-.32-.69-.84-.53-.43,.14-.85,.33-1.34,.52,.33-.64,1.28-1.16,2.01-1.17,.16,0,.32,.02,.48,.02,.72-.02,.74,0,.77,.78,.06,1.28,.12,2.57,.17,3.85,.01,.41-.03,.82-.04,1.24,0,.09,.05,.23,.12,.25,.52,.2,1.05,.39,1.5,.55,.22-.32,.41-.62,.63-.91,.83-1.13,1.66-2.25,2.49-3.38,.18-.25,.12-.49-.09-.65-.23-.17-.49-.3-.74-.46-.13-.08-.24-.18-.34-.33,.59-.13,1.09,.09,1.49,.43,.39,.33,.66,.8,1,1.23-1.05,1.09-2.1,2.17-3.15,3.25-.31,.31-.66,.59-.95,.91-.09,.1-.13,.35-.09,.49,.12,.44,.28,.86,.44,1.28,.04,.1,.15,.24,.24,.24,.97,.05,1.94,.11,2.91,.11,.64,0,1.29-.06,1.92-.18,.16-.03,.37-.36,.42-.58,.08-.37,.06-.75,.08-1.13,.04-.01,.08-.03,.12-.04,.07,.21,.17,.42,.19,.64,.05,.71,.12,1.37-.29,2.1-.31,.55-.46,.31-.78,.24-.86-.17-1.74-.3-2.61-.42-.6-.08-1.22-.1-1.82-.19-.28-.04-.49,.03-.64,.3-.02,.03-.03,.05-.05,.08-.21,.34-.6,.7-.59,1.03,0,.36,.33,.72,.57,1.04,.69,.93,1.38,1.85,2.1,2.75,.46,.57,.69,.52,1.17-.09,.21-.26,.51-.45,.8-.63-.48,1.15-1.23,1.94-2.43,2.18-.53-.96-1.05-1.92-1.58-2.87-.26-.47-.54-.93-.79-1.41-.09-.16-.18-.37-.16-.55,.05-.39-.09-.41-.39-.35-.44,.1-.89,.13-1.33,.23-.11,.02-.27,.16-.3,.27-.43,1.59-.86,3.18-1.25,4.78-.04,.17,.13,.5,.28,.57,.35,.14,.75,.17,1.12,.24,.1,.02,.2,.06,.3,.09v.15Z"/>
        <path class="cls-2" d="M160.05,117.53c-.59,.09-1.17,.2-1.76,.27-2.54,.27-5.08,.23-7.61,.2-.44,0-.87-.06-1.3-.11-1.8-.21-3.62-.24-5.38-.68-1.57-.39-3.2-.55-4.77-.92-2.91-.68-5.72-1.68-8.44-2.93-.57-.26-.62-.23-.84,.42-.25,.73-.53,1.44-.79,2.17-.14,.4-.24,.81-.37,1.21-.06,.18-.15,.36-.25,.61-.2-.72-.09-1.3,.07-1.92,.36-1.36,.64-2.75,.95-4.13,.17-.74,.24-.73,.88-.46,2.15,.9,4.31,1.77,6.48,2.6,1.12,.43,2.26,.8,3.42,1.13,1.19,.34,2.4,.61,3.62,.87,1.39,.29,2.77,.59,4.18,.8,1.23,.19,2.47,.29,3.72,.37,1.87,.13,3.74,.23,5.62,.31,.73,.03,1.48-.03,2.22-.04,.13,0,.25,.03,.38,.04,0,.06,0,.12,0,.18Z"/>
        <path class="cls-2" d="M125.61,121.6c0-.71-.04-1.42,.01-2.13,.05-.66,.17-1.33,.29-1.99,.17-.91,.35-1.81,.55-2.71,.23-1.06,.48-2.11,.75-3.16,.1-.39,0-.54-.35-.61-.99-.19-1.98-.41-2.97-.61-.21-.04-.43-.09-.64-.1-.6-.03-.7,.08-.97,.67-.8,1.79-1.27,3.68-1.73,5.57-.19,.8-.25,1.63-.42,2.44-.12,.57-.33,1.13-.5,1.69l-.15-.02c.05-.38,.09-.75,.14-1.13,.11-.73,.22-1.47,.35-2.2,.19-1.09,.35-2.19,.59-3.28,.29-1.28,.64-2.55,.99-3.83,.21-.76,.45-1.5,.68-2.26,.11-.35,.34-.45,.65-.41,1.11,.14,2.21,.27,3.32,.41,.43,.06,.86,.13,1.29,.2,.39,.06,.46,.28,.32,.66-.12,.34-.21,.69-.25,1.06,.78-.42,.55-1.47,1.27-2.07-.02,.27,0,.44-.05,.58-.2,.61-.46,1.21-.62,1.83-.34,1.25-.64,2.52-.94,3.78-.26,1.1-.54,2.19-.74,3.3-.16,.9-.48,1.77-.46,2.71,.01,.53-.19,1.07-.29,1.61-.04,0-.07,0-.11,0Z"/>
        <path class="cls-2" d="M142.36,102.09c-.04,.23-.15,.49-.11,.7,.48,2.25,1.2,4.39,2.36,6.32,.36,.59,.93,1.01,1.35,1.56,.38,.5,.7,1.06,1.02,1.62,.08,.14,.06,.34,.11,.6-.21-.03-.35-.04-.48-.08-2.83-.88-5.66-1.79-8.49-2.65-2.02-.62-4.06-1.19-6.09-1.77-.17-.05-.35-.04-.51-.08-.14-.04-.27-.12-.4-.18,.08-.18,.12-.42,.25-.53,.38-.31,.81-.49,1.28-.37,.83,.22,1.66,.4,2.47,.69,2.99,1.05,5.96,2.14,8.95,3.21,.14,.05,.32,0,.49,0-.04-.18-.04-.39-.14-.52-1.24-1.73-1.92-3.73-2.28-5.88-.16-.95-.45-1.88-.26-2.88,.16,.09,.33,.17,.5,.26,0,0,0-.02,0-.02Z"/>
        <path class="cls-2" d="M168.16,74.4c-.38-.09-.75-.18-1.13-.27-1.08-.26-2.15-.6-3.24-.77-1.3-.2-2.62-.3-3.94-.36-2.51-.11-4.99,.32-7.43,1.1-2.53,.81-4.89,2.03-7.11,3.61-1.6,1.13-3.11,2.39-4.45,3.86-.59,.65-1.15,1.33-1.74,1.98-.1,.11-.29,.14-.43,.21-.04-.06-.09-.12-.13-.19,.48-.67,.92-1.39,1.46-2,.89-1.01,1.81-2,2.79-2.91,2.1-1.94,4.43-3.46,7-4.54,2.24-.94,4.54-1.56,6.91-1.71,1.03-.07,2.07-.1,3.1-.05,1.11,.05,2.22,.19,3.33,.32,.36,.04,.7,.18,1.05,.26,.45,.09,.91,.13,1.35,.25,.57,.16,1.12,.37,1.67,.58,.34,.13,.66,.32,.99,.48-.02,.05-.04,.1-.07,.15Z"/>
        <path class="cls-2" d="M162.76,87.92c1.87,1.11,3.54,2.43,4.67,4.47,1.02,1.85,1.58,3.81,1.57,5.99,0,.65-.02,1.3-.05,1.96-.03,.48-.18,.57-.6,.43-.93-.31-.91-.31-.84-1.36,.19-3.03-.6-5.68-2.55-7.79-.85-.92-1.81-1.72-2.96-2.22-.33-.14-.45-.35-.3-.72,.03-.07,.05-.15,.07-.23,.24-.89,.25-.89,1-.54Z"/>
        <path class="cls-2" d="M147.69,96.92c.65,.26,.68,.3,.51,1.01-.33,1.39-.16,2.74,.14,4.05,.33,1.44,.88,2.81,1.82,3.9,.77,.9,1.54,1.83,2.65,2.32,.55,.24,.57,.36,.37,1.02-.26,.88-.26,.97-1.07,.5-1.45-.85-2.64-2.01-3.61-3.41-.82-1.19-1.37-2.56-1.67-4.04-.31-1.53-.42-3.08-.17-4.66,.15-.93,.23-1,1.02-.68Z"/>
        <path class="cls-2" d="M166.89,104.1c.12,.05,.25,.09,.36,.16,.23,.13,.27,.29,.11,.57-.87,1.54-2.02,2.81-3.39,3.85-1.19,.9-2.48,1.57-3.9,1.95-1.15,.31-2.29,.33-3.45,.42-.36,.03-.47-.18-.41-.52,.05-.28,.11-.56,.21-.82,.05-.13,.21-.26,.34-.3,.16-.06,.35-.05,.52-.04,2.49,.06,4.65-.88,6.59-2.62,.72-.65,1.34-1.36,1.82-2.21q.42-.74,1.17-.43Z"/>
        <path class="cls-2" d="M148.79,93.59c-.6-.23-.62-.33-.26-.91,1.57-2.48,3.71-4.16,6.33-5.04,1.1-.37,2.28-.45,3.42-.65,.27-.05,.37,.15,.35,.39-.02,.29-.08,.59-.14,.88-.06,.29-.23,.41-.51,.41-2.08,.04-3.98,.76-5.69,2.11-.84,.67-1.63,1.38-2.18,2.36-.44,.77-.47,.76-1.32,.45Z"/>
      </g>
      <g>
        <path class="cls-3" d="M192.45,81.68c2.51,5.66,3.61,12.01,3.2,18.48l9.46,.09c.45-8.08-1.3-16.07-5.04-23.05l-7.61,4.48Z"/>
        <path class="cls-3" d="M183.6,69.55c3.56,3.13,6.36,6.91,8.37,11.09l7.54-4.43c-2.81-4.92-6.64-9.29-11.43-12.8l-4.49,6.14Z"/>
        <path class="cls-3" d="M169.97,62.18c3.14,.88,6.19,2.19,9.06,3.98,1.31,.82,2.55,1.71,3.71,2.67l4.43-6.06c-.56-.39-1.12-.76-1.71-1.12-4.44-2.76-9.22-4.6-14.13-5.55l-1.37,6.09Z"/>
        <path class="cls-3" d="M153.62,61.44c5.1-.88,10.28-.76,15.25,.46l1.35-6c-5.85-.98-11.85-.72-17.62,.67l1.02,4.88Z"/>
        <path class="cls-3" d="M139.22,66.83c4.18-2.5,8.68-4.25,13.27-5.18l-1-4.8c-5.11,1.37-10.03,3.64-14.49,6.75l2.22,3.23Z"/>
        <path class="cls-3" d="M127.87,76.53c3.05-3.63,6.56-6.68,10.35-9.09l-2.18-3.17c-3.96,2.9-7.53,6.48-10.53,10.67l2.35,1.58Z"/>
        <path class="cls-3" d="M117.59,99.45c.55-3.71,1.53-7.39,2.94-10.8l-1.64-.46c-1.16,3.68-1.86,7.46-2.07,11.26h.77Z"/>
        <path class="cls-3" d="M124.35,81.31c.87-1.35,1.79-2.64,2.77-3.86l-2.27-1.53c-.23,.34-.45,.68-.67,1.02-2.09,3.26-3.72,6.66-4.92,10.14l1.73,.49c.94-2.13,2.06-4.22,3.37-6.26"/>
        <path class="cls-3" d="M114.79,99.43c1.44-25.73,23.28-46.4,48.78-46.17,25.5,.23,45.01,21.27,43.56,47l3.62,.03c2.09-37.23-31.38-77.07-74.71-75.23,3.79,.82,6.58,2.22,8.51,3.77,6.4,5.16,3.24,12.06-4.35,5.35-2.26-2-4.35-3.52-6.28-4.65-16.55-9.69-22.08,9.33-36.05,2.68,4.44,5.05,10.44,4.55,16.38,3.07,.89-.22,1.79-.47,2.67-.72,10.59-3,11.6,5.73,2.16,6.55-3.77,.32-8.55-.44-13.47-1.19-11.49-1.73-23.7-3.33-25.35,9.39,4.05-8.59,10.19-7.12,18.03-4.18,9.04,3.39,20.33,8.73,33.26,2.82,11.13-5.08,12.58,4.12,2.93,6.44-4.21,1.01-9.8,1.45-12.43,1.43-8.71-1.5-17.86,1.53-17.86,1.53,10.72,1.13,6.25,4.86,3.98,5.45-7.91,2.04-18.62,1.26-25.74-.19-2.75-.56-4.97-1.22-6.29-1.86,1.35,1.65,3,2.99,4.87,4.1,11.34,6.75,30.4,4.73,34.1,7.57,3.39,2.6-.94,5.77-5.24,4.92-2.21-.43-4.5-1.44-7.04-2.1-4.48-1.17-10.35-1.25-16.87,2.39,3.39-.25,12.67,.26,13,4.62,.32,4.22-5.77,7.3-23.68-5.83-.6-.44-1.22-.9-1.85-1.38-19.35-14.71-30.56-1.69-30.56-1.69,11.76-4.05,13.64,3.67,8.24,7.16-6.63,4.29-22.8,7.94-32.94,.29-.54-.41-1.07-.85-1.58-1.33,.29,.47,.59,.92,.9,1.35,12.48,17.55,37.39,7.68,50.52,6.75,1.42-.1,2.71,.02,3.84,.3,10.16,2.52,4.94,12.86-5.98,7.57,1.31,3.37,4.75,3.58,7.22,3.61l41.7,.38Z"/>
        <path class="cls-3" d="M40.18,74.58c-5.36-6.35-8.91,3.72-13.95,.08,4.93,7.91,7.78-2.43,13.95-.08"/>
        <path class="cls-3" d="M88.27,50.53c1,9.44,7.9,1.1,12.36,5.93-2.05-8.17-9.46-.39-12.36-5.93"/>
        <path class="cls-3" d="M91.19,29.78c5.77-4.46,11.11,4.96,17-2.24-7.29,3.36-11.78-6.45-17,2.24"/>
      </g>
      <g>
        <polygon class="cls-2" points="9.77 121.49 28.48 121.66 30.54 116.49 16.68 116.36 20.49 106.77 34.35 106.9 36.41 101.73 17.7 101.56 9.77 121.49"/>
        <polygon class="cls-2" points="45.64 101.81 30.23 121.68 35.68 121.72 44.53 110.15 44.31 116.62 41.28 116.59 39.22 121.76 49.6 121.85 50.05 101.85 45.64 101.81"/>
        <polygon class="cls-2" points="64.13 101.98 59.28 101.93 51.35 121.87 70.06 122.04 72.12 116.87 58.26 116.74 64.13 101.98"/>
        <polygon class="cls-2" points="72.14 122.05 90.85 122.22 92.91 117.05 79.05 116.93 82.87 107.34 96.73 107.46 98.78 102.29 80.07 102.12 72.14 122.05"/>
        <path class="cls-2" d="M100.86,102.31l-7.93,19.93,18.71,.17,7.93-19.93-18.71-.17Zm-1.02,14.81l3.82-9.59,9.01,.08-3.82,9.59-9.01-.08Z"/>
      </g>
      <g>
        <path class="cls-2" d="M195.62,107.77l-7.59,14.04-5.31-.05,7.59-14.04-5.31-.05,3.03-5.62,15.93,.14-3.03,5.62-5.31-.05Z"/>
        <path class="cls-2" d="M205.29,102.22l5.31,.05-7.59,14.04,5.31,.05,7.59-14.04,5.31,.05-10.62,19.66-15.93-.14,10.62-19.66Z"/>
        <path class="cls-2" d="M238.47,102.52l-6.83,12.64-3-.03,.03,7.06-6.13-.06-.03-7.06h-1.49s-3.79,7.01-3.79,7.01l-5.31-.05,10.62-19.66,15.93,.14Zm-8.34,5.57l-5.31-.05-.75,1.4,5.31,.05,.75-1.4Z"/>
        <path class="cls-2" d="M255.72,102.67l-10.62,19.66-15.93-.14,10.62-19.66,15.93,.14Zm-12.14,12.59l-5.31-.05-.75,1.4,5.31,.05,.75-1.4Zm3.8-7.02l-5.31-.05-.75,1.4,5.31,.05,.75-1.4Z"/>
        <path class="cls-2" d="M257.05,102.68l15.93,.14-10.62,19.66-15.93-.14,10.62-19.66Zm2.28,5.66l-4.56,8.42,5.31,.05,4.56-8.42-5.31-.05Z"/>
        <path class="cls-2" d="M290.23,102.98l-3.03,5.62-10.62-.1-.75,1.4,10.62,.1-6.83,12.64-15.93-.14,3.03-5.62,10.62,.1,.75-1.4-10.62-.1,6.83-12.64,15.93,.14Z"/>
      </g>
    </g>
  </g>
</svg>