<?xml version="1.0" encoding="UTF-8"?>
<svg id="Capa_2" data-name="Capa 2" xmlns="http://www.w3.org/2000/svg" viewBox="0 0 300 150">
  <defs>
    <style>
      .cls-1 {
        fill: none;
      }

      .cls-2 {
        fill: #ededed;
      }
    </style>
  </defs>
  <g id="Capa_3" data-name="Capa 3">
    <rect class="cls-1" width="300" height="150"/>
    <g>
      <path class="cls-2" d="M288.95,67.21h-3.16v-3.16c0-.58-.47-1.05-1.05-1.05h-3.16v-3.16c0-.58-.47-1.05-1.05-1.05h-4.22c-.58,0-1.05,.47-1.05,1.05v4.22c0,.58,.47,1.05,1.05,1.05h3.16v3.16c0,.58,.47,1.05,1.05,1.05h3.16v2.11h-3.16c-.58,0-1.05,.47-1.05,1.05v3.16h-3.16c-.58,0-1.05,.47-1.05,1.05v4.22c0,.58,.47,1.05,1.05,1.05h4.22c.58,0,1.05-.47,1.05-1.05v-3.16h3.16c.58,0,1.05-.47,1.05-1.05v-3.16h3.16c.58,0,1.05-.47,1.05-1.05v-4.22c0-.58-.47-1.05-1.05-1.05Zm-11.6-6.33h2.11v2.11h-2.11v-2.11Zm4.22,4.22h2.11v2.11h-2.11v-2.11Zm-2.11,14.76h-2.11v-2.11h2.11v2.11Zm4.22-4.22h-2.11v-2.11h2.11v2.11Zm4.22-4.22h-2.11v-2.11h2.11v2.11Z"/>
      <g>
        <path class="cls-2" d="M183.38,53.6h0c-2.02-1.36-4.3-2.05-6.78-2.05h-9.1v36.66h9.21c2.49-.02,4.77-.73,6.78-2.13,2.01-1.39,3.59-3.34,4.7-5.8,1.1-2.44,1.66-5.21,1.66-8.23v-4.6c-.03-2.98-.61-5.71-1.74-8.12-1.14-2.44-2.73-4.36-4.74-5.71Zm-1.29,30.32c-1.64,1.13-3.49,1.7-5.49,1.7h-6.7v-31.5h6.86c1.97,.03,3.8,.63,5.43,1.77,1.64,1.15,2.94,2.77,3.86,4.81,.93,2.06,1.4,4.4,1.4,6.93v4.54c-.01,2.54-.5,4.87-1.45,6.94-.94,2.05-2.26,3.66-3.91,4.8Z"/>
        <path class="cls-2" d="M200.38,59.81c-1.76,0-3.4,.62-4.87,1.85-1.44,1.2-2.59,2.88-3.4,5-.8,2.09-1.21,4.41-1.21,6.91v1.09c0,2.5,.42,4.81,1.26,6.87,.84,2.09,2.03,3.75,3.54,4.96,1.53,1.23,3.24,1.85,5.09,1.85,3.33,0,5.87-1.54,7.56-4.58l.25-.44-1.68-1.49-.4,.63c-.71,1.13-1.53,1.97-2.43,2.51-.89,.53-2,.79-3.3,.79s-2.56-.46-3.73-1.41c-1.18-.96-2.12-2.32-2.8-4.03-.69-1.74-1.04-3.65-1.04-5.7v-.8h15.82v-2.02c0-3.52-.79-6.42-2.36-8.61-1.61-2.26-3.73-3.4-6.29-3.4Zm0,2.58c1.18,0,2.21,.37,3.16,1.14,.97,.78,1.74,1.89,2.3,3.31,.54,1.36,.83,2.84,.86,4.42h-13.37c.3-2.51,1.08-4.62,2.32-6.27,1.32-1.75,2.86-2.6,4.72-2.6Z"/>
        <path class="cls-2" d="M223.66,74.44c-1.11-.71-2.63-1.33-4.5-1.85-1.77-.49-3.12-.99-4.02-1.51-.86-.49-1.48-1.03-1.84-1.61-.36-.57-.54-1.39-.54-2.45,0-1.33,.48-2.41,1.48-3.29,1.01-.89,2.41-1.35,4.17-1.35,1.86,0,3.33,.52,4.47,1.6,1.13,1.07,1.68,2.36,1.68,3.96v.63h2.39v-.63c0-2.47-.8-4.47-2.36-5.94-1.56-1.46-3.63-2.2-6.17-2.2-2.34,0-4.28,.69-5.77,2.04-1.5,1.37-2.26,3.13-2.26,5.23s.6,3.74,1.79,4.95c1.17,1.19,3.14,2.12,6.04,2.86,4.3,1.08,6.38,3.01,6.38,5.9,0,1.38-.53,2.52-1.64,3.5-1.12,1-2.56,1.48-4.39,1.48-1.99,0-3.58-.47-4.72-1.4-1.13-.92-1.72-2.18-1.82-3.86l-.04-.6h-2.33v.63c0,2.29,.84,4.18,2.49,5.64,1.63,1.44,3.79,2.16,6.41,2.16,2.46,0,4.49-.69,6.03-2.05,1.56-1.38,2.36-3.23,2.36-5.48,0-1.44-.26-2.69-.78-3.7-.53-1.03-1.38-1.92-2.53-2.66Z"/>
        <path class="cls-2" d="M230.16,55.27c-.54,0-1.03,.21-1.4,.59-.37,.38-.57,.87-.57,1.4s.2,1.02,.57,1.4c.38,.38,.86,.57,1.4,.57s1.02-.2,1.4-.57c.39-.38,.59-.86,.59-1.4s-.2-1.02-.59-1.41c-.38-.38-.87-.59-1.41-.59Z"/>
        <rect class="cls-2" x="228.87" y="60.63" width="2.58" height="27.56"/>
        <path class="cls-2" d="M249.3,63.36c-.6-.84-1.3-1.53-2.08-2.08-1.38-.97-2.97-1.46-4.74-1.46-2.8,0-5.03,1.29-6.62,3.83-1.54,2.45-2.32,5.87-2.32,10.17v.34c0,4.31,.78,7.77,2.31,10.27,1.59,2.6,3.81,3.92,6.58,3.92,1.75,0,3.35-.44,4.74-1.3,.8-.49,1.51-1.11,2.12-1.85v1.9c-.04,2.84-.65,5.05-1.82,6.57-1.15,1.49-2.71,2.22-4.79,2.22-1.24,0-2.32-.31-3.23-.92-.94-.64-1.83-1.58-2.64-2.79l-.46-.69-1.63,1.85,.24,.4c.92,1.51,2.04,2.69,3.35,3.5,1.32,.82,2.8,1.24,4.39,1.24,2.76,0,4.98-1.07,6.59-3.18,1.57-2.06,2.37-4.92,2.37-8.51v-26.47h-2.39v3.06Zm-11.58,19.51c-1.19-2.04-1.79-4.91-1.79-8.54,0-4,.6-7.05,1.79-9.06,1.14-1.93,2.69-2.87,4.74-2.87,3.47,0,5.71,2.05,6.84,6.28v11.76c-.51,1.69-1.36,3.01-2.53,3.93-1.18,.93-2.65,1.41-4.35,1.41-2.03,0-3.57-.95-4.7-2.91Z"/>
        <path class="cls-2" d="M269.73,62.79c-1.34-1.75-3.38-2.64-6.08-2.64-1.94,0-3.72,.64-5.31,1.91-.9,.72-1.69,1.6-2.34,2.62v-4.05h-2.43v27.56h2.43v-17.4c.5-2.39,1.45-4.36,2.82-5.87,1.36-1.49,2.92-2.21,4.77-2.21,1.99,0,3.39,.58,4.28,1.77,.92,1.24,1.39,3.21,1.41,5.87v17.83h2.43v-17.8c-.02-3.35-.68-5.91-1.97-7.61Z"/>
      </g>
      <g>
        <path class="cls-2" d="M53.24,65.08h-3.16v-3.16c0-.58-.47-1.05-1.05-1.05h-8.44c-.58,0-1.05,.47-1.05,1.05v3.16h-3.16c-.58,0-1.05,.47-1.05,1.05v16.87c0,.58,.47,1.05,1.05,1.05h3.16v3.16c0,.58,.47,1.05,1.05,1.05h8.44c.58,0,1.05-.47,1.05-1.05v-3.16h3.16c.58,0,1.05-.47,1.05-1.05v-4.22c0-.58-.47-1.05-1.05-1.05h-4.22c-.58,0-1.05,.47-1.05,1.05v3.16h-6.33v-6.33h11.6c.58,0,1.05-.47,1.05-1.05v-8.44c0-.58-.47-1.05-1.05-1.05Zm-1.05,4.22h-2.11v-2.11h2.11v2.11Zm-7.38,0h-3.16v-2.11h6.33v2.11h-3.16Zm-5.27,8.44h-2.11v-2.11h2.11v2.11Zm-2.11-4.22v-2.11h2.11v2.11h-2.11Zm10.55-8.44h-2.11v-2.11h2.11v2.11Zm-6.33-2.11h2.11v2.11h-2.11v-2.11Zm-4.22,4.22h2.11v2.11h-2.11v-2.11Zm0,12.66h2.11v2.11h-2.11v-2.11Zm12.66,0h2.11v2.11h-2.11v-2.11Zm-2.11,6.33h-2.11v-2.11h2.11v2.11Zm-4.22,0h-2.11v-2.11h2.11v2.11Zm-2.11-14.76h2.11v2.11h-2.11v-2.11Zm4.22,0h2.11v2.11h-2.11v-2.11Zm6.33,2.11h-2.11v-2.11h2.11v2.11Z"/>
        <path class="cls-2" d="M120.74,65.08h-3.16v-3.16c0-.58-.47-1.05-1.05-1.05h-8.44c-.58,0-1.05,.47-1.05,1.05v3.16h-3.16c-.58,0-1.05,.47-1.05,1.05v16.87c0,.58,.47,1.05,1.05,1.05h3.16v3.16c0,.58,.47,1.05,1.05,1.05h8.44c.58,0,1.05-.47,1.05-1.05v-3.16h3.16c.58,0,1.05-.47,1.05-1.05v-16.87c0-.58-.47-1.05-1.05-1.05Zm-8.44,16.87h-3.16v-14.76h6.33v14.76h-3.16Zm-5.27-8.44h-2.11v-2.11h2.11v2.11Zm-2.11,2.11h2.11v2.11h-2.11v-2.11Zm14.76-2.11h-2.11v-2.11h2.11v2.11Zm-2.11,2.11h2.11v2.11h-2.11v-2.11Zm2.11-6.33h-2.11v-2.11h2.11v2.11Zm-4.22-4.22h-2.11v-2.11h2.11v2.11Zm-6.33-2.11h2.11v2.11h-2.11v-2.11Zm-4.22,4.22h2.11v2.11h-2.11v-2.11Zm0,12.66h2.11v2.11h-2.11v-2.11Zm4.22,4.22h2.11v2.11h-2.11v-2.11Zm6.33,2.11h-2.11v-2.11h2.11v2.11Zm4.22-4.22h-2.11v-2.11h2.11v2.11Z"/>
        <path class="cls-2" d="M141.83,52.42h-4.22c-.58,0-1.05,.47-1.05,1.05v7.38h-7.38c-.58,0-1.05,.47-1.05,1.05v3.16h-3.16c-.58,0-1.05,.47-1.05,1.05v16.87c0,.58,.47,1.05,1.05,1.05h3.16v3.16c0,.58,.47,1.05,1.05,1.05h12.66c.58,0,1.05-.47,1.05-1.05V53.48c0-.58-.47-1.05-1.05-1.05Zm-8.44,29.53h-3.16v-14.76h6.33v14.76h-3.16Zm-5.27-8.44h-2.11v-2.11h2.11v2.11Zm-2.11,2.11h2.11v2.11h-2.11v-2.11Zm12.66-16.87h2.11v2.11h-2.11v-2.11Zm2.11,4.22v2.11h-2.11v-2.11h2.11Zm0,6.33h-2.11v-2.11h2.11v2.11Zm0,4.22h-2.11v-2.11h2.11v2.11Zm0,4.22h-2.11v-2.11h2.11v2.11Zm-2.11,2.11h2.11v2.11h-2.11v-2.11Zm0-25.31h2.11v2.11h-2.11v-2.11Zm-2.11,10.55h-2.11v-2.11h2.11v2.11Zm-6.33-2.11h2.11v2.11h-2.11v-2.11Zm-4.22,4.22h2.11v2.11h-2.11v-2.11Zm0,12.66h2.11v2.11h-2.11v-2.11Zm4.22,4.22h2.11v2.11h-2.11v-2.11Zm4.22,0h2.11v2.11h-2.11v-2.11Zm6.33,2.11h-2.11v-2.11h2.11v2.11Z"/>
        <path class="cls-2" d="M99.64,52.42h-4.22c-.58,0-1.05,.47-1.05,1.05v3.16h-3.16c-.58,0-1.05,.47-1.05,1.05v3.16h-3.16c-.58,0-1.05,.47-1.05,1.05v3.16h-2.11v-11.6c0-.58-.47-1.05-1.05-1.05h-4.22c-.58,0-1.05,.47-1.05,1.05v33.75c0,.58,.47,1.05,1.05,1.05h4.22c.58,0,1.05-.47,1.05-1.05v-11.6h2.11v3.16c0,.58,.47,1.05,1.05,1.05h3.16v3.16c0,.58,.47,1.05,1.05,1.05h3.16v3.16c0,.58,.47,1.05,1.05,1.05h4.22c.58,0,1.05-.47,1.05-1.05v-4.22c0-.58-.47-1.05-1.05-1.05h-3.16v-3.16c0-.58-.47-1.05-1.05-1.05h-3.16v-3.16c0-.58-.47-1.05-1.05-1.05h-3.16v-6.33h3.16c.58,0,1.05-.47,1.05-1.05v-3.16h3.16c.58,0,1.05-.47,1.05-1.05v-3.16h3.16c.58,0,1.05-.47,1.05-1.05v-4.22c0-.58-.47-1.05-1.05-1.05Zm-13.71,16.87h-2.11v-2.11h2.11v2.11Zm-6.33-2.11h2.11v2.11h-2.11v-2.11Zm2.11-2.11h-2.11v-2.11h2.11v2.11Zm0-4.22h-2.11v-2.11h2.11v2.11Zm-2.11,18.98h2.11v2.11h-2.11v-2.11Zm2.11-2.11h-2.11v-2.11h2.11v2.11Zm-2.11-4.22v-2.11h2.11v2.11h-2.11Zm0-18.98h2.11v2.11h-2.11v-2.11Zm2.11,31.64h-2.11v-2.11h2.11v2.11Zm2.11-14.76h2.11v2.11h-2.11v-2.11Zm14.76,14.76h-2.11v-2.11h2.11v2.11Zm-4.22-4.22h-2.11v-2.11h2.11v2.11Zm-4.22-4.22h-2.11v-2.11h2.11v2.11Zm0-12.66h-2.11v-2.11h2.11v2.11Zm4.22-4.22h-2.11v-2.11h2.11v2.11Zm4.22-4.22h-2.11v-2.11h2.11v2.11Z"/>
        <path class="cls-2" d="M74.33,65.08h-3.16v-3.16c0-.58-.47-1.05-1.05-1.05h-8.44c-.58,0-1.05,.47-1.05,1.05v3.16h-3.16c-.58,0-1.05,.47-1.05,1.05v16.87c0,.58,.47,1.05,1.05,1.05h3.16v3.16c0,.58,.47,1.05,1.05,1.05h8.44c.58,0,1.05-.47,1.05-1.05v-3.16h3.16c.58,0,1.05-.47,1.05-1.05v-4.22c0-.58-.47-1.05-1.05-1.05h-4.22c-.58,0-1.05,.47-1.05,1.05v3.16h-6.33v-6.33h11.6c.58,0,1.05-.47,1.05-1.05v-8.44c0-.58-.47-1.05-1.05-1.05Zm-1.05,4.22h-2.11v-2.11h2.11v2.11Zm-7.38,0h-3.16v-2.11h6.33v2.11h-3.16Zm-5.27,8.44h-2.11v-2.11h2.11v2.11Zm-2.11-4.22v-2.11h2.11v2.11h-2.11Zm10.55-8.44h-2.11v-2.11h2.11v2.11Zm-6.33-2.11h2.11v2.11h-2.11v-2.11Zm-4.22,4.22h2.11v2.11h-2.11v-2.11Zm0,12.66h2.11v2.11h-2.11v-2.11Zm12.66,0h2.11v2.11h-2.11v-2.11Zm-2.11,6.33h-2.11v-2.11h2.11v2.11Zm-4.22,0h-2.11v-2.11h2.11v2.11Zm-2.11-14.76h2.11v2.11h-2.11v-2.11Zm4.22,0h2.11v2.11h-2.11v-2.11Zm6.33,2.11h-2.11v-2.11h2.11v2.11Z"/>
        <path class="cls-2" d="M162.92,65.08h-3.16v-3.16c0-.58-.47-1.05-1.05-1.05h-8.44c-.58,0-1.05,.47-1.05,1.05v3.16h-3.16c-.58,0-1.05,.47-1.05,1.05v16.87c0,.58,.47,1.05,1.05,1.05h3.16v3.16c0,.58,.47,1.05,1.05,1.05h8.44c.58,0,1.05-.47,1.05-1.05v-3.16h3.16c.58,0,1.05-.47,1.05-1.05v-4.22c0-.58-.47-1.05-1.05-1.05h-4.22c-.58,0-1.05,.47-1.05,1.05v3.16h-6.33v-6.33h11.6c.58,0,1.05-.47,1.05-1.05v-8.44c0-.58-.47-1.05-1.05-1.05Zm-1.05,4.22h-2.11v-2.11h2.11v2.11Zm-7.38,0h-3.16v-2.11h6.33v2.11h-3.16Zm-5.27,8.44h-2.11v-2.11h2.11v2.11Zm-2.11-4.22v-2.11h2.11v2.11h-2.11Zm10.55-8.44h-2.11v-2.11h2.11v2.11Zm-6.33-2.11h2.11v2.11h-2.11v-2.11Zm-4.22,4.22h2.11v2.11h-2.11v-2.11Zm0,12.66h2.11v2.11h-2.11v-2.11Zm12.66,0h2.11v2.11h-2.11v-2.11Zm-2.11,6.33h-2.11v-2.11h2.11v2.11Zm-4.22,0h-2.11v-2.11h2.11v2.11Zm-2.11-14.76h2.11v2.11h-2.11v-2.11Zm4.22,0h2.11v2.11h-2.11v-2.11Zm6.33,2.11h-2.11v-2.11h2.11v2.11Z"/>
        <path class="cls-2" d="M32.15,56.64h-3.16v-3.16c0-.58-.47-1.05-1.05-1.05H15.27c-.58,0-1.05,.47-1.05,1.05v3.16h-3.16c-.58,0-1.05,.47-1.05,1.05v25.31c0,.58,.47,1.05,1.05,1.05h3.16v3.16c0,.58,.47,1.05,1.05,1.05h12.66c.58,0,1.05-.47,1.05-1.05v-3.16h3.16c.58,0,1.05-.47,1.05-1.05v-12.66c0-.58-.47-1.05-1.05-1.05h-8.44c-.58,0-1.05,.47-1.05,1.05v4.22c0,.58,.47,1.05,1.05,1.05h3.16v6.33h-10.55v-23.2h10.55v3.16c0,.58,.47,1.05,1.05,1.05h4.22c.58,0,1.05-.47,1.05-1.05v-4.22c0-.58-.47-1.05-1.05-1.05Zm-17.93,8.44h-2.11v-2.11h2.11v2.11Zm0,4.22h-2.11v-2.11h2.11v2.11Zm0,4.22h-2.11v-2.11h2.11v2.11Zm-2.11,2.11h2.11v2.11h-2.11v-2.11Zm0-16.87h2.11v2.11h-2.11v-2.11Zm0,21.09h2.11v2.11h-2.11v-2.11Zm16.87-4.22h2.11v2.11h-2.11v-2.11Zm2.11,6.33h-2.11v-2.11h2.11v2.11Zm0-8.44h-2.11v-2.11h2.11v2.11Zm-6.33-2.11h2.11v2.11h-2.11v-2.11Zm2.11,14.76h-2.11v-2.11h2.11v2.11Zm-4.22,0h-2.11v-2.11h2.11v2.11Zm-4.22,0h-2.11v-2.11h2.11v2.11Zm-2.11-31.64h2.11v2.11h-2.11v-2.11Zm4.22,0h2.11v2.11h-2.11v-2.11Zm4.22,0h2.11v2.11h-2.11v-2.11Zm6.33,6.33h-2.11v-2.11h2.11v2.11Z"/>
      </g>
      <g>
        <path class="cls-2" d="M254.01,95.53v-4.58h1.24c.37,0,.7,.09,.99,.27,.29,.18,.51,.44,.67,.77,.16,.33,.24,.71,.24,1.14v.23c0,.43-.08,.82-.24,1.14-.16,.33-.39,.58-.68,.76-.29,.18-.63,.27-1.01,.27h-1.21Zm.73-3.93v3.3h.48c.38,0,.68-.13,.88-.39,.21-.26,.31-.64,.31-1.12v-.25c0-.5-.1-.88-.3-1.14-.2-.26-.49-.39-.86-.39h-.51Z"/>
        <path class="cls-2" d="M257.81,91.25c0-.12,.03-.21,.1-.29,.07-.08,.17-.12,.29-.12s.23,.04,.29,.12c.07,.08,.1,.18,.1,.29s-.03,.21-.1,.29c-.07,.08-.17,.11-.29,.11s-.23-.04-.29-.11-.1-.17-.1-.29Zm.75,4.28h-.7v-3.4h.7v3.4Z"/>
        <path class="cls-2" d="M259.2,93.81c0-.53,.11-.95,.34-1.26,.23-.32,.53-.47,.91-.47,.36,0,.64,.14,.84,.41l.03-.34h.63v3.3c0,.45-.13,.8-.38,1.06-.26,.26-.6,.39-1.03,.39-.23,0-.45-.05-.67-.16-.22-.1-.39-.24-.5-.41l.33-.46c.22,.28,.48,.42,.8,.42,.23,0,.42-.07,.55-.21,.13-.14,.2-.34,.2-.61v-.23c-.2,.25-.47,.37-.81,.37-.37,0-.67-.16-.9-.47-.23-.32-.35-.75-.35-1.31Zm.7,.07c0,.34,.06,.61,.19,.81,.13,.2,.31,.29,.53,.29,.28,0,.49-.13,.63-.4v-1.5c-.13-.26-.34-.39-.62-.39-.23,0-.41,.1-.54,.3-.13,.2-.19,.49-.19,.88Z"/>
        <path class="cls-2" d="M262.68,91.25c0-.12,.03-.21,.1-.29,.07-.08,.17-.12,.29-.12s.23,.04,.29,.12c.07,.08,.1,.18,.1,.29s-.03,.21-.1,.29c-.07,.08-.17,.11-.29,.11s-.23-.04-.29-.11-.1-.17-.1-.29Zm.75,4.28h-.7v-3.4h.7v3.4Z"/>
        <path class="cls-2" d="M265.07,91.31v.83h.55v.57h-.55v1.9c0,.13,.02,.22,.07,.28,.05,.06,.13,.09,.25,.09,.08,0,.16-.01,.25-.03v.59c-.16,.05-.31,.07-.46,.07-.54,0-.81-.32-.81-.97v-1.93h-.51v-.57h.51v-.83h.7Z"/>
        <path class="cls-2" d="M268.03,95.53c-.03-.06-.06-.17-.08-.32-.22,.25-.5,.38-.82,.38s-.57-.1-.77-.29-.3-.44-.3-.72c0-.36,.12-.64,.37-.83,.25-.19,.6-.29,1.06-.29h.43v-.22c0-.18-.05-.32-.14-.42-.09-.11-.23-.16-.41-.16-.16,0-.29,.04-.39,.13-.1,.09-.15,.2-.15,.33h-.7c0-.19,.06-.36,.17-.52,.11-.16,.27-.29,.46-.38,.2-.09,.41-.14,.65-.14,.37,0,.66,.1,.88,.3,.22,.2,.33,.48,.34,.84v1.53c0,.31,.04,.55,.12,.73v.05h-.72Zm-.77-.55c.14,0,.27-.04,.39-.11,.12-.07,.21-.17,.28-.3v-.64h-.38c-.26,0-.46,.05-.59,.15-.13,.1-.2,.24-.2,.42,0,.15,.04,.26,.13,.35,.09,.09,.21,.13,.36,.13Z"/>
        <path class="cls-2" d="M270.11,95.53h-.7v-4.83h.7v4.83Z"/>
        <path class="cls-2" d="M272.23,93.81c0-.53,.11-.95,.34-1.26,.23-.32,.53-.47,.91-.47,.36,0,.64,.14,.84,.41l.03-.34h.63v3.3c0,.45-.13,.8-.38,1.06s-.6,.39-1.03,.39c-.23,0-.45-.05-.67-.16-.22-.1-.39-.24-.5-.41l.33-.46c.22,.28,.48,.42,.8,.42,.23,0,.42-.07,.55-.21,.13-.14,.2-.34,.2-.61v-.23c-.2,.25-.47,.37-.81,.37-.37,0-.67-.16-.9-.47-.23-.32-.35-.75-.35-1.31Zm.7,.07c0,.34,.06,.61,.19,.81,.13,.2,.31,.29,.53,.29,.28,0,.49-.13,.63-.4v-1.5c-.13-.26-.34-.39-.62-.39-.23,0-.41,.1-.54,.3-.13,.2-.19,.49-.19,.88Z"/>
        <path class="cls-2" d="M275.58,93.8c0-.33,.06-.63,.18-.9,.12-.27,.29-.47,.51-.62,.22-.14,.47-.22,.76-.22,.42,0,.76,.15,1.03,.44s.41,.69,.43,1.18v.18c0,.34-.06,.63-.18,.9-.12,.26-.29,.47-.51,.61s-.48,.22-.76,.22c-.44,0-.79-.16-1.06-.48-.27-.32-.4-.75-.4-1.28v-.04Zm.7,.07c0,.35,.07,.62,.2,.82,.13,.2,.32,.3,.56,.3s.42-.1,.55-.3,.2-.5,.2-.88c0-.34-.07-.62-.2-.82-.14-.2-.32-.3-.55-.3s-.41,.1-.55,.3c-.13,.2-.2,.49-.2,.89Z"/>
        <path class="cls-2" d="M280.95,95.53c-.03-.06-.06-.17-.08-.32-.22,.25-.5,.38-.82,.38s-.57-.1-.77-.29-.3-.44-.3-.72c0-.36,.12-.64,.37-.83,.25-.19,.6-.29,1.06-.29h.43v-.22c0-.18-.05-.32-.14-.42-.09-.11-.23-.16-.41-.16-.16,0-.29,.04-.39,.13-.1,.09-.15,.2-.15,.33h-.7c0-.19,.06-.36,.17-.52,.11-.16,.27-.29,.46-.38,.2-.09,.41-.14,.65-.14,.37,0,.66,.1,.88,.3,.22,.2,.33,.48,.34,.84v1.53c0,.31,.04,.55,.12,.73v.05h-.72Zm-.77-.55c.14,0,.27-.04,.39-.11,.12-.07,.21-.17,.28-.3v-.64h-.38c-.26,0-.46,.05-.59,.15-.13,.1-.2,.24-.2,.42,0,.15,.04,.26,.13,.35,.09,.09,.21,.13,.36,.13Z"/>
        <path class="cls-2" d="M283.03,95.53h-.7v-4.83h.7v4.83Z"/>
        <path class="cls-2" d="M285.55,94.61c0-.14-.05-.24-.15-.31-.1-.07-.27-.13-.51-.19-.24-.05-.44-.12-.6-.21-.35-.18-.53-.45-.53-.8,0-.29,.11-.54,.34-.74,.23-.2,.52-.3,.87-.3,.37,0,.68,.1,.91,.3,.23,.2,.35,.46,.35,.78h-.7c0-.15-.05-.27-.15-.37-.1-.1-.23-.15-.4-.15-.15,0-.28,.04-.38,.12-.1,.08-.15,.18-.15,.31,0,.12,.05,.21,.14,.27,.09,.07,.27,.13,.55,.2,.28,.07,.49,.14,.65,.24,.16,.09,.27,.2,.35,.33,.08,.13,.11,.28,.11,.47,0,.31-.12,.55-.35,.74-.23,.19-.54,.28-.92,.28-.26,0-.48-.05-.69-.15-.2-.1-.36-.24-.47-.41s-.17-.37-.17-.57h.68c0,.18,.07,.32,.19,.42,.12,.1,.27,.15,.46,.15s.33-.04,.42-.11c.1-.08,.14-.18,.14-.3Z"/>
        <path class="cls-2" d="M289.16,96.13h-2.65v-.6h2.65v.6Z"/>
      </g>
    </g>
  </g>
</svg>