<?xml version="1.0" encoding="UTF-8"?>
<svg id="Capa_2" data-name="Capa 2" xmlns="http://www.w3.org/2000/svg" viewBox="0 0 300 300">
  <defs>
    <style>
      .cls-1 {
        fill: none;
      }

      .cls-2, .cls-3 {
        fill: #ededed;
      }

      .cls-3 {
        fill-rule: evenodd;
      }
    </style>
  </defs>
  <g id="Marco">
    <rect class="cls-1" width="300" height="300"/>
  </g>
  <g id="Capa_2-2" data-name="Capa 2">
    <g>
      <g>
        <path class="cls-2" d="M182.89,169.76c-.03,1.12-.03,2.25-.11,3.37-.11,1.58-.25,3.17-.44,4.74-.07,.64-.27,1.28-.45,1.91-.31,1.08-.64,2.16-1,3.23-.62,1.82-1.49,3.52-2.48,5.15-.9,1.48-2.02,2.77-3.18,4-.91,.97-1.96,1.83-3.04,2.58-1.29,.9-2.66,1.71-4.04,2.43-2.64,1.37-5.43,2.24-8.3,2.57-1.59,.18-3.2,.17-4.8,.13-1.97-.04-3.94-.19-5.91-.32-.53-.03-1.06-.17-1.59-.23-1.18-.13-2.37-.21-3.54-.36-1.84-.23-3.69-.44-5.51-.76-1.89-.33-3.8-.49-5.72-.49-1.32,0-2.69,.06-3.99,.57-.1,.04-.2,.06-.3,.09-.36,.08-.51-.05-.43-.43,.12-.57,.29-1.12,.41-1.69,.22-1.04,.42-2.08,.6-3.13,.07-.37,.22-.59,.58-.57,1.1,.05,2.21,.07,3.3,.17,1.43,.13,2.86,.28,4.27,.5,2.39,.37,4.76,.83,7.14,1.22,1.27,.21,2.55,.38,3.83,.52,2.12,.23,4.23,.54,6.36,.6,2.97,.08,5.93-.21,8.87-1.09,3.01-.9,5.75-2.36,8.27-4.33,1.44-1.13,2.73-2.45,3.95-3.88,1.14-1.34,1.97-2.88,2.88-4.36,.37-.59,.66-1.24,.96-1.87,1.02-2.19,1.84-4.47,2.45-6.81,.27-1.05,.4-2.14,.6-3.2,.02-.11,.1-.22,.16-.32,.07,.02,.13,.03,.2,.05Z"/>
        <path class="cls-2" d="M138.71,178.87c-.18-.75-.41-1.48-.53-2.24-.16-1-.3-2.01-.32-3.03-.03-1.31,.04-2.64,.13-3.95,.05-.73-.03-1.33-.62-1.78-.48-.37-.47-.59-.25-1.21,.59-1.71,1.43-3.28,2.43-4.76,.82-1.21,1.66-2.43,2.65-3.48,2.41-2.59,5.22-4.55,8.43-5.79,2.4-.93,4.84-1.41,7.37-1.46,2.72-.05,5.27,.48,7.75,1.46,1.24,.49,2.44,1.06,3.5,1.9,.92,.73,1.91,1.38,2.77,2.19,.85,.81,1.64,1.72,2.34,2.69,.74,1.03,1.44,2.12,2,3.28,1.01,2.09,1.71,4.31,2.07,6.69,.37,2.42,.32,4.84-.03,7.28-.12,.88-.31,1.76-.5,2.63-.03,.15-.23,.35-.37,.38-.33,.06-.67,.05-1,.04-.45-.01-.75,.18-.93,.65-.88,2.32-2.18,4.38-3.77,6.22-.71,.82-1.48,1.58-2.28,2.29-.55,.49-1.21,.83-1.82,1.24-.03-.04-.05-.08-.08-.12,.72-.63,1.49-1.23,2.16-1.91,.61-.62,1.14-1.35,1.69-2.04,1.27-1.6,2.19-3.4,2.93-5.31,.62-1.62,.99-3.28,1.23-5,.2-1.47,.25-2.93,.13-4.37-.14-1.78-.51-3.5-1.11-5.15-.81-2.25-1.98-4.25-3.46-6.04-1.17-1.4-2.59-2.44-4.07-3.43-2.04-1.36-4.3-2.04-6.69-2.4-3.91-.59-7.66,.21-11.26,2.19-1.6,.88-3.05,1.97-4.38,3.28-2.22,2.19-3.86,4.77-4.98,7.71-.86,2.24-1.34,4.58-1.38,6.96-.02,1.16,.17,2.31,.26,3.46,.02,.3,.05,.6,.08,.91-.04,.01-.07,.02-.11,.03Z"/>
        <path class="cls-2" d="M142.38,177.07c.02-.58,.11-1.17,.06-1.74-.15-1.97,.24-3.87,.81-5.76,.73-2.44,1.97-4.59,3.62-6.45,1.28-1.44,2.77-2.61,4.45-3.5,1.91-1.01,3.9-1.6,5.98-1.82,.72-.08,1.46-.01,2.18,.04,1.79,.13,3.56,.42,5.14,1.31,.89,.5,1.72,1.13,2.53,1.76,.69,.54,1.37,1.1,1.94,1.77,1.2,1.37,2.1,2.98,2.78,4.72,.04,.1,.07,.2,.1,.3,.26,.74,.24,.72-.34,1.31-.19,.19-.33,.54-.33,.81,0,1.05,.1,2.1,.06,3.16-.04,1.08-.17,2.16-.35,3.23-.08,.47-.36,.91-.55,1.37-.03-.01-.07-.02-.1-.03,0-.09,0-.18,.03-.26,.38-.82,.28-1.7,.38-2.55,.22-1.85,.11-3.66-.39-5.42-.57-2.02-1.58-3.74-2.88-5.28-.9-1.06-2.02-1.8-3.19-2.48-1.52-.89-3.16-1.39-4.88-1.57-1.34-.14-2.7,.03-4.04,.38-1.2,.31-2.36,.72-3.44,1.38-1.41,.87-2.67,1.92-3.79,3.23-1.23,1.44-2.06,3.07-2.73,4.82-.52,1.35-.68,2.76-.77,4.18-.13,2.03,.15,3.98,.87,5.8,.44,1.13,1.11,2.15,1.75,3.17,.71,1.12,1.67,1.97,2.77,2.65,.78,.48,1.53,.99,2.3,1.49,.09,.06,.16,.13,.31,.25-.15,.03-.21,.06-.25,.05-1.02-.29-2.01-.64-2.84-1.35-.79-.68-1.69-1.26-2.38-2.05-1.36-1.54-2.47-3.29-3.25-5.27-.14-.35-.27-.61-.74-.44-.43,.16-.45-.29-.56-.57-.08-.22-.19-.44-.28-.66v.02Z"/>
        <path class="cls-2" d="M142.21,153.15c-.22,.24-.45,.46-.65,.71-.38,.46-.76,.93-1.13,1.39-.48,.59-.94,1.19-1.45,1.76-.91,1.02-1.49,2.26-2.12,3.46-1.22,2.35-2.05,4.85-2.79,7.39-.18,.63-.25,1.29-.33,1.94-.16,1.32-.4,2.64-.43,3.95-.04,1.72,.06,3.44,.14,5.16,.02,.49,.14,.97,.23,1.45,.08,.42-.02,.59-.41,.54-.55-.07-1.09-.16-1.62-.31-.14-.04-.29-.29-.32-.47-.31-2.32-.37-4.67-.33-7.04,.03-1.78,.43-3.5,.61-5.25,.11-1.03,.42-2.05,.68-3.07,.04-.16,.37-.38,.53-.36,.81,.12,1.15-.25,1.44-1.07,.63-1.82,1.6-3.46,2.82-4.94,.61-.74,1.18-1.53,1.79-2.27,.3-.37,.66-.69,1-1.03,.47-.48,.93-.97,1.42-1.43,.26-.24,.56-.42,.85-.62,.03,.03,.05,.07,.08,.1Z"/>
        <path class="cls-2" d="M156.91,182.47c-.3,.05-.6,.13-.9,.13-.36,0-.73-.04-1.07-.15-.35-.11-.68-.29-.99-.49-.08-.05-.07-.36,0-.51,.55-1.41,1.12-2.82,1.69-4.23,.01-.03,.02-.06,.03-.09,.3-.56,.57-1.09-.12-1.55-.22-.15-.24-.68-.46-.77-.21-.09-.57,.15-.85,.28-1.3,.58-2.6,1.16-3.88,1.77-.13,.06-.26,.42-.22,.57,.15,.45,.38,.87,.58,1.31,.02,.05,.03,.11,.09,.29-.19-.08-.33-.1-.4-.18-.63-.74-1.01-1.61-1.03-2.64,0-.11,.15-.3,.26-.33,1.17-.37,2.35-.72,3.52-1.08,.33-.1,.65-.22,.98-.3,.22-.05,.46-.1,.67-.07,.27,.03,.35-.11,.29-.31-.14-.43,.03-.79,.19-1.17,.12-.29,.12-.42-.23-.56-.53-.21-.98-.6-1.48-.89-.78-.45-1.56-.89-2.35-1.31-.33-.18-.61-.08-.78,.34-.17,.41-.38,.81-.57,1.21-.05-.02-.1-.03-.14-.05,.03-.21,.02-.44,.1-.63,.3-.7,.61-1.4,.97-2.07,.22-.4,.55-.2,.79,0,1.13,.87,2.26,1.72,3.35,2.64,.49,.41,.88,.83,1.5,.13,.15-.17,.52-.13,.65-.31,.08-.11-.12-.43-.16-.66-.25-1.43-.49-2.87-.74-4.31-.1-.55-.32-.69-.84-.52-.43,.14-.85,.32-1.34,.52,.33-.64,1.28-1.15,2-1.16,.16,0,.32,.02,.48,.02,.71-.02,.74,0,.77,.78,.06,1.28,.12,2.56,.17,3.85,.01,.41-.03,.82-.04,1.23,0,.09,.05,.23,.12,.25,.52,.2,1.04,.39,1.5,.55,.22-.32,.41-.62,.62-.91,.83-1.13,1.66-2.25,2.49-3.38,.18-.25,.12-.49-.09-.65-.23-.17-.49-.3-.74-.46-.13-.08-.24-.18-.34-.32,.59-.13,1.09,.09,1.49,.43,.39,.33,.66,.8,1,1.22-1.05,1.09-2.1,2.17-3.15,3.24-.31,.31-.66,.59-.95,.91-.09,.1-.13,.35-.09,.49,.12,.44,.28,.86,.44,1.28,.04,.1,.15,.24,.24,.24,.97,.05,1.94,.11,2.91,.11,.64,0,1.29-.06,1.92-.18,.16-.03,.37-.36,.41-.57,.08-.36,.06-.75,.08-1.13,.04-.01,.08-.03,.12-.04,.07,.21,.17,.42,.19,.64,.05,.71,.12,1.37-.29,2.1-.31,.55-.46,.31-.78,.24-.86-.17-1.74-.3-2.61-.41-.6-.08-1.21-.1-1.82-.18-.28-.04-.49,.03-.63,.3-.02,.03-.03,.05-.05,.08-.21,.34-.59,.7-.59,1.03,0,.36,.33,.72,.57,1.03,.69,.93,1.38,1.85,2.1,2.75,.46,.57,.69,.52,1.17-.08,.21-.26,.51-.45,.8-.63-.48,1.15-1.23,1.94-2.43,2.18-.53-.96-1.05-1.92-1.57-2.87-.26-.47-.54-.93-.79-1.41-.09-.16-.18-.37-.16-.55,.05-.39-.09-.41-.39-.35-.44,.1-.89,.13-1.33,.23-.11,.02-.27,.16-.3,.27-.43,1.59-.86,3.17-1.24,4.77-.04,.17,.13,.5,.28,.57,.35,.14,.74,.17,1.12,.24,.1,.02,.2,.06,.3,.09v.15Z"/>
        <path class="cls-2" d="M160.03,192.46c-.58,.09-1.17,.2-1.75,.26-2.54,.27-5.07,.23-7.6,.2-.43,0-.87-.06-1.3-.11-1.79-.21-3.61-.24-5.38-.68-1.57-.39-3.19-.55-4.77-.92-2.91-.68-5.71-1.68-8.42-2.92-.57-.26-.62-.23-.84,.42-.25,.73-.53,1.44-.79,2.17-.14,.4-.24,.81-.37,1.21-.06,.18-.14,.36-.25,.61-.2-.72-.09-1.3,.07-1.92,.36-1.36,.64-2.74,.95-4.12,.17-.74,.24-.73,.88-.46,2.14,.9,4.3,1.77,6.47,2.6,1.12,.43,2.26,.8,3.41,1.12,1.19,.34,2.4,.61,3.61,.86,1.38,.29,2.77,.59,4.17,.8,1.23,.19,2.47,.29,3.71,.37,1.87,.13,3.74,.23,5.61,.31,.73,.03,1.47-.03,2.21-.04,.13,0,.25,.03,.38,.04,0,.06,0,.12,0,.18Z"/>
        <path class="cls-2" d="M125.65,196.53c0-.71-.04-1.42,.01-2.13,.05-.66,.17-1.33,.29-1.98,.17-.9,.35-1.81,.54-2.71,.23-1.05,.48-2.11,.75-3.15,.1-.38,0-.54-.35-.61-.99-.19-1.98-.41-2.97-.61-.21-.04-.43-.09-.64-.1-.6-.03-.7,.08-.97,.67-.8,1.79-1.27,3.67-1.73,5.56-.19,.8-.25,1.63-.42,2.44-.12,.57-.33,1.13-.5,1.69l-.15-.02c.05-.38,.09-.75,.14-1.13,.11-.73,.22-1.47,.35-2.2,.19-1.09,.35-2.19,.59-3.27,.29-1.28,.64-2.55,.98-3.82,.21-.76,.45-1.5,.68-2.25,.11-.35,.33-.45,.65-.41,1.1,.14,2.21,.27,3.31,.41,.43,.05,.86,.13,1.29,.2,.39,.06,.46,.28,.32,.66-.12,.34-.21,.69-.25,1.06,.78-.42,.55-1.46,1.27-2.07-.02,.27,0,.44-.05,.58-.2,.61-.45,1.21-.62,1.82-.34,1.25-.64,2.51-.94,3.77-.26,1.09-.54,2.19-.74,3.29-.16,.9-.48,1.77-.46,2.7,.01,.53-.19,1.07-.29,1.61-.04,0-.07,0-.11,0Z"/>
        <path class="cls-2" d="M142.37,177.05c-.04,.23-.15,.49-.11,.7,.48,2.24,1.2,4.39,2.36,6.31,.35,.59,.93,1.01,1.35,1.56,.38,.5,.7,1.06,1.02,1.61,.08,.14,.06,.34,.11,.6-.21-.03-.35-.04-.48-.08-2.83-.88-5.65-1.78-8.48-2.65-2.02-.62-4.05-1.18-6.08-1.77-.17-.05-.35-.04-.51-.08-.14-.04-.27-.12-.4-.18,.08-.18,.11-.42,.25-.53,.38-.31,.81-.49,1.28-.37,.82,.21,1.66,.4,2.46,.68,2.98,1.05,5.95,2.14,8.93,3.21,.14,.05,.32,0,.49,0-.04-.17-.04-.39-.14-.52-1.23-1.73-1.91-3.72-2.27-5.87-.16-.95-.45-1.87-.26-2.87,.16,.09,.33,.17,.5,.26,0,0,0-.02,0-.02Z"/>
        <path class="cls-2" d="M168.13,149.4c-.38-.09-.75-.17-1.13-.27-1.08-.26-2.14-.6-3.24-.76-1.3-.2-2.62-.3-3.93-.36-2.51-.11-4.98,.32-7.42,1.1-2.53,.81-4.88,2.03-7.1,3.6-1.6,1.13-3.1,2.39-4.44,3.86-.59,.65-1.15,1.33-1.73,1.98-.1,.11-.29,.14-.43,.21-.04-.06-.09-.12-.13-.19,.48-.67,.92-1.39,1.46-2,.89-1.01,1.81-2,2.79-2.91,2.09-1.94,4.43-3.46,6.99-4.54,2.24-.94,4.53-1.55,6.9-1.71,1.03-.07,2.07-.1,3.1-.05,1.11,.05,2.22,.19,3.32,.32,.36,.04,.7,.18,1.05,.26,.45,.09,.91,.13,1.35,.25,.57,.16,1.12,.37,1.67,.58,.34,.13,.66,.32,.99,.48-.02,.05-.04,.1-.07,.15Z"/>
        <path class="cls-2" d="M162.74,162.9c1.87,1.11,3.54,2.43,4.66,4.46,1.02,1.85,1.58,3.81,1.56,5.98,0,.65-.02,1.3-.05,1.95-.03,.48-.18,.57-.6,.43-.92-.31-.9-.31-.84-1.35,.19-3.03-.59-5.67-2.54-7.78-.84-.92-1.8-1.72-2.95-2.21-.33-.14-.45-.35-.3-.72,.03-.07,.05-.15,.07-.23,.24-.88,.25-.89,1-.54Z"/>
        <path class="cls-2" d="M147.69,171.88c.65,.26,.68,.3,.51,1.01-.33,1.38-.16,2.73,.14,4.04,.32,1.44,.88,2.8,1.82,3.89,.77,.9,1.53,1.83,2.64,2.32,.55,.24,.57,.36,.37,1.02-.26,.88-.26,.97-1.06,.5-1.45-.85-2.64-2.01-3.6-3.4-.82-1.19-1.37-2.56-1.67-4.04-.31-1.53-.42-3.07-.17-4.66,.15-.93,.23-1,1.02-.68Z"/>
        <path class="cls-2" d="M166.86,179.05c.12,.05,.25,.09,.36,.16,.23,.13,.27,.29,.11,.57-.87,1.54-2.02,2.81-3.38,3.84-1.19,.9-2.47,1.56-3.89,1.95-1.15,.31-2.29,.33-3.44,.42-.36,.03-.47-.18-.4-.52,.05-.28,.11-.56,.21-.81,.05-.13,.21-.26,.34-.3,.16-.06,.35-.05,.52-.04,2.48,.06,4.64-.88,6.58-2.62,.72-.65,1.34-1.36,1.82-2.21q.42-.74,1.17-.43Z"/>
        <path class="cls-2" d="M148.79,168.56c-.6-.23-.62-.33-.25-.91,1.57-2.48,3.7-4.15,6.32-5.03,1.1-.37,2.27-.45,3.41-.65,.27-.05,.37,.15,.35,.39-.02,.29-.08,.59-.14,.88-.06,.29-.23,.41-.51,.41-2.08,.04-3.97,.76-5.68,2.1-.84,.66-1.63,1.38-2.18,2.36-.44,.77-.47,.76-1.31,.44Z"/>
      </g>
      <g>
        <path class="cls-3" d="M192.38,156.66c2.51,5.65,3.6,11.99,3.19,18.45l9.44,.09c.45-8.07-1.29-16.04-5.03-23.01l-7.6,4.47Z"/>
        <path class="cls-3" d="M183.55,144.56c3.55,3.12,6.35,6.9,8.36,11.07l7.53-4.43c-2.81-4.91-6.63-9.28-11.41-12.77l-4.48,6.13Z"/>
        <path class="cls-3" d="M169.94,137.2c3.14,.87,6.18,2.19,9.04,3.97,1.31,.82,2.55,1.71,3.71,2.66l4.43-6.05c-.56-.38-1.12-.76-1.7-1.12-4.43-2.76-9.21-4.59-14.1-5.55l-1.37,6.08Z"/>
        <path class="cls-3" d="M153.62,136.46c5.09-.88,10.27-.76,15.23,.45l1.35-5.99c-5.84-.98-11.83-.72-17.59,.67l1.02,4.87Z"/>
        <path class="cls-3" d="M139.24,141.84c4.17-2.49,8.66-4.24,13.25-5.17l-1-4.8c-5.1,1.37-10.01,3.64-14.46,6.74l2.22,3.23Z"/>
        <path class="cls-3" d="M127.9,151.53c3.04-3.62,6.55-6.66,10.34-9.07l-2.17-3.16c-3.95,2.9-7.51,6.47-10.51,10.66l2.34,1.58Z"/>
        <path class="cls-3" d="M117.64,174.41c.55-3.71,1.53-7.38,2.93-10.78l-1.63-.46c-1.16,3.67-1.85,7.45-2.06,11.24h.77Z"/>
        <path class="cls-3" d="M124.4,156.3c.86-1.35,1.79-2.63,2.76-3.86l-2.27-1.53c-.23,.34-.45,.68-.67,1.02-2.09,3.25-3.72,6.65-4.91,10.12l1.73,.49c.94-2.13,2.06-4.22,3.36-6.25"/>
        <path class="cls-3" d="M114.85,174.39c1.44-25.69,23.24-46.32,48.7-46.09,25.46,.23,44.93,21.24,43.49,46.93l3.62,.03c2.08-37.16-31.32-76.94-74.59-75.11,3.79,.82,6.57,2.21,8.49,3.76,6.39,5.15,3.24,12.04-4.34,5.34-2.26-2-4.34-3.52-6.27-4.65-16.52-9.67-22.04,9.32-35.99,2.68,4.43,5.04,10.43,4.54,16.35,3.06,.89-.22,1.79-.47,2.67-.72,10.57-3,11.58,5.72,2.15,6.53-3.76,.32-8.54-.44-13.45-1.18-11.47-1.73-23.66-3.33-25.31,9.38,4.04-8.58,10.18-7.11,18-4.17,9.02,3.38,20.3,8.72,33.21,2.82,11.11-5.07,12.56,4.11,2.92,6.43-4.21,1.01-9.78,1.45-12.41,1.42-8.69-1.5-17.83,1.52-17.83,1.52,10.7,1.12,6.24,4.85,3.97,5.44-7.9,2.04-18.59,1.26-25.7-.19-2.75-.56-4.96-1.22-6.28-1.86,1.34,1.64,3,2.99,4.86,4.1,11.32,6.73,30.34,4.73,34.04,7.56,3.39,2.6-.94,5.76-5.23,4.92-2.21-.43-4.49-1.44-7.03-2.1-4.47-1.16-10.33-1.24-16.84,2.39,3.39-.25,12.64,.26,12.98,4.62,.32,4.22-5.76,7.29-23.64-5.82-.6-.44-1.22-.9-1.85-1.38-19.32-14.69-30.51-1.69-30.51-1.69,11.74-4.04,13.62,3.66,8.23,7.15-6.62,4.28-22.76,7.93-32.89,.29-.54-.41-1.07-.85-1.57-1.33,.29,.47,.59,.91,.9,1.35,12.46,17.52,37.33,7.66,50.44,6.74,1.42-.1,2.7,.02,3.83,.3,10.14,2.52,4.93,12.84-5.97,7.55,1.31,3.36,4.74,3.58,7.21,3.6l41.63,.38Z"/>
        <path class="cls-3" d="M40.36,149.58c-5.35-6.33-8.9,3.72-13.92,.08,4.92,7.9,7.76-2.42,13.92-.08"/>
        <path class="cls-3" d="M88.38,125.57c1,9.43,7.89,1.1,12.34,5.92-2.04-8.16-9.44-.39-12.34-5.92"/>
        <path class="cls-3" d="M91.28,104.85c5.76-4.45,11.09,4.95,16.98-2.24-7.27,3.36-11.76-6.44-16.98,2.24"/>
      </g>
      <g>
        <polygon class="cls-2" points="10 196.41 28.68 196.58 30.74 191.42 16.9 191.3 20.71 181.72 34.55 181.84 36.6 176.68 17.92 176.51 10 196.41"/>
        <polygon class="cls-2" points="45.82 176.77 30.43 196.6 35.87 196.65 44.71 185.09 44.49 191.55 41.46 191.52 39.4 196.68 49.77 196.77 50.21 176.81 45.82 176.77"/>
        <polygon class="cls-2" points="64.28 176.93 59.43 176.89 51.51 196.79 70.2 196.96 72.25 191.8 58.41 191.67 64.28 176.93"/>
        <polygon class="cls-2" points="72.27 196.98 90.95 197.15 93.01 191.98 79.17 191.86 82.98 182.28 96.82 182.41 98.87 177.25 80.19 177.08 72.27 196.98"/>
        <path class="cls-2" d="M100.94,177.27l-7.92,19.9,18.68,.17,7.92-19.9-18.68-.17Zm-1.02,14.78l3.81-9.58,8.99,.08-3.81,9.58-8.99-.08Z"/>
      </g>
      <g>
        <path class="cls-2" d="M195.54,182.72l-7.58,14.02-5.3-.05,7.58-14.02-5.3-.05,3.03-5.61,15.9,.14-3.03,5.61-5.3-.05Z"/>
        <path class="cls-2" d="M205.19,177.17l5.3,.05-7.58,14.02,5.3,.05,7.58-14.02,5.3,.05-10.6,19.62-15.9-.14,10.6-19.62Z"/>
        <path class="cls-2" d="M238.32,177.47l-6.82,12.62-2.99-.03,.03,7.04-6.12-.06-.03-7.04h-1.48s-3.78,7-3.78,7l-5.3-.05,10.6-19.62,15.9,.14Zm-8.33,5.56l-5.3-.05-.75,1.4,5.3,.05,.75-1.4Z"/>
        <path class="cls-2" d="M255.55,177.63l-10.6,19.62-15.9-.14,10.6-19.62,15.9,.14Zm-12.12,12.57l-5.3-.05-.75,1.4,5.3,.05,.75-1.4Zm3.8-7.01l-5.3-.05-.75,1.4,5.3,.05,.75-1.4Z"/>
        <path class="cls-2" d="M256.87,177.64l15.9,.14-10.6,19.62-15.9-.14,10.6-19.62Zm2.27,5.66l-4.55,8.41,5.3,.05,4.55-8.41-5.3-.05Z"/>
        <path class="cls-2" d="M290,177.94l-3.03,5.61-10.6-.1-.75,1.4,10.6,.1-6.82,12.62-15.9-.14,3.03-5.61,10.6,.1,.75-1.4-10.6-.1,6.82-12.62,15.9,.14Z"/>
      </g>
    </g>
  </g>
</svg>