<?xml version="1.0" encoding="UTF-8"?>
<svg id="Capa_2" data-name="Capa 2" xmlns="http://www.w3.org/2000/svg" viewBox="0 0 300 300">
  <defs>
    <style>
      .cls-1 {
        fill: none;
      }

      .cls-2 {
        fill: #ededed;
      }
    </style>
  </defs>
  <g id="Marco">
    <rect class="cls-1" width="300" height="300"/>
  </g>
  <g id="Capa_2-2" data-name="Capa 2">
    <g>
      <path class="cls-2" d="M289.4,165.43l-5.05-13.87c-1.02-2.65-1.05-5.57-.09-8.24,4.22-10.73,8.01-26.9,2.17-42.97-5.84-16.07-19.15-26.01-29.28-31.52-2.44-1.43-4.28-3.69-5.19-6.36l-5.05-13.87c-.34-.98-.85-1.9-1.5-2.71l-.71-.85-20.9,7.61c-2.06,.75-4.45,.33-6.56-1.15-31.86-22.32-72.39-27.78-108.43-14.66-36.03,13.12-63.55,43.36-73.62,80.92-.64,2.49-2.22,4.34-4.28,5.1l-20.9,7.6v1.11c.02,1.03,.22,2.06,.58,3.03l5.03,13.87c1.02,2.63,1.05,5.55,.11,8.21-4.22,10.73-8.01,26.9-2.16,42.97,5.85,16.07,19.15,26.02,29.27,31.53,2.44,1.43,4.28,3.69,5.19,6.36l5.05,13.87c.34,.98,.85,1.89,1.5,2.7l.71,.85,20.9-7.61c2.06-.75,4.45-.33,6.56,1.15,31.86,22.29,72.39,27.78,108.41,14.67,36.02-13.12,63.58-43.36,73.65-80.92,.64-2.49,2.24-4.34,4.29-5.1l20.9-7.6v-1.11c-.03-1.03-.23-2.05-.6-3.01Zm-21.53,8.35c-2.78,1.01-4.9,3.52-5.78,6.89-9.86,36.66-36.82,66.24-72.13,79.09h0c-35.31,12.85-74.98,7.52-106.11-14.26-2.86-2-6.09-2.57-8.87-1.56l-19.05,6.95c-.08-.13-.16-.28-.22-.42l-5.05-13.86c-1.24-3.62-3.73-6.67-7.03-8.61-9.55-5.2-22.07-14.51-27.45-29.29s-1.77-29.95,2.2-40.07c1.29-3.6,1.23-7.54-.15-11.11l-5.05-13.87c-.04-.15-.08-.31-.1-.46l19.04-6.93c2.78-1.01,4.9-3.52,5.78-6.89,9.86-36.72,36.82-66.3,72.13-79.15,35.31-12.85,74.97-7.53,106.08,14.25,2.85,2.01,6.09,2.57,8.87,1.56l19.07-6.95c.06,.15,.16,.24,.22,.42l5.05,13.87c1.24,3.62,3.73,6.67,7.03,8.61,9.55,5.2,22.07,14.5,27.45,29.28,5.38,14.78,1.77,29.96-2.2,40.07-1.29,3.6-1.23,7.55,.15,11.11l5.06,13.89c.04,.15,.07,.31,.1,.47l-19.06,6.97Z"/>
      <path class="cls-2" d="M66.35,142.29c2.96-1.06,4.92-2.62,5.89-4.68,.97-2.06,.92-4.7-.14-7.9-2.31,2.04-4.99,3.61-7.9,4.62-2.81,.98-5.69,1.74-8.63,2.24-3.64,.68-7.22,1.65-10.71,2.9-5.75,2.1-10.18,4.7-13.27,7.81-3.09,3.11-4.97,6.41-5.64,9.88-.66,3.48-.35,7.08,.89,10.4,.92,2.54,2.22,4.12,3.91,4.75,1.69,.63,3.85,.46,6.49-.49-.28-.37-.6-.71-.95-1.02-.6-.58-1.23-1.78-1.89-3.59-2.01-5.52-2.2-9.8-.57-12.85,1.63-3.05,4.61-5.37,8.96-6.95l.87-.32,7.24,52.22,10.53-3.86-7-50.65c3.08-.46,5.46-.85,7.11-1.18,1.63-.33,3.24-.77,4.81-1.34Z"/>
      <path class="cls-2" d="M73.73,188.27c2.51,1.23,5.43,1.36,8.03,.32,2.23-.75,4.16-2.2,5.51-4.12,1.34-2.01,2.34-4.24,2.94-6.58,1.03,2.13,2.38,3.53,4.04,4.23,1.79,.69,3.79,.67,5.56-.08,2.48-.91,4.65-2.63,6.52-5.14l.3,2.15,10.53-3.86-3.56-25.29c-.19-1.95,.01-3.91,.58-5.78,.4-1.45,1.47-2.62,2.87-3.16,1.47-.53,2.58,.28,3.36,2.42,.23,.62,.39,1.27,.45,1.93l3.86,27.19,10.52-3.86-3.57-25.36c-.17-1.93,.01-3.87,.57-5.72,.36-1.4,1.36-2.55,2.7-3.1,1.75-.64,3.09,.29,4,2.77,.45,1.37,.77,2.78,.95,4.22,.26,1.79,.51,3.6,.75,5.44,.02,.4,.12,1.25,.3,2.57,.17,1.32,.37,2.67,.6,4.05,.19,1.23,.48,2.44,.89,3.61,.71,2.19,2.22,4.02,4.23,5.14h0c2,1.08,4.44,1.09,7.46,0,2.67-1.04,4.9-2.95,6.36-5.42,.46-.73,.86-1.58,1.18-2.55,.6,.52,1.24,.95,1.92,1.28h0c2.5,1.21,5.39,1.32,7.97,.3,2.23-.75,4.16-2.19,5.5-4.12,1.34-2.02,2.34-4.24,2.95-6.58,1.07,2.1,2.43,3.5,4.09,4.19,1.79,.69,3.79,.66,5.57-.08,2.67-.98,5-2.89,6.98-5.73,.49-.7,.91-1.49,1.27-2.38,.69,.79,1.46,1.4,2.32,1.82h0c2.03,.96,4.36,1.03,6.45,.19,2.78-1.01,5.24-2.97,7.39-5.88,.67-.91,1.21-1.97,1.66-3.17,.75,.69,1.57,1.24,2.45,1.62,2.69,1.15,5.84,1.06,9.44-.26,5.27-1.92,9.26-5.61,11.99-11.04,.27,.31,.57,.59,.88,.87,1.38,1.18,3.06,1.95,4.86,2.2,2.17,.3,4.38,.03,6.41-.78,2.31-.85,4.45-2.1,6.31-3.71,1.91-1.63,3.33-3.75,4.11-6.13,.82-2.46,.69-5.17-.4-8.14-.48-1.32-1.37-3.4-2.68-6.23-3.23-7.06-6.11-13.67-8.62-19.83l-10.28,5.39c.21,4.51,.24,8.77,.1,12.77-.15,4.07-.56,8.14-1.21,12.17-.92,1.01-1.54,2.25-1.79,3.59-.31,1.51-.18,3.06,.35,4.5-.46,.77-.93,1.52-1.45,2.25-1.57,1.99-3.69,3.48-6.09,4.29-1.86,.67-3.36,.75-4.5,.19-1.14-.56-2.15-2.02-3.01-4.42-.19-.48-.49-1.48-.92-2.98,2.82-1.24,5.35-3.07,7.4-5.38,2.02-2.21,3.46-4.88,4.21-7.78,.73-2.77,.59-5.71-.4-8.39-1.7-4.68-5.23-6.04-10.6-4.09-4.58,1.66-7.82,4.51-9.72,8.55-1.9,4.01-2.8,8.42-2.62,12.85,.06,4.03,.76,8.02,2.06,11.83,.35,.97,.75,1.85,1.17,2.65-.01,.03-.02,.05-.03,.08-.62,1.47-1.81,2.63-3.3,3.21-.78,.39-1.68,.46-2.53,.22-.73-.38-1.25-1.05-1.46-1.84-.29-.79-.48-1.61-.55-2.45l-5.96-42.58-10.28,5.39,5.51,39.51c.22,1.69,.61,3.35,1.14,4.97,.03,.09,.07,.16,.1,.25-.4,1.44-1.45,2.6-2.84,3.14-2,.73-3.39,.04-4.15-2.06-.3-.79-.48-1.61-.56-2.45l-3.79-26.79-10.55,3.86,.6,4.15-.19-.51c-.38-1.1-1.3-1.93-2.44-2.19-1.22-.33-2.83-.12-4.83,.6-3.84,1.34-6.97,4.16-8.7,7.85-1.87,3.88-2.81,8.14-2.76,12.44-.05,4.14,.62,8.26,1.98,12.17,.4,1.12,.86,2.13,1.35,3.04,0,0,0,0,0,.01-.48,1.36-1.57,2.42-2.94,2.85-.81,.39-1.76,.39-2.57,0-.71-.48-1.24-1.2-1.48-2.02-.37-1.16-.62-2.35-.75-3.56-.21-1.55-.4-3.16-.56-4.81-.26-2.72-.54-5.01-.85-6.86-.24-1.67-.64-3.32-1.2-4.91-1.05-2.8-2.54-4.61-4.5-5.45-1.96-.84-4.18-.8-6.68,.1-4.09,1.47-6.73,4.78-7.9,9.92-2.26-3.92-5.53-5.1-9.82-3.53-3.45,1.25-6.16,3.97-7.4,7.42l-.58-4.09-10.54,3.86,4.42,31.52c-.53,.99-1.39,1.77-2.46,2.18-2,.73-3.38,.04-4.15-2.06-.29-.79-.48-1.61-.56-2.45l-3.8-26.79-10.53,3.86,.6,4.16-.19-.51c-.38-1.1-1.3-1.93-2.44-2.19-1.22-.33-2.83-.12-4.83,.6-3.84,1.34-6.97,4.16-8.7,7.85-1.84,3.87-2.77,8.12-2.71,12.4-.06,4.14,.6,8.25,1.95,12.16,1.47,4.05,3.48,6.69,6.03,7.92ZM243.47,95.83c.85,1.84,2.53,5.46,5.04,10.84,1,1.95,1.89,3.95,2.67,5.99,.87,2.39,.89,4.34,.06,5.86h-.02c-.87,1.52-2.29,2.66-3.97,3.2-1.56,.57-2.85,.57-3.86,0-.72-.4-1.34-1.11-1.87-2.12,.1-.3,.2-.6,.29-.91,.41,.06,.88,0,1.44-.2,.91-.31,1.62-1.02,1.93-1.93,.34-.91,.34-1.91,0-2.81-.4-1.11-1.43-1.87-2.61-1.93,.78-5.29,1.07-10.64,.89-15.98Zm-22.73,9.1c.56-3.68,1.72-5.84,3.48-6.48,1.21-.44,2.19,.33,2.92,2.33,.73,2,.93,4.15,.58,6.25-.32,2.11-1.12,4.13-2.33,5.9h.03c-1.1,1.67-2.66,2.99-4.5,3.78-.68-3.89-.75-7.87-.19-11.78Zm-53.82,19.26c.75-2.81,2.11-4.59,4.04-5.3,.82-.37,1.77-.34,2.57,.09,.64,.35,1.14,.92,1.41,1.6l2.51,17.81c.32,1.9,.06,3.86-.73,5.61h0v.03c-.55,1.34-1.61,2.42-2.94,3-.96,.37-2.03,.35-2.98-.08-.95-.44-1.88-1.86-2.76-4.29-.98-2.89-1.57-5.89-1.76-8.93-.31-3.19-.1-6.41,.64-9.54Zm-89.86,32.7c.75-2.82,2.09-4.59,4.04-5.3,.84-.38,1.8-.35,2.6,.09,.64,.35,1.14,.92,1.41,1.6l2.51,17.81c.32,1.9,.07,3.86-.73,5.61h-.01c-.78,1.59-1.78,2.6-2.99,3.03-.96,.37-2.03,.35-2.98-.08-.95-.42-1.87-1.86-2.76-4.3-.98-2.89-1.57-5.89-1.77-8.93-.31-3.19-.08-6.42,.67-9.54Z"/>
      <path class="cls-2" d="M164.49,171.94c.85,.52,1.9,.6,2.82,.22,.9-.26,1.6-.96,1.86-1.86,.21-1.05,.1-2.14-.32-3.12-.69-1.93-1.86-3.12-3.49-3.58-1.88-.44-3.86-.28-5.64,.47-3.25,1.09-5.86,3.55-7.12,6.74-1.34,3.35-1.9,6.96-1.63,10.56,.18,3.44,.84,6.84,1.97,10.1,1.34,3.73,3.06,6.13,5.14,7.2,2.08,1.06,4.71,1.02,7.9-.12,3.28-1.25,6.01-3.62,7.71-6.69,.2-.36,.38-.74,.55-1.12,.58,.76,1.24,1.32,1.99,1.68h0c1.45,.72,3.13,.8,4.63,.21,2.49-.9,4.11-2.98,4.88-6.24,.49,1.05,1.34,1.91,2.38,2.42,1.03,.44,2.19,.44,3.21,0,.94-.28,1.71-.96,2.1-1.86,.4-1.29,.6-2.63,.57-3.98-.24,.24-.55,.41-.87,.51-.46,.21-.98,.26-1.47,.12-.42-.22-.73-.6-.84-1.06-.17-.46-.28-.93-.32-1.42l-2.2-15.52-6.1,2.22,.33,2.43-.11-.3c-.21-.65-.75-1.14-1.41-1.29-.95-.16-1.92-.04-2.8,.35-2.22,.77-4.04,2.41-5.05,4.54-1.08,2.25-1.63,4.71-1.6,7.2-.03,2.4,.35,4.8,1.15,7.07,.1,.28,.21,.55,.32,.8-.41,.72-.9,1.4-1.46,2.02-1.16,1.26-2.6,2.21-4.22,2.78-1.92,.69-3.46,.61-4.6-.24-1.14-.85-2.11-2.36-2.89-4.5-1.08-3.05-1.76-6.21-2.02-9.43-.32-2.98-.16-5.99,.47-8.92,.62-2.55,1.67-4.09,3.17-4.64,.71-.33,1.52-.33,2.23,0,.62,.37,1.07,.95,1.29,1.64,.3,.82,.39,1.7,.27,2.57-.04,.75-.33,1.45-.8,2.02Zm13.68,2.33c.42-1.63,1.2-2.65,2.33-3.08,.48-.22,1.04-.21,1.5,.05,.37,.21,.66,.53,.82,.93l1.46,10.32c.19,1.1,.04,2.23-.43,3.25h0c-.32,.8-.94,1.43-1.74,1.77-.55,.22-1.18,.2-1.72-.05-.56-.24-1.09-1.07-1.61-2.49-.57-1.67-.91-3.41-1.02-5.17-.18-1.85-.04-3.71,.39-5.52Z"/>
      <path class="cls-2" d="M209.7,175.07c-.5-.28-1.1-.31-1.63-.08-.64,.19-1.19,.62-1.53,1.2-.27,.44-.33,.98-.17,1.48,.07,.23,.22,.42,.43,.55,.22,.1,.46,.12,.69,.06,.1,.6-.47,1.12-1.68,1.57-.77,.26-1.56,.48-2.35,.64-.47,.12-.8,.2-.96,.26l3.86-21.71-10.89,3.97c-.91,.31-1.72,.87-2.32,1.61-.56,.67-.94,1.47-1.12,2.33-.17,.71-.14,1.45,.08,2.13,.16,.53,.56,.96,1.08,1.16,.5,.19,1.05,.19,1.55,0,.59-.2,1.09-.61,1.4-1.15,.31-.6,.34-1.31,.07-1.93-.15-.41-.31-.63-.5-.64-.19-.01-.31-.04-.31-.1-.1-.28,.03-.54,.38-.76,.54-.31,1.11-.57,1.71-.77l2.37-.89-3.9,22.88,11.25-4.09c.95-.33,1.8-.91,2.46-1.68,.59-.7,1-1.54,1.18-2.43,.17-.76,.13-1.56-.12-2.31-.18-.53-.55-.99-1.03-1.29Z"/>
      <path class="cls-2" d="M274.85,153.39c-.42-.21-.73-.6-.84-1.06-.17-.46-.28-.93-.33-1.41l-2.19-15.53-6.11,2.22,.33,2.42-.11-.3c-.21-.65-.75-1.14-1.42-1.29-.94-.16-1.92-.04-2.8,.35-2.22,.78-4.04,2.42-5.05,4.54-1.08,2.25-1.63,4.72-1.6,7.21-.03,2.4,.36,4.8,1.15,7.07,.22,.59,.45,1.14,.71,1.63-.37,.86-1.06,1.52-1.92,1.86-.46,.21-.98,.25-1.47,.11-.42-.22-.73-.6-.85-1.06-.17-.46-.28-.93-.31-1.42l-3.46-24.66-5.96,3.13,3.21,22.89c.06,.47,.14,.93,.24,1.39-.47,.96-1.01,1.88-1.64,2.74-.91,1.16-2.13,2.03-3.53,2.49-.81,.37-1.74,.41-2.57,.1-.66-.33-1.25-1.18-1.75-2.57-.1-.28-.28-.85-.53-1.73,1.64-.73,3.1-1.81,4.28-3.16,1.16-1.28,2.01-2.82,2.44-4.5,.42-1.6,.35-3.29-.22-4.84-.98-2.71-3.03-3.5-6.14-2.37-2.48,.81-4.52,2.6-5.64,4.96-1.1,2.32-1.62,4.88-1.52,7.44,.04,2.33,.45,4.65,1.2,6.86,.23,.63,.48,1.19,.76,1.7-.29,.75-.87,1.34-1.62,1.63-.45,.2-.95,.23-1.42,.1-.42-.22-.73-.6-.84-1.06-.17-.46-.28-.94-.33-1.42l-2.19-15.52-6.11,2.22,2.08,14.69c.11,1.09-.01,2.18-.36,3.21-.26,.8-.87,1.45-1.67,1.74-.85,.3-1.5-.13-1.93-1.29-.14-.4-.24-.82-.3-1.23l-2.19-15.53-6.11,2.22,2.06,14.66c.12,.98,.33,1.94,.64,2.88,.62,1.7,1.49,2.81,2.63,3.36,1.19,.56,2.56,.58,3.77,.08,1.13-.42,2.14-1.11,2.94-2.02,.98-1.24,1.63-2.72,1.87-4.28,.46,1.11,1.31,2.01,2.39,2.53,1.05,.42,2.22,.4,3.26-.03,1.66-.66,3.08-1.82,4.05-3.32,.34-.49,.61-1.07,.85-1.71,.42,.38,.87,.68,1.37,.89h0c1.55,.67,3.37,.62,5.45-.13,3.36-1.22,5.82-3.67,7.39-7.35,.58,1.16,1.32,1.97,2.23,2.4h0c1.19,.56,2.56,.58,3.77,.08,1.73-.68,3.22-1.86,4.27-3.4,.37-.5,.67-1.09,.92-1.74,.4,.39,.83,.7,1.29,.92,1.45,.71,3.13,.79,4.63,.21,2.49-.91,4.12-2.99,4.88-6.24,.49,1.05,1.34,1.91,2.39,2.41,1.03,.43,2.19,.43,3.21,0,.94-.28,1.72-.96,2.11-1.86,.4-1.29,.59-2.63,.57-3.97-.25,.23-.55,.4-.87,.51-.46,.22-.98,.26-1.47,.12Zm-39.3,.19c.33-2.13,1-3.39,2.01-3.75,.7-.26,1.27,.19,1.7,1.35,.42,1.16,.53,2.4,.33,3.62-.19,1.23-.65,2.39-1.35,3.42h0c-.64,.96-1.54,1.72-2.59,2.18-.4-2.25-.43-4.55-.1-6.81Zm31.46,1.95v-.03c-.32,.78-.93,1.41-1.7,1.76-.57,.22-1.2,.21-1.75-.04-.55-.24-1.09-1.08-1.6-2.49-.56-1.66-.91-3.39-1.02-5.14-.18-1.85-.05-3.71,.39-5.52,.4-1.65,1.2-2.67,2.33-3.08,.48-.22,1.04-.21,1.5,.05,.37,.21,.66,.53,.82,.92l1.45,10.32c.19,1.1,.04,2.24-.42,3.25Z"/>
      <path class="cls-2" d="M133.25,178.2c-.44-.08-.88-.02-1.29,.15-1.01,.35-1.83,1.1-2.29,2.07-.49,1.02-.74,2.13-.73,3.26-.01,1.09,.17,2.18,.53,3.21,.23,.87,.8,1.63,1.58,2.08h0c.66,.3,1.41,.31,2.07,.03,.59-.19,1.11-.57,1.47-1.08,.35-.51,.6-1.1,.74-1.71,.22,.46,.59,.82,1.05,1.02,.47,.16,.98,.14,1.43-.04,1.07-.39,1.8-1.12,2.21-2.19,.21,.19,.43,.35,.68,.48,.79,.3,1.67,.28,2.45-.06,1.87-.67,2.63-2.03,2.29-4.05-.21,.42-.48,.8-.81,1.14-.29,.31-.65,.55-1.05,.7-.8,.3-1.38-.1-1.77-1.16-.07-.19-.13-.39-.17-.59,.74-.33,1.39-.8,1.93-1.41,.53-.58,.91-1.28,1.11-2.04,.19-.73,.16-1.5-.1-2.2-.44-1.23-1.38-1.58-2.78-1.07-1.13,.36-2.06,1.17-2.57,2.24-.5,1.05-.74,2.21-.69,3.37,.02,1.06,.21,2.11,.55,3.11,.07,.27,.19,.52,.33,.76-.13,.32-.38,.57-.71,.7-.2,.1-.43,.12-.64,.06-.19-.1-.33-.28-.39-.48-.08-.21-.12-.42-.14-.64l-1.57-11.18-2.71,1.41,.63,4.66c-.11-.27-.34-.48-.63-.54Zm8.21-.81c.15-.97,.44-1.54,.89-1.7,.32-.12,.58,.08,.77,.61,.19,.53,.24,1.1,.15,1.65-.09,.56-.31,1.09-.64,1.56v-.02c-.28,.44-.69,.78-1.17,.98-.15-1.02-.15-2.05,0-3.07Zm-7.41,2.35l.64,4.74,.04,.1c.08,.48,0,.97-.22,1.41-.16,.33-.43,.6-.77,.75-.25,.11-.53,.11-.78,0-.37-.28-.62-.68-.73-1.13-.26-.76-.41-1.54-.46-2.34-.08-.84-.02-1.69,.18-2.51,.1-.62,.49-1.14,1.06-1.4,.39-.15,.84,.01,1.03,.39Z"/>
      <polygon class="cls-2" points="92.42 194.38 83.8 201.14 87.64 206.04 88.42 205.42 85.27 201.41 93.11 195.25 92.42 194.38"/>
      <path class="cls-2" d="M95.41,213.98l4.44-11.02-.76-.77-11.06,4.35,.86,.86,2.87-1.18,3.98,4-1.19,2.87,.87,.87Zm-2.65-8.17l5.8-2.38-2.41,5.79-3.39-3.41Z"/>
      <polygon class="cls-2" points="111.08 224.99 116.89 215.67 115.44 214.77 107.51 220.54 107.5 220.53 109.15 210.85 107.7 209.95 101.89 219.27 102.84 219.86 107.89 211.76 107.91 211.78 106.24 221.97 106.74 222.28 115.15 216.29 115.18 216.31 110.13 224.4 111.08 224.99"/>
      <path class="cls-2" d="M122.85,230.12l-.06-11.84-.99-.42-8.58,8.18,1.12,.47,2.2-2.17,5.18,2.19v3.1s1.12,.48,1.12,.48Zm-5.52-6.55l4.46-4.38-.05,6.25-4.41-1.87Z"/>
      <path class="cls-2" d="M133.26,221.93c-.6-.4-1.23-.68-1.89-.86l-3.51-.94-2.83,10.57,3.51,.94c.66,.18,1.34,.24,2.07,.2,.72-.04,1.41-.21,2.06-.51,.65-.3,1.23-.73,1.73-1.3,.51-.57,.88-1.3,1.11-2.18,.23-.88,.28-1.69,.13-2.44-.15-.75-.43-1.42-.85-2-.41-.58-.92-1.08-1.53-1.47Zm1.11,5.61c-.15,.55-.39,1.05-.72,1.52-.33,.47-.75,.85-1.24,1.15-.5,.3-1.07,.49-1.73,.58-.66,.09-1.39,.03-2.18-.18l-2.14-.57,2.32-8.66,2.14,.57c.8,.21,1.46,.52,1.98,.93,.53,.41,.93,.86,1.21,1.37,.28,.51,.45,1.05,.5,1.62,.06,.57,0,1.13-.14,1.68Z"/>
      <path class="cls-2" d="M143.61,228.17c.27-.21,.5-.47,.68-.78,.18-.31,.3-.66,.34-1.06,.06-.53,.03-.99-.11-1.38-.14-.39-.36-.72-.66-.99-.3-.27-.67-.48-1.11-.64-.44-.16-.93-.27-1.45-.33l-3.17-.38-1.31,10.8,1.1,.13,.61-5.05,1.83,.22,2.38,5.41,1.34,.16-2.53-5.52c.4,0,.78-.04,1.13-.14,.35-.1,.67-.26,.94-.47Zm-3.07-.38l-1.91-.23,.47-3.86,1.95,.24c.41,.05,.77,.13,1.1,.24,.33,.11,.6,.26,.81,.44s.37,.4,.48,.66c.1,.26,.13,.57,.09,.92-.08,.64-.38,1.09-.89,1.36-.52,.26-1.22,.34-2.1,.23Z"/>
      <rect class="cls-2" x="141.13" y="228.28" width="10.97" height="1.11" transform="translate(-87.73 366.48) rotate(-87.78)"/>
      <polygon class="cls-2" points="157.28 234.11 158.66 234.03 158.04 223.14 156.93 223.2 157.46 232.48 157.43 232.48 150.56 223.56 149.18 223.64 149.8 234.54 150.91 234.47 150.37 225.1 150.4 225.1 157.28 234.11"/>
      <path class="cls-2" d="M160.88,233.81l1.19-.25,.58-3.05,5.52-1.14,1.76,2.56,1.21-.25-6.8-9.74-1.06,.22-2.41,11.64Zm6.68-5.35l-4.71,.97,1.18-6.16,3.53,5.19Z"/>
      <polygon class="cls-2" points="185.69 226.03 186.95 225.46 182.48 215.54 181.47 215.99 185.28 224.45 185.25 224.46 175.67 218.61 174.4 219.17 178.88 229.1 179.89 228.65 176.04 220.11 176.07 220.1 185.69 226.03"/>
      <path class="cls-2" d="M196.82,219.5l1.04-.66-9.8-6.7-.91,.58,1.87,11.74,1.03-.65-.54-3.06,4.76-3.02,2.55,1.77Zm-7.51,.17l-1.08-6.18,5.14,3.6-4.06,2.58Z"/>
      <polygon class="cls-2" points="205.27 212.52 206.31 211.61 199.15 203.41 198.31 204.14 204.41 211.12 204.39 211.14 193.52 208.33 192.48 209.24 199.64 217.43 200.48 216.71 194.31 209.66 194.34 209.64 205.27 212.52"/>
      <path class="cls-2" d="M208.55,207.42c.71-.05,1.41-.25,2.08-.59,.67-.34,1.28-.83,1.81-1.45,.32-.37,.57-.75,.76-1.14,.19-.39,.32-.77,.4-1.15,.08-.38,.11-.75,.1-1.11-.02-.36-.07-.7-.16-1.02l-.98,.29c.18,.66,.19,1.28,.01,1.88-.17,.6-.46,1.13-.87,1.61-.45,.53-.96,.92-1.52,1.18-.56,.26-1.13,.39-1.71,.41-.58,.01-1.16-.09-1.73-.3-.57-.21-1.1-.53-1.58-.94-.48-.41-.87-.88-1.17-1.41-.3-.53-.49-1.08-.57-1.66-.08-.58-.03-1.16,.14-1.75,.17-.59,.48-1.15,.95-1.69,.23-.26,.47-.49,.73-.66,.26-.18,.52-.32,.79-.43s.53-.18,.79-.21c.26-.03,.49-.03,.69,0l.09-1.14c-.32-.03-.66-.01-1,.06-.34,.07-.68,.19-1.01,.35-.34,.16-.66,.36-.97,.59-.31,.24-.6,.51-.86,.81-.53,.62-.91,1.28-1.14,1.99-.23,.71-.32,1.43-.27,2.14,.05,.72,.25,1.41,.6,2.08,.34,.67,.83,1.28,1.46,1.82,.63,.54,1.3,.93,2.02,1.17,.71,.24,1.43,.34,2.14,.28Z"/>
      <polygon class="cls-2" points="218.08 197.17 214.15 194.6 211.18 187.79 210.47 188.87 213.09 194.53 206.87 194.4 206.11 195.56 213.54 195.53 217.48 198.1 218.08 197.17"/>
      <polygon class="cls-2" points="88.44 102.3 85.04 106.76 85.57 107.16 87.04 105.22 92.3 109.22 92.75 108.63 87.49 104.63 88.96 102.7 88.44 102.3"/>
      <path class="cls-2" d="M90.99,103.79c-.13-.1-.24-.18-.35-.25l-.43,.51c.13,.1,.28,.21,.44,.33,.16,.13,.29,.23,.39,.32l2.87,2.41,.45-.54-1.88-1.58c-.25-.21-.43-.41-.56-.62-.12-.21-.2-.41-.23-.6-.03-.19-.02-.37,.04-.55,.06-.18,.15-.33,.27-.48,.06-.07,.13-.14,.2-.21,.07-.06,.13-.11,.16-.13l-.45-.5c-.06,.04-.12,.09-.17,.14s-.11,.11-.16,.18c-.22,.26-.35,.55-.39,.88s0,.63,.13,.91v.02c-.09-.07-.19-.15-.32-.24Z"/>
      <path class="cls-2" d="M95.26,99.7c-.23-.08-.45-.1-.67-.08-.22,.03-.43,.1-.64,.22-.21,.12-.4,.27-.57,.46-.28,.3-.48,.61-.61,.94-.13,.33-.18,.63-.17,.91l.6,.03c0-.24,.03-.49,.13-.74,.09-.25,.24-.48,.43-.69,.28-.31,.57-.47,.87-.49,.3-.02,.6,.11,.9,.39l.11,.1c-.3,.32-.57,.64-.83,.96-.25,.32-.45,.63-.59,.93-.14,.3-.19,.6-.16,.88,.03,.28,.18,.55,.45,.81,.2,.18,.4,.3,.61,.35,.21,.05,.41,.05,.6,.02,.19-.04,.38-.11,.55-.22,.17-.11,.32-.23,.44-.36,.27-.29,.44-.58,.53-.87,.09-.3,.09-.64,0-1.02h.01c.09,.07,.2,.16,.31,.24,.11,.08,.21,.16,.31,.22l.43-.46c-.12-.07-.25-.17-.41-.3-.15-.13-.3-.25-.43-.38l-1.54-1.43c-.21-.2-.43-.34-.66-.42Zm1.04,1.68c.16,.14,.28,.31,.37,.49,.09,.18,.15,.37,.17,.56s0,.39-.07,.59-.19,.39-.35,.57c-.09,.1-.2,.19-.31,.27-.11,.08-.23,.13-.36,.16-.13,.03-.26,.03-.38,0-.13-.03-.26-.11-.38-.22-.17-.15-.25-.33-.24-.54,0-.2,.06-.42,.17-.64,.11-.22,.25-.45,.43-.68,.18-.23,.37-.45,.56-.66l.14-.15,.26,.24Z"/>
      <path class="cls-2" d="M98.12,95.9c-.35,.11-.65,.28-.91,.51-.28,.26-.48,.54-.62,.84-.13,.3-.2,.61-.21,.92s.05,.62,.18,.93c.12,.31,.3,.59,.55,.85,.24,.26,.51,.46,.81,.61,.3,.14,.6,.23,.91,.25,.31,.02,.62-.03,.94-.14,.31-.11,.61-.3,.88-.55,.26-.24,.45-.53,.59-.86,.13-.34,.17-.69,.11-1.06h.02s.55,.58,.55,.58l.51-.47-5.28-5.7-.51,.47,2.58,2.78h-.02c-.37-.08-.72-.07-1.07,.03Zm1.6,.6c.23,.11,.44,.27,.62,.47,.19,.2,.33,.42,.42,.66s.14,.47,.13,.71c0,.24-.06,.47-.15,.7-.1,.23-.25,.43-.44,.61-.21,.2-.43,.33-.67,.41-.23,.08-.47,.11-.7,.09-.23-.02-.46-.09-.68-.21s-.42-.27-.6-.47c-.18-.2-.32-.41-.42-.64s-.15-.46-.16-.69c0-.23,.04-.46,.14-.69s.25-.44,.46-.64c.2-.18,.41-.31,.64-.39,.23-.08,.47-.11,.71-.1,.24,.02,.47,.08,.7,.19Z"/>
      <path class="cls-2" d="M99.7,92.63c.09-.08,.15-.19,.17-.32,.02-.14-.02-.26-.11-.37-.09-.11-.21-.17-.35-.17-.14,0-.26,.03-.35,.11-.1,.08-.15,.19-.17,.32-.02,.14,.02,.26,.11,.37,.09,.11,.21,.17,.35,.17,.14,0,.25-.03,.35-.11Z"/>
      <rect class="cls-2" x="101.75" y="93.12" width=".7" height="4.82" transform="translate(-37.48 87.32) rotate(-39.73)"/>
      <path class="cls-2" d="M102.85,91.89c-.18,.29-.29,.59-.33,.91-.04,.32-.02,.63,.07,.96s.24,.63,.46,.92c.22,.29,.47,.52,.75,.7,.28,.17,.58,.28,.9,.33,.32,.05,.64,.03,.97-.06,.33-.09,.65-.25,.96-.48,.34-.25,.58-.53,.73-.83,.15-.3,.23-.61,.24-.94h-.66c0,.23-.05,.46-.15,.68-.1,.22-.27,.42-.52,.61-.23,.17-.46,.28-.7,.34-.24,.06-.48,.06-.71,.02-.23-.05-.45-.14-.66-.27-.21-.14-.39-.31-.56-.53s-.28-.45-.36-.69c-.07-.24-.1-.48-.07-.72,.02-.24,.1-.46,.22-.68,.12-.22,.3-.41,.52-.58,.21-.16,.44-.25,.69-.29,.25-.04,.48-.02,.68,.06l.2-.64c-.33-.1-.67-.1-1.02-.01-.35,.09-.66,.23-.92,.42-.31,.23-.56,.5-.74,.79Z"/>
      <path class="cls-2" d="M104.86,88.53c.14,.02,.26,0,.36-.08,.1-.07,.17-.17,.2-.31s0-.26-.07-.38c-.08-.12-.19-.19-.33-.21-.14-.02-.26,0-.36,.08s-.17,.17-.2,.31c-.03,.13,0,.26,.07,.38s.19,.19,.33,.21Z"/>
      <rect class="cls-2" x="107" y="89.15" width=".7" height="4.82" transform="translate(-32.97 76.79) rotate(-34.45)"/>
      <polygon class="cls-2" points="109.39 84.5 108.59 84.99 108.49 86.78 109 86.46 109.39 84.5"/>
      <path class="cls-2" d="M108.07,89.82c.05,.33,.17,.65,.36,.95,.19,.31,.42,.56,.69,.76,.27,.2,.56,.33,.87,.41,.31,.07,.63,.08,.97,.03,.33-.06,.66-.18,.97-.37,.32-.2,.58-.43,.78-.7s.34-.56,.41-.87,.09-.63,.03-.96c-.05-.33-.17-.65-.36-.95-.19-.31-.42-.56-.69-.76-.27-.2-.56-.33-.87-.41-.31-.07-.63-.08-.96-.03-.33,.06-.66,.18-.98,.38-.31,.19-.57,.42-.77,.7-.2,.27-.34,.56-.41,.87-.08,.31-.09,.63-.03,.96Zm.7-.85c.04-.23,.13-.45,.27-.65,.14-.2,.32-.38,.56-.52,.24-.15,.48-.23,.73-.26,.25-.03,.48-.01,.71,.05,.22,.07,.44,.18,.63,.33,.2,.16,.36,.35,.5,.57,.14,.23,.23,.46,.28,.71,.05,.25,.05,.48,.01,.71-.04,.23-.13,.45-.28,.65-.14,.2-.33,.38-.57,.52-.24,.15-.48,.23-.72,.27-.24,.03-.47,.01-.7-.05-.22-.07-.44-.18-.63-.33s-.36-.35-.5-.58c-.14-.23-.23-.46-.28-.71-.05-.25-.05-.48-.01-.71Z"/>
      <path class="cls-2" d="M114.13,85.31c.12-.15,.26-.26,.43-.35,.23-.12,.43-.18,.62-.18s.36,.04,.51,.12c.16,.09,.3,.21,.43,.37,.13,.16,.25,.36,.37,.58l1.22,2.37,.62-.32-1.36-2.63c-.27-.53-.63-.89-1.07-1.07-.44-.18-.93-.13-1.47,.15-.31,.16-.55,.38-.75,.68-.19,.3-.29,.6-.28,.92h-.02c-.05-.08-.11-.2-.19-.33-.08-.14-.15-.26-.23-.37l-.59,.31c.09,.14,.18,.3,.28,.48,.1,.18,.18,.33,.24,.44l1.73,3.34,.62-.32-1.13-2.2c-.15-.29-.24-.55-.27-.8-.04-.25-.03-.47,.02-.67,.05-.2,.14-.37,.26-.52Z"/>
      <path class="cls-2" d="M122.21,81.1c-.37-.03-.71,.02-1.04,.15-.35,.14-.64,.33-.88,.56s-.41,.5-.53,.79c-.12,.29-.17,.6-.17,.93,0,.33,.07,.66,.2,.99s.31,.62,.54,.86c.23,.24,.48,.43,.77,.56,.28,.13,.59,.2,.92,.21,.33,0,.67-.06,1.02-.2,.33-.13,.61-.33,.86-.6,.25-.27,.41-.58,.49-.95h.02s.3,.75,.3,.75l.65-.26-2.88-7.23-.65,.26,1.4,3.53h-.02c-.31-.21-.64-.33-1.01-.36Zm1.28,1.13c.17,.19,.31,.41,.41,.66,.1,.25,.15,.51,.15,.76,0,.25-.04,.49-.13,.71-.09,.22-.22,.42-.39,.59-.17,.18-.38,.31-.63,.41-.27,.11-.52,.16-.77,.15-.25,0-.47-.07-.68-.17-.21-.1-.39-.25-.56-.44-.16-.19-.3-.41-.39-.66-.1-.25-.15-.5-.17-.75-.01-.25,.02-.49,.1-.71,.08-.22,.2-.42,.38-.6,.17-.18,.39-.32,.66-.43,.25-.1,.5-.14,.74-.13,.25,0,.48,.06,.7,.17,.22,.1,.41,.24,.59,.43Z"/>
      <path class="cls-2" d="M129.88,81.01c-.02-.05-.03-.1-.05-.15-.1-.31-.24-.59-.42-.84-.18-.25-.39-.44-.64-.59s-.53-.24-.84-.28-.65,0-1.01,.11c-.33,.1-.61,.26-.86,.47-.24,.21-.44,.45-.58,.73-.14,.28-.23,.59-.25,.92s.01,.67,.12,1.02c.11,.35,.27,.65,.48,.91,.21,.26,.46,.46,.73,.61,.28,.15,.58,.24,.91,.27,.33,.03,.66,0,1-.11,.38-.12,.71-.3,.99-.56s.51-.6,.68-1.03l-.62-.24c-.07,.25-.2,.49-.4,.73-.2,.24-.48,.41-.82,.52-.24,.07-.47,.1-.7,.07-.23-.03-.44-.09-.64-.19s-.37-.24-.52-.42c-.15-.18-.26-.38-.34-.61l3.81-1.18c-.01-.06-.03-.12-.04-.17Zm-3.92,.82c-.05-.2-.06-.4-.03-.61,.03-.21,.09-.4,.19-.59,.1-.19,.23-.35,.4-.49,.16-.14,.36-.25,.58-.32,.48-.15,.89-.12,1.24,.08,.35,.2,.6,.52,.75,.95l-3.13,.97Z"/>
      <path class="cls-2" d="M131.04,78.91c.08-.08,.17-.15,.29-.21,.11-.06,.23-.1,.35-.13,.26-.06,.5-.06,.74,.01s.42,.19,.57,.36l.42-.52c-.22-.23-.5-.38-.84-.45-.34-.07-.67-.07-1,.01-.21,.05-.41,.13-.6,.23-.19,.1-.34,.23-.47,.37-.13,.15-.22,.32-.27,.51-.05,.19-.05,.41,.01,.65,.05,.22,.14,.39,.26,.51,.12,.12,.26,.22,.42,.28,.16,.06,.32,.1,.49,.11,.17,.01,.33,.02,.47,.01,.47,0,.84,.03,1.1,.09,.27,.06,.43,.22,.49,.46,.04,.15,.04,.29,0,.4-.03,.12-.09,.22-.18,.31s-.19,.17-.31,.23c-.13,.06-.26,.11-.41,.14-.28,.07-.55,.06-.82-.02-.27-.08-.48-.21-.65-.39l-.44,.53c.29,.26,.62,.42,.98,.48,.37,.06,.73,.05,1.08-.03,.21-.05,.42-.13,.61-.23,.2-.1,.36-.23,.5-.39,.14-.16,.23-.34,.29-.55,.06-.21,.05-.44-.01-.71-.09-.36-.29-.62-.61-.77-.31-.15-.76-.21-1.34-.19-.4,.02-.71-.01-.92-.08-.21-.07-.34-.22-.39-.44-.03-.13-.03-.24,0-.35,.03-.11,.09-.2,.17-.28Z"/>
      <path class="cls-2" d="M137.37,77.06c-.35-.1-.7-.13-1.04-.07-.37,.06-.69,.18-.97,.36-.28,.18-.5,.4-.68,.65-.17,.26-.29,.55-.36,.87s-.07,.66-.01,1.01c.06,.35,.17,.67,.34,.95,.17,.28,.38,.52,.63,.7,.25,.19,.53,.32,.86,.4,.32,.08,.67,.08,1.04,.02,.34-.06,.66-.19,.96-.4,.3-.21,.52-.48,.67-.82h.02s.13,.79,.13,.79l.69-.12-1.29-7.63-.69,.12,.63,3.72h-.02c-.25-.27-.56-.46-.91-.57Zm1,1.37c.13,.22,.22,.46,.26,.73,.05,.27,.04,.53,0,.78-.05,.25-.14,.47-.28,.67-.13,.2-.3,.36-.51,.5-.21,.14-.44,.22-.7,.27-.28,.05-.54,.04-.78-.02-.24-.06-.45-.16-.63-.31-.18-.15-.33-.33-.45-.55-.12-.22-.2-.46-.25-.72-.04-.26-.05-.52,0-.76,.04-.25,.12-.47,.25-.66,.12-.2,.29-.36,.49-.5,.2-.14,.45-.23,.73-.28,.26-.04,.51-.04,.75,.02,.24,.06,.45,.16,.64,.31,.19,.14,.35,.32,.48,.54Z"/>
      <path class="cls-2" d="M144.81,78.49c0-.05-.01-.11-.02-.15-.03-.33-.11-.63-.24-.91-.13-.28-.3-.51-.51-.71-.21-.2-.47-.34-.77-.44-.3-.1-.64-.13-1.01-.09-.34,.03-.65,.13-.93,.28-.28,.15-.52,.36-.72,.6-.2,.25-.34,.53-.43,.85-.09,.32-.12,.66-.09,1.02,.04,.36,.13,.69,.29,.98,.16,.29,.35,.54,.59,.75,.24,.2,.52,.35,.83,.45,.32,.1,.65,.13,1,.09,.4-.04,.76-.15,1.09-.34,.33-.19,.62-.48,.87-.87l-.56-.36c-.11,.23-.3,.44-.54,.64-.25,.19-.55,.31-.91,.34-.25,.02-.48,0-.7-.07-.22-.07-.42-.18-.59-.32-.17-.14-.31-.31-.42-.52-.11-.2-.18-.42-.21-.66l3.97-.39c0-.06,0-.12,0-.17Zm-4.01,0c0-.21,.03-.41,.1-.6,.07-.2,.17-.37,.31-.54,.14-.16,.3-.29,.49-.4,.19-.1,.4-.17,.63-.19,.5-.05,.9,.06,1.19,.33s.48,.63,.54,1.08l-3.26,.32Z"/>
      <polygon class="cls-2" points="150.53 80.78 150.55 73.5 149.89 73.5 148.04 75.02 148.49 75.53 149.81 74.42 149.79 80.78 150.53 80.78"/>
      <path class="cls-2" d="M154.71,80.91l2.21-3.06c.2-.28,.37-.58,.53-.89,.15-.31,.24-.66,.27-1.03,.02-.34-.01-.65-.11-.94-.1-.29-.24-.55-.44-.76-.2-.21-.44-.39-.72-.52s-.59-.21-.93-.24c-.34-.02-.66,.01-.96,.1s-.56,.23-.78,.42c-.23,.18-.41,.41-.54,.69-.14,.28-.22,.58-.24,.92-.02,.33,.01,.64,.11,.92s.23,.53,.42,.74c.18,.21,.41,.38,.67,.51,.26,.13,.55,.2,.87,.23,.19,.01,.38,0,.58-.03,.2-.03,.36-.09,.48-.16l.02,.02-2.27,3.03,.85,.06Zm1.21-3.58c-.21,.07-.43,.09-.68,.08-.25-.02-.47-.07-.66-.17s-.36-.22-.49-.38c-.13-.16-.23-.34-.29-.55-.06-.21-.08-.43-.07-.66,.02-.23,.07-.45,.16-.65,.09-.2,.22-.37,.37-.51,.15-.14,.33-.24,.54-.31,.21-.07,.43-.1,.67-.08,.24,.02,.46,.08,.65,.18,.19,.1,.36,.23,.49,.39s.23,.34,.3,.55c.06,.21,.09,.43,.07,.67-.02,.23-.07,.45-.16,.65-.09,.2-.21,.36-.36,.5s-.33,.24-.54,.31Z"/>
      <polygon class="cls-2" points="159.33 81.44 163.19 75.34 163.29 74.67 159.02 74.04 158.93 74.69 162.45 75.21 158.51 81.32 159.33 81.44"/>
      <path class="cls-2" d="M167.57,77.93c-.08,.14-.18,.27-.29,.38-.11,.12-.23,.22-.36,.33s-.26,.19-.39,.28l-3.58,2.29-.17,.75,4.55,1.02,.14-.64-3.77-.85,3.14-1.97c.19-.12,.37-.24,.55-.37,.18-.13,.34-.26,.48-.42,.14-.15,.27-.32,.38-.5,.11-.18,.19-.38,.24-.61,.07-.32,.08-.62,.02-.89s-.17-.51-.33-.72c-.16-.21-.35-.38-.59-.52s-.5-.25-.79-.31c-.28-.06-.55-.08-.81-.05-.26,.03-.5,.11-.73,.22-.23,.11-.43,.26-.61,.44-.18,.19-.32,.4-.42,.63l.68,.3c.16-.35,.39-.62,.71-.8,.32-.18,.66-.23,1.05-.14,.19,.04,.36,.11,.52,.22,.16,.1,.29,.23,.39,.37,.1,.15,.17,.31,.21,.5,.04,.18,.03,.38-.02,.59-.04,.16-.09,.31-.18,.45Z"/>
      <path class="cls-2" d="M194.75,193.39c.59-.66,.54-1.68-.12-2.27-.66-.59-1.68-.54-2.27,.12-10.26,11.41-24.35,18.13-39.66,18.95-15.32,.81-30.04-4.39-41.44-14.65-2.96-2.67-5.65-5.65-8-8.86-.52-.72-1.53-.87-2.24-.35-.72,.52-.87,1.53-.35,2.24,2.47,3.39,5.31,6.54,8.44,9.35,11.23,10.1,25.49,15.56,40.48,15.56,1.09,0,2.18-.03,3.28-.09,16.18-.86,31.05-7.96,41.88-20.01Z"/>
      <path class="cls-2" d="M181.27,104.97c.74,.49,1.74,.29,2.23-.46,.49-.74,.28-1.74-.46-2.23-5.15-3.4-10.77-5.98-16.72-7.68-15.56-4.45-31.93-2.57-46.08,5.28-14.15,7.86-24.4,20.76-28.85,36.32-.24,.85,.25,1.74,1.1,1.99,.15,.04,.3,.06,.44,.06,.7,0,1.34-.46,1.54-1.17,4.21-14.74,13.92-26.95,27.32-34.4,13.4-7.44,28.9-9.22,43.64-5,5.63,1.61,10.96,4.06,15.83,7.28Z"/>
      <path class="cls-2" d="M241.14,173.74c-.86-.21-1.73,.31-1.94,1.18-5.9,23.92-20.76,44.11-41.84,56.85-21.08,12.74-45.87,16.51-69.79,10.61-24.26-5.98-45.33-21.83-57.81-43.48-.44-.77-1.42-1.03-2.19-.59-.77,.44-1.03,1.43-.59,2.19,12.91,22.41,34.72,38.81,59.82,45,7.65,1.89,15.31,2.79,22.85,2.79,42.87,0,81.95-29.15,92.67-72.59,.21-.86-.31-1.73-1.18-1.94Z"/>
      <path class="cls-2" d="M58.59,130.35c.14,.04,.28,.05,.41,.05,.71,0,1.36-.47,1.55-1.19,6.33-23.8,21.56-43.72,42.87-56.07,21.31-12.35,46.16-15.67,69.96-9.34,17.5,4.66,33.12,14.27,45.16,27.79,.59,.66,1.61,.72,2.27,.13,.66-.59,.72-1.61,.13-2.27-12.46-13.99-28.62-23.93-46.73-28.76-24.63-6.55-50.35-3.12-72.4,9.66-22.05,12.78-37.81,33.39-44.36,58.03-.23,.86,.28,1.74,1.14,1.97Z"/>
      <polygon class="cls-2" points="135.24 109.41 133.12 107.38 132.8 110.3 130.21 111.69 132.89 112.9 133.41 115.79 135.39 113.62 138.3 114.01 136.84 111.46 138.12 108.82 135.24 109.41"/>
      <polygon class="cls-2" points="125.97 114.21 124.38 112.68 124.13 114.88 122.19 115.92 124.2 116.83 124.6 119 126.08 117.37 128.27 117.66 127.17 115.75 128.13 113.76 125.97 114.21"/>
      <polygon class="cls-2" points="118.62 118.6 117.66 117.68 117.52 119 116.35 119.63 117.56 120.17 117.8 121.48 118.69 120.5 120 120.68 119.34 119.52 119.92 118.33 118.62 118.6"/>
      <polygon class="cls-2" points="144.82 107.35 143.23 105.82 142.99 108.02 141.04 109.06 143.06 109.97 143.44 112.14 144.93 110.51 147.12 110.8 146.03 108.89 146.98 106.9 144.82 107.35"/>
      <polygon class="cls-2" points="152.54 106.26 151.59 105.34 151.44 106.66 150.28 107.28 151.48 107.83 151.72 109.13 152.61 108.15 153.92 108.33 153.26 107.18 153.84 105.99 152.54 106.26"/>
    </g>
  </g>
</svg>