<?xml version="1.0" encoding="UTF-8"?>
<svg id="Capa_2" data-name="Capa 2" xmlns="http://www.w3.org/2000/svg" xmlns:xlink="http://www.w3.org/1999/xlink" viewBox="0 0 250 300">
  <defs>
    <style>
      .cls-1 {
        fill: none;
      }

      .cls-2 {
        fill: #009600;
      }

      .cls-3 {
        fill: #fff;
      }

      .cls-4 {
        fill: url(#Degradado_sin_nombre_3-2);
      }

      .cls-5 {
        fill: url(#Degradado_sin_nombre_2);
      }

      .cls-6 {
        fill: url(#Degradado_sin_nombre_3);
      }
    </style>
    <linearGradient id="Degradado_sin_nombre_2" data-name="Degradado sin nombre 2" x1="766.39" y1="375.83" x2="772.71" y2="389.38" gradientTransform="translate(-451.97 685.79) rotate(-25) scale(1 -1)" gradientUnits="userSpaceOnUse">
      <stop offset="0" stop-color="#009600" stop-opacity="0"/>
      <stop offset=".05" stop-color="#009200" stop-opacity=".07"/>
      <stop offset=".34" stop-color="#007e00" stop-opacity=".47"/>
      <stop offset=".6" stop-color="#006f00" stop-opacity=".76"/>
      <stop offset=".83" stop-color="#006700" stop-opacity=".94"/>
      <stop offset="1" stop-color="#006400"/>
    </linearGradient>
    <linearGradient id="Degradado_sin_nombre_3" data-name="Degradado sin nombre 3" x1="3142.93" y1="-3396.75" x2="3142.93" y2="-3395.89" gradientTransform="translate(3221.89 3411.85) rotate(-180) scale(1 -1)" gradientUnits="userSpaceOnUse">
      <stop offset="0" stop-color="#000" stop-opacity="0"/>
      <stop offset="1" stop-color="#000" stop-opacity=".5"/>
    </linearGradient>
    <linearGradient id="Degradado_sin_nombre_3-2" data-name="Degradado sin nombre 3" x1="78.96" y1="257.96" x2="78.96" y2="258.82" gradientTransform="translate(0 270.5) scale(1 -1)" xlink:href="#Degradado_sin_nombre_3"/>
  </defs>
  <g id="Marco">
    <rect class="cls-1" width="250" height="300"/>
  </g>
  <g id="Capa_4" data-name="Capa 4">
    <g>
      <g id="Negativo">
        <path d="M105.07,9.52l-5.06,8.53h-2.86l-5.06-8.53h3.4l3.09,5.39,3.1-5.39h3.4Z"/>
        <path d="M116.5,9.52c.31,0,.6,.06,.88,.19,.28,.12,.52,.29,.73,.49s.37,.44,.5,.71c.12,.27,.19,.56,.19,.85v4.05c0,.32-.06,.61-.19,.88-.12,.27-.29,.51-.5,.7-.21,.2-.45,.36-.73,.48-.28,.12-.57,.18-.88,.18h-8.03c-.32,0-.61-.06-.88-.18-.27-.12-.51-.28-.71-.48-.2-.2-.36-.43-.48-.7-.12-.27-.18-.57-.18-.88v-4.05c0-.31,.06-.6,.18-.88,.12-.28,.28-.51,.48-.71,.2-.2,.44-.36,.71-.47,.27-.12,.57-.18,.88-.18,0,0,8.03,0,8.03,0Zm-.96,2.12h-6.08v4.29h6.08v-4.29Z"/>
        <path d="M132.78,11.64h-4.62v6.41h-3.24v-6.41h-4.63v-2.12h12.48v2.12h0Z"/>
        <path d="M146.85,15.93v2.12h-10.31c-.31,0-.6-.06-.87-.18-.27-.12-.51-.28-.71-.48-.2-.2-.36-.44-.48-.71-.12-.27-.18-.56-.18-.87v-4.05c0-.31,.06-.6,.18-.87,.12-.27,.28-.51,.48-.71,.2-.2,.44-.36,.71-.48,.27-.12,.56-.18,.87-.18h10.31v2.12h-9.32v4.29h9.32Zm-7.51-1.14v-1.99h6.86v1.99h-6.86Z"/>
        <path d="M151.61,15.93h9.32v2.12h-10.31c-.31,0-.6-.06-.87-.18-.27-.12-.51-.28-.71-.48-.2-.2-.36-.44-.48-.71-.12-.27-.18-.56-.18-.87v-4.05c0-.31,.06-.6,.18-.87,.12-.27,.28-.51,.48-.71,.2-.2,.44-.36,.71-.48,.27-.12,.56-.18,.87-.18h10.31v2.12h-9.32v4.29h0Z"/>
        <path d="M175,9.52v8.53h-3.22v-3.06h-6.1v3.06h-3.24V9.52h3.24v3.49h6.1v-3.49h3.22Z"/>
      </g>
      <g id="Color">
        <g>
          <circle class="cls-2" cx="83.79" cy="13.79" r="8.79"/>
          <circle class="cls-5" cx="83.79" cy="13.82" r="7.81"/>
          <path class="cls-3" d="M89.85,15.96v2.11h-10.27c-.31,0-.59-.06-.86-.18s-.51-.28-.71-.48-.36-.44-.48-.71c-.12-.27-.18-.56-.18-.86v-4.04c0-.31,.06-.59,.18-.86,.12-.27,.28-.51,.48-.71s.44-.36,.71-.48c.27-.12,.56-.18,.86-.18h10.27v2.11h-9.28v4.27h9.28Zm-7.48-1.14v-1.98h6.83v1.98h-6.83Z"/>
          <rect class="cls-6" x="77.34" y="15.1" width="3.22" height=".86"/>
          <rect class="cls-4" x="77.34" y="11.68" width="3.22" height=".86"/>
        </g>
        <g>
          <path class="cls-2" d="M165.4,6.38h-1.85v2.54h-.98v-3.39h3.04c.1,0,.19,.02,.28,.06s.17,.1,.24,.18,.13,.17,.17,.28c.04,.11,.06,.23,.06,.36v.41c0,.13-.02,.24-.07,.35-.04,.11-.1,.2-.18,.28-.07,.08-.16,.14-.25,.19-.09,.05-.18,.07-.27,.07h-1.52v-.79h1.3v-.54h0Z"/>
          <path class="cls-2" d="M169.67,6.38h-1.85v2.54h-.98v-3.39h3.04c.1,0,.19,.02,.28,.06s.17,.1,.24,.18,.13,.17,.17,.28c.04,.11,.06,.23,.06,.36v.41c0,.12-.02,.23-.07,.34s-.11,.2-.18,.28c-.07,.08-.15,.15-.24,.19s-.18,.07-.26,.07l.71,1.21h-2.05v-2h1.11v-.54h0Z"/>
          <path class="cls-2" d="M174.22,5.54c.09,0,.18,.02,.27,.07,.08,.05,.16,.11,.22,.19,.06,.08,.11,.17,.15,.28,.04,.11,.06,.22,.06,.34v1.61c0,.13-.02,.24-.06,.35-.04,.11-.09,.2-.15,.28-.06,.08-.14,.14-.22,.19s-.17,.07-.27,.07h-2.43c-.1,0-.18-.02-.27-.07-.08-.05-.15-.11-.22-.19-.06-.08-.11-.17-.15-.28s-.05-.22-.05-.35v-1.61c0-.12,.02-.24,.05-.35,.04-.11,.08-.2,.15-.28s.13-.14,.22-.19c.08-.05,.17-.07,.27-.07,0,0,2.43,0,2.43,0Zm-.29,.84h-1.84v1.7h1.84v-1.7Z"/>
        </g>
      </g>
    </g>
  </g>
</svg>